<?xml version="1.0" standalone="no"?>
<!DOCTYPE svg PUBLIC "-//W3C//DTD SVG 1.1//EN" "http://www.w3.org/Graphics/SVG/1.1/DTD/svg11.dtd" >
<svg xmlns="http://www.w3.org/2000/svg" xmlns:xlink="http://www.w3.org/1999/xlink" version="1.1">
<metadata>
Created by FontForge 20170731 at Wed Jan  2 22:30:12 2019
 By Aleksey,,,
(c) TIGHTYPE 2019
</metadata>
<defs>
<font id="Moderat-Bold" horiz-adv-x="581" >
  <font-face 
    font-family="Moderat"
    font-weight="700"
    font-stretch="normal"
    units-per-em="1000"
    panose-1="0 0 8 0 0 0 0 0 0 0"
    ascent="800"
    descent="-200"
    x-height="500"
    cap-height="700"
    bbox="-138 -331 1157 931"
    underline-thickness="50"
    underline-position="-150"
    unicode-range="U+0020-2793"
  />
<missing-glyph horiz-adv-x="824" 
d="M772 350q0 -150 -105 -255t-255 -105t-255 106t-105 254q0 149 105.5 254.5t254.5 105.5q151 0 255.5 -105.5t104.5 -254.5zM224 533v-45h44v-128h46v128h44v45h-134zM466 533v-45h45v-128h45v128h45v45h-135zM412 81q109 0 187 76t81 183l-46 8q0 -92 -65 -156.5
t-157 -64.5t-156.5 64.5t-64.5 156.5l-46 -8q3 -107 81 -183t186 -76z" />
    <glyph glyph-name="arrowleft" unicode="&#x3c;&#x2d;" horiz-adv-x="792" 
d="M761 406v-113h-549l186 -187l-75 -75l-302 313v12l302 313l75 -75l-187 -188h550z" />
    <glyph glyph-name="arrowright" unicode="&#x2d;&#x3e;" horiz-adv-x="792" 
d="M470 669l301 -313v-12l-301 -313l-76 75l186 187h-549v113h550l-187 188z" />
    <glyph glyph-name="f_f" unicode="ff" horiz-adv-x="724" 
d="M573 547v-47h127v-101h-127v-399h-128v399h-196v-399h-128v399h-105v101h105v54q0 76 45.5 116t121.5 40q36 0 73 -11l-18 -96q-14 5 -30 5q-64 0 -64 -61v-47h196v54q0 76 45 116t122 40q46 0 95 -17l-21 -93q-23 8 -51 8q-62 0 -62 -61z" />
    <glyph glyph-name="f_f_i" unicode="ffi" horiz-adv-x="960" 
d="M840 564q-31 0 -54.5 23t-23.5 54q0 33 23 55.5t55 22.5t54.5 -22.5t22.5 -55.5q0 -31 -23 -54t-54 -23zM904 500v-500h-128v399h-197v-399h-128v399h-202v-399h-128v399h-105v101h105v54q0 76 45.5 116t121.5 40q36 0 73 -11l-18 -96q-14 5 -30 5q-64 0 -64 -61v-47h202
v54q0 76 45 116t122 40q36 0 73 -11l-18 -96q-14 5 -31 5q-63 0 -63 -61v-47h325z" />
    <glyph glyph-name="f_f_j" unicode="ffj" horiz-adv-x="953" 
d="M840 564q-32 0 -55.5 23t-23.5 54q0 33 23.5 55.5t55.5 22.5t54 -22.5t22 -55.5q0 -31 -22.5 -54t-53.5 -23zM904 500v-564q0 -25 -5.5 -46.5t-20.5 -46t-49 -39t-83 -14.5q-39 0 -87 11v95q23 -6 49 -6q68 0 68 61v448h-203v-399h-128v399h-196v-399h-128v399h-105v101
h105v54q0 76 45.5 116t121.5 40q36 0 73 -11l-18 -96q-14 5 -30 5q-64 0 -64 -61v-47h196v54q0 76 45 116t122 40q36 0 73 -11l-18 -96q-14 5 -31 5q-63 0 -63 -61v-47h331z" />
    <glyph glyph-name="f_i" unicode="fi" horiz-adv-x="630" 
d="M511 564q-32 0 -55.5 23t-23.5 54q0 33 23 55.5t56 22.5q31 0 53.5 -22.5t22.5 -55.5q0 -31 -22.5 -54t-53.5 -23zM574 500v-500h-128v399h-197v-399h-128v399h-105v101h105v54q0 76 45.5 116t121.5 40q36 0 73 -11l-18 -96q-14 5 -30 5q-64 0 -64 -61v-47h325z" />
    <glyph glyph-name="f_j" unicode="fj" horiz-adv-x="630" 
d="M516 564q-32 0 -55.5 23t-23.5 54q0 33 23.5 55.5t55.5 22.5t54.5 -22.5t22.5 -55.5q0 -31 -23 -54t-54 -23zM580 500v-564q0 -25 -5.5 -46.5t-20.5 -46t-49 -39t-83 -14.5q-39 0 -87 11v95q23 -6 49 -6q68 0 68 61v448h-203v-399h-128v399h-105v101h105v54
q0 76 45.5 116t121.5 40q36 0 73 -11l-18 -96q-14 5 -30 5q-64 0 -64 -61v-47h331z" />
    <glyph glyph-name=".notdef" horiz-adv-x="824" 
d="M772 350q0 -150 -105 -255t-255 -105t-255 106t-105 254q0 149 105.5 254.5t254.5 105.5q151 0 255.5 -105.5t104.5 -254.5zM224 533v-45h44v-128h46v128h44v45h-134zM466 533v-45h45v-128h45v128h45v45h-135zM412 81q109 0 187 76t81 183l-46 8q0 -92 -65 -156.5
t-157 -64.5t-156.5 64.5t-64.5 156.5l-46 -8q3 -107 81 -183t186 -76z" />
    <glyph glyph-name=".null" horiz-adv-x="0" 
 />
    <glyph glyph-name="nonmarkingreturn" horiz-adv-x="333" 
 />
    <glyph glyph-name="space" unicode=" " horiz-adv-x="270" 
 />
    <glyph glyph-name="exclam" unicode="!" horiz-adv-x="267" 
d="M69 700h129l-19 -495h-89zM134 -5q-31 0 -53.5 22.5t-22.5 53.5q0 32 22.5 54.5t53.5 22.5q32 0 54 -22.5t22 -54.5q0 -31 -22 -53.5t-54 -22.5z" />
    <glyph glyph-name="quotedbl" unicode="&#x22;" horiz-adv-x="386" 
d="M155 562l-22 -145h-58l-24 146q-10 62 -10 76q0 32 17.5 49t44.5 17q28 0 45.5 -17t17.5 -49q0 -20 -11 -77zM335 562l-23 -145h-58l-23 146q-10 50 -10 76q0 32 17 49t45 17t45 -17t17 -49q0 -12 -10 -77z" />
    <glyph glyph-name="numbersign" unicode="#" horiz-adv-x="713" 
d="M682 384h-112l-29 -129h87v-102h-109l-34 -153h-114l34 153h-171l-34 -153h-113l34 153h-90v102h112l29 129h-86v103h108l34 153h113l-34 -153h171l34 153h114l-34 -153h90v-103zM427 255l29 129h-171l-29 -129h171z" />
    <glyph glyph-name="dollar" unicode="$" horiz-adv-x="582" 
d="M528 170q0 -75 -50 -120t-130 -56v-84h-104v83q-89 13 -139 67t-53 139h131q9 -100 114 -100q41 0 68.5 17.5t27.5 51.5q0 33 -25 56t-78 42l-73 27q-147 54 -147 174q0 73 48 120t126 59v84h104v-84q79 -13 125 -62.5t48 -123.5h-123q-10 81 -103 81q-39 0 -64.5 -18.5
t-25.5 -48.5q0 -29 22 -48t72 -37l68 -25q81 -30 121 -75.5t40 -118.5z" />
    <glyph glyph-name="percent" unicode="%" horiz-adv-x="795" 
d="M206 343q-63 0 -108 45.5t-45 108.5t45 108t108 45q62 0 107.5 -45t45.5 -108t-45.5 -108.5t-107.5 -45.5zM679 640l-432 -640h-137l432 640h137zM205 439q25 0 41.5 16.5t16.5 41.5t-16.5 41t-41.5 16q-24 0 -40 -16t-16 -41t16 -41.5t40 -16.5zM589 -10
q-62 0 -107.5 45t-45.5 108t45.5 108.5t107.5 45.5t108 -45.5t46 -108.5t-45.5 -108t-108.5 -45zM589 86q25 0 41 16t16 41t-16 41.5t-41 16.5q-24 0 -40 -16.5t-16 -41.5t16 -41t40 -16z" />
    <glyph glyph-name="ampersand" unicode="&#x26;" horiz-adv-x="700" 
d="M670 0h-136l-78 85q-90 -95 -206 -95q-85 0 -141.5 46.5t-56.5 123.5q0 66 33 109t91 81l22 14l-1 1q-56 61 -72 90q-22 40 -22 84q0 73 57.5 122t143.5 49q88 0 144 -44.5t56 -117.5q0 -55 -29.5 -95.5t-87.5 -81.5l-33 -23l96 -105l81 101h129l-139 -180zM284 425l1 -2
l28 19q38 25 57 47t19 51q0 33 -24 52.5t-60 19.5q-37 0 -61 -21t-24 -54q0 -29 15 -52.5t49 -59.5zM259 94q66 0 125 68l-115 125l-21 -14q-36 -26 -54.5 -49.5t-18.5 -54.5q0 -33 24 -54t60 -21z" />
    <glyph glyph-name="quotesingle" unicode="'" horiz-adv-x="207" 
d="M155 562l-22 -145h-58l-24 146q-10 62 -10 76q0 32 17.5 49t44.5 17q28 0 45.5 -17t17.5 -49q0 -20 -11 -77z" />
    <glyph glyph-name="parenleft" unicode="(" horiz-adv-x="316" 
d="M295 -122l-77 -55q-74 88 -120 212.5t-46 274.5t46.5 275t119.5 213l77 -55q-134 -186 -134 -433q0 -244 134 -432z" />
    <glyph glyph-name="parenright" unicode=")" horiz-adv-x="316" 
d="M21 -122q134 188 134 432q0 247 -134 433l77 55q73 -88 119.5 -213t46.5 -275t-46 -274.5t-120 -212.5z" />
    <glyph glyph-name="asterisk" unicode="*" horiz-adv-x="415" 
d="M374 582l-100 -52l100 -51l-38 -67l-95 61l5 -112h-77l6 112l-95 -61l-39 67l101 51l-101 52l39 67l95 -62l-6 113h77l-5 -113l95 62z" />
    <glyph glyph-name="plus" unicode="+" 
d="M524 332v-104h-177v-168h-112v168h-179v104h179v168h112v-168h177z" />
    <glyph glyph-name="comma" unicode="," horiz-adv-x="262" 
d="M130 147q38 0 59.5 -28.5t21.5 -74.5q0 -67 -35.5 -116.5t-84.5 -79.5l-33 39q66 55 67 108q-26 -3 -48.5 17.5t-22.5 57.5q0 35 21.5 56t54.5 21z" />
    <glyph glyph-name="hyphen" unicode="-" horiz-adv-x="442" 
d="M31 364h380v-106h-380v106z" />
    <glyph glyph-name="period" unicode="." horiz-adv-x="256" 
d="M128 -5q-31 0 -53.5 22.5t-22.5 53.5q0 32 22.5 54.5t53.5 22.5q32 0 54 -22.5t22 -54.5q0 -31 -22 -53.5t-54 -22.5z" />
    <glyph glyph-name="slash" unicode="/" horiz-adv-x="511" 
d="M490 750l-347 -800h-122l348 800h121z" />
    <glyph glyph-name="zero" unicode="0" horiz-adv-x="612" 
d="M308 -10q-118 0 -187 84t-69 247q0 161 69 245.5t186 84.5t184.5 -84.5t67.5 -246.5q0 -163 -67 -246.5t-184 -83.5zM308 99q116 0 116 220q0 115 -31.5 169t-84.5 54q-54 0 -87 -54t-33 -168t33 -167.5t87 -53.5z" />
    <glyph glyph-name="one" unicode="1" horiz-adv-x="393" 
d="M192 0v418h-140v105h65q89 0 89 87v30h118v-640h-132z" />
    <glyph glyph-name="two" unicode="2" horiz-adv-x="558" 
d="M284 211q-69 -47 -79 -103h298v-108h-451v43q0 156 135 245l103 68q26 18 39.5 29t28 32.5t14.5 45.5q0 35 -23.5 57t-60.5 22q-46 0 -72.5 -30t-28.5 -70h-134q3 82 66.5 145.5t175.5 63.5q96 0 153 -49.5t57 -134.5q0 -38 -11 -69.5t-31.5 -54t-34 -34t-33.5 -24.5z
" />
    <glyph glyph-name="three" unicode="3" horiz-adv-x="586" 
d="M426 331q107 -40 107 -150q0 -82 -67.5 -136.5t-175.5 -54.5q-110 0 -171.5 55t-66.5 149h129q17 -95 108 -95q49 0 79 25.5t30 63.5q0 43 -30 67t-82 24h-58v97h55q46 0 73 22.5t27 63.5q0 39 -26 62.5t-68 23.5q-39 0 -66.5 -21.5t-35.5 -61.5h-126q3 83 70.5 134.5
t162.5 51.5q91 0 155 -48.5t64 -131.5q0 -91 -87 -134v-6z" />
    <glyph glyph-name="four" unicode="4" horiz-adv-x="603" 
d="M571 238v-98h-111v-140h-123v140h-306v64l298 436h131v-402h111zM180 238h157v231h-9z" />
    <glyph glyph-name="five" unicode="5" horiz-adv-x="574" 
d="M316 417q92 0 149 -59.5t57 -150.5q0 -99 -68 -158t-173 -59q-100 0 -162 54t-67 147h127q4 -45 32 -71t72 -26q49 0 78.5 30t29.5 80q0 51 -28.5 83.5t-76.5 32.5q-70 0 -101 -55l-118 26l34 349h391v-107h-278l-17 -153q45 37 119 37z" />
    <glyph glyph-name="six" unicode="6" horiz-adv-x="549" 
d="M308 410q86 0 142.5 -57.5t56.5 -148.5q0 -97 -65 -155.5t-167 -58.5q-105 0 -169.5 61.5t-64.5 162.5q0 44 14.5 88.5t29.5 71.5t40 63l138 203h157l-177 -239q30 9 65 9zM276 94q48 0 76.5 32t28.5 80t-28 78.5t-76 30.5t-76.5 -30.5t-28.5 -78.5t28.5 -80t75.5 -32z
" />
    <glyph glyph-name="seven" unicode="7" horiz-adv-x="540" 
d="M52 640h457v-77q-211 -242 -233 -563h-134q24 313 188 526v6h-278v108z" />
    <glyph glyph-name="eight" unicode="8" horiz-adv-x="579" 
d="M416 337q45 -17 78 -58.5t33 -103.5q0 -83 -63 -134t-173 -51t-174.5 51t-64.5 134q0 62 34 104t78 58v6q-88 42 -88 133q0 79 60.5 127t155.5 48q94 0 153 -46.5t59 -126.5q0 -91 -88 -135v-6zM291 559q-39 0 -64.5 -23t-25.5 -63q0 -39 26 -62.5t64 -23.5t62.5 23
t24.5 63t-24.5 63t-62.5 23zM291 86q44 0 73 26.5t29 71.5q0 46 -28 74t-75 28q-48 0 -76 -28t-28 -72q0 -46 30 -73t75 -27z" />
    <glyph glyph-name="nine" unicode="9" horiz-adv-x="549" 
d="M274 650q105 0 169 -61t64 -163q0 -101 -83 -223l-138 -203h-158l177 239q-30 -9 -64 -9q-86 0 -143 57.5t-57 148.5q0 97 65.5 155.5t167.5 58.5zM272 325q48 0 76.5 30.5t28.5 78.5t-28.5 80t-75.5 32q-48 0 -76.5 -32t-28.5 -80t28 -78.5t76 -30.5z" />
    <glyph glyph-name="colon" unicode=":" horiz-adv-x="256" 
d="M128 352q-31 0 -53.5 22.5t-22.5 53.5q0 32 22.5 54.5t53.5 22.5q32 0 54 -22.5t22 -54.5t-22 -54t-54 -22zM128 -5q-31 0 -53.5 22.5t-22.5 53.5q0 32 22.5 54.5t53.5 22.5q32 0 54 -22.5t22 -54.5q0 -31 -22 -53.5t-54 -22.5z" />
    <glyph glyph-name="semicolon" unicode=";" horiz-adv-x="262" 
d="M133 352q-31 0 -54 22.5t-23 53.5q0 32 22.5 54.5t54.5 22.5t54 -22.5t22 -54.5q0 -31 -22.5 -53.5t-53.5 -22.5zM130 147q38 0 59.5 -28.5t21.5 -74.5q0 -67 -35.5 -116.5t-84.5 -79.5l-33 39q66 55 67 108q-26 -3 -48.5 17.5t-22.5 57.5q0 35 21.5 56t54.5 21z" />
    <glyph glyph-name="less" unicode="&#x3c;" 
d="M500 575v-134l-285 -148v-6l285 -149v-133l-418 220v129z" />
    <glyph glyph-name="equal" unicode="=" 
d="M55 448h470v-109h-470v109zM55 221h470v-108h-470v108z" />
    <glyph glyph-name="greater" unicode="&#x3e;" 
d="M81 575l418 -221v-129l-418 -220v133l285 149v6l-285 148v134z" />
    <glyph glyph-name="question" unicode="?" horiz-adv-x="471" 
d="M145 247q0 57 18 99.5t70 79.5q46 33 62.5 54.5t16.5 50.5q0 32 -21 51.5t-58 19.5q-39 0 -60.5 -22.5t-26.5 -60.5h-115q3 78 52 134.5t150 56.5q92 0 144 -45.5t52 -126.5q0 -55 -23 -90t-76 -77q-39 -29 -55 -58t-16 -74v-34h-114v42zM205 -5q-31 0 -53.5 22.5
t-22.5 53.5q0 32 22.5 54.5t53.5 22.5q32 0 54 -22.5t22 -54.5q0 -31 -22.5 -53.5t-53.5 -22.5z" />
    <glyph glyph-name="at" unicode="@" horiz-adv-x="992" 
d="M496 710q190 0 317 -121.5t127 -314.5q0 -128 -50.5 -197.5t-144.5 -69.5q-53 0 -90.5 19.5t-50.5 54.5q-40 -74 -143 -74q-84 0 -143.5 64.5t-59.5 168.5q0 111 58 180.5t144 69.5t121 -63h8l9 54h94v-308q0 -33 17 -51t45 -18q41 0 61.5 36.5t20.5 121.5
q0 159 -94.5 254.5t-247.5 95.5q-144 0 -241 -103.5t-97 -268.5q0 -153 101 -253t257 -100q108 0 194 52l41 -83q-98 -66 -242 -66q-126 0 -228.5 53t-164.5 156.5t-62 239.5q0 110 36.5 200.5t98 148.5t141.5 90t168 32zM480 111q46 0 77.5 36.5t31.5 98.5t-31.5 98.5
t-77.5 36.5q-47 0 -78 -36t-31 -99t31 -99t78 -36z" />
    <glyph glyph-name="A" unicode="A" horiz-adv-x="700" 
d="M538 0l-57 169h-262l-57 -169h-141l250 700h159l249 -700h-141zM255 278h190l-91 270h-8z" />
    <glyph glyph-name="B" unicode="B" horiz-adv-x="623" 
d="M464 369q47 -17 82 -59.5t35 -115.5q0 -92 -60 -143t-166 -51h-286v700h288q100 0 152 -47.5t52 -127.5q0 -104 -97 -150v-6zM198 594v-181h139q44 0 68 24.5t24 66.5t-24.5 66t-65.5 24h-141zM343 106q50 0 76.5 27t26.5 71q0 45 -27.5 74t-75.5 29h-145v-201h145z" />
    <glyph glyph-name="C" unicode="C" horiz-adv-x="757" 
d="M715 225q-17 -110 -105.5 -172.5t-213.5 -62.5q-158 0 -251 100t-93 257q0 160 95 261.5t249 101.5q122 0 206 -63t102 -176h-142q-17 55 -60 86t-106 31q-93 0 -151 -69t-58 -172q0 -104 59.5 -169.5t149.5 -65.5q67 0 113.5 30.5t63.5 82.5h142z" />
    <glyph glyph-name="D" unicode="D" horiz-adv-x="707" 
d="M314 700q160 0 250.5 -93.5t90.5 -256.5q0 -162 -90.5 -256t-250.5 -94h-245v700h245zM309 118q106 0 158.5 64.5t52.5 171.5q0 106 -52.5 167t-158.5 61h-108v-464h108z" />
    <glyph glyph-name="E" unicode="E" horiz-adv-x="586" 
d="M198 115h350v-115h-479v700h469v-115h-340v-174h293v-112h-293v-184z" />
    <glyph glyph-name="F" unicode="F" horiz-adv-x="571" 
d="M540 579h-339v-186h294v-115h-294v-278h-132v700h471v-121z" />
    <glyph glyph-name="G" unicode="G" horiz-adv-x="787" 
d="M401 380h317v-380h-105l-13 67h-8q-77 -77 -209 -77q-150 0 -240.5 97.5t-90.5 252.5q0 161 99 265.5t256 104.5q130 0 210 -63t95 -161h-144q-16 48 -58 75t-103 27q-100 0 -160 -69.5t-60 -178.5q0 -103 57 -167.5t156 -64.5q82 0 134.5 36t52.5 103v30h-186v103z" />
    <glyph glyph-name="H" unicode="H" horiz-adv-x="696" 
d="M495 700h132v-700h-132v295h-294v-295h-132v700h132v-286h294v286z" />
    <glyph glyph-name="I" unicode="I" horiz-adv-x="270" 
d="M201 700v-700h-132v700h132z" />
    <glyph glyph-name="J" unicode="J" horiz-adv-x="549" 
d="M170 211q2 -44 24.5 -71.5t64.5 -27.5q43 0 66.5 27t23.5 80v481h131v-485q0 -109 -59.5 -167t-160.5 -58q-107 0 -167 59.5t-62 161.5h139z" />
    <glyph glyph-name="K" unicode="K" horiz-adv-x="648" 
d="M477 0l-225 300h-51v-300h-132v700h132v-281h51l198 281h148l-237 -332v-7l266 -361h-150z" />
    <glyph glyph-name="L" unicode="L" horiz-adv-x="579" 
d="M198 118h349v-118h-478v700h129v-582z" />
    <glyph glyph-name="M" unicode="M" horiz-adv-x="894" 
d="M825 700v-700h-129v465h-8l-174 -385h-133l-175 385h-8v-465h-129v700h162l213 -480h8l212 480h161z" />
    <glyph glyph-name="N" unicode="N" horiz-adv-x="725" 
d="M527 700h129v-700h-135l-315 468h-8v-468h-129v700h135l315 -471h8v471z" />
    <glyph glyph-name="O" unicode="O" horiz-adv-x="820" 
d="M410 -10q-154 0 -256 102.5t-102 257.5q0 154 101.5 257t256.5 103q154 0 256 -103t102 -257t-101.5 -257t-256.5 -103zM411 112q96 0 159 68t63 170t-63.5 170t-159.5 68t-159.5 -68t-63.5 -170t63.5 -170t160.5 -68z" />
    <glyph glyph-name="P" unicode="P" horiz-adv-x="636" 
d="M350 700q107 0 170.5 -61.5t63.5 -160.5q0 -102 -64.5 -162.5t-173.5 -60.5h-149v-255h-128v700h281zM333 370q56 0 86 29t30 79q0 49 -30 78t-83 29h-139v-215h136z" />
    <glyph glyph-name="Q" unicode="Q" horiz-adv-x="820" 
d="M532 9q29 -39 107 -39q32 0 76 7v-95q-57 -11 -103 -11q-152 0 -200 119h-2q-154 0 -256 102.5t-102 257.5q0 154 101.5 257t256.5 103q154 0 256 -103t102 -257q0 -120 -64.5 -212.5t-171.5 -128.5zM187 350q0 -102 63.5 -170t160.5 -68q96 0 159 68t63 170t-63.5 170
t-159.5 68t-159.5 -68t-63.5 -170z" />
    <glyph glyph-name="R" unicode="R" horiz-adv-x="629" 
d="M598 0h-140l-146 273h-114v-273h-129v700h277q104 0 165 -56.5t61 -149.5q0 -70 -36 -121.5t-99 -75.5zM198 588v-203h133q50 0 79.5 28.5t29.5 73.5q0 47 -29 74t-80 27h-133z" />
    <glyph glyph-name="S" unicode="S" horiz-adv-x="610" 
d="M556 192q0 -98 -69.5 -150t-173.5 -52q-122 0 -189.5 60.5t-71.5 163.5h130q5 -53 38.5 -82.5t92.5 -29.5q48 0 79 21.5t31 64.5q0 25 -10.5 44t-33 32.5t-40.5 20.5t-49 16l-40 12q-176 53 -176 195q0 92 67 147t170 55q106 0 171 -57.5t68 -148.5h-130q-5 43 -32 68.5
t-76 25.5q-47 0 -76 -23t-29 -61q0 -21 9.5 -37.5t29.5 -28t36.5 -17.5t44.5 -15l35 -11q26 -8 46.5 -16t50 -25.5t49 -39t34 -56t14.5 -76.5z" />
    <glyph glyph-name="T" unicode="T" horiz-adv-x="591" 
d="M559 700v-118h-198v-582h-132v582h-198v118h528z" />
    <glyph glyph-name="U" unicode="U" horiz-adv-x="713" 
d="M644 700v-429q0 -137 -79 -209t-207 -72q-129 0 -209 72t-80 209v429h132v-425q0 -77 43.5 -120t113.5 -43t112 42.5t42 120.5v425h132z" />
    <glyph glyph-name="V" unicode="V" horiz-adv-x="679" 
d="M517 700h141l-239 -700h-159l-239 700h142l174 -523h8z" />
    <glyph glyph-name="W" unicode="W" horiz-adv-x="921" 
d="M773 700h127l-152 -700h-146l-138 481h-8l-136 -481h-146l-153 700h128l103 -506h8l131 456h140l129 -456h8z" />
    <glyph glyph-name="X" unicode="X" horiz-adv-x="667" 
d="M493 0l-152 252h-9l-152 -252h-159l224 361l-213 339h157l143 -232h9l143 232h150l-213 -339l225 -361h-153z" />
    <glyph glyph-name="Y" unicode="Y" horiz-adv-x="678" 
d="M500 700h157l-252 -391v-309h-132v309l-252 391h156l158 -247h8z" />
    <glyph glyph-name="Z" unicode="Z" horiz-adv-x="626" 
d="M246 118h326v-118h-520v77l328 498v7h-311v118h493v-77l-316 -498v-7z" />
    <glyph glyph-name="bracketleft" unicode="[" horiz-adv-x="306" 
d="M69 773h215v-90h-108v-762h108v-90h-215v942z" />
    <glyph glyph-name="backslash" unicode="\" horiz-adv-x="511" 
d="M21 750h121l348 -800h-122z" />
    <glyph glyph-name="bracketright" unicode="]" horiz-adv-x="305" 
d="M236 773v-942h-215v90h108v762h-108v90h215z" />
    <glyph glyph-name="asciicircum" unicode="^" 
d="M401 360l-105 209h-8l-108 -209h-131l171 340h141l171 -340h-131z" />
    <glyph glyph-name="underscore" unicode="_" horiz-adv-x="504" 
d="M31 0h442v-108h-442v108z" />
    <glyph glyph-name="grave" unicode="`" horiz-adv-x="322" 
d="M177 700l76 -145h-97l-87 145h108z" />
    <glyph glyph-name="a" unicode="a" horiz-adv-x="547" 
d="M518 96h12v-96h-54q-79 0 -101 60q-55 -70 -165 -70q-80 0 -128.5 37.5t-48.5 109.5q0 68 45.5 106.5t119.5 45.5l156 16v21q0 40 -23 61t-61 21q-77 0 -90 -75h-128q8 80 66 128.5t152 48.5t153 -48.5t59 -144.5v-183q0 -38 36 -38zM354 193v24l-112 -12q-81 -9 -81 -63
t71 -54q48 0 85 25.5t37 79.5z" />
    <glyph glyph-name="b" unicode="b" horiz-adv-x="605" 
d="M328 510q101 0 168 -70t67 -189q0 -117 -66.5 -189t-168.5 -72q-97 0 -149 69h-9l-11 -59h-104v710h128v-257q51 57 145 57zM308 101q57 0 92 41.5t35 108.5q0 66 -35 107t-92 41t-91 -41t-34 -107q0 -68 34 -109t91 -41z" />
    <glyph glyph-name="c" unicode="c" horiz-adv-x="578" 
d="M303 -10q-117 0 -189.5 72t-72.5 186q0 116 74.5 189t185.5 73q93 0 162 -50t80 -143h-128q-9 36 -39.5 59t-74.5 23q-57 0 -94.5 -42.5t-37.5 -108.5t36.5 -106.5t97.5 -40.5q88 0 113 72h129q-13 -84 -78.5 -133.5t-163.5 -49.5z" />
    <glyph glyph-name="d" unicode="d" horiz-adv-x="605" 
d="M422 710h128v-710h-104l-11 59h-9q-52 -69 -149 -69q-102 0 -168.5 72t-66.5 189q0 119 67 189t168 70q94 0 145 -57v257zM297 101q57 0 91 41t34 109q0 66 -34 107t-91 41t-92 -41t-35 -107q0 -67 35 -108.5t92 -41.5z" />
    <glyph glyph-name="e" unicode="e" horiz-adv-x="575" 
d="M408 158h123q-15 -78 -76.5 -123t-156.5 -45q-113 0 -185 70.5t-72 184.5q0 120 72.5 192.5t179.5 72.5q100 0 168.5 -65t68.5 -192q0 -9 -2 -37h-360q4 -55 38.5 -89.5t91.5 -34.5q89 0 110 66zM293 408q-50 0 -83.5 -30t-40.5 -76h239q-2 47 -34 76.5t-81 29.5z" />
    <glyph glyph-name="f" unicode="f" horiz-adv-x="400" 
d="M249 547v-47h127v-101h-127v-399h-128v399h-105v101h105v54q0 76 45.5 116t121.5 40q45 0 96 -17l-22 -93q-23 8 -51 8q-62 0 -62 -61z" />
    <glyph glyph-name="g" unicode="g" horiz-adv-x="557" 
d="M540 486q-29 -30 -81 -55q32 -41 32 -94q0 -78 -59 -123t-151 -45q-45 0 -84 11q-24 -12 -24 -33q0 -38 66 -38h98q88 0 135 -39.5t47 -108.5q0 -80 -63 -125.5t-172 -45.5q-112 0 -173.5 47.5t-69.5 120.5l76 67q-57 31 -57 92t67 98q-59 46 -59 122q0 75 56.5 124
t150.5 49q66 0 116 -25q53 27 86 71zM281 262q40 0 64 21.5t24 55.5q0 35 -23.5 57t-64.5 22t-66 -22t-25 -57q0 -34 25 -55.5t66 -21.5zM397 -46q0 29 -22 42t-54 13h-91l-66 -56q9 -29 39.5 -48t81.5 -19q49 0 80.5 17.5t31.5 50.5z" />
    <glyph glyph-name="h" unicode="h" horiz-adv-x="588" 
d="M338 510q90 0 142.5 -55t52.5 -152v-303h-128v277q0 59 -30 90.5t-77 31.5q-49 0 -82 -32.5t-33 -95.5v-271h-128v710h128v-269h8q53 69 147 69z" />
    <glyph glyph-name="i" unicode="i" horiz-adv-x="238" 
d="M119 564q-32 0 -55.5 23t-23.5 54q0 33 23.5 55.5t55.5 22.5t54.5 -22.5t22.5 -55.5q0 -31 -23 -54t-54 -23zM55 0v500h128v-500h-128z" />
    <glyph glyph-name="j" unicode="j" horiz-adv-x="238" 
d="M119 564q-32 0 -55.5 23t-23.5 54q0 33 23.5 55.5t55.5 22.5t54.5 -22.5t22.5 -55.5q0 -31 -23 -54t-54 -23zM26 -210q-40 0 -88 11v95q23 -6 49 -6q68 0 68 61v549h128v-564q0 -146 -157 -146z" />
    <glyph glyph-name="k" unicode="k" horiz-adv-x="541" 
d="M525 500l-204 -199l204 -301h-141l-149 217l-52 -50v-167h-128v710h128v-383h8l180 173h154z" />
    <glyph glyph-name="l" unicode="l" horiz-adv-x="238" 
d="M55 0v710h128v-710h-128z" />
    <glyph glyph-name="m" unicode="m" horiz-adv-x="847" 
d="M55 0v500h117l11 -59h8q50 69 137 69q94 0 131 -79h8q55 79 156 79q79 0 124 -47t45 -136v-327h-128v303q0 46 -24 71t-62 25q-41 0 -66 -28t-25 -75v-296h-128v299q0 48 -23.5 74t-61.5 26q-37 0 -64 -26.5t-27 -75.5v-297h-128z" />
    <glyph glyph-name="n" unicode="n" horiz-adv-x="588" 
d="M55 0v500h117l11 -59h8q53 69 147 69q90 0 142.5 -55t52.5 -152v-303h-128v277q0 59 -30 90.5t-77 31.5q-49 0 -82 -32.5t-33 -95.5v-271h-128z" />
    <glyph glyph-name="o" unicode="o" horiz-adv-x="611" 
d="M305 -10q-113 0 -188.5 73.5t-75.5 187.5t75 186.5t189 72.5t189 -72.5t75 -186.5q0 -115 -75 -188t-189 -73zM305 101q61 0 99 43t38 107q0 63 -38 105.5t-99 42.5t-98.5 -42.5t-37.5 -105.5q0 -64 38 -107t98 -43z" />
    <glyph glyph-name="p" unicode="p" horiz-adv-x="605" 
d="M328 510q102 0 168.5 -72t66.5 -189q0 -119 -67 -189t-168 -70q-94 0 -145 57v-247h-128v700h104l11 -59h9q52 69 149 69zM308 101q57 0 92 41t35 107q0 67 -35 108.5t-92 41.5t-91 -41t-34 -109q0 -66 34 -107t91 -41z" />
    <glyph glyph-name="q" unicode="q" horiz-adv-x="605" 
d="M446 500h104v-700h-128v247q-51 -57 -145 -57q-101 0 -168 70t-67 189q0 117 66.5 189t168.5 72q97 0 149 -69h9zM297 101q57 0 91 41t34 107q0 68 -34 109t-91 41t-92 -41.5t-35 -108.5q0 -66 35 -107t92 -41z" />
    <glyph glyph-name="r" unicode="r" horiz-adv-x="392" 
d="M55 0v500h116l12 -71h8q26 42 58 61.5t91 19.5h36v-128q-24 4 -54 4q-75 0 -107 -44.5t-32 -108.5v-233h-128z" />
    <glyph glyph-name="s" unicode="s" horiz-adv-x="499" 
d="M263 -10q-103 0 -160 45.5t-62 124.5h123q10 -75 98 -75q32 0 52.5 12.5t20.5 38.5q0 27 -21.5 41.5t-66.5 26.5l-47 12q-30 7 -51.5 15.5t-44.5 24t-35 41t-12 60.5q0 72 54 112.5t133 40.5q96 0 147 -43t57 -110h-123q-8 58 -80 58q-30 0 -48 -13.5t-18 -37.5
t18.5 -34.5t63.5 -22.5l47 -12q72 -18 110.5 -54t38.5 -102q0 -74 -54.5 -111.5t-139.5 -37.5z" />
    <glyph glyph-name="t" unicode="t" horiz-adv-x="398" 
d="M279 -10q-156 0 -156 146v263h-107v101h34q46 0 65.5 17.5t19.5 58.5v60h116v-136h131v-101h-131v-246q0 -17 3.5 -29t19.5 -22.5t44 -10.5q23 0 49 7v-97q-48 -11 -88 -11z" />
    <glyph glyph-name="u" unicode="u" horiz-adv-x="588" 
d="M533 500v-500h-117l-11 59h-8q-53 -69 -147 -69q-90 0 -142.5 55t-52.5 152v303h128v-277q0 -59 30 -90.5t78 -31.5q49 0 81.5 32.5t32.5 95.5v271h128z" />
    <glyph glyph-name="v" unicode="v" horiz-adv-x="569" 
d="M208 0l-191 500h132l133 -367h8l131 367h131l-191 -500h-153z" />
    <glyph glyph-name="w" unicode="w" horiz-adv-x="775" 
d="M150 0l-133 500h118l85 -354h8l94 322h133l93 -323h8l84 355h119l-135 -500h-140l-92 326h-8l-94 -326h-140z" />
    <glyph glyph-name="x" unicode="x" horiz-adv-x="542" 
d="M17 0l173 257l-164 243h145l96 -147h9l95 147h145l-163 -243l173 -257h-147l-103 162h-8l-106 -162h-145z" />
    <glyph glyph-name="y" unicode="y" horiz-adv-x="569" 
d="M150 -210q-39 0 -81 11v95q29 -6 52 -6q83 0 110 67l17 43h-40l-191 500h132l136 -369h8l127 369h132l-202 -562q-50 -148 -200 -148z" />
    <glyph glyph-name="z" unicode="z" horiz-adv-x="501" 
d="M41 0v64l234 331v6h-222v99h397v-64l-231 -331v-6h239v-99h-417z" />
    <glyph glyph-name="braceleft" unicode="{" horiz-adv-x="298" 
d="M200 417q0 -76 -70 -112v-6q70 -36 70 -112v-212q0 -54 49 -54h28v-90h-50q-64 0 -98.5 32t-34.5 93v220q0 42 -16.5 61.5t-56.5 23.5v81q40 4 56.5 24t16.5 62v220q0 61 34.5 93t98.5 32h50v-90h-28q-49 0 -49 -54v-212z" />
    <glyph glyph-name="bar" unicode="|" horiz-adv-x="254" 
d="M185 770v-910h-116v910h116z" />
    <glyph glyph-name="braceright" unicode="}" horiz-adv-x="298" 
d="M98 417v212q0 54 -49 54h-28v90h50q64 0 98.5 -32t34.5 -93v-220q0 -42 16.5 -62t56.5 -24v-81q-40 -4 -56.5 -23.5t-16.5 -61.5v-220q0 -61 -34.5 -93t-98.5 -32h-50v90h28q49 0 49 54v212q0 76 70 112v6q-70 36 -70 112z" />
    <glyph glyph-name="asciitilde" unicode="~" 
d="M561 369q-6 -82 -46.5 -136.5t-113.5 -54.5q-43 0 -76 15.5t-50 33.5t-39.5 33.5t-45.5 15.5q-59 0 -67 -84h-102q7 83 47 137t114 54q42 0 75.5 -15.5t50 -33.5t39 -33.5t45.5 -15.5q59 0 67 84h102z" />
    <glyph glyph-name="uni00A0" unicode="&#xa0;" horiz-adv-x="250" 
 />
    <glyph glyph-name="exclamdown" unicode="&#xa1;" horiz-adv-x="267" 
d="M135 505q31 0 53.5 -22.5t22.5 -53.5q0 -32 -22.5 -54.5t-53.5 -22.5q-32 0 -54 22.5t-22 54.5q0 31 22.5 53.5t53.5 22.5zM200 -200h-129l19 495h89z" />
    <glyph glyph-name="cent" unicode="&#xa2;" horiz-adv-x="543" 
d="M515 250q-10 -70 -60 -115t-126 -56v-79h-105v82q-86 18 -136.5 82.5t-50.5 155.5q0 93 52 159t135 84v78h105v-74q74 -12 125 -58t60 -123h-122q-9 34 -37.5 56t-70.5 22q-55 0 -90 -40t-35 -104q0 -63 34.5 -101t91.5 -38q84 0 109 69h121z" />
    <glyph glyph-name="sterling" unicode="&#xa3;" horiz-adv-x="617" 
d="M242 107v-7h316v-100h-506v79q139 44 139 146q0 17 -5 35h-134v91h79q-42 59 -42 114q0 87 71 136t174 49q78 0 138 -30t90 -80l-86 -72q-52 72 -136 72q-51 0 -82 -25t-31 -64q0 -10 2.5 -20t5.5 -17t10.5 -17.5t11 -14.5l14 -16t13.5 -15h198v-91h-154q1 -7 1 -22
q0 -73 -87 -131z" />
    <glyph glyph-name="currency" unicode="&#xa4;" horiz-adv-x="617" 
d="M529 250q0 -60 -32 -113l78 -77l-77 -76l-78 78q-52 -29 -111 -29q-61 0 -113 30l-78 -79l-76 76l77 78q-31 51 -31 112q0 62 31 112l-77 78l76 76l78 -79q52 30 113 30q59 0 112 -29l77 78l77 -76l-78 -77q32 -53 32 -113zM309 148q44 0 74 30t30 72t-30 72t-74 30
t-74.5 -30t-30.5 -72t30.5 -72t74.5 -30z" />
    <glyph glyph-name="yen" unicode="&#xa5;" horiz-adv-x="621" 
d="M600 640l-154 -225h113v-97h-179v-90h179v-96h-179v-132h-139v132h-178v96h178v90h-178v97h112l-154 225h150l135 -201h8l135 201h151z" />
    <glyph glyph-name="brokenbar" unicode="&#xa6;" horiz-adv-x="254" 
d="M69 770h116v-355h-116v355zM69 -140v355h116v-355h-116z" />
    <glyph glyph-name="section" unicode="&#xa7;" horiz-adv-x="609" 
d="M447 103q98 -40 98 -133q0 -83 -66.5 -131.5t-174.5 -48.5q-115 0 -182 57.5t-67 148.5h120q3 -46 39 -73t93 -27q51 0 82.5 19.5t31.5 54.5q0 28 -23.5 46t-50 25t-69.5 13q-226 34 -226 190q0 55 32.5 92t77.5 55v6q-98 40 -98 133q0 83 67 131.5t175 48.5
q114 0 181.5 -57.5t66.5 -148.5h-120q-3 46 -38.5 73t-93.5 27q-51 0 -82 -20t-31 -55q0 -21 11.5 -36t34.5 -24t44 -13.5t53 -9.5q225 -34 225 -190q0 -55 -32.5 -92t-77.5 -55v-6zM313 155q53 0 86 25.5t33 69.5q0 43 -40 69t-95 26q-53 0 -86 -25.5t-33 -69.5
q0 -43 40 -69t95 -26z" />
    <glyph glyph-name="dieresis" unicode="&#xa8;" horiz-adv-x="476" 
d="M139 545q-29 0 -49.5 20.5t-20.5 49.5t20.5 48.5t49.5 19.5t49 -19.5t20 -48.5t-20.5 -49.5t-48.5 -20.5zM338 545q-28 0 -48.5 21t-20.5 49q0 29 20.5 48.5t48.5 19.5q29 0 49 -19.5t20 -48.5t-20 -49.5t-49 -20.5z" />
    <glyph glyph-name="copyright" unicode="&#xa9;" horiz-adv-x="834" 
d="M417 -10q-152 0 -258.5 105t-106.5 255t106.5 255t258.5 105q151 0 258 -105t107 -255t-107 -255t-258 -105zM417 67q118 0 201.5 81.5t83.5 201.5t-83.5 201.5t-201.5 81.5t-201.5 -81.5t-83.5 -201.5t83.5 -201.5t201.5 -81.5zM573 293q-5 -61 -48.5 -92.5
t-105.5 -31.5q-79 0 -123.5 48.5t-44.5 131.5q0 82 46.5 131t120.5 49q61 0 102 -30.5t48 -94.5h-93q-12 44 -58 44q-32 0 -51 -27t-19 -75q0 -47 19.5 -71.5t53.5 -24.5q24 0 40.5 12t20.5 31h92z" />
    <glyph glyph-name="guillemotleft" unicode="&#xab;" horiz-adv-x="578" 
d="M155 500h141l-136 -202l136 -202h-141l-134 202zM396 500h140l-135 -202l135 -202h-140l-134 202z" />
    <glyph glyph-name="logicalnot" unicode="&#xac;" 
d="M514 136h-108v189h-351v99h459v-288z" />
    <glyph glyph-name="uni00AD" unicode="&#xad;" horiz-adv-x="442" 
d="M31 364h380v-106h-380v106z" />
    <glyph glyph-name="registered" unicode="&#xae;" horiz-adv-x="834" 
d="M417 710q151 0 258 -105t107 -255t-107 -255t-258 -105q-152 0 -258.5 105t-106.5 255t106.5 255t258.5 105zM417 67q118 0 201.5 81.5t83.5 201.5t-83.5 201.5t-201.5 81.5t-201.5 -81.5t-83.5 -201.5t83.5 -201.5t201.5 -81.5zM549 415q0 -66 -56 -95l75 -145h-91
l-64 125h-40v-125h-84v350h148q52 0 82 -30t30 -80zM373 452v-80h50q20 0 30.5 11.5t10.5 29.5q0 39 -41 39h-50z" />
    <glyph glyph-name="macron" unicode="&#xaf;" horiz-adv-x="469" 
d="M69 656h331v-87h-331v87z" />
    <glyph glyph-name="degree" unicode="&#xb0;" horiz-adv-x="418" 
d="M209 378q-69 0 -118.5 48t-49.5 118q0 69 49.5 117.5t118.5 48.5q68 0 117.5 -48.5t49.5 -117.5q0 -70 -49.5 -118t-117.5 -48zM209 471q32 0 52 20.5t20 52.5t-20 52t-52 20t-52.5 -20.5t-20.5 -51.5q0 -32 21 -52.5t52 -20.5z" />
    <glyph glyph-name="plusminus" unicode="&#xb1;" 
d="M347 411h174v-99h-174v-148h-113v148h-174v99h174v147h113v-147zM60 0v104h461v-104h-461z" />
    <glyph glyph-name="uni00B2" unicode="&#xb2;" horiz-adv-x="344" 
d="M177 468q-40 -24 -47 -57h184v-70h-284v27q0 97 84 149l65 39q15 9 23 15.5t16.5 19t8.5 25.5q0 20 -14 32.5t-36 12.5q-26 0 -41.5 -17t-16.5 -40h-88q1 49 40.5 88t110.5 39q60 0 96.5 -30t36.5 -82q0 -31 -14.5 -55.5t-25.5 -33t-30 -19.5z" />
    <glyph glyph-name="uni00B3" unicode="&#xb3;" horiz-adv-x="364" 
d="M270 539q65 -24 65 -88q0 -50 -43.5 -83t-111.5 -33q-69 0 -107.5 33.5t-42.5 90.5h84q11 -54 66 -54q30 0 48.5 14.5t18.5 35.5q0 24 -18 37.5t-49 13.5h-39v62h37q27 0 43.5 12.5t16.5 35.5q0 21 -16 34t-42 13q-23 0 -40.5 -12t-21.5 -34h-83q2 50 45.5 81.5
t102.5 31.5q58 0 99 -29t41 -79q0 -53 -53 -79v-4z" />
    <glyph glyph-name="acute" unicode="&#xb4;" horiz-adv-x="322" 
d="M145 700h108l-86 -145h-98z" />
    <glyph glyph-name="uni00B5" unicode="&#xb5;" horiz-adv-x="588" 
d="M405 500h128v-500h-117l-11 59h-8q-53 -69 -147 -69q-40 0 -72 15v-205h-123v700h128v-277q0 -59 30 -90.5t78 -31.5q49 0 81.5 32.5t32.5 95.5v271z" />
    <glyph glyph-name="paragraph" unicode="&#xb6;" horiz-adv-x="701" 
d="M41 512q0 83 59 135.5t148 52.5h422v-108h-86v-592h-116v592h-102v-592h-118v323q-87 0 -147 52.5t-60 136.5z" />
    <glyph glyph-name="periodcentered" unicode="&#xb7;" horiz-adv-x="215" 
d="M108 235q-32 0 -54.5 22.5t-22.5 53.5t22.5 53.5t54.5 22.5t54 -22.5t22 -53.5t-22 -53.5t-54 -22.5z" />
    <glyph glyph-name="cedilla" unicode="&#xb8;" horiz-adv-x="326" 
d="M91 -135q29 -18 57 -18q19 0 30 8.5t11 22.5q0 31 -41 31q-13 0 -31 -6l-42 33l45 74h66v-10l-28 -43q39 2 69 -20t30 -62q0 -39 -28 -62t-79 -23q-48 0 -81 24z" />
    <glyph glyph-name="uni00B9" unicode="&#xb9;" horiz-adv-x="248" 
d="M119 340v245h-89v68h40q58 0 58 54v18h75v-385h-84z" />
    <glyph glyph-name="guillemotright" unicode="&#xbb;" horiz-adv-x="578" 
d="M182 96h-141l136 202l-136 202h141l134 -202zM423 96h-141l136 202l-136 202h141l134 -202z" />
    <glyph glyph-name="onequarter" unicode="&#xbc;" horiz-adv-x="852" 
d="M158 315v245h-89v68h41q57 0 57 54v18h76v-385h-85zM718 700l-503 -700h-99l502 700h100zM783 146v-63h-71v-83h-80v83h-190v41l186 261h84v-239h71zM539 146h93v130h-5z" />
    <glyph glyph-name="onehalf" unicode="&#xbd;" horiz-adv-x="884" 
d="M158 315v245h-89v68h41q57 0 57 54v18h76v-385h-85zM718 700l-502 -700h-100l503 700h99zM678 127q-41 -24 -47 -57h184v-70h-285v27q0 97 85 149l65 39q47 30 47 60q0 20 -14 32.5t-36 12.5q-26 0 -41.5 -17t-16.5 -40h-88q2 49 41.5 88t110.5 39q60 0 96 -30t36 -82
q0 -31 -14.5 -55.5t-25.5 -33t-30 -19.5z" />
    <glyph glyph-name="threequarters" unicode="&#xbe;" horiz-adv-x="920" 
d="M309 514q65 -24 65 -88q0 -50 -43.5 -83t-111.5 -33q-69 0 -107.5 33.5t-42.5 90.5h84q11 -54 67 -54q30 0 48.5 14.5t18.5 35.5q0 24 -18.5 37.5t-48.5 13.5h-39v62h37q26 0 42.5 12.5t16.5 35.5q0 21 -16 34t-42 13q-23 0 -40 -12t-22 -34h-82q1 50 44.5 81.5
t103.5 31.5q57 0 98 -29t41 -79q0 -54 -53 -79v-4zM786 700l-502 -700h-100l502 700h100zM851 146v-63h-72v-83h-80v83h-189v41l185 261h84v-239h72zM606 146h93v130h-5z" />
    <glyph glyph-name="questiondown" unicode="&#xbf;" horiz-adv-x="471" 
d="M255 505q32 0 54.5 -22.5t22.5 -53.5q0 -32 -22.5 -54.5t-54.5 -22.5t-54 22.5t-22 54.5q0 31 22.5 53.5t53.5 22.5zM316 253q0 -57 -18 -99.5t-71 -79.5q-46 -34 -62 -55t-16 -50q0 -33 21 -52t57 -19q39 0 61 22.5t27 60.5h114q-2 -78 -51.5 -134.5t-150.5 -56.5
q-92 0 -144 45.5t-52 126.5q0 55 23 90t76 77q39 29 55.5 58t16.5 74v34h114v-42z" />
    <glyph glyph-name="Agrave" unicode="&#xc0;" horiz-adv-x="700" 
d="M399 755h-97l-87 145h108zM538 0l-57 169h-262l-57 -169h-141l250 700h159l249 -700h-141zM255 278h190l-91 270h-8z" />
    <glyph glyph-name="Aacute" unicode="&#xc1;" horiz-adv-x="700" 
d="M485 900l-86 -145h-98l76 145h108zM538 0l-57 169h-262l-57 -169h-141l250 700h159l249 -700h-141zM255 278h190l-91 270h-8z" />
    <glyph glyph-name="Acircumflex" unicode="&#xc2;" horiz-adv-x="700" 
d="M346 829l-51 -77h-107l108 148h107l108 -148h-107l-51 77h-7zM538 0l-57 169h-262l-57 -169h-141l250 700h159l249 -700h-141zM255 278h190l-91 270h-8z" />
    <glyph glyph-name="Atilde" unicode="&#xc3;" horiz-adv-x="700" 
d="M288 802q-38 0 -44 -52h-85q4 60 33.5 99.5t82.5 39.5q37 0 62 -15.5t42 -31t35 -15.5q39 0 43 51h85q-4 -59 -33.5 -98.5t-81.5 -39.5q-34 0 -59.5 15.5t-44 31t-35.5 15.5zM538 0l-57 169h-262l-57 -169h-141l250 700h159l249 -700h-141zM255 278h190l-91 270h-8z" />
    <glyph glyph-name="Adieresis" unicode="&#xc4;" horiz-adv-x="700" 
d="M233 754q-32 0 -55 22.5t-23 53.5q0 32 23 54.5t55 22.5q30 0 52.5 -22.5t22.5 -54.5q0 -31 -22.5 -53.5t-52.5 -22.5zM470 754q-30 0 -52.5 22.5t-22.5 53.5q0 32 22.5 54.5t52.5 22.5q32 0 54.5 -22.5t22.5 -54.5q0 -31 -22.5 -53.5t-54.5 -22.5zM538 0l-57 169h-262
l-57 -169h-141l250 700h159l249 -700h-141zM255 278h190l-91 270h-8z" />
    <glyph glyph-name="Aring" unicode="&#xc5;" horiz-adv-x="700" 
d="M349 734q-41 0 -71 29t-30 69t30 69.5t71 29.5q42 0 72.5 -29.5t30.5 -69.5t-30.5 -69t-72.5 -29zM351 863q-14 0 -23.5 -9t-9.5 -22q0 -12 9.5 -21.5t23.5 -9.5q12 0 21.5 9.5t9.5 21.5q0 13 -9.5 22t-21.5 9zM538 0l-57 169h-262l-57 -169h-141l250 700h159l249 -700
h-141zM255 278h190l-91 270h-8z" />
    <glyph glyph-name="AE" unicode="&#xc6;" horiz-adv-x="1046" 
d="M674 115h335v-115h-463v168h-259l-110 -168h-156l455 700h523v-115h-325v-174h278v-112h-278v-184zM360 278h186v270h-9z" />
    <glyph glyph-name="Ccedilla" unicode="&#xc7;" horiz-adv-x="757" 
d="M715 225q-16 -103 -95 -164.5t-193 -69.5l-22 -34q39 2 69 -20t30 -62q0 -39 -28 -62t-79 -23q-48 0 -81 24l22 51q31 -18 57 -18q19 0 30 8.5t11 22.5q0 31 -41 31q-13 0 -31 -6l-42 33l35 56q-141 13 -223 110.5t-82 244.5q0 160 95 261.5t249 101.5q122 0 206 -63
t102 -176h-142q-17 55 -60 86t-106 31q-93 0 -151 -69t-58 -172q0 -104 59.5 -169.5t149.5 -65.5q67 0 113.5 30.5t63.5 82.5h142z" />
    <glyph glyph-name="Egrave" unicode="&#xc8;" horiz-adv-x="586" 
d="M277 900l76 -145h-97l-87 145h108zM198 115h350v-115h-479v700h469v-115h-340v-174h293v-112h-293v-184z" />
    <glyph glyph-name="Eacute" unicode="&#xc9;" horiz-adv-x="586" 
d="M331 900h108l-86 -145h-98zM198 115h350v-115h-479v700h469v-115h-340v-174h293v-112h-293v-184z" />
    <glyph glyph-name="Ecircumflex" unicode="&#xca;" horiz-adv-x="586" 
d="M249 752h-107l108 148h107l108 -148h-107l-51 77h-7zM198 115h350v-115h-479v700h469v-115h-340v-174h293v-112h-293v-184z" />
    <glyph glyph-name="Edieresis" unicode="&#xcb;" horiz-adv-x="586" 
d="M186 754q-32 0 -55 22.5t-23 53.5q0 32 23 54.5t55 22.5q30 0 52.5 -22.5t22.5 -54.5q0 -31 -22.5 -53.5t-52.5 -22.5zM423 754q-30 0 -52.5 22.5t-22.5 53.5q0 32 22.5 54.5t52.5 22.5q32 0 54.5 -22.5t22.5 -54.5q0 -31 -22.5 -53.5t-54.5 -22.5zM198 115h350v-115
h-479v700h469v-115h-340v-174h293v-112h-293v-184z" />
    <glyph glyph-name="Igrave" unicode="&#xcc;" horiz-adv-x="270" 
d="M108 900l76 -145h-97l-87 145h108zM201 700v-700h-132v700h132z" />
    <glyph glyph-name="Iacute" unicode="&#xcd;" horiz-adv-x="270" 
d="M162 900h108l-86 -145h-98zM201 700v-700h-132v700h132z" />
    <glyph glyph-name="Icircumflex" unicode="&#xce;" horiz-adv-x="270" 
d="M80 752h-107l108 148h107l108 -148h-107l-51 77h-7zM201 700v-700h-132v700h132z" />
    <glyph glyph-name="Idieresis" unicode="&#xcf;" horiz-adv-x="270" 
d="M18 754q-32 0 -55 22.5t-23 53.5q0 32 23 54.5t55 22.5q30 0 52.5 -22.5t22.5 -54.5q0 -31 -22.5 -53.5t-52.5 -22.5zM255 754q-30 0 -52.5 22.5t-22.5 53.5q0 32 22.5 54.5t52.5 22.5q32 0 54.5 -22.5t22.5 -54.5q0 -31 -22.5 -53.5t-54.5 -22.5zM201 700v-700h-132v700
h132z" />
    <glyph glyph-name="Eth" unicode="&#xd0;" horiz-adv-x="707" 
d="M314 700q160 0 250.5 -93.5t90.5 -256.5q0 -162 -90.5 -256t-250.5 -94h-245v301h-111v97h111v302h245zM309 118q106 0 158.5 64.5t52.5 171.5q0 106 -52.5 167t-158.5 61h-108v-184h177v-97h-177v-183h108z" />
    <glyph glyph-name="Ntilde" unicode="&#xd1;" horiz-adv-x="725" 
d="M554 878q-4 -59 -33.5 -98.5t-81.5 -39.5q-34 0 -59.5 15.5t-44 31t-35.5 15.5q-38 0 -44 -52h-85q4 60 33.5 99.5t82.5 39.5q37 0 62 -15.5t42 -31t35 -15.5q39 0 43 51h85zM527 700h129v-700h-135l-315 468h-8v-468h-129v700h135l315 -471h8v471z" />
    <glyph glyph-name="Ograve" unicode="&#xd2;" horiz-adv-x="820" 
d="M383 900l76 -145h-97l-87 145h108zM410 -10q-154 0 -256 102.5t-102 257.5q0 154 101.5 257t256.5 103q154 0 256 -103t102 -257t-101.5 -257t-256.5 -103zM411 112q96 0 159 68t63 170t-63.5 170t-159.5 68t-159.5 -68t-63.5 -170t63.5 -170t160.5 -68z" />
    <glyph glyph-name="Oacute" unicode="&#xd3;" horiz-adv-x="820" 
d="M437 900h108l-86 -145h-98zM410 -10q-154 0 -256 102.5t-102 257.5q0 154 101.5 257t256.5 103q154 0 256 -103t102 -257t-101.5 -257t-256.5 -103zM411 112q96 0 159 68t63 170t-63.5 170t-159.5 68t-159.5 -68t-63.5 -170t63.5 -170t160.5 -68z" />
    <glyph glyph-name="Ocircumflex" unicode="&#xd4;" horiz-adv-x="820" 
d="M355 752h-107l108 148h107l108 -148h-107l-51 77h-7zM410 -10q-154 0 -256 102.5t-102 257.5q0 154 101.5 257t256.5 103q154 0 256 -103t102 -257t-101.5 -257t-256.5 -103zM411 112q96 0 159 68t63 170t-63.5 170t-159.5 68t-159.5 -68t-63.5 -170t63.5 -170t160.5 -68
z" />
    <glyph glyph-name="Otilde" unicode="&#xd5;" horiz-adv-x="820" 
d="M602 878q-4 -59 -33.5 -98.5t-81.5 -39.5q-34 0 -59.5 15.5t-44 31t-35.5 15.5q-38 0 -44 -52h-85q4 60 33.5 99.5t82.5 39.5q37 0 62 -15.5t42 -31t35 -15.5q39 0 43 51h85zM410 -10q-154 0 -256 102.5t-102 257.5q0 154 101.5 257t256.5 103q154 0 256 -103t102 -257
t-101.5 -257t-256.5 -103zM411 112q96 0 159 68t63 170t-63.5 170t-159.5 68t-159.5 -68t-63.5 -170t63.5 -170t160.5 -68z" />
    <glyph glyph-name="Odieresis" unicode="&#xd6;" horiz-adv-x="820" 
d="M293 754q-32 0 -55 22.5t-23 53.5q0 32 23 54.5t55 22.5q30 0 52.5 -22.5t22.5 -54.5q0 -31 -22.5 -53.5t-52.5 -22.5zM530 754q-30 0 -52.5 22.5t-22.5 53.5q0 32 22.5 54.5t52.5 22.5q32 0 54.5 -22.5t22.5 -54.5q0 -31 -22.5 -53.5t-54.5 -22.5zM410 -10
q-154 0 -256 102.5t-102 257.5q0 154 101.5 257t256.5 103q154 0 256 -103t102 -257t-101.5 -257t-256.5 -103zM411 112q96 0 159 68t63 170t-63.5 170t-159.5 68t-159.5 -68t-63.5 -170t63.5 -170t160.5 -68z" />
    <glyph glyph-name="multiply" unicode="&#xd7;" 
d="M522 428l-155 -148l155 -148l-74 -76l-157 150l-157 -150l-75 76l155 148l-155 148l74 75l158 -150l157 150z" />
    <glyph glyph-name="Oslash" unicode="&#xd8;" horiz-adv-x="820" 
d="M666 608q102 -104 102 -258t-101.5 -257t-256.5 -103q-98 0 -176 43l-64 -86l-78 58l64 86q-104 102 -104 259q0 154 101.5 257t256.5 103q97 0 175 -43l63 85l81 -60zM181 350q0 -90 50 -158l282 379q-48 24 -103 24q-99 0 -164 -70t-65 -175zM411 105q99 0 163.5 70
t64.5 175q0 90 -49 156l-283 -377q50 -24 104 -24z" />
    <glyph glyph-name="Ugrave" unicode="&#xd9;" horiz-adv-x="713" 
d="M329 900l76 -145h-97l-87 145h108zM644 700v-429q0 -137 -79 -209t-207 -72q-129 0 -209 72t-80 209v429h132v-425q0 -77 43.5 -120t113.5 -43t112 42.5t42 120.5v425h132z" />
    <glyph glyph-name="Uacute" unicode="&#xda;" horiz-adv-x="713" 
d="M383 900h108l-86 -145h-98zM644 700v-429q0 -137 -79 -209t-207 -72q-129 0 -209 72t-80 209v429h132v-425q0 -77 43.5 -120t113.5 -43t112 42.5t42 120.5v425h132z" />
    <glyph glyph-name="Ucircumflex" unicode="&#xdb;" horiz-adv-x="713" 
d="M301 752h-107l108 148h107l108 -148h-107l-51 77h-7zM644 700v-429q0 -137 -79 -209t-207 -72q-129 0 -209 72t-80 209v429h132v-425q0 -77 43.5 -120t113.5 -43t112 42.5t42 120.5v425h132z" />
    <glyph glyph-name="Udieresis" unicode="&#xdc;" horiz-adv-x="713" 
d="M239 754q-32 0 -55 22.5t-23 53.5q0 32 23 54.5t55 22.5q30 0 52.5 -22.5t22.5 -54.5q0 -31 -22.5 -53.5t-52.5 -22.5zM476 754q-30 0 -52.5 22.5t-22.5 53.5q0 32 22.5 54.5t52.5 22.5q32 0 54.5 -22.5t22.5 -54.5q0 -31 -22.5 -53.5t-54.5 -22.5zM644 700v-429
q0 -137 -79 -209t-207 -72q-129 0 -209 72t-80 209v429h132v-425q0 -77 43.5 -120t113.5 -43t112 42.5t42 120.5v425h132z" />
    <glyph glyph-name="Yacute" unicode="&#xdd;" horiz-adv-x="678" 
d="M366 900h108l-86 -145h-98zM500 700h157l-252 -391v-309h-132v309l-252 391h156l158 -247h8z" />
    <glyph glyph-name="Thorn" unicode="&#xde;" horiz-adv-x="629" 
d="M342 572q108 0 171.5 -61.5t63.5 -160.5q0 -101 -64.5 -162t-173.5 -61h-142v-127h-128v700h128v-128h145zM325 243q57 0 87 29t30 79q0 48 -30.5 77t-82.5 29h-132v-214h128z" />
    <glyph glyph-name="germandbls" unicode="&#xdf;" horiz-adv-x="574" 
d="M403 372q62 -20 96 -62t34 -120q0 -97 -53.5 -148.5t-151.5 -51.5q-42 0 -94 14v96q36 -11 71 -11q51 0 80 28t29 82q0 113 -130 113h-50v98h38q50 0 79 25.5t29 72.5q0 44 -25.5 71t-71.5 27t-73 -26.5t-27 -79.5v-500h-128v495q0 102 58.5 158.5t167.5 56.5
q101 0 161.5 -48t60.5 -132q0 -107 -100 -152v-6z" />
    <glyph glyph-name="agrave" unicode="&#xe0;" horiz-adv-x="547" 
d="M312 555h-97l-87 145h108zM518 96h12v-96h-54q-79 0 -101 60q-55 -70 -165 -70q-80 0 -128.5 37.5t-48.5 109.5q0 68 45.5 106.5t119.5 45.5l156 16v21q0 40 -23 61t-61 21q-77 0 -90 -75h-128q8 80 66 128.5t152 48.5t153 -48.5t59 -144.5v-183q0 -38 36 -38zM354 193
v24l-112 -12q-81 -9 -81 -63t71 -54q48 0 85 25.5t37 79.5z" />
    <glyph glyph-name="aacute" unicode="&#xe1;" horiz-adv-x="547" 
d="M398 700l-86 -145h-98l76 145h108zM518 96h12v-96h-54q-79 0 -101 60q-55 -70 -165 -70q-80 0 -128.5 37.5t-48.5 109.5q0 68 45.5 106.5t119.5 45.5l156 16v21q0 40 -23 61t-61 21q-77 0 -90 -75h-128q8 80 66 128.5t152 48.5t153 -48.5t59 -144.5v-183q0 -38 36 -38z
M354 193v24l-112 -12q-81 -9 -81 -63t71 -54q48 0 85 25.5t37 79.5z" />
    <glyph glyph-name="acircumflex" unicode="&#xe2;" horiz-adv-x="547" 
d="M259 629l-51 -77h-107l108 148h107l108 -148h-107l-51 77h-7zM518 96h12v-96h-54q-79 0 -101 60q-55 -70 -165 -70q-80 0 -128.5 37.5t-48.5 109.5q0 68 45.5 106.5t119.5 45.5l156 16v21q0 40 -23 61t-61 21q-77 0 -90 -75h-128q8 80 66 128.5t152 48.5t153 -48.5
t59 -144.5v-183q0 -38 36 -38zM354 193v24l-112 -12q-81 -9 -81 -63t71 -54q48 0 85 25.5t37 79.5z" />
    <glyph glyph-name="atilde" unicode="&#xe3;" horiz-adv-x="547" 
d="M201 602q-38 0 -44 -52h-85q4 60 33.5 99.5t82.5 39.5q37 0 62 -15.5t42 -31t35 -15.5q39 0 43 51h85q-4 -59 -33.5 -98.5t-81.5 -39.5q-34 0 -59.5 15.5t-44 31t-35.5 15.5zM518 96h12v-96h-54q-79 0 -101 60q-55 -70 -165 -70q-80 0 -128.5 37.5t-48.5 109.5
q0 68 45.5 106.5t119.5 45.5l156 16v21q0 40 -23 61t-61 21q-77 0 -90 -75h-128q8 80 66 128.5t152 48.5t153 -48.5t59 -144.5v-183q0 -38 36 -38zM354 193v24l-112 -12q-81 -9 -81 -63t71 -54q48 0 85 25.5t37 79.5z" />
    <glyph glyph-name="adieresis" unicode="&#xe4;" horiz-adv-x="547" 
d="M164 545q-28 0 -49 20.5t-21 49.5t20.5 48.5t49.5 19.5t49 -19.5t20 -48.5t-20.5 -49.5t-48.5 -20.5zM363 545q-28 0 -48.5 21t-20.5 49q0 29 20.5 48.5t48.5 19.5q29 0 49 -19.5t20 -48.5t-20 -49.5t-49 -20.5zM518 96h12v-96h-54q-79 0 -101 60q-55 -70 -165 -70
q-80 0 -128.5 37.5t-48.5 109.5q0 68 45.5 106.5t119.5 45.5l156 16v21q0 40 -23 61t-61 21q-77 0 -90 -75h-128q8 80 66 128.5t152 48.5t153 -48.5t59 -144.5v-183q0 -38 36 -38zM354 193v24l-112 -12q-81 -9 -81 -63t71 -54q48 0 85 25.5t37 79.5z" />
    <glyph glyph-name="aring" unicode="&#xe5;" horiz-adv-x="547" 
d="M262 534q-41 0 -71 29t-30 69t30 69.5t71 29.5q42 0 72.5 -29.5t30.5 -69.5t-30.5 -69t-72.5 -29zM264 663q-14 0 -23.5 -9t-9.5 -22q0 -12 9.5 -21.5t23.5 -9.5q12 0 21.5 9.5t9.5 21.5q0 13 -9.5 22t-21.5 9zM518 96h12v-96h-54q-79 0 -101 60q-55 -70 -165 -70
q-80 0 -128.5 37.5t-48.5 109.5q0 68 45.5 106.5t119.5 45.5l156 16v21q0 40 -23 61t-61 21q-77 0 -90 -75h-128q8 80 66 128.5t152 48.5t153 -48.5t59 -144.5v-183q0 -38 36 -38zM354 193v24l-112 -12q-81 -9 -81 -63t71 -54q48 0 85 25.5t37 79.5z" />
    <glyph glyph-name="ae" unicode="&#xe6;" horiz-adv-x="756" 
d="M598 158h115q-8 -83 -61 -125.5t-132 -42.5q-109 0 -156 73q-44 -73 -165 -73q-77 0 -121.5 36.5t-44.5 104.5q0 83 58.5 126t162.5 43h52v37q0 74 -69 74q-72 0 -75 -71l-122 4q4 79 55 122.5t136 43.5q97 0 145 -64q49 64 142 64q83 0 138 -60t55 -196q0 -26 -1 -42
h-277q2 -125 85 -125q71 0 80 71zM516 413q-36 0 -58.5 -27.5t-24.5 -85.5h160q0 113 -77 113zM219 87q35 0 61 19t26 63v43h-50q-103 0 -103 -68q0 -28 18 -42.5t48 -14.5z" />
    <glyph glyph-name="ccedilla" unicode="&#xe7;" horiz-adv-x="578" 
d="M545 173q-12 -78 -70 -126.5t-146 -55.5l-22 -34q39 2 69 -20t30 -62q0 -39 -28 -62t-79 -23q-48 0 -81 24l22 51q31 -18 57 -18q19 0 30 8.5t11 22.5q0 31 -41 31q-13 0 -31 -6l-42 33l35 57q-98 14 -158 83.5t-60 171.5q0 116 74.5 189t185.5 73q93 0 162 -50t80 -143
h-128q-9 36 -39.5 59t-74.5 23q-57 0 -94.5 -42.5t-37.5 -108.5t36.5 -106.5t97.5 -40.5q88 0 113 72h129z" />
    <glyph glyph-name="egrave" unicode="&#xe8;" horiz-adv-x="575" 
d="M342 555h-97l-87 145h108zM408 158h123q-15 -78 -76.5 -123t-156.5 -45q-113 0 -185 70.5t-72 184.5q0 120 72.5 192.5t179.5 72.5q100 0 168.5 -65t68.5 -192q0 -9 -2 -37h-360q4 -55 38.5 -89.5t91.5 -34.5q89 0 110 66zM293 408q-50 0 -83.5 -30t-40.5 -76h239
q-2 47 -34 76.5t-81 29.5z" />
    <glyph glyph-name="eacute" unicode="&#xe9;" horiz-adv-x="575" 
d="M428 700l-86 -145h-98l76 145h108zM408 158h123q-15 -78 -76.5 -123t-156.5 -45q-113 0 -185 70.5t-72 184.5q0 120 72.5 192.5t179.5 72.5q100 0 168.5 -65t68.5 -192q0 -9 -2 -37h-360q4 -55 38.5 -89.5t91.5 -34.5q89 0 110 66zM293 408q-50 0 -83.5 -30t-40.5 -76
h239q-2 47 -34 76.5t-81 29.5z" />
    <glyph glyph-name="ecircumflex" unicode="&#xea;" horiz-adv-x="575" 
d="M289 629l-51 -77h-107l108 148h107l108 -148h-107l-51 77h-7zM408 158h123q-15 -78 -76.5 -123t-156.5 -45q-113 0 -185 70.5t-72 184.5q0 120 72.5 192.5t179.5 72.5q100 0 168.5 -65t68.5 -192q0 -9 -2 -37h-360q4 -55 38.5 -89.5t91.5 -34.5q89 0 110 66zM293 408
q-50 0 -83.5 -30t-40.5 -76h239q-2 47 -34 76.5t-81 29.5z" />
    <glyph glyph-name="edieresis" unicode="&#xeb;" horiz-adv-x="575" 
d="M194 545q-28 0 -49 20.5t-21 49.5t20.5 48.5t49.5 19.5t49 -19.5t20 -48.5t-20.5 -49.5t-48.5 -20.5zM393 545q-28 0 -48.5 21t-20.5 49q0 29 20.5 48.5t48.5 19.5q29 0 49 -19.5t20 -48.5t-20 -49.5t-49 -20.5zM408 158h123q-15 -78 -76.5 -123t-156.5 -45
q-113 0 -185 70.5t-72 184.5q0 120 72.5 192.5t179.5 72.5q100 0 168.5 -65t68.5 -192q0 -9 -2 -37h-360q4 -55 38.5 -89.5t91.5 -34.5q89 0 110 66zM293 408q-50 0 -83.5 -30t-40.5 -76h239q-2 47 -34 76.5t-81 29.5z" />
    <glyph glyph-name="igrave" unicode="&#xec;" horiz-adv-x="238" 
d="M92 700l76 -145h-97l-87 145h108zM55 0v500h128v-500h-128z" />
    <glyph glyph-name="iacute" unicode="&#xed;" horiz-adv-x="238" 
d="M146 700h108l-86 -145h-98zM55 0v500h128v-500h-128z" />
    <glyph glyph-name="icircumflex" unicode="&#xee;" horiz-adv-x="238" 
d="M64 552h-107l108 148h107l108 -148h-107l-51 77h-7zM55 0v500h128v-500h-128z" />
    <glyph glyph-name="idieresis" unicode="&#xef;" horiz-adv-x="238" 
d="M20 545q-28 0 -49 20.5t-21 49.5t20.5 48.5t49.5 19.5t49 -19.5t20 -48.5t-20.5 -49.5t-48.5 -20.5zM219 545q-28 0 -48.5 21t-20.5 49q0 29 20.5 48.5t48.5 19.5q29 0 49 -19.5t20 -48.5t-20 -49.5t-49 -20.5zM55 0v500h128v-500h-128z" />
    <glyph glyph-name="eth" unicode="&#xf0;" horiz-adv-x="603" 
d="M438 580q113 -143 113 -312q0 -135 -71 -206.5t-189 -71.5q-106 0 -178 67.5t-72 172.5q0 99 64.5 164.5t166.5 65.5q89 0 138 -54h8q-23 71 -82 144l-158 -45l-19 67l125 35q-45 47 -107 93h142q35 -28 69 -63l103 29l18 -66zM292 96q59 0 96.5 38t37.5 95
q0 56 -38.5 90.5t-97.5 34.5t-95.5 -35.5t-36.5 -92.5q0 -56 38 -93t96 -37z" />
    <glyph glyph-name="ntilde" unicode="&#xf1;" horiz-adv-x="588" 
d="M486 678q-4 -59 -33.5 -98.5t-81.5 -39.5q-34 0 -59.5 15.5t-44 31t-35.5 15.5q-38 0 -44 -52h-85q4 60 33.5 99.5t82.5 39.5q37 0 62 -15.5t42 -31t35 -15.5q39 0 43 51h85zM55 0v500h117l11 -59h8q53 69 147 69q90 0 142.5 -55t52.5 -152v-303h-128v277q0 59 -30 90.5
t-77 31.5q-49 0 -82 -32.5t-33 -95.5v-271h-128z" />
    <glyph glyph-name="ograve" unicode="&#xf2;" horiz-adv-x="611" 
d="M279 700l76 -145h-97l-87 145h108zM305 -10q-113 0 -188.5 73.5t-75.5 187.5t75 186.5t189 72.5t189 -72.5t75 -186.5q0 -115 -75 -188t-189 -73zM305 101q61 0 99 43t38 107q0 63 -38 105.5t-99 42.5t-98.5 -42.5t-37.5 -105.5q0 -64 38 -107t98 -43z" />
    <glyph glyph-name="oacute" unicode="&#xf3;" horiz-adv-x="611" 
d="M333 700h108l-86 -145h-98zM305 -10q-113 0 -188.5 73.5t-75.5 187.5t75 186.5t189 72.5t189 -72.5t75 -186.5q0 -115 -75 -188t-189 -73zM305 101q61 0 99 43t38 107q0 63 -38 105.5t-99 42.5t-98.5 -42.5t-37.5 -105.5q0 -64 38 -107t98 -43z" />
    <glyph glyph-name="ocircumflex" unicode="&#xf4;" horiz-adv-x="611" 
d="M251 552h-107l108 148h107l108 -148h-107l-51 77h-7zM305 -10q-113 0 -188.5 73.5t-75.5 187.5t75 186.5t189 72.5t189 -72.5t75 -186.5q0 -115 -75 -188t-189 -73zM305 101q61 0 99 43t38 107q0 63 -38 105.5t-99 42.5t-98.5 -42.5t-37.5 -105.5q0 -64 38 -107t98 -43z
" />
    <glyph glyph-name="otilde" unicode="&#xf5;" horiz-adv-x="611" 
d="M497 678q-4 -59 -33.5 -98.5t-81.5 -39.5q-34 0 -59.5 15.5t-44 31t-35.5 15.5q-38 0 -44 -52h-85q4 60 33.5 99.5t82.5 39.5q37 0 62 -15.5t42 -31t35 -15.5q39 0 43 51h85zM305 -10q-113 0 -188.5 73.5t-75.5 187.5t75 186.5t189 72.5t189 -72.5t75 -186.5
q0 -115 -75 -188t-189 -73zM305 101q61 0 99 43t38 107q0 63 -38 105.5t-99 42.5t-98.5 -42.5t-37.5 -105.5q0 -64 38 -107t98 -43z" />
    <glyph glyph-name="odieresis" unicode="&#xf6;" horiz-adv-x="611" 
d="M207 545q-29 0 -49.5 20.5t-20.5 49.5t20.5 48.5t49.5 19.5t49 -19.5t20 -48.5t-20.5 -49.5t-48.5 -20.5zM406 545q-28 0 -48.5 21t-20.5 49q0 29 20.5 48.5t48.5 19.5q29 0 49 -19.5t20 -48.5t-20 -49.5t-49 -20.5zM305 -10q-113 0 -188.5 73.5t-75.5 187.5t75 186.5
t189 72.5t189 -72.5t75 -186.5q0 -115 -75 -188t-189 -73zM305 101q61 0 99 43t38 107q0 63 -38 105.5t-99 42.5t-98.5 -42.5t-37.5 -105.5q0 -64 38 -107t98 -43z" />
    <glyph glyph-name="divide" unicode="&#xf7;" 
d="M291 382q-32 0 -54.5 22.5t-22.5 53.5t22.5 53.5t54.5 22.5q31 0 53.5 -22t22.5 -54t-22.5 -54t-53.5 -22zM50 333h481v-106h-481v106zM291 21q-31 0 -54 22.5t-23 53.5q0 32 22.5 54.5t54.5 22.5t54 -22.5t22 -54.5q0 -31 -22.5 -53.5t-53.5 -22.5z" />
    <glyph glyph-name="oslash" unicode="&#xf8;" horiz-adv-x="611" 
d="M499 433q70 -73 70 -182q0 -115 -75 -188t-189 -73q-64 0 -123 27l-51 -67l-70 49l52 68q-72 74 -72 184q0 114 75 186.5t189 72.5q68 0 124 -28l51 67l70 -49zM162 251q0 -51 23 -89l177 232q-27 11 -57 11q-64 0 -103.5 -44t-39.5 -110zM305 95q63 0 103 45t40 111
q0 48 -22 86l-176 -231q25 -11 55 -11z" />
    <glyph glyph-name="ugrave" unicode="&#xf9;" horiz-adv-x="588" 
d="M267 700l76 -145h-97l-87 145h108zM533 500v-500h-117l-11 59h-8q-53 -69 -147 -69q-90 0 -142.5 55t-52.5 152v303h128v-277q0 -59 30 -90.5t78 -31.5q49 0 81.5 32.5t32.5 95.5v271h128z" />
    <glyph glyph-name="uacute" unicode="&#xfa;" horiz-adv-x="588" 
d="M321 700h108l-86 -145h-98zM533 500v-500h-117l-11 59h-8q-53 -69 -147 -69q-90 0 -142.5 55t-52.5 152v303h128v-277q0 -59 30 -90.5t78 -31.5q49 0 81.5 32.5t32.5 95.5v271h128z" />
    <glyph glyph-name="ucircumflex" unicode="&#xfb;" horiz-adv-x="588" 
d="M239 552h-107l108 148h107l108 -148h-107l-51 77h-7zM533 500v-500h-117l-11 59h-8q-53 -69 -147 -69q-90 0 -142.5 55t-52.5 152v303h128v-277q0 -59 30 -90.5t78 -31.5q49 0 81.5 32.5t32.5 95.5v271h128z" />
    <glyph glyph-name="udieresis" unicode="&#xfc;" horiz-adv-x="588" 
d="M195 545q-29 0 -49.5 20.5t-20.5 49.5t20.5 48.5t49.5 19.5t49 -19.5t20 -48.5t-20.5 -49.5t-48.5 -20.5zM394 545q-28 0 -48.5 21t-20.5 49q0 29 20.5 48.5t48.5 19.5q29 0 49 -19.5t20 -48.5t-20 -49.5t-49 -20.5zM533 500v-500h-117l-11 59h-8q-53 -69 -147 -69
q-90 0 -142.5 55t-52.5 152v303h128v-277q0 -59 30 -90.5t78 -31.5q49 0 81.5 32.5t32.5 95.5v271h128z" />
    <glyph glyph-name="yacute" unicode="&#xfd;" horiz-adv-x="569" 
d="M312 700h108l-86 -145h-98zM150 -210q-39 0 -81 11v95q29 -6 52 -6q83 0 110 67l17 43h-40l-191 500h132l136 -369h8l127 369h132l-202 -562q-50 -148 -200 -148z" />
    <glyph glyph-name="thorn" unicode="&#xfe;" horiz-adv-x="605" 
d="M328 510q102 0 168.5 -72t66.5 -189q0 -119 -67 -189t-168 -70q-88 0 -145 61v-251h-128v910h115v-269h9q52 69 149 69zM308 101q57 0 92 41t35 107q0 67 -35 108.5t-92 41.5t-91 -41t-34 -109q0 -66 34 -107t91 -41z" />
    <glyph glyph-name="ydieresis" unicode="&#xff;" horiz-adv-x="569" 
d="M186 545q-28 0 -49 20.5t-21 49.5t20.5 48.5t49.5 19.5t49 -19.5t20 -48.5t-20.5 -49.5t-48.5 -20.5zM385 545q-28 0 -48.5 21t-20.5 49q0 29 20.5 48.5t48.5 19.5q29 0 49 -19.5t20 -48.5t-20 -49.5t-49 -20.5zM150 -210q-39 0 -81 11v95q29 -6 52 -6q83 0 110 67l17 43
h-40l-191 500h132l136 -369h8l127 369h132l-202 -562q-50 -148 -200 -148z" />
    <glyph glyph-name="Amacron" unicode="&#x100;" horiz-adv-x="700" 
d="M516 856v-87h-331v87h331zM538 0l-57 169h-262l-57 -169h-141l250 700h159l249 -700h-141zM255 278h190l-91 270h-8z" />
    <glyph glyph-name="amacron" unicode="&#x101;" horiz-adv-x="547" 
d="M429 656v-87h-331v87h331zM518 96h12v-96h-54q-79 0 -101 60q-55 -70 -165 -70q-80 0 -128.5 37.5t-48.5 109.5q0 68 45.5 106.5t119.5 45.5l156 16v21q0 40 -23 61t-61 21q-77 0 -90 -75h-128q8 80 66 128.5t152 48.5t153 -48.5t59 -144.5v-183q0 -38 36 -38zM354 193
v24l-112 -12q-81 -9 -81 -63t71 -54q48 0 85 25.5t37 79.5z" />
    <glyph glyph-name="Abreve" unicode="&#x102;" horiz-adv-x="700" 
d="M350 767q-62 0 -105 38.5t-43 94.5h95q0 -24 14.5 -41t39.5 -17q24 0 37.5 17t13.5 41h94q0 -56 -42 -94.5t-104 -38.5zM538 0l-57 169h-262l-57 -169h-141l250 700h159l249 -700h-141zM255 278h190l-91 270h-8z" />
    <glyph glyph-name="abreve" unicode="&#x103;" horiz-adv-x="547" 
d="M263 567q-62 0 -105 38.5t-43 94.5h95q0 -24 14.5 -41t39.5 -17q24 0 37.5 17t13.5 41h94q0 -56 -42 -94.5t-104 -38.5zM518 96h12v-96h-54q-79 0 -101 60q-55 -70 -165 -70q-80 0 -128.5 37.5t-48.5 109.5q0 68 45.5 106.5t119.5 45.5l156 16v21q0 40 -23 61t-61 21
q-77 0 -90 -75h-128q8 80 66 128.5t152 48.5t153 -48.5t59 -144.5v-183q0 -38 36 -38zM354 193v24l-112 -12q-81 -9 -81 -63t71 -54q48 0 85 25.5t37 79.5z" />
    <glyph glyph-name="Aogonek" unicode="&#x104;" horiz-adv-x="700" 
d="M669 -106q23 0 46 6v-70q-26 -8 -60 -8q-56 0 -89 24t-33 69q0 51 56 85h-51l-57 169h-262l-57 -169h-141l250 700h159l249 -700q-67 -20 -67 -66q0 -40 57 -40zM255 278h190l-91 270h-8z" />
    <glyph glyph-name="aogonek" unicode="&#x105;" horiz-adv-x="547" 
d="M520 -106q24 0 46 6v-70q-26 -8 -60 -8q-56 0 -89 24t-33 69q0 54 61 88q-52 8 -70 57q-55 -70 -165 -70q-80 0 -128.5 37.5t-48.5 109.5q0 68 45.5 106.5t119.5 45.5l156 16v21q0 40 -23 61t-61 21q-77 0 -90 -75h-128q8 80 66 128.5t152 48.5t153 -48.5t59 -144.5v-183
q0 -38 36 -38h12v-96q-67 -20 -67 -66q0 -40 57 -40zM354 193v24l-112 -12q-81 -9 -81 -63t71 -54q48 0 85 25.5t37 79.5z" />
    <glyph glyph-name="Cacute" unicode="&#x106;" horiz-adv-x="757" 
d="M425 900h108l-86 -145h-98zM715 225q-17 -110 -105.5 -172.5t-213.5 -62.5q-158 0 -251 100t-93 257q0 160 95 261.5t249 101.5q122 0 206 -63t102 -176h-142q-17 55 -60 86t-106 31q-93 0 -151 -69t-58 -172q0 -104 59.5 -169.5t149.5 -65.5q67 0 113.5 30.5t63.5 82.5
h142z" />
    <glyph glyph-name="cacute" unicode="&#x107;" horiz-adv-x="578" 
d="M327 700h108l-86 -145h-98zM303 -10q-117 0 -189.5 72t-72.5 186q0 116 74.5 189t185.5 73q93 0 162 -50t80 -143h-128q-9 36 -39.5 59t-74.5 23q-57 0 -94.5 -42.5t-37.5 -108.5t36.5 -106.5t97.5 -40.5q88 0 113 72h129q-13 -84 -78.5 -133.5t-163.5 -49.5z" />
    <glyph glyph-name="Ccircumflex" unicode="&#x108;" horiz-adv-x="757" 
d="M343 752h-107l108 148h107l108 -148h-107l-51 77h-7zM715 225q-17 -110 -105.5 -172.5t-213.5 -62.5q-158 0 -251 100t-93 257q0 160 95 261.5t249 101.5q122 0 206 -63t102 -176h-142q-17 55 -60 86t-106 31q-93 0 -151 -69t-58 -172q0 -104 59.5 -169.5t149.5 -65.5
q67 0 113.5 30.5t63.5 82.5h142z" />
    <glyph glyph-name="ccircumflex" unicode="&#x109;" horiz-adv-x="578" 
d="M245 552h-107l108 148h107l108 -148h-107l-51 77h-7zM303 -10q-117 0 -189.5 72t-72.5 186q0 116 74.5 189t185.5 73q93 0 162 -50t80 -143h-128q-9 36 -39.5 59t-74.5 23q-57 0 -94.5 -42.5t-37.5 -108.5t36.5 -106.5t97.5 -40.5q88 0 113 72h129q-13 -84 -78.5 -133.5
t-163.5 -49.5z" />
    <glyph glyph-name="Cdotaccent" unicode="&#x10a;" horiz-adv-x="757" 
d="M398 764q-32 0 -55.5 23t-23.5 54q0 33 23.5 55.5t55.5 22.5t54.5 -22.5t22.5 -55.5q0 -31 -23 -54t-54 -23zM715 225q-17 -110 -105.5 -172.5t-213.5 -62.5q-158 0 -251 100t-93 257q0 160 95 261.5t249 101.5q122 0 206 -63t102 -176h-142q-17 55 -60 86t-106 31
q-93 0 -151 -69t-58 -172q0 -104 59.5 -169.5t149.5 -65.5q67 0 113.5 30.5t63.5 82.5h142z" />
    <glyph glyph-name="cdotaccent" unicode="&#x10b;" horiz-adv-x="578" 
d="M300 564q-32 0 -55.5 23t-23.5 54q0 33 23.5 55.5t55.5 22.5t54.5 -22.5t22.5 -55.5q0 -31 -23 -54t-54 -23zM303 -10q-117 0 -189.5 72t-72.5 186q0 116 74.5 189t185.5 73q93 0 162 -50t80 -143h-128q-9 36 -39.5 59t-74.5 23q-57 0 -94.5 -42.5t-37.5 -108.5
t36.5 -106.5t97.5 -40.5q88 0 113 72h129q-13 -84 -78.5 -133.5t-163.5 -49.5z" />
    <glyph glyph-name="Ccaron" unicode="&#x10c;" horiz-adv-x="757" 
d="M452 900h107l-108 -148h-107l-108 148h107l51 -77h8zM715 225q-17 -110 -105.5 -172.5t-213.5 -62.5q-158 0 -251 100t-93 257q0 160 95 261.5t249 101.5q122 0 206 -63t102 -176h-142q-17 55 -60 86t-106 31q-93 0 -151 -69t-58 -172q0 -104 59.5 -169.5t149.5 -65.5
q67 0 113.5 30.5t63.5 82.5h142z" />
    <glyph glyph-name="ccaron" unicode="&#x10d;" horiz-adv-x="578" 
d="M354 700h107l-108 -148h-107l-108 148h107l51 -77h8zM303 -10q-117 0 -189.5 72t-72.5 186q0 116 74.5 189t185.5 73q93 0 162 -50t80 -143h-128q-9 36 -39.5 59t-74.5 23q-57 0 -94.5 -42.5t-37.5 -108.5t36.5 -106.5t97.5 -40.5q88 0 113 72h129q-13 -84 -78.5 -133.5
t-163.5 -49.5z" />
    <glyph glyph-name="Dcaron" unicode="&#x10e;" horiz-adv-x="707" 
d="M399 900h107l-108 -148h-107l-108 148h107l51 -77h8zM314 700q160 0 250.5 -93.5t90.5 -256.5q0 -162 -90.5 -256t-250.5 -94h-245v700h245zM309 118q106 0 158.5 64.5t52.5 171.5q0 106 -52.5 167t-158.5 61h-108v-464h108z" />
    <glyph glyph-name="dcaron" unicode="&#x10f;" horiz-adv-x="605" 
d="M422 453v257h128v-710h-104l-11 59h-9q-52 -69 -149 -69q-102 0 -168.5 72t-66.5 189q0 119 67 189t168 70q94 0 145 -57zM708 707q35 0 55 -27.5t20 -71.5q0 -65 -33.5 -112.5t-79.5 -75.5l-30 37q60 51 63 104q-25 -3 -46 16.5t-21 54.5q0 34 20 54.5t52 20.5zM297 101
q57 0 91 41t34 109q0 66 -34 107t-91 41t-92 -41t-35 -107q0 -67 35 -108.5t92 -41.5z" />
    <glyph glyph-name="Dcroat" unicode="&#x110;" horiz-adv-x="707" 
d="M314 700q160 0 250.5 -93.5t90.5 -256.5q0 -162 -90.5 -256t-250.5 -94h-245v301h-111v97h111v302h245zM309 118q106 0 158.5 64.5t52.5 171.5q0 106 -52.5 167t-158.5 61h-108v-184h177v-97h-177v-183h108z" />
    <glyph glyph-name="dcroat" unicode="&#x111;" horiz-adv-x="605" 
d="M656 647v-92h-106v-555h-104l-11 59h-9q-52 -69 -149 -69q-102 0 -168.5 72t-66.5 189q0 119 67 189t168 70q94 0 145 -57v102h-127v92h127v63h128v-63h106zM297 101q57 0 91 41t34 109q0 66 -34 107t-91 41t-92 -41t-35 -107q0 -67 35 -108.5t92 -41.5z" />
    <glyph glyph-name="Emacron" unicode="&#x112;" horiz-adv-x="586" 
d="M139 856h331v-87h-331v87zM198 115h350v-115h-479v700h469v-115h-340v-174h293v-112h-293v-184z" />
    <glyph glyph-name="emacron" unicode="&#x113;" horiz-adv-x="575" 
d="M459 656v-87h-331v87h331zM408 158h123q-15 -78 -76.5 -123t-156.5 -45q-113 0 -185 70.5t-72 184.5q0 120 72.5 192.5t179.5 72.5q100 0 168.5 -65t68.5 -192q0 -9 -2 -37h-360q4 -55 38.5 -89.5t91.5 -34.5q89 0 110 66zM293 408q-50 0 -83.5 -30t-40.5 -76h239
q-2 47 -34 76.5t-81 29.5z" />
    <glyph glyph-name="Ebreve" unicode="&#x114;" horiz-adv-x="586" 
d="M450 900q0 -56 -42 -94.5t-104 -38.5t-105 38.5t-43 94.5h95q0 -24 14.5 -41t39.5 -17q24 0 37.5 17t13.5 41h94zM198 115h350v-115h-479v700h469v-115h-340v-174h293v-112h-293v-184z" />
    <glyph glyph-name="ebreve" unicode="&#x115;" horiz-adv-x="575" 
d="M292 567q-62 0 -105 38.5t-43 94.5h95q0 -24 14.5 -41t39.5 -17q24 0 37.5 17t13.5 41h94q0 -56 -42 -94.5t-104 -38.5zM408 158h123q-15 -78 -76.5 -123t-156.5 -45q-113 0 -185 70.5t-72 184.5q0 120 72.5 192.5t179.5 72.5q100 0 168.5 -65t68.5 -192q0 -9 -2 -37
h-360q4 -55 38.5 -89.5t91.5 -34.5q89 0 110 66zM293 408q-50 0 -83.5 -30t-40.5 -76h239q-2 47 -34 76.5t-81 29.5z" />
    <glyph glyph-name="Edotaccent" unicode="&#x116;" horiz-adv-x="586" 
d="M304 764q-32 0 -55.5 23t-23.5 54q0 33 23.5 55.5t55.5 22.5t54.5 -22.5t22.5 -55.5q0 -31 -23 -54t-54 -23zM198 115h350v-115h-479v700h469v-115h-340v-174h293v-112h-293v-184z" />
    <glyph glyph-name="edotaccent" unicode="&#x117;" horiz-adv-x="575" 
d="M293 564q-32 0 -55.5 23t-23.5 54q0 33 23.5 55.5t55.5 22.5t54.5 -22.5t22.5 -55.5q0 -31 -23 -54t-54 -23zM408 158h123q-15 -78 -76.5 -123t-156.5 -45q-113 0 -185 70.5t-72 184.5q0 120 72.5 192.5t179.5 72.5q100 0 168.5 -65t68.5 -192q0 -9 -2 -37h-360
q4 -55 38.5 -89.5t91.5 -34.5q89 0 110 66zM293 408q-50 0 -83.5 -30t-40.5 -76h239q-2 47 -34 76.5t-81 29.5z" />
    <glyph glyph-name="Eogonek" unicode="&#x118;" horiz-adv-x="586" 
d="M538 -106q24 0 46 6v-70q-26 -8 -60 -8q-56 0 -89 24t-33 69q0 51 56 85h-389v700h469v-115h-340v-174h293v-112h-293v-184h350v-115q-67 -20 -67 -66q0 -40 57 -40z" />
    <glyph glyph-name="eogonek" unicode="&#x119;" horiz-adv-x="575" 
d="M371 -2q-61 -20 -61 -64q0 -40 57 -40q23 0 46 6v-70q-26 -8 -60 -8q-56 0 -89 24t-33 69t42 76q-103 8 -167.5 77.5t-64.5 176.5q0 120 72.5 192.5t179.5 72.5q100 0 168.5 -65t68.5 -192q0 -9 -2 -37h-360q4 -55 38.5 -89.5t91.5 -34.5q89 0 110 66h123
q-12 -61 -53.5 -103t-106.5 -57zM293 408q-50 0 -83.5 -30t-40.5 -76h239q-2 47 -34 76.5t-81 29.5z" />
    <glyph glyph-name="Ecaron" unicode="&#x11a;" horiz-adv-x="586" 
d="M359 900h107l-108 -148h-107l-108 148h107l51 -77h8zM198 115h350v-115h-479v700h469v-115h-340v-174h293v-112h-293v-184z" />
    <glyph glyph-name="ecaron" unicode="&#x11b;" horiz-adv-x="575" 
d="M346 552h-107l-108 148h107l51 -77h8l50 77h107zM408 158h123q-15 -78 -76.5 -123t-156.5 -45q-113 0 -185 70.5t-72 184.5q0 120 72.5 192.5t179.5 72.5q100 0 168.5 -65t68.5 -192q0 -9 -2 -37h-360q4 -55 38.5 -89.5t91.5 -34.5q89 0 110 66zM293 408q-50 0 -83.5 -30
t-40.5 -76h239q-2 47 -34 76.5t-81 29.5z" />
    <glyph glyph-name="Gcircumflex" unicode="&#x11c;" horiz-adv-x="787" 
d="M338 752h-107l108 148h107l108 -148h-107l-51 77h-7zM401 380h317v-380h-105l-13 67h-8q-77 -77 -209 -77q-150 0 -240.5 97.5t-90.5 252.5q0 161 99 265.5t256 104.5q130 0 210 -63t95 -161h-144q-16 48 -58 75t-103 27q-100 0 -160 -69.5t-60 -178.5q0 -103 57 -167.5
t156 -64.5q82 0 134.5 36t52.5 103v30h-186v103z" />
    <glyph glyph-name="gcircumflex" unicode="&#x11d;" horiz-adv-x="557" 
d="M276 629l-51 -77h-107l108 148h107l108 -148h-107l-51 77h-7zM540 486q-29 -30 -81 -55q32 -41 32 -94q0 -78 -59 -123t-151 -45q-45 0 -84 11q-24 -12 -24 -33q0 -38 66 -38h98q88 0 135 -39.5t47 -108.5q0 -80 -63 -125.5t-172 -45.5q-112 0 -173.5 47.5t-69.5 120.5
l76 67q-57 31 -57 92t67 98q-59 46 -59 122q0 75 56.5 124t150.5 49q66 0 116 -25q53 27 86 71zM281 262q40 0 64 21.5t24 55.5q0 35 -23.5 57t-64.5 22t-66 -22t-25 -57q0 -34 25 -55.5t66 -21.5zM397 -46q0 29 -22 42t-54 13h-91l-66 -56q9 -29 39.5 -48t81.5 -19
q49 0 80.5 17.5t31.5 50.5z" />
    <glyph glyph-name="Gbreve" unicode="&#x11e;" horiz-adv-x="787" 
d="M538 900q0 -56 -42 -94.5t-104 -38.5t-105 38.5t-43 94.5h95q0 -24 14.5 -41t39.5 -17q24 0 37.5 17t13.5 41h94zM401 380h317v-380h-105l-13 67h-8q-77 -77 -209 -77q-150 0 -240.5 97.5t-90.5 252.5q0 161 99 265.5t256 104.5q130 0 210 -63t95 -161h-144
q-16 48 -58 75t-103 27q-100 0 -160 -69.5t-60 -178.5q0 -103 57 -167.5t156 -64.5q82 0 134.5 36t52.5 103v30h-186v103z" />
    <glyph glyph-name="gbreve" unicode="&#x11f;" horiz-adv-x="557" 
d="M280 567q-62 0 -105 38.5t-43 94.5h95q0 -24 14.5 -41t39.5 -17q24 0 37.5 17t13.5 41h94q0 -56 -42 -94.5t-104 -38.5zM540 486q-29 -30 -81 -55q32 -41 32 -94q0 -78 -59 -123t-151 -45q-45 0 -84 11q-24 -12 -24 -33q0 -38 66 -38h98q88 0 135 -39.5t47 -108.5
q0 -80 -63 -125.5t-172 -45.5q-112 0 -173.5 47.5t-69.5 120.5l76 67q-57 31 -57 92t67 98q-59 46 -59 122q0 75 56.5 124t150.5 49q66 0 116 -25q53 27 86 71zM281 262q40 0 64 21.5t24 55.5q0 35 -23.5 57t-64.5 22t-66 -22t-25 -57q0 -34 25 -55.5t66 -21.5zM397 -46
q0 29 -22 42t-54 13h-91l-66 -56q9 -29 39.5 -48t81.5 -19q49 0 80.5 17.5t31.5 50.5z" />
    <glyph glyph-name="Gdotaccent" unicode="&#x120;" horiz-adv-x="787" 
d="M393 764q-32 0 -55.5 23t-23.5 54q0 33 23.5 55.5t55.5 22.5t54.5 -22.5t22.5 -55.5q0 -31 -23 -54t-54 -23zM401 380h317v-380h-105l-13 67h-8q-77 -77 -209 -77q-150 0 -240.5 97.5t-90.5 252.5q0 161 99 265.5t256 104.5q130 0 210 -63t95 -161h-144q-16 48 -58 75
t-103 27q-100 0 -160 -69.5t-60 -178.5q0 -103 57 -167.5t156 -64.5q82 0 134.5 36t52.5 103v30h-186v103z" />
    <glyph glyph-name="gdotaccent" unicode="&#x121;" horiz-adv-x="557" 
d="M280 564q-32 0 -55.5 23t-23.5 54q0 33 23.5 55.5t55.5 22.5t54.5 -22.5t22.5 -55.5q0 -31 -23 -54t-54 -23zM540 486q-29 -30 -81 -55q32 -41 32 -94q0 -78 -59 -123t-151 -45q-45 0 -84 11q-24 -12 -24 -33q0 -38 66 -38h98q88 0 135 -39.5t47 -108.5q0 -80 -63 -125.5
t-172 -45.5q-112 0 -173.5 47.5t-69.5 120.5l76 67q-57 31 -57 92t67 98q-59 46 -59 122q0 75 56.5 124t150.5 49q66 0 116 -25q53 27 86 71zM281 262q40 0 64 21.5t24 55.5q0 35 -23.5 57t-64.5 22t-66 -22t-25 -57q0 -34 25 -55.5t66 -21.5zM397 -46q0 29 -22 42t-54 13
h-91l-66 -56q9 -29 39.5 -48t81.5 -19q49 0 80.5 17.5t31.5 50.5z" />
    <glyph glyph-name="uni0122" unicode="&#x122;" horiz-adv-x="787" 
d="M401 380h317v-380h-105l-13 67h-8q-77 -77 -209 -77q-150 0 -240.5 97.5t-90.5 252.5q0 161 99 265.5t256 104.5q130 0 210 -63t95 -161h-144q-16 48 -58 75t-103 27q-100 0 -160 -69.5t-60 -178.5q0 -103 57 -167.5t156 -64.5q82 0 134.5 36t52.5 103v30h-186v103z
M390 -51q38 0 61 -27.5t23 -70.5q0 -62 -37 -108.5t-88 -73.5l-35 33q69 56 70 96q-32 -2 -53 18t-21 56t22.5 56.5t57.5 20.5z" />
    <glyph glyph-name="uni0123" unicode="&#x123;" horiz-adv-x="557" 
d="M282 551q-38 0 -61 27.5t-23 70.5q0 62 37 108.5t88 73.5l35 -33q-69 -56 -70 -96q32 2 53 -18t21 -56t-22.5 -56.5t-57.5 -20.5zM540 486q-29 -30 -81 -55q32 -41 32 -94q0 -78 -59 -123t-151 -45q-45 0 -84 11q-24 -12 -24 -33q0 -38 66 -38h98q88 0 135 -39.5
t47 -108.5q0 -80 -63 -125.5t-172 -45.5q-112 0 -173.5 47.5t-69.5 120.5l76 67q-57 31 -57 92t67 98q-59 46 -59 122q0 75 56.5 124t150.5 49q66 0 116 -25q53 27 86 71zM281 262q40 0 64 21.5t24 55.5q0 35 -23.5 57t-64.5 22t-66 -22t-25 -57q0 -34 25 -55.5t66 -21.5z
M397 -46q0 29 -22 42t-54 13h-91l-66 -56q9 -29 39.5 -48t81.5 -19q49 0 80.5 17.5t31.5 50.5z" />
    <glyph glyph-name="Hcircumflex" unicode="&#x124;" horiz-adv-x="696" 
d="M290 752h-107l108 148h107l108 -148h-107l-51 77h-7zM495 700h132v-700h-132v295h-294v-295h-132v700h132v-286h294v286z" />
    <glyph glyph-name="hcircumflex" unicode="&#x125;" horiz-adv-x="588" 
d="M67 752h-107l108 148h107l108 -148h-107l-51 77h-7zM338 510q90 0 142.5 -55t52.5 -152v-303h-128v277q0 59 -30 90.5t-77 31.5q-49 0 -82 -32.5t-33 -95.5v-271h-128v710h128v-269h8q53 69 147 69z" />
    <glyph glyph-name="Hbar" unicode="&#x126;" horiz-adv-x="696" 
d="M495 700h132v-700h-132v295h-294v-295h-132v700h132v-95h294v95zM201 414h294v94h-294v-94z" />
    <glyph glyph-name="hbar" unicode="&#x127;" horiz-adv-x="588" 
d="M338 510q90 0 142.5 -55t52.5 -152v-303h-128v277q0 59 -30 90.5t-77 31.5q-49 0 -82 -32.5t-33 -95.5v-271h-128v554h-102v92h102v64h128v-64h131v-92h-131v-113h8q53 69 147 69z" />
    <glyph glyph-name="Itilde" unicode="&#x128;" horiz-adv-x="270" 
d="M327 878q-4 -59 -33.5 -98.5t-81.5 -39.5q-34 0 -59.5 15.5t-44 31t-35.5 15.5q-38 0 -44 -52h-85q4 60 33.5 99.5t82.5 39.5q37 0 62 -15.5t42 -31t35 -15.5q39 0 43 51h85zM201 700v-700h-132v700h132z" />
    <glyph glyph-name="itilde" unicode="&#x129;" horiz-adv-x="238" 
d="M311 678q-4 -59 -33.5 -98.5t-81.5 -39.5q-34 0 -59.5 15.5t-44 31t-35.5 15.5q-38 0 -44 -52h-85q4 60 33.5 99.5t82.5 39.5q37 0 62 -15.5t42 -31t35 -15.5q39 0 43 51h85zM55 0v500h128v-500h-128z" />
    <glyph glyph-name="Imacron" unicode="&#x12a;" horiz-adv-x="270" 
d="M-30 856h331v-87h-331v87zM201 700v-700h-132v700h132z" />
    <glyph glyph-name="imacron" unicode="&#x12b;" horiz-adv-x="238" 
d="M-46 656h331v-87h-331v87zM55 0v500h128v-500h-128z" />
    <glyph glyph-name="Ibreve" unicode="&#x12c;" horiz-adv-x="270" 
d="M281 900q0 -56 -42 -94.5t-104 -38.5t-105 38.5t-43 94.5h95q0 -24 14.5 -41t39.5 -17q24 0 37.5 17t13.5 41h94zM201 700v-700h-132v700h132z" />
    <glyph glyph-name="ibreve" unicode="&#x12d;" horiz-adv-x="238" 
d="M265 700q0 -56 -42 -94.5t-104 -38.5t-105 38.5t-43 94.5h95q0 -24 14.5 -41t39.5 -17q24 0 37.5 17t13.5 41h94zM55 0v500h128v-500h-128z" />
    <glyph glyph-name="Iogonek" unicode="&#x12e;" horiz-adv-x="270" 
d="M191 -106q23 0 46 6v-70q-26 -8 -60 -8q-56 0 -89 24t-33 69q0 51 56 85h-42v700h132v-700q-67 -20 -67 -66q0 -40 57 -40z" />
    <glyph glyph-name="iogonek" unicode="&#x12f;" horiz-adv-x="238" 
d="M119 564q-32 0 -55.5 23t-23.5 54q0 33 23.5 55.5t55.5 22.5t54.5 -22.5t22.5 -55.5q0 -31 -23 -54t-54 -23zM173 -106q23 0 46 6v-70q-26 -8 -60 -8q-56 0 -89 24t-33 69q0 51 56 85h-38v500h128v-500q-67 -20 -67 -66q0 -40 57 -40z" />
    <glyph glyph-name="Idotaccent" unicode="&#x130;" horiz-adv-x="270" 
d="M136 764q-32 0 -55.5 23t-23.5 54q0 33 23.5 55.5t55.5 22.5t54.5 -22.5t22.5 -55.5q0 -31 -23 -54t-54 -23zM201 700v-700h-132v700h132z" />
    <glyph glyph-name="dotlessi" unicode="&#x131;" horiz-adv-x="238" 
d="M55 0v500h128v-500h-128z" />
    <glyph glyph-name="IJ" unicode="&#x132;" horiz-adv-x="808" 
d="M201 700v-700h-132v700h132zM429 211q2 -44 24.5 -71.5t64.5 -27.5q43 0 66.5 27t23.5 80v481h131v-485q0 -109 -59.5 -167t-160.5 -58q-107 0 -167 59.5t-62 161.5h139z" />
    <glyph glyph-name="ij" unicode="&#x133;" horiz-adv-x="485" 
d="M119 564q-32 0 -55.5 23t-23.5 54q0 33 23.5 55.5t55.5 22.5t54.5 -22.5t22.5 -55.5q0 -31 -23 -54t-54 -23zM359 564q-32 0 -55.5 23t-23.5 54q0 33 23 55.5t56 22.5q32 0 54 -22.5t22 -55.5q0 -31 -22.5 -54t-53.5 -23zM55 0v500h128v-500h-128zM265 -210q-40 0 -88 11
v95q23 -6 49 -6q68 0 68 61v549h128v-564q0 -146 -157 -146z" />
    <glyph glyph-name="Jcircumflex" unicode="&#x134;" horiz-adv-x="549" 
d="M359 752h-107l108 148h107l108 -148h-107l-51 77h-7zM170 211q2 -44 24.5 -71.5t64.5 -27.5q43 0 66.5 27t23.5 80v481h131v-485q0 -109 -59.5 -167t-160.5 -58q-107 0 -167 59.5t-62 161.5h139z" />
    <glyph glyph-name="jcircumflex" unicode="&#x135;" horiz-adv-x="238" 
d="M64 552h-107l108 148h107l108 -148h-107l-51 77h-7zM26 -210q-40 0 -88 11v95q23 -6 49 -6q68 0 68 61v549h128v-564q0 -146 -157 -146z" />
    <glyph glyph-name="uni0136" unicode="&#x136;" horiz-adv-x="648" 
d="M477 0l-225 300h-51v-300h-132v700h132v-281h51l198 281h148l-237 -332v-7l266 -361h-150zM337 -51q38 0 61 -27.5t23 -70.5q0 -62 -37 -108.5t-88 -73.5l-35 33q69 56 70 96q-32 -2 -53 18t-21 56t22.5 56.5t57.5 20.5z" />
    <glyph glyph-name="uni0137" unicode="&#x137;" horiz-adv-x="541" 
d="M525 500l-204 -199l204 -301h-141l-149 217l-52 -50v-167h-128v710h128v-383h8l180 173h154zM281 -51q38 0 61 -27.5t23 -70.5q0 -62 -37 -108.5t-88 -73.5l-35 33q69 56 70 96q-32 -2 -53 18t-21 56t22.5 56.5t57.5 20.5z" />
    <glyph glyph-name="Lacute" unicode="&#x139;" horiz-adv-x="579" 
d="M155 900h108l-86 -145h-98zM198 118h349v-118h-478v700h129v-582z" />
    <glyph glyph-name="lacute" unicode="&#x13a;" horiz-adv-x="238" 
d="M146 900h108l-86 -145h-98zM55 0v710h128v-710h-128z" />
    <glyph glyph-name="uni013B" unicode="&#x13b;" horiz-adv-x="579" 
d="M198 118h349v-118h-478v700h129v-582zM300 -51q38 0 61 -27.5t23 -70.5q0 -62 -37 -108.5t-88 -73.5l-35 33q69 56 70 96q-32 -2 -53 18t-21 56t22.5 56.5t57.5 20.5z" />
    <glyph glyph-name="uni013C" unicode="&#x13c;" horiz-adv-x="238" 
d="M55 0v710h128v-710h-128zM117 -51q38 0 61 -27.5t23 -70.5q0 -62 -37 -108.5t-88 -73.5l-35 33q69 56 70 96q-32 -2 -53 18t-21 56t22.5 56.5t57.5 20.5z" />
    <glyph glyph-name="Lcaron" unicode="&#x13d;" horiz-adv-x="579" 
d="M356 707q35 0 55 -27.5t20 -71.5q0 -65 -33.5 -112.5t-79.5 -75.5l-30 37q60 51 63 104q-25 -3 -46 16.5t-21 54.5q0 34 20 54.5t52 20.5zM198 118h349v-118h-478v700h129v-582z" />
    <glyph glyph-name="lcaron" unicode="&#x13e;" horiz-adv-x="238" 
d="M55 0v710h128v-710h-128zM342 707q35 0 55 -27.5t20 -71.5q0 -65 -33.5 -112.5t-79.5 -75.5l-30 37q60 51 63 104q-25 -3 -46 16.5t-21 54.5q0 34 20 54.5t52 20.5z" />
    <glyph glyph-name="Ldot" unicode="&#x13f;" horiz-adv-x="579" 
d="M198 118h349v-118h-478v700h129v-582zM374 337q-32 0 -55.5 23t-23.5 54q0 33 23.5 55.5t55.5 22.5t54.5 -22.5t22.5 -55.5q0 -31 -23 -54t-54 -23z" />
    <glyph glyph-name="ldot" unicode="&#x140;" horiz-adv-x="238" 
d="M119 764q-32 0 -55.5 23t-23.5 54q0 33 23.5 55.5t55.5 22.5t54.5 -22.5t22.5 -55.5q0 -31 -23 -54t-54 -23zM55 0v710h128v-710h-128z" />
    <glyph glyph-name="Lslash" unicode="&#x141;" horiz-adv-x="579" 
d="M198 118h349v-118h-478v252l-109 -52v114l109 52v334h129v-272l179 86v-114l-179 -86v-196z" />
    <glyph glyph-name="lslash" unicode="&#x142;" horiz-adv-x="238" 
d="M274 495v-113l-91 -49v-333h-128v263l-89 -48v112l89 49v334h128v-265z" />
    <glyph glyph-name="Nacute" unicode="&#x143;" horiz-adv-x="725" 
d="M389 900h108l-86 -145h-98zM527 700h129v-700h-135l-315 468h-8v-468h-129v700h135l315 -471h8v471z" />
    <glyph glyph-name="nacute" unicode="&#x144;" horiz-adv-x="588" 
d="M321 700h108l-86 -145h-98zM55 0v500h117l11 -59h8q53 69 147 69q90 0 142.5 -55t52.5 -152v-303h-128v277q0 59 -30 90.5t-77 31.5q-49 0 -82 -32.5t-33 -95.5v-271h-128z" />
    <glyph glyph-name="uni0145" unicode="&#x145;" horiz-adv-x="725" 
d="M527 700h129v-700h-135l-315 468h-8v-468h-129v700h135l315 -471h8v471zM360 -51q38 0 61 -27.5t23 -70.5q0 -62 -37 -108.5t-88 -73.5l-35 33q69 56 70 96q-32 -2 -53 18t-21 56t22.5 56.5t57.5 20.5z" />
    <glyph glyph-name="uni0146" unicode="&#x146;" horiz-adv-x="588" 
d="M55 0v500h117l11 -59h8q53 69 147 69q90 0 142.5 -55t52.5 -152v-303h-128v277q0 59 -30 90.5t-77 31.5q-49 0 -82 -32.5t-33 -95.5v-271h-128zM291 -51q38 0 61 -27.5t23 -70.5q0 -62 -37 -108.5t-88 -73.5l-35 33q69 56 70 96q-32 -2 -53 18t-21 56t22.5 56.5
t57.5 20.5z" />
    <glyph glyph-name="Ncaron" unicode="&#x147;" horiz-adv-x="725" 
d="M417 900h107l-108 -148h-107l-108 148h107l51 -77h8zM527 700h129v-700h-135l-315 468h-8v-468h-129v700h135l315 -471h8v471z" />
    <glyph glyph-name="ncaron" unicode="&#x148;" horiz-adv-x="588" 
d="M348 700h107l-108 -148h-107l-108 148h107l51 -77h8zM55 0v500h117l11 -59h8q53 69 147 69q90 0 142.5 -55t52.5 -152v-303h-128v277q0 59 -30 90.5t-77 31.5q-49 0 -82 -32.5t-33 -95.5v-271h-128z" />
    <glyph glyph-name="Eng" unicode="&#x14a;" horiz-adv-x="725" 
d="M527 700h129v-755q0 -78 -43 -116.5t-115 -38.5q-43 0 -91 11v95q27 -6 52 -6q69 0 69 64v37l-322 477h-8v-468h-129v700h135l315 -471h8v471z" />
    <glyph glyph-name="eng" unicode="&#x14b;" horiz-adv-x="588" 
d="M338 510q90 0 142.5 -55t52.5 -152v-358q0 -78 -43.5 -116.5t-115.5 -38.5q-42 0 -90 11v95q27 -6 52 -6q69 0 69 64v323q0 59 -30 90.5t-77 31.5q-49 0 -82 -32.5t-33 -95.5v-271h-128v500h117l11 -59h8q53 69 147 69z" />
    <glyph glyph-name="Omacron" unicode="&#x14c;" horiz-adv-x="820" 
d="M245 856h331v-87h-331v87zM410 -10q-154 0 -256 102.5t-102 257.5q0 154 101.5 257t256.5 103q154 0 256 -103t102 -257t-101.5 -257t-256.5 -103zM411 112q96 0 159 68t63 170t-63.5 170t-159.5 68t-159.5 -68t-63.5 -170t63.5 -170t160.5 -68z" />
    <glyph glyph-name="omacron" unicode="&#x14d;" horiz-adv-x="611" 
d="M141 656h331v-87h-331v87zM305 -10q-113 0 -188.5 73.5t-75.5 187.5t75 186.5t189 72.5t189 -72.5t75 -186.5q0 -115 -75 -188t-189 -73zM305 101q61 0 99 43t38 107q0 63 -38 105.5t-99 42.5t-98.5 -42.5t-37.5 -105.5q0 -64 38 -107t98 -43z" />
    <glyph glyph-name="Obreve" unicode="&#x14e;" horiz-adv-x="820" 
d="M556 900q0 -56 -42 -94.5t-104 -38.5t-105 38.5t-43 94.5h95q0 -24 14.5 -41t39.5 -17q24 0 37.5 17t13.5 41h94zM410 -10q-154 0 -256 102.5t-102 257.5q0 154 101.5 257t256.5 103q154 0 256 -103t102 -257t-101.5 -257t-256.5 -103zM411 112q96 0 159 68t63 170
t-63.5 170t-159.5 68t-159.5 -68t-63.5 -170t63.5 -170t160.5 -68z" />
    <glyph glyph-name="obreve" unicode="&#x14f;" horiz-adv-x="611" 
d="M451 700q0 -56 -42 -94.5t-104 -38.5t-105 38.5t-43 94.5h95q0 -24 14.5 -41t39.5 -17q24 0 37.5 17t13.5 41h94zM305 -10q-113 0 -188.5 73.5t-75.5 187.5t75 186.5t189 72.5t189 -72.5t75 -186.5q0 -115 -75 -188t-189 -73zM305 101q61 0 99 43t38 107q0 63 -38 105.5
t-99 42.5t-98.5 -42.5t-37.5 -105.5q0 -64 38 -107t98 -43z" />
    <glyph glyph-name="Ohungarumlaut" unicode="&#x150;" horiz-adv-x="820" 
d="M332 900h105l-66 -145h-99zM510 900h105l-66 -145h-99zM410 -10q-154 0 -256 102.5t-102 257.5q0 154 101.5 257t256.5 103q154 0 256 -103t102 -257t-101.5 -257t-256.5 -103zM411 112q96 0 159 68t63 170t-63.5 170t-159.5 68t-159.5 -68t-63.5 -170t63.5 -170
t160.5 -68z" />
    <glyph glyph-name="ohungarumlaut" unicode="&#x151;" horiz-adv-x="611" 
d="M227 700h105l-66 -145h-99zM405 700h105l-66 -145h-99zM305 -10q-113 0 -188.5 73.5t-75.5 187.5t75 186.5t189 72.5t189 -72.5t75 -186.5q0 -115 -75 -188t-189 -73zM305 101q61 0 99 43t38 107q0 63 -38 105.5t-99 42.5t-98.5 -42.5t-37.5 -105.5q0 -64 38 -107t98 -43
z" />
    <glyph glyph-name="OE" unicode="&#x152;" horiz-adv-x="1107" 
d="M734 115h335v-115h-463v78q-86 -88 -215 -88q-146 0 -242.5 102t-96.5 258q0 155 96 257.5t243 102.5q126 0 215 -87v77h453v-115h-325v-174h278v-112h-278v-184zM395 112q90 0 148.5 66t58.5 172q0 105 -59 171.5t-148 66.5q-91 0 -149.5 -66t-58.5 -172
q0 -105 59 -171.5t149 -66.5z" />
    <glyph glyph-name="oe" unicode="&#x153;" horiz-adv-x="808" 
d="M649 158h116q-8 -83 -61 -125.5t-132 -42.5q-106 0 -158 64q-57 -64 -149 -64q-98 0 -161 71.5t-63 189.5t63 188.5t161 70.5q94 0 151 -66q51 66 152 66q84 0 139.5 -60t55.5 -196q0 -26 -1 -42h-277q2 -125 84 -125q72 0 80 71zM568 413q-79 0 -83 -113h159
q1 113 -76 113zM266 92q44 0 70 42.5t26 116.5t-26 115.5t-70 41.5q-45 0 -71 -41.5t-26 -115.5t26 -116.5t71 -42.5z" />
    <glyph glyph-name="Racute" unicode="&#x154;" horiz-adv-x="629" 
d="M454 900l-86 -145h-98l76 145h108zM598 0h-140l-146 273h-114v-273h-129v700h277q104 0 165 -56.5t61 -149.5q0 -70 -36 -121.5t-99 -75.5zM198 588v-203h133q50 0 79.5 28.5t29.5 73.5q0 47 -29 74t-80 27h-133z" />
    <glyph glyph-name="racute" unicode="&#x155;" horiz-adv-x="392" 
d="M242 700h108l-86 -145h-98zM55 0v500h116l12 -71h8q26 42 58 61.5t91 19.5h36v-128q-24 4 -54 4q-75 0 -107 -44.5t-32 -108.5v-233h-128z" />
    <glyph glyph-name="uni0156" unicode="&#x156;" horiz-adv-x="629" 
d="M437 297l161 -297h-140l-146 273h-114v-273h-129v700h277q104 0 165 -56.5t61 -149.5q0 -70 -36 -121.5t-99 -75.5zM198 588v-203h133q50 0 79.5 28.5t29.5 73.5q0 47 -29 74t-80 27h-133zM325 -51q38 0 61 -27.5t23 -70.5q0 -62 -37 -108.5t-88 -73.5l-35 33
q69 56 70 96q-32 -2 -53 18t-21 56t22.5 56.5t57.5 20.5z" />
    <glyph glyph-name="uni0157" unicode="&#x157;" horiz-adv-x="392" 
d="M55 0v500h116l12 -71h8q26 42 58 61.5t91 19.5h36v-128q-24 4 -54 4q-75 0 -107 -44.5t-32 -108.5v-233h-128zM116 -51q38 0 61 -27.5t23 -70.5q0 -62 -37 -108.5t-88 -73.5l-35 33q69 56 70 96q-32 -2 -53 18t-21 56t22.5 56.5t57.5 20.5z" />
    <glyph glyph-name="Rcaron" unicode="&#x158;" horiz-adv-x="629" 
d="M372 752h-107l-108 148h107l51 -77h8l50 77h107zM598 0h-140l-146 273h-114v-273h-129v700h277q104 0 165 -56.5t61 -149.5q0 -70 -36 -121.5t-99 -75.5zM198 588v-203h133q50 0 79.5 28.5t29.5 73.5q0 47 -29 74t-80 27h-133z" />
    <glyph glyph-name="rcaron" unicode="&#x159;" horiz-adv-x="392" 
d="M270 700h107l-108 -148h-107l-108 148h107l51 -77h8zM55 0v500h116l12 -71h8q26 42 58 61.5t91 19.5h36v-128q-24 4 -54 4q-75 0 -107 -44.5t-32 -108.5v-233h-128z" />
    <glyph glyph-name="Sacute" unicode="&#x15a;" horiz-adv-x="610" 
d="M338 900h108l-86 -145h-98zM556 192q0 -98 -69.5 -150t-173.5 -52q-122 0 -189.5 60.5t-71.5 163.5h130q5 -53 38.5 -82.5t92.5 -29.5q48 0 79 21.5t31 64.5q0 25 -10.5 44t-33 32.5t-40.5 20.5t-49 16l-40 12q-176 53 -176 195q0 92 67 147t170 55q106 0 171 -57.5
t68 -148.5h-130q-5 43 -32 68.5t-76 25.5q-47 0 -76 -23t-29 -61q0 -21 9.5 -37.5t29.5 -28t36.5 -17.5t44.5 -15l35 -11q26 -8 46.5 -16t50 -25.5t49 -39t34 -56t14.5 -76.5z" />
    <glyph glyph-name="sacute" unicode="&#x15b;" horiz-adv-x="499" 
d="M268 700h108l-86 -145h-98zM263 -10q-103 0 -160 45.5t-62 124.5h123q10 -75 98 -75q32 0 52.5 12.5t20.5 38.5q0 27 -21.5 41.5t-66.5 26.5l-47 12q-30 7 -51.5 15.5t-44.5 24t-35 41t-12 60.5q0 72 54 112.5t133 40.5q96 0 147 -43t57 -110h-123q-8 58 -80 58
q-30 0 -48 -13.5t-18 -37.5t18.5 -34.5t63.5 -22.5l47 -12q72 -18 110.5 -54t38.5 -102q0 -74 -54.5 -111.5t-139.5 -37.5z" />
    <glyph glyph-name="Scircumflex" unicode="&#x15c;" horiz-adv-x="610" 
d="M256 752h-107l108 148h107l108 -148h-107l-51 77h-7zM556 192q0 -98 -69.5 -150t-173.5 -52q-122 0 -189.5 60.5t-71.5 163.5h130q5 -53 38.5 -82.5t92.5 -29.5q48 0 79 21.5t31 64.5q0 25 -10.5 44t-33 32.5t-40.5 20.5t-49 16l-40 12q-176 53 -176 195q0 92 67 147
t170 55q106 0 171 -57.5t68 -148.5h-130q-5 43 -32 68.5t-76 25.5q-47 0 -76 -23t-29 -61q0 -21 9.5 -37.5t29.5 -28t36.5 -17.5t44.5 -15l35 -11q26 -8 46.5 -16t50 -25.5t49 -39t34 -56t14.5 -76.5z" />
    <glyph glyph-name="scircumflex" unicode="&#x15d;" horiz-adv-x="499" 
d="M186 552h-107l108 148h107l108 -148h-107l-51 77h-7zM263 -10q-103 0 -160 45.5t-62 124.5h123q10 -75 98 -75q32 0 52.5 12.5t20.5 38.5q0 27 -21.5 41.5t-66.5 26.5l-47 12q-30 7 -51.5 15.5t-44.5 24t-35 41t-12 60.5q0 72 54 112.5t133 40.5q96 0 147 -43t57 -110
h-123q-8 58 -80 58q-30 0 -48 -13.5t-18 -37.5t18.5 -34.5t63.5 -22.5l47 -12q72 -18 110.5 -54t38.5 -102q0 -74 -54.5 -111.5t-139.5 -37.5z" />
    <glyph glyph-name="Scedilla" unicode="&#x15e;" horiz-adv-x="610" 
d="M556 192q0 -91 -61 -142.5t-155 -58.5l-22 -34q39 2 69 -20t30 -62q0 -39 -28 -62t-79 -23q-48 0 -81 24l22 51q31 -18 57 -18q19 0 30 8.5t11 22.5q0 31 -41 31q-13 0 -31 -6l-42 33l35 56q-102 11 -158 70t-60 152h130q5 -53 38.5 -82.5t92.5 -29.5q48 0 79 21.5
t31 64.5q0 25 -10.5 44t-33 32.5t-40.5 20.5t-49 16l-40 12q-176 53 -176 195q0 92 67 147t170 55q106 0 171 -57.5t68 -148.5h-130q-5 43 -32 68.5t-76 25.5q-47 0 -76 -23t-29 -61q0 -21 9.5 -37.5t29.5 -28t36.5 -17.5t44.5 -15l35 -11q26 -8 46.5 -16t50 -25.5t49 -39
t34 -56t14.5 -76.5z" />
    <glyph glyph-name="scedilla" unicode="&#x15f;" horiz-adv-x="499" 
d="M457 139q0 -67 -46 -104.5t-121 -43.5l-22 -34q39 2 69 -20t30 -62q0 -39 -28 -62t-79 -23q-48 0 -81 24l22 51q31 -18 57 -18q19 0 30 8.5t11 22.5q0 31 -41 31q-13 0 -31 -6l-42 33l35 56q-83 10 -128.5 54t-50.5 114h123q10 -75 98 -75q32 0 52.5 12.5t20.5 38.5
q0 27 -21.5 41.5t-66.5 26.5l-47 12q-30 7 -51.5 15.5t-44.5 24t-35 41t-12 60.5q0 72 54 112.5t133 40.5q96 0 147 -43t57 -110h-123q-8 58 -80 58q-30 0 -48 -13.5t-18 -37.5t18.5 -34.5t63.5 -22.5l47 -12q72 -18 110.5 -54t38.5 -102z" />
    <glyph glyph-name="Scaron" unicode="&#x160;" horiz-adv-x="610" 
d="M365 900h107l-108 -148h-107l-108 148h107l51 -77h8zM556 192q0 -98 -69.5 -150t-173.5 -52q-122 0 -189.5 60.5t-71.5 163.5h130q5 -53 38.5 -82.5t92.5 -29.5q48 0 79 21.5t31 64.5q0 25 -10.5 44t-33 32.5t-40.5 20.5t-49 16l-40 12q-176 53 -176 195q0 92 67 147
t170 55q106 0 171 -57.5t68 -148.5h-130q-5 43 -32 68.5t-76 25.5q-47 0 -76 -23t-29 -61q0 -21 9.5 -37.5t29.5 -28t36.5 -17.5t44.5 -15l35 -11q26 -8 46.5 -16t50 -25.5t49 -39t34 -56t14.5 -76.5z" />
    <glyph glyph-name="scaron" unicode="&#x161;" horiz-adv-x="499" 
d="M295 700h107l-108 -148h-107l-108 148h107l51 -77h8zM263 -10q-103 0 -160 45.5t-62 124.5h123q10 -75 98 -75q32 0 52.5 12.5t20.5 38.5q0 27 -21.5 41.5t-66.5 26.5l-47 12q-30 7 -51.5 15.5t-44.5 24t-35 41t-12 60.5q0 72 54 112.5t133 40.5q96 0 147 -43t57 -110
h-123q-8 58 -80 58q-30 0 -48 -13.5t-18 -37.5t18.5 -34.5t63.5 -22.5l47 -12q72 -18 110.5 -54t38.5 -102q0 -74 -54.5 -111.5t-139.5 -37.5z" />
    <glyph glyph-name="uni0162" unicode="&#x162;" horiz-adv-x="591" 
d="M361 0h-30l-28 -43q39 2 69 -20t30 -62q0 -39 -28 -62t-79 -23q-48 0 -81 24l22 51q31 -18 57 -18q19 0 30 8.5t11 22.5q0 31 -41 31q-13 0 -31 -6l-42 33l40 64h-31v582h-198v118h528v-118h-198v-582z" />
    <glyph glyph-name="uni0163" unicode="&#x163;" horiz-adv-x="398" 
d="M382 399h-131v-246q0 -17 3.5 -29t19.5 -22.5t44 -10.5q23 0 49 7v-97q-48 -11 -88 -11h-4l-22 -33q39 2 69 -20t30 -62q0 -39 -28 -62t-79 -23q-48 0 -81 24l22 51q31 -18 57 -18q19 0 30 8.5t11 22.5q0 31 -41 31q-13 0 -31 -6l-42 33l40 64q-87 28 -87 136v263h-107
v101h34q46 0 65.5 17.5t19.5 58.5v60h116v-136h131v-101z" />
    <glyph glyph-name="Tcaron" unicode="&#x164;" horiz-adv-x="591" 
d="M349 752h-107l-108 148h107l51 -77h8l50 77h107zM559 700v-118h-198v-582h-132v582h-198v118h528z" />
    <glyph glyph-name="tcaron" unicode="&#x165;" horiz-adv-x="398" 
d="M399 793q33 0 52 -24t19 -62q0 -103 -106 -165l-28 33q58 47 59 91q-23 -2 -42.5 14.5t-19.5 47.5q0 30 18.5 47.5t47.5 17.5zM279 -10q-156 0 -156 146v263h-107v101h34q46 0 65.5 17.5t19.5 58.5v60h116v-136h131v-101h-131v-246q0 -17 3.5 -29t19.5 -22.5t44 -10.5
q23 0 49 7v-97q-48 -11 -88 -11z" />
    <glyph glyph-name="Tbar" unicode="&#x166;" horiz-adv-x="591" 
d="M559 582h-198v-200h144v-97h-144v-285h-132v285h-144v97h144v200h-198v118h528v-118z" />
    <glyph glyph-name="tbar" unicode="&#x167;" horiz-adv-x="398" 
d="M382 399h-131v-90h128v-92h-128v-64q0 -17 3.5 -29t19.5 -22.5t44 -10.5q23 0 49 7v-97q-48 -11 -88 -11q-156 0 -156 146v81h-105v92h105v90h-107v101h34q46 0 65.5 17.5t19.5 58.5v60h116v-136h131v-101z" />
    <glyph glyph-name="Utilde" unicode="&#x168;" horiz-adv-x="713" 
d="M548 878q-4 -59 -33.5 -98.5t-81.5 -39.5q-34 0 -59.5 15.5t-44 31t-35.5 15.5q-38 0 -44 -52h-85q4 60 33.5 99.5t82.5 39.5q37 0 62 -15.5t42 -31t35 -15.5q39 0 43 51h85zM644 700v-429q0 -137 -79 -209t-207 -72q-129 0 -209 72t-80 209v429h132v-425
q0 -77 43.5 -120t113.5 -43t112 42.5t42 120.5v425h132z" />
    <glyph glyph-name="utilde" unicode="&#x169;" horiz-adv-x="588" 
d="M486 678q-4 -59 -33.5 -98.5t-81.5 -39.5q-34 0 -59.5 15.5t-44 31t-35.5 15.5q-38 0 -44 -52h-85q4 60 33.5 99.5t82.5 39.5q37 0 62 -15.5t42 -31t35 -15.5q39 0 43 51h85zM533 500v-500h-117l-11 59h-8q-53 -69 -147 -69q-90 0 -142.5 55t-52.5 152v303h128v-277
q0 -59 30 -90.5t78 -31.5q49 0 81.5 32.5t32.5 95.5v271h128z" />
    <glyph glyph-name="Umacron" unicode="&#x16a;" horiz-adv-x="713" 
d="M192 856h331v-87h-331v87zM644 700v-429q0 -137 -79 -209t-207 -72q-129 0 -209 72t-80 209v429h132v-425q0 -77 43.5 -120t113.5 -43t112 42.5t42 120.5v425h132z" />
    <glyph glyph-name="umacron" unicode="&#x16b;" horiz-adv-x="588" 
d="M129 656h331v-87h-331v87zM533 500v-500h-117l-11 59h-8q-53 -69 -147 -69q-90 0 -142.5 55t-52.5 152v303h128v-277q0 -59 30 -90.5t78 -31.5q49 0 81.5 32.5t32.5 95.5v271h128z" />
    <glyph glyph-name="Ubreve" unicode="&#x16c;" horiz-adv-x="713" 
d="M502 900q0 -56 -42 -94.5t-104 -38.5t-105 38.5t-43 94.5h95q0 -24 14.5 -41t39.5 -17q24 0 37.5 17t13.5 41h94zM644 700v-429q0 -137 -79 -209t-207 -72q-129 0 -209 72t-80 209v429h132v-425q0 -77 43.5 -120t113.5 -43t112 42.5t42 120.5v425h132z" />
    <glyph glyph-name="ubreve" unicode="&#x16d;" horiz-adv-x="588" 
d="M440 700q0 -56 -42 -94.5t-104 -38.5t-105 38.5t-43 94.5h95q0 -24 14.5 -41t39.5 -17q24 0 37.5 17t13.5 41h94zM533 500v-500h-117l-11 59h-8q-53 -69 -147 -69q-90 0 -142.5 55t-52.5 152v303h128v-277q0 -59 30 -90.5t78 -31.5q49 0 81.5 32.5t32.5 95.5v271h128z
" />
    <glyph glyph-name="Uring" unicode="&#x16e;" horiz-adv-x="713" 
d="M355 734q-41 0 -71 29t-30 69t30 69.5t71 29.5q42 0 72.5 -29.5t30.5 -69.5t-30.5 -69t-72.5 -29zM357 801q12 0 21.5 9.5t9.5 21.5q0 13 -9.5 22t-21.5 9q-14 0 -23.5 -9t-9.5 -22q0 -12 9.5 -21.5t23.5 -9.5zM644 700v-429q0 -137 -79 -209t-207 -72q-129 0 -209 72
t-80 209v429h132v-425q0 -77 43.5 -120t113.5 -43t112 42.5t42 120.5v425h132z" />
    <glyph glyph-name="uring" unicode="&#x16f;" horiz-adv-x="588" 
d="M293 534q-41 0 -71 29t-30 69t30 69.5t71 29.5q42 0 72.5 -29.5t30.5 -69.5t-30.5 -69t-72.5 -29zM295 601q12 0 21.5 9.5t9.5 21.5q0 13 -9.5 22t-21.5 9q-14 0 -23.5 -9t-9.5 -22q0 -12 9.5 -21.5t23.5 -9.5zM533 500v-500h-117l-11 59h-8q-53 -69 -147 -69
q-90 0 -142.5 55t-52.5 152v303h128v-277q0 -59 30 -90.5t78 -31.5q49 0 81.5 32.5t32.5 95.5v271h128z" />
    <glyph glyph-name="Uhungarumlaut" unicode="&#x170;" horiz-adv-x="713" 
d="M278 900h105l-66 -145h-99zM456 900h105l-66 -145h-99zM644 700v-429q0 -137 -79 -209t-207 -72q-129 0 -209 72t-80 209v429h132v-425q0 -77 43.5 -120t113.5 -43t112 42.5t42 120.5v425h132z" />
    <glyph glyph-name="uhungarumlaut" unicode="&#x171;" horiz-adv-x="588" 
d="M216 700h105l-66 -145h-99zM394 700h105l-66 -145h-99zM533 500v-500h-117l-11 59h-8q-53 -69 -147 -69q-90 0 -142.5 55t-52.5 152v303h128v-277q0 -59 30 -90.5t78 -31.5q49 0 81.5 32.5t32.5 95.5v271h128z" />
    <glyph glyph-name="Uogonek" unicode="&#x172;" horiz-adv-x="713" 
d="M512 700h132v-429q0 -113 -54.5 -182t-148.5 -90q-63 -20 -63 -65q0 -40 57 -40q23 0 46 6v-70q-26 -8 -60 -8q-56 0 -89 24t-33 69q0 46 41 75q-122 6 -196.5 77.5t-74.5 203.5v429h132v-425q0 -77 43.5 -120t113.5 -43t112 42.5t42 120.5v425z" />
    <glyph glyph-name="uogonek" unicode="&#x173;" horiz-adv-x="588" 
d="M523 -106q23 0 46 6v-70q-26 -8 -60 -8q-56 0 -89 24t-33 69q0 51 56 85h-27l-11 59h-8q-53 -69 -147 -69q-90 0 -142.5 55t-52.5 152v303h128v-277q0 -59 30 -90.5t78 -31.5q49 0 81.5 32.5t32.5 95.5v271h128v-500q-67 -20 -67 -66q0 -40 57 -40z" />
    <glyph glyph-name="Wcircumflex" unicode="&#x174;" horiz-adv-x="921" 
d="M406 752h-107l108 148h107l108 -148h-107l-51 77h-7zM773 700h127l-152 -700h-146l-138 481h-8l-136 -481h-146l-153 700h128l103 -506h8l131 456h140l129 -456h8z" />
    <glyph glyph-name="wcircumflex" unicode="&#x175;" horiz-adv-x="775" 
d="M333 552h-107l108 148h107l108 -148h-107l-51 77h-7zM150 0l-133 500h118l85 -354h8l94 322h133l93 -323h8l84 355h119l-135 -500h-140l-92 326h-8l-94 -326h-140z" />
    <glyph glyph-name="Ycircumflex" unicode="&#x176;" horiz-adv-x="678" 
d="M284 752h-107l108 148h107l108 -148h-107l-51 77h-7zM500 700h157l-252 -391v-309h-132v309l-252 391h156l158 -247h8z" />
    <glyph glyph-name="ycircumflex" unicode="&#x177;" horiz-adv-x="569" 
d="M230 552h-107l108 148h107l108 -148h-107l-51 77h-7zM150 -210q-39 0 -81 11v95q29 -6 52 -6q83 0 110 67l17 43h-40l-191 500h132l136 -369h8l127 369h132l-202 -562q-50 -148 -200 -148z" />
    <glyph glyph-name="Ydieresis" unicode="&#x178;" horiz-adv-x="678" 
d="M221 754q-32 0 -55 22.5t-23 53.5q0 32 23 54.5t55 22.5q30 0 52.5 -22.5t22.5 -54.5q0 -31 -22.5 -53.5t-52.5 -22.5zM458 754q-30 0 -52.5 22.5t-22.5 53.5q0 32 22.5 54.5t52.5 22.5q32 0 54.5 -22.5t22.5 -54.5q0 -31 -22.5 -53.5t-54.5 -22.5zM500 700h157
l-252 -391v-309h-132v309l-252 391h156l158 -247h8z" />
    <glyph glyph-name="Zacute" unicode="&#x179;" horiz-adv-x="626" 
d="M342 900h108l-86 -145h-98zM246 118h326v-118h-520v77l328 498v7h-311v118h493v-77l-316 -498v-7z" />
    <glyph glyph-name="zacute" unicode="&#x17a;" horiz-adv-x="501" 
d="M279 700h108l-86 -145h-98zM41 0v64l234 331v6h-222v99h397v-64l-231 -331v-6h239v-99h-417z" />
    <glyph glyph-name="Zdotaccent" unicode="&#x17b;" horiz-adv-x="626" 
d="M316 764q-32 0 -55.5 23t-23.5 54q0 33 23.5 55.5t55.5 22.5t54.5 -22.5t22.5 -55.5q0 -31 -23 -54t-54 -23zM246 118h326v-118h-520v77l328 498v7h-311v118h493v-77l-316 -498v-7z" />
    <glyph glyph-name="zdotaccent" unicode="&#x17c;" horiz-adv-x="501" 
d="M252 564q-32 0 -55.5 23t-23.5 54q0 33 23.5 55.5t55.5 22.5t54.5 -22.5t22.5 -55.5q0 -31 -23 -54t-54 -23zM41 0v64l234 331v6h-222v99h397v-64l-231 -331v-6h239v-99h-417z" />
    <glyph glyph-name="Zcaron" unicode="&#x17d;" horiz-adv-x="626" 
d="M370 900h107l-108 -148h-107l-108 148h107l51 -77h8zM246 118h326v-118h-520v77l328 498v7h-311v118h493v-77l-316 -498v-7z" />
    <glyph glyph-name="zcaron" unicode="&#x17e;" horiz-adv-x="501" 
d="M306 700h107l-108 -148h-107l-108 148h107l51 -77h8zM41 0v64l234 331v6h-222v99h397v-64l-231 -331v-6h239v-99h-417z" />
    <glyph glyph-name="florin" unicode="&#x192;" horiz-adv-x="557" 
d="M439 552q-57 0 -67 -58l-20 -107h134v-91h-151l-31 -169q-13 -66 -57.5 -101.5t-111.5 -35.5q-70 0 -114 35l35 84q28 -21 63 -21q57 0 67 58l28 150h-124v91h141l23 126q13 67 57 102t111 35t114 -35l-34 -84q-32 21 -63 21z" />
    <glyph glyph-name="uni01CD" unicode="&#x1cd;" horiz-adv-x="700" 
d="M404 752h-107l-108 148h107l51 -77h8l50 77h107zM538 0l-57 169h-262l-57 -169h-141l250 700h159l249 -700h-141zM255 278h190l-91 270h-8z" />
    <glyph glyph-name="uni01CE" unicode="&#x1ce;" horiz-adv-x="547" 
d="M317 552h-107l-108 148h107l51 -77h8l50 77h107zM518 96h12v-96h-54q-79 0 -101 60q-55 -70 -165 -70q-80 0 -128.5 37.5t-48.5 109.5q0 68 45.5 106.5t119.5 45.5l156 16v21q0 40 -23 61t-61 21q-77 0 -90 -75h-128q8 80 66 128.5t152 48.5t153 -48.5t59 -144.5v-183
q0 -38 36 -38zM354 193v24l-112 -12q-81 -9 -81 -63t71 -54q48 0 85 25.5t37 79.5z" />
    <glyph glyph-name="uni01CF" unicode="&#x1cf;" horiz-adv-x="270" 
d="M190 900h107l-108 -148h-107l-108 148h107l51 -77h8zM201 700v-700h-132v700h132z" />
    <glyph glyph-name="uni01D0" unicode="&#x1d0;" horiz-adv-x="238" 
d="M174 700h107l-108 -148h-107l-108 148h107l51 -77h8zM55 0v500h128v-500h-128z" />
    <glyph glyph-name="uni01D1" unicode="&#x1d1;" horiz-adv-x="820" 
d="M465 900h107l-108 -148h-107l-108 148h107l51 -77h8zM410 -10q-154 0 -256 102.5t-102 257.5q0 154 101.5 257t256.5 103q154 0 256 -103t102 -257t-101.5 -257t-256.5 -103zM411 112q96 0 159 68t63 170t-63.5 170t-159.5 68t-159.5 -68t-63.5 -170t63.5 -170t160.5 -68
z" />
    <glyph glyph-name="uni01D2" unicode="&#x1d2;" horiz-adv-x="611" 
d="M360 700h107l-108 -148h-107l-108 148h107l51 -77h8zM305 -10q-113 0 -188.5 73.5t-75.5 187.5t75 186.5t189 72.5t189 -72.5t75 -186.5q0 -115 -75 -188t-189 -73zM305 101q61 0 99 43t38 107q0 63 -38 105.5t-99 42.5t-98.5 -42.5t-37.5 -105.5q0 -64 38 -107t98 -43z
" />
    <glyph glyph-name="uni01D3" unicode="&#x1d3;" horiz-adv-x="713" 
d="M411 900h107l-108 -148h-107l-108 148h107l51 -77h8zM644 700v-429q0 -137 -79 -209t-207 -72q-129 0 -209 72t-80 209v429h132v-425q0 -77 43.5 -120t113.5 -43t112 42.5t42 120.5v425h132z" />
    <glyph glyph-name="uni01D4" unicode="&#x1d4;" horiz-adv-x="588" 
d="M349 700h107l-108 -148h-107l-108 148h107l51 -77h8zM533 500v-500h-117l-11 59h-8q-53 -69 -147 -69q-90 0 -142.5 55t-52.5 152v303h128v-277q0 -59 30 -90.5t78 -31.5q49 0 81.5 32.5t32.5 95.5v271h128z" />
    <glyph glyph-name="uni01E2" unicode="&#x1e2;" horiz-adv-x="1046" 
d="M904 856v-87h-331v87h331zM674 115h335v-115h-463v168h-259l-110 -168h-156l455 700h523v-115h-325v-174h278v-112h-278v-184zM360 278h186v270h-9z" />
    <glyph glyph-name="uni01E3" unicode="&#x1e3;" horiz-adv-x="756" 
d="M534 656v-87h-331v87h331zM598 158h115q-8 -83 -61 -125.5t-132 -42.5q-109 0 -156 73q-44 -73 -165 -73q-77 0 -121.5 36.5t-44.5 104.5q0 83 58.5 126t162.5 43h52v37q0 74 -69 74q-72 0 -75 -71l-122 4q4 79 55 122.5t136 43.5q97 0 145 -64q49 64 142 64
q83 0 138 -60t55 -196q0 -26 -1 -42h-277q2 -125 85 -125q71 0 80 71zM516 413q-36 0 -58.5 -27.5t-24.5 -85.5h160q0 113 -77 113zM219 87q35 0 61 19t26 63v43h-50q-103 0 -103 -68q0 -28 18 -42.5t48 -14.5z" />
    <glyph glyph-name="Gcaron" unicode="&#x1e6;" horiz-adv-x="787" 
d="M447 900h107l-108 -148h-107l-108 148h107l51 -77h8zM401 380h317v-380h-105l-13 67h-8q-77 -77 -209 -77q-150 0 -240.5 97.5t-90.5 252.5q0 161 99 265.5t256 104.5q130 0 210 -63t95 -161h-144q-16 48 -58 75t-103 27q-100 0 -160 -69.5t-60 -178.5q0 -103 57 -167.5
t156 -64.5q82 0 134.5 36t52.5 103v30h-186v103z" />
    <glyph glyph-name="gcaron" unicode="&#x1e7;" horiz-adv-x="557" 
d="M333 552h-107l-108 148h107l51 -77h8l50 77h107zM540 486q-29 -30 -81 -55q32 -41 32 -94q0 -78 -59 -123t-151 -45q-45 0 -84 11q-24 -12 -24 -33q0 -38 66 -38h98q88 0 135 -39.5t47 -108.5q0 -80 -63 -125.5t-172 -45.5q-112 0 -173.5 47.5t-69.5 120.5l76 67
q-57 31 -57 92t67 98q-59 46 -59 122q0 75 56.5 124t150.5 49q66 0 116 -25q53 27 86 71zM281 262q40 0 64 21.5t24 55.5q0 35 -23.5 57t-64.5 22t-66 -22t-25 -57q0 -34 25 -55.5t66 -21.5zM397 -46q0 29 -22 42t-54 13h-91l-66 -56q9 -29 39.5 -48t81.5 -19
q49 0 80.5 17.5t31.5 50.5z" />
    <glyph glyph-name="uni01EA" unicode="&#x1ea;" horiz-adv-x="820" 
d="M493 -1q-63 -22 -63 -65q0 -40 57 -40q23 0 46 6v-70q-26 -8 -60 -8q-56 0 -89 24t-33 69q0 46 41 75q-148 7 -244 108.5t-96 251.5q0 154 101.5 257t256.5 103q154 0 256 -103t102 -257q0 -132 -76 -228.5t-199 -122.5zM187 350q0 -102 63.5 -170t160.5 -68q96 0 159 68
t63 170t-63.5 170t-159.5 68t-159.5 -68t-63.5 -170z" />
    <glyph glyph-name="uni01EB" unicode="&#x1eb;" horiz-adv-x="611" 
d="M375 -2q-61 -20 -61 -64q0 -40 57 -40q23 0 46 6v-70q-26 -8 -60 -8q-56 0 -89 24t-33 69t43 76q-103 9 -170 81t-67 179q0 114 75 186.5t189 72.5t189 -72.5t75 -186.5q0 -96 -53 -164t-141 -89zM169 251q0 -64 38 -107t98 -43q61 0 99 43t38 107q0 63 -38 105.5
t-99 42.5t-98.5 -42.5t-37.5 -105.5z" />
    <glyph glyph-name="uni01F4" unicode="&#x1f4;" horiz-adv-x="787" 
d="M420 900h108l-86 -145h-98zM401 380h317v-380h-105l-13 67h-8q-77 -77 -209 -77q-150 0 -240.5 97.5t-90.5 252.5q0 161 99 265.5t256 104.5q130 0 210 -63t95 -161h-144q-16 48 -58 75t-103 27q-100 0 -160 -69.5t-60 -178.5q0 -103 57 -167.5t156 -64.5q82 0 134.5 36
t52.5 103v30h-186v103z" />
    <glyph glyph-name="uni01F5" unicode="&#x1f5;" horiz-adv-x="557" 
d="M415 700l-86 -145h-98l76 145h108zM540 486q-29 -30 -81 -55q32 -41 32 -94q0 -78 -59 -123t-151 -45q-45 0 -84 11q-24 -12 -24 -33q0 -38 66 -38h98q88 0 135 -39.5t47 -108.5q0 -80 -63 -125.5t-172 -45.5q-112 0 -173.5 47.5t-69.5 120.5l76 67q-57 31 -57 92t67 98
q-59 46 -59 122q0 75 56.5 124t150.5 49q66 0 116 -25q53 27 86 71zM281 262q40 0 64 21.5t24 55.5q0 35 -23.5 57t-64.5 22t-66 -22t-25 -57q0 -34 25 -55.5t66 -21.5zM397 -46q0 29 -22 42t-54 13h-91l-66 -56q9 -29 39.5 -48t81.5 -19q49 0 80.5 17.5t31.5 50.5z" />
    <glyph glyph-name="uni01F8" unicode="&#x1f8;" horiz-adv-x="725" 
d="M335 900l76 -145h-97l-87 145h108zM527 700h129v-700h-135l-315 468h-8v-468h-129v700h135l315 -471h8v471z" />
    <glyph glyph-name="uni01F9" unicode="&#x1f9;" horiz-adv-x="588" 
d="M267 700l76 -145h-97l-87 145h108zM55 0v500h117l11 -59h8q53 69 147 69q90 0 142.5 -55t52.5 -152v-303h-128v277q0 59 -30 90.5t-77 31.5q-49 0 -82 -32.5t-33 -95.5v-271h-128z" />
    <glyph glyph-name="AEacute" unicode="&#x1fc;" horiz-adv-x="1046" 
d="M873 900l-86 -145h-98l76 145h108zM674 115h335v-115h-463v168h-259l-110 -168h-156l455 700h523v-115h-325v-174h278v-112h-278v-184zM360 278h186v270h-9z" />
    <glyph glyph-name="aeacute" unicode="&#x1fd;" horiz-adv-x="756" 
d="M503 700l-86 -145h-98l76 145h108zM598 158h115q-8 -83 -61 -125.5t-132 -42.5q-109 0 -156 73q-44 -73 -165 -73q-77 0 -121.5 36.5t-44.5 104.5q0 83 58.5 126t162.5 43h52v37q0 74 -69 74q-72 0 -75 -71l-122 4q4 79 55 122.5t136 43.5q97 0 145 -64q49 64 142 64
q83 0 138 -60t55 -196q0 -26 -1 -42h-277q2 -125 85 -125q71 0 80 71zM516 413q-36 0 -58.5 -27.5t-24.5 -85.5h160q0 113 -77 113zM219 87q35 0 61 19t26 63v43h-50q-103 0 -103 -68q0 -28 18 -42.5t48 -14.5z" />
    <glyph glyph-name="Oslashacute" unicode="&#x1fe;" horiz-adv-x="820" 
d="M545 900l-86 -145h-98l76 145h108zM666 608q102 -104 102 -258t-101.5 -257t-256.5 -103q-98 0 -176 43l-64 -86l-78 58l64 86q-104 102 -104 259q0 154 101.5 257t256.5 103q97 0 175 -43l63 85l81 -60zM181 350q0 -90 50 -158l282 379q-48 24 -103 24q-99 0 -164 -70
t-65 -175zM411 105q99 0 163.5 70t64.5 175q0 90 -49 156l-283 -377q50 -24 104 -24z" />
    <glyph glyph-name="oslashacute" unicode="&#x1ff;" horiz-adv-x="611" 
d="M441 700l-86 -145h-98l76 145h108zM499 433q70 -73 70 -182q0 -115 -75 -188t-189 -73q-64 0 -123 27l-51 -67l-70 49l52 68q-72 74 -72 184q0 114 75 186.5t189 72.5q68 0 124 -28l51 67l70 -49zM162 251q0 -51 23 -89l177 232q-27 11 -57 11q-64 0 -103.5 -44
t-39.5 -110zM305 95q63 0 103 45t40 111q0 48 -22 86l-176 -231q25 -11 55 -11z" />
    <glyph glyph-name="uni0218" unicode="&#x218;" horiz-adv-x="610" 
d="M556 192q0 -98 -69.5 -150t-173.5 -52q-122 0 -189.5 60.5t-71.5 163.5h130q5 -53 38.5 -82.5t92.5 -29.5q48 0 79 21.5t31 64.5q0 25 -10.5 44t-33 32.5t-40.5 20.5t-49 16l-40 12q-176 53 -176 195q0 92 67 147t170 55q106 0 171 -57.5t68 -148.5h-130q-5 43 -32 68.5
t-76 25.5q-47 0 -76 -23t-29 -61q0 -21 9.5 -37.5t29.5 -28t36.5 -17.5t44.5 -15l35 -11q26 -8 46.5 -16t50 -25.5t49 -39t34 -56t14.5 -76.5zM308 -51q38 0 61 -27.5t23 -70.5q0 -62 -37 -108.5t-88 -73.5l-35 33q69 56 70 96q-32 -2 -53 18t-21 56t22.5 56.5t57.5 20.5z
" />
    <glyph glyph-name="uni0219" unicode="&#x219;" horiz-adv-x="499" 
d="M263 -10q-103 0 -160 45.5t-62 124.5h123q10 -75 98 -75q32 0 52.5 12.5t20.5 38.5q0 27 -21.5 41.5t-66.5 26.5l-47 12q-30 7 -51.5 15.5t-44.5 24t-35 41t-12 60.5q0 72 54 112.5t133 40.5q96 0 147 -43t57 -110h-123q-8 58 -80 58q-30 0 -48 -13.5t-18 -37.5
t18.5 -34.5t63.5 -22.5l47 -12q72 -18 110.5 -54t38.5 -102q0 -74 -54.5 -111.5t-139.5 -37.5zM257 -51q38 0 61 -27.5t23 -70.5q0 -62 -37 -108.5t-88 -73.5l-35 33q69 56 70 96q-32 -2 -53 18t-21 56t22.5 56.5t57.5 20.5z" />
    <glyph glyph-name="uni021A" unicode="&#x21a;" horiz-adv-x="591" 
d="M31 700h528v-118h-198v-582h-132v582h-198v118zM293 -51q38 0 61 -27.5t23 -70.5q0 -62 -37 -108.5t-88 -73.5l-35 33q69 56 70 96q-32 -2 -53 18t-21 56t22.5 56.5t57.5 20.5z" />
    <glyph glyph-name="uni021B" unicode="&#x21b;" horiz-adv-x="398" 
d="M279 -10q-156 0 -156 146v263h-107v101h34q46 0 65.5 17.5t19.5 58.5v60h116v-136h131v-101h-131v-246q0 -17 3.5 -29t19.5 -22.5t44 -10.5q23 0 49 7v-97q-48 -11 -88 -11zM243 -51q38 0 61 -27.5t23 -70.5q0 -62 -37 -108.5t-88 -73.5l-35 33q69 56 70 96
q-32 -2 -53 18t-21 56t22.5 56.5t57.5 20.5z" />
    <glyph glyph-name="uni021E" unicode="&#x21e;" horiz-adv-x="696" 
d="M399 900h107l-108 -148h-107l-108 148h107l51 -77h8zM495 700h132v-700h-132v295h-294v-295h-132v700h132v-286h294v286z" />
    <glyph glyph-name="uni0226" unicode="&#x226;" horiz-adv-x="700" 
d="M351 764q-32 0 -55.5 23t-23.5 54q0 33 23.5 55.5t55.5 22.5t54.5 -22.5t22.5 -55.5q0 -31 -23 -54t-54 -23zM538 0l-57 169h-262l-57 -169h-141l250 700h159l249 -700h-141zM255 278h190l-91 270h-8z" />
    <glyph glyph-name="uni0227" unicode="&#x227;" horiz-adv-x="547" 
d="M264 564q-32 0 -55.5 23t-23.5 54q0 33 23.5 55.5t55.5 22.5t54.5 -22.5t22.5 -55.5q0 -31 -23 -54t-54 -23zM518 96h12v-96h-54q-79 0 -101 60q-55 -70 -165 -70q-80 0 -128.5 37.5t-48.5 109.5q0 68 45.5 106.5t119.5 45.5l156 16v21q0 40 -23 61t-61 21q-77 0 -90 -75
h-128q8 80 66 128.5t152 48.5t153 -48.5t59 -144.5v-183q0 -38 36 -38zM354 193v24l-112 -12q-81 -9 -81 -63t71 -54q48 0 85 25.5t37 79.5z" />
    <glyph glyph-name="uni0228" unicode="&#x228;" horiz-adv-x="586" 
d="M548 0h-203l-28 -43q39 2 69 -20t30 -62q0 -39 -28 -62t-79 -23q-48 0 -81 24l22 51q31 -18 57 -18q19 0 30 8.5t11 22.5q0 31 -41 31q-13 0 -31 -6l-42 33l40 64h-205v700h469v-115h-340v-174h293v-112h-293v-184h350v-115z" />
    <glyph glyph-name="uni0229" unicode="&#x229;" horiz-adv-x="575" 
d="M531 158q-14 -72 -69 -116.5t-140 -50.5l-22 -34q39 2 69 -20t30 -62q0 -39 -28 -62t-79 -23q-48 0 -81 24l22 51q31 -18 57 -18q19 0 30 8.5t11 22.5q0 31 -41 31q-13 0 -31 -6l-42 33l36 57q-95 14 -153.5 82t-58.5 170q0 120 72.5 192.5t179.5 72.5q100 0 168.5 -65
t68.5 -192q0 -9 -2 -37h-360q4 -55 38.5 -89.5t91.5 -34.5q89 0 110 66h123zM293 408q-50 0 -83.5 -30t-40.5 -76h239q-2 47 -34 76.5t-81 29.5z" />
    <glyph glyph-name="uni022E" unicode="&#x22e;" horiz-adv-x="820" 
d="M410 764q-32 0 -55.5 23t-23.5 54q0 33 23.5 55.5t55.5 22.5t54.5 -22.5t22.5 -55.5q0 -31 -23 -54t-54 -23zM410 -10q-154 0 -256 102.5t-102 257.5q0 154 101.5 257t256.5 103q154 0 256 -103t102 -257t-101.5 -257t-256.5 -103zM411 112q96 0 159 68t63 170t-63.5 170
t-159.5 68t-159.5 -68t-63.5 -170t63.5 -170t160.5 -68z" />
    <glyph glyph-name="uni022F" unicode="&#x22f;" horiz-adv-x="611" 
d="M306 564q-32 0 -55.5 23t-23.5 54q0 33 23.5 55.5t55.5 22.5t54.5 -22.5t22.5 -55.5q0 -31 -23 -54t-54 -23zM305 -10q-113 0 -188.5 73.5t-75.5 187.5t75 186.5t189 72.5t189 -72.5t75 -186.5q0 -115 -75 -188t-189 -73zM305 101q61 0 99 43t38 107q0 63 -38 105.5
t-99 42.5t-98.5 -42.5t-37.5 -105.5q0 -64 38 -107t98 -43z" />
    <glyph glyph-name="uni0232" unicode="&#x232;" horiz-adv-x="678" 
d="M174 856h331v-87h-331v87zM500 700h157l-252 -391v-309h-132v309l-252 391h156l158 -247h8z" />
    <glyph glyph-name="uni0233" unicode="&#x233;" horiz-adv-x="569" 
d="M120 656h331v-87h-331v87zM150 -210q-39 0 -81 11v95q29 -6 52 -6q83 0 110 67l17 43h-40l-191 500h132l136 -369h8l127 369h132l-202 -562q-50 -148 -200 -148z" />
    <glyph glyph-name="uni0237" unicode="&#x237;" horiz-adv-x="238" 
d="M26 -210q-40 0 -88 11v95q23 -6 49 -6q68 0 68 61v549h128v-564q0 -146 -157 -146z" />
    <glyph glyph-name="circumflex" unicode="&#x2c6;" horiz-adv-x="461" 
d="M176 552h-107l108 148h107l108 -148h-107l-51 77h-8z" />
    <glyph glyph-name="caron" unicode="&#x2c7;" horiz-adv-x="461" 
d="M285 700h107l-107 -148h-107l-109 148h107l51 -77h8z" />
    <glyph glyph-name="breve" unicode="&#x2d8;" horiz-adv-x="432" 
d="M363 700q0 -56 -42 -94.5t-104 -38.5t-105 38.5t-43 94.5h95q0 -24 14.5 -41t38.5 -17t38 16.5t14 41.5h94z" />
    <glyph glyph-name="dotaccent" unicode="&#x2d9;" horiz-adv-x="294" 
d="M148 564q-32 0 -55.5 23t-23.5 54q0 33 23.5 55.5t55.5 22.5t54 -22.5t22 -55.5q0 -31 -22.5 -54t-53.5 -23z" />
    <glyph glyph-name="ring" unicode="&#x2da;" horiz-adv-x="342" 
d="M170 534q-41 0 -71 29t-30 69t30 69.5t71 29.5q42 0 72.5 -29.5t30.5 -69.5t-30.5 -69t-72.5 -29zM172 601q12 0 21.5 9.5t9.5 21.5q0 13 -9.5 22t-21.5 9q-14 0 -23.5 -9t-9.5 -22q0 -12 9.5 -21.5t23.5 -9.5z" />
    <glyph glyph-name="ogonek" unicode="&#x2db;" horiz-adv-x="319" 
d="M181 26l34 -26q-67 -20 -67 -66q0 -40 56 -40q25 0 46 6v-70q-26 -8 -59 -8q-56 0 -89 24t-33 69q0 42 30 66.5t82 44.5z" />
    <glyph glyph-name="tilde" unicode="&#x2dc;" horiz-adv-x="521" 
d="M452 678q-3 -59 -33 -98.5t-82 -39.5q-34 0 -59.5 15.5t-44 31t-35.5 15.5q-38 0 -44 -52h-85q5 60 34.5 99.5t81.5 39.5q37 0 62 -15.5t42.5 -31t34.5 -15.5q39 0 43 51h85z" />
    <glyph glyph-name="hungarumlaut" unicode="&#x2dd;" horiz-adv-x="482" 
d="M129 700h106l-67 -145h-99zM307 700h106l-67 -145h-99z" />
    <glyph glyph-name="uni1E02" unicode="&#x1e02;" horiz-adv-x="623" 
d="M314 764q-32 0 -55.5 23t-23.5 54q0 33 23.5 55.5t55.5 22.5t54.5 -22.5t22.5 -55.5q0 -31 -23 -54t-54 -23zM464 369q47 -17 82 -59.5t35 -115.5q0 -92 -60 -143t-166 -51h-286v700h288q100 0 152 -47.5t52 -127.5q0 -104 -97 -150v-6zM198 594v-181h139q44 0 68 24.5
t24 66.5t-24.5 66t-65.5 24h-141zM343 106q50 0 76.5 27t26.5 71q0 45 -27.5 74t-75.5 29h-145v-201h145z" />
    <glyph glyph-name="uni1E03" unicode="&#x1e03;" horiz-adv-x="605" 
d="M118 765q-32 0 -55.5 23t-23.5 54q0 33 23.5 55.5t55.5 22.5t54.5 -22.5t22.5 -55.5q0 -31 -23 -54t-54 -23zM328 510q101 0 168 -70t67 -189q0 -117 -66.5 -189t-168.5 -72q-97 0 -149 69h-9l-11 -59h-104v710h128v-257q51 57 145 57zM308 101q57 0 92 41.5t35 108.5
q0 66 -35 107t-92 41t-91 -41t-34 -107q0 -68 34 -109t91 -41z" />
    <glyph glyph-name="uni1E0A" unicode="&#x1e0a;" horiz-adv-x="707" 
d="M345 764q-32 0 -55.5 23t-23.5 54q0 33 23.5 55.5t55.5 22.5t54.5 -22.5t22.5 -55.5q0 -31 -23 -54t-54 -23zM314 700q160 0 250.5 -93.5t90.5 -256.5q0 -162 -90.5 -256t-250.5 -94h-245v700h245zM309 118q106 0 158.5 64.5t52.5 171.5q0 106 -52.5 167t-158.5 61h-108
v-464h108z" />
    <glyph glyph-name="uni1E0B" unicode="&#x1e0b;" horiz-adv-x="605" 
d="M488 765q-32 0 -55.5 23t-23.5 54q0 33 23.5 55.5t55.5 22.5t54.5 -22.5t22.5 -55.5q0 -31 -23 -54t-54 -23zM422 453v257h128v-710h-104l-11 59h-9q-52 -69 -149 -69q-102 0 -168.5 72t-66.5 189q0 119 67 189t168 70q94 0 145 -57zM297 101q57 0 91 41t34 109
q0 66 -34 107t-91 41t-92 -41t-35 -107q0 -67 35 -108.5t92 -41.5z" />
    <glyph glyph-name="uni1E10" unicode="&#x1e10;" horiz-adv-x="707" 
d="M314 700q160 0 250.5 -93.5t90.5 -256.5q0 -162 -90.5 -256t-250.5 -94h-245v700h245zM309 118q106 0 158.5 64.5t52.5 171.5q0 106 -52.5 167t-158.5 61h-108v-464h108zM342 -51q38 0 61 -27.5t23 -70.5q0 -62 -37 -108.5t-88 -73.5l-35 33q69 56 70 96q-32 -2 -53 18
t-21 56t22.5 56.5t57.5 20.5z" />
    <glyph glyph-name="uni1E11" unicode="&#x1e11;" horiz-adv-x="605" 
d="M422 710h128v-710h-104l-11 59h-9q-52 -69 -149 -69q-102 0 -168.5 72t-66.5 189q0 119 67 189t168 70q94 0 145 -57v257zM297 101q57 0 91 41t34 109q0 66 -34 107t-91 41t-92 -41t-35 -107q0 -67 35 -108.5t92 -41.5zM299 -51q38 0 61 -27.5t23 -70.5q0 -62 -37 -108.5
t-88 -73.5l-35 33q69 56 70 96q-32 -2 -53 18t-21 56t22.5 56.5t57.5 20.5z" />
    <glyph glyph-name="uni1E1E" unicode="&#x1e1e;" horiz-adv-x="571" 
d="M305 764q-32 0 -55.5 23t-23.5 54q0 33 23.5 55.5t55.5 22.5t54.5 -22.5t22.5 -55.5q0 -31 -23 -54t-54 -23zM540 579h-339v-186h294v-115h-294v-278h-132v700h471v-121z" />
    <glyph glyph-name="uni1E1F" unicode="&#x1e1f;" horiz-adv-x="400" 
d="M253 764q-32 0 -55.5 23t-23.5 54q0 33 23.5 55.5t55.5 22.5t54.5 -22.5t22.5 -55.5q0 -31 -23 -54t-54 -23zM249 547v-47h127v-101h-127v-399h-128v399h-105v101h105v54q0 76 45.5 116t121.5 40q45 0 96 -17l-22 -93q-23 8 -51 8q-62 0 -62 -61z" />
    <glyph glyph-name="uni1E20" unicode="&#x1e20;" horiz-adv-x="787" 
d="M228 856h331v-87h-331v87zM401 380h317v-380h-105l-13 67h-8q-77 -77 -209 -77q-150 0 -240.5 97.5t-90.5 252.5q0 161 99 265.5t256 104.5q130 0 210 -63t95 -161h-144q-16 48 -58 75t-103 27q-100 0 -160 -69.5t-60 -178.5q0 -103 57 -167.5t156 -64.5q82 0 134.5 36
t52.5 103v30h-186v103z" />
    <glyph glyph-name="uni1E22" unicode="&#x1e22;" horiz-adv-x="696" 
d="M345 764q-32 0 -55.5 23t-23.5 54q0 33 23.5 55.5t55.5 22.5t54.5 -22.5t22.5 -55.5q0 -31 -23 -54t-54 -23zM495 700h132v-700h-132v295h-294v-295h-132v700h132v-286h294v286z" />
    <glyph glyph-name="uni1E23" unicode="&#x1e23;" horiz-adv-x="588" 
d="M122 764q-32 0 -55.5 23t-23.5 54q0 33 23.5 55.5t55.5 22.5t54.5 -22.5t22.5 -55.5q0 -31 -23 -54t-54 -23zM338 510q90 0 142.5 -55t52.5 -152v-303h-128v277q0 59 -30 90.5t-77 31.5q-49 0 -82 -32.5t-33 -95.5v-271h-128v710h128v-269h8q53 69 147 69z" />
    <glyph glyph-name="uni1E26" unicode="&#x1e26;" horiz-adv-x="696" 
d="M227 754q-32 0 -55 22.5t-23 53.5q0 32 23 54.5t55 22.5q30 0 52.5 -22.5t22.5 -54.5q0 -31 -22.5 -53.5t-52.5 -22.5zM464 754q-30 0 -52.5 22.5t-22.5 53.5q0 32 22.5 54.5t52.5 22.5q32 0 54.5 -22.5t22.5 -54.5q0 -31 -22.5 -53.5t-54.5 -22.5zM495 700h132v-700
h-132v295h-294v-295h-132v700h132v-286h294v286z" />
    <glyph glyph-name="uni1E27" unicode="&#x1e27;" horiz-adv-x="588" 
d="M23 745q-29 0 -49.5 20.5t-20.5 49.5t20.5 48.5t49.5 19.5t49 -19.5t20 -48.5t-20.5 -49.5t-48.5 -20.5zM222 745q-28 0 -48.5 21t-20.5 49q0 29 20.5 48.5t48.5 19.5q29 0 49 -19.5t20 -48.5t-20 -49.5t-49 -20.5zM338 510q90 0 142.5 -55t52.5 -152v-303h-128v277
q0 59 -30 90.5t-77 31.5q-49 0 -82 -32.5t-33 -95.5v-271h-128v710h128v-269h8q53 69 147 69z" />
    <glyph glyph-name="uni1E28" unicode="&#x1e28;" horiz-adv-x="696" 
d="M495 700h132v-700h-132v295h-294v-295h-31l-28 -43q39 2 69 -20t30 -62q0 -39 -28 -62t-79 -23q-48 0 -81 24l22 51q31 -18 57 -18q19 0 30 8.5t11 22.5q0 31 -41 31q-13 0 -31 -6l-42 33l40 64h-30v700h132v-286h294v286z" />
    <glyph glyph-name="uni1E29" unicode="&#x1e29;" horiz-adv-x="588" 
d="M338 510q90 0 142.5 -55t52.5 -152v-303h-128v277q0 59 -30 90.5t-77 31.5q-49 0 -82 -32.5t-33 -95.5v-271h-26l-28 -43q39 2 69 -20t30 -62q0 -39 -28 -62t-79 -23q-48 0 -81 24l22 51q31 -18 57 -18q19 0 30 8.5t11 22.5q0 31 -41 31q-13 0 -31 -6l-42 33l40 64h-31
v710h128v-269h8q53 69 147 69z" />
    <glyph glyph-name="uni1E40" unicode="&#x1e40;" horiz-adv-x="894" 
d="M447 764q-32 0 -55.5 23t-23.5 54q0 33 23.5 55.5t55.5 22.5t54.5 -22.5t22.5 -55.5q0 -31 -23 -54t-54 -23zM825 700v-700h-129v465h-8l-174 -385h-133l-175 385h-8v-465h-129v700h162l213 -480h8l212 480h161z" />
    <glyph glyph-name="uni1E41" unicode="&#x1e41;" horiz-adv-x="847" 
d="M424 564q-32 0 -55.5 23t-23.5 54q0 33 23.5 55.5t55.5 22.5t54.5 -22.5t22.5 -55.5q0 -31 -23 -54t-54 -23zM55 0v500h117l11 -59h8q50 69 137 69q94 0 131 -79h8q55 79 156 79q79 0 124 -47t45 -136v-327h-128v303q0 46 -24 71t-62 25q-41 0 -66 -28t-25 -75v-296h-128
v299q0 48 -23.5 74t-61.5 26q-37 0 -64 -26.5t-27 -75.5v-297h-128z" />
    <glyph glyph-name="uni1E44" unicode="&#x1e44;" horiz-adv-x="725" 
d="M363 764q-32 0 -55.5 23t-23.5 54q0 33 23.5 55.5t55.5 22.5t54.5 -22.5t22.5 -55.5q0 -31 -23 -54t-54 -23zM527 700h129v-700h-135l-315 468h-8v-468h-129v700h135l315 -471h8v471z" />
    <glyph glyph-name="uni1E45" unicode="&#x1e45;" horiz-adv-x="588" 
d="M294 564q-32 0 -55.5 23t-23.5 54q0 33 23.5 55.5t55.5 22.5t54.5 -22.5t22.5 -55.5q0 -31 -23 -54t-54 -23zM55 0v500h117l11 -59h8q53 69 147 69q90 0 142.5 -55t52.5 -152v-303h-128v277q0 59 -30 90.5t-77 31.5q-49 0 -82 -32.5t-33 -95.5v-271h-128z" />
    <glyph glyph-name="uni1E56" unicode="&#x1e56;" horiz-adv-x="636" 
d="M319 764q-32 0 -55.5 23t-23.5 54q0 33 23.5 55.5t55.5 22.5t54.5 -22.5t22.5 -55.5q0 -31 -23 -54t-54 -23zM350 700q107 0 170.5 -61.5t63.5 -160.5q0 -102 -64.5 -162.5t-173.5 -60.5h-149v-255h-128v700h281zM333 370q56 0 86 29t30 79q0 49 -30 78t-83 29h-139v-215
h136z" />
    <glyph glyph-name="uni1E57" unicode="&#x1e57;" horiz-adv-x="605" 
d="M303 564q-32 0 -55.5 23t-23.5 54q0 33 23.5 55.5t55.5 22.5t54.5 -22.5t22.5 -55.5q0 -31 -23 -54t-54 -23zM328 510q102 0 168.5 -72t66.5 -189q0 -119 -67 -189t-168 -70q-94 0 -145 57v-247h-128v700h104l11 -59h9q52 69 149 69zM308 101q57 0 92 41t35 107
q0 67 -35 108.5t-92 41.5t-91 -41t-34 -109q0 -66 34 -107t91 -41z" />
    <glyph glyph-name="uni1E58" unicode="&#x1e58;" horiz-adv-x="629" 
d="M319 764q-32 0 -55.5 23t-23.5 54q0 33 23.5 55.5t55.5 22.5t54.5 -22.5t22.5 -55.5q0 -31 -23 -54t-54 -23zM598 0h-140l-146 273h-114v-273h-129v700h277q104 0 165 -56.5t61 -149.5q0 -70 -36 -121.5t-99 -75.5zM198 588v-203h133q50 0 79.5 28.5t29.5 73.5
q0 47 -29 74t-80 27h-133z" />
    <glyph glyph-name="uni1E59" unicode="&#x1e59;" horiz-adv-x="392" 
d="M215 564q-32 0 -55.5 23t-23.5 54q0 33 23.5 55.5t55.5 22.5t54.5 -22.5t22.5 -55.5q0 -31 -23 -54t-54 -23zM55 0v500h116l12 -71h8q26 42 58 61.5t91 19.5h36v-128q-24 4 -54 4q-75 0 -107 -44.5t-32 -108.5v-233h-128z" />
    <glyph glyph-name="uni1E60" unicode="&#x1e60;" horiz-adv-x="610" 
d="M311 764q-32 0 -55.5 23t-23.5 54q0 33 23.5 55.5t55.5 22.5t54.5 -22.5t22.5 -55.5q0 -31 -23 -54t-54 -23zM556 192q0 -98 -69.5 -150t-173.5 -52q-122 0 -189.5 60.5t-71.5 163.5h130q5 -53 38.5 -82.5t92.5 -29.5q48 0 79 21.5t31 64.5q0 25 -10.5 44t-33 32.5
t-40.5 20.5t-49 16l-40 12q-176 53 -176 195q0 92 67 147t170 55q106 0 171 -57.5t68 -148.5h-130q-5 43 -32 68.5t-76 25.5q-47 0 -76 -23t-29 -61q0 -21 9.5 -37.5t29.5 -28t36.5 -17.5t44.5 -15l35 -11q26 -8 46.5 -16t50 -25.5t49 -39t34 -56t14.5 -76.5z" />
    <glyph glyph-name="uni1E61" unicode="&#x1e61;" horiz-adv-x="499" 
d="M241 564q-32 0 -55.5 23t-23.5 54q0 33 23.5 55.5t55.5 22.5t54.5 -22.5t22.5 -55.5q0 -31 -23 -54t-54 -23zM263 -10q-103 0 -160 45.5t-62 124.5h123q10 -75 98 -75q32 0 52.5 12.5t20.5 38.5q0 27 -21.5 41.5t-66.5 26.5l-47 12q-30 7 -51.5 15.5t-44.5 24t-35 41
t-12 60.5q0 72 54 112.5t133 40.5q96 0 147 -43t57 -110h-123q-8 58 -80 58q-30 0 -48 -13.5t-18 -37.5t18.5 -34.5t63.5 -22.5l47 -12q72 -18 110.5 -54t38.5 -102q0 -74 -54.5 -111.5t-139.5 -37.5z" />
    <glyph glyph-name="uni1E7C" unicode="&#x1e7c;" horiz-adv-x="679" 
d="M532 878q-4 -59 -33.5 -98.5t-81.5 -39.5q-34 0 -59.5 15.5t-44 31t-35.5 15.5q-38 0 -44 -52h-85q4 60 33.5 99.5t82.5 39.5q37 0 62 -15.5t42 -31t35 -15.5q39 0 43 51h85zM517 700h141l-239 -700h-159l-239 700h142l174 -523h8z" />
    <glyph glyph-name="uni1E7D" unicode="&#x1e7d;" horiz-adv-x="569" 
d="M476 678q-4 -59 -33.5 -98.5t-81.5 -39.5q-34 0 -59.5 15.5t-44 31t-35.5 15.5q-38 0 -44 -52h-85q4 60 33.5 99.5t82.5 39.5q37 0 62 -15.5t42 -31t35 -15.5q39 0 43 51h85zM208 0l-191 500h132l133 -367h8l131 367h131l-191 -500h-153z" />
    <glyph glyph-name="Wgrave" unicode="&#x1e80;" horiz-adv-x="921" 
d="M434 900l76 -145h-97l-87 145h108zM773 700h127l-152 -700h-146l-138 481h-8l-136 -481h-146l-153 700h128l103 -506h8l131 456h140l129 -456h8z" />
    <glyph glyph-name="wgrave" unicode="&#x1e81;" horiz-adv-x="775" 
d="M361 700l76 -145h-97l-87 145h108zM150 0l-133 500h118l85 -354h8l94 322h133l93 -323h8l84 355h119l-135 -500h-140l-92 326h-8l-94 -326h-140z" />
    <glyph glyph-name="Wacute" unicode="&#x1e82;" horiz-adv-x="921" 
d="M488 900h108l-86 -145h-98zM773 700h127l-152 -700h-146l-138 481h-8l-136 -481h-146l-153 700h128l103 -506h8l131 456h140l129 -456h8z" />
    <glyph glyph-name="wacute" unicode="&#x1e83;" horiz-adv-x="775" 
d="M415 700h108l-86 -145h-98zM150 0l-133 500h118l85 -354h8l94 322h133l93 -323h8l84 355h119l-135 -500h-140l-92 326h-8l-94 -326h-140z" />
    <glyph glyph-name="Wdieresis" unicode="&#x1e84;" horiz-adv-x="921" 
d="M343 754q-32 0 -55 22.5t-23 53.5q0 32 23 54.5t55 22.5q30 0 52.5 -22.5t22.5 -54.5q0 -31 -22.5 -53.5t-52.5 -22.5zM580 754q-30 0 -52.5 22.5t-22.5 53.5q0 32 22.5 54.5t52.5 22.5q32 0 54.5 -22.5t22.5 -54.5q0 -31 -22.5 -53.5t-54.5 -22.5zM773 700h127
l-152 -700h-146l-138 481h-8l-136 -481h-146l-153 700h128l103 -506h8l131 456h140l129 -456h8z" />
    <glyph glyph-name="wdieresis" unicode="&#x1e85;" horiz-adv-x="775" 
d="M289 545q-29 0 -49.5 20.5t-20.5 49.5t20.5 48.5t49.5 19.5t49 -19.5t20 -48.5t-20.5 -49.5t-48.5 -20.5zM488 545q-28 0 -48.5 21t-20.5 49q0 29 20.5 48.5t48.5 19.5q29 0 49 -19.5t20 -48.5t-20 -49.5t-49 -20.5zM150 0l-133 500h118l85 -354h8l94 322h133l93 -323h8
l84 355h119l-135 -500h-140l-92 326h-8l-94 -326h-140z" />
    <glyph glyph-name="uni1E8C" unicode="&#x1e8c;" horiz-adv-x="667" 
d="M216 754q-32 0 -55 22.5t-23 53.5q0 32 23 54.5t55 22.5q30 0 52.5 -22.5t22.5 -54.5q0 -31 -22.5 -53.5t-52.5 -22.5zM453 754q-30 0 -52.5 22.5t-22.5 53.5q0 32 22.5 54.5t52.5 22.5q32 0 54.5 -22.5t22.5 -54.5q0 -31 -22.5 -53.5t-54.5 -22.5zM493 0l-152 252h-9
l-152 -252h-159l224 361l-213 339h157l143 -232h9l143 232h150l-213 -339l225 -361h-153z" />
    <glyph glyph-name="uni1E8D" unicode="&#x1e8d;" horiz-adv-x="542" 
d="M172 545q-28 0 -49 20.5t-21 49.5t20.5 48.5t49.5 19.5t49 -19.5t20 -48.5t-20.5 -49.5t-48.5 -20.5zM371 545q-28 0 -48.5 21t-20.5 49q0 29 20.5 48.5t48.5 19.5q29 0 49 -19.5t20 -48.5t-20 -49.5t-49 -20.5zM17 0l173 257l-164 243h145l96 -147h9l95 147h145
l-163 -243l173 -257h-147l-103 162h-8l-106 -162h-145z" />
    <glyph glyph-name="uni1E90" unicode="&#x1e90;" horiz-adv-x="626" 
d="M260 752h-107l108 148h107l108 -148h-107l-51 77h-7zM246 118h326v-118h-520v77l328 498v7h-311v118h493v-77l-316 -498v-7z" />
    <glyph glyph-name="uni1E97" unicode="&#x1e97;" horiz-adv-x="398" 
d="M94 681q-28 0 -49 20.5t-21 49.5t20.5 48.5t49.5 19.5t49 -19.5t20 -48.5t-20.5 -49.5t-48.5 -20.5zM293 681q-28 0 -48.5 21t-20.5 49q0 29 20.5 48.5t48.5 19.5q29 0 49 -19.5t20 -48.5t-20 -49.5t-49 -20.5zM279 -10q-156 0 -156 146v263h-107v101h34q46 0 65.5 17.5
t19.5 58.5v60h116v-136h131v-101h-131v-246q0 -17 3.5 -29t19.5 -22.5t44 -10.5q23 0 49 7v-97q-48 -11 -88 -11z" />
    <glyph glyph-name="uni1E98" unicode="&#x1e98;" horiz-adv-x="775" 
d="M387 534q-41 0 -71 29t-30 69t30 69.5t71 29.5q42 0 72.5 -29.5t30.5 -69.5t-30.5 -69t-72.5 -29zM389 601q12 0 21.5 9.5t9.5 21.5q0 13 -9.5 22t-21.5 9q-14 0 -23.5 -9t-9.5 -22q0 -12 9.5 -21.5t23.5 -9.5zM150 0l-133 500h118l85 -354h8l94 322h133l93 -323h8
l84 355h119l-135 -500h-140l-92 326h-8l-94 -326h-140z" />
    <glyph glyph-name="uni1E99" unicode="&#x1e99;" horiz-adv-x="569" 
d="M283 534q-41 0 -71 29t-30 69t30 69.5t71 29.5q42 0 72.5 -29.5t30.5 -69.5t-30.5 -69t-72.5 -29zM285 601q12 0 21.5 9.5t9.5 21.5q0 13 -9.5 22t-21.5 9q-14 0 -23.5 -9t-9.5 -22q0 -12 9.5 -21.5t23.5 -9.5zM150 -210q-39 0 -81 11v95q29 -6 52 -6q83 0 110 67l17 43
h-40l-191 500h132l136 -369h8l127 369h132l-202 -562q-50 -148 -200 -148z" />
    <glyph glyph-name="uni1E9E" unicode="&#x1e9e;" horiz-adv-x="1211" 
d="M556 192q0 -98 -69.5 -150t-173.5 -52q-122 0 -189.5 60.5t-71.5 163.5h130q5 -53 38.5 -82.5t92.5 -29.5q48 0 79 21.5t31 64.5q0 25 -10.5 44t-33 32.5t-40.5 20.5t-49 16l-40 12q-176 53 -176 195q0 92 67 147t170 55q106 0 171 -57.5t68 -148.5h-130q-5 43 -32 68.5
t-76 25.5q-47 0 -76 -23t-29 -61q0 -21 9.5 -37.5t29.5 -28t36.5 -17.5t44.5 -15l35 -11q26 -8 46.5 -16t50 -25.5t49 -39t34 -56t14.5 -76.5zM1157 192q0 -98 -69.5 -150t-173.5 -52q-122 0 -189.5 60.5t-71.5 163.5h130q5 -53 38.5 -82.5t92.5 -29.5q48 0 79 21.5t31 64.5
q0 25 -10.5 44t-33 32.5t-40.5 20.5t-49 16l-40 12q-176 53 -176 195q0 92 67 147t170 55q106 0 171 -57.5t68 -148.5h-130q-5 43 -32 68.5t-76 25.5q-47 0 -76 -23t-29 -61q0 -21 9.5 -37.5t29.5 -28t36.5 -17.5t44.5 -15l35 -11q26 -8 46.5 -16t50 -25.5t49 -39t34 -56
t14.5 -76.5z" />
    <glyph glyph-name="uni1EA0" unicode="&#x1ea0;" horiz-adv-x="700" 
d="M679 0h-141l-57 169h-262l-57 -169h-141l250 700h159zM255 278h190l-91 270h-8zM351 -64q32 0 54.5 -22.5t22.5 -54.5q0 -31 -23 -54.5t-54 -23.5t-55 23.5t-24 54.5q0 32 23.5 54.5t55.5 22.5z" />
    <glyph glyph-name="uni1EA1" unicode="&#x1ea1;" horiz-adv-x="547" 
d="M518 96h12v-96h-54q-79 0 -101 60q-55 -70 -165 -70q-80 0 -128.5 37.5t-48.5 109.5q0 68 45.5 106.5t119.5 45.5l156 16v21q0 40 -23 61t-61 21q-77 0 -90 -75h-128q8 80 66 128.5t152 48.5t153 -48.5t59 -144.5v-183q0 -38 36 -38zM354 193v24l-112 -12q-81 -9 -81 -63
t71 -54q48 0 85 25.5t37 79.5zM281 -64q32 0 54.5 -22.5t22.5 -54.5q0 -31 -23 -54.5t-54 -23.5t-55 23.5t-24 54.5q0 32 23.5 54.5t55.5 22.5z" />
    <glyph glyph-name="uni1EB8" unicode="&#x1eb8;" horiz-adv-x="586" 
d="M198 115h350v-115h-479v700h469v-115h-340v-174h293v-112h-293v-184zM310 -219q-31 0 -55 23.5t-24 54.5q0 32 23.5 54.5t55.5 22.5t54.5 -22.5t22.5 -54.5q0 -31 -23 -54.5t-54 -23.5z" />
    <glyph glyph-name="uni1EB9" unicode="&#x1eb9;" horiz-adv-x="575" 
d="M408 158h123q-15 -78 -76.5 -123t-156.5 -45q-113 0 -185 70.5t-72 184.5q0 120 72.5 192.5t179.5 72.5q100 0 168.5 -65t68.5 -192q0 -9 -2 -37h-360q4 -55 38.5 -89.5t91.5 -34.5q89 0 110 66zM293 408q-50 0 -83.5 -30t-40.5 -76h239q-2 47 -34 76.5t-81 29.5z
M294 -64q32 0 54.5 -22.5t22.5 -54.5q0 -31 -23 -54.5t-54 -23.5t-55 23.5t-24 54.5q0 32 23.5 54.5t55.5 22.5z" />
    <glyph glyph-name="uni1EBC" unicode="&#x1ebc;" horiz-adv-x="586" 
d="M496 878q-4 -59 -33.5 -98.5t-81.5 -39.5q-34 0 -59.5 15.5t-44 31t-35.5 15.5q-38 0 -44 -52h-85q4 60 33.5 99.5t82.5 39.5q37 0 62 -15.5t42 -31t35 -15.5q39 0 43 51h85zM198 115h350v-115h-479v700h469v-115h-340v-174h293v-112h-293v-184z" />
    <glyph glyph-name="uni1EBD" unicode="&#x1ebd;" horiz-adv-x="575" 
d="M230 602q-38 0 -44 -52h-85q4 60 33.5 99.5t82.5 39.5q37 0 62 -15.5t42 -31t35 -15.5q39 0 43 51h85q-4 -59 -33.5 -98.5t-81.5 -39.5q-34 0 -59.5 15.5t-44 31t-35.5 15.5zM408 158h123q-15 -78 -76.5 -123t-156.5 -45q-113 0 -185 70.5t-72 184.5q0 120 72.5 192.5
t179.5 72.5q100 0 168.5 -65t68.5 -192q0 -9 -2 -37h-360q4 -55 38.5 -89.5t91.5 -34.5q89 0 110 66zM293 408q-50 0 -83.5 -30t-40.5 -76h239q-2 47 -34 76.5t-81 29.5z" />
    <glyph glyph-name="uni1ECA" unicode="&#x1eca;" horiz-adv-x="270" 
d="M201 700v-700h-132v700h132zM136 -219q-31 0 -55 23.5t-24 54.5q0 32 23.5 54.5t55.5 22.5t54.5 -22.5t22.5 -54.5q0 -31 -23 -54.5t-54 -23.5z" />
    <glyph glyph-name="uni1ECB" unicode="&#x1ecb;" horiz-adv-x="238" 
d="M119 564q-32 0 -55.5 23t-23.5 54q0 33 23.5 55.5t55.5 22.5t54.5 -22.5t22.5 -55.5q0 -31 -23 -54t-54 -23zM55 0v500h128v-500h-128zM120 -219q-31 0 -55 23.5t-24 54.5q0 32 23.5 54.5t55.5 22.5t54.5 -22.5t22.5 -54.5q0 -31 -23 -54.5t-54 -23.5z" />
    <glyph glyph-name="uni1ECC" unicode="&#x1ecc;" horiz-adv-x="820" 
d="M410 -10q-154 0 -256 102.5t-102 257.5q0 154 101.5 257t256.5 103q154 0 256 -103t102 -257t-101.5 -257t-256.5 -103zM411 112q96 0 159 68t63 170t-63.5 170t-159.5 68t-159.5 -68t-63.5 -170t63.5 -170t160.5 -68zM411 -219q-31 0 -55 23.5t-24 54.5q0 32 23.5 54.5
t55.5 22.5t54.5 -22.5t22.5 -54.5q0 -31 -23 -54.5t-54 -23.5z" />
    <glyph glyph-name="uni1ECD" unicode="&#x1ecd;" horiz-adv-x="611" 
d="M305 -10q-113 0 -188.5 73.5t-75.5 187.5t75 186.5t189 72.5t189 -72.5t75 -186.5q0 -115 -75 -188t-189 -73zM305 101q61 0 99 43t38 107q0 63 -38 105.5t-99 42.5t-98.5 -42.5t-37.5 -105.5q0 -64 38 -107t98 -43zM306 -219q-31 0 -55 23.5t-24 54.5q0 32 23.5 54.5
t55.5 22.5t54.5 -22.5t22.5 -54.5q0 -31 -23 -54.5t-54 -23.5z" />
    <glyph glyph-name="uni1EE4" unicode="&#x1ee4;" horiz-adv-x="713" 
d="M644 700v-429q0 -137 -79 -209t-207 -72q-129 0 -209 72t-80 209v429h132v-425q0 -77 43.5 -120t113.5 -43t112 42.5t42 120.5v425h132zM357 -219q-31 0 -55 23.5t-24 54.5q0 32 23.5 54.5t55.5 22.5t54.5 -22.5t22.5 -54.5q0 -31 -23 -54.5t-54 -23.5z" />
    <glyph glyph-name="uni1EE5" unicode="&#x1ee5;" horiz-adv-x="588" 
d="M533 500v-500h-117l-11 59h-8q-53 -69 -147 -69q-90 0 -142.5 55t-52.5 152v303h128v-277q0 -59 30 -90.5t78 -31.5q49 0 81.5 32.5t32.5 95.5v271h128zM295 -219q-31 0 -55 23.5t-24 54.5q0 32 23.5 54.5t55.5 22.5t54.5 -22.5t22.5 -54.5q0 -31 -23 -54.5t-54 -23.5z
" />
    <glyph glyph-name="Ygrave" unicode="&#x1ef2;" horiz-adv-x="678" 
d="M312 900l76 -145h-97l-87 145h108zM500 700h157l-252 -391v-309h-132v309l-252 391h156l158 -247h8z" />
    <glyph glyph-name="ygrave" unicode="&#x1ef3;" horiz-adv-x="569" 
d="M258 700l76 -145h-97l-87 145h108zM150 -210q-39 0 -81 11v95q29 -6 52 -6q83 0 110 67l17 43h-40l-191 500h132l136 -369h8l127 369h132l-202 -562q-50 -148 -200 -148z" />
    <glyph glyph-name="uni1EF8" unicode="&#x1ef8;" horiz-adv-x="678" 
d="M531 878q-4 -59 -33.5 -98.5t-81.5 -39.5q-34 0 -59.5 15.5t-44 31t-35.5 15.5q-38 0 -44 -52h-85q4 60 33.5 99.5t82.5 39.5q37 0 62 -15.5t42 -31t35 -15.5q39 0 43 51h85zM500 700h157l-252 -391v-309h-132v309l-252 391h156l158 -247h8z" />
    <glyph glyph-name="uni1EF9" unicode="&#x1ef9;" horiz-adv-x="569" 
d="M476 678q-4 -59 -33.5 -98.5t-81.5 -39.5q-34 0 -59.5 15.5t-44 31t-35.5 15.5q-38 0 -44 -52h-85q4 60 33.5 99.5t82.5 39.5q37 0 62 -15.5t42 -31t35 -15.5q39 0 43 51h85zM150 -210q-39 0 -81 11v95q29 -6 52 -6q83 0 110 67l17 43h-40l-191 500h132l136 -369h8
l127 369h132l-202 -562q-50 -148 -200 -148z" />
    <glyph glyph-name="uni200B" unicode="&#x200b;" horiz-adv-x="0" 
 />
    <glyph glyph-name="endash" unicode="&#x2013;" horiz-adv-x="632" 
d="M31 361h570v-100h-570v100z" />
    <glyph glyph-name="emdash" unicode="&#x2014;" horiz-adv-x="822" 
d="M31 358h760v-94h-760v94z" />
    <glyph glyph-name="quoteleft" unicode="&#x2018;" horiz-adv-x="232" 
d="M116 424q-35 0 -55.5 28t-20.5 72q0 65 33.5 113t80.5 77l31 -37q-61 -52 -64 -105q25 3 46.5 -16.5t21.5 -55.5q0 -34 -20.5 -55t-52.5 -21z" />
    <glyph glyph-name="quoteright" unicode="&#x2019;" horiz-adv-x="232" 
d="M115 708q35 0 56 -27.5t21 -71.5q0 -118 -114 -190l-31 37q61 54 64 105q-25 -3 -46.5 16.5t-21.5 55.5q0 34 20.5 54.5t51.5 20.5z" />
    <glyph glyph-name="quotesinglbase" unicode="&#x201a;" horiz-adv-x="252" 
d="M126 142q35 0 55.5 -27.5t20.5 -71.5q0 -65 -33.5 -113t-80.5 -77l-31 37q61 52 64 105q-25 -3 -46.5 16.5t-21.5 55.5q0 34 20.5 54.5t52.5 20.5z" />
    <glyph glyph-name="quotedblleft" unicode="&#x201c;" horiz-adv-x="415" 
d="M116 424q-35 0 -55.5 28t-20.5 72q0 65 33.5 113t80.5 77l31 -37q-61 -52 -64 -105q25 3 46.5 -16.5t21.5 -55.5q0 -34 -20.5 -55t-52.5 -21zM300 424q-35 0 -56 28t-21 72q0 118 114 190l31 -37q-61 -52 -64 -105q25 3 46.5 -16.5t21.5 -55.5q0 -34 -20.5 -55t-51.5 -21
z" />
    <glyph glyph-name="quotedblright" unicode="&#x201d;" horiz-adv-x="416" 
d="M115 708q35 0 56 -27.5t21 -71.5q0 -118 -114 -190l-31 37q61 54 64 105q-25 -3 -46.5 16.5t-21.5 55.5q0 34 20.5 54.5t51.5 20.5zM299 708q35 0 55.5 -27.5t20.5 -71.5q0 -65 -33.5 -113t-80.5 -77l-30 37q61 54 64 105q-25 -3 -46.5 16.5t-21.5 55.5q0 35 20.5 55
t51.5 20z" />
    <glyph glyph-name="quotedblbase" unicode="&#x201e;" horiz-adv-x="435" 
d="M126 142q35 0 55.5 -27.5t20.5 -71.5q0 -65 -33.5 -113t-80.5 -77l-31 37q61 52 64 105q-25 -3 -46.5 16.5t-21.5 55.5q0 34 20.5 54.5t52.5 20.5zM309 142q35 0 55.5 -27.5t20.5 -71.5q0 -65 -33.5 -113t-80.5 -77l-31 37q61 52 64 105q-25 -3 -46 16.5t-21 55.5
q0 35 20.5 55t51.5 20z" />
    <glyph glyph-name="dagger" unicode="&#x2020;" horiz-adv-x="580" 
d="M511 534v-108h-164v-426h-114v426h-164v108h164v166h114v-166h164z" />
    <glyph glyph-name="daggerdbl" unicode="&#x2021;" horiz-adv-x="580" 
d="M511 426h-164v-152h164v-108h-164v-166h-114v166h-164v108h164v152h-164v108h164v166h114v-166h164v-108z" />
    <glyph glyph-name="bullet" unicode="&#x2022;" horiz-adv-x="215" 
d="M108 235q-32 0 -54.5 22.5t-22.5 53.5t22.5 53.5t54.5 22.5t54 -22.5t22 -53.5t-22 -53.5t-54 -22.5z" />
    <glyph glyph-name="ellipsis" unicode="&#x2026;" horiz-adv-x="731" 
d="M128 -5q-31 0 -53.5 22.5t-22.5 53.5q0 32 22.5 54.5t53.5 22.5q32 0 54 -22.5t22 -54.5q0 -31 -22 -53.5t-54 -22.5zM366 -5q-32 0 -54.5 22.5t-22.5 53.5q0 32 22.5 54.5t54.5 22.5t54 -22.5t22 -54.5q0 -31 -22 -53.5t-54 -22.5zM603 -5q-32 0 -54.5 22.5t-22.5 53.5
q0 32 22.5 54.5t54.5 22.5t54 -22.5t22 -54.5q0 -31 -22.5 -53.5t-53.5 -22.5z" />
    <glyph glyph-name="perthousand" unicode="&#x2030;" horiz-adv-x="994" 
d="M359 497q0 -63 -45.5 -108.5t-107.5 -45.5q-63 0 -108 45.5t-45 108.5t45 108t108 45q62 0 107.5 -45t45.5 -108zM542 640h137l-432 -640h-137zM149 497q0 -25 16 -41.5t40 -16.5q25 0 41.5 16.5t16.5 41.5t-16.5 41t-41.5 16q-24 0 -40 -16t-16 -41zM799 297
q62 0 108 -45.5t46 -108.5t-45.5 -108t-108.5 -45q-60 0 -105 42q-45 -42 -105 -42q-62 0 -107.5 45t-45.5 108t45.5 108.5t107.5 45.5q60 0 105 -43q45 43 105 43zM589 86q25 0 41 16t16 41t-16 41.5t-41 16.5q-24 0 -40 -16.5t-16 -41.5t16 -41t40 -16zM799 86q25 0 41 16
t16 41t-16 41.5t-41 16.5q-24 0 -40 -16.5t-16 -41.5t16 -41t40 -16z" />
    <glyph glyph-name="guilsinglleft" unicode="&#x2039;" horiz-adv-x="337" 
d="M155 96l-134 202l134 202h141l-136 -202l136 -202h-141z" />
    <glyph glyph-name="guilsinglright" unicode="&#x203a;" horiz-adv-x="337" 
d="M182 96h-141l136 202l-136 202h141l134 -202z" />
    <glyph glyph-name="uni2042" unicode="&#x2042;" horiz-adv-x="819" 
d="M282 412l-39 67l101 51l-101 52l39 67l95 -62l-6 113h77l-5 -113l94 62l39 -67l-100 -52l100 -51l-39 -67l-94 61l5 -112h-77l6 112zM336 288l38 -67l-100 -51l100 -52l-38 -67l-95 62l5 -113h-77l6 113l-95 -62l-39 67l101 52l-101 51l39 67l95 -61l-6 112h77l-5 -112z
M778 221l-101 -51l101 -52l-39 -67l-94 61l5 -112h-77l6 113l-96 -62l-38 67l101 52l-101 51l38 67l96 -62l-6 113h77l-5 -112l94 61z" />
    <glyph glyph-name="fraction" unicode="&#x2044;" horiz-adv-x="325" 
d="M463 700l-502 -700h-99l502 700h99z" />
    <glyph glyph-name="uni2051" unicode="&#x2051;" horiz-adv-x="415" 
d="M374 602l-100 -52l100 -51l-38 -67l-95 61l5 -112h-77l6 112l-95 -61l-39 67l101 51l-101 52l39 67l95 -62l-6 113h77l-5 -113l95 62zM336 268l38 -67l-100 -51l100 -52l-38 -67l-95 62l5 -113h-77l6 113l-95 -62l-39 67l101 52l-101 51l39 67l95 -61l-6 112h77l-5 -112z
" />
    <glyph glyph-name="uni2070" unicode="&#x2070;" horiz-adv-x="375" 
d="M189 335q-73 0 -116 51t-43 147q0 95 43 146t116 51q72 0 114.5 -51t42.5 -147t-42.5 -146.5t-114.5 -50.5zM190 405q68 0 68 126q0 128 -69 128q-32 0 -51.5 -30.5t-19.5 -96.5q0 -127 72 -127z" />
    <glyph glyph-name="uni2074" unicode="&#x2074;" horiz-adv-x="388" 
d="M370 486v-63h-71v-83h-80v83h-189v41l185 261h84v-239h71zM126 486h93v130h-5z" />
    <glyph glyph-name="uni2075" unicode="&#x2075;" horiz-adv-x="355" 
d="M196 592q59 0 94.5 -35.5t35.5 -90.5q0 -60 -42.5 -95.5t-108.5 -35.5q-64 0 -103 33t-42 90h82q2 -26 19.5 -41t44.5 -15q29 0 47 17t18 45q0 29 -17 47.5t-47 18.5q-42 0 -61 -31l-77 17l20 209h249v-69h-176l-9 -85q25 21 73 21z" />
    <glyph glyph-name="uni2076" unicode="&#x2076;" horiz-adv-x="355" 
d="M200 588q53 0 89 -35t36 -90q0 -59 -41.5 -93.5t-105.5 -34.5q-67 0 -107.5 37t-40.5 98q0 65 54 136l88 119h101l-114 -144q17 7 41 7zM179 402q29 0 46.5 17.5t17.5 45.5q0 27 -17.5 44.5t-46.5 17.5q-30 0 -47.5 -17.5t-17.5 -44.5q0 -28 17.5 -45.5t47.5 -17.5z" />
    <glyph glyph-name="uni2077" unicode="&#x2077;" horiz-adv-x="337" 
d="M30 725h289v-50q-130 -143 -144 -335h-87q16 188 115 311v4h-173v70z" />
    <glyph glyph-name="uni2078" unicode="&#x2078;" horiz-adv-x="361" 
d="M263 542q27 -10 47.5 -35t20.5 -62q0 -49 -40 -79.5t-110 -30.5t-110.5 30t-40.5 80q0 38 20.5 62.5t48.5 34.5v4q-55 25 -55 79q0 47 38.5 76t99.5 29q60 0 97.5 -28t37.5 -75q0 -55 -54 -81v-4zM182 671q-25 0 -41 -13t-16 -35t16 -35.5t41 -13.5q24 0 39 13.5t15 35.5
t-15 35t-39 13zM181 397q28 0 46 15t18 40t-17.5 41t-46.5 16t-47 -16t-18 -40q0 -26 18.5 -41t46.5 -15z" />
    <glyph glyph-name="uni2079" unicode="&#x2079;" horiz-adv-x="355" 
d="M155 477q-53 0 -89 35t-36 90q0 59 41 93.5t106 34.5q67 0 107.5 -37t40.5 -98q0 -62 -54 -136l-88 -119h-101l114 144q-17 -7 -41 -7zM176 663q-29 0 -46.5 -17.5t-17.5 -45.5q0 -27 17.5 -44.5t46.5 -17.5q30 0 47.5 17.5t17.5 44.5q0 28 -17.5 45.5t-47.5 17.5z" />
    <glyph glyph-name="uni2080" unicode="&#x2080;" horiz-adv-x="375" 
d="M189 -105q-73 0 -116 51t-43 147q0 95 43 146t116 51q72 0 114.5 -51t42.5 -147t-42.5 -146.5t-114.5 -50.5zM190 -35q68 0 68 126q0 128 -69 128q-32 0 -51.5 -30.5t-19.5 -96.5q0 -127 72 -127z" />
    <glyph glyph-name="uni2081" unicode="&#x2081;" horiz-adv-x="248" 
d="M119 -100v245h-89v68h40q58 0 58 54v18h75v-385h-84z" />
    <glyph glyph-name="uni2082" unicode="&#x2082;" horiz-adv-x="344" 
d="M177 27q-40 -24 -47 -57h184v-70h-284v27q0 97 84 149l65 39q15 9 23 15.5t16.5 19t8.5 25.5q0 20 -14 32.5t-36 12.5q-26 0 -41.5 -17t-16.5 -40h-88q1 49 40.5 88t110.5 39q60 0 96.5 -30t36.5 -82q0 -31 -14.5 -55.5t-25.5 -33t-30 -19.5z" />
    <glyph glyph-name="uni2083" unicode="&#x2083;" horiz-adv-x="364" 
d="M270 99q65 -24 65 -88q0 -50 -43.5 -83t-111.5 -33q-69 0 -107.5 33.5t-42.5 90.5h84q11 -54 66 -54q30 0 48.5 14.5t18.5 35.5q0 24 -18 37.5t-49 13.5h-39v62h37q27 0 43.5 12.5t16.5 35.5q0 21 -16 34t-42 13q-23 0 -40.5 -12t-21.5 -34h-83q2 50 45.5 81.5
t102.5 31.5q58 0 99 -29t41 -79q0 -53 -53 -79v-4z" />
    <glyph glyph-name="uni2084" unicode="&#x2084;" horiz-adv-x="388" 
d="M370 46v-63h-71v-83h-80v83h-189v41l185 261h84v-239h71zM126 46h93v130h-5z" />
    <glyph glyph-name="uni2085" unicode="&#x2085;" horiz-adv-x="355" 
d="M196 152q59 0 94.5 -35.5t35.5 -90.5q0 -60 -42.5 -95.5t-108.5 -35.5q-64 0 -103 33t-42 90h82q2 -26 19.5 -41t44.5 -15q29 0 47 17t18 45q0 29 -17 47.5t-47 18.5q-42 0 -61 -31l-77 17l20 209h249v-69h-176l-9 -85q25 21 73 21z" />
    <glyph glyph-name="uni2086" unicode="&#x2086;" horiz-adv-x="355" 
d="M200 148q53 0 89 -35t36 -90q0 -59 -41.5 -93.5t-105.5 -34.5q-67 0 -107.5 37t-40.5 98q0 65 54 136l88 119h101l-114 -144q17 7 41 7zM179 -38q29 0 46.5 17.5t17.5 45.5q0 27 -17.5 44.5t-46.5 17.5q-30 0 -47.5 -17.5t-17.5 -44.5q0 -28 17.5 -45.5t47.5 -17.5z" />
    <glyph glyph-name="uni2087" unicode="&#x2087;" horiz-adv-x="337" 
d="M30 285h289v-50q-130 -143 -144 -335h-87q16 188 115 311v4h-173v70z" />
    <glyph glyph-name="uni2088" unicode="&#x2088;" horiz-adv-x="361" 
d="M263 102q27 -10 47.5 -35t20.5 -62q0 -49 -40 -79.5t-110 -30.5t-110.5 30t-40.5 80q0 38 20.5 62.5t48.5 34.5v4q-55 25 -55 79q0 47 38.5 76t99.5 29q60 0 97.5 -28t37.5 -75q0 -55 -54 -81v-4zM182 231q-25 0 -41 -13t-16 -35t16 -35.5t41 -13.5q24 0 39 13.5t15 35.5
t-15 35t-39 13zM181 -43q28 0 46 15t18 40t-17.5 41t-46.5 16t-47 -16t-18 -40q0 -26 18.5 -41t46.5 -15z" />
    <glyph glyph-name="uni2089" unicode="&#x2089;" horiz-adv-x="355" 
d="M155 37q-53 0 -89 35t-36 90q0 59 41 93.5t106 34.5q67 0 107.5 -37t40.5 -98q0 -62 -54 -136l-88 -119h-101l114 144q-17 -7 -41 -7zM176 223q-29 0 -46.5 -17.5t-17.5 -45.5q0 -27 17.5 -44.5t46.5 -17.5q30 0 47.5 17.5t17.5 44.5q0 28 -17.5 45.5t-47.5 17.5z" />
    <glyph glyph-name="Euro" unicode="&#x20ac;" horiz-adv-x="647" 
d="M597 136l29 -98q-74 -48 -186 -48q-113 0 -191.5 52.5t-109.5 149.5h-84v90h67q-1 11 -1 34q0 15 2 43h-68v91h87q33 94 110 147t188 53q107 0 181 -45l-34 -96q-72 35 -140 35q-130 0 -179 -94h270l-21 -91h-273q-2 -24 -2 -38q0 -15 2 -39h238l-18 -90h-195
q47 -94 178 -94q94 0 150 38z" />
    <glyph glyph-name="uni2113" unicode="&#x2113;" horiz-adv-x="471" 
d="M222 189q0 -101 111 -101q44 0 81 14v-95q-36 -17 -104 -17q-89 0 -140.5 49t-51.5 146v32q-46 -10 -87 -14v95q51 9 87 19v162q0 81 43 126t112 45q71 0 114 -40t43 -110q0 -88 -55 -151.5t-153 -101.5v-58zM222 469v-113q107 54 107 136q0 30 -14.5 47t-38.5 17
q-54 0 -54 -87z" />
    <glyph glyph-name="trademark" unicode="&#x2122;" horiz-adv-x="811" 
d="M25 624v76h287v-76h-101v-274h-86v274h-100zM676 700h100v-350h-83v199h-4l-78 -159h-81l-78 159h-4v-199h-83v350h100l105 -215h4z" />
    <glyph glyph-name="uni2153" unicode="&#x2153;" horiz-adv-x="905" 
d="M158 315v245h-89v68h41q57 0 57 54v18h76v-385h-85zM717 700l-502 -700h-99l502 700h99zM771 199q65 -24 65 -88q0 -50 -43.5 -83t-111.5 -33q-69 0 -107.5 33.5t-42.5 90.5h84q11 -54 66 -54q30 0 49 14.5t19 35.5q0 24 -18.5 37.5t-48.5 13.5h-39v62h36q27 0 43.5 12.5
t16.5 35.5q0 21 -16 34t-42 13q-23 0 -40.5 -12t-21.5 -34h-82q1 50 44.5 81.5t103.5 31.5q57 0 98 -29t41 -79q0 -54 -53 -79v-4z" />
    <glyph glyph-name="uni2154" unicode="&#x2154;" horiz-adv-x="994" 
d="M217 442q-41 -24 -47 -57h184v-70h-285v27q0 97 85 149l64 39q15 9 23 15.5t16.5 19t8.5 25.5q0 20 -14 32.5t-36 12.5q-26 0 -41.5 -17t-16.5 -40h-88q2 49 41.5 88t110.5 39q60 0 96 -30t36 -82q0 -31 -14.5 -55.5t-25.5 -33t-30 -19.5zM807 700l-502 -700h-100
l502 700h100zM860 199q65 -24 65 -88q0 -50 -43.5 -83t-111.5 -33q-69 0 -107.5 33.5t-42.5 90.5h84q11 -54 66 -54q30 0 49 14.5t19 35.5q0 24 -18.5 37.5t-48.5 13.5h-40v62h37q27 0 43.5 12.5t16.5 35.5q0 21 -16 34t-42 13q-23 0 -40.5 -12t-21.5 -34h-82
q1 50 44.5 81.5t103.5 31.5q57 0 98 -29t41 -79q0 -54 -53 -79v-4z" />
    <glyph glyph-name="arrowup" unicode="&#x2191;" horiz-adv-x="722" 
d="M680 435l-75 -76l-187 186v-549h-113v550l-188 -187l-76 76l314 301h12z" />
    <glyph glyph-name="arrowdown" unicode="&#x2193;" horiz-adv-x="722" 
d="M605 337l75 -76l-313 -301h-12l-314 301l76 76l187 -186v549h113v-550z" />
    <glyph glyph-name="arrowboth" unicode="&#x2194;" horiz-adv-x="962" 
d="M640 669l301 -313v-12l-301 -313l-76 75l186 187h-538l186 -187l-75 -75l-302 313v12l302 313l75 -75l-187 -188h540l-187 188z" />
    <glyph glyph-name="arrowupdn" unicode="&#x2195;" horiz-adv-x="722" 
d="M418 73l187 186l75 -75l-313 -302h-12l-314 302l76 75l188 -187v537l-188 -187l-76 75l314 302h12l313 -302l-75 -75l-187 186v-535z" />
    <glyph glyph-name="uni2196" unicode="&#x2196;" horiz-adv-x="633" 
d="M612 120l-81 -81l-388 391v-275h-101v445l11 10h445v-101h-275z" />
    <glyph glyph-name="uni2197" unicode="&#x2197;" horiz-adv-x="633" 
d="M580 610l11 -10v-445h-101v275l-388 -391l-81 81l389 389h-275v101h445z" />
    <glyph glyph-name="uni2198" unicode="&#x2198;" horiz-adv-x="633" 
d="M490 547h102v-445l-10 -12h-445v101h274l-390 388l81 81l388 -388v275z" />
    <glyph glyph-name="uni2199" unicode="&#x2199;" horiz-adv-x="633" 
d="M612 579l-390 -388h274v-101h-445l-10 12v445h102v-276l388 389z" />
    <glyph glyph-name="partialdiff" unicode="&#x2202;" horiz-adv-x="624" 
d="M572 330q0 -177 -73.5 -258.5t-196.5 -81.5q-106 0 -178 67.5t-72 172.5q0 99 64.5 164.5t166.5 65.5q60 0 106 -23t68 -56h8q-12 108 -50 163.5t-112 55.5q-47 0 -77.5 -25.5t-39.5 -59.5h-114q7 78 70.5 136.5t159.5 58.5q132 0 201 -97t69 -283zM303 96q59 0 96.5 38
t37.5 95q0 56 -38.5 90.5t-97.5 34.5t-95.5 -35.5t-36.5 -92.5q0 -56 38 -93t96 -37z" />
    <glyph glyph-name="emptyset" unicode="&#x2205;" horiz-adv-x="790" 
d="M733 581l-69 -67q63 -85 63 -194q0 -137 -97 -233.5t-234 -96.5q-113 0 -203 69l-72 -69l-64 69l70 68q-63 87 -63 193q0 137 97 233.5t235 96.5q115 0 202 -68l71 68zM173 320q0 -64 32 -118l316 305q-56 39 -126 39q-92 0 -157 -66t-65 -160zM618 320q0 65 -32 119
l-317 -306q56 -39 126 -39q91 0 157 66.5t66 159.5z" />
    <glyph glyph-name="product" unicode="&#x220f;" horiz-adv-x="677" 
d="M608 700v-700h-133v585h-273v-585h-133v700h539z" />
    <glyph glyph-name="summation" unicode="&#x2211;" horiz-adv-x="561" 
d="M57 623v77h457v-100h-278v-7l184 -205v-76l-188 -205v-6h292v-101h-472v77l245 270v6z" />
    <glyph glyph-name="minus" unicode="&#x2212;" 
d="M74 333h432v-106h-432v106z" />
    <glyph glyph-name="radical" unicode="&#x221a;" horiz-adv-x="706" 
d="M675 700v-108h-126l-203 -592h-159l-170 500h141l106 -323h8l172 523h231z" />
    <glyph glyph-name="infinity" unicode="&#x221e;" horiz-adv-x="801" 
d="M584 516q72 0 124 -50t52 -130t-52 -130t-124 -50q-111 0 -180 99h-7q-68 -99 -180 -99q-72 0 -124 50t-52 130t52 130t124 50q112 0 180 -99h7q69 99 180 99zM233 256q70 0 113 80q-43 80 -113 80q-34 0 -58 -22.5t-24 -57.5t24 -57.5t58 -22.5zM568 256q34 0 58 22.5
t24 57.5t-24 57.5t-58 22.5q-70 0 -113 -80q43 -80 113 -80z" />
    <glyph glyph-name="integral" unicode="&#x222b;" horiz-adv-x="557" 
d="M422 710q68 0 114 -39l-34 -86q-31 24 -63 24q-26 0 -45 -16t-23 -48l-67 -608q-8 -71 -54 -109t-115 -38q-70 0 -114 39l35 86q27 -24 63 -24q26 0 45 16t23 48l67 608q8 72 54 109.5t114 37.5z" />
    <glyph glyph-name="approxequal" unicode="&#x2248;" 
d="M561 480q-6 -81 -46.5 -135.5t-113.5 -54.5q-35 0 -63 10t-46 24t-33 28.5t-32.5 24.5t-36.5 10q-59 0 -67 -84h-102q7 83 47 137t114 54q42 0 75.5 -15t50 -33.5t39 -33.5t45.5 -15q59 0 67 83h102zM561 256q-6 -82 -46.5 -136.5t-113.5 -54.5q-35 0 -63 10t-46 24.5
t-33 28.5t-32.5 24t-36.5 10q-59 0 -67 -83h-102q7 83 47 136.5t114 53.5q42 0 75.5 -15t50 -33.5t39 -33.5t45.5 -15q59 0 67 84h102z" />
    <glyph glyph-name="notequal" unicode="&#x2260;" 
d="M525 339h-152l-72 -118h224v-108h-290l-65 -106l-69 42l39 64h-85v108h151l72 118h-223v109h289l65 106l69 -43l-38 -63h85v-109z" />
    <glyph glyph-name="lessequal" unicode="&#x2264;" 
d="M521 590v-113l-341 -105v-7l341 -105v-113l-461 146v151zM521 0h-461v104h461v-104z" />
    <glyph glyph-name="greaterequal" unicode="&#x2265;" 
d="M60 590l461 -146v-151l-461 -146v113l341 105v7l-341 105v113zM60 0v104h461v-104h-461z" />
    <glyph glyph-name="lozenge" unicode="&#x25ca;" horiz-adv-x="614" 
d="M307 570l286 -290l-286 -290l-286 290zM307 415l-129 -135l129 -135l130 135z" />
    <glyph glyph-name="smileface" unicode="&#x263a;" horiz-adv-x="824" 
d="M772 350q0 -150 -105 -255t-255 -105t-255 106t-105 254q0 149 105.5 254.5t254.5 105.5q151 0 255.5 -105.5t104.5 -254.5zM224 533v-45h44v-128h46v128h44v45h-134zM466 533v-45h45v-128h45v128h45v45h-135zM412 81q109 0 187 76t81 183l-46 8q0 -92 -65 -156.5
t-157 -64.5t-156.5 64.5t-64.5 156.5l-46 -8q3 -107 81 -183t186 -76z" />
    <glyph glyph-name="uni2731" unicode="&#x2731;" 
d="M507 350l-129 -70l129 -70l-47 -83l-125 77l4 -144h-96l3 144l-124 -77l-48 83l129 70l-129 70l48 83l124 -77l-3 144h96l-4 -144l125 77z" />
    <glyph glyph-name="uni2780" unicode="&#x2780;" horiz-adv-x="834" 
d="M417 -10q-152 0 -258.5 105t-106.5 255t106.5 255t258.5 105q151 0 258 -105t107 -255t-107 -255t-258 -105zM417 67q118 0 201.5 81.5t83.5 201.5t-83.5 201.5t-201.5 81.5t-201.5 -81.5t-83.5 -201.5t83.5 -201.5t201.5 -81.5zM384 157v245h-89v68h40q58 0 58 54v18h75
v-385h-84z" />
    <glyph glyph-name="uni2781" unicode="&#x2781;" horiz-adv-x="834" 
d="M417 -10q-152 0 -258.5 105t-106.5 255t106.5 255t258.5 105q151 0 258 -105t107 -255t-107 -255t-258 -105zM417 67q118 0 201.5 81.5t83.5 201.5t-83.5 201.5t-201.5 81.5t-201.5 -81.5t-83.5 -201.5t83.5 -201.5t201.5 -81.5zM421 292q-40 -24 -47 -57h184v-70h-284
v27q0 97 84 149l65 39q15 9 23 15.5t16.5 19t8.5 25.5q0 20 -14 32.5t-36 12.5q-26 0 -41.5 -17t-16.5 -40h-88q1 49 40.5 88t110.5 39q60 0 96.5 -30t36.5 -82q0 -31 -14.5 -55.5t-25.5 -33t-30 -19.5z" />
    <glyph glyph-name="uni2782" unicode="&#x2782;" horiz-adv-x="834" 
d="M417 -10q-152 0 -258.5 105t-106.5 255t106.5 255t258.5 105q151 0 258 -105t107 -255t-107 -255t-258 -105zM417 67q118 0 201.5 81.5t83.5 201.5t-83.5 201.5t-201.5 81.5t-201.5 -81.5t-83.5 -201.5t83.5 -201.5t201.5 -81.5zM505 356q65 -24 65 -88q0 -50 -43.5 -83
t-111.5 -33q-69 0 -107.5 33.5t-42.5 90.5h84q11 -54 66 -54q30 0 48.5 14.5t18.5 35.5q0 24 -18 37.5t-49 13.5h-39v62h37q27 0 43.5 12.5t16.5 35.5q0 21 -16 34t-42 13q-23 0 -40.5 -12t-21.5 -34h-83q2 50 45.5 81.5t102.5 31.5q58 0 99 -29t41 -79q0 -53 -53 -79v-4z
" />
    <glyph glyph-name="uni2783" unicode="&#x2783;" horiz-adv-x="834" 
d="M417 -10q-152 0 -258.5 105t-106.5 255t106.5 255t258.5 105q151 0 258 -105t107 -255t-107 -255t-258 -105zM417 67q118 0 201.5 81.5t83.5 201.5t-83.5 201.5t-201.5 81.5t-201.5 -81.5t-83.5 -201.5t83.5 -201.5t201.5 -81.5zM575 303v-63h-71v-83h-80v83h-189v41
l185 261h84v-239h71zM331 303h93v130h-5z" />
    <glyph glyph-name="uni2784" unicode="&#x2784;" horiz-adv-x="834" 
d="M417 -10q-152 0 -258.5 105t-106.5 255t106.5 255t258.5 105q151 0 258 -105t107 -255t-107 -255t-258 -105zM417 67q118 0 201.5 81.5t83.5 201.5t-83.5 201.5t-201.5 81.5t-201.5 -81.5t-83.5 -201.5t83.5 -201.5t201.5 -81.5zM430 401q59 0 94.5 -35.5t35.5 -90.5
q0 -60 -42.5 -95.5t-108.5 -35.5q-64 0 -103 33t-42 90h82q2 -26 19.5 -41t44.5 -15q29 0 47 17t18 45q0 29 -17 47.5t-47 18.5q-42 0 -61 -31l-77 17l20 209h249v-69h-176l-9 -85q25 21 73 21z" />
    <glyph glyph-name="uni2785" unicode="&#x2785;" horiz-adv-x="834" 
d="M417 -10q-152 0 -258.5 105t-106.5 255t106.5 255t258.5 105q151 0 258 -105t107 -255t-107 -255t-258 -105zM417 67q118 0 201.5 81.5t83.5 201.5t-83.5 201.5t-201.5 81.5t-201.5 -81.5t-83.5 -201.5t83.5 -201.5t201.5 -81.5zM435 405q53 0 89 -35t36 -90
q0 -59 -41.5 -93.5t-105.5 -34.5q-67 0 -107.5 37t-40.5 98q0 65 54 136l88 119h101l-114 -144q17 7 41 7zM414 219q29 0 46.5 17.5t17.5 45.5q0 27 -17.5 44.5t-46.5 17.5q-30 0 -47.5 -17.5t-17.5 -44.5q0 -28 17.5 -45.5t47.5 -17.5z" />
    <glyph glyph-name="uni2786" unicode="&#x2786;" horiz-adv-x="834" 
d="M417 -10q-152 0 -258.5 105t-106.5 255t106.5 255t258.5 105q151 0 258 -105t107 -255t-107 -255t-258 -105zM417 67q118 0 201.5 81.5t83.5 201.5t-83.5 201.5t-201.5 81.5t-201.5 -81.5t-83.5 -201.5t83.5 -201.5t201.5 -81.5zM273 534h289v-50q-130 -143 -144 -335
h-87q16 188 115 311v4h-173v70z" />
    <glyph glyph-name="uni2787" unicode="&#x2787;" horiz-adv-x="834" 
d="M417 -10q-152 0 -258.5 105t-106.5 255t106.5 255t258.5 105q151 0 258 -105t107 -255t-107 -255t-258 -105zM417 67q118 0 201.5 81.5t83.5 201.5t-83.5 201.5t-201.5 81.5t-201.5 -81.5t-83.5 -201.5t83.5 -201.5t201.5 -81.5zM500 359q27 -10 47.5 -35t20.5 -62
q0 -49 -40 -79.5t-110 -30.5t-110.5 30t-40.5 80q0 38 20.5 62.5t48.5 34.5v4q-55 25 -55 79q0 47 38.5 76t99.5 29q60 0 97.5 -28t37.5 -75q0 -55 -54 -81v-4zM419 488q-25 0 -41 -13t-16 -35t16 -35.5t41 -13.5q24 0 39 13.5t15 35.5t-15 35t-39 13zM418 214q28 0 46 15
t18 40t-17.5 41t-46.5 16q-30 0 -47.5 -16t-17.5 -40q0 -26 18.5 -41t46.5 -15z" />
    <glyph glyph-name="uni2788" unicode="&#x2788;" horiz-adv-x="834" 
d="M417 -10q-152 0 -258.5 105t-106.5 255t106.5 255t258.5 105q151 0 258 -105t107 -255t-107 -255t-258 -105zM417 67q118 0 201.5 81.5t83.5 201.5t-83.5 201.5t-201.5 81.5t-201.5 -81.5t-83.5 -201.5t83.5 -201.5t201.5 -81.5zM399 295q-53 0 -89 35t-36 90
q0 59 41 93.5t106 34.5q67 0 107.5 -37t40.5 -98q0 -62 -54 -136l-88 -119h-101l114 144q-17 -7 -41 -7zM420 481q-29 0 -46.5 -17.5t-17.5 -45.5q0 -27 17.5 -44.5t46.5 -17.5q30 0 47.5 17.5t17.5 44.5q0 28 -17.5 45.5t-47.5 17.5z" />
    <glyph glyph-name="uni2789" unicode="&#x2789;" horiz-adv-x="834" 
d="M417 -10q-152 0 -258.5 105t-106.5 255t106.5 255t258.5 105q151 0 258 -105t107 -255t-107 -255t-258 -105zM417 67q118 0 201.5 81.5t83.5 201.5t-83.5 201.5t-201.5 81.5t-201.5 -81.5t-83.5 -201.5t83.5 -201.5t201.5 -81.5zM514 172q-57 0 -93 46.5t-36 132.5
q0 84 35.5 130.5t91.5 46.5q57 0 91.5 -46.5t34.5 -131.5q0 -86 -34.5 -132t-89.5 -46zM269 177v215h-69v66h31q46 0 46 51v15h68v-347h-76zM513 241q47 0 47 109q0 110 -47 110q-48 0 -48 -110q0 -109 48 -109z" />
    <glyph glyph-name="uni278A" unicode="&#x278a;" horiz-adv-x="834" 
d="M417 -10q151 0 258 105t107 255t-107 255t-258 105q-152 0 -258.5 -105t-106.5 -255t106.5 -255t258.5 -105zM384 157v245h-89v68h40q58 0 58 54v18h75v-385h-84z" />
    <glyph glyph-name="uni278B" unicode="&#x278b;" horiz-adv-x="834" 
d="M417 -10q151 0 258 105t107 255t-107 255t-258 105q-152 0 -258.5 -105t-106.5 -255t106.5 -255t258.5 -105zM421 292q-40 -24 -47 -57h184v-70h-284v27q0 97 84 149l65 39q15 9 23 15.5t16.5 19t8.5 25.5q0 20 -14 32.5t-36 12.5q-26 0 -41.5 -17t-16.5 -40h-88
q1 49 40.5 88t110.5 39q60 0 96.5 -30t36.5 -82q0 -31 -14.5 -55.5t-25.5 -33t-30 -19.5z" />
    <glyph glyph-name="uni278C" unicode="&#x278c;" horiz-adv-x="834" 
d="M417 -10q151 0 258 105t107 255t-107 255t-258 105q-152 0 -258.5 -105t-106.5 -255t106.5 -255t258.5 -105zM505 356q65 -24 65 -88q0 -50 -43.5 -83t-111.5 -33q-69 0 -107.5 33.5t-42.5 90.5h84q11 -54 66 -54q30 0 48.5 14.5t18.5 35.5q0 24 -18 37.5t-49 13.5h-39
v62h37q27 0 43.5 12.5t16.5 35.5q0 21 -16 34t-42 13q-23 0 -40.5 -12t-21.5 -34h-83q2 50 45.5 81.5t102.5 31.5q58 0 99 -29t41 -79q0 -53 -53 -79v-4z" />
    <glyph glyph-name="uni278D" unicode="&#x278d;" horiz-adv-x="834" 
d="M417 -10q151 0 258 105t107 255t-107 255t-258 105q-152 0 -258.5 -105t-106.5 -255t106.5 -255t258.5 -105zM575 303v-63h-71v-83h-80v83h-189v41l185 261h84v-239h71zM331 303h93v130h-5z" />
    <glyph glyph-name="uni278E" unicode="&#x278e;" horiz-adv-x="834" 
d="M417 -10q151 0 258 105t107 255t-107 255t-258 105q-152 0 -258.5 -105t-106.5 -255t106.5 -255t258.5 -105zM430 401q59 0 94.5 -35.5t35.5 -90.5q0 -60 -42.5 -95.5t-108.5 -35.5q-64 0 -103 33t-42 90h82q2 -26 19.5 -41t44.5 -15q29 0 47 17t18 45q0 29 -17 47.5
t-47 18.5q-42 0 -61 -31l-77 17l20 209h249v-69h-176l-9 -85q25 21 73 21z" />
    <glyph glyph-name="uni278F" unicode="&#x278f;" horiz-adv-x="834" 
d="M417 -10q151 0 258 105t107 255t-107 255t-258 105q-152 0 -258.5 -105t-106.5 -255t106.5 -255t258.5 -105zM435 405q53 0 89 -35t36 -90q0 -59 -41.5 -93.5t-105.5 -34.5q-67 0 -107.5 37t-40.5 98q0 65 54 136l88 119h101l-114 -144q17 7 41 7zM414 219
q29 0 46.5 17.5t17.5 45.5q0 27 -17.5 44.5t-46.5 17.5q-30 0 -47.5 -17.5t-17.5 -44.5q0 -28 17.5 -45.5t47.5 -17.5z" />
    <glyph glyph-name="uni2790" unicode="&#x2790;" horiz-adv-x="834" 
d="M417 -10q151 0 258 105t107 255t-107 255t-258 105q-152 0 -258.5 -105t-106.5 -255t106.5 -255t258.5 -105zM273 534h289v-50q-130 -143 -144 -335h-87q16 188 115 311v4h-173v70z" />
    <glyph glyph-name="uni2791" unicode="&#x2791;" horiz-adv-x="834" 
d="M417 -10q151 0 258 105t107 255t-107 255t-258 105q-152 0 -258.5 -105t-106.5 -255t106.5 -255t258.5 -105zM500 359q27 -10 47.5 -35t20.5 -62q0 -49 -40 -79.5t-110 -30.5t-110.5 30t-40.5 80q0 38 20.5 62.5t48.5 34.5v4q-55 25 -55 79q0 47 38.5 76t99.5 29
q60 0 97.5 -28t37.5 -75q0 -55 -54 -81v-4zM419 488q-25 0 -41 -13t-16 -35t16 -35.5t41 -13.5q24 0 39 13.5t15 35.5t-15 35t-39 13zM418 214q28 0 46 15t18 40t-17.5 41t-46.5 16q-30 0 -47.5 -16t-17.5 -40q0 -26 18.5 -41t46.5 -15z" />
    <glyph glyph-name="uni2792" unicode="&#x2792;" horiz-adv-x="834" 
d="M417 -10q151 0 258 105t107 255t-107 255t-258 105q-152 0 -258.5 -105t-106.5 -255t106.5 -255t258.5 -105zM399 295q-53 0 -89 35t-36 90q0 59 41 93.5t106 34.5q67 0 107.5 -37t40.5 -98q0 -62 -54 -136l-88 -119h-101l114 144q-17 -7 -41 -7zM420 481
q-29 0 -46.5 -17.5t-17.5 -45.5q0 -27 17.5 -44.5t46.5 -17.5q30 0 47.5 17.5t17.5 44.5q0 28 -17.5 45.5t-47.5 17.5z" />
    <glyph glyph-name="uni2793" unicode="&#x2793;" horiz-adv-x="834" 
d="M417 -10q151 0 258 105t107 255t-107 255t-258 105q-152 0 -258.5 -105t-106.5 -255t106.5 -255t258.5 -105zM514 172q-57 0 -93 46.5t-36 132.5q0 84 35.5 130.5t91.5 46.5q57 0 91.5 -46.5t34.5 -131.5q0 -86 -34.5 -132t-89.5 -46zM269 177v215h-69v66h31q46 0 46 51
v15h68v-347h-76zM513 241q47 0 47 109q0 110 -47 110q-48 0 -48 -110q0 -109 48 -109z" />
    <glyph glyph-name="Aacute.ss01" horiz-adv-x="700" 
d="M444 900l-68 -145h-51l64 145h55zM538 0l-57 169h-262l-57 -169h-141l250 700h159l249 -700h-141zM255 278h190l-91 270h-8z" />
    <glyph glyph-name="Abreve.ss01" horiz-adv-x="700" 
d="M351 777q-59 0 -92 38.5t-33 84.5h50q0 -36 20.5 -58t54.5 -22t53.5 22t19.5 58h50q0 -46 -32 -84.5t-91 -38.5zM538 0l-57 169h-262l-57 -169h-141l250 700h159l249 -700h-141zM255 278h190l-91 270h-8z" />
    <glyph glyph-name="uni01CD.ss01" horiz-adv-x="700" 
d="M378 768h-55l-111 132h61l76 -91h3l75 91h61zM538 0l-57 169h-262l-57 -169h-141l250 700h159l249 -700h-141zM255 278h190l-91 270h-8z" />
    <glyph glyph-name="Acircumflex.ss01" horiz-adv-x="700" 
d="M348 859l-75 -91h-60l109 132h55l111 -132h-61l-76 91h-3zM538 0l-57 169h-262l-57 -169h-141l250 700h159l249 -700h-141zM255 278h190l-91 270h-8z" />
    <glyph glyph-name="Agrave.ss01" horiz-adv-x="700" 
d="M376 755h-51l-68 145h55zM538 0l-57 169h-262l-57 -169h-141l250 700h159l249 -700h-141zM255 278h190l-91 270h-8z" />
    <glyph glyph-name="Amacron.ss01" horiz-adv-x="700" 
d="M512 835v-43h-323v43h323zM538 0l-57 169h-262l-57 -169h-141l250 700h159l249 -700h-141zM255 278h190l-91 270h-8z" />
    <glyph glyph-name="Aogonek.ss01" horiz-adv-x="700" 
d="M665 -126q23 0 46 6v-40q-17 -7 -47 -7q-46 0 -76.5 20.5t-30.5 63.5q0 53 65 83h-84l-57 169h-262l-57 -169h-141l250 700h159l249 -700q-75 -26 -75 -80q0 -46 61 -46zM255 278h190l-91 270h-8z" />
    <glyph glyph-name="Aring.ss01" horiz-adv-x="700" 
d="M351 750q-38 0 -66 25.5t-28 64.5t28 64.5t66 25.5t65 -25.5t27 -64.5t-27 -64.5t-65 -25.5zM351 891q-21 0 -36 -14.5t-15 -35.5q0 -23 15 -37.5t36 -14.5t35.5 14.5t14.5 37.5q0 21 -14.5 35.5t-35.5 14.5zM538 0l-57 169h-262l-57 -169h-141l250 700h159l249 -700
h-141zM255 278h190l-91 270h-8z" />
    <glyph glyph-name="Atilde.ss01" horiz-adv-x="700" 
d="M287 821q-45 0 -51 -58h-46q5 44 28 73.5t64 29.5q32 0 55 -16t41 -32.5t38 -16.5q44 0 52 57h44q-3 -43 -27 -73t-64 -30q-32 0 -55 16.5t-41.5 33t-37.5 16.5zM538 0l-57 169h-262l-57 -169h-141l250 700h159l249 -700h-141zM255 278h190l-91 270h-8z" />
    <glyph glyph-name="AEacute.ss01" horiz-adv-x="1046" 
d="M831 900l-68 -145h-51l64 145h55zM674 115h335v-115h-463v168h-259l-110 -168h-156l455 700h523v-115h-325v-174h278v-112h-278v-184zM360 278h186v270h-9z" />
    <glyph glyph-name="uni01E2.ss01" horiz-adv-x="1046" 
d="M900 835v-43h-323v43h323zM674 115h335v-115h-463v168h-259l-110 -168h-156l455 700h523v-115h-325v-174h278v-112h-278v-184zM360 278h186v270h-9z" />
    <glyph glyph-name="Cacute.ss01" horiz-adv-x="757" 
d="M436 900h55l-68 -145h-51zM715 225q-17 -110 -105.5 -172.5t-213.5 -62.5q-158 0 -251 100t-93 257q0 160 95 261.5t249 101.5q122 0 206 -63t102 -176h-142q-17 55 -60 86t-106 31q-93 0 -151 -69t-58 -172q0 -104 59.5 -169.5t149.5 -65.5q67 0 113.5 30.5t63.5 82.5
h142z" />
    <glyph glyph-name="Ccaron.ss01" horiz-adv-x="757" 
d="M475 900h61l-110 -132h-55l-111 132h61l76 -91h3zM715 225q-17 -110 -105.5 -172.5t-213.5 -62.5q-158 0 -251 100t-93 257q0 160 95 261.5t249 101.5q122 0 206 -63t102 -176h-142q-17 55 -60 86t-106 31q-93 0 -151 -69t-58 -172q0 -104 59.5 -169.5t149.5 -65.5
q67 0 113.5 30.5t63.5 82.5h142z" />
    <glyph glyph-name="Ccedilla.ss01" horiz-adv-x="757" 
d="M715 225q-16 -105 -99 -167.5t-201 -67.5l-26 -34q38 2 69.5 -20.5t31.5 -63.5q0 -37 -26.5 -59.5t-72.5 -22.5q-40 0 -68 20l15 33q28 -14 51 -14q25 0 40.5 13t15.5 33q0 47 -60 47q-17 0 -37 -9l-23 21l42 57q-146 10 -230.5 108t-84.5 248q0 160 95 261.5t249 101.5
q122 0 206 -63t102 -176h-142q-17 55 -60 86t-106 31q-93 0 -151 -69t-58 -172q0 -104 59.5 -169.5t149.5 -65.5q67 0 113.5 30.5t63.5 82.5h142z" />
    <glyph glyph-name="Ccircumflex.ss01" horiz-adv-x="757" 
d="M321 768h-60l109 132h55l111 -132h-61l-76 91h-3zM715 225q-17 -110 -105.5 -172.5t-213.5 -62.5q-158 0 -251 100t-93 257q0 160 95 261.5t249 101.5q122 0 206 -63t102 -176h-142q-17 55 -60 86t-106 31q-93 0 -151 -69t-58 -172q0 -104 59.5 -169.5t149.5 -65.5
q67 0 113.5 30.5t63.5 82.5h142z" />
    <glyph glyph-name="Eth.ss01" horiz-adv-x="707" 
d="M314 700q160 0 250.5 -93.5t90.5 -256.5q0 -162 -90.5 -256t-250.5 -94h-245v328h-111v44h111v328h245zM309 118q106 0 158.5 64.5t52.5 171.5q0 106 -52.5 167t-158.5 61h-108v-210h177v-44h-177v-210h108z" />
    <glyph glyph-name="Dcaron.ss01" horiz-adv-x="707" 
d="M422 900h61l-110 -132h-55l-111 132h61l76 -91h3zM314 700q160 0 250.5 -93.5t90.5 -256.5q0 -162 -90.5 -256t-250.5 -94h-245v700h245zM309 118q106 0 158.5 64.5t52.5 171.5q0 106 -52.5 167t-158.5 61h-108v-464h108z" />
    <glyph glyph-name="Dcroat.ss01" horiz-adv-x="707" 
d="M314 700q160 0 250.5 -93.5t90.5 -256.5q0 -162 -90.5 -256t-250.5 -94h-245v328h-111v44h111v328h245zM309 118q106 0 158.5 64.5t52.5 171.5q0 106 -52.5 167t-158.5 61h-108v-210h177v-44h-177v-210h108z" />
    <glyph glyph-name="Eacute.ss01" horiz-adv-x="586" 
d="M343 900h55l-68 -145h-51zM198 115h350v-115h-479v700h469v-115h-340v-174h293v-112h-293v-184z" />
    <glyph glyph-name="Ebreve.ss01" horiz-adv-x="586" 
d="M427 900q0 -46 -32 -84.5t-91 -38.5t-92 38.5t-33 84.5h50q0 -36 20.5 -58t54.5 -22t53.5 22t19.5 58h50zM198 115h350v-115h-479v700h469v-115h-340v-174h293v-112h-293v-184z" />
    <glyph glyph-name="Ecaron.ss01" horiz-adv-x="586" 
d="M381 900h61l-110 -132h-55l-111 132h61l76 -91h3zM198 115h350v-115h-479v700h469v-115h-340v-174h293v-112h-293v-184z" />
    <glyph glyph-name="uni0228.ss01" horiz-adv-x="586" 
d="M548 0h-214l-33 -44q38 2 69.5 -20.5t31.5 -63.5q0 -37 -26.5 -59.5t-72.5 -22.5q-40 0 -68 20l15 33q28 -14 51 -14q25 0 40.5 13t15.5 33q0 47 -60 47q-17 0 -37 -9l-23 21l49 66h-217v700h469v-115h-340v-174h293v-112h-293v-184h350v-115z" />
    <glyph glyph-name="Ecircumflex.ss01" horiz-adv-x="586" 
d="M227 768h-60l109 132h55l111 -132h-61l-76 91h-3zM198 115h350v-115h-479v700h469v-115h-340v-174h293v-112h-293v-184z" />
    <glyph glyph-name="Egrave.ss01" horiz-adv-x="586" 
d="M266 900l64 -145h-51l-68 145h55zM198 115h350v-115h-479v700h469v-115h-340v-174h293v-112h-293v-184z" />
    <glyph glyph-name="Emacron.ss01" horiz-adv-x="586" 
d="M143 835h323v-43h-323v43zM198 115h350v-115h-479v700h469v-115h-340v-174h293v-112h-293v-184z" />
    <glyph glyph-name="Eogonek.ss01" horiz-adv-x="586" 
d="M534 -126q24 0 46 6v-40q-18 -7 -47 -7q-46 0 -76.5 20.5t-30.5 63.5q0 53 65 83h-422v700h469v-115h-340v-174h293v-112h-293v-184h350v-115q-75 -26 -75 -80q0 -46 61 -46z" />
    <glyph glyph-name="uni1EBC.ss01" horiz-adv-x="586" 
d="M466 858q-3 -43 -27 -73t-64 -30q-32 0 -55 16.5t-41.5 33t-37.5 16.5q-45 0 -51 -58h-46q5 44 28 73.5t64 29.5q32 0 55 -16t41 -32.5t38 -16.5q44 0 52 57h44zM198 115h350v-115h-479v700h469v-115h-340v-174h293v-112h-293v-184z" />
    <glyph glyph-name="uni01F4.ss01" horiz-adv-x="787" 
d="M431 900h55l-68 -145h-51zM401 380h317v-380h-105l-13 67h-8q-77 -77 -209 -77q-150 0 -240.5 97.5t-90.5 252.5q0 161 99 265.5t256 104.5q130 0 210 -63t95 -161h-144q-16 48 -58 75t-103 27q-100 0 -160 -69.5t-60 -178.5q0 -103 57 -167.5t156 -64.5q82 0 134.5 36
t52.5 103v30h-186v103z" />
    <glyph glyph-name="Gbreve.ss01" horiz-adv-x="787" 
d="M516 900q0 -46 -32 -84.5t-91 -38.5t-92 38.5t-33 84.5h50q0 -36 20.5 -58t54.5 -22t53.5 22t19.5 58h50zM401 380h317v-380h-105l-13 67h-8q-77 -77 -209 -77q-150 0 -240.5 97.5t-90.5 252.5q0 161 99 265.5t256 104.5q130 0 210 -63t95 -161h-144q-16 48 -58 75
t-103 27q-100 0 -160 -69.5t-60 -178.5q0 -103 57 -167.5t156 -64.5q82 0 134.5 36t52.5 103v30h-186v103z" />
    <glyph glyph-name="Gcaron.ss01" horiz-adv-x="787" 
d="M470 900h61l-110 -132h-55l-111 132h61l76 -91h3zM401 380h317v-380h-105l-13 67h-8q-77 -77 -209 -77q-150 0 -240.5 97.5t-90.5 252.5q0 161 99 265.5t256 104.5q130 0 210 -63t95 -161h-144q-16 48 -58 75t-103 27q-100 0 -160 -69.5t-60 -178.5q0 -103 57 -167.5
t156 -64.5q82 0 134.5 36t52.5 103v30h-186v103z" />
    <glyph glyph-name="Gcircumflex.ss01" horiz-adv-x="787" 
d="M316 768h-60l109 132h55l111 -132h-61l-76 91h-3zM401 380h317v-380h-105l-13 67h-8q-77 -77 -209 -77q-150 0 -240.5 97.5t-90.5 252.5q0 161 99 265.5t256 104.5q130 0 210 -63t95 -161h-144q-16 48 -58 75t-103 27q-100 0 -160 -69.5t-60 -178.5q0 -103 57 -167.5
t156 -64.5q82 0 134.5 36t52.5 103v30h-186v103z" />
    <glyph glyph-name="uni0122.ss01" horiz-adv-x="787" 
d="M401 380h317v-380h-105l-13 67h-8q-77 -77 -209 -77q-150 0 -240.5 97.5t-90.5 252.5q0 161 99 265.5t256 104.5q130 0 210 -63t95 -161h-144q-16 48 -58 75t-103 27q-100 0 -160 -69.5t-60 -178.5q0 -103 57 -167.5t156 -64.5q82 0 134.5 36t52.5 103v30h-186v103z
M390 -51q39 0 61 -28.5t22 -72.5q0 -108 -130 -179l-24 33q3 2 12.5 8.5t13 9t11.5 8.5t11.5 9t10 8.5t10 9.5t8.5 9.5t8 10.5t6 11.5t5 12.5q-12 -4 -30 -4q-34 0 -54 22.5t-20 52.5q0 37 22 58t57 21z" />
    <glyph glyph-name="uni1E20.ss01" horiz-adv-x="787" 
d="M232 835h323v-43h-323v43zM401 380h317v-380h-105l-13 67h-8q-77 -77 -209 -77q-150 0 -240.5 97.5t-90.5 252.5q0 161 99 265.5t256 104.5q130 0 210 -63t95 -161h-144q-16 48 -58 75t-103 27q-100 0 -160 -69.5t-60 -178.5q0 -103 57 -167.5t156 -64.5q82 0 134.5 36
t52.5 103v30h-186v103z" />
    <glyph glyph-name="Hbar.ss01" horiz-adv-x="696" 
d="M495 700h132v-700h-132v295h-294v-295h-132v700h132v-121h294v121zM201 414h294v120h-294v-120z" />
    <glyph glyph-name="uni021E.ss01" horiz-adv-x="696" 
d="M422 900h61l-110 -132h-55l-111 132h61l76 -91h3zM495 700h132v-700h-132v295h-294v-295h-132v700h132v-286h294v286z" />
    <glyph glyph-name="uni1E28.ss01" horiz-adv-x="696" 
d="M495 700h132v-700h-132v295h-294v-295h-42l-33 -44q38 2 69.5 -20.5t31.5 -63.5q0 -37 -26.5 -59.5t-72.5 -22.5q-40 0 -68 20l15 33q28 -14 51 -14q25 0 40.5 13t15.5 33q0 47 -60 47q-17 0 -37 -9l-23 21l49 66h-42v700h132v-286h294v286z" />
    <glyph glyph-name="Hcircumflex.ss01" horiz-adv-x="696" 
d="M268 768h-60l109 132h55l111 -132h-61l-76 91h-3zM495 700h132v-700h-132v295h-294v-295h-132v700h132v-286h294v286z" />
    <glyph glyph-name="Iacute.ss01" horiz-adv-x="270" 
d="M174 900h55l-68 -145h-51zM201 700v-700h-132v700h132z" />
    <glyph glyph-name="Ibreve.ss01" horiz-adv-x="270" 
d="M259 900q0 -46 -32 -84.5t-91 -38.5t-92 38.5t-33 84.5h50q0 -36 20.5 -58t54.5 -22t53.5 22t19.5 58h50zM201 700v-700h-132v700h132z" />
    <glyph glyph-name="uni01CF.ss01" horiz-adv-x="270" 
d="M212 900h61l-110 -132h-55l-111 132h61l76 -91h3zM201 700v-700h-132v700h132z" />
    <glyph glyph-name="Icircumflex.ss01" horiz-adv-x="270" 
d="M58 768h-60l109 132h55l111 -132h-61l-76 91h-3zM201 700v-700h-132v700h132z" />
    <glyph glyph-name="Igrave.ss01" horiz-adv-x="270" 
d="M97 900l64 -145h-51l-68 145h55zM201 700v-700h-132v700h132z" />
    <glyph glyph-name="Imacron.ss01" horiz-adv-x="270" 
d="M-26 835h323v-43h-323v43zM201 700v-700h-132v700h132z" />
    <glyph glyph-name="Iogonek.ss01" horiz-adv-x="270" 
d="M187 -126q23 0 46 6v-40q-18 -7 -47 -7q-46 0 -76.5 20.5t-30.5 63.5q0 53 65 83h-75v700h132v-700q-75 -26 -75 -80q0 -46 61 -46z" />
    <glyph glyph-name="Itilde.ss01" horiz-adv-x="270" 
d="M297 858q-3 -43 -27 -73t-64 -30q-32 0 -55 16.5t-41.5 33t-37.5 16.5q-45 0 -51 -58h-46q5 44 28 73.5t64 29.5q32 0 55 -16t41 -32.5t38 -16.5q44 0 52 57h44zM201 700v-700h-132v700h132z" />
    <glyph glyph-name="Jcircumflex.ss01" horiz-adv-x="549" 
d="M337 768h-60l109 132h55l111 -132h-61l-76 91h-3zM170 211q2 -44 24.5 -71.5t64.5 -27.5q43 0 66.5 27t23.5 80v481h131v-485q0 -109 -59.5 -167t-160.5 -58q-107 0 -167 59.5t-62 161.5h139z" />
    <glyph glyph-name="uni0136.ss01" horiz-adv-x="648" 
d="M477 0l-225 300h-51v-300h-132v700h132v-281h51l198 281h148l-237 -332v-7l266 -361h-150zM337 -51q39 0 61 -28.5t22 -72.5q0 -108 -130 -179l-24 33q3 2 12.5 8.5t13 9t11.5 8.5t11.5 9t10 8.5t10 9.5t8.5 9.5t8 10.5t6 11.5t5 12.5q-12 -4 -30 -4q-34 0 -54 22.5
t-20 52.5q0 37 22 58t57 21z" />
    <glyph glyph-name="Lacute.ss01" horiz-adv-x="579" 
d="M166 900h55l-68 -145h-51zM198 118h349v-118h-478v700h129v-582z" />
    <glyph glyph-name="Lcaron.ss01" horiz-adv-x="579" 
d="M356 708q35 0 55.5 -27.5t20.5 -71.5q0 -111 -118 -185l-23 28q74 60 88 107q-11 -3 -27 -3q-32 1 -50.5 23t-18.5 54q0 34 20.5 54.5t52.5 20.5zM198 118h349v-118h-478v700h129v-582z" />
    <glyph glyph-name="uni013B.ss01" horiz-adv-x="579" 
d="M198 118h349v-118h-478v700h129v-582zM300 -51q39 0 61 -28.5t22 -72.5q0 -108 -130 -179l-24 33q3 2 12.5 8.5t13 9t11.5 8.5t11.5 9t10 8.5t10 9.5t8.5 9.5t8 10.5t6 11.5t5 12.5q-12 -4 -30 -4q-34 0 -54 22.5t-20 52.5q0 37 22 58t57 21z" />
    <glyph glyph-name="Lslash.ss01" horiz-adv-x="579" 
d="M198 118h349v-118h-478v283l-109 -52v52l109 52v365h129v-303l179 86v-52l-179 -86v-227z" />
    <glyph glyph-name="Nacute.ss01" horiz-adv-x="725" 
d="M401 900h55l-68 -145h-51zM527 700h129v-700h-135l-315 468h-8v-468h-129v700h135l315 -471h8v471z" />
    <glyph glyph-name="Ncaron.ss01" horiz-adv-x="725" 
d="M439 900h61l-110 -132h-55l-111 132h61l76 -91h3zM527 700h129v-700h-135l-315 468h-8v-468h-129v700h135l315 -471h8v471z" />
    <glyph glyph-name="uni0145.ss01" horiz-adv-x="725" 
d="M527 700h129v-700h-135l-315 468h-8v-468h-129v700h135l315 -471h8v471zM360 -51q39 0 61 -28.5t22 -72.5q0 -108 -130 -179l-24 33q3 2 12.5 8.5t13 9t11.5 8.5t11.5 9t10 8.5t10 9.5t8.5 9.5t8 10.5t6 11.5t5 12.5q-12 -4 -30 -4q-34 0 -54 22.5t-20 52.5q0 37 22 58
t57 21z" />
    <glyph glyph-name="uni01F8.ss01" horiz-adv-x="725" 
d="M324 900l64 -145h-51l-68 145h55zM527 700h129v-700h-135l-315 468h-8v-468h-129v700h135l315 -471h8v471z" />
    <glyph glyph-name="Ntilde.ss01" horiz-adv-x="725" 
d="M524 858q-3 -43 -27 -73t-64 -30q-32 0 -55 16.5t-41.5 33t-37.5 16.5q-45 0 -51 -58h-46q5 44 28 73.5t64 29.5q32 0 55 -16t41 -32.5t38 -16.5q44 0 52 57h44zM527 700h129v-700h-135l-315 468h-8v-468h-129v700h135l315 -471h8v471z" />
    <glyph glyph-name="Oacute.ss01" horiz-adv-x="820" 
d="M449 900h55l-68 -145h-51zM410 -10q-154 0 -256 102.5t-102 257.5q0 154 101.5 257t256.5 103q154 0 256 -103t102 -257t-101.5 -257t-256.5 -103zM411 112q96 0 159 68t63 170t-63.5 170t-159.5 68t-159.5 -68t-63.5 -170t63.5 -170t160.5 -68z" />
    <glyph glyph-name="Obreve.ss01" horiz-adv-x="820" 
d="M533 900q0 -46 -32 -84.5t-91 -38.5t-92 38.5t-33 84.5h50q0 -36 20.5 -58t54.5 -22t53.5 22t19.5 58h50zM410 -10q-154 0 -256 102.5t-102 257.5q0 154 101.5 257t256.5 103q154 0 256 -103t102 -257t-101.5 -257t-256.5 -103zM411 112q96 0 159 68t63 170t-63.5 170
t-159.5 68t-159.5 -68t-63.5 -170t63.5 -170t160.5 -68z" />
    <glyph glyph-name="uni01D1.ss01" horiz-adv-x="820" 
d="M487 900h61l-110 -132h-55l-111 132h61l76 -91h3zM410 -10q-154 0 -256 102.5t-102 257.5q0 154 101.5 257t256.5 103q154 0 256 -103t102 -257t-101.5 -257t-256.5 -103zM411 112q96 0 159 68t63 170t-63.5 170t-159.5 68t-159.5 -68t-63.5 -170t63.5 -170t160.5 -68z
" />
    <glyph glyph-name="Ocircumflex.ss01" horiz-adv-x="820" 
d="M333 768h-60l109 132h55l111 -132h-61l-76 91h-3zM410 -10q-154 0 -256 102.5t-102 257.5q0 154 101.5 257t256.5 103q154 0 256 -103t102 -257t-101.5 -257t-256.5 -103zM411 112q96 0 159 68t63 170t-63.5 170t-159.5 68t-159.5 -68t-63.5 -170t63.5 -170t160.5 -68z
" />
    <glyph glyph-name="Ograve.ss01" horiz-adv-x="820" 
d="M372 900l64 -145h-51l-68 145h55zM410 -10q-154 0 -256 102.5t-102 257.5q0 154 101.5 257t256.5 103q154 0 256 -103t102 -257t-101.5 -257t-256.5 -103zM411 112q96 0 159 68t63 170t-63.5 170t-159.5 68t-159.5 -68t-63.5 -170t63.5 -170t160.5 -68z" />
    <glyph glyph-name="Ohungarumlaut.ss01" horiz-adv-x="820" 
d="M370 900h54l-62 -145h-50zM516 900h55l-64 -145h-48zM410 -10q-154 0 -256 102.5t-102 257.5q0 154 101.5 257t256.5 103q154 0 256 -103t102 -257t-101.5 -257t-256.5 -103zM411 112q96 0 159 68t63 170t-63.5 170t-159.5 68t-159.5 -68t-63.5 -170t63.5 -170t160.5 -68
z" />
    <glyph glyph-name="Omacron.ss01" horiz-adv-x="820" 
d="M249 835h323v-43h-323v43zM410 -10q-154 0 -256 102.5t-102 257.5q0 154 101.5 257t256.5 103q154 0 256 -103t102 -257t-101.5 -257t-256.5 -103zM411 112q96 0 159 68t63 170t-63.5 170t-159.5 68t-159.5 -68t-63.5 -170t63.5 -170t160.5 -68z" />
    <glyph glyph-name="uni01EA.ss01" horiz-adv-x="820" 
d="M491 -2q-70 -25 -70 -78q0 -46 61 -46q24 0 46 6v-40q-17 -7 -47 -7q-46 0 -76.5 20.5t-30.5 63.5q0 45 46 73h-10q-154 0 -256 102.5t-102 257.5q0 154 101.5 257t256.5 103q154 0 256 -103t102 -257q0 -132 -76.5 -229t-200.5 -123zM187 350q0 -102 63.5 -170
t160.5 -68q96 0 159 68t63 170t-63.5 170t-159.5 68t-159.5 -68t-63.5 -170z" />
    <glyph glyph-name="Oslash.ss01" horiz-adv-x="820" 
d="M647 625q57 -50 89 -121t32 -154q0 -154 -101.5 -257t-256.5 -103q-111 0 -197 55l-63 -83l-38 28l62 84q-122 104 -122 276q0 154 101.5 257t256.5 103q109 0 197 -55l61 82l41 -30zM187 350q0 -104 65 -172l279 375q-54 35 -121 35q-96 0 -159.5 -68t-63.5 -170z
M411 112q96 0 159 68t63 170q0 103 -64 170l-280 -372q55 -36 122 -36z" />
    <glyph glyph-name="Oslashacute.ss01" horiz-adv-x="820" 
d="M504 900l-68 -145h-51l64 145h55zM647 625q57 -50 89 -121t32 -154q0 -154 -101.5 -257t-256.5 -103q-111 0 -197 55l-63 -83l-38 28l62 84q-122 104 -122 276q0 154 101.5 257t256.5 103q109 0 197 -55l61 82l41 -30zM187 350q0 -104 65 -172l279 375q-54 35 -121 35
q-96 0 -159.5 -68t-63.5 -170zM411 112q96 0 159 68t63 170q0 103 -64 170l-280 -372q55 -36 122 -36z" />
    <glyph glyph-name="Otilde.ss01" horiz-adv-x="820" 
d="M572 858q-3 -43 -27 -73t-64 -30q-32 0 -55 16.5t-41.5 33t-37.5 16.5q-45 0 -51 -58h-46q5 44 28 73.5t64 29.5q32 0 55 -16t41 -32.5t38 -16.5q44 0 52 57h44zM410 -10q-154 0 -256 102.5t-102 257.5q0 154 101.5 257t256.5 103q154 0 256 -103t102 -257t-101.5 -257
t-256.5 -103zM411 112q96 0 159 68t63 170t-63.5 170t-159.5 68t-159.5 -68t-63.5 -170t63.5 -170t160.5 -68z" />
    <glyph glyph-name="Racute.ss01" horiz-adv-x="629" 
d="M412 900l-68 -145h-51l64 145h55zM598 0h-140l-146 273h-114v-273h-129v700h277q104 0 165 -56.5t61 -149.5q0 -70 -36 -121.5t-99 -75.5zM198 588v-203h133q50 0 79.5 28.5t29.5 73.5q0 47 -29 74t-80 27h-133z" />
    <glyph glyph-name="Rcaron.ss01" horiz-adv-x="629" 
d="M347 768h-55l-111 132h61l76 -91h3l75 91h61zM598 0h-140l-146 273h-114v-273h-129v700h277q104 0 165 -56.5t61 -149.5q0 -70 -36 -121.5t-99 -75.5zM198 588v-203h133q50 0 79.5 28.5t29.5 73.5q0 47 -29 74t-80 27h-133z" />
    <glyph glyph-name="uni0156.ss01" horiz-adv-x="629" 
d="M437 297l161 -297h-140l-146 273h-114v-273h-129v700h277q104 0 165 -56.5t61 -149.5q0 -70 -36 -121.5t-99 -75.5zM198 588v-203h133q50 0 79.5 28.5t29.5 73.5q0 47 -29 74t-80 27h-133zM325 -51q39 0 61 -28.5t22 -72.5q0 -108 -130 -179l-24 33q3 2 12.5 8.5t13 9
t11.5 8.5t11.5 9t10 8.5t10 9.5t8.5 9.5t8 10.5t6 11.5t5 12.5q-12 -4 -30 -4q-34 0 -54 22.5t-20 52.5q0 37 22 58t57 21z" />
    <glyph glyph-name="Sacute.ss01" horiz-adv-x="610" 
d="M349 900h55l-68 -145h-51zM556 192q0 -98 -69.5 -150t-173.5 -52q-122 0 -189.5 60.5t-71.5 163.5h130q5 -53 38.5 -82.5t92.5 -29.5q48 0 79 21.5t31 64.5q0 25 -10.5 44t-33 32.5t-40.5 20.5t-49 16l-40 12q-176 53 -176 195q0 92 67 147t170 55q106 0 171 -57.5
t68 -148.5h-130q-5 43 -32 68.5t-76 25.5q-47 0 -76 -23t-29 -61q0 -21 9.5 -37.5t29.5 -28t36.5 -17.5t44.5 -15l35 -11q26 -8 46.5 -16t50 -25.5t49 -39t34 -56t14.5 -76.5z" />
    <glyph glyph-name="Scaron.ss01" horiz-adv-x="610" 
d="M388 900h61l-110 -132h-55l-111 132h61l76 -91h3zM556 192q0 -98 -69.5 -150t-173.5 -52q-122 0 -189.5 60.5t-71.5 163.5h130q5 -53 38.5 -82.5t92.5 -29.5q48 0 79 21.5t31 64.5q0 25 -10.5 44t-33 32.5t-40.5 20.5t-49 16l-40 12q-176 53 -176 195q0 92 67 147t170 55
q106 0 171 -57.5t68 -148.5h-130q-5 43 -32 68.5t-76 25.5q-47 0 -76 -23t-29 -61q0 -21 9.5 -37.5t29.5 -28t36.5 -17.5t44.5 -15l35 -11q26 -8 46.5 -16t50 -25.5t49 -39t34 -56t14.5 -76.5z" />
    <glyph glyph-name="Scedilla.ss01" horiz-adv-x="610" 
d="M556 192q0 -94 -64.5 -146t-163.5 -56l-26 -34q38 2 69.5 -20.5t31.5 -63.5q0 -37 -26.5 -59.5t-72.5 -22.5q-40 0 -68 20l15 33q28 -14 51 -14q25 0 40.5 13t15.5 33q0 47 -60 47q-17 0 -37 -9l-23 21l42 57q-107 8 -165.5 67.5t-62.5 155.5h130q5 -53 38.5 -82.5
t92.5 -29.5q48 0 79 21.5t31 64.5q0 25 -10.5 44t-33 32.5t-40.5 20.5t-49 16l-40 12q-176 53 -176 195q0 92 67 147t170 55q106 0 171 -57.5t68 -148.5h-130q-5 43 -32 68.5t-76 25.5q-47 0 -76 -23t-29 -61q0 -21 9.5 -37.5t29.5 -28t36.5 -17.5t44.5 -15l35 -11
q26 -8 46.5 -16t50 -25.5t49 -39t34 -56t14.5 -76.5z" />
    <glyph glyph-name="Scircumflex.ss01" horiz-adv-x="610" 
d="M234 768h-60l109 132h55l111 -132h-61l-76 91h-3zM556 192q0 -98 -69.5 -150t-173.5 -52q-122 0 -189.5 60.5t-71.5 163.5h130q5 -53 38.5 -82.5t92.5 -29.5q48 0 79 21.5t31 64.5q0 25 -10.5 44t-33 32.5t-40.5 20.5t-49 16l-40 12q-176 53 -176 195q0 92 67 147t170 55
q106 0 171 -57.5t68 -148.5h-130q-5 43 -32 68.5t-76 25.5q-47 0 -76 -23t-29 -61q0 -21 9.5 -37.5t29.5 -28t36.5 -17.5t44.5 -15l35 -11q26 -8 46.5 -16t50 -25.5t49 -39t34 -56t14.5 -76.5z" />
    <glyph glyph-name="uni0218.ss01" horiz-adv-x="610" 
d="M556 192q0 -98 -69.5 -150t-173.5 -52q-122 0 -189.5 60.5t-71.5 163.5h130q5 -53 38.5 -82.5t92.5 -29.5q48 0 79 21.5t31 64.5q0 25 -10.5 44t-33 32.5t-40.5 20.5t-49 16l-40 12q-176 53 -176 195q0 92 67 147t170 55q106 0 171 -57.5t68 -148.5h-130q-5 43 -32 68.5
t-76 25.5q-47 0 -76 -23t-29 -61q0 -21 9.5 -37.5t29.5 -28t36.5 -17.5t44.5 -15l35 -11q26 -8 46.5 -16t50 -25.5t49 -39t34 -56t14.5 -76.5zM308 -51q39 0 61 -28.5t22 -72.5q0 -108 -130 -179l-24 33q3 2 12.5 8.5t13 9t11.5 8.5t11.5 9t10 8.5t10 9.5t8.5 9.5t8 10.5
t6 11.5t5 12.5q-12 -4 -30 -4q-34 0 -54 22.5t-20 52.5q0 37 22 58t57 21z" />
    <glyph glyph-name="Tbar.ss01" horiz-adv-x="591" 
d="M559 582h-198v-226h144v-44h-144v-312h-132v312h-144v44h144v226h-198v118h528v-118z" />
    <glyph glyph-name="Tcaron.ss01" horiz-adv-x="591" 
d="M323 768h-55l-111 132h61l76 -91h3l75 91h61zM559 700v-118h-198v-582h-132v582h-198v118h528z" />
    <glyph glyph-name="uni0162.ss01" horiz-adv-x="591" 
d="M361 0h-41l-33 -44q38 2 69.5 -20.5t31.5 -63.5q0 -37 -26.5 -59.5t-72.5 -22.5q-40 0 -68 20l15 33q28 -14 51 -14q25 0 40.5 13t15.5 33q0 47 -60 47q-17 0 -37 -9l-23 21l49 66h-43v582h-198v118h528v-118h-198v-582z" />
    <glyph glyph-name="uni021A.ss01" horiz-adv-x="591" 
d="M31 700h528v-118h-198v-582h-132v582h-198v118zM293 -51q39 0 61 -28.5t22 -72.5q0 -108 -130 -179l-24 33q3 2 12.5 8.5t13 9t11.5 8.5t11.5 9t10 8.5t10 9.5t8.5 9.5t8 10.5t6 11.5t5 12.5q-12 -4 -30 -4q-34 0 -54 22.5t-20 52.5q0 37 22 58t57 21z" />
    <glyph glyph-name="Uacute.ss01" horiz-adv-x="713" 
d="M395 900h55l-68 -145h-51zM644 700v-429q0 -137 -79 -209t-207 -72q-129 0 -209 72t-80 209v429h132v-425q0 -77 43.5 -120t113.5 -43t112 42.5t42 120.5v425h132z" />
    <glyph glyph-name="Ubreve.ss01" horiz-adv-x="713" 
d="M480 900q0 -46 -32 -84.5t-91 -38.5t-92 38.5t-33 84.5h50q0 -36 20.5 -58t54.5 -22t53.5 22t19.5 58h50zM644 700v-429q0 -137 -79 -209t-207 -72q-129 0 -209 72t-80 209v429h132v-425q0 -77 43.5 -120t113.5 -43t112 42.5t42 120.5v425h132z" />
    <glyph glyph-name="uni01D3.ss01" horiz-adv-x="713" 
d="M434 900h61l-110 -132h-55l-111 132h61l76 -91h3zM644 700v-429q0 -137 -79 -209t-207 -72q-129 0 -209 72t-80 209v429h132v-425q0 -77 43.5 -120t113.5 -43t112 42.5t42 120.5v425h132z" />
    <glyph glyph-name="Ucircumflex.ss01" horiz-adv-x="713" 
d="M279 768h-60l109 132h55l111 -132h-61l-76 91h-3zM644 700v-429q0 -137 -79 -209t-207 -72q-129 0 -209 72t-80 209v429h132v-425q0 -77 43.5 -120t113.5 -43t112 42.5t42 120.5v425h132z" />
    <glyph glyph-name="Ugrave.ss01" horiz-adv-x="713" 
d="M318 900l64 -145h-51l-68 145h55zM644 700v-429q0 -137 -79 -209t-207 -72q-129 0 -209 72t-80 209v429h132v-425q0 -77 43.5 -120t113.5 -43t112 42.5t42 120.5v425h132z" />
    <glyph glyph-name="Uhungarumlaut.ss01" horiz-adv-x="713" 
d="M316 900h54l-62 -145h-50zM462 900h55l-64 -145h-48zM644 700v-429q0 -137 -79 -209t-207 -72q-129 0 -209 72t-80 209v429h132v-425q0 -77 43.5 -120t113.5 -43t112 42.5t42 120.5v425h132z" />
    <glyph glyph-name="Umacron.ss01" horiz-adv-x="713" 
d="M196 835h323v-43h-323v43zM644 700v-429q0 -137 -79 -209t-207 -72q-129 0 -209 72t-80 209v429h132v-425q0 -77 43.5 -120t113.5 -43t112 42.5t42 120.5v425h132z" />
    <glyph glyph-name="Uogonek.ss01" horiz-adv-x="713" 
d="M512 700h132v-429q0 -113 -54 -182t-148 -90q-72 -26 -72 -79q0 -46 61 -46q23 0 46 6v-40q-17 -7 -47 -7q-46 0 -76.5 20.5t-30.5 63.5q0 46 46 73h-11q-129 0 -209 72t-80 209v429h132v-425q0 -77 43.5 -120t113.5 -43t112 42.5t42 120.5v425z" />
    <glyph glyph-name="Uring.ss01" horiz-adv-x="713" 
d="M358 750q-38 0 -66 25.5t-28 64.5t28 64.5t66 25.5t65 -25.5t27 -64.5t-27 -64.5t-65 -25.5zM358 789q21 0 35.5 14.5t14.5 37.5q0 21 -14.5 35.5t-35.5 14.5t-36 -14.5t-15 -35.5q0 -23 15 -37.5t36 -14.5zM644 700v-429q0 -137 -79 -209t-207 -72q-129 0 -209 72
t-80 209v429h132v-425q0 -77 43.5 -120t113.5 -43t112 42.5t42 120.5v425h132z" />
    <glyph glyph-name="Utilde.ss01" horiz-adv-x="713" 
d="M518 858q-3 -43 -27 -73t-64 -30q-32 0 -55 16.5t-41.5 33t-37.5 16.5q-45 0 -51 -58h-46q5 44 28 73.5t64 29.5q32 0 55 -16t41 -32.5t38 -16.5q44 0 52 57h44zM644 700v-429q0 -137 -79 -209t-207 -72q-129 0 -209 72t-80 209v429h132v-425q0 -77 43.5 -120t113.5 -43
t112 42.5t42 120.5v425h132z" />
    <glyph glyph-name="uni1E7C.ss01" horiz-adv-x="679" 
d="M501 858q-3 -43 -27 -73t-64 -30q-32 0 -55 16.5t-41.5 33t-37.5 16.5q-45 0 -51 -58h-46q5 44 28 73.5t64 29.5q32 0 55 -16t41 -32.5t38 -16.5q44 0 52 57h44zM517 700h141l-239 -700h-159l-239 700h142l174 -523h8z" />
    <glyph glyph-name="Wacute.ss01" horiz-adv-x="921" 
d="M499 900h55l-68 -145h-51zM773 700h127l-152 -700h-146l-138 481h-8l-136 -481h-146l-153 700h128l103 -506h8l131 456h140l129 -456h8z" />
    <glyph glyph-name="Wcircumflex.ss01" horiz-adv-x="921" 
d="M384 768h-60l109 132h55l111 -132h-61l-76 91h-3zM773 700h127l-152 -700h-146l-138 481h-8l-136 -481h-146l-153 700h128l103 -506h8l131 456h140l129 -456h8z" />
    <glyph glyph-name="Wgrave.ss01" horiz-adv-x="921" 
d="M422 900l64 -145h-51l-68 145h55zM773 700h127l-152 -700h-146l-138 481h-8l-136 -481h-146l-153 700h128l103 -506h8l131 456h140l129 -456h8z" />
    <glyph glyph-name="Yacute.ss01" horiz-adv-x="678" 
d="M377 900h55l-68 -145h-51zM500 700h157l-252 -391v-309h-132v309l-252 391h156l158 -247h8z" />
    <glyph glyph-name="Ycircumflex.ss01" horiz-adv-x="678" 
d="M262 768h-60l109 132h55l111 -132h-61l-76 91h-3zM500 700h157l-252 -391v-309h-132v309l-252 391h156l158 -247h8z" />
    <glyph glyph-name="Ygrave.ss01" horiz-adv-x="678" 
d="M300 900l64 -145h-51l-68 145h55zM500 700h157l-252 -391v-309h-132v309l-252 391h156l158 -247h8z" />
    <glyph glyph-name="uni0232.ss01" horiz-adv-x="678" 
d="M178 835h323v-43h-323v43zM500 700h157l-252 -391v-309h-132v309l-252 391h156l158 -247h8z" />
    <glyph glyph-name="uni1EF8.ss01" horiz-adv-x="678" 
d="M500 858q-3 -43 -27 -73t-64 -30q-32 0 -55 16.5t-41.5 33t-37.5 16.5q-45 0 -51 -58h-46q5 44 28 73.5t64 29.5q32 0 55 -16t41 -32.5t38 -16.5q44 0 52 57h44zM500 700h157l-252 -391v-309h-132v309l-252 391h156l158 -247h8z" />
    <glyph glyph-name="Zacute.ss01" horiz-adv-x="626" 
d="M354 900h55l-68 -145h-51zM246 118h326v-118h-520v77l328 498v7h-311v118h493v-77l-316 -498v-7z" />
    <glyph glyph-name="Zcaron.ss01" horiz-adv-x="626" 
d="M392 900h61l-110 -132h-55l-111 132h61l76 -91h3zM246 118h326v-118h-520v77l328 498v7h-311v118h493v-77l-316 -498v-7z" />
    <glyph glyph-name="uni1E90.ss01" horiz-adv-x="626" 
d="M238 768h-60l109 132h55l111 -132h-61l-76 91h-3zM246 118h326v-118h-520v77l328 498v7h-311v118h493v-77l-316 -498v-7z" />
    <glyph glyph-name="i.loclTRK" horiz-adv-x="238" 
d="M119 564q-32 0 -55.5 23t-23.5 54q0 33 23.5 55.5t55.5 22.5t54.5 -22.5t22.5 -55.5q0 -31 -23 -54t-54 -23zM55 0v500h128v-500h-128z" />
    <glyph glyph-name="a.fina" horiz-adv-x="547" 
d="M532 88q16 0 34 6v-88q-30 -11 -67 -11q-92 0 -122 68q-54 -73 -167 -73q-80 0 -128.5 37.5t-48.5 109.5q0 68 45.5 106.5t119.5 45.5l156 16v21q0 40 -23 61t-61 21q-77 0 -90 -75h-128q8 80 66 128.5t152 48.5t153 -48.5t59 -144.5v-177q0 -52 50 -52zM354 193v24
l-112 -12q-81 -9 -81 -63t71 -54q48 0 85 25.5t37 79.5z" />
    <glyph glyph-name="aacute.fina" horiz-adv-x="547" 
d="M398 700l-86 -145h-98l76 145h108zM532 88q16 0 34 6v-88q-30 -11 -67 -11q-92 0 -122 68q-54 -73 -167 -73q-80 0 -128.5 37.5t-48.5 109.5q0 68 45.5 106.5t119.5 45.5l156 16v21q0 40 -23 61t-61 21q-77 0 -90 -75h-128q8 80 66 128.5t152 48.5t153 -48.5t59 -144.5
v-177q0 -52 50 -52zM354 193v24l-112 -12q-81 -9 -81 -63t71 -54q48 0 85 25.5t37 79.5z" />
    <glyph glyph-name="abreve.fina" horiz-adv-x="547" 
d="M263 567q-62 0 -105 38.5t-43 94.5h95q0 -24 14.5 -41t39.5 -17q24 0 37.5 17t13.5 41h94q0 -56 -42 -94.5t-104 -38.5zM532 88q16 0 34 6v-88q-30 -11 -67 -11q-92 0 -122 68q-54 -73 -167 -73q-80 0 -128.5 37.5t-48.5 109.5q0 68 45.5 106.5t119.5 45.5l156 16v21
q0 40 -23 61t-61 21q-77 0 -90 -75h-128q8 80 66 128.5t152 48.5t153 -48.5t59 -144.5v-177q0 -52 50 -52zM354 193v24l-112 -12q-81 -9 -81 -63t71 -54q48 0 85 25.5t37 79.5z" />
    <glyph glyph-name="uni01CE.fina" horiz-adv-x="547" 
d="M317 552h-107l-108 148h107l51 -77h8l50 77h107zM532 88q16 0 34 6v-88q-30 -11 -67 -11q-92 0 -122 68q-54 -73 -167 -73q-80 0 -128.5 37.5t-48.5 109.5q0 68 45.5 106.5t119.5 45.5l156 16v21q0 40 -23 61t-61 21q-77 0 -90 -75h-128q8 80 66 128.5t152 48.5
t153 -48.5t59 -144.5v-177q0 -52 50 -52zM354 193v24l-112 -12q-81 -9 -81 -63t71 -54q48 0 85 25.5t37 79.5z" />
    <glyph glyph-name="acircumflex.fina" horiz-adv-x="547" 
d="M259 629l-51 -77h-107l108 148h107l108 -148h-107l-51 77h-7zM532 88q16 0 34 6v-88q-30 -11 -67 -11q-92 0 -122 68q-54 -73 -167 -73q-80 0 -128.5 37.5t-48.5 109.5q0 68 45.5 106.5t119.5 45.5l156 16v21q0 40 -23 61t-61 21q-77 0 -90 -75h-128q8 80 66 128.5
t152 48.5t153 -48.5t59 -144.5v-177q0 -52 50 -52zM354 193v24l-112 -12q-81 -9 -81 -63t71 -54q48 0 85 25.5t37 79.5z" />
    <glyph glyph-name="adieresis.fina" horiz-adv-x="547" 
d="M164 545q-28 0 -49 20.5t-21 49.5t20.5 48.5t49.5 19.5t49 -19.5t20 -48.5t-20.5 -49.5t-48.5 -20.5zM363 545q-28 0 -48.5 21t-20.5 49q0 29 20.5 48.5t48.5 19.5q29 0 49 -19.5t20 -48.5t-20 -49.5t-49 -20.5zM532 88q16 0 34 6v-88q-30 -11 -67 -11q-92 0 -122 68
q-54 -73 -167 -73q-80 0 -128.5 37.5t-48.5 109.5q0 68 45.5 106.5t119.5 45.5l156 16v21q0 40 -23 61t-61 21q-77 0 -90 -75h-128q8 80 66 128.5t152 48.5t153 -48.5t59 -144.5v-177q0 -52 50 -52zM354 193v24l-112 -12q-81 -9 -81 -63t71 -54q48 0 85 25.5t37 79.5z" />
    <glyph glyph-name="uni0227.fina" horiz-adv-x="547" 
d="M264 564q-32 0 -55.5 23t-23.5 54q0 33 23.5 55.5t55.5 22.5t54.5 -22.5t22.5 -55.5q0 -31 -23 -54t-54 -23zM532 88q16 0 34 6v-88q-30 -11 -67 -11q-92 0 -122 68q-54 -73 -167 -73q-80 0 -128.5 37.5t-48.5 109.5q0 68 45.5 106.5t119.5 45.5l156 16v21q0 40 -23 61
t-61 21q-77 0 -90 -75h-128q8 80 66 128.5t152 48.5t153 -48.5t59 -144.5v-177q0 -52 50 -52zM354 193v24l-112 -12q-81 -9 -81 -63t71 -54q48 0 85 25.5t37 79.5z" />
    <glyph glyph-name="uni1EA1.fina" horiz-adv-x="547" 
d="M532 88q16 0 34 6v-88q-30 -11 -67 -11q-92 0 -122 68q-54 -73 -167 -73q-80 0 -128.5 37.5t-48.5 109.5q0 68 45.5 106.5t119.5 45.5l156 16v21q0 40 -23 61t-61 21q-77 0 -90 -75h-128q8 80 66 128.5t152 48.5t153 -48.5t59 -144.5v-177q0 -52 50 -52zM354 193v24
l-112 -12q-81 -9 -81 -63t71 -54q48 0 85 25.5t37 79.5zM281 -64q32 0 54.5 -22.5t22.5 -54.5q0 -31 -23 -54.5t-54 -23.5t-55 23.5t-24 54.5q0 32 23.5 54.5t55.5 22.5z" />
    <glyph glyph-name="agrave.fina" horiz-adv-x="547" 
d="M312 555h-97l-87 145h108zM532 88q16 0 34 6v-88q-30 -11 -67 -11q-92 0 -122 68q-54 -73 -167 -73q-80 0 -128.5 37.5t-48.5 109.5q0 68 45.5 106.5t119.5 45.5l156 16v21q0 40 -23 61t-61 21q-77 0 -90 -75h-128q8 80 66 128.5t152 48.5t153 -48.5t59 -144.5v-177
q0 -52 50 -52zM354 193v24l-112 -12q-81 -9 -81 -63t71 -54q48 0 85 25.5t37 79.5z" />
    <glyph glyph-name="amacron.fina" horiz-adv-x="547" 
d="M429 656v-87h-331v87h331zM532 88q16 0 34 6v-88q-30 -11 -67 -11q-92 0 -122 68q-54 -73 -167 -73q-80 0 -128.5 37.5t-48.5 109.5q0 68 45.5 106.5t119.5 45.5l156 16v21q0 40 -23 61t-61 21q-77 0 -90 -75h-128q8 80 66 128.5t152 48.5t153 -48.5t59 -144.5v-177
q0 -52 50 -52zM354 193v24l-112 -12q-81 -9 -81 -63t71 -54q48 0 85 25.5t37 79.5z" />
    <glyph glyph-name="aring.fina" horiz-adv-x="547" 
d="M262 534q-41 0 -71 29t-30 69t30 69.5t71 29.5q42 0 72.5 -29.5t30.5 -69.5t-30.5 -69t-72.5 -29zM264 663q-14 0 -23.5 -9t-9.5 -22q0 -12 9.5 -21.5t23.5 -9.5q12 0 21.5 9.5t9.5 21.5q0 13 -9.5 22t-21.5 9zM532 88q16 0 34 6v-88q-30 -11 -67 -11q-92 0 -122 68
q-54 -73 -167 -73q-80 0 -128.5 37.5t-48.5 109.5q0 68 45.5 106.5t119.5 45.5l156 16v21q0 40 -23 61t-61 21q-77 0 -90 -75h-128q8 80 66 128.5t152 48.5t153 -48.5t59 -144.5v-177q0 -52 50 -52zM354 193v24l-112 -12q-81 -9 -81 -63t71 -54q48 0 85 25.5t37 79.5z" />
    <glyph glyph-name="atilde.fina" horiz-adv-x="547" 
d="M201 602q-38 0 -44 -52h-85q4 60 33.5 99.5t82.5 39.5q37 0 62 -15.5t42 -31t35 -15.5q39 0 43 51h85q-4 -59 -33.5 -98.5t-81.5 -39.5q-34 0 -59.5 15.5t-44 31t-35.5 15.5zM532 88q16 0 34 6v-88q-30 -11 -67 -11q-92 0 -122 68q-54 -73 -167 -73q-80 0 -128.5 37.5
t-48.5 109.5q0 68 45.5 106.5t119.5 45.5l156 16v21q0 40 -23 61t-61 21q-77 0 -90 -75h-128q8 80 66 128.5t152 48.5t153 -48.5t59 -144.5v-177q0 -52 50 -52zM354 193v24l-112 -12q-81 -9 -81 -63t71 -54q48 0 85 25.5t37 79.5z" />
    <glyph glyph-name="aacute.ss01" horiz-adv-x="547" 
d="M357 700l-68 -145h-51l64 145h55zM518 96h12v-96h-54q-79 0 -101 60q-55 -70 -165 -70q-80 0 -128.5 37.5t-48.5 109.5q0 68 45.5 106.5t119.5 45.5l156 16v21q0 40 -23 61t-61 21q-77 0 -90 -75h-128q8 80 66 128.5t152 48.5t153 -48.5t59 -144.5v-183q0 -38 36 -38z
M354 193v24l-112 -12q-81 -9 -81 -63t71 -54q48 0 85 25.5t37 79.5z" />
    <glyph glyph-name="abreve.ss01" horiz-adv-x="547" 
d="M264 577q-59 0 -92 38.5t-33 84.5h50q0 -36 20.5 -58t54.5 -22t53.5 22t19.5 58h50q0 -46 -32 -84.5t-91 -38.5zM518 96h12v-96h-54q-79 0 -101 60q-55 -70 -165 -70q-80 0 -128.5 37.5t-48.5 109.5q0 68 45.5 106.5t119.5 45.5l156 16v21q0 40 -23 61t-61 21
q-77 0 -90 -75h-128q8 80 66 128.5t152 48.5t153 -48.5t59 -144.5v-183q0 -38 36 -38zM354 193v24l-112 -12q-81 -9 -81 -63t71 -54q48 0 85 25.5t37 79.5z" />
    <glyph glyph-name="uni01CE.ss01" horiz-adv-x="547" 
d="M291 568h-55l-111 132h61l76 -91h3l75 91h61zM518 96h12v-96h-54q-79 0 -101 60q-55 -70 -165 -70q-80 0 -128.5 37.5t-48.5 109.5q0 68 45.5 106.5t119.5 45.5l156 16v21q0 40 -23 61t-61 21q-77 0 -90 -75h-128q8 80 66 128.5t152 48.5t153 -48.5t59 -144.5v-183
q0 -38 36 -38zM354 193v24l-112 -12q-81 -9 -81 -63t71 -54q48 0 85 25.5t37 79.5z" />
    <glyph glyph-name="acircumflex.ss01" horiz-adv-x="547" 
d="M261 659l-75 -91h-60l109 132h55l111 -132h-61l-76 91h-3zM518 96h12v-96h-54q-79 0 -101 60q-55 -70 -165 -70q-80 0 -128.5 37.5t-48.5 109.5q0 68 45.5 106.5t119.5 45.5l156 16v21q0 40 -23 61t-61 21q-77 0 -90 -75h-128q8 80 66 128.5t152 48.5t153 -48.5
t59 -144.5v-183q0 -38 36 -38zM354 193v24l-112 -12q-81 -9 -81 -63t71 -54q48 0 85 25.5t37 79.5z" />
    <glyph glyph-name="agrave.ss01" horiz-adv-x="547" 
d="M289 555h-51l-68 145h55zM518 96h12v-96h-54q-79 0 -101 60q-55 -70 -165 -70q-80 0 -128.5 37.5t-48.5 109.5q0 68 45.5 106.5t119.5 45.5l156 16v21q0 40 -23 61t-61 21q-77 0 -90 -75h-128q8 80 66 128.5t152 48.5t153 -48.5t59 -144.5v-183q0 -38 36 -38zM354 193v24
l-112 -12q-81 -9 -81 -63t71 -54q48 0 85 25.5t37 79.5z" />
    <glyph glyph-name="amacron.ss01" horiz-adv-x="547" 
d="M425 635v-43h-323v43h323zM518 96h12v-96h-54q-79 0 -101 60q-55 -70 -165 -70q-80 0 -128.5 37.5t-48.5 109.5q0 68 45.5 106.5t119.5 45.5l156 16v21q0 40 -23 61t-61 21q-77 0 -90 -75h-128q8 80 66 128.5t152 48.5t153 -48.5t59 -144.5v-183q0 -38 36 -38zM354 193
v24l-112 -12q-81 -9 -81 -63t71 -54q48 0 85 25.5t37 79.5z" />
    <glyph glyph-name="aogonek.ss01" horiz-adv-x="547" 
d="M516 -126q24 0 46 6v-40q-18 -7 -47 -7q-46 0 -76.5 20.5t-30.5 63.5q0 53 65 83q-76 2 -98 60q-55 -70 -165 -70q-80 0 -128.5 37.5t-48.5 109.5q0 68 45.5 106.5t119.5 45.5l156 16v21q0 40 -23 61t-61 21q-77 0 -90 -75h-128q8 80 66 128.5t152 48.5t153 -48.5
t59 -144.5v-183q0 -38 36 -38h12v-96q-75 -26 -75 -80q0 -46 61 -46zM354 193v24l-112 -12q-81 -9 -81 -63t71 -54q48 0 85 25.5t37 79.5z" />
    <glyph glyph-name="aring.ss01" horiz-adv-x="547" 
d="M264 550q-38 0 -66 25.5t-28 64.5t28 64.5t66 25.5t65 -25.5t27 -64.5t-27 -64.5t-65 -25.5zM264 691q-21 0 -36 -14.5t-15 -35.5q0 -23 15 -37.5t36 -14.5t35.5 14.5t14.5 37.5q0 21 -14.5 35.5t-35.5 14.5zM518 96h12v-96h-54q-79 0 -101 60q-55 -70 -165 -70
q-80 0 -128.5 37.5t-48.5 109.5q0 68 45.5 106.5t119.5 45.5l156 16v21q0 40 -23 61t-61 21q-77 0 -90 -75h-128q8 80 66 128.5t152 48.5t153 -48.5t59 -144.5v-183q0 -38 36 -38zM354 193v24l-112 -12q-81 -9 -81 -63t71 -54q48 0 85 25.5t37 79.5z" />
    <glyph glyph-name="atilde.ss01" horiz-adv-x="547" 
d="M200 621q-45 0 -51 -58h-46q5 44 28 73.5t64 29.5q32 0 55 -16t41 -32.5t38 -16.5q44 0 52 57h44q-3 -43 -27 -73t-64 -30q-32 0 -55 16.5t-41.5 33t-37.5 16.5zM518 96h12v-96h-54q-79 0 -101 60q-55 -70 -165 -70q-80 0 -128.5 37.5t-48.5 109.5q0 68 45.5 106.5
t119.5 45.5l156 16v21q0 40 -23 61t-61 21q-77 0 -90 -75h-128q8 80 66 128.5t152 48.5t153 -48.5t59 -144.5v-183q0 -38 36 -38zM354 193v24l-112 -12q-81 -9 -81 -63t71 -54q48 0 85 25.5t37 79.5z" />
    <glyph glyph-name="aeacute.ss01" horiz-adv-x="756" 
d="M461 700l-68 -145h-51l64 145h55zM598 158h115q-8 -83 -61 -125.5t-132 -42.5q-109 0 -156 73q-44 -73 -165 -73q-77 0 -121.5 36.5t-44.5 104.5q0 83 58.5 126t162.5 43h52v37q0 74 -69 74q-72 0 -75 -71l-122 4q4 79 55 122.5t136 43.5q97 0 145 -64q49 64 142 64
q83 0 138 -60t55 -196q0 -26 -1 -42h-277q2 -125 85 -125q71 0 80 71zM516 413q-36 0 -58.5 -27.5t-24.5 -85.5h160q0 113 -77 113zM219 87q35 0 61 19t26 63v43h-50q-103 0 -103 -68q0 -28 18 -42.5t48 -14.5z" />
    <glyph glyph-name="uni01E3.ss01" horiz-adv-x="756" 
d="M530 635v-43h-323v43h323zM598 158h115q-8 -83 -61 -125.5t-132 -42.5q-109 0 -156 73q-44 -73 -165 -73q-77 0 -121.5 36.5t-44.5 104.5q0 83 58.5 126t162.5 43h52v37q0 74 -69 74q-72 0 -75 -71l-122 4q4 79 55 122.5t136 43.5q97 0 145 -64q49 64 142 64
q83 0 138 -60t55 -196q0 -26 -1 -42h-277q2 -125 85 -125q71 0 80 71zM516 413q-36 0 -58.5 -27.5t-24.5 -85.5h160q0 113 -77 113zM219 87q35 0 61 19t26 63v43h-50q-103 0 -103 -68q0 -28 18 -42.5t48 -14.5z" />
    <glyph glyph-name="cacute.ss01" horiz-adv-x="578" 
d="M338 700h55l-68 -145h-51zM303 -10q-117 0 -189.5 72t-72.5 186q0 116 74.5 189t185.5 73q93 0 162 -50t80 -143h-128q-9 36 -39.5 59t-74.5 23q-57 0 -94.5 -42.5t-37.5 -108.5t36.5 -106.5t97.5 -40.5q88 0 113 72h129q-13 -84 -78.5 -133.5t-163.5 -49.5z" />
    <glyph glyph-name="ccaron.ss01" horiz-adv-x="578" 
d="M377 700h61l-110 -132h-55l-111 132h61l76 -91h3zM303 -10q-117 0 -189.5 72t-72.5 186q0 116 74.5 189t185.5 73q93 0 162 -50t80 -143h-128q-9 36 -39.5 59t-74.5 23q-57 0 -94.5 -42.5t-37.5 -108.5t36.5 -106.5t97.5 -40.5q88 0 113 72h129q-13 -84 -78.5 -133.5
t-163.5 -49.5z" />
    <glyph glyph-name="ccedilla.ss01" horiz-adv-x="578" 
d="M545 173q-12 -81 -73.5 -130t-154.5 -53l-26 -34q38 2 69.5 -20.5t31.5 -63.5q0 -37 -26.5 -59.5t-72.5 -22.5q-40 0 -68 20l15 33q28 -14 51 -14q25 0 40.5 13t15.5 33q0 47 -60 47q-17 0 -37 -9l-23 21l43 58q-103 10 -166 80.5t-63 175.5q0 116 74.5 189t185.5 73
q93 0 162 -50t80 -143h-128q-9 36 -39.5 59t-74.5 23q-57 0 -94.5 -42.5t-37.5 -108.5t36.5 -106.5t97.5 -40.5q88 0 113 72h129z" />
    <glyph glyph-name="ccircumflex.ss01" horiz-adv-x="578" 
d="M223 568h-60l109 132h55l111 -132h-61l-76 91h-3zM303 -10q-117 0 -189.5 72t-72.5 186q0 116 74.5 189t185.5 73q93 0 162 -50t80 -143h-128q-9 36 -39.5 59t-74.5 23q-57 0 -94.5 -42.5t-37.5 -108.5t36.5 -106.5t97.5 -40.5q88 0 113 72h129q-13 -84 -78.5 -133.5
t-163.5 -49.5z" />
    <glyph glyph-name="eth.ss01" horiz-adv-x="603" 
d="M429 591q122 -149 122 -323q0 -135 -71 -206.5t-189 -71.5q-106 0 -178 67.5t-72 172.5q0 99 64.5 164.5t166.5 65.5q89 0 138 -54h8q-25 78 -91 155l-154 -44l-13 41l135 38q-45 47 -118 104h142q42 -35 79 -74l93 26l13 -40zM292 96q59 0 96.5 38t37.5 95
q0 56 -38.5 90.5t-97.5 34.5t-95.5 -35.5t-36.5 -92.5q0 -56 38 -93t96 -37z" />
    <glyph glyph-name="dcaron.ss01" horiz-adv-x="605" 
d="M422 453v257h128v-710h-104l-11 59h-9q-52 -69 -149 -69q-102 0 -168.5 72t-66.5 189q0 119 67 189t168 70q94 0 145 -57zM708 708q35 0 55.5 -27.5t20.5 -71.5q0 -111 -118 -185l-23 28q74 60 88 107q-11 -3 -27 -3q-32 1 -50.5 23t-18.5 54q0 34 20.5 54.5t52.5 20.5z
M297 101q57 0 91 41t34 109q0 66 -34 107t-91 41t-92 -41t-35 -107q0 -67 35 -108.5t92 -41.5z" />
    <glyph glyph-name="dcroat.ss01" horiz-adv-x="605" 
d="M656 623v-44h-106v-579h-104l-11 59h-9q-52 -69 -149 -69q-102 0 -168.5 72t-66.5 189q0 119 67 189t168 70q94 0 145 -57v126h-127v44h127v87h128v-87h106zM297 101q57 0 91 41t34 109q0 66 -34 107t-91 41t-92 -41t-35 -107q0 -67 35 -108.5t92 -41.5z" />
    <glyph glyph-name="eacute.ss01" horiz-adv-x="575" 
d="M386 700l-68 -145h-51l64 145h55zM408 158h123q-15 -78 -76.5 -123t-156.5 -45q-113 0 -185 70.5t-72 184.5q0 120 72.5 192.5t179.5 72.5q100 0 168.5 -65t68.5 -192q0 -9 -2 -37h-360q4 -55 38.5 -89.5t91.5 -34.5q89 0 110 66zM293 408q-50 0 -83.5 -30t-40.5 -76h239
q-2 47 -34 76.5t-81 29.5z" />
    <glyph glyph-name="ebreve.ss01" horiz-adv-x="575" 
d="M293 577q-59 0 -92 38.5t-33 84.5h50q0 -36 20.5 -58t54.5 -22t53.5 22t19.5 58h50q0 -46 -32 -84.5t-91 -38.5zM408 158h123q-15 -78 -76.5 -123t-156.5 -45q-113 0 -185 70.5t-72 184.5q0 120 72.5 192.5t179.5 72.5q100 0 168.5 -65t68.5 -192q0 -9 -2 -37h-360
q4 -55 38.5 -89.5t91.5 -34.5q89 0 110 66zM293 408q-50 0 -83.5 -30t-40.5 -76h239q-2 47 -34 76.5t-81 29.5z" />
    <glyph glyph-name="ecaron.ss01" horiz-adv-x="575" 
d="M321 568h-55l-111 132h61l76 -91h3l75 91h61zM408 158h123q-15 -78 -76.5 -123t-156.5 -45q-113 0 -185 70.5t-72 184.5q0 120 72.5 192.5t179.5 72.5q100 0 168.5 -65t68.5 -192q0 -9 -2 -37h-360q4 -55 38.5 -89.5t91.5 -34.5q89 0 110 66zM293 408q-50 0 -83.5 -30
t-40.5 -76h239q-2 47 -34 76.5t-81 29.5z" />
    <glyph glyph-name="uni0229.ss01" horiz-adv-x="575" 
d="M531 158q-14 -75 -72.5 -120t-148.5 -48l-26 -34q38 2 69.5 -20.5t31.5 -63.5q0 -37 -26.5 -59.5t-72.5 -22.5q-40 0 -68 20l15 33q28 -14 51 -14q25 0 40.5 13t15.5 33q0 47 -60 47q-17 0 -37 -9l-23 21l43 58q-100 11 -161 79.5t-61 173.5q0 120 72.5 192.5t179.5 72.5
q100 0 168.5 -65t68.5 -192q0 -9 -2 -37h-360q4 -55 38.5 -89.5t91.5 -34.5q89 0 110 66h123zM293 408q-50 0 -83.5 -30t-40.5 -76h239q-2 47 -34 76.5t-81 29.5z" />
    <glyph glyph-name="ecircumflex.ss01" horiz-adv-x="575" 
d="M291 659l-75 -91h-60l109 132h55l111 -132h-61l-76 91h-3zM408 158h123q-15 -78 -76.5 -123t-156.5 -45q-113 0 -185 70.5t-72 184.5q0 120 72.5 192.5t179.5 72.5q100 0 168.5 -65t68.5 -192q0 -9 -2 -37h-360q4 -55 38.5 -89.5t91.5 -34.5q89 0 110 66zM293 408
q-50 0 -83.5 -30t-40.5 -76h239q-2 47 -34 76.5t-81 29.5z" />
    <glyph glyph-name="egrave.ss01" horiz-adv-x="575" 
d="M318 555h-51l-68 145h55zM408 158h123q-15 -78 -76.5 -123t-156.5 -45q-113 0 -185 70.5t-72 184.5q0 120 72.5 192.5t179.5 72.5q100 0 168.5 -65t68.5 -192q0 -9 -2 -37h-360q4 -55 38.5 -89.5t91.5 -34.5q89 0 110 66zM293 408q-50 0 -83.5 -30t-40.5 -76h239
q-2 47 -34 76.5t-81 29.5z" />
    <glyph glyph-name="emacron.ss01" horiz-adv-x="575" 
d="M455 635v-43h-323v43h323zM408 158h123q-15 -78 -76.5 -123t-156.5 -45q-113 0 -185 70.5t-72 184.5q0 120 72.5 192.5t179.5 72.5q100 0 168.5 -65t68.5 -192q0 -9 -2 -37h-360q4 -55 38.5 -89.5t91.5 -34.5q89 0 110 66zM293 408q-50 0 -83.5 -30t-40.5 -76h239
q-2 47 -34 76.5t-81 29.5z" />
    <glyph glyph-name="eogonek.ss01" horiz-adv-x="575" 
d="M370 -2q-69 -27 -69 -78q0 -46 61 -46q24 0 46 6v-40q-17 -7 -47 -7q-46 0 -76.5 20.5t-30.5 63.5q0 45 46 73h-2q-113 0 -185 70.5t-72 184.5q0 120 72.5 192.5t179.5 72.5q100 0 168.5 -65t68.5 -192q0 -9 -2 -37h-360q4 -55 38.5 -89.5t91.5 -34.5q89 0 110 66h123
q-12 -62 -54 -103.5t-107 -56.5zM293 408q-50 0 -83.5 -30t-40.5 -76h239q-2 47 -34 76.5t-81 29.5z" />
    <glyph glyph-name="uni1EBD.ss01" horiz-adv-x="575" 
d="M229 621q-45 0 -51 -58h-46q5 44 28 73.5t64 29.5q32 0 55 -16t41 -32.5t38 -16.5q44 0 52 57h44q-3 -43 -27 -73t-64 -30q-32 0 -55 16.5t-41.5 33t-37.5 16.5zM408 158h123q-15 -78 -76.5 -123t-156.5 -45q-113 0 -185 70.5t-72 184.5q0 120 72.5 192.5t179.5 72.5
q100 0 168.5 -65t68.5 -192q0 -9 -2 -37h-360q4 -55 38.5 -89.5t91.5 -34.5q89 0 110 66zM293 408q-50 0 -83.5 -30t-40.5 -76h239q-2 47 -34 76.5t-81 29.5z" />
    <glyph glyph-name="aacute.fina.ss01" horiz-adv-x="547" 
d="M357 700l-68 -145h-51l64 145h55zM532 88q16 0 34 6v-88q-30 -11 -67 -11q-92 0 -122 68q-54 -73 -167 -73q-80 0 -128.5 37.5t-48.5 109.5q0 68 45.5 106.5t119.5 45.5l156 16v21q0 40 -23 61t-61 21q-77 0 -90 -75h-128q8 80 66 128.5t152 48.5t153 -48.5t59 -144.5
v-177q0 -52 50 -52zM354 193v24l-112 -12q-81 -9 -81 -63t71 -54q48 0 85 25.5t37 79.5z" />
    <glyph glyph-name="abreve.fina.ss01" horiz-adv-x="547" 
d="M264 577q-59 0 -92 38.5t-33 84.5h50q0 -36 20.5 -58t54.5 -22t53.5 22t19.5 58h50q0 -46 -32 -84.5t-91 -38.5zM532 88q16 0 34 6v-88q-30 -11 -67 -11q-92 0 -122 68q-54 -73 -167 -73q-80 0 -128.5 37.5t-48.5 109.5q0 68 45.5 106.5t119.5 45.5l156 16v21
q0 40 -23 61t-61 21q-77 0 -90 -75h-128q8 80 66 128.5t152 48.5t153 -48.5t59 -144.5v-177q0 -52 50 -52zM354 193v24l-112 -12q-81 -9 -81 -63t71 -54q48 0 85 25.5t37 79.5z" />
    <glyph glyph-name="uni01CE.fina.ss01" horiz-adv-x="547" 
d="M291 568h-55l-111 132h61l76 -91h3l75 91h61zM532 88q16 0 34 6v-88q-30 -11 -67 -11q-92 0 -122 68q-54 -73 -167 -73q-80 0 -128.5 37.5t-48.5 109.5q0 68 45.5 106.5t119.5 45.5l156 16v21q0 40 -23 61t-61 21q-77 0 -90 -75h-128q8 80 66 128.5t152 48.5t153 -48.5
t59 -144.5v-177q0 -52 50 -52zM354 193v24l-112 -12q-81 -9 -81 -63t71 -54q48 0 85 25.5t37 79.5z" />
    <glyph glyph-name="acircumflex.fina.ss01" horiz-adv-x="547" 
d="M261 659l-75 -91h-60l109 132h55l111 -132h-61l-76 91h-3zM532 88q16 0 34 6v-88q-30 -11 -67 -11q-92 0 -122 68q-54 -73 -167 -73q-80 0 -128.5 37.5t-48.5 109.5q0 68 45.5 106.5t119.5 45.5l156 16v21q0 40 -23 61t-61 21q-77 0 -90 -75h-128q8 80 66 128.5t152 48.5
t153 -48.5t59 -144.5v-177q0 -52 50 -52zM354 193v24l-112 -12q-81 -9 -81 -63t71 -54q48 0 85 25.5t37 79.5z" />
    <glyph glyph-name="agrave.fina.ss01" horiz-adv-x="547" 
d="M289 555h-51l-68 145h55zM532 88q16 0 34 6v-88q-30 -11 -67 -11q-92 0 -122 68q-54 -73 -167 -73q-80 0 -128.5 37.5t-48.5 109.5q0 68 45.5 106.5t119.5 45.5l156 16v21q0 40 -23 61t-61 21q-77 0 -90 -75h-128q8 80 66 128.5t152 48.5t153 -48.5t59 -144.5v-177
q0 -52 50 -52zM354 193v24l-112 -12q-81 -9 -81 -63t71 -54q48 0 85 25.5t37 79.5z" />
    <glyph glyph-name="amacron.fina.ss01" horiz-adv-x="547" 
d="M425 635v-43h-323v43h323zM532 88q16 0 34 6v-88q-30 -11 -67 -11q-92 0 -122 68q-54 -73 -167 -73q-80 0 -128.5 37.5t-48.5 109.5q0 68 45.5 106.5t119.5 45.5l156 16v21q0 40 -23 61t-61 21q-77 0 -90 -75h-128q8 80 66 128.5t152 48.5t153 -48.5t59 -144.5v-177
q0 -52 50 -52zM354 193v24l-112 -12q-81 -9 -81 -63t71 -54q48 0 85 25.5t37 79.5z" />
    <glyph glyph-name="aring.fina.ss01" horiz-adv-x="547" 
d="M264 550q-38 0 -66 25.5t-28 64.5t28 64.5t66 25.5t65 -25.5t27 -64.5t-27 -64.5t-65 -25.5zM264 691q-21 0 -36 -14.5t-15 -35.5q0 -23 15 -37.5t36 -14.5t35.5 14.5t14.5 37.5q0 21 -14.5 35.5t-35.5 14.5zM532 88q16 0 34 6v-88q-30 -11 -67 -11q-92 0 -122 68
q-54 -73 -167 -73q-80 0 -128.5 37.5t-48.5 109.5q0 68 45.5 106.5t119.5 45.5l156 16v21q0 40 -23 61t-61 21q-77 0 -90 -75h-128q8 80 66 128.5t152 48.5t153 -48.5t59 -144.5v-177q0 -52 50 -52zM354 193v24l-112 -12q-81 -9 -81 -63t71 -54q48 0 85 25.5t37 79.5z" />
    <glyph glyph-name="atilde.fina.ss01" horiz-adv-x="547" 
d="M200 621q-45 0 -51 -58h-46q5 44 28 73.5t64 29.5q32 0 55 -16t41 -32.5t38 -16.5q44 0 52 57h44q-3 -43 -27 -73t-64 -30q-32 0 -55 16.5t-41.5 33t-37.5 16.5zM532 88q16 0 34 6v-88q-30 -11 -67 -11q-92 0 -122 68q-54 -73 -167 -73q-80 0 -128.5 37.5t-48.5 109.5
q0 68 45.5 106.5t119.5 45.5l156 16v21q0 40 -23 61t-61 21q-77 0 -90 -75h-128q8 80 66 128.5t152 48.5t153 -48.5t59 -144.5v-177q0 -52 50 -52zM354 193v24l-112 -12q-81 -9 -81 -63t71 -54q48 0 85 25.5t37 79.5z" />
    <glyph glyph-name="uni01F5.ss01" horiz-adv-x="557" 
d="M373 700l-68 -145h-51l64 145h55zM540 486q-29 -30 -81 -55q32 -41 32 -94q0 -78 -59 -123t-151 -45q-45 0 -84 11q-24 -12 -24 -33q0 -38 66 -38h98q88 0 135 -39.5t47 -108.5q0 -80 -63 -125.5t-172 -45.5q-112 0 -173.5 47.5t-69.5 120.5l76 67q-57 31 -57 92t67 98
q-59 46 -59 122q0 75 56.5 124t150.5 49q66 0 116 -25q53 27 86 71zM281 262q40 0 64 21.5t24 55.5q0 35 -23.5 57t-64.5 22t-66 -22t-25 -57q0 -34 25 -55.5t66 -21.5zM397 -46q0 29 -22 42t-54 13h-91l-66 -56q9 -29 39.5 -48t81.5 -19q49 0 80.5 17.5t31.5 50.5z" />
    <glyph glyph-name="gbreve.ss01" horiz-adv-x="557" 
d="M280 577q-59 0 -92 38.5t-33 84.5h50q0 -36 20.5 -58t54.5 -22t53.5 22t19.5 58h50q0 -46 -32 -84.5t-91 -38.5zM540 486q-29 -30 -81 -55q32 -41 32 -94q0 -78 -59 -123t-151 -45q-45 0 -84 11q-24 -12 -24 -33q0 -38 66 -38h98q88 0 135 -39.5t47 -108.5
q0 -80 -63 -125.5t-172 -45.5q-112 0 -173.5 47.5t-69.5 120.5l76 67q-57 31 -57 92t67 98q-59 46 -59 122q0 75 56.5 124t150.5 49q66 0 116 -25q53 27 86 71zM281 262q40 0 64 21.5t24 55.5q0 35 -23.5 57t-64.5 22t-66 -22t-25 -57q0 -34 25 -55.5t66 -21.5zM397 -46
q0 29 -22 42t-54 13h-91l-66 -56q9 -29 39.5 -48t81.5 -19q49 0 80.5 17.5t31.5 50.5z" />
    <glyph glyph-name="gcaron.ss01" horiz-adv-x="557" 
d="M308 568h-55l-111 132h61l76 -91h3l75 91h61zM540 486q-29 -30 -81 -55q32 -41 32 -94q0 -78 -59 -123t-151 -45q-45 0 -84 11q-24 -12 -24 -33q0 -38 66 -38h98q88 0 135 -39.5t47 -108.5q0 -80 -63 -125.5t-172 -45.5q-112 0 -173.5 47.5t-69.5 120.5l76 67
q-57 31 -57 92t67 98q-59 46 -59 122q0 75 56.5 124t150.5 49q66 0 116 -25q53 27 86 71zM281 262q40 0 64 21.5t24 55.5q0 35 -23.5 57t-64.5 22t-66 -22t-25 -57q0 -34 25 -55.5t66 -21.5zM397 -46q0 29 -22 42t-54 13h-91l-66 -56q9 -29 39.5 -48t81.5 -19
q49 0 80.5 17.5t31.5 50.5z" />
    <glyph glyph-name="gcircumflex.ss01" horiz-adv-x="557" 
d="M278 659l-75 -91h-60l109 132h55l111 -132h-61l-76 91h-3zM540 486q-29 -30 -81 -55q32 -41 32 -94q0 -78 -59 -123t-151 -45q-45 0 -84 11q-24 -12 -24 -33q0 -38 66 -38h98q88 0 135 -39.5t47 -108.5q0 -80 -63 -125.5t-172 -45.5q-112 0 -173.5 47.5t-69.5 120.5
l76 67q-57 31 -57 92t67 98q-59 46 -59 122q0 75 56.5 124t150.5 49q66 0 116 -25q53 27 86 71zM281 262q40 0 64 21.5t24 55.5q0 35 -23.5 57t-64.5 22t-66 -22t-25 -57q0 -34 25 -55.5t66 -21.5zM397 -46q0 29 -22 42t-54 13h-91l-66 -56q9 -29 39.5 -48t81.5 -19
q49 0 80.5 17.5t31.5 50.5z" />
    <glyph glyph-name="uni0123.ss01" horiz-adv-x="557" 
d="M282 551q-39 0 -61 28t-22 71q0 104 130 175l24 -32q-2 -2 -13.5 -9.5t-14.5 -10t-12.5 -9.5t-13 -10t-10.5 -9.5t-10.5 -11t-8.5 -11t-8 -12.5t-5 -13q12 4 30 4q34 0 54 -21.5t20 -51.5q0 -36 -22 -56.5t-57 -20.5zM540 486q-29 -30 -81 -55q32 -41 32 -94
q0 -78 -59 -123t-151 -45q-45 0 -84 11q-24 -12 -24 -33q0 -38 66 -38h98q88 0 135 -39.5t47 -108.5q0 -80 -63 -125.5t-172 -45.5q-112 0 -173.5 47.5t-69.5 120.5l76 67q-57 31 -57 92t67 98q-59 46 -59 122q0 75 56.5 124t150.5 49q66 0 116 -25q53 27 86 71zM281 262
q40 0 64 21.5t24 55.5q0 35 -23.5 57t-64.5 22t-66 -22t-25 -57q0 -34 25 -55.5t66 -21.5zM397 -46q0 29 -22 42t-54 13h-91l-66 -56q9 -29 39.5 -48t81.5 -19q49 0 80.5 17.5t31.5 50.5z" />
    <glyph glyph-name="hbar.ss01" horiz-adv-x="588" 
d="M338 510q90 0 142.5 -55t52.5 -152v-303h-128v277q0 59 -30 90.5t-77 31.5q-49 0 -82 -32.5t-33 -95.5v-271h-128v578h-102v44h102v88h128v-88h131v-44h-131v-137h8q53 69 147 69z" />
    <glyph glyph-name="uni1E29.ss01" horiz-adv-x="588" 
d="M338 510q90 0 142.5 -55t52.5 -152v-303h-128v277q0 59 -30 90.5t-77 31.5q-49 0 -82 -32.5t-33 -95.5v-271h-37l-33 -44q38 2 69.5 -20.5t31.5 -63.5q0 -37 -26.5 -59.5t-72.5 -22.5q-40 0 -68 20l15 33q28 -14 51 -14q25 0 40.5 13t15.5 33q0 47 -60 47q-17 0 -37 -9
l-23 21l49 66h-43v710h128v-269h8q53 69 147 69z" />
    <glyph glyph-name="hcircumflex.ss01" horiz-adv-x="588" 
d="M45 768h-60l109 132h55l111 -132h-61l-76 91h-3zM338 510q90 0 142.5 -55t52.5 -152v-303h-128v277q0 59 -30 90.5t-77 31.5q-49 0 -82 -32.5t-33 -95.5v-271h-128v710h128v-269h8q53 69 147 69z" />
    <glyph glyph-name="iacute.ss01" horiz-adv-x="238" 
d="M158 700h55l-68 -145h-51zM55 0v500h128v-500h-128z" />
    <glyph glyph-name="ibreve.ss01" horiz-adv-x="238" 
d="M242 700q0 -46 -32 -84.5t-91 -38.5t-92 38.5t-33 84.5h50q0 -36 20.5 -58t54.5 -22t53.5 22t19.5 58h50zM55 0v500h128v-500h-128z" />
    <glyph glyph-name="uni01D0.ss01" horiz-adv-x="238" 
d="M196 700h61l-110 -132h-55l-111 132h61l76 -91h3zM55 0v500h128v-500h-128z" />
    <glyph glyph-name="icircumflex.ss01" horiz-adv-x="238" 
d="M42 568h-60l109 132h55l111 -132h-61l-76 91h-3zM55 0v500h128v-500h-128z" />
    <glyph glyph-name="igrave.ss01" horiz-adv-x="238" 
d="M81 700l64 -145h-51l-68 145h55zM55 0v500h128v-500h-128z" />
    </font>
</defs>
</svg>
