<?xml version="1.0" standalone="no"?>
<!DOCTYPE svg PUBLIC "-//W3C//DTD SVG 1.1//EN" "http://www.w3.org/Graphics/SVG/1.1/DTD/svg11.dtd" >
<svg xmlns="http://www.w3.org/2000/svg" xmlns:xlink="http://www.w3.org/1999/xlink" version="1.1">
<metadata>
Created by FontForge 20170731 at Wed Jan  2 22:30:04 2019
 By Aleksey,,,
(c) TIGHTYPE 2019
</metadata>
<defs>
<font id="Moderat-Light" horiz-adv-x="540" >
  <font-face 
    font-family="Moderat Light"
    font-weight="300"
    font-stretch="normal"
    units-per-em="1000"
    panose-1="0 0 4 0 0 0 0 0 0 0"
    ascent="800"
    descent="-200"
    x-height="500"
    cap-height="700"
    bbox="-130 -270 1123 930"
    underline-thickness="50"
    underline-position="-150"
    unicode-range="U+0020-2793"
  />
<missing-glyph horiz-adv-x="865" 
d="M793 350q0 -150 -105 -255t-255 -105t-255 106t-105 254q0 149 105.5 254.5t254.5 105.5q151 0 255.5 -105.5t104.5 -254.5zM245 533v-45h44v-128h46v128h44v45h-134zM487 533v-45h45v-128h45v128h45v45h-135zM433 81q109 0 187 76t81 183l-46 8q0 -92 -65 -156.5
t-157 -64.5q-91 0 -156 64.5t-65 156.5l-46 -8q3 -107 81 -183t186 -76z" />
    <glyph glyph-name="arrowleft" unicode="&#x3c;&#x2d;" horiz-adv-x="813" 
d="M769 380v-60h-631l223 -222l-46 -44l-286 293v6l286 293l46 -44l-225 -222h633z" />
    <glyph glyph-name="arrowright" unicode="&#x2d;&#x3e;" horiz-adv-x="813" 
d="M498 646l286 -293v-6l-286 -293l-46 44l223 222h-631v60h633l-225 222z" />
    <glyph glyph-name="f_f" unicode="ff" horiz-adv-x="637" 
d="M493 588v-88h114v-55h-114v-445h-67v445h-237v-445h-66v445h-101v55h101v97q0 54 32 83.5t88 29.5q30 0 62 -12l-13 -52q-20 7 -39 7q-64 0 -64 -65v-88h237v97q0 53 32.5 83t87.5 30q37 0 69 -14l-13 -51q-21 8 -46 8q-63 0 -63 -65z" />
    <glyph glyph-name="f_f_i" unicode="ffi" horiz-adv-x="869" 
d="M792 500v-500h-67v445h-230v-445h-67v445h-239v-445h-66v445h-101v55h101v97q0 54 32 83.5t88 29.5q30 0 62 -12l-13 -52q-20 7 -39 7q-64 0 -64 -65v-88h239v97q0 53 32.5 83t87.5 30q32 0 62 -12l-12 -52q-20 7 -39 7q-64 0 -64 -65v-88h297zM759 683q20 0 34 -14
t14 -33q0 -20 -14 -34t-34 -14t-34 14t-14 34q0 19 14 33t34 14z" />
    <glyph glyph-name="f_f_j" unicode="ffj" horiz-adv-x="867" 
d="M733 500v-55h-240v-445h-67v445h-237v-445h-66v445h-101v55h101v97q0 54 32 83.5t88 29.5q30 0 62 -12l-13 -52q-20 7 -39 7q-64 0 -64 -65v-88h237v97q0 53 32.5 83t87.5 30q32 0 62 -12l-12 -52q-20 7 -39 7q-64 0 -64 -65v-88h240zM770 683q20 0 33.5 -13.5
t13.5 -33.5t-13.5 -34t-33.5 -14t-34.5 14t-14.5 34q0 19 14.5 33t34.5 14zM736 -90v590h66v-599q0 -50 -27 -80.5t-86 -30.5q-29 0 -66 10v54q26 -8 49 -8q64 0 64 64z" />
    <glyph glyph-name="f_i" unicode="fi" horiz-adv-x="563" 
d="M487 500v-500h-67v445h-231v-445h-66v445h-101v55h101v97q0 54 32 83.5t88 29.5q30 0 62 -12l-13 -52q-20 7 -39 7q-64 0 -64 -65v-88h298zM454 588q-20 0 -34.5 14t-14.5 34q0 19 14.5 33t34.5 14t33.5 -13.5t13.5 -33.5t-13.5 -34t-33.5 -14z" />
    <glyph glyph-name="f_j" unicode="fj" horiz-adv-x="563" 
d="M430 500v-55h-241v-445h-66v445h-101v55h101v97q0 54 32 83.5t88 29.5q30 0 62 -12l-13 -52q-20 7 -39 7q-64 0 -64 -65v-88h241zM466 683q20 0 34 -14t14 -33q0 -20 -14 -34t-34 -14t-34 14t-14 34q0 19 14 33t34 14zM432 -90v590h67v-599q0 -50 -27.5 -80.5
t-86.5 -30.5q-26 0 -66 10v54q26 -8 50 -8q63 0 63 64z" />
    <glyph glyph-name=".notdef" horiz-adv-x="865" 
d="M793 350q0 -150 -105 -255t-255 -105t-255 106t-105 254q0 149 105.5 254.5t254.5 105.5q151 0 255.5 -105.5t104.5 -254.5zM245 533v-45h44v-128h46v128h44v45h-134zM487 533v-45h45v-128h45v128h45v45h-135zM433 81q109 0 187 76t81 183l-46 8q0 -92 -65 -156.5
t-157 -64.5q-91 0 -156 64.5t-65 156.5l-46 -8q3 -107 81 -183t186 -76z" />
    <glyph glyph-name=".null" horiz-adv-x="0" 
 />
    <glyph glyph-name="nonmarkingreturn" horiz-adv-x="333" 
 />
    <glyph glyph-name="space" unicode=" " horiz-adv-x="270" 
 />
    <glyph glyph-name="exclam" unicode="!" horiz-adv-x="265" 
d="M96 700h73l-12 -512h-48zM133 -5q-21 0 -36 15t-15 35q0 22 15 37t36 15t35.5 -15t14.5 -37q0 -20 -14.5 -35t-35.5 -15z" />
    <glyph glyph-name="quotedbl" unicode="&#x22;" horiz-adv-x="338" 
d="M123 599l-12 -139h-35l-13 140q-5 50 -5 62q0 43 34 43q36 0 36 -43q0 -10 -5 -63zM276 599l-13 -139h-35l-13 140q-5 50 -5 62q0 43 35 43t35 -43q0 -21 -4 -63z" />
    <glyph glyph-name="numbersign" unicode="#" horiz-adv-x="687" 
d="M643 411h-111l-39 -183h96v-55h-108l-38 -173h-63l38 173h-213l-38 -173h-62l38 173h-99v55h111l39 183h-96v55h108l38 174h62l-38 -174h213l38 174h63l-38 -174h99v-55zM430 228l39 183h-213l-39 -183h213z" />
    <glyph glyph-name="dollar" unicode="$" horiz-adv-x="574" 
d="M340 344q82 -29 120 -74t38 -114q0 -74 -50 -116.5t-128 -48.5v-81h-59v81q-84 8 -133 55.5t-55 131.5h71q13 -113 117 -128v256l-20 7q-73 26 -111 64.5t-38 103.5q0 68 47 113t122 54v82h59v-81q79 -7 127 -54.5t52 -122.5h-66q-12 104 -113 117v-238zM162 485
q0 -41 24 -67t75 -46v216q-45 -8 -72 -36.5t-27 -66.5zM320 50q47 6 77 32.5t30 71.5q0 90 -107 131v-235z" />
    <glyph glyph-name="percent" unicode="%" horiz-adv-x="782" 
d="M223 350q-61 0 -105.5 44t-44.5 106t44.5 106t105.5 44t105.5 -44.5t44.5 -105.5t-44.5 -105.5t-105.5 -44.5zM645 640l-436 -640h-78l436 640h78zM223 409q39 0 64.5 25.5t25.5 65.5q0 39 -25.5 64.5t-64.5 25.5t-64.5 -25.5t-25.5 -64.5q0 -40 25.5 -65.5t64.5 -25.5z
M559 -10q-61 0 -105.5 44t-44.5 106t44.5 106t105.5 44q62 0 106.5 -44.5t44.5 -105.5t-44.5 -105.5t-106.5 -44.5zM559 50q40 0 65.5 25.5t25.5 64.5q0 40 -25.5 65.5t-65.5 25.5q-39 0 -64.5 -25.5t-25.5 -65.5q0 -39 26 -64.5t64 -25.5z" />
    <glyph glyph-name="ampersand" unicode="&#x26;" horiz-adv-x="683" 
d="M651 0h-78l-105 110q-90 -120 -212 -120q-79 0 -131 44.5t-52 115.5q0 66 33 109t93 85l29 21q-25 26 -32 33t-27.5 31.5t-28 39t-15 38.5t-7.5 47q0 63 49.5 109.5t127.5 46.5t127.5 -42.5t49.5 -109.5q0 -52 -31 -92t-91 -84l-35 -26l143 -152l87 130h71l-114 -176z
M273 401l2 -2l34 24q46 33 72.5 64.5t26.5 70.5q0 43 -32.5 69t-79.5 26q-51 0 -82 -28.5t-31 -72.5q0 -37 19.5 -68t70.5 -83zM257 49q95 0 169 106l-157 167l-32 -24q-48 -35 -73 -67.5t-25 -76.5t34 -74.5t84 -30.5z" />
    <glyph glyph-name="quotesingle" unicode="'" horiz-adv-x="186" 
d="M123 599l-12 -139h-35l-13 140q-5 50 -5 62q0 43 34 43q36 0 36 -43q0 -10 -5 -63z" />
    <glyph glyph-name="parenleft" unicode="(" horiz-adv-x="301" 
d="M272 -133l-42 -32q-70 83 -113.5 204.5t-43.5 270.5q0 150 43.5 271.5t113.5 204.5l42 -32q-140 -178 -140 -444q0 -264 140 -443z" />
    <glyph glyph-name="parenright" unicode=")" horiz-adv-x="301" 
d="M29 -133q140 179 140 443q0 266 -140 444l42 32q70 -83 114 -205t44 -271t-44 -270.5t-114 -204.5z" />
    <glyph glyph-name="asterisk" unicode="*" horiz-adv-x="422" 
d="M365 597l-109 -60l109 -60l-25 -43l-106 64l2 -124h-49l1 124l-106 -64l-24 43l108 60l-108 60l24 43l107 -64l-2 124h49l-2 -124l106 64z" />
    <glyph glyph-name="plus" unicode="+" 
d="M485 309v-58h-185v-191h-61v191h-186v58h186v191h61v-191h185z" />
    <glyph glyph-name="comma" unicode="," horiz-adv-x="242" 
d="M123 94q25 0 39 -19t14 -48q0 -49 -25.5 -86.5t-61.5 -59.5l-21 27q50 42 51 87q-20 -2 -34 11.5t-14 35.5t14.5 37t37.5 15z" />
    <glyph glyph-name="hyphen" unicode="-" horiz-adv-x="449" 
d="M44 340h361v-58h-361v58z" />
    <glyph glyph-name="period" unicode="." horiz-adv-x="233" 
d="M117 -5q-21 0 -36 15t-15 35q0 22 15 37t36 15t35.5 -15t14.5 -37q0 -20 -14.5 -35t-35.5 -15z" />
    <glyph glyph-name="slash" unicode="/" horiz-adv-x="488" 
d="M459 750l-363 -800h-67l364 800h66z" />
    <glyph glyph-name="zero" unicode="0" horiz-adv-x="596" 
d="M299 -10q-103 0 -164.5 83t-61.5 248q0 163 61.5 246.5t164.5 83.5t164 -84t61 -248q0 -165 -61 -247t-164 -82zM298 51q70 0 113 68t43 201t-43.5 201.5t-112.5 68.5t-112 -68t-43 -202q0 -133 43 -201t112 -68z" />
    <glyph glyph-name="one" unicode="1" horiz-adv-x="356" 
d="M191 0v476h-118v55h56q33 0 51 20t18 53v36h62v-640h-69z" />
    <glyph glyph-name="two" unicode="2" horiz-adv-x="545" 
d="M253 219q-98 -71 -105 -160h320v-59h-395v31q0 139 134 234l93 66q33 24 51 39.5t35.5 45t17.5 62.5q0 50 -33 81.5t-87 31.5q-64 0 -101 -43t-41 -95h-69q6 82 62 140t150 58q84 0 135.5 -47t51.5 -124q0 -106 -113 -184z" />
    <glyph glyph-name="three" unicode="3" horiz-adv-x="562" 
d="M379 330q49 -15 79.5 -56t30.5 -101q0 -81 -58.5 -132t-153.5 -51q-89 0 -143 47t-61 131h67q7 -52 40.5 -86t95.5 -34q63 0 104 35.5t41 91.5q0 54 -36.5 89t-99.5 35h-58v58h54q53 0 85 32.5t32 85.5t-33 86t-88 33q-49 0 -85 -29t-45 -80h-66q6 75 64 120.5t135 45.5
q81 0 133.5 -48.5t52.5 -127.5q0 -95 -87 -141v-4z" />
    <glyph glyph-name="four" unicode="4" horiz-adv-x="553" 
d="M510 203v-54h-112v-149h-64v149h-290v34l280 457h74v-437h112zM124 203h210v344h-6z" />
    <glyph glyph-name="five" unicode="5" horiz-adv-x="560" 
d="M289 407q89 0 143.5 -59t54.5 -150q0 -95 -59 -151.5t-155 -56.5q-90 0 -142.5 51t-57.5 134h64q5 -61 42 -95t96 -34q65 0 105.5 40.5t40.5 110.5q0 68 -38.5 112t-102.5 44q-44 0 -80.5 -20.5t-56.5 -56.5l-58 12l35 352h340v-58h-282l-23 -225q52 50 134 50z" />
    <glyph glyph-name="six" unicode="6" horiz-adv-x="532" 
d="M277 401q87 0 142.5 -56.5t55.5 -144.5q0 -91 -58 -150.5t-152 -59.5q-93 0 -150 59t-57 156q0 58 19 105.5t54 104.5l141 225h83l-170 -260q39 21 92 21zM266 48q65 0 103 44t38 109q0 62 -37.5 104t-102.5 42t-103 -42t-38 -104q0 -65 38.5 -109t101.5 -44z" />
    <glyph glyph-name="seven" unicode="7" horiz-adv-x="527" 
d="M73 640h411v-38q-118 -135 -175.5 -268t-71.5 -334h-69q14 195 66.5 326t147.5 251v4h-309v59z" />
    <glyph glyph-name="eight" unicode="8" horiz-adv-x="567" 
d="M380 340q48 -18 81 -62t33 -106q0 -80 -58 -131t-152 -51t-152.5 51.5t-58.5 131.5q0 61 33.5 105.5t80.5 61.5v4q-40 17 -65.5 52t-25.5 88q0 76 54 121.5t135 45.5q80 0 133.5 -45.5t53.5 -121.5q0 -52 -26.5 -87.5t-65.5 -52.5v-4zM284 598q-52 0 -86 -30.5t-34 -84.5
q0 -53 35 -84t85 -31t84.5 31t34.5 84t-33.5 84t-85.5 31zM284 45q60 0 100.5 35.5t40.5 93.5t-38 97t-104 39q-67 0 -104 -39t-37 -95q0 -60 41 -95.5t101 -35.5z" />
    <glyph glyph-name="nine" unicode="9" horiz-adv-x="532" 
d="M267 650q93 0 150.5 -59t57.5 -156q0 -58 -19 -105t-55 -105l-141 -225h-83l170 260q-39 -21 -92 -21q-87 0 -142 56t-55 145q0 91 57.5 150.5t151.5 59.5zM265 293q65 0 103 42t38 104q0 65 -38 109t-102 44t-102.5 -44t-38.5 -109q0 -62 37.5 -104t102.5 -42z" />
    <glyph glyph-name="colon" unicode=":" horiz-adv-x="233" 
d="M117 403q-21 0 -36 15t-15 35q0 22 15 37t36 15t35.5 -15t14.5 -37q0 -20 -14.5 -35t-35.5 -15zM117 -5q-21 0 -36 15t-15 35q0 22 15 37t36 15t35.5 -15t14.5 -37q0 -20 -14.5 -35t-35.5 -15z" />
    <glyph glyph-name="semicolon" unicode=";" horiz-adv-x="242" 
d="M125 403q-21 0 -36.5 15t-15.5 35q0 22 15.5 37t36.5 15t35.5 -15t14.5 -37q0 -20 -15 -35t-35 -15zM123 94q25 0 39 -19t14 -48q0 -49 -25.5 -86.5t-61.5 -59.5l-21 27q50 42 51 87q-20 -2 -34 11.5t-14 35.5t14.5 37t37.5 15z" />
    <glyph glyph-name="less" unicode="&#x3c;" 
d="M454 547v-70l-301 -189v-4l301 -192v-70l-368 227v72z" />
    <glyph glyph-name="equal" unicode="=" 
d="M58 417h424v-57h-424v57zM58 200h424v-57h-424v57z" />
    <glyph glyph-name="greater" unicode="&#x3e;" 
d="M86 547l368 -226v-72l-368 -227v70l301 192v4l-301 189v70z" />
    <glyph glyph-name="question" unicode="?" horiz-adv-x="449" 
d="M164 241q0 63 17 103t65 80q48 39 65 63t17 62q0 46 -27 74t-80 28q-55 0 -82 -34t-32 -79h-63q1 29 10.5 57.5t29 55t55 43t82.5 16.5q80 0 125 -43t45 -116q0 -53 -23 -87.5t-75 -76.5q-37 -29 -51 -64.5t-14 -86.5v-48h-64v53zM198 -5q-21 0 -36 15t-15 35q0 22 15 37
t36 15t35.5 -15t14.5 -37q0 -20 -14.5 -35t-35.5 -15z" />
    <glyph glyph-name="at" unicode="@" horiz-adv-x="1009" 
d="M501 710q188 0 311.5 -119.5t123.5 -318.5q0 -137 -43 -201.5t-129 -64.5q-49 0 -84.5 23.5t-42.5 66.5q-18 -36 -60 -63t-100 -27q-83 0 -142.5 64.5t-59.5 170.5q0 107 58.5 175t144.5 68q101 0 144 -80h6l9 74h53v-331q0 -42 22 -63.5t58 -21.5q105 0 105 207
q0 179 -105 281.5t-272 102.5q-153 0 -259 -116t-106 -297q0 -119 55 -210t140.5 -136.5t185.5 -45.5q121 0 209 60l28 -49q-103 -69 -241 -69q-69 0 -134 19.5t-120 58t-96 92t-64 126t-23 155.5q0 211 124 340t304 129zM485 67q62 0 103.5 49t41.5 129t-41.5 129
t-103.5 49t-103.5 -49t-41.5 -129t41.5 -129t103.5 -49z" />
    <glyph glyph-name="A" unicode="A" horiz-adv-x="627" 
d="M523 0l-68 203h-284l-68 -203h-74l241 700h87l241 -700h-75zM192 264h242l-118 353h-6z" />
    <glyph glyph-name="B" unicode="B" horiz-adv-x="603" 
d="M428 364q117 -45 117 -174q0 -90 -54.5 -140t-151.5 -50h-243v700h239q95 0 144 -46.5t49 -127.5q0 -114 -100 -158v-4zM164 640v-250h165q62 0 96 35t34 94q0 58 -34.5 89.5t-92.5 31.5h-168zM334 60q65 0 103 35.5t38 96.5q0 62 -39 100.5t-103 38.5h-169v-271h170z
" />
    <glyph glyph-name="C" unicode="C" horiz-adv-x="746" 
d="M689 207q-20 -97 -100 -157t-192 -60q-145 0 -234.5 99.5t-89.5 256.5q0 159 89 261.5t234 102.5q109 0 186 -59.5t96 -163.5h-73q-18 73 -72.5 115.5t-134.5 42.5q-115 0 -185 -86t-70 -213t70.5 -209t183.5 -82q81 0 139 41.5t80 110.5h73z" />
    <glyph glyph-name="D" unicode="D" horiz-adv-x="699" 
d="M298 700q162 0 245.5 -94.5t83.5 -256.5q0 -158 -82 -253.5t-247 -95.5h-202v700h202zM294 64q137 0 199.5 77.5t62.5 209.5q0 131 -62.5 208t-199.5 77h-129v-572h129z" />
    <glyph glyph-name="E" unicode="E" horiz-adv-x="585" 
d="M164 63h368v-63h-436v700h426v-63h-358v-251h319v-62h-319v-261z" />
    <glyph glyph-name="F" unicode="F" horiz-adv-x="546" 
d="M502 635h-337v-254h296v-62h-296v-319h-69v700h406v-65z" />
    <glyph glyph-name="G" unicode="G" horiz-adv-x="780" 
d="M397 356h287v-356h-55l-9 87h-6q-88 -97 -226 -97q-144 0 -229.5 97.5t-85.5 252.5q0 160 92.5 265t241.5 105q109 0 182.5 -55.5t91.5 -145.5h-73q-19 62 -71 99t-130 37q-118 0 -191 -85.5t-73 -218.5q0 -126 67.5 -206.5t182.5 -80.5q92 0 157.5 48.5t65.5 138.5v57
h-219v58z" />
    <glyph glyph-name="H" unicode="H" horiz-adv-x="696" 
d="M531 700h69v-700h-69v322h-366v-322h-69v700h69v-315h366v315z" />
    <glyph glyph-name="I" unicode="I" horiz-adv-x="262" 
d="M165 700v-700h-69v700h69z" />
    <glyph glyph-name="J" unicode="J" horiz-adv-x="533" 
d="M116 195q2 -60 35.5 -100t90.5 -40t91.5 38.5t34.5 116.5v490h69v-495q0 -104 -54 -159.5t-141 -55.5q-92 0 -143 56t-55 149h72z" />
    <glyph glyph-name="K" unicode="K" horiz-adv-x="608" 
d="M496 0l-275 327h-56v-327h-69v700h69v-309h56l251 309h83l-273 -338v-4l298 -358h-84z" />
    <glyph glyph-name="L" unicode="L" horiz-adv-x="573" 
d="M164 64h365v-64h-433v700h68v-636z" />
    <glyph glyph-name="M" unicode="M" horiz-adv-x="866" 
d="M770 700v-700h-68v575h-6l-222 -495h-79l-224 495h-7v-575h-68v700h92l243 -548h6l242 548h91z" />
    <glyph glyph-name="N" unicode="N" horiz-adv-x="742" 
d="M577 700h69v-700h-79l-397 586h-6v-586h-68v700h80l395 -585h6v585z" />
    <glyph glyph-name="O" unicode="O" horiz-adv-x="820" 
d="M410 -10q-145 0 -241 102.5t-96 257.5t96 257.5t241 102.5q144 0 240.5 -102.5t96.5 -257.5q0 -154 -96.5 -257t-240.5 -103zM410 55q115 0 191 84.5t76 210.5t-76.5 210.5t-190.5 84.5t-190.5 -84.5t-76.5 -210.5t76.5 -210.5t190.5 -84.5z" />
    <glyph glyph-name="P" unicode="P" horiz-adv-x="625" 
d="M341 700q96 0 154 -56t58 -148q0 -96 -59.5 -151.5t-160.5 -55.5h-170v-289h-67v700h245zM328 352q73 0 114 38t41 105q0 68 -41 105t-106 37h-173v-285h165z" />
    <glyph glyph-name="Q" unicode="Q" horiz-adv-x="820" 
d="M492 0q30 -61 114 -61q29 0 76 9v-55q-45 -10 -86 -10q-128 0 -170 107h-16q-145 0 -241 102.5t-96 257.5t96 257.5t241 102.5q144 0 240.5 -102.5t96.5 -257.5q0 -130 -71 -226t-184 -124zM143 350q0 -126 76.5 -210.5t190.5 -84.5q115 0 191 84.5t76 210.5t-76.5 210.5
t-190.5 84.5t-190.5 -84.5t-76.5 -210.5z" />
    <glyph glyph-name="R" unicode="R" horiz-adv-x="619" 
d="M576 0h-79l-185 305h-148v-305h-68v700h233q98 0 155.5 -52.5t57.5 -141.5q0 -76 -42.5 -125.5t-117.5 -64.5zM164 638v-272h154q72 0 113.5 38t41.5 100q0 64 -41.5 99t-113.5 35h-154z" />
    <glyph glyph-name="S" unicode="S" horiz-adv-x="605" 
d="M528 178q0 -92 -62 -140t-158 -48q-104 0 -165.5 52.5t-69.5 150.5h69q20 -141 166 -141q66 0 107.5 31t41.5 93q0 35 -13 61t-39 43.5t-46.5 26.5t-52.5 19l-36 11q-35 12 -58.5 22.5t-54.5 31.5t-47 54t-16 76q0 85 61.5 137t154.5 52q95 0 155 -54.5t65 -139.5h-69
q-6 58 -44.5 95t-105.5 37q-65 0 -106 -35t-41 -90q0 -30 12.5 -53t39.5 -38.5t44 -22.5t51 -18l31 -9q26 -8 43 -14.5t47 -24t48.5 -37t33 -53.5t14.5 -75z" />
    <glyph glyph-name="T" unicode="T" horiz-adv-x="568" 
d="M524 700v-64h-205v-636h-69v636h-206v64h480z" />
    <glyph glyph-name="U" unicode="U" horiz-adv-x="718" 
d="M622 700v-442q0 -129 -71.5 -198.5t-190.5 -69.5q-118 0 -191 70t-73 198v442h69v-434q0 -104 54 -157.5t142 -53.5q86 0 138.5 53.5t52.5 157.5v434h70z" />
    <glyph glyph-name="V" unicode="V" horiz-adv-x="646" 
d="M542 700h75l-251 -700h-87l-250 700h75l216 -610h6z" />
    <glyph glyph-name="W" unicode="W" horiz-adv-x="879" 
d="M783 700h67l-158 -700h-84l-166 559h-6l-165 -559h-84l-158 700h69l131 -605h6l164 553h82l161 -553h6z" />
    <glyph glyph-name="X" unicode="X" horiz-adv-x="593" 
d="M483 0l-182 300h-6l-183 -300h-83l221 361l-211 339h83l173 -280h6l173 280h80l-211 -339l221 -361h-81z" />
    <glyph glyph-name="Y" unicode="Y" horiz-adv-x="631" 
d="M517 700h85l-251 -358v-342h-70v342l-252 358h85l199 -282h6z" />
    <glyph glyph-name="Z" unicode="Z" horiz-adv-x="612" 
d="M175 64h360v-64h-462v38l364 594v4h-341v64h440v-38l-361 -594v-4z" />
    <glyph glyph-name="bracketleft" unicode="[" horiz-adv-x="288" 
d="M96 773h163v-53h-103v-836h103v-53h-163v942z" />
    <glyph glyph-name="backslash" unicode="\" horiz-adv-x="488" 
d="M29 750h66l364 -800h-67z" />
    <glyph glyph-name="bracketright" unicode="]" horiz-adv-x="288" 
d="M192 773v-942h-163v53h103v836h-103v53h163z" />
    <glyph glyph-name="asciicircum" unicode="^" 
d="M408 360l-135 273h-5l-137 -273h-71l167 340h86l167 -340h-72z" />
    <glyph glyph-name="underscore" unicode="_" horiz-adv-x="521" 
d="M44 0h433v-59h-433v59z" />
    <glyph glyph-name="grave" unicode="`" horiz-adv-x="321" 
d="M159 700l66 -145h-57l-72 145h63z" />
    <glyph glyph-name="a" unicode="a" horiz-adv-x="520" 
d="M474 53h13v-53h-33q-71 0 -82 66q-58 -76 -166 -76q-71 0 -115.5 35.5t-44.5 105.5q0 68 47.5 107t126.5 46l146 14v33q0 56 -29.5 89t-86.5 33q-98 0 -117 -105h-67q8 72 56.5 117t127.5 45q84 0 133.5 -47t49.5 -130v-237q0 -43 41 -43zM366 191v55l-128 -12
q-57 -5 -91 -31t-34 -71q0 -44 28 -65t72 -21q62 0 107.5 36t45.5 109z" />
    <glyph glyph-name="b" unicode="b" horiz-adv-x="596" 
d="M311 510q100 0 163.5 -71t63.5 -188t-63 -189t-164 -72q-108 0 -166 87h-6l-6 -77h-56v710h67v-287q53 87 167 87zM305 50q74 0 120.5 55.5t46.5 145.5q0 89 -46.5 144t-120.5 55q-73 0 -117 -54.5t-44 -144.5q0 -91 44 -146t117 -55z" />
    <glyph glyph-name="c" unicode="c" horiz-adv-x="565" 
d="M299 -10q-110 0 -175.5 73t-65.5 184q0 113 67.5 188t173.5 75q84 0 144 -46t73 -126h-67q-11 48 -51 80t-99 32q-77 0 -126 -58t-49 -145q0 -84 47.5 -140.5t127.5 -56.5q60 0 98 28.5t54 78.5h68q-16 -76 -75 -121.5t-145 -45.5z" />
    <glyph glyph-name="d" unicode="d" horiz-adv-x="596" 
d="M452 710h67v-710h-55l-7 77h-6q-58 -87 -166 -87q-101 0 -164 72t-63 189t63.5 188t163.5 71q114 0 167 -87v287zM291 50q73 0 117 55t44 146q0 90 -44 144.5t-117 54.5q-74 0 -120.5 -55t-46.5 -144q0 -90 46.5 -145.5t120.5 -55.5z" />
    <glyph glyph-name="e" unicode="e" horiz-adv-x="564" 
d="M505 263q0 -16 -2 -27h-379q3 -86 48.5 -137.5t119.5 -51.5q54 0 91.5 23.5t51.5 68.5h65q-16 -71 -72 -110t-136 -39q-104 0 -169 70t-65 185q0 120 65 192.5t166 72.5q94 0 155 -65t61 -182zM289 453q-68 0 -113 -47t-51 -118h314q-1 74 -42.5 119.5t-107.5 45.5z" />
    <glyph glyph-name="f" unicode="f" horiz-adv-x="334" 
d="M189 588v-88h114v-55h-114v-445h-66v445h-101v55h101v97q0 54 32 83.5t88 29.5q35 0 69 -14l-14 -51q-21 8 -45 8q-64 0 -64 -65z" />
    <glyph glyph-name="g" unicode="g" horiz-adv-x="526" 
d="M503 502q-35 -40 -85 -63q31 -43 31 -101q0 -77 -50.5 -123.5t-127.5 -46.5q-53 0 -93 21q-40 -18 -40 -53q0 -24 19.5 -37.5t56.5 -13.5h100q81 0 125 -35.5t44 -100.5q0 -76 -58 -117.5t-150 -41.5q-100 0 -154.5 47.5t-62.5 123.5l87 74q-31 9 -49.5 33t-18.5 58
q0 59 61 91q-49 47 -49 121q0 75 50.5 123.5t129.5 48.5q64 0 113 -35q44 22 80 69zM271 222q50 0 81.5 33t31.5 83q0 52 -31 85t-82 33q-52 0 -84.5 -33t-32.5 -85q0 -50 33 -83t84 -33zM418 -54q0 45 -33 64t-76 19h-91l-92 -78q26 -106 149 -106q61 0 102 25.5t41 75.5z
" />
    <glyph glyph-name="h" unicode="h" horiz-adv-x="547" 
d="M294 510q78 0 127 -49t49 -140v-321h-67v305q0 73 -34 109t-88 36q-59 0 -98 -39t-39 -117v-294h-67v710h67v-270h6q50 70 144 70z" />
    <glyph glyph-name="i" unicode="i" horiz-adv-x="220" 
d="M111 588q-20 0 -34.5 14t-14.5 34q0 19 14.5 33t34.5 14q19 0 33 -13.5t14 -33.5t-13.5 -34t-33.5 -14zM77 0v500h67v-500h-67z" />
    <glyph glyph-name="j" unicode="j" horiz-adv-x="220" 
d="M111 588q-20 0 -34.5 14t-14.5 34q0 19 14.5 33t34.5 14q19 0 33 -13.5t14 -33.5t-13.5 -34t-33.5 -14zM30 -210q-28 0 -66 10v54q26 -8 50 -8q63 0 63 64v590h67v-599q0 -50 -27.5 -80.5t-86.5 -30.5z" />
    <glyph glyph-name="k" unicode="k" horiz-adv-x="495" 
d="M472 500l-205 -203l205 -297h-76l-175 251l-77 -76v-175h-67v710h67v-446h6l238 236h84z" />
    <glyph glyph-name="l" unicode="l" horiz-adv-x="220" 
d="M77 0v710h67v-710h-67z" />
    <glyph glyph-name="m" unicode="m" horiz-adv-x="817" 
d="M77 0v500h60l7 -60h6q46 70 133 70q56 0 90 -27.5t48 -63.5h6q47 91 152 91q72 0 116.5 -43.5t44.5 -126.5v-340h-67v326q0 62 -31 93.5t-77 31.5q-54 0 -88.5 -39t-34.5 -102v-310h-67v318q0 64 -31.5 98t-78.5 34q-48 0 -84.5 -35t-36.5 -102v-313h-67z" />
    <glyph glyph-name="n" unicode="n" horiz-adv-x="547" 
d="M77 0v500h60l7 -60h6q50 70 144 70q78 0 127 -49t49 -140v-321h-67v305q0 73 -34 109t-88 36q-59 0 -98 -39t-39 -117v-294h-67z" />
    <glyph glyph-name="o" unicode="o" horiz-adv-x="603" 
d="M301 -10q-106 0 -174.5 74.5t-68.5 185.5q0 112 68.5 186t174.5 74q105 0 175 -74.5t70 -185.5q0 -112 -69.5 -186t-175.5 -74zM301 50q79 0 128.5 58t49.5 142t-50 142t-128 58q-79 0 -128 -58t-49 -142t49.5 -142t127.5 -58z" />
    <glyph glyph-name="p" unicode="p" horiz-adv-x="596" 
d="M311 510q101 0 164 -72t63 -189t-63.5 -188t-163.5 -71q-114 0 -167 87v-277h-67v700h56l6 -77h6q58 87 166 87zM305 50q74 0 120.5 55t46.5 144q0 90 -46.5 145.5t-120.5 55.5q-73 0 -117 -55t-44 -146q0 -90 44 -144.5t117 -54.5z" />
    <glyph glyph-name="q" unicode="q" horiz-adv-x="596" 
d="M464 500h55v-700h-67v277q-53 -87 -167 -87q-100 0 -163.5 71t-63.5 188t63 189t164 72q108 0 166 -87h6zM291 50q73 0 117 54.5t44 144.5q0 91 -44 146t-117 55q-74 0 -120.5 -55.5t-46.5 -145.5q0 -89 46.5 -144t120.5 -55z" />
    <glyph glyph-name="r" unicode="r" horiz-adv-x="337" 
d="M77 0v500h59l8 -68h6q43 78 139 78h26v-68q-14 2 -41 2q-57 0 -93.5 -44.5t-36.5 -122.5v-277h-67z" />
    <glyph glyph-name="s" unicode="s" horiz-adv-x="468" 
d="M241 -10q-88 0 -134.5 43.5t-48.5 113.5h65q9 -102 118 -102q46 0 75 20t29 60q0 23 -9.5 40.5t-28 29.5t-33.5 18.5t-38 13.5l-30 9q-22 7 -35.5 12.5t-34 17t-32.5 24.5t-21 34.5t-9 47.5q0 63 46.5 100.5t114.5 37.5q78 0 120.5 -41.5t45.5 -96.5h-65q-4 37 -31 60
t-70 23q-41 0 -68.5 -20.5t-27.5 -59.5q0 -20 7.5 -34.5t24.5 -24.5t30 -15.5t37 -13.5l27 -9q29 -9 50.5 -19t45.5 -27t36.5 -44t12.5 -61q0 -68 -48 -102.5t-121 -34.5z" />
    <glyph glyph-name="t" unicode="t" horiz-adv-x="338" 
d="M241 -10q-59 0 -86 30.5t-27 80.5v344h-106v55h34q44 0 61 16t17 56v64h61v-136h121v-55h-121v-334q0 -64 62 -64q25 0 49 8v-55q-38 -10 -65 -10z" />
    <glyph glyph-name="u" unicode="u" horiz-adv-x="547" 
d="M470 500v-500h-60l-7 60h-6q-50 -70 -144 -70q-78 0 -127 49t-49 140v321h67v-305q0 -73 34 -109t88 -36q59 0 98 39t39 117v294h67z" />
    <glyph glyph-name="v" unicode="v" horiz-adv-x="510" 
d="M213 0l-190 500h70l159 -430h6l160 430h70l-190 -500h-85z" />
    <glyph glyph-name="w" unicode="w" horiz-adv-x="693" 
d="M146 0l-123 500h65l98 -421h6l115 383h79l115 -384h6l99 422h65l-125 -500h-81l-115 388h-6l-117 -388h-81z" />
    <glyph glyph-name="x" unicode="x" horiz-adv-x="476" 
d="M23 0l173 260l-156 240h76l120 -185h6l117 185h77l-155 -240l172 -260h-77l-135 206h-6l-135 -206h-77z" />
    <glyph glyph-name="y" unicode="y" horiz-adv-x="510" 
d="M116 -210q-26 0 -66 10v54q29 -8 55 -8q75 0 105 78l30 76h-25l-192 500h70l163 -429h6l155 429h71l-214 -586q-8 -22 -15.5 -36.5t-25.5 -38t-48 -36.5t-69 -13z" />
    <glyph glyph-name="z" unicode="z" horiz-adv-x="472" 
d="M58 0v34l262 407v4h-245v55h337v-34l-262 -407v-4h263v-55h-355z" />
    <glyph glyph-name="braceleft" unicode="{" horiz-adv-x="273" 
d="M162 411q0 -75 -64 -107v-4q64 -30 64 -107v-242q0 -34 17 -50.5t44 -16.5h21v-53h-31q-110 0 -110 117v240q0 83 -74 90v48q74 7 74 90v240q0 117 110 117h31v-53h-21q-27 0 -44 -16.5t-17 -50.5v-242z" />
    <glyph glyph-name="bar" unicode="|" horiz-adv-x="256" 
d="M160 770v-910h-64v910h64z" />
    <glyph glyph-name="braceright" unicode="}" horiz-adv-x="274" 
d="M112 411v242q0 34 -17 50.5t-44 16.5h-22v53h31q110 0 110 -117v-240q0 -83 74 -90v-48q-74 -7 -74 -90v-240q0 -117 -110 -117h-31v53h22q27 0 44 16.5t17 50.5v242q0 77 63 107v4q-63 32 -63 107z" />
    <glyph glyph-name="asciitilde" unicode="~" 
d="M514 351q-6 -64 -40.5 -108t-95.5 -44q-39 0 -70.5 17t-48.5 37t-41.5 37t-50.5 17q-37 0 -58 -27t-26 -70h-57q7 65 42 108.5t95 43.5q38 0 69.5 -17t49 -37t42 -37t50.5 -17q38 0 59 27t26 70h55z" />
    <glyph glyph-name="uni00A0" unicode="&#xa0;" horiz-adv-x="250" 
 />
    <glyph glyph-name="exclamdown" unicode="&#xa1;" horiz-adv-x="265" 
d="M132 505q21 0 36.5 -15t15.5 -35q0 -22 -15.5 -37t-36.5 -15t-35.5 15t-14.5 37q0 20 14.5 35t35.5 15zM169 -200h-72l11 512h48z" />
    <glyph glyph-name="cent" unicode="&#xa2;" horiz-adv-x="527" 
d="M490 235q-14 -69 -65 -111.5t-126 -46.5v-76h-57v78q-88 13 -139 79.5t-51 161.5q0 96 52 164.5t138 82.5v75h57v-73q72 -5 124.5 -48t64.5 -115h-65q-9 42 -42 72t-82 34v-379q98 9 127 102h64zM115 320q0 -69 34 -119.5t93 -64.5v372q-57 -14 -92 -66t-35 -122z" />
    <glyph glyph-name="sterling" unicode="&#xa3;" horiz-adv-x="602" 
d="M200 59h327v-59h-454v42q58 20 101.5 67.5t43.5 102.5q0 34 -14 64h-131v54h100q-22 31 -30 43.5t-19 41.5t-11 57q0 85 61 131.5t152 46.5q72 0 122 -32t75 -79l-50 -36q-48 86 -145 86q-65 0 -103 -32t-38 -87q0 -19 7 -39.5t14.5 -32.5t24 -35t22.5 -33h207v-54h-180
q9 -25 9 -56q0 -95 -91 -157v-4z" />
    <glyph glyph-name="currency" unicode="&#xa4;" horiz-adv-x="618" 
d="M524 250q0 -73 -43 -132l80 -78l-45 -43l-78 78q-58 -42 -129 -42t-129 42l-80 -78l-42 43l78 79q-43 59 -43 131q0 74 43 131l-78 79l42 43l80 -78q57 42 129 42q71 0 129 -42l78 78l45 -43l-80 -78q43 -59 43 -132zM309 95q63 0 107 46t44 109t-44 109t-107 46
q-64 0 -108.5 -46t-44.5 -109t44.5 -109t108.5 -46z" />
    <glyph glyph-name="yen" unicode="&#xa5;" horiz-adv-x="574" 
d="M545 640l-182 -252h146v-56h-185v-112h185v-57h-185v-163h-73v163h-186v57h186v112h-186v56h146l-182 252h81l174 -240h6l174 240h81z" />
    <glyph glyph-name="brokenbar" unicode="&#xa6;" horiz-adv-x="256" 
d="M96 770h64v-355h-64v355zM96 -140v355h64v-355h-64z" />
    <glyph glyph-name="section" unicode="&#xa7;" horiz-adv-x="602" 
d="M408 93q106 -38 106 -134q0 -79 -63 -123.5t-156 -44.5q-107 0 -164.5 54.5t-55.5 128.5h68q0 -49 39.5 -86.5t113.5 -37.5q65 0 107 29t42 79q0 25 -12 44t-26.5 29.5t-41.5 19t-42.5 11.5t-44.5 7q-94 14 -149.5 60.5t-55.5 121.5q0 58 35.5 97t86.5 56v4
q-107 38 -107 134q0 79 63 123.5t156 44.5q107 0 164.5 -54.5t55.5 -128.5h-68q0 49 -39.5 86t-113.5 37q-66 0 -107.5 -28.5t-41.5 -78.5q0 -25 12 -44.5t26 -30t42 -18.5t42.5 -11t44.5 -7q94 -14 150 -60.5t56 -121.5q0 -59 -35.5 -97.5t-86.5 -55.5v-4zM311 125
q62 0 105.5 34t43.5 89q0 57 -52 92.5t-117 35.5q-62 0 -105.5 -34t-43.5 -89q0 -57 52 -92.5t117 -35.5z" />
    <glyph glyph-name="dieresis" unicode="&#xa8;" horiz-adv-x="461" 
d="M143 565q-19 0 -33 14t-14 33t14 33t33 14t33 -13.5t14 -33.5q0 -19 -14 -33t-33 -14zM318 565q-19 0 -32.5 14t-13.5 33t13.5 33t32.5 14q20 0 33.5 -13.5t13.5 -33.5q0 -19 -14 -33t-33 -14z" />
    <glyph glyph-name="copyright" unicode="&#xa9;" horiz-adv-x="857" 
d="M428 -10q-147 0 -251 104.5t-104 255.5t104 255.5t251 104.5t251.5 -104.5t104.5 -255.5t-104.5 -255.5t-251.5 -104.5zM428 39q126 0 216 92t90 219t-90 219t-216 92t-215.5 -92t-89.5 -219t89.5 -219t215.5 -92zM575 283q-7 -53 -48 -83.5t-97 -30.5q-75 0 -119 49
t-44 130q0 79 45 130t115 51q57 0 95.5 -29.5t47.5 -87.5h-57q-17 66 -85 66q-45 0 -73.5 -37t-28.5 -93q0 -59 28.5 -93.5t76.5 -34.5q33 0 56 17.5t31 45.5h57z" />
    <glyph glyph-name="guillemotleft" unicode="&#xab;" horiz-adv-x="512" 
d="M158 500h77l-131 -202l131 -202h-77l-129 202zM377 500h77l-132 -202l132 -202h-77l-129 202z" />
    <glyph glyph-name="logicalnot" unicode="&#xac;" 
d="M475 150h-60v196h-361v55h421v-251z" />
    <glyph glyph-name="uni00AD" unicode="&#xad;" horiz-adv-x="449" 
d="M44 340h361v-58h-361v58z" />
    <glyph glyph-name="registered" unicode="&#xae;" horiz-adv-x="857" 
d="M428 710q147 0 251.5 -104.5t104.5 -255.5t-104.5 -255.5t-251.5 -104.5t-251 104.5t-104 255.5t104 255.5t251 104.5zM428 39q126 0 216 92t90 219t-90 219t-216 92t-215.5 -92t-89.5 -219t89.5 -219t215.5 -92zM549 422q0 -35 -18.5 -60t-51.5 -36l87 -152h-59l-79 142
h-59v-142h-53v350h125q50 0 79 -27.5t29 -74.5zM369 478v-116h64q29 0 45.5 16t16.5 43q0 26 -16.5 41.5t-45.5 15.5h-64z" />
    <glyph glyph-name="macron" unicode="&#xaf;" horiz-adv-x="478" 
d="M96 639h285v-51h-285v51z" />
    <glyph glyph-name="degree" unicode="&#xb0;" horiz-adv-x="425" 
d="M213 401q-64 0 -109.5 45t-45.5 109t45.5 109.5t109.5 45.5q63 0 109 -45.5t46 -109.5q0 -63 -46 -108.5t-109 -45.5zM213 455q43 0 71.5 28.5t28.5 71.5q0 44 -28.5 72.5t-71.5 28.5t-72 -29t-29 -72t28.5 -71.5t72.5 -28.5z" />
    <glyph glyph-name="plusminus" unicode="&#xb1;" 
d="M301 371h181v-55h-181v-188h-61v188h-182v55h182v187h61v-187zM58 0v58h424v-58h-424z" />
    <glyph glyph-name="uni00B2" unicode="&#xb2;" horiz-adv-x="338" 
d="M161 473q-58 -38 -62 -89h197v-43h-255v20q0 88 84 144l60 38q19 12 29 20t20.5 24.5t10.5 35.5q0 28 -19.5 46t-50.5 18q-37 0 -58 -24t-23 -53h-52q2 48 37.5 84.5t97.5 36.5q54 0 87 -29t33 -77q0 -29 -15 -54t-26 -34t-30 -21z" />
    <glyph glyph-name="uni00B3" unicode="&#xb3;" horiz-adv-x="352" 
d="M244 538q31 -9 49.5 -33.5t18.5 -58.5q0 -48 -38.5 -79.5t-100.5 -31.5q-58 0 -92.5 29t-39.5 81h50q12 -67 82 -67q37 0 62 19.5t25 49.5t-22 49.5t-59 19.5h-38v42h36q30 0 49.5 17.5t19.5 47.5q0 29 -20 47t-52 18q-30 0 -51 -16t-27 -45h-50q4 46 41.5 74.5
t88.5 28.5q52 0 87 -29.5t35 -76.5q0 -55 -54 -83v-3z" />
    <glyph glyph-name="acute" unicode="&#xb4;" horiz-adv-x="321" 
d="M162 700h63l-72 -145h-57z" />
    <glyph glyph-name="uni00B5" unicode="&#xb5;" horiz-adv-x="547" 
d="M403 500h67v-500h-60l-7 60h-6q-52 -70 -144 -70q-70 0 -112 42v-232h-64v700h67v-305q0 -73 34 -109t88 -36q58 0 97.5 39t39.5 117v294z" />
    <glyph glyph-name="paragraph" unicode="&#xb6;" horiz-adv-x="660" 
d="M58 512q0 83 59 135.5t148 52.5h352v-63h-95v-637h-66v637h-123v-637h-68v323q-87 0 -147 52.5t-60 136.5z" />
    <glyph glyph-name="periodcentered" unicode="&#xb7;" horiz-adv-x="189" 
d="M95 260q-21 0 -36 15t-15 35q0 22 15 37t36 15t35.5 -15t14.5 -37q0 -20 -14.5 -35t-35.5 -15z" />
    <glyph glyph-name="cedilla" unicode="&#xb8;" horiz-adv-x="358" 
d="M112 -156q25 -15 50 -15t40 12.5t15 33.5q0 47 -59 47q-16 0 -36 -9l-23 21l55 76h42v-10l-33 -44q38 2 68.5 -20t30.5 -64q0 -38 -26 -60t-72 -22q-40 0 -68 20z" />
    <glyph glyph-name="uni00B9" unicode="&#xb9;" horiz-adv-x="230" 
d="M118 340v277h-77v40h36q23 0 35 13t12 34v21h46v-385h-52z" />
    <glyph glyph-name="guillemotright" unicode="&#xbb;" horiz-adv-x="512" 
d="M134 96h-76l131 202l-131 202h76l130 -202zM353 96h-76l131 202l-131 202h76l130 -202z" />
    <glyph glyph-name="onequarter" unicode="&#xbc;" horiz-adv-x="837" 
d="M174 315v277h-78v40h37q22 0 34 13t12 34v21h46v-385h-51zM682 700l-494 -700h-61l494 700h61zM741 128v-40h-72v-88h-47v88h-183v25l177 272h53v-257h72zM498 128h124v189h-5z" />
    <glyph glyph-name="onehalf" unicode="&#xbd;" horiz-adv-x="876" 
d="M174 315v277h-78v40h37q22 0 34 13t12 34v21h46v-385h-51zM683 700l-494 -700h-62l495 700h61zM644 132q-58 -38 -62 -89h197v-43h-255v20q0 88 84 144l60 38q19 12 29 20t20.5 24.5t10.5 35.5q0 28 -19.5 46t-50.5 18q-37 0 -58 -24t-23 -53h-53q3 48 38.5 84.5
t97.5 36.5q54 0 87 -29t33 -77q0 -29 -15 -54t-26 -34t-30 -21z" />
    <glyph glyph-name="threequarters" unicode="&#xbe;" horiz-adv-x="915" 
d="M300 513q30 -9 48.5 -33.5t18.5 -58.5q0 -48 -38.5 -79.5t-99.5 -31.5q-58 0 -93 29t-40 81h51q11 -67 82 -67q37 0 61.5 19.5t24.5 49.5t-21.5 49.5t-58.5 19.5h-38v42h35q31 0 50.5 17.5t19.5 47.5q0 29 -20 47t-53 18q-29 0 -50.5 -16t-27.5 -45h-50q4 46 42 74.5
t89 28.5t86 -29.5t35 -76.5q0 -55 -53 -83v-3zM761 700l-494 -700h-61l494 700h61zM819 128v-40h-71v-88h-48v88h-183v25l177 272h54v-257h71zM577 128h123v189h-4z" />
    <glyph glyph-name="questiondown" unicode="&#xbf;" horiz-adv-x="449" 
d="M236 505q22 0 37 -15t15 -35q0 -22 -15 -37t-37 -15q-20 0 -35 15t-15 37q0 20 15 35t35 15zM271 259q0 -63 -17 -103t-65 -80q-48 -39 -65 -63t-17 -62q0 -46 26.5 -74t79.5 -28q56 0 83 34.5t31 78.5h64q-1 -30 -10.5 -58t-29 -54.5t-55.5 -43t-83 -16.5
q-80 0 -124.5 43t-44.5 116q0 53 23 87.5t75 76.5q37 29 51 64.5t14 86.5v48h64v-53z" />
    <glyph glyph-name="Agrave" unicode="&#xc0;" horiz-adv-x="627" 
d="M342 755h-56l-72 145h63zM523 0l-68 203h-284l-68 -203h-74l241 700h87l241 -700h-75zM192 264h242l-118 353h-6z" />
    <glyph glyph-name="Aacute" unicode="&#xc1;" horiz-adv-x="627" 
d="M414 900l-72 -145h-56l66 145h62zM523 0l-68 203h-284l-68 -203h-74l241 700h87l241 -700h-75zM192 264h242l-118 353h-6z" />
    <glyph glyph-name="Acircumflex" unicode="&#xc2;" horiz-adv-x="627" 
d="M311 853l-62 -90h-65l97 137h64l98 -137h-65l-63 90h-4zM523 0l-68 203h-284l-68 -203h-74l241 700h87l241 -700h-75zM192 264h242l-118 353h-6z" />
    <glyph glyph-name="Atilde" unicode="&#xc3;" horiz-adv-x="627" 
d="M251 818q-42 0 -48 -57h-51q5 47 28.5 77.5t65.5 30.5q32 0 55 -16.5t40.5 -32.5t36.5 -16q41 0 49 57h50q-3 -45 -27.5 -76t-65.5 -31q-31 0 -54.5 16t-41.5 32t-37 16zM523 0l-68 203h-284l-68 -203h-74l241 700h87l241 -700h-75zM192 264h242l-118 353h-6z" />
    <glyph glyph-name="Adieresis" unicode="&#xc4;" horiz-adv-x="627" 
d="M201 772q-21 0 -36.5 15t-15.5 36q0 22 15.5 37.5t36.5 15.5t36.5 -15.5t15.5 -37.5q0 -21 -15.5 -36t-36.5 -15zM427 772q-21 0 -36 15t-15 36q0 22 15 37.5t36 15.5t36.5 -15.5t15.5 -37.5q0 -21 -15.5 -36t-36.5 -15zM523 0l-68 203h-284l-68 -203h-74l241 700h87
l241 -700h-75zM192 264h242l-118 353h-6z" />
    <glyph glyph-name="Aring" unicode="&#xc5;" horiz-adv-x="627" 
d="M315 745q-39 0 -67 27.5t-28 65.5t28 65t67 27q38 0 65.5 -27.5t27.5 -64.5q0 -38 -28 -65.5t-65 -27.5zM315 886q-21 0 -35 -14t-14 -34q0 -21 14 -35.5t35 -14.5q20 0 33.5 14.5t13.5 35.5q0 20 -14 34t-33 14zM523 0l-68 203h-284l-68 -203h-74l241 700h87l241 -700
h-75zM192 264h242l-118 353h-6z" />
    <glyph glyph-name="AE" unicode="&#xc6;" horiz-adv-x="986" 
d="M581 63h353v-63h-422v203h-272l-130 -203h-81l447 700h448v-63h-343v-251h304v-62h-304v-261zM279 264h233v353h-6z" />
    <glyph glyph-name="Ccedilla" unicode="&#xc7;" horiz-adv-x="746" 
d="M689 207q-20 -93 -94.5 -152.5t-180.5 -64.5l-25 -34q37 2 68 -20t31 -64q0 -38 -26 -60t-72 -22q-40 0 -68 20l16 34q25 -15 49 -15q25 0 40.5 13t15.5 33q0 47 -59 47q-18 0 -36 -9l-24 21l41 57q-132 11 -212 109t-80 246q0 159 89 261.5t234 102.5q109 0 186 -59.5
t96 -163.5h-73q-18 73 -72.5 115.5t-134.5 42.5q-115 0 -185 -86t-70 -213t70.5 -209t183.5 -82q81 0 139 41.5t80 110.5h73z" />
    <glyph glyph-name="Egrave" unicode="&#xc8;" horiz-adv-x="585" 
d="M273 900l65 -145h-56l-72 145h63zM164 63h368v-63h-436v700h426v-63h-358v-251h319v-62h-319v-261z" />
    <glyph glyph-name="Eacute" unicode="&#xc9;" horiz-adv-x="585" 
d="M348 900h62l-72 -145h-56zM164 63h368v-63h-436v700h426v-63h-358v-251h319v-62h-319v-261z" />
    <glyph glyph-name="Ecircumflex" unicode="&#xca;" horiz-adv-x="585" 
d="M245 763h-65l97 137h64l98 -137h-65l-63 90h-4zM164 63h368v-63h-436v700h426v-63h-358v-251h319v-62h-319v-261z" />
    <glyph glyph-name="Edieresis" unicode="&#xcb;" horiz-adv-x="585" 
d="M197 772q-21 0 -36.5 15t-15.5 36q0 22 15.5 37.5t36.5 15.5t36.5 -15.5t15.5 -37.5q0 -21 -15.5 -36t-36.5 -15zM423 772q-21 0 -36 15t-15 36q0 22 15 37.5t36 15.5t36.5 -15.5t15.5 -37.5q0 -21 -15.5 -36t-36.5 -15zM164 63h368v-63h-436v700h426v-63h-358v-251h319
v-62h-319v-261z" />
    <glyph glyph-name="Igrave" unicode="&#xcc;" horiz-adv-x="262" 
d="M94 900l65 -145h-56l-72 145h63zM165 700v-700h-69v700h69z" />
    <glyph glyph-name="Iacute" unicode="&#xcd;" horiz-adv-x="262" 
d="M169 900h62l-72 -145h-56zM165 700v-700h-69v700h69z" />
    <glyph glyph-name="Icircumflex" unicode="&#xce;" horiz-adv-x="262" 
d="M66 763h-65l97 137h64l98 -137h-65l-63 90h-4zM165 700v-700h-69v700h69z" />
    <glyph glyph-name="Idieresis" unicode="&#xcf;" horiz-adv-x="262" 
d="M18 772q-21 0 -36.5 15t-15.5 36q0 22 15.5 37.5t36.5 15.5t36.5 -15.5t15.5 -37.5q0 -21 -15.5 -36t-36.5 -15zM244 772q-21 0 -36 15t-15 36q0 22 15 37.5t36 15.5t36.5 -15.5t15.5 -37.5q0 -21 -15.5 -36t-36.5 -15zM165 700v-700h-69v700h69z" />
    <glyph glyph-name="Eth" unicode="&#xd0;" horiz-adv-x="699" 
d="M298 700q162 0 245.5 -94.5t83.5 -256.5q0 -158 -82 -253.5t-247 -95.5h-202v322h-118v55h118v323h202zM294 64q137 0 199.5 77.5t62.5 209.5q0 131 -62.5 208t-199.5 77h-129v-259h179v-55h-179v-258h129z" />
    <glyph glyph-name="Ntilde" unicode="&#xd1;" horiz-adv-x="742" 
d="M534 861q-3 -45 -27.5 -76t-65.5 -31q-31 0 -54.5 16t-41.5 32t-37 16q-42 0 -48 -57h-51q5 47 28.5 77.5t65.5 30.5q32 0 55 -16.5t40.5 -32.5t36.5 -16q41 0 49 57h50zM577 700h69v-700h-79l-397 586h-6v-586h-68v700h80l395 -585h6v585z" />
    <glyph glyph-name="Ograve" unicode="&#xd2;" horiz-adv-x="820" 
d="M373 900l65 -145h-56l-72 145h63zM410 -10q-145 0 -241 102.5t-96 257.5t96 257.5t241 102.5q144 0 240.5 -102.5t96.5 -257.5q0 -154 -96.5 -257t-240.5 -103zM410 55q115 0 191 84.5t76 210.5t-76.5 210.5t-190.5 84.5t-190.5 -84.5t-76.5 -210.5t76.5 -210.5
t190.5 -84.5z" />
    <glyph glyph-name="Oacute" unicode="&#xd3;" horiz-adv-x="820" 
d="M448 900h62l-72 -145h-56zM410 -10q-145 0 -241 102.5t-96 257.5t96 257.5t241 102.5q144 0 240.5 -102.5t96.5 -257.5q0 -154 -96.5 -257t-240.5 -103zM410 55q115 0 191 84.5t76 210.5t-76.5 210.5t-190.5 84.5t-190.5 -84.5t-76.5 -210.5t76.5 -210.5t190.5 -84.5z
" />
    <glyph glyph-name="Ocircumflex" unicode="&#xd4;" horiz-adv-x="820" 
d="M346 763h-65l97 137h64l98 -137h-65l-63 90h-4zM410 -10q-145 0 -241 102.5t-96 257.5t96 257.5t241 102.5q144 0 240.5 -102.5t96.5 -257.5q0 -154 -96.5 -257t-240.5 -103zM410 55q115 0 191 84.5t76 210.5t-76.5 210.5t-190.5 84.5t-190.5 -84.5t-76.5 -210.5
t76.5 -210.5t190.5 -84.5z" />
    <glyph glyph-name="Otilde" unicode="&#xd5;" horiz-adv-x="820" 
d="M573 861q-3 -45 -27.5 -76t-65.5 -31q-31 0 -54.5 16t-41.5 32t-37 16q-42 0 -48 -57h-51q5 47 28.5 77.5t65.5 30.5q32 0 55 -16.5t40.5 -32.5t36.5 -16q41 0 49 57h50zM410 -10q-145 0 -241 102.5t-96 257.5t96 257.5t241 102.5q144 0 240.5 -102.5t96.5 -257.5
q0 -154 -96.5 -257t-240.5 -103zM410 55q115 0 191 84.5t76 210.5t-76.5 210.5t-190.5 84.5t-190.5 -84.5t-76.5 -210.5t76.5 -210.5t190.5 -84.5z" />
    <glyph glyph-name="Odieresis" unicode="&#xd6;" horiz-adv-x="820" 
d="M298 772q-21 0 -36.5 15t-15.5 36q0 22 15.5 37.5t36.5 15.5t36.5 -15.5t15.5 -37.5q0 -21 -15.5 -36t-36.5 -15zM524 772q-21 0 -36 15t-15 36q0 22 15 37.5t36 15.5t36.5 -15.5t15.5 -37.5q0 -21 -15.5 -36t-36.5 -15zM410 -10q-145 0 -241 102.5t-96 257.5t96 257.5
t241 102.5q144 0 240.5 -102.5t96.5 -257.5q0 -154 -96.5 -257t-240.5 -103zM410 55q115 0 191 84.5t76 210.5t-76.5 210.5t-190.5 84.5t-190.5 -84.5t-76.5 -210.5t76.5 -210.5t190.5 -84.5z" />
    <glyph glyph-name="multiply" unicode="&#xd7;" 
d="M479 447l-167 -167l167 -167l-43 -41l-165 166l-166 -166l-43 41l167 167l-167 167l41 41l167 -167l167 167z" />
    <glyph glyph-name="Oslash" unicode="&#xd8;" horiz-adv-x="820" 
d="M638 620q109 -104 109 -270q0 -154 -96.5 -257t-240.5 -103q-101 0 -184 54l-62 -86l-46 31l64 90q-109 104 -109 271q0 155 96 257.5t241 102.5q102 0 182 -54l61 86l48 -33zM141 350q0 -130 80 -215l333 468q-64 44 -144 44q-115 0 -192 -85t-77 -212zM410 53
q115 0 192 85t77 212q0 130 -81 216l-334 -468q65 -45 146 -45z" />
    <glyph glyph-name="Ugrave" unicode="&#xd9;" horiz-adv-x="718" 
d="M322 900l65 -145h-56l-72 145h63zM622 700v-442q0 -129 -71.5 -198.5t-190.5 -69.5q-118 0 -191 70t-73 198v442h69v-434q0 -104 54 -157.5t142 -53.5q86 0 138.5 53.5t52.5 157.5v434h70z" />
    <glyph glyph-name="Uacute" unicode="&#xda;" horiz-adv-x="718" 
d="M397 900h62l-72 -145h-56zM622 700v-442q0 -129 -71.5 -198.5t-190.5 -69.5q-118 0 -191 70t-73 198v442h69v-434q0 -104 54 -157.5t142 -53.5q86 0 138.5 53.5t52.5 157.5v434h70z" />
    <glyph glyph-name="Ucircumflex" unicode="&#xdb;" horiz-adv-x="718" 
d="M295 763h-65l97 137h64l98 -137h-65l-63 90h-4zM622 700v-442q0 -129 -71.5 -198.5t-190.5 -69.5q-118 0 -191 70t-73 198v442h69v-434q0 -104 54 -157.5t142 -53.5q86 0 138.5 53.5t52.5 157.5v434h70z" />
    <glyph glyph-name="Udieresis" unicode="&#xdc;" horiz-adv-x="718" 
d="M247 772q-21 0 -36.5 15t-15.5 36q0 22 15.5 37.5t36.5 15.5t36.5 -15.5t15.5 -37.5q0 -21 -15.5 -36t-36.5 -15zM473 772q-21 0 -36 15t-15 36q0 22 15 37.5t36 15.5t36.5 -15.5t15.5 -37.5q0 -21 -15.5 -36t-36.5 -15zM622 700v-442q0 -129 -71.5 -198.5t-190.5 -69.5
q-118 0 -191 70t-73 198v442h69v-434q0 -104 54 -157.5t142 -53.5q86 0 138.5 53.5t52.5 157.5v434h70z" />
    <glyph glyph-name="Yacute" unicode="&#xdd;" horiz-adv-x="631" 
d="M354 900h62l-72 -145h-56zM517 700h85l-251 -358v-342h-70v342l-252 358h85l199 -282h6z" />
    <glyph glyph-name="Thorn" unicode="&#xde;" horiz-adv-x="610" 
d="M326 555q96 0 154 -56t58 -148q0 -96 -59.5 -151.5t-160.5 -55.5h-155v-144h-67v700h67v-145h163zM313 207q73 0 114 38t41 105q0 68 -41 105t-106 37h-158v-285h150z" />
    <glyph glyph-name="germandbls" unicode="&#xdf;" horiz-adv-x="543" 
d="M355 370q130 -39 130 -185q0 -92 -48.5 -143.5t-133.5 -51.5q-47 0 -92 15v54q45 -13 84 -13q58 0 92 36.5t34 104.5q0 150 -167 150h-43v56h41q67 0 104.5 34.5t37.5 97.5q0 58 -32 93.5t-90 35.5q-57 0 -93.5 -36t-36.5 -107v-511h-65v509q0 95 52 148t142 53
q86 0 137.5 -48t51.5 -128q0 -113 -105 -160v-4z" />
    <glyph glyph-name="agrave" unicode="&#xe0;" horiz-adv-x="520" 
d="M275 555h-56l-72 145h63zM474 53h13v-53h-33q-71 0 -82 66q-58 -76 -166 -76q-71 0 -115.5 35.5t-44.5 105.5q0 68 47.5 107t126.5 46l146 14v33q0 56 -29.5 89t-86.5 33q-98 0 -117 -105h-67q8 72 56.5 117t127.5 45q84 0 133.5 -47t49.5 -130v-237q0 -43 41 -43z
M366 191v55l-128 -12q-57 -5 -91 -31t-34 -71q0 -44 28 -65t72 -21q62 0 107.5 36t45.5 109z" />
    <glyph glyph-name="aacute" unicode="&#xe1;" horiz-adv-x="520" 
d="M347 700l-72 -145h-56l66 145h62zM474 53h13v-53h-33q-71 0 -82 66q-58 -76 -166 -76q-71 0 -115.5 35.5t-44.5 105.5q0 68 47.5 107t126.5 46l146 14v33q0 56 -29.5 89t-86.5 33q-98 0 -117 -105h-67q8 72 56.5 117t127.5 45q84 0 133.5 -47t49.5 -130v-237
q0 -43 41 -43zM366 191v55l-128 -12q-57 -5 -91 -31t-34 -71q0 -44 28 -65t72 -21q62 0 107.5 36t45.5 109z" />
    <glyph glyph-name="acircumflex" unicode="&#xe2;" horiz-adv-x="520" 
d="M245 653l-62 -90h-65l97 137h64l98 -137h-65l-63 90h-4zM474 53h13v-53h-33q-71 0 -82 66q-58 -76 -166 -76q-71 0 -115.5 35.5t-44.5 105.5q0 68 47.5 107t126.5 46l146 14v33q0 56 -29.5 89t-86.5 33q-98 0 -117 -105h-67q8 72 56.5 117t127.5 45q84 0 133.5 -47
t49.5 -130v-237q0 -43 41 -43zM366 191v55l-128 -12q-57 -5 -91 -31t-34 -71q0 -44 28 -65t72 -21q62 0 107.5 36t45.5 109z" />
    <glyph glyph-name="atilde" unicode="&#xe3;" horiz-adv-x="520" 
d="M184 618q-42 0 -48 -57h-51q5 47 28.5 77.5t65.5 30.5q32 0 55 -16.5t40.5 -32.5t36.5 -16q41 0 49 57h50q-3 -45 -27.5 -76t-65.5 -31q-31 0 -54.5 16t-41.5 32t-37 16zM474 53h13v-53h-33q-71 0 -82 66q-58 -76 -166 -76q-71 0 -115.5 35.5t-44.5 105.5q0 68 47.5 107
t126.5 46l146 14v33q0 56 -29.5 89t-86.5 33q-98 0 -117 -105h-67q8 72 56.5 117t127.5 45q84 0 133.5 -47t49.5 -130v-237q0 -43 41 -43zM366 191v55l-128 -12q-57 -5 -91 -31t-34 -71q0 -44 28 -65t72 -21q62 0 107.5 36t45.5 109z" />
    <glyph glyph-name="adieresis" unicode="&#xe4;" horiz-adv-x="520" 
d="M160 565q-19 0 -33 14t-14 33t14 33t33 14q20 0 33.5 -13.5t13.5 -33.5q0 -19 -14 -33t-33 -14zM335 565q-19 0 -32.5 14t-13.5 33t13.5 33t32.5 14t33 -13.5t14 -33.5q0 -19 -14 -33t-33 -14zM474 53h13v-53h-33q-71 0 -82 66q-58 -76 -166 -76q-71 0 -115.5 35.5
t-44.5 105.5q0 68 47.5 107t126.5 46l146 14v33q0 56 -29.5 89t-86.5 33q-98 0 -117 -105h-67q8 72 56.5 117t127.5 45q84 0 133.5 -47t49.5 -130v-237q0 -43 41 -43zM366 191v55l-128 -12q-57 -5 -91 -31t-34 -71q0 -44 28 -65t72 -21q62 0 107.5 36t45.5 109z" />
    <glyph glyph-name="aring" unicode="&#xe5;" horiz-adv-x="520" 
d="M248 545q-39 0 -67 27.5t-28 65.5t28 65t67 27q38 0 65.5 -27.5t27.5 -64.5q0 -38 -27.5 -65.5t-65.5 -27.5zM248 686q-21 0 -35 -14t-14 -34q0 -21 14 -35.5t35 -14.5q20 0 33.5 14.5t13.5 35.5q0 20 -14 34t-33 14zM474 53h13v-53h-33q-71 0 -82 66q-58 -76 -166 -76
q-71 0 -115.5 35.5t-44.5 105.5q0 68 47.5 107t126.5 46l146 14v33q0 56 -29.5 89t-86.5 33q-98 0 -117 -105h-67q8 72 56.5 117t127.5 45q84 0 133.5 -47t49.5 -130v-237q0 -43 41 -43zM366 191v55l-128 -12q-57 -5 -91 -31t-34 -71q0 -44 28 -65t72 -21q62 0 107.5 36
t45.5 109z" />
    <glyph glyph-name="ae" unicode="&#xe6;" horiz-adv-x="702" 
d="M644 265q0 -18 -1 -30h-270q0 -190 107 -190q36 0 64.5 22t33.5 71h64q-8 -76 -53 -112t-109 -36q-100 0 -139 84q-36 -84 -149 -84q-67 0 -106.5 34.5t-39.5 100.5q0 85 59.5 124t157.5 39h42v56q0 51 -22.5 80.5t-66.5 29.5q-45 0 -71 -24t-28 -69l-65 1q4 69 48 108.5
t114 39.5q95 0 133 -79q42 79 134 79q73 0 118 -56.5t45 -188.5zM480 455q-46 0 -75 -41t-32 -126h208q-1 89 -29 128t-72 39zM199 45q43 0 74.5 27t31.5 88v75h-35q-75 0 -117.5 -23.5t-42.5 -82.5q0 -41 24.5 -62.5t64.5 -21.5z" />
    <glyph glyph-name="ccedilla" unicode="&#xe7;" horiz-adv-x="565" 
d="M519 157q-15 -73 -69.5 -118t-134.5 -49l-25 -34q37 2 68 -20t31 -64q0 -38 -26 -60t-72 -22q-40 0 -68 20l16 34q25 -15 49 -15q25 0 40.5 13t15.5 33q0 47 -59 47q-18 0 -36 -9l-24 21l42 58q-96 11 -152.5 82t-56.5 173q0 113 67.5 188t173.5 75q84 0 144 -46t73 -126
h-67q-11 48 -51 80t-99 32q-77 0 -126 -58t-49 -145q0 -84 47.5 -140.5t127.5 -56.5q60 0 98 28.5t54 78.5h68z" />
    <glyph glyph-name="egrave" unicode="&#xe8;" horiz-adv-x="564" 
d="M317 555h-56l-72 145h63zM505 263q0 -16 -2 -27h-379q3 -86 48.5 -137.5t119.5 -51.5q54 0 91.5 23.5t51.5 68.5h65q-16 -71 -72 -110t-136 -39q-104 0 -169 70t-65 185q0 120 65 192.5t166 72.5q94 0 155 -65t61 -182zM289 453q-68 0 -113 -47t-51 -118h314
q-1 74 -42.5 119.5t-107.5 45.5z" />
    <glyph glyph-name="eacute" unicode="&#xe9;" horiz-adv-x="564" 
d="M389 700l-72 -145h-56l66 145h62zM505 263q0 -16 -2 -27h-379q3 -86 48.5 -137.5t119.5 -51.5q54 0 91.5 23.5t51.5 68.5h65q-16 -71 -72 -110t-136 -39q-104 0 -169 70t-65 185q0 120 65 192.5t166 72.5q94 0 155 -65t61 -182zM289 453q-68 0 -113 -47t-51 -118h314
q-1 74 -42.5 119.5t-107.5 45.5z" />
    <glyph glyph-name="ecircumflex" unicode="&#xea;" horiz-adv-x="564" 
d="M286 653l-62 -90h-65l97 137h64l98 -137h-65l-63 90h-4zM505 263q0 -16 -2 -27h-379q3 -86 48.5 -137.5t119.5 -51.5q54 0 91.5 23.5t51.5 68.5h65q-16 -71 -72 -110t-136 -39q-104 0 -169 70t-65 185q0 120 65 192.5t166 72.5q94 0 155 -65t61 -182zM289 453
q-68 0 -113 -47t-51 -118h314q-1 74 -42.5 119.5t-107.5 45.5z" />
    <glyph glyph-name="edieresis" unicode="&#xeb;" horiz-adv-x="564" 
d="M202 565q-19 0 -33 14t-14 33t14 33t33 14q20 0 33.5 -13.5t13.5 -33.5q0 -19 -14 -33t-33 -14zM377 565q-19 0 -32.5 14t-13.5 33t13.5 33t32.5 14t33 -13.5t14 -33.5q0 -19 -14 -33t-33 -14zM505 263q0 -16 -2 -27h-379q3 -86 48.5 -137.5t119.5 -51.5q54 0 91.5 23.5
t51.5 68.5h65q-16 -71 -72 -110t-136 -39q-104 0 -169 70t-65 185q0 120 65 192.5t166 72.5q94 0 155 -65t61 -182zM289 453q-68 0 -113 -47t-51 -118h314q-1 74 -42.5 119.5t-107.5 45.5z" />
    <glyph glyph-name="igrave" unicode="&#xec;" horiz-adv-x="220" 
d="M73 700l65 -145h-56l-72 145h63zM77 0v500h67v-500h-67z" />
    <glyph glyph-name="iacute" unicode="&#xed;" horiz-adv-x="220" 
d="M148 700h62l-72 -145h-56zM77 0v500h67v-500h-67z" />
    <glyph glyph-name="icircumflex" unicode="&#xee;" horiz-adv-x="220" 
d="M45 563h-65l97 137h64l98 -137h-65l-63 90h-4zM77 0v500h67v-500h-67z" />
    <glyph glyph-name="idieresis" unicode="&#xef;" horiz-adv-x="220" 
d="M23 565q-19 0 -33 14t-14 33t14 33t33 14t33 -13.5t14 -33.5q0 -19 -14 -33t-33 -14zM198 565q-19 0 -32.5 14t-13.5 33t13.5 33t32.5 14q20 0 33.5 -13.5t13.5 -33.5q0 -19 -14 -33t-33 -14zM77 0v500h67v-500h-67z" />
    <glyph glyph-name="eth" unicode="&#xf0;" horiz-adv-x="591" 
d="M393 585q125 -149 125 -327q0 -123 -61.5 -195.5t-170.5 -72.5q-94 0 -161 63t-67 167t63 166.5t160 62.5q51 0 92.5 -20.5t62.5 -49.5h6q-31 102 -105 187l-158 -54l-14 42l138 47q-51 50 -122 99h82q53 -36 97 -80l99 34l14 -42zM288 48q73 0 118.5 51.5t45.5 126.5
q0 73 -48.5 119t-120.5 46q-74 0 -118.5 -47.5t-44.5 -123.5t48 -124t120 -48z" />
    <glyph glyph-name="ntilde" unicode="&#xf1;" horiz-adv-x="547" 
d="M436 661q-3 -45 -27.5 -76t-65.5 -31q-31 0 -54.5 16t-41.5 32t-37 16q-42 0 -48 -57h-51q5 47 28.5 77.5t65.5 30.5q32 0 55 -16.5t40.5 -32.5t36.5 -16q41 0 49 57h50zM77 0v500h60l7 -60h6q50 70 144 70q78 0 127 -49t49 -140v-321h-67v305q0 73 -34 109t-88 36
q-59 0 -98 -39t-39 -117v-294h-67z" />
    <glyph glyph-name="ograve" unicode="&#xf2;" horiz-adv-x="603" 
d="M265 700l65 -145h-56l-72 145h63zM301 -10q-106 0 -174.5 74.5t-68.5 185.5q0 112 68.5 186t174.5 74q105 0 175 -74.5t70 -185.5q0 -112 -69.5 -186t-175.5 -74zM301 50q79 0 128.5 58t49.5 142t-50 142t-128 58q-79 0 -128 -58t-49 -142t49.5 -142t127.5 -58z" />
    <glyph glyph-name="oacute" unicode="&#xf3;" horiz-adv-x="603" 
d="M340 700h62l-72 -145h-56zM301 -10q-106 0 -174.5 74.5t-68.5 185.5q0 112 68.5 186t174.5 74q105 0 175 -74.5t70 -185.5q0 -112 -69.5 -186t-175.5 -74zM301 50q79 0 128.5 58t49.5 142t-50 142t-128 58q-79 0 -128 -58t-49 -142t49.5 -142t127.5 -58z" />
    <glyph glyph-name="ocircumflex" unicode="&#xf4;" horiz-adv-x="603" 
d="M237 563h-65l97 137h64l98 -137h-65l-63 90h-4zM301 -10q-106 0 -174.5 74.5t-68.5 185.5q0 112 68.5 186t174.5 74q105 0 175 -74.5t70 -185.5q0 -112 -69.5 -186t-175.5 -74zM301 50q79 0 128.5 58t49.5 142t-50 142t-128 58q-79 0 -128 -58t-49 -142t49.5 -142
t127.5 -58z" />
    <glyph glyph-name="otilde" unicode="&#xf5;" horiz-adv-x="603" 
d="M465 661q-3 -45 -27.5 -76t-65.5 -31q-31 0 -54.5 16t-41.5 32t-37 16q-42 0 -48 -57h-51q5 47 28.5 77.5t65.5 30.5q32 0 55 -16.5t40.5 -32.5t36.5 -16q41 0 49 57h50zM301 -10q-106 0 -174.5 74.5t-68.5 185.5q0 112 68.5 186t174.5 74q105 0 175 -74.5t70 -185.5
q0 -112 -69.5 -186t-175.5 -74zM301 50q79 0 128.5 58t49.5 142t-50 142t-128 58q-79 0 -128 -58t-49 -142t49.5 -142t127.5 -58z" />
    <glyph glyph-name="odieresis" unicode="&#xf6;" horiz-adv-x="603" 
d="M215 565q-19 0 -33 14t-14 33t14 33t33 14t33 -13.5t14 -33.5q0 -19 -14 -33t-33 -14zM390 565q-19 0 -32.5 14t-13.5 33t13.5 33t32.5 14q20 0 33.5 -13.5t13.5 -33.5q0 -19 -14 -33t-33 -14zM301 -10q-106 0 -174.5 74.5t-68.5 185.5q0 112 68.5 186t174.5 74
q105 0 175 -74.5t70 -185.5q0 -112 -69.5 -186t-175.5 -74zM301 50q79 0 128.5 58t49.5 142t-50 142t-128 58q-79 0 -128 -58t-49 -142t49.5 -142t127.5 -58z" />
    <glyph glyph-name="divide" unicode="&#xf7;" 
d="M271 406q-22 0 -37 15t-15 35q0 22 15 37t37 15q20 0 35 -15t15 -37q0 -20 -15 -35t-35 -15zM42 309h456v-58h-456v58zM271 48q-22 0 -37 15t-15 35q0 22 15 37t37 15q20 0 35 -15t15 -37q0 -20 -15 -35t-35 -15z" />
    <glyph glyph-name="oslash" unicode="&#xf8;" horiz-adv-x="603" 
d="M475 437q71 -76 71 -187q0 -112 -69.5 -186t-175.5 -74q-74 0 -132 39l-53 -71l-44 29l57 76q-71 74 -71 187q0 112 68.5 186t174.5 74q75 0 133 -39l53 70l44 -29zM122 250q0 -81 45 -137l231 309q-43 30 -97 30q-80 0 -129.5 -58.5t-49.5 -143.5zM301 48
q79 0 129.5 58.5t50.5 143.5q0 80 -45 136l-231 -309q43 -29 96 -29z" />
    <glyph glyph-name="ugrave" unicode="&#xf9;" horiz-adv-x="547" 
d="M237 700l65 -145h-56l-72 145h63zM470 500v-500h-60l-7 60h-6q-50 -70 -144 -70q-78 0 -127 49t-49 140v321h67v-305q0 -73 34 -109t88 -36q59 0 98 39t39 117v294h67z" />
    <glyph glyph-name="uacute" unicode="&#xfa;" horiz-adv-x="547" 
d="M312 700h62l-72 -145h-56zM470 500v-500h-60l-7 60h-6q-50 -70 -144 -70q-78 0 -127 49t-49 140v321h67v-305q0 -73 34 -109t88 -36q59 0 98 39t39 117v294h67z" />
    <glyph glyph-name="ucircumflex" unicode="&#xfb;" horiz-adv-x="547" 
d="M209 563h-65l97 137h64l98 -137h-65l-63 90h-4zM470 500v-500h-60l-7 60h-6q-50 -70 -144 -70q-78 0 -127 49t-49 140v321h67v-305q0 -73 34 -109t88 -36q59 0 98 39t39 117v294h67z" />
    <glyph glyph-name="udieresis" unicode="&#xfc;" horiz-adv-x="547" 
d="M187 565q-19 0 -33 14t-14 33t14 33t33 14t33 -13.5t14 -33.5q0 -19 -14 -33t-33 -14zM362 565q-19 0 -32.5 14t-13.5 33t13.5 33t32.5 14q20 0 33.5 -13.5t13.5 -33.5q0 -19 -14 -33t-33 -14zM470 500v-500h-60l-7 60h-6q-50 -70 -144 -70q-78 0 -127 49t-49 140v321h67
v-305q0 -73 34 -109t88 -36q59 0 98 39t39 117v294h67z" />
    <glyph glyph-name="yacute" unicode="&#xfd;" horiz-adv-x="510" 
d="M293 700h62l-72 -145h-56zM116 -210q-26 0 -66 10v54q29 -8 55 -8q75 0 105 78l30 76h-25l-192 500h70l163 -429h6l155 429h71l-214 -586q-8 -22 -15.5 -36.5t-25.5 -38t-48 -36.5t-69 -13z" />
    <glyph glyph-name="thorn" unicode="&#xfe;" horiz-adv-x="596" 
d="M311 510q101 0 164 -72t63 -189t-63.5 -188t-163.5 -71q-114 0 -167 91v-281h-67v910h62v-287h6q58 87 166 87zM305 50q74 0 120.5 55t46.5 144q0 90 -46.5 145.5t-120.5 55.5q-73 0 -117 -55t-44 -146q0 -90 44 -144.5t117 -54.5z" />
    <glyph glyph-name="ydieresis" unicode="&#xff;" horiz-adv-x="510" 
d="M168 565q-19 0 -33 14t-14 33t14 33t33 14q20 0 33.5 -13.5t13.5 -33.5q0 -19 -14 -33t-33 -14zM343 565q-19 0 -32.5 14t-13.5 33t13.5 33t32.5 14t33 -13.5t14 -33.5q0 -19 -14 -33t-33 -14zM116 -210q-26 0 -66 10v54q29 -8 55 -8q75 0 105 78l30 76h-25l-192 500h70
l163 -429h6l155 429h71l-214 -586q-8 -22 -15.5 -36.5t-25.5 -38t-48 -36.5t-69 -13z" />
    <glyph glyph-name="Amacron" unicode="&#x100;" horiz-adv-x="627" 
d="M457 839v-51h-285v51h285zM523 0l-68 203h-284l-68 -203h-74l241 700h87l241 -700h-75zM192 264h242l-118 353h-6z" />
    <glyph glyph-name="amacron" unicode="&#x101;" horiz-adv-x="520" 
d="M390 639v-51h-285v51h285zM474 53h13v-53h-33q-71 0 -82 66q-58 -76 -166 -76q-71 0 -115.5 35.5t-44.5 105.5q0 68 47.5 107t126.5 46l146 14v33q0 56 -29.5 89t-86.5 33q-98 0 -117 -105h-67q8 72 56.5 117t127.5 45q84 0 133.5 -47t49.5 -130v-237q0 -43 41 -43z
M366 191v55l-128 -12q-57 -5 -91 -31t-34 -71q0 -44 28 -65t72 -21q62 0 107.5 36t45.5 109z" />
    <glyph glyph-name="Abreve" unicode="&#x102;" horiz-adv-x="627" 
d="M313 774q-57 0 -91 38.5t-34 87.5h57q0 -35 18.5 -56.5t49.5 -21.5t49 21.5t18 56.5h57q0 -49 -33.5 -87.5t-90.5 -38.5zM523 0l-68 203h-284l-68 -203h-74l241 700h87l241 -700h-75zM192 264h242l-118 353h-6z" />
    <glyph glyph-name="abreve" unicode="&#x103;" horiz-adv-x="520" 
d="M246 574q-57 0 -91 38.5t-34 87.5h57q0 -35 18.5 -56.5t49.5 -21.5t49 21.5t18 56.5h57q0 -49 -33.5 -87.5t-90.5 -38.5zM474 53h13v-53h-33q-71 0 -82 66q-58 -76 -166 -76q-71 0 -115.5 35.5t-44.5 105.5q0 68 47.5 107t126.5 46l146 14v33q0 56 -29.5 89t-86.5 33
q-98 0 -117 -105h-67q8 72 56.5 117t127.5 45q84 0 133.5 -47t49.5 -130v-237q0 -43 41 -43zM366 191v55l-128 -12q-57 -5 -91 -31t-34 -71q0 -44 28 -65t72 -21q62 0 107.5 36t45.5 109z" />
    <glyph glyph-name="Aogonek" unicode="&#x104;" horiz-adv-x="627" 
d="M584 -122q26 0 43 5v-47q-21 -7 -47 -7q-48 0 -77.5 21.5t-29.5 65.5q0 52 62 84h-12l-68 203h-284l-68 -203h-74l241 700h87l241 -700h-1q-71 -26 -71 -78q0 -44 58 -44zM192 264h242l-118 353h-6z" />
    <glyph glyph-name="aogonek" unicode="&#x105;" horiz-adv-x="520" 
d="M474 -122q25 0 43 5v-47q-21 -7 -47 -7q-48 0 -77.5 21.5t-29.5 65.5q0 54 66 86q-47 9 -57 64q-58 -76 -166 -76q-71 0 -115.5 35.5t-44.5 105.5q0 68 47.5 107t126.5 46l146 14v33q0 56 -29.5 89t-86.5 33q-98 0 -117 -105h-67q8 72 56.5 117t127.5 45q84 0 133.5 -47
t49.5 -130v-237q0 -43 41 -43h13v-53q-71 -26 -71 -78q0 -44 58 -44zM366 191v55l-128 -12q-57 -5 -91 -31t-34 -71q0 -44 28 -65t72 -21q62 0 107.5 36t45.5 109z" />
    <glyph glyph-name="Cacute" unicode="&#x106;" horiz-adv-x="746" 
d="M434 900h62l-72 -145h-56zM689 207q-20 -97 -100 -157t-192 -60q-145 0 -234.5 99.5t-89.5 256.5q0 159 89 261.5t234 102.5q109 0 186 -59.5t96 -163.5h-73q-18 73 -72.5 115.5t-134.5 42.5q-115 0 -185 -86t-70 -213t70.5 -209t183.5 -82q81 0 139 41.5t80 110.5h73z
" />
    <glyph glyph-name="cacute" unicode="&#x107;" horiz-adv-x="565" 
d="M335 700h62l-72 -145h-56zM299 -10q-110 0 -175.5 73t-65.5 184q0 113 67.5 188t173.5 75q84 0 144 -46t73 -126h-67q-11 48 -51 80t-99 32q-77 0 -126 -58t-49 -145q0 -84 47.5 -140.5t127.5 -56.5q60 0 98 28.5t54 78.5h68q-16 -76 -75 -121.5t-145 -45.5z" />
    <glyph glyph-name="Ccircumflex" unicode="&#x108;" horiz-adv-x="746" 
d="M332 763h-65l97 137h64l98 -137h-65l-63 90h-4zM689 207q-20 -97 -100 -157t-192 -60q-145 0 -234.5 99.5t-89.5 256.5q0 159 89 261.5t234 102.5q109 0 186 -59.5t96 -163.5h-73q-18 73 -72.5 115.5t-134.5 42.5q-115 0 -185 -86t-70 -213t70.5 -209t183.5 -82
q81 0 139 41.5t80 110.5h73z" />
    <glyph glyph-name="ccircumflex" unicode="&#x109;" horiz-adv-x="565" 
d="M232 563h-65l97 137h64l98 -137h-65l-63 90h-4zM299 -10q-110 0 -175.5 73t-65.5 184q0 113 67.5 188t173.5 75q84 0 144 -46t73 -126h-67q-11 48 -51 80t-99 32q-77 0 -126 -58t-49 -145q0 -84 47.5 -140.5t127.5 -56.5q60 0 98 28.5t54 78.5h68q-16 -76 -75 -121.5
t-145 -45.5z" />
    <glyph glyph-name="Cdotaccent" unicode="&#x10a;" horiz-adv-x="746" 
d="M397 788q-20 0 -34.5 14t-14.5 34q0 19 14.5 33t34.5 14q19 0 33 -13.5t14 -33.5t-13.5 -34t-33.5 -14zM689 207q-20 -97 -100 -157t-192 -60q-145 0 -234.5 99.5t-89.5 256.5q0 159 89 261.5t234 102.5q109 0 186 -59.5t96 -163.5h-73q-18 73 -72.5 115.5t-134.5 42.5
q-115 0 -185 -86t-70 -213t70.5 -209t183.5 -82q81 0 139 41.5t80 110.5h73z" />
    <glyph glyph-name="cdotaccent" unicode="&#x10b;" horiz-adv-x="565" 
d="M298 588q-20 0 -34.5 14t-14.5 34q0 19 14.5 33t34.5 14t33.5 -13.5t13.5 -33.5t-13.5 -34t-33.5 -14zM299 -10q-110 0 -175.5 73t-65.5 184q0 113 67.5 188t173.5 75q84 0 144 -46t73 -126h-67q-11 48 -51 80t-99 32q-77 0 -126 -58t-49 -145q0 -84 47.5 -140.5
t127.5 -56.5q60 0 98 28.5t54 78.5h68q-16 -76 -75 -121.5t-145 -45.5z" />
    <glyph glyph-name="Ccaron" unicode="&#x10c;" horiz-adv-x="746" 
d="M461 900h65l-98 -137h-63l-99 137h65l63 -91h5zM689 207q-20 -97 -100 -157t-192 -60q-145 0 -234.5 99.5t-89.5 256.5q0 159 89 261.5t234 102.5q109 0 186 -59.5t96 -163.5h-73q-18 73 -72.5 115.5t-134.5 42.5q-115 0 -185 -86t-70 -213t70.5 -209t183.5 -82
q81 0 139 41.5t80 110.5h73z" />
    <glyph glyph-name="ccaron" unicode="&#x10d;" horiz-adv-x="565" 
d="M362 700h65l-98 -137h-63l-99 137h65l63 -91h5zM299 -10q-110 0 -175.5 73t-65.5 184q0 113 67.5 188t173.5 75q84 0 144 -46t73 -126h-67q-11 48 -51 80t-99 32q-77 0 -126 -58t-49 -145q0 -84 47.5 -140.5t127.5 -56.5q60 0 98 28.5t54 78.5h68q-16 -76 -75 -121.5
t-145 -45.5z" />
    <glyph glyph-name="Dcaron" unicode="&#x10e;" horiz-adv-x="699" 
d="M413 900h65l-98 -137h-63l-99 137h65l63 -91h5zM298 700q162 0 245.5 -94.5t83.5 -256.5q0 -158 -82 -253.5t-247 -95.5h-202v700h202zM294 64q137 0 199.5 77.5t62.5 209.5q0 131 -62.5 208t-199.5 77h-129v-572h129z" />
    <glyph glyph-name="dcaron" unicode="&#x10f;" horiz-adv-x="596" 
d="M452 423v287h67v-710h-55l-7 77h-6q-58 -87 -166 -87q-101 0 -164 72t-63 189t63.5 188t163.5 71q114 0 167 -87zM682 709q25 0 38.5 -18.5t13.5 -47.5q0 -89 -85 -143l-21 26q50 40 50 86q-19 -2 -32.5 11.5t-13.5 34.5q0 22 14 36.5t36 14.5zM291 50q73 0 117 55
t44 146q0 90 -44 144.5t-117 54.5q-74 0 -120.5 -55t-46.5 -144q0 -90 46.5 -145.5t120.5 -55.5z" />
    <glyph glyph-name="Dcroat" unicode="&#x110;" horiz-adv-x="699" 
d="M298 700q162 0 245.5 -94.5t83.5 -256.5q0 -158 -82 -253.5t-247 -95.5h-202v322h-118v55h118v323h202zM294 64q137 0 199.5 77.5t62.5 209.5q0 131 -62.5 208t-199.5 77h-129v-259h179v-55h-179v-258h129z" />
    <glyph glyph-name="dcroat" unicode="&#x111;" horiz-adv-x="596" 
d="M620 627v-53h-101v-574h-55l-7 77h-6q-58 -87 -166 -87q-101 0 -164 72t-63 189t63.5 188t163.5 71q114 0 167 -87v151h-113v53h113v83h67v-83h101zM291 50q73 0 117 55t44 146q0 90 -44 144.5t-117 54.5q-74 0 -120.5 -55t-46.5 -144q0 -90 46.5 -145.5t120.5 -55.5z
" />
    <glyph glyph-name="Emacron" unicode="&#x112;" horiz-adv-x="585" 
d="M168 839h285v-51h-285v51zM164 63h368v-63h-436v700h426v-63h-358v-251h319v-62h-319v-261z" />
    <glyph glyph-name="emacron" unicode="&#x113;" horiz-adv-x="564" 
d="M432 639v-51h-285v51h285zM505 263q0 -16 -2 -27h-379q3 -86 48.5 -137.5t119.5 -51.5q54 0 91.5 23.5t51.5 68.5h65q-16 -71 -72 -110t-136 -39q-104 0 -169 70t-65 185q0 120 65 192.5t166 72.5q94 0 155 -65t61 -182zM289 453q-68 0 -113 -47t-51 -118h314
q-1 74 -42.5 119.5t-107.5 45.5z" />
    <glyph glyph-name="Ebreve" unicode="&#x114;" horiz-adv-x="585" 
d="M433 900q0 -49 -33.5 -87.5t-90.5 -38.5t-91 38.5t-34 87.5h57q0 -35 18.5 -56.5t49.5 -21.5t49 21.5t18 56.5h57zM164 63h368v-63h-436v700h426v-63h-358v-251h319v-62h-319v-261z" />
    <glyph glyph-name="ebreve" unicode="&#x115;" horiz-adv-x="564" 
d="M288 574q-57 0 -91 38.5t-34 87.5h57q0 -35 18.5 -56.5t49.5 -21.5t49 21.5t18 56.5h57q0 -49 -33.5 -87.5t-90.5 -38.5zM505 263q0 -16 -2 -27h-379q3 -86 48.5 -137.5t119.5 -51.5q54 0 91.5 23.5t51.5 68.5h65q-16 -71 -72 -110t-136 -39q-104 0 -169 70t-65 185
q0 120 65 192.5t166 72.5q94 0 155 -65t61 -182zM289 453q-68 0 -113 -47t-51 -118h314q-1 74 -42.5 119.5t-107.5 45.5z" />
    <glyph glyph-name="Edotaccent" unicode="&#x116;" horiz-adv-x="585" 
d="M310 788q-20 0 -34.5 14t-14.5 34q0 19 14.5 33t34.5 14t33.5 -13.5t13.5 -33.5t-13.5 -34t-33.5 -14zM164 63h368v-63h-436v700h426v-63h-358v-251h319v-62h-319v-261z" />
    <glyph glyph-name="edotaccent" unicode="&#x117;" horiz-adv-x="564" 
d="M289 588q-20 0 -34.5 14t-14.5 34q0 19 14.5 33t34.5 14q19 0 33 -13.5t14 -33.5t-13.5 -34t-33.5 -14zM505 263q0 -16 -2 -27h-379q3 -86 48.5 -137.5t119.5 -51.5q54 0 91.5 23.5t51.5 68.5h65q-16 -71 -72 -110t-136 -39q-104 0 -169 70t-65 185q0 120 65 192.5
t166 72.5q94 0 155 -65t61 -182zM289 453q-68 0 -113 -47t-51 -118h314q-1 74 -42.5 119.5t-107.5 45.5z" />
    <glyph glyph-name="Eogonek" unicode="&#x118;" horiz-adv-x="585" 
d="M519 -122q25 0 43 5v-47q-21 -7 -47 -7q-48 0 -77.5 21.5t-29.5 65.5q0 52 62 84h-374v700h426v-63h-358v-251h319v-62h-319v-261h368v-63q-71 -26 -71 -78q0 -44 58 -44z" />
    <glyph glyph-name="eogonek" unicode="&#x119;" horiz-adv-x="564" 
d="M505 263q0 -16 -2 -27h-379q3 -86 48.5 -137.5t119.5 -51.5q54 0 91.5 23.5t51.5 68.5h65q-13 -55 -50 -91t-92 -50q-65 -27 -65 -76q0 -44 58 -44q25 0 43 5v-47q-21 -7 -47 -7q-48 0 -77.5 21.5t-29.5 65.5q0 46 45 74q-101 3 -164 73t-63 182q0 120 65 192.5t166 72.5
q94 0 155 -65t61 -182zM289 453q-68 0 -113 -47t-51 -118h314q-1 74 -42.5 119.5t-107.5 45.5z" />
    <glyph glyph-name="Ecaron" unicode="&#x11a;" horiz-adv-x="585" 
d="M375 900h65l-98 -137h-63l-99 137h65l63 -91h5zM164 63h368v-63h-436v700h426v-63h-358v-251h319v-62h-319v-261z" />
    <glyph glyph-name="ecaron" unicode="&#x11b;" horiz-adv-x="564" 
d="M321 563h-63l-99 137h65l63 -91h5l62 91h65zM505 263q0 -16 -2 -27h-379q3 -86 48.5 -137.5t119.5 -51.5q54 0 91.5 23.5t51.5 68.5h65q-16 -71 -72 -110t-136 -39q-104 0 -169 70t-65 185q0 120 65 192.5t166 72.5q94 0 155 -65t61 -182zM289 453q-68 0 -113 -47
t-51 -118h314q-1 74 -42.5 119.5t-107.5 45.5z" />
    <glyph glyph-name="Gcircumflex" unicode="&#x11c;" horiz-adv-x="780" 
d="M332 763h-65l97 137h64l98 -137h-65l-63 90h-4zM397 356h287v-356h-55l-9 87h-6q-88 -97 -226 -97q-144 0 -229.5 97.5t-85.5 252.5q0 160 92.5 265t241.5 105q109 0 182.5 -55.5t91.5 -145.5h-73q-19 62 -71 99t-130 37q-118 0 -191 -85.5t-73 -218.5
q0 -126 67.5 -206.5t182.5 -80.5q92 0 157.5 48.5t65.5 138.5v57h-219v58z" />
    <glyph glyph-name="gcircumflex" unicode="&#x11d;" horiz-adv-x="526" 
d="M267 653l-62 -90h-65l97 137h64l98 -137h-65l-63 90h-4zM503 502q-35 -40 -85 -63q31 -43 31 -101q0 -77 -50.5 -123.5t-127.5 -46.5q-53 0 -93 21q-40 -18 -40 -53q0 -24 19.5 -37.5t56.5 -13.5h100q81 0 125 -35.5t44 -100.5q0 -76 -58 -117.5t-150 -41.5
q-100 0 -154.5 47.5t-62.5 123.5l87 74q-31 9 -49.5 33t-18.5 58q0 59 61 91q-49 47 -49 121q0 75 50.5 123.5t129.5 48.5q64 0 113 -35q44 22 80 69zM271 222q50 0 81.5 33t31.5 83q0 52 -31 85t-82 33q-52 0 -84.5 -33t-32.5 -85q0 -50 33 -83t84 -33zM418 -54
q0 45 -33 64t-76 19h-91l-92 -78q26 -106 149 -106q61 0 102 25.5t41 75.5z" />
    <glyph glyph-name="Gbreve" unicode="&#x11e;" horiz-adv-x="780" 
d="M519 900q0 -49 -33.5 -87.5t-90.5 -38.5t-91 38.5t-34 87.5h57q0 -35 18.5 -56.5t49.5 -21.5t49 21.5t18 56.5h57zM397 356h287v-356h-55l-9 87h-6q-88 -97 -226 -97q-144 0 -229.5 97.5t-85.5 252.5q0 160 92.5 265t241.5 105q109 0 182.5 -55.5t91.5 -145.5h-73
q-19 62 -71 99t-130 37q-118 0 -191 -85.5t-73 -218.5q0 -126 67.5 -206.5t182.5 -80.5q92 0 157.5 48.5t65.5 138.5v57h-219v58z" />
    <glyph glyph-name="gbreve" unicode="&#x11f;" horiz-adv-x="526" 
d="M268 574q-57 0 -91 38.5t-34 87.5h57q0 -35 18.5 -56.5t49.5 -21.5t49 21.5t18 56.5h57q0 -49 -33.5 -87.5t-90.5 -38.5zM503 502q-35 -40 -85 -63q31 -43 31 -101q0 -77 -50.5 -123.5t-127.5 -46.5q-53 0 -93 21q-40 -18 -40 -53q0 -24 19.5 -37.5t56.5 -13.5h100
q81 0 125 -35.5t44 -100.5q0 -76 -58 -117.5t-150 -41.5q-100 0 -154.5 47.5t-62.5 123.5l87 74q-31 9 -49.5 33t-18.5 58q0 59 61 91q-49 47 -49 121q0 75 50.5 123.5t129.5 48.5q64 0 113 -35q44 22 80 69zM271 222q50 0 81.5 33t31.5 83q0 52 -31 85t-82 33
q-52 0 -84.5 -33t-32.5 -85q0 -50 33 -83t84 -33zM418 -54q0 45 -33 64t-76 19h-91l-92 -78q26 -106 149 -106q61 0 102 25.5t41 75.5z" />
    <glyph glyph-name="Gdotaccent" unicode="&#x120;" horiz-adv-x="780" 
d="M397 788q-20 0 -34.5 14t-14.5 34q0 19 14.5 33t34.5 14q19 0 33 -13.5t14 -33.5t-13.5 -34t-33.5 -14zM397 356h287v-356h-55l-9 87h-6q-88 -97 -226 -97q-144 0 -229.5 97.5t-85.5 252.5q0 160 92.5 265t241.5 105q109 0 182.5 -55.5t91.5 -145.5h-73q-19 62 -71 99
t-130 37q-118 0 -191 -85.5t-73 -218.5q0 -126 67.5 -206.5t182.5 -80.5q92 0 157.5 48.5t65.5 138.5v57h-219v58z" />
    <glyph glyph-name="gdotaccent" unicode="&#x121;" horiz-adv-x="526" 
d="M270 588q-20 0 -34.5 14t-14.5 34q0 19 14.5 33t34.5 14t33.5 -13.5t13.5 -33.5t-13.5 -34t-33.5 -14zM503 502q-35 -40 -85 -63q31 -43 31 -101q0 -77 -50.5 -123.5t-127.5 -46.5q-53 0 -93 21q-40 -18 -40 -53q0 -24 19.5 -37.5t56.5 -13.5h100q81 0 125 -35.5
t44 -100.5q0 -76 -58 -117.5t-150 -41.5q-100 0 -154.5 47.5t-62.5 123.5l87 74q-31 9 -49.5 33t-18.5 58q0 59 61 91q-49 47 -49 121q0 75 50.5 123.5t129.5 48.5q64 0 113 -35q44 22 80 69zM271 222q50 0 81.5 33t31.5 83q0 52 -31 85t-82 33q-52 0 -84.5 -33t-32.5 -85
q0 -50 33 -83t84 -33zM418 -54q0 45 -33 64t-76 19h-91l-92 -78q26 -106 149 -106q61 0 102 25.5t41 75.5z" />
    <glyph glyph-name="uni0122" unicode="&#x122;" horiz-adv-x="780" 
d="M397 356h287v-356h-55l-9 87h-6q-88 -97 -226 -97q-144 0 -229.5 97.5t-85.5 252.5q0 160 92.5 265t241.5 105q109 0 182.5 -55.5t91.5 -145.5h-73q-19 62 -71 99t-130 37q-118 0 -191 -85.5t-73 -218.5q0 -126 67.5 -206.5t182.5 -80.5q92 0 157.5 48.5t65.5 138.5v57
h-219v58zM395 -64q26 0 40.5 -18.5t14.5 -46.5q0 -88 -89 -141l-22 24q52 42 52 83q-22 -1 -35.5 12.5t-13.5 34.5q0 23 15 37.5t38 14.5z" />
    <glyph glyph-name="uni0123" unicode="&#x123;" horiz-adv-x="526" 
d="M270 564q-27 0 -41 18.5t-14 46.5q0 89 89 141l22 -24q-52 -41 -53 -83q22 1 35.5 -12.5t13.5 -34.5q0 -23 -14.5 -37.5t-37.5 -14.5zM503 502q-35 -40 -85 -63q31 -43 31 -101q0 -77 -50.5 -123.5t-127.5 -46.5q-53 0 -93 21q-40 -18 -40 -53q0 -24 19.5 -37.5
t56.5 -13.5h100q81 0 125 -35.5t44 -100.5q0 -76 -58 -117.5t-150 -41.5q-100 0 -154.5 47.5t-62.5 123.5l87 74q-31 9 -49.5 33t-18.5 58q0 59 61 91q-49 47 -49 121q0 75 50.5 123.5t129.5 48.5q64 0 113 -35q44 22 80 69zM271 222q50 0 81.5 33t31.5 83q0 52 -31 85
t-82 33q-52 0 -84.5 -33t-32.5 -85q0 -50 33 -83t84 -33zM418 -54q0 45 -33 64t-76 19h-91l-92 -78q26 -106 149 -106q61 0 102 25.5t41 75.5z" />
    <glyph glyph-name="Hcircumflex" unicode="&#x124;" horiz-adv-x="696" 
d="M282 763h-65l97 137h64l98 -137h-65l-63 90h-4zM531 700h69v-700h-69v322h-366v-322h-69v700h69v-315h366v315z" />
    <glyph glyph-name="hcircumflex" unicode="&#x125;" horiz-adv-x="547" 
d="M46 763h-65l97 137h64l98 -137h-65l-63 90h-4zM294 510q78 0 127 -49t49 -140v-321h-67v305q0 73 -34 109t-88 36q-59 0 -98 -39t-39 -117v-294h-67v710h67v-270h6q50 70 144 70z" />
    <glyph glyph-name="Hbar" unicode="&#x126;" horiz-adv-x="696" 
d="M531 700h69v-700h-69v322h-366v-322h-69v700h69v-130h366v130zM165 385h366v128h-366v-128z" />
    <glyph glyph-name="hbar" unicode="&#x127;" horiz-adv-x="547" 
d="M294 510q78 0 127 -49t49 -140v-321h-67v305q0 73 -34 109t-88 36q-59 0 -98 -39t-39 -117v-294h-67v573h-99v53h99v84h67v-84h115v-53h-115v-133h6q50 70 144 70z" />
    <glyph glyph-name="Itilde" unicode="&#x128;" horiz-adv-x="262" 
d="M293 861q-3 -45 -27.5 -76t-65.5 -31q-31 0 -54.5 16t-41.5 32t-37 16q-42 0 -48 -57h-51q5 47 28.5 77.5t65.5 30.5q32 0 55 -16.5t40.5 -32.5t36.5 -16q41 0 49 57h50zM165 700v-700h-69v700h69z" />
    <glyph glyph-name="itilde" unicode="&#x129;" horiz-adv-x="220" 
d="M273 661q-3 -45 -27.5 -76t-65.5 -31q-31 0 -54.5 16t-41.5 32t-37 16q-42 0 -48 -57h-51q5 47 28.5 77.5t65.5 30.5q32 0 55 -16.5t40.5 -32.5t36.5 -16q41 0 49 57h50zM77 0v500h67v-500h-67z" />
    <glyph glyph-name="Imacron" unicode="&#x12a;" horiz-adv-x="262" 
d="M-11 839h285v-51h-285v51zM165 700v-700h-69v700h69z" />
    <glyph glyph-name="imacron" unicode="&#x12b;" horiz-adv-x="220" 
d="M-32 639h285v-51h-285v51zM77 0v500h67v-500h-67z" />
    <glyph glyph-name="Ibreve" unicode="&#x12c;" horiz-adv-x="262" 
d="M254 900q0 -49 -33.5 -87.5t-90.5 -38.5t-91 38.5t-34 87.5h57q0 -35 18.5 -56.5t49.5 -21.5t49 21.5t18 56.5h57zM165 700v-700h-69v700h69z" />
    <glyph glyph-name="ibreve" unicode="&#x12d;" horiz-adv-x="220" 
d="M233 700q0 -49 -33.5 -87.5t-90.5 -38.5t-91 38.5t-34 87.5h57q0 -35 18.5 -56.5t49.5 -21.5t49 21.5t18 56.5h57zM77 0v500h67v-500h-67z" />
    <glyph glyph-name="Iogonek" unicode="&#x12e;" horiz-adv-x="262" 
d="M152 -122q26 0 43 5v-47q-21 -7 -47 -7q-48 0 -77.5 21.5t-29.5 65.5q0 52 62 84h-7v700h69v-700q-71 -26 -71 -78q0 -44 58 -44z" />
    <glyph glyph-name="iogonek" unicode="&#x12f;" horiz-adv-x="220" 
d="M111 588q-20 0 -34.5 14t-14.5 34q0 19 14.5 33t34.5 14q19 0 33 -13.5t14 -33.5t-13.5 -34t-33.5 -14zM130 -122q26 0 43 5v-47q-21 -7 -47 -7q-48 0 -77.5 21.5t-29.5 65.5q0 52 62 84h-4v500h67v-500h-1q-71 -26 -71 -78q0 -44 58 -44z" />
    <glyph glyph-name="Idotaccent" unicode="&#x130;" horiz-adv-x="262" 
d="M131 788q-20 0 -34.5 14t-14.5 34q0 19 14.5 33t34.5 14q19 0 33 -13.5t14 -33.5t-13.5 -34t-33.5 -14zM165 700v-700h-69v700h69z" />
    <glyph glyph-name="dotlessi" unicode="&#x131;" horiz-adv-x="220" 
d="M77 0v500h67v-500h-67z" />
    <glyph glyph-name="IJ" unicode="&#x132;" horiz-adv-x="785" 
d="M165 700v-700h-69v700h69zM368 195q2 -60 35.5 -100t90.5 -40t91.5 38.5t34.5 116.5v490h69v-495q0 -104 -54 -159.5t-141 -55.5q-92 0 -143 56t-55 149h72z" />
    <glyph glyph-name="ij" unicode="&#x133;" horiz-adv-x="452" 
d="M111 588q-20 0 -34.5 14t-14.5 34q0 19 14.5 33t34.5 14q19 0 33 -13.5t14 -33.5t-13.5 -34t-33.5 -14zM325 588q-20 0 -34.5 14t-14.5 34q0 19 14.5 33t34.5 14q19 0 33 -13.5t14 -33.5t-13.5 -34t-33.5 -14zM77 0v500h67v-500h-67zM244 -210q-26 0 -66 10v54
q26 -8 50 -8q63 0 63 64v590h67v-599q0 -50 -27.5 -80.5t-86.5 -30.5z" />
    <glyph glyph-name="Jcircumflex" unicode="&#x134;" horiz-adv-x="533" 
d="M338 763h-65l97 137h64l98 -137h-65l-63 90h-4zM116 195q2 -60 35.5 -100t90.5 -40t91.5 38.5t34.5 116.5v490h69v-495q0 -104 -54 -159.5t-141 -55.5q-92 0 -143 56t-55 149h72z" />
    <glyph glyph-name="jcircumflex" unicode="&#x135;" horiz-adv-x="220" 
d="M45 563h-65l97 137h64l98 -137h-65l-63 90h-4zM30 -210q-28 0 -66 10v54q26 -8 50 -8q63 0 63 64v590h67v-599q0 -50 -27.5 -80.5t-86.5 -30.5z" />
    <glyph glyph-name="uni0136" unicode="&#x136;" horiz-adv-x="608" 
d="M496 0l-275 327h-56v-327h-69v700h69v-309h56l251 309h83l-273 -338v-4l298 -358h-84zM330 -64q26 0 40.5 -18.5t14.5 -46.5q0 -88 -89 -141l-22 24q52 42 52 83q-22 -1 -35.5 12.5t-13.5 34.5q0 23 15 37.5t38 14.5z" />
    <glyph glyph-name="uni0137" unicode="&#x137;" horiz-adv-x="495" 
d="M472 500l-205 -203l205 -297h-76l-175 251l-77 -76v-175h-67v710h67v-446h6l238 236h84zM268 -64q26 0 40.5 -18.5t14.5 -46.5q0 -88 -89 -141l-22 24q52 42 52 83q-22 -1 -35.5 12.5t-13.5 34.5q0 23 15 37.5t38 14.5z" />
    <glyph glyph-name="Lacute" unicode="&#x139;" horiz-adv-x="573" 
d="M166 900h62l-72 -145h-56zM164 64h365v-64h-433v700h68v-636z" />
    <glyph glyph-name="lacute" unicode="&#x13a;" horiz-adv-x="220" 
d="M148 900h62l-72 -145h-56zM77 0v710h67v-710h-67z" />
    <glyph glyph-name="uni013B" unicode="&#x13b;" horiz-adv-x="573" 
d="M164 64h365v-64h-433v700h68v-636zM310 -64q26 0 40.5 -18.5t14.5 -46.5q0 -88 -89 -141l-22 24q52 42 52 83q-22 -1 -35.5 12.5t-13.5 34.5q0 23 15 37.5t38 14.5z" />
    <glyph glyph-name="uni013C" unicode="&#x13c;" horiz-adv-x="220" 
d="M77 0v710h67v-710h-67zM110 -64q26 0 40.5 -18.5t14.5 -46.5q0 -88 -89 -141l-22 24q52 42 52 83q-22 -1 -35.5 12.5t-13.5 34.5q0 23 15 37.5t38 14.5z" />
    <glyph glyph-name="Lcaron" unicode="&#x13d;" horiz-adv-x="573" 
d="M327 709q25 0 38.5 -18.5t13.5 -47.5q0 -89 -85 -143l-21 26q50 40 50 86q-19 -2 -32.5 11.5t-13.5 34.5q0 22 14 36.5t36 14.5zM164 64h365v-64h-433v700h68v-636z" />
    <glyph glyph-name="lcaron" unicode="&#x13e;" horiz-adv-x="220" 
d="M77 0v710h67v-710h-67zM306 709q25 0 38.5 -18.5t13.5 -47.5q0 -89 -85 -143l-21 26q50 40 50 86q-19 -2 -32.5 11.5t-13.5 34.5q0 22 14 36.5t36 14.5z" />
    <glyph glyph-name="Ldot" unicode="&#x13f;" horiz-adv-x="573" 
d="M164 64h365v-64h-433v700h68v-636zM348 355q-20 0 -34.5 14t-14.5 34q0 19 14.5 33t34.5 14t33.5 -14t13.5 -33q0 -20 -13.5 -34t-33.5 -14z" />
    <glyph glyph-name="ldot" unicode="&#x140;" horiz-adv-x="220" 
d="M111 788q-20 0 -34.5 14t-14.5 34q0 19 14.5 33t34.5 14q19 0 33 -13.5t14 -33.5t-13.5 -34t-33.5 -14zM77 0v710h67v-710h-67z" />
    <glyph glyph-name="Lslash" unicode="&#x141;" horiz-adv-x="573" 
d="M164 64h365v-64h-433v277l-120 -62v67l120 62v356h68v-321l179 92v-66l-179 -93v-248z" />
    <glyph glyph-name="lslash" unicode="&#x142;" horiz-adv-x="220" 
d="M238 457v-66l-94 -51v-340h-67v303l-93 -51v65l93 51v342h67v-305z" />
    <glyph glyph-name="Nacute" unicode="&#x143;" horiz-adv-x="742" 
d="M409 900h62l-72 -145h-56zM577 700h69v-700h-79l-397 586h-6v-586h-68v700h80l395 -585h6v585z" />
    <glyph glyph-name="nacute" unicode="&#x144;" horiz-adv-x="547" 
d="M311 700h62l-72 -145h-56zM77 0v500h60l7 -60h6q50 70 144 70q78 0 127 -49t49 -140v-321h-67v305q0 73 -34 109t-88 36q-59 0 -98 -39t-39 -117v-294h-67z" />
    <glyph glyph-name="uni0145" unicode="&#x145;" horiz-adv-x="742" 
d="M577 700h69v-700h-79l-397 586h-6v-586h-68v700h80l395 -585h6v585zM370 -64q26 0 40.5 -18.5t14.5 -46.5q0 -88 -89 -141l-22 24q52 42 52 83q-22 -1 -35.5 12.5t-13.5 34.5q0 23 15 37.5t38 14.5z" />
    <glyph glyph-name="uni0146" unicode="&#x146;" horiz-adv-x="547" 
d="M77 0v500h60l7 -60h6q50 70 144 70q78 0 127 -49t49 -140v-321h-67v305q0 73 -34 109t-88 36q-59 0 -98 -39t-39 -117v-294h-67zM271 -64q26 0 40.5 -18.5t14.5 -46.5q0 -88 -89 -141l-22 24q52 42 52 83q-22 -1 -35.5 12.5t-13.5 34.5q0 23 15 37.5t38 14.5z" />
    <glyph glyph-name="Ncaron" unicode="&#x147;" horiz-adv-x="742" 
d="M437 900h65l-98 -137h-63l-99 137h65l63 -91h5zM577 700h69v-700h-79l-397 586h-6v-586h-68v700h80l395 -585h6v585z" />
    <glyph glyph-name="ncaron" unicode="&#x148;" horiz-adv-x="547" 
d="M338 700h65l-98 -137h-63l-99 137h65l63 -91h5zM77 0v500h60l7 -60h6q50 70 144 70q78 0 127 -49t49 -140v-321h-67v305q0 73 -34 109t-88 36q-59 0 -98 -39t-39 -117v-294h-67z" />
    <glyph glyph-name="Eng" unicode="&#x14a;" horiz-adv-x="742" 
d="M577 700h69v-792q0 -58 -30.5 -88t-83.5 -30q-27 0 -67 10v54q27 -8 51 -8q63 0 63 69v69l-409 602h-6v-586h-68v700h80l395 -585h6v585z" />
    <glyph glyph-name="eng" unicode="&#x14b;" horiz-adv-x="547" 
d="M294 510q78 0 127 -49t49 -140v-413q0 -58 -30.5 -88t-83.5 -30q-28 0 -66 10v54q26 -8 50 -8q63 0 63 69v390q0 73 -34 109t-88 36q-59 0 -98 -39t-39 -117v-294h-67v500h60l7 -60h6q50 70 144 70z" />
    <glyph glyph-name="Omacron" unicode="&#x14c;" horiz-adv-x="820" 
d="M268 839h285v-51h-285v51zM410 -10q-145 0 -241 102.5t-96 257.5t96 257.5t241 102.5q144 0 240.5 -102.5t96.5 -257.5q0 -154 -96.5 -257t-240.5 -103zM410 55q115 0 191 84.5t76 210.5t-76.5 210.5t-190.5 84.5t-190.5 -84.5t-76.5 -210.5t76.5 -210.5t190.5 -84.5z
" />
    <glyph glyph-name="omacron" unicode="&#x14d;" horiz-adv-x="603" 
d="M160 639h285v-51h-285v51zM301 -10q-106 0 -174.5 74.5t-68.5 185.5q0 112 68.5 186t174.5 74q105 0 175 -74.5t70 -185.5q0 -112 -69.5 -186t-175.5 -74zM301 50q79 0 128.5 58t49.5 142t-50 142t-128 58q-79 0 -128 -58t-49 -142t49.5 -142t127.5 -58z" />
    <glyph glyph-name="Obreve" unicode="&#x14e;" horiz-adv-x="820" 
d="M533 900q0 -49 -33.5 -87.5t-90.5 -38.5t-91 38.5t-34 87.5h57q0 -35 18.5 -56.5t49.5 -21.5t49 21.5t18 56.5h57zM410 -10q-145 0 -241 102.5t-96 257.5t96 257.5t241 102.5q144 0 240.5 -102.5t96.5 -257.5q0 -154 -96.5 -257t-240.5 -103zM410 55q115 0 191 84.5
t76 210.5t-76.5 210.5t-190.5 84.5t-190.5 -84.5t-76.5 -210.5t76.5 -210.5t190.5 -84.5z" />
    <glyph glyph-name="obreve" unicode="&#x14f;" horiz-adv-x="603" 
d="M425 700q0 -49 -33.5 -87.5t-90.5 -38.5t-91 38.5t-34 87.5h57q0 -35 18.5 -56.5t49.5 -21.5t49 21.5t18 56.5h57zM301 -10q-106 0 -174.5 74.5t-68.5 185.5q0 112 68.5 186t174.5 74q105 0 175 -74.5t70 -185.5q0 -112 -69.5 -186t-175.5 -74zM301 50q79 0 128.5 58
t49.5 142t-50 142t-128 58q-79 0 -128 -58t-49 -142t49.5 -142t127.5 -58z" />
    <glyph glyph-name="Ohungarumlaut" unicode="&#x150;" horiz-adv-x="820" 
d="M368 900h62l-62 -145h-58zM509 900h63l-64 -145h-56zM410 -10q-145 0 -241 102.5t-96 257.5t96 257.5t241 102.5q144 0 240.5 -102.5t96.5 -257.5q0 -154 -96.5 -257t-240.5 -103zM410 55q115 0 191 84.5t76 210.5t-76.5 210.5t-190.5 84.5t-190.5 -84.5t-76.5 -210.5
t76.5 -210.5t190.5 -84.5z" />
    <glyph glyph-name="ohungarumlaut" unicode="&#x151;" horiz-adv-x="603" 
d="M260 700h62l-62 -145h-58zM401 700h63l-64 -145h-56zM301 -10q-106 0 -174.5 74.5t-68.5 185.5q0 112 68.5 186t174.5 74q105 0 175 -74.5t70 -185.5q0 -112 -69.5 -186t-175.5 -74zM301 50q79 0 128.5 58t49.5 142t-50 142t-128 58q-79 0 -128 -58t-49 -142t49.5 -142
t127.5 -58z" />
    <glyph glyph-name="OE" unicode="&#x152;" horiz-adv-x="1123" 
d="M717 63h353v-63h-421v136q-41 -68 -107.5 -107t-147.5 -39q-138 0 -229.5 101.5t-91.5 258.5t91.5 258.5t229.5 101.5q79 0 146 -38.5t109 -106.5v135h411v-63h-343v-251h305v-62h-305v-261zM396 55q108 0 179.5 83t71.5 212t-72 212t-180 83t-180 -83t-72 -212t72 -212
t181 -83z" />
    <glyph glyph-name="oe" unicode="&#x153;" horiz-adv-x="766" 
d="M707 265q0 -18 -1 -30h-270q3 -190 107 -190q36 0 64.5 22t33.5 71h64q-8 -76 -53 -112t-109 -36q-107 0 -146 93q-51 -93 -151 -93q-84 0 -136 70.5t-52 189.5q0 121 52 190.5t136 69.5q102 0 153 -97q40 97 144 97q73 0 118.5 -56.5t45.5 -188.5zM543 455
q-46 0 -75 -41t-32 -126h208q-1 89 -29 128t-72 39zM247 47q56 0 89.5 54.5t33.5 148.5q0 95 -33.5 149t-89.5 54q-57 0 -90 -53.5t-33 -149.5q0 -94 33 -148.5t90 -54.5z" />
    <glyph glyph-name="Racute" unicode="&#x154;" horiz-adv-x="619" 
d="M418 900l-72 -145h-56l66 145h62zM576 0h-79l-185 305h-148v-305h-68v700h233q98 0 155.5 -52.5t57.5 -141.5q0 -76 -42.5 -125.5t-117.5 -64.5zM164 638v-272h154q72 0 113.5 38t41.5 100q0 64 -41.5 99t-113.5 35h-154z" />
    <glyph glyph-name="racute" unicode="&#x155;" horiz-adv-x="337" 
d="M233 700h62l-72 -145h-56zM77 0v500h59l8 -68h6q43 78 139 78h26v-68q-14 2 -41 2q-57 0 -93.5 -44.5t-36.5 -122.5v-277h-67z" />
    <glyph glyph-name="uni0156" unicode="&#x156;" horiz-adv-x="619" 
d="M382 316l194 -316h-79l-185 305h-148v-305h-68v700h233q98 0 155.5 -52.5t57.5 -141.5q0 -76 -42.5 -125.5t-117.5 -64.5zM164 638v-272h154q72 0 113.5 38t41.5 100q0 64 -41.5 99t-113.5 35h-154zM329 -64q26 0 40.5 -18.5t14.5 -46.5q0 -88 -89 -141l-22 24
q52 42 52 83q-22 -1 -35.5 12.5t-13.5 34.5q0 23 15 37.5t38 14.5z" />
    <glyph glyph-name="uni0157" unicode="&#x157;" horiz-adv-x="337" 
d="M77 0v500h59l8 -68h6q43 78 139 78h26v-68q-14 2 -41 2q-57 0 -93.5 -44.5t-36.5 -122.5v-277h-67zM109 -64q26 0 40.5 -18.5t14.5 -46.5q0 -88 -89 -141l-22 24q52 42 52 83q-22 -1 -35.5 12.5t-13.5 34.5q0 23 15 37.5t38 14.5z" />
    <glyph glyph-name="Rcaron" unicode="&#x158;" horiz-adv-x="619" 
d="M350 763h-63l-99 137h65l63 -91h5l62 91h65zM576 0h-79l-185 305h-148v-305h-68v700h233q98 0 155.5 -52.5t57.5 -141.5q0 -76 -42.5 -125.5t-117.5 -64.5zM164 638v-272h154q72 0 113.5 38t41.5 100q0 64 -41.5 99t-113.5 35h-154z" />
    <glyph glyph-name="rcaron" unicode="&#x159;" horiz-adv-x="337" 
d="M261 700h65l-98 -137h-63l-99 137h65l63 -91h5zM77 0v500h59l8 -68h6q43 78 139 78h26v-68q-14 2 -41 2q-57 0 -93.5 -44.5t-36.5 -122.5v-277h-67z" />
    <glyph glyph-name="Sacute" unicode="&#x15a;" horiz-adv-x="605" 
d="M348 900h62l-72 -145h-56zM528 178q0 -92 -62 -140t-158 -48q-104 0 -165.5 52.5t-69.5 150.5h69q20 -141 166 -141q66 0 107.5 31t41.5 93q0 35 -13 61t-39 43.5t-46.5 26.5t-52.5 19l-36 11q-35 12 -58.5 22.5t-54.5 31.5t-47 54t-16 76q0 85 61.5 137t154.5 52
q95 0 155 -54.5t65 -139.5h-69q-6 58 -44.5 95t-105.5 37q-65 0 -106 -35t-41 -90q0 -30 12.5 -53t39.5 -38.5t44 -22.5t51 -18l31 -9q26 -8 43 -14.5t47 -24t48.5 -37t33 -53.5t14.5 -75z" />
    <glyph glyph-name="sacute" unicode="&#x15b;" horiz-adv-x="468" 
d="M263 700h62l-72 -145h-56zM241 -10q-88 0 -134.5 43.5t-48.5 113.5h65q9 -102 118 -102q46 0 75 20t29 60q0 23 -9.5 40.5t-28 29.5t-33.5 18.5t-38 13.5l-30 9q-22 7 -35.5 12.5t-34 17t-32.5 24.5t-21 34.5t-9 47.5q0 63 46.5 100.5t114.5 37.5q78 0 120.5 -41.5
t45.5 -96.5h-65q-4 37 -31 60t-70 23q-41 0 -68.5 -20.5t-27.5 -59.5q0 -20 7.5 -34.5t24.5 -24.5t30 -15.5t37 -13.5l27 -9q29 -9 50.5 -19t45.5 -27t36.5 -44t12.5 -61q0 -68 -48 -102.5t-121 -34.5z" />
    <glyph glyph-name="Scircumflex" unicode="&#x15c;" horiz-adv-x="605" 
d="M246 763h-65l97 137h64l98 -137h-65l-63 90h-4zM528 178q0 -92 -62 -140t-158 -48q-104 0 -165.5 52.5t-69.5 150.5h69q20 -141 166 -141q66 0 107.5 31t41.5 93q0 35 -13 61t-39 43.5t-46.5 26.5t-52.5 19l-36 11q-35 12 -58.5 22.5t-54.5 31.5t-47 54t-16 76
q0 85 61.5 137t154.5 52q95 0 155 -54.5t65 -139.5h-69q-6 58 -44.5 95t-105.5 37q-65 0 -106 -35t-41 -90q0 -30 12.5 -53t39.5 -38.5t44 -22.5t51 -18l31 -9q26 -8 43 -14.5t47 -24t48.5 -37t33 -53.5t14.5 -75z" />
    <glyph glyph-name="scircumflex" unicode="&#x15d;" horiz-adv-x="468" 
d="M161 563h-65l97 137h64l98 -137h-65l-63 90h-4zM241 -10q-88 0 -134.5 43.5t-48.5 113.5h65q9 -102 118 -102q46 0 75 20t29 60q0 23 -9.5 40.5t-28 29.5t-33.5 18.5t-38 13.5l-30 9q-22 7 -35.5 12.5t-34 17t-32.5 24.5t-21 34.5t-9 47.5q0 63 46.5 100.5t114.5 37.5
q78 0 120.5 -41.5t45.5 -96.5h-65q-4 37 -31 60t-70 23q-41 0 -68.5 -20.5t-27.5 -59.5q0 -20 7.5 -34.5t24.5 -24.5t30 -15.5t37 -13.5l27 -9q29 -9 50.5 -19t45.5 -27t36.5 -44t12.5 -61q0 -68 -48 -102.5t-121 -34.5z" />
    <glyph glyph-name="Scedilla" unicode="&#x15e;" horiz-adv-x="605" 
d="M342 382q26 -8 43 -14.5t47 -24t48.5 -37t33 -53.5t14.5 -75q0 -87 -55.5 -134.5t-144.5 -52.5l-25 -35q37 2 68 -20t31 -64q0 -38 -26 -60t-72 -22q-40 0 -68 20l16 34q25 -15 49 -15q25 0 40.5 13t15.5 33q0 47 -59 47q-18 0 -36 -9l-24 21l41 57q-91 8 -145 59.5
t-61 142.5h69q20 -141 166 -141q66 0 107.5 31t41.5 93q0 35 -13 61t-39 43.5t-46.5 26.5t-52.5 19l-36 11q-35 12 -58.5 22.5t-54.5 31.5t-47 54t-16 76q0 85 61.5 137t154.5 52q95 0 155 -54.5t65 -139.5h-69q-6 58 -44.5 95t-105.5 37q-65 0 -106 -35t-41 -90
q0 -30 12.5 -53t39.5 -38.5t44 -22.5t51 -18z" />
    <glyph glyph-name="scedilla" unicode="&#x15f;" horiz-adv-x="468" 
d="M410 127q0 -63 -42 -97.5t-109 -38.5l-25 -35q37 2 68 -20t31 -64q0 -38 -26 -60t-72 -22q-40 0 -68 20l16 34q25 -15 49 -15q25 0 40.5 13t15.5 33q0 47 -59 47q-18 0 -36 -9l-24 21l42 58q-74 7 -112.5 49t-40.5 106h65q9 -102 118 -102q46 0 75 20t29 60
q0 23 -9.5 40.5t-28 29.5t-33.5 18.5t-38 13.5l-30 9q-22 7 -35.5 12.5t-34 17t-32.5 24.5t-21 34.5t-9 47.5q0 63 46.5 100.5t114.5 37.5q78 0 120.5 -41.5t45.5 -96.5h-65q-4 37 -31 60t-70 23q-41 0 -68.5 -20.5t-27.5 -59.5q0 -20 7.5 -34.5t24.5 -24.5t30 -15.5
t37 -13.5l27 -9q29 -9 50.5 -19t45.5 -27t36.5 -44t12.5 -61z" />
    <glyph glyph-name="Scaron" unicode="&#x160;" horiz-adv-x="605" 
d="M376 900h65l-98 -137h-63l-99 137h65l63 -91h5zM528 178q0 -92 -62 -140t-158 -48q-104 0 -165.5 52.5t-69.5 150.5h69q20 -141 166 -141q66 0 107.5 31t41.5 93q0 35 -13 61t-39 43.5t-46.5 26.5t-52.5 19l-36 11q-35 12 -58.5 22.5t-54.5 31.5t-47 54t-16 76
q0 85 61.5 137t154.5 52q95 0 155 -54.5t65 -139.5h-69q-6 58 -44.5 95t-105.5 37q-65 0 -106 -35t-41 -90q0 -30 12.5 -53t39.5 -38.5t44 -22.5t51 -18l31 -9q26 -8 43 -14.5t47 -24t48.5 -37t33 -53.5t14.5 -75z" />
    <glyph glyph-name="scaron" unicode="&#x161;" horiz-adv-x="468" 
d="M291 700h65l-98 -137h-63l-99 137h65l63 -91h5zM241 -10q-88 0 -134.5 43.5t-48.5 113.5h65q9 -102 118 -102q46 0 75 20t29 60q0 23 -9.5 40.5t-28 29.5t-33.5 18.5t-38 13.5l-30 9q-22 7 -35.5 12.5t-34 17t-32.5 24.5t-21 34.5t-9 47.5q0 63 46.5 100.5t114.5 37.5
q78 0 120.5 -41.5t45.5 -96.5h-65q-4 37 -31 60t-70 23q-41 0 -68.5 -20.5t-27.5 -59.5q0 -20 7.5 -34.5t24.5 -24.5t30 -15.5t37 -13.5l27 -9q29 -9 50.5 -19t45.5 -27t36.5 -44t12.5 -61q0 -68 -48 -102.5t-121 -34.5z" />
    <glyph glyph-name="uni0162" unicode="&#x162;" horiz-adv-x="568" 
d="M319 0h-10l-32 -44q37 2 68 -20t31 -64q0 -38 -26 -60t-72 -22q-40 0 -68 20l16 34q25 -15 49 -15q25 0 40.5 13t15.5 33q0 47 -59 47q-18 0 -36 -9l-24 21l48 66h-10v636h-206v64h480v-64h-205v-636z" />
    <glyph glyph-name="uni0163" unicode="&#x163;" horiz-adv-x="338" 
d="M316 445h-121v-334q0 -64 62 -64q25 0 49 8v-55q-38 -10 -65 -10h-6l-25 -34q37 2 68 -20t31 -64q0 -38 -26 -60t-72 -22q-40 0 -68 20l16 34q25 -15 49 -15q25 0 40.5 13t15.5 33q0 47 -59 47q-18 0 -36 -9l-24 21l46 64q-63 22 -63 103v344h-106v55h34q44 0 61 16
t17 56v64h61v-136h121v-55z" />
    <glyph glyph-name="Tcaron" unicode="&#x164;" horiz-adv-x="568" 
d="M316 763h-63l-99 137h65l63 -91h5l62 91h65zM524 700v-64h-205v-636h-69v636h-206v64h480z" />
    <glyph glyph-name="tcaron" unicode="&#x165;" horiz-adv-x="338" 
d="M354 756q25 0 38 -17.5t13 -45.5q0 -84 -84 -137l-20 25q49 38 49 82q-19 -2 -32 11t-13 33q0 22 13.5 35.5t35.5 13.5zM241 -10q-59 0 -86 30.5t-27 80.5v344h-106v55h34q44 0 61 16t17 56v64h61v-136h121v-55h-121v-334q0 -64 62 -64q25 0 49 8v-55q-38 -10 -65 -10z
" />
    <glyph glyph-name="Tbar" unicode="&#x166;" horiz-adv-x="568" 
d="M524 636h-205v-257h148v-55h-148v-324h-69v324h-149v55h149v257h-206v64h480v-64z" />
    <glyph glyph-name="tbar" unicode="&#x167;" horiz-adv-x="338" 
d="M316 445h-121v-145h114v-53h-114v-136q0 -64 62 -64q25 0 49 8v-55q-38 -10 -65 -10q-59 0 -86 30.5t-27 80.5v146h-100v53h100v145h-106v55h34q44 0 61 16t17 56v64h61v-136h121v-55z" />
    <glyph glyph-name="Utilde" unicode="&#x168;" horiz-adv-x="718" 
d="M522 861q-3 -45 -27.5 -76t-65.5 -31q-31 0 -54.5 16t-41.5 32t-37 16q-42 0 -48 -57h-51q5 47 28.5 77.5t65.5 30.5q32 0 55 -16.5t40.5 -32.5t36.5 -16q41 0 49 57h50zM622 700v-442q0 -129 -71.5 -198.5t-190.5 -69.5q-118 0 -191 70t-73 198v442h69v-434
q0 -104 54 -157.5t142 -53.5q86 0 138.5 53.5t52.5 157.5v434h70z" />
    <glyph glyph-name="utilde" unicode="&#x169;" horiz-adv-x="547" 
d="M436 661q-3 -45 -27.5 -76t-65.5 -31q-31 0 -54.5 16t-41.5 32t-37 16q-42 0 -48 -57h-51q5 47 28.5 77.5t65.5 30.5q32 0 55 -16.5t40.5 -32.5t36.5 -16q41 0 49 57h50zM470 500v-500h-60l-7 60h-6q-50 -70 -144 -70q-78 0 -127 49t-49 140v321h67v-305q0 -73 34 -109
t88 -36q59 0 98 39t39 117v294h67z" />
    <glyph glyph-name="Umacron" unicode="&#x16a;" horiz-adv-x="718" 
d="M217 839h285v-51h-285v51zM622 700v-442q0 -129 -71.5 -198.5t-190.5 -69.5q-118 0 -191 70t-73 198v442h69v-434q0 -104 54 -157.5t142 -53.5q86 0 138.5 53.5t52.5 157.5v434h70z" />
    <glyph glyph-name="umacron" unicode="&#x16b;" horiz-adv-x="547" 
d="M132 639h285v-51h-285v51zM470 500v-500h-60l-7 60h-6q-50 -70 -144 -70q-78 0 -127 49t-49 140v321h67v-305q0 -73 34 -109t88 -36q59 0 98 39t39 117v294h67z" />
    <glyph glyph-name="Ubreve" unicode="&#x16c;" horiz-adv-x="718" 
d="M482 900q0 -49 -33.5 -87.5t-90.5 -38.5t-91 38.5t-34 87.5h57q0 -35 18.5 -56.5t49.5 -21.5t49 21.5t18 56.5h57zM622 700v-442q0 -129 -71.5 -198.5t-190.5 -69.5q-118 0 -191 70t-73 198v442h69v-434q0 -104 54 -157.5t142 -53.5q86 0 138.5 53.5t52.5 157.5v434h70z
" />
    <glyph glyph-name="ubreve" unicode="&#x16d;" horiz-adv-x="547" 
d="M397 700q0 -49 -33.5 -87.5t-90.5 -38.5t-91 38.5t-34 87.5h57q0 -35 18.5 -56.5t49.5 -21.5t49 21.5t18 56.5h57zM470 500v-500h-60l-7 60h-6q-50 -70 -144 -70q-78 0 -127 49t-49 140v321h67v-305q0 -73 34 -109t88 -36q59 0 98 39t39 117v294h67z" />
    <glyph glyph-name="Uring" unicode="&#x16e;" horiz-adv-x="718" 
d="M360 745q-39 0 -67 27.5t-28 65.5t28 65t67 27q38 0 65.5 -27.5t27.5 -64.5q0 -38 -27.5 -65.5t-65.5 -27.5zM360 788q20 0 33.5 14.5t13.5 35.5q0 20 -14 34t-33 14q-21 0 -35 -14t-14 -34q0 -21 14 -35.5t35 -14.5zM622 700v-442q0 -129 -71.5 -198.5t-190.5 -69.5
q-118 0 -191 70t-73 198v442h69v-434q0 -104 54 -157.5t142 -53.5q86 0 138.5 53.5t52.5 157.5v434h70z" />
    <glyph glyph-name="uring" unicode="&#x16f;" horiz-adv-x="547" 
d="M275 545q-39 0 -67 27.5t-28 65.5t28 65t67 27q38 0 65.5 -27.5t27.5 -64.5q0 -38 -28 -65.5t-65 -27.5zM275 588q20 0 33.5 14.5t13.5 35.5q0 20 -14 34t-33 14q-21 0 -35 -14t-14 -34q0 -21 14 -35.5t35 -14.5zM470 500v-500h-60l-7 60h-6q-50 -70 -144 -70
q-78 0 -127 49t-49 140v321h67v-305q0 -73 34 -109t88 -36q59 0 98 39t39 117v294h67z" />
    <glyph glyph-name="Uhungarumlaut" unicode="&#x170;" horiz-adv-x="718" 
d="M318 900h62l-62 -145h-58zM459 900h63l-64 -145h-56zM622 700v-442q0 -129 -71.5 -198.5t-190.5 -69.5q-118 0 -191 70t-73 198v442h69v-434q0 -104 54 -157.5t142 -53.5q86 0 138.5 53.5t52.5 157.5v434h70z" />
    <glyph glyph-name="uhungarumlaut" unicode="&#x171;" horiz-adv-x="547" 
d="M232 700h62l-62 -145h-58zM373 700h63l-64 -145h-56zM470 500v-500h-60l-7 60h-6q-50 -70 -144 -70q-78 0 -127 49t-49 140v321h67v-305q0 -73 34 -109t88 -36q59 0 98 39t39 117v294h67z" />
    <glyph glyph-name="Uogonek" unicode="&#x172;" horiz-adv-x="718" 
d="M552 700h70v-442q0 -106 -49 -172.5t-135 -86.5q-68 -26 -68 -77q0 -44 58 -44q25 0 43 5v-47q-21 -7 -47 -7q-48 0 -77.5 21.5t-29.5 65.5q0 46 45 74h-2q-118 0 -191 70t-73 198v442h69v-434q0 -104 54 -157.5t142 -53.5q86 0 138.5 53.5t52.5 157.5v434z" />
    <glyph glyph-name="uogonek" unicode="&#x173;" horiz-adv-x="547" 
d="M456 -122q25 0 43 5v-47q-21 -7 -47 -7q-48 0 -77.5 21.5t-29.5 65.5q0 53 65 85l-7 59h-6q-50 -70 -144 -70q-78 0 -127 49t-49 140v321h67v-305q0 -73 34 -109t88 -36q59 0 98 39t39 117v294h67v-500h-1q-71 -26 -71 -78q0 -44 58 -44z" />
    <glyph glyph-name="Wcircumflex" unicode="&#x174;" horiz-adv-x="879" 
d="M375 763h-65l97 137h64l98 -137h-65l-63 90h-4zM783 700h67l-158 -700h-84l-166 559h-6l-165 -559h-84l-158 700h69l131 -605h6l164 553h82l161 -553h6z" />
    <glyph glyph-name="wcircumflex" unicode="&#x175;" horiz-adv-x="693" 
d="M282 563h-65l97 137h64l98 -137h-65l-63 90h-4zM146 0l-123 500h65l98 -421h6l115 383h79l115 -384h6l99 422h65l-125 -500h-81l-115 388h-6l-117 -388h-81z" />
    <glyph glyph-name="Ycircumflex" unicode="&#x176;" horiz-adv-x="631" 
d="M251 763h-65l97 137h64l98 -137h-65l-63 90h-4zM517 700h85l-251 -358v-342h-70v342l-252 358h85l199 -282h6z" />
    <glyph glyph-name="ycircumflex" unicode="&#x177;" horiz-adv-x="510" 
d="M191 563h-65l97 137h64l98 -137h-65l-63 90h-4zM116 -210q-26 0 -66 10v54q29 -8 55 -8q75 0 105 78l30 76h-25l-192 500h70l163 -429h6l155 429h71l-214 -586q-8 -22 -15.5 -36.5t-25.5 -38t-48 -36.5t-69 -13z" />
    <glyph glyph-name="Ydieresis" unicode="&#x178;" horiz-adv-x="631" 
d="M203 772q-21 0 -36.5 15t-15.5 36q0 22 15.5 37.5t36.5 15.5t36.5 -15.5t15.5 -37.5q0 -21 -15.5 -36t-36.5 -15zM429 772q-21 0 -36 15t-15 36q0 22 15 37.5t36 15.5t36.5 -15.5t15.5 -37.5q0 -21 -15.5 -36t-36.5 -15zM517 700h85l-251 -358v-342h-70v342l-252 358h85
l199 -282h6z" />
    <glyph glyph-name="Zacute" unicode="&#x179;" horiz-adv-x="612" 
d="M353 900h62l-72 -145h-56zM175 64h360v-64h-462v38l364 594v4h-341v64h440v-38l-361 -594v-4z" />
    <glyph glyph-name="zacute" unicode="&#x17a;" horiz-adv-x="472" 
d="M282 700h62l-72 -145h-56zM58 0v34l262 407v4h-245v55h337v-34l-262 -407v-4h263v-55h-355z" />
    <glyph glyph-name="Zdotaccent" unicode="&#x17b;" horiz-adv-x="612" 
d="M316 788q-20 0 -34.5 14t-14.5 34q0 19 14.5 33t34.5 14t33.5 -13.5t13.5 -33.5t-13.5 -34t-33.5 -14zM175 64h360v-64h-462v38l364 594v4h-341v64h440v-38l-361 -594v-4z" />
    <glyph glyph-name="zdotaccent" unicode="&#x17c;" horiz-adv-x="472" 
d="M244 588q-20 0 -34.5 14t-14.5 34q0 19 14.5 33t34.5 14t33.5 -13.5t13.5 -33.5t-13.5 -34t-33.5 -14zM58 0v34l262 407v4h-245v55h337v-34l-262 -407v-4h263v-55h-355z" />
    <glyph glyph-name="Zcaron" unicode="&#x17d;" horiz-adv-x="612" 
d="M381 900h65l-98 -137h-63l-99 137h65l63 -91h5zM175 64h360v-64h-462v38l364 594v4h-341v64h440v-38l-361 -594v-4z" />
    <glyph glyph-name="zcaron" unicode="&#x17e;" horiz-adv-x="472" 
d="M309 700h65l-98 -137h-63l-99 137h65l63 -91h5zM58 0v34l262 407v4h-245v55h337v-34l-262 -407v-4h263v-55h-355z" />
    <glyph glyph-name="florin" unicode="&#x192;" horiz-adv-x="519" 
d="M396 650q55 0 95 -40l-29 -45q-26 28 -63 28q-62 0 -73 -71l-25 -151h144v-53h-152l-34 -205q-21 -123 -136 -123q-56 0 -94 40l29 45q26 -28 63 -28q62 0 72 71l33 200h-135v53h144l26 156q21 123 135 123z" />
    <glyph glyph-name="uni01CD" unicode="&#x1cd;" horiz-adv-x="627" 
d="M346 763h-63l-99 137h65l63 -91h5l62 91h65zM523 0l-68 203h-284l-68 -203h-74l241 700h87l241 -700h-75zM192 264h242l-118 353h-6z" />
    <glyph glyph-name="uni01CE" unicode="&#x1ce;" horiz-adv-x="520" 
d="M279 563h-63l-99 137h65l63 -91h5l62 91h65zM474 53h13v-53h-33q-71 0 -82 66q-58 -76 -166 -76q-71 0 -115.5 35.5t-44.5 105.5q0 68 47.5 107t126.5 46l146 14v33q0 56 -29.5 89t-86.5 33q-98 0 -117 -105h-67q8 72 56.5 117t127.5 45q84 0 133.5 -47t49.5 -130v-237
q0 -43 41 -43zM366 191v55l-128 -12q-57 -5 -91 -31t-34 -71q0 -44 28 -65t72 -21q62 0 107.5 36t45.5 109z" />
    <glyph glyph-name="uni01CF" unicode="&#x1cf;" horiz-adv-x="262" 
d="M196 900h65l-98 -137h-63l-99 137h65l63 -91h5zM165 700v-700h-69v700h69z" />
    <glyph glyph-name="uni01D0" unicode="&#x1d0;" horiz-adv-x="220" 
d="M175 700h65l-98 -137h-63l-99 137h65l63 -91h5zM77 0v500h67v-500h-67z" />
    <glyph glyph-name="uni01D1" unicode="&#x1d1;" horiz-adv-x="820" 
d="M475 900h65l-98 -137h-63l-99 137h65l63 -91h5zM410 -10q-145 0 -241 102.5t-96 257.5t96 257.5t241 102.5q144 0 240.5 -102.5t96.5 -257.5q0 -154 -96.5 -257t-240.5 -103zM410 55q115 0 191 84.5t76 210.5t-76.5 210.5t-190.5 84.5t-190.5 -84.5t-76.5 -210.5
t76.5 -210.5t190.5 -84.5z" />
    <glyph glyph-name="uni01D2" unicode="&#x1d2;" horiz-adv-x="603" 
d="M367 700h65l-98 -137h-63l-99 137h65l63 -91h5zM301 -10q-106 0 -174.5 74.5t-68.5 185.5q0 112 68.5 186t174.5 74q105 0 175 -74.5t70 -185.5q0 -112 -69.5 -186t-175.5 -74zM301 50q79 0 128.5 58t49.5 142t-50 142t-128 58q-79 0 -128 -58t-49 -142t49.5 -142
t127.5 -58z" />
    <glyph glyph-name="uni01D3" unicode="&#x1d3;" horiz-adv-x="718" 
d="M424 900h65l-98 -137h-63l-99 137h65l63 -91h5zM622 700v-442q0 -129 -71.5 -198.5t-190.5 -69.5q-118 0 -191 70t-73 198v442h69v-434q0 -104 54 -157.5t142 -53.5q86 0 138.5 53.5t52.5 157.5v434h70z" />
    <glyph glyph-name="uni01D4" unicode="&#x1d4;" horiz-adv-x="547" 
d="M339 700h65l-98 -137h-63l-99 137h65l63 -91h5zM470 500v-500h-60l-7 60h-6q-50 -70 -144 -70q-78 0 -127 49t-49 140v321h67v-305q0 -73 34 -109t88 -36q59 0 98 39t39 117v294h67z" />
    <glyph glyph-name="uni01E2" unicode="&#x1e2;" horiz-adv-x="986" 
d="M843 839v-51h-285v51h285zM581 63h353v-63h-422v203h-272l-130 -203h-81l447 700h448v-63h-343v-251h304v-62h-304v-261zM279 264h233v353h-6z" />
    <glyph glyph-name="uni01E3" unicode="&#x1e3;" horiz-adv-x="702" 
d="M482 639v-51h-285v51h285zM644 265q0 -18 -1 -30h-270q0 -190 107 -190q36 0 64.5 22t33.5 71h64q-8 -76 -53 -112t-109 -36q-100 0 -139 84q-36 -84 -149 -84q-67 0 -106.5 34.5t-39.5 100.5q0 85 59.5 124t157.5 39h42v56q0 51 -22.5 80.5t-66.5 29.5q-45 0 -71 -24
t-28 -69l-65 1q4 69 48 108.5t114 39.5q95 0 133 -79q42 79 134 79q73 0 118 -56.5t45 -188.5zM480 455q-46 0 -75 -41t-32 -126h208q-1 89 -29 128t-72 39zM199 45q43 0 74.5 27t31.5 88v75h-35q-75 0 -117.5 -23.5t-42.5 -82.5q0 -41 24.5 -62.5t64.5 -21.5z" />
    <glyph glyph-name="Gcaron" unicode="&#x1e6;" horiz-adv-x="780" 
d="M461 900h65l-98 -137h-63l-99 137h65l63 -91h5zM397 356h287v-356h-55l-9 87h-6q-88 -97 -226 -97q-144 0 -229.5 97.5t-85.5 252.5q0 160 92.5 265t241.5 105q109 0 182.5 -55.5t91.5 -145.5h-73q-19 62 -71 99t-130 37q-118 0 -191 -85.5t-73 -218.5
q0 -126 67.5 -206.5t182.5 -80.5q92 0 157.5 48.5t65.5 138.5v57h-219v58z" />
    <glyph glyph-name="gcaron" unicode="&#x1e7;" horiz-adv-x="526" 
d="M301 563h-63l-99 137h65l63 -91h5l62 91h65zM503 502q-35 -40 -85 -63q31 -43 31 -101q0 -77 -50.5 -123.5t-127.5 -46.5q-53 0 -93 21q-40 -18 -40 -53q0 -24 19.5 -37.5t56.5 -13.5h100q81 0 125 -35.5t44 -100.5q0 -76 -58 -117.5t-150 -41.5q-100 0 -154.5 47.5
t-62.5 123.5l87 74q-31 9 -49.5 33t-18.5 58q0 59 61 91q-49 47 -49 121q0 75 50.5 123.5t129.5 48.5q64 0 113 -35q44 22 80 69zM271 222q50 0 81.5 33t31.5 83q0 52 -31 85t-82 33q-52 0 -84.5 -33t-32.5 -85q0 -50 33 -83t84 -33zM418 -54q0 45 -33 64t-76 19h-91
l-92 -78q26 -106 149 -106q61 0 102 25.5t41 75.5z" />
    <glyph glyph-name="uni01EA" unicode="&#x1ea;" horiz-adv-x="820" 
d="M488 -1q-68 -26 -68 -77q0 -44 58 -44q26 0 43 5v-47q-21 -7 -47 -7q-48 0 -77.5 21.5t-29.5 65.5q0 46 45 74h-2q-145 0 -241 102.5t-96 257.5t96 257.5t241 102.5q144 0 240.5 -102.5t96.5 -257.5q0 -132 -72 -228.5t-187 -122.5zM143 350q0 -126 76.5 -210.5
t190.5 -84.5q115 0 191 84.5t76 210.5t-76.5 210.5t-190.5 84.5t-190.5 -84.5t-76.5 -210.5z" />
    <glyph glyph-name="uni01EB" unicode="&#x1eb;" horiz-adv-x="603" 
d="M367 -1q-67 -27 -67 -77q0 -44 58 -44q26 0 43 5v-47q-21 -7 -47 -7q-48 0 -77.5 21.5t-29.5 65.5q0 46 45 74q-102 4 -168 78t-66 182q0 112 68.5 186t174.5 74q105 0 175 -74.5t70 -185.5q0 -93 -49 -161.5t-130 -89.5zM124 250q0 -84 49.5 -142t127.5 -58
q79 0 128.5 58t49.5 142t-50 142t-128 58q-79 0 -128 -58t-49 -142z" />
    <glyph glyph-name="uni01F4" unicode="&#x1f4;" horiz-adv-x="780" 
d="M434 900h62l-72 -145h-56zM397 356h287v-356h-55l-9 87h-6q-88 -97 -226 -97q-144 0 -229.5 97.5t-85.5 252.5q0 160 92.5 265t241.5 105q109 0 182.5 -55.5t91.5 -145.5h-73q-19 62 -71 99t-130 37q-118 0 -191 -85.5t-73 -218.5q0 -126 67.5 -206.5t182.5 -80.5
q92 0 157.5 48.5t65.5 138.5v57h-219v58z" />
    <glyph glyph-name="uni01F5" unicode="&#x1f5;" horiz-adv-x="526" 
d="M369 700l-72 -145h-56l66 145h62zM503 502q-35 -40 -85 -63q31 -43 31 -101q0 -77 -50.5 -123.5t-127.5 -46.5q-53 0 -93 21q-40 -18 -40 -53q0 -24 19.5 -37.5t56.5 -13.5h100q81 0 125 -35.5t44 -100.5q0 -76 -58 -117.5t-150 -41.5q-100 0 -154.5 47.5t-62.5 123.5
l87 74q-31 9 -49.5 33t-18.5 58q0 59 61 91q-49 47 -49 121q0 75 50.5 123.5t129.5 48.5q64 0 113 -35q44 22 80 69zM271 222q50 0 81.5 33t31.5 83q0 52 -31 85t-82 33q-52 0 -84.5 -33t-32.5 -85q0 -50 33 -83t84 -33zM418 -54q0 45 -33 64t-76 19h-91l-92 -78
q26 -106 149 -106q61 0 102 25.5t41 75.5z" />
    <glyph glyph-name="uni01F8" unicode="&#x1f8;" horiz-adv-x="742" 
d="M335 900l65 -145h-56l-72 145h63zM577 700h69v-700h-79l-397 586h-6v-586h-68v700h80l395 -585h6v585z" />
    <glyph glyph-name="uni01F9" unicode="&#x1f9;" horiz-adv-x="547" 
d="M236 700l65 -145h-56l-72 145h63zM77 0v500h60l7 -60h6q50 70 144 70q78 0 127 -49t49 -140v-321h-67v305q0 73 -34 109t-88 36q-59 0 -98 -39t-39 -117v-294h-67z" />
    <glyph glyph-name="AEacute" unicode="&#x1fc;" horiz-adv-x="986" 
d="M800 900l-72 -145h-56l66 145h62zM581 63h353v-63h-422v203h-272l-130 -203h-81l447 700h448v-63h-343v-251h304v-62h-304v-261zM279 264h233v353h-6z" />
    <glyph glyph-name="aeacute" unicode="&#x1fd;" horiz-adv-x="702" 
d="M439 700l-72 -145h-56l66 145h62zM644 265q0 -18 -1 -30h-270q0 -190 107 -190q36 0 64.5 22t33.5 71h64q-8 -76 -53 -112t-109 -36q-100 0 -139 84q-36 -84 -149 -84q-67 0 -106.5 34.5t-39.5 100.5q0 85 59.5 124t157.5 39h42v56q0 51 -22.5 80.5t-66.5 29.5
q-45 0 -71 -24t-28 -69l-65 1q4 69 48 108.5t114 39.5q95 0 133 -79q42 79 134 79q73 0 118 -56.5t45 -188.5zM480 455q-46 0 -75 -41t-32 -126h208q-1 89 -29 128t-72 39zM199 45q43 0 74.5 27t31.5 88v75h-35q-75 0 -117.5 -23.5t-42.5 -82.5q0 -41 24.5 -62.5t64.5 -21.5
z" />
    <glyph glyph-name="Oslashacute" unicode="&#x1fe;" horiz-adv-x="820" 
d="M510 900l-72 -145h-56l66 145h62zM638 620q109 -104 109 -270q0 -154 -96.5 -257t-240.5 -103q-101 0 -184 54l-62 -86l-46 31l64 90q-109 104 -109 271q0 155 96 257.5t241 102.5q102 0 182 -54l61 86l48 -33zM141 350q0 -130 80 -215l333 468q-64 44 -144 44
q-115 0 -192 -85t-77 -212zM410 53q115 0 192 85t77 212q0 130 -81 216l-334 -468q65 -45 146 -45z" />
    <glyph glyph-name="oslashacute" unicode="&#x1ff;" horiz-adv-x="603" 
d="M402 700l-72 -145h-56l66 145h62zM475 437q71 -76 71 -187q0 -112 -69.5 -186t-175.5 -74q-74 0 -132 39l-53 -71l-44 29l57 76q-71 74 -71 187q0 112 68.5 186t174.5 74q75 0 133 -39l53 70l44 -29zM122 250q0 -81 45 -137l231 309q-43 30 -97 30q-80 0 -129.5 -58.5
t-49.5 -143.5zM301 48q79 0 129.5 58.5t50.5 143.5q0 80 -45 136l-231 -309q43 -29 96 -29z" />
    <glyph glyph-name="uni0218" unicode="&#x218;" horiz-adv-x="605" 
d="M528 178q0 -92 -62 -140t-158 -48q-104 0 -165.5 52.5t-69.5 150.5h69q20 -141 166 -141q66 0 107.5 31t41.5 93q0 35 -13 61t-39 43.5t-46.5 26.5t-52.5 19l-36 11q-35 12 -58.5 22.5t-54.5 31.5t-47 54t-16 76q0 85 61.5 137t154.5 52q95 0 155 -54.5t65 -139.5h-69
q-6 58 -44.5 95t-105.5 37q-65 0 -106 -35t-41 -90q0 -30 12.5 -53t39.5 -38.5t44 -22.5t51 -18l31 -9q26 -8 43 -14.5t47 -24t48.5 -37t33 -53.5t14.5 -75zM309 -64q26 0 40.5 -18.5t14.5 -46.5q0 -88 -89 -141l-22 24q52 42 52 83q-22 -1 -35.5 12.5t-13.5 34.5
q0 23 15 37.5t38 14.5z" />
    <glyph glyph-name="uni0219" unicode="&#x219;" horiz-adv-x="468" 
d="M241 -10q-88 0 -134.5 43.5t-48.5 113.5h65q9 -102 118 -102q46 0 75 20t29 60q0 23 -9.5 40.5t-28 29.5t-33.5 18.5t-38 13.5l-30 9q-22 7 -35.5 12.5t-34 17t-32.5 24.5t-21 34.5t-9 47.5q0 63 46.5 100.5t114.5 37.5q78 0 120.5 -41.5t45.5 -96.5h-65q-4 37 -31 60
t-70 23q-41 0 -68.5 -20.5t-27.5 -59.5q0 -20 7.5 -34.5t24.5 -24.5t30 -15.5t37 -13.5l27 -9q29 -9 50.5 -19t45.5 -27t36.5 -44t12.5 -61q0 -68 -48 -102.5t-121 -34.5zM240 -64q26 0 40.5 -18.5t14.5 -46.5q0 -88 -89 -141l-22 24q52 42 52 83q-22 -1 -35.5 12.5
t-13.5 34.5q0 23 15 37.5t38 14.5z" />
    <glyph glyph-name="uni021A" unicode="&#x21a;" horiz-adv-x="568" 
d="M44 700h480v-64h-205v-636h-69v636h-206v64zM283 -64q26 0 40.5 -18.5t14.5 -46.5q0 -88 -89 -141l-22 24q52 42 52 83q-22 -1 -35.5 12.5t-13.5 34.5q0 23 15 37.5t38 14.5z" />
    <glyph glyph-name="uni021B" unicode="&#x21b;" horiz-adv-x="338" 
d="M241 -10q-59 0 -86 30.5t-27 80.5v344h-106v55h34q44 0 61 16t17 56v64h61v-136h121v-55h-121v-334q0 -64 62 -64q25 0 49 8v-55q-38 -10 -65 -10zM216 -64q26 0 40.5 -18.5t14.5 -46.5q0 -88 -89 -141l-22 24q52 42 52 83q-22 -1 -35.5 12.5t-13.5 34.5q0 23 15 37.5
t38 14.5z" />
    <glyph glyph-name="uni021E" unicode="&#x21e;" horiz-adv-x="696" 
d="M412 900h65l-98 -137h-63l-99 137h65l63 -91h5zM531 700h69v-700h-69v322h-366v-322h-69v700h69v-315h366v315z" />
    <glyph glyph-name="uni0226" unicode="&#x226;" horiz-adv-x="627" 
d="M315 788q-20 0 -34.5 14t-14.5 34q0 19 14.5 33t34.5 14q19 0 33 -13.5t14 -33.5t-13.5 -34t-33.5 -14zM523 0l-68 203h-284l-68 -203h-74l241 700h87l241 -700h-75zM192 264h242l-118 353h-6z" />
    <glyph glyph-name="uni0227" unicode="&#x227;" horiz-adv-x="520" 
d="M248 588q-20 0 -34.5 14t-14.5 34q0 19 14.5 33t34.5 14t33.5 -13.5t13.5 -33.5t-13.5 -34t-33.5 -14zM474 53h13v-53h-33q-71 0 -82 66q-58 -76 -166 -76q-71 0 -115.5 35.5t-44.5 105.5q0 68 47.5 107t126.5 46l146 14v33q0 56 -29.5 89t-86.5 33q-98 0 -117 -105h-67
q8 72 56.5 117t127.5 45q84 0 133.5 -47t49.5 -130v-237q0 -43 41 -43zM366 191v55l-128 -12q-57 -5 -91 -31t-34 -71q0 -44 28 -65t72 -21q62 0 107.5 36t45.5 109z" />
    <glyph glyph-name="uni0228" unicode="&#x228;" horiz-adv-x="585" 
d="M532 0h-193l-32 -44q37 2 68 -20t31 -64q0 -38 -26 -60t-72 -22q-40 0 -68 20l16 34q25 -15 49 -15q25 0 40.5 13t15.5 33q0 47 -59 47q-18 0 -36 -9l-24 21l48 66h-194v700h426v-63h-358v-251h319v-62h-319v-261h368v-63z" />
    <glyph glyph-name="uni0229" unicode="&#x229;" horiz-adv-x="564" 
d="M505 263q0 -16 -2 -27h-379q3 -86 48.5 -137.5t119.5 -51.5q54 0 91.5 23.5t51.5 68.5h65q-15 -68 -67 -106.5t-126 -42.5l-25 -34q37 2 68 -20t31 -64q0 -38 -26 -60t-72 -22q-40 0 -68 20l16 34q25 -15 49 -15q25 0 40.5 13t15.5 33q0 47 -59 47q-18 0 -36 -9l-24 21
l42 58q-90 11 -145.5 79.5t-55.5 173.5q0 120 65 192.5t166 72.5q94 0 155 -65t61 -182zM289 453q-68 0 -113 -47t-51 -118h314q-1 74 -42.5 119.5t-107.5 45.5z" />
    <glyph glyph-name="uni022E" unicode="&#x22e;" horiz-adv-x="820" 
d="M411 788q-20 0 -34.5 14t-14.5 34q0 19 14.5 33t34.5 14q19 0 33 -13.5t14 -33.5t-13.5 -34t-33.5 -14zM410 -10q-145 0 -241 102.5t-96 257.5t96 257.5t241 102.5q144 0 240.5 -102.5t96.5 -257.5q0 -154 -96.5 -257t-240.5 -103zM410 55q115 0 191 84.5t76 210.5
t-76.5 210.5t-190.5 84.5t-190.5 -84.5t-76.5 -210.5t76.5 -210.5t190.5 -84.5z" />
    <glyph glyph-name="uni022F" unicode="&#x22f;" horiz-adv-x="603" 
d="M303 588q-20 0 -34.5 14t-14.5 34q0 19 14.5 33t34.5 14q19 0 33 -13.5t14 -33.5t-13.5 -34t-33.5 -14zM301 -10q-106 0 -174.5 74.5t-68.5 185.5q0 112 68.5 186t174.5 74q105 0 175 -74.5t70 -185.5q0 -112 -69.5 -186t-175.5 -74zM301 50q79 0 128.5 58t49.5 142
t-50 142t-128 58q-79 0 -128 -58t-49 -142t49.5 -142t127.5 -58z" />
    <glyph glyph-name="uni0232" unicode="&#x232;" horiz-adv-x="631" 
d="M174 839h285v-51h-285v51zM517 700h85l-251 -358v-342h-70v342l-252 358h85l199 -282h6z" />
    <glyph glyph-name="uni0233" unicode="&#x233;" horiz-adv-x="510" 
d="M113 639h285v-51h-285v51zM116 -210q-26 0 -66 10v54q29 -8 55 -8q75 0 105 78l30 76h-25l-192 500h70l163 -429h6l155 429h71l-214 -586q-8 -22 -15.5 -36.5t-25.5 -38t-48 -36.5t-69 -13z" />
    <glyph glyph-name="uni0237" unicode="&#x237;" horiz-adv-x="220" 
d="M30 -210q-28 0 -66 10v54q26 -8 50 -8q63 0 63 64v590h67v-599q0 -50 -27.5 -80.5t-86.5 -30.5z" />
    <glyph glyph-name="circumflex" unicode="&#x2c6;" horiz-adv-x="452" 
d="M161 563h-65l98 137h63l99 -137h-65l-63 90h-5z" />
    <glyph glyph-name="caron" unicode="&#x2c7;" horiz-adv-x="452" 
d="M291 700h65l-98 -137h-63l-99 137h65l63 -91h5z" />
    <glyph glyph-name="breve" unicode="&#x2d8;" horiz-adv-x="441" 
d="M345 700q0 -49 -33.5 -87.5t-89.5 -38.5q-57 0 -91.5 38.5t-34.5 87.5h57q0 -35 19 -56.5t50 -21.5q30 0 48 21.5t18 56.5h57z" />
    <glyph glyph-name="dotaccent" unicode="&#x2d9;" horiz-adv-x="288" 
d="M144 588q-20 0 -34 14t-14 34q0 19 14 33t34 14t34 -13.5t14 -33.5t-14 -34t-34 -14z" />
    <glyph glyph-name="ring" unicode="&#x2da;" horiz-adv-x="380" 
d="M190 545q-38 0 -66 27.5t-28 65.5q0 37 28 64.5t66 27.5t66 -27.5t28 -64.5q0 -38 -28 -65.5t-66 -27.5zM191 588q20 0 33.5 14.5t13.5 35.5q0 20 -14 34t-33 14q-21 0 -35 -14t-14 -34q0 -21 14 -35.5t35 -14.5z" />
    <glyph glyph-name="ogonek" unicode="&#x2db;" horiz-adv-x="347" 
d="M199 17l22 -17q-71 -26 -71 -78q0 -44 58 -44q24 0 43 5v-47q-21 -7 -48 -7q-47 0 -77 21.5t-30 65.5q0 21 9 38t25.5 29t32 19t36.5 15z" />
    <glyph glyph-name="tilde" unicode="&#x2dc;" horiz-adv-x="517" 
d="M421 661q-3 -45 -27.5 -76t-65.5 -31q-31 0 -54.5 16t-41.5 32t-37 16q-40 0 -48 -57h-51q5 47 28.5 77.5t65.5 30.5q32 0 55 -16.5t40.5 -32.5t36.5 -16q41 0 49 57h50z" />
    <glyph glyph-name="hungarumlaut" unicode="&#x2dd;" horiz-adv-x="454" 
d="M153 700h63l-63 -145h-57zM295 700h62l-63 -145h-56z" />
    <glyph glyph-name="uni1E02" unicode="&#x1e02;" horiz-adv-x="603" 
d="M312 788q-20 0 -34.5 14t-14.5 34q0 19 14.5 33t34.5 14t33.5 -13.5t13.5 -33.5t-13.5 -34t-33.5 -14zM428 364q117 -45 117 -174q0 -90 -54.5 -140t-151.5 -50h-243v700h239q95 0 144 -46.5t49 -127.5q0 -114 -100 -158v-4zM164 640v-250h165q62 0 96 35t34 94
q0 58 -34.5 89.5t-92.5 31.5h-168zM334 60q65 0 103 35.5t38 96.5q0 62 -39 100.5t-103 38.5h-169v-271h170z" />
    <glyph glyph-name="uni1E03" unicode="&#x1e03;" horiz-adv-x="596" 
d="M157 836q0 -20 -13.5 -34t-33.5 -14t-34.5 14t-14.5 34q0 19 14.5 33t34.5 14t33.5 -13.5t13.5 -33.5zM311 510q100 0 163.5 -71t63.5 -188t-63 -189t-164 -72q-108 0 -166 87h-6l-6 -77h-56v710h67v-287q53 87 167 87zM305 50q74 0 120.5 55.5t46.5 145.5
q0 89 -46.5 144t-120.5 55q-73 0 -117 -54.5t-44 -144.5q0 -91 44 -146t117 -55z" />
    <glyph glyph-name="uni1E0A" unicode="&#x1e0a;" horiz-adv-x="699" 
d="M349 788q-20 0 -34.5 14t-14.5 34q0 19 14.5 33t34.5 14q19 0 33 -13.5t14 -33.5t-13.5 -34t-33.5 -14zM298 700q162 0 245.5 -94.5t83.5 -256.5q0 -158 -82 -253.5t-247 -95.5h-202v700h202zM294 64q137 0 199.5 77.5t62.5 209.5q0 131 -62.5 208t-199.5 77h-129v-572
h129z" />
    <glyph glyph-name="uni1E0B" unicode="&#x1e0b;" horiz-adv-x="596" 
d="M487 883q19 0 33 -13.5t14 -33.5t-13.5 -34t-33.5 -14t-34.5 14t-14.5 34q0 19 14.5 33t34.5 14zM452 423v287h67v-710h-55l-7 77h-6q-58 -87 -166 -87q-101 0 -164 72t-63 189t63.5 188t163.5 71q114 0 167 -87zM291 50q73 0 117 55t44 146q0 90 -44 144.5t-117 54.5
q-74 0 -120.5 -55t-46.5 -144q0 -90 46.5 -145.5t120.5 -55.5z" />
    <glyph glyph-name="uni1E10" unicode="&#x1e10;" horiz-adv-x="699" 
d="M298 700q162 0 245.5 -94.5t83.5 -256.5q0 -158 -82 -253.5t-247 -95.5h-202v700h202zM294 64q137 0 199.5 77.5t62.5 209.5q0 131 -62.5 208t-199.5 77h-129v-572h129zM347 -64q26 0 40.5 -18.5t14.5 -46.5q0 -88 -89 -141l-22 24q52 42 52 83q-22 -1 -35.5 12.5
t-13.5 34.5q0 23 15 37.5t38 14.5z" />
    <glyph glyph-name="uni1E11" unicode="&#x1e11;" horiz-adv-x="596" 
d="M452 710h67v-710h-55l-7 77h-6q-58 -87 -166 -87q-101 0 -164 72t-63 189t63.5 188t163.5 71q114 0 167 -87v287zM291 50q73 0 117 55t44 146q0 90 -44 144.5t-117 54.5q-74 0 -120.5 -55t-46.5 -144q0 -90 46.5 -145.5t120.5 -55.5zM294 -64q26 0 40.5 -18.5t14.5 -46.5
q0 -88 -89 -141l-22 24q52 42 52 83q-22 -1 -35.5 12.5t-13.5 34.5q0 23 15 37.5t38 14.5z" />
    <glyph glyph-name="uni1E1E" unicode="&#x1e1e;" horiz-adv-x="546" 
d="M300 788q-20 0 -34.5 14t-14.5 34q0 19 14.5 33t34.5 14t33.5 -13.5t13.5 -33.5t-13.5 -34t-33.5 -14zM502 635h-337v-254h296v-62h-296v-319h-69v700h406v-65z" />
    <glyph glyph-name="uni1E1F" unicode="&#x1e1f;" horiz-adv-x="334" 
d="M218 788q-20 0 -34.5 14t-14.5 34q0 19 14.5 33t34.5 14t33.5 -13.5t13.5 -33.5t-13.5 -34t-33.5 -14zM189 588v-88h114v-55h-114v-445h-66v445h-101v55h101v97q0 54 32 83.5t88 29.5q35 0 69 -14l-14 -51q-21 8 -45 8q-64 0 -64 -65z" />
    <glyph glyph-name="uni1E20" unicode="&#x1e20;" horiz-adv-x="780" 
d="M254 839h285v-51h-285v51zM397 356h287v-356h-55l-9 87h-6q-88 -97 -226 -97q-144 0 -229.5 97.5t-85.5 252.5q0 160 92.5 265t241.5 105q109 0 182.5 -55.5t91.5 -145.5h-73q-19 62 -71 99t-130 37q-118 0 -191 -85.5t-73 -218.5q0 -126 67.5 -206.5t182.5 -80.5
q92 0 157.5 48.5t65.5 138.5v57h-219v58z" />
    <glyph glyph-name="uni1E22" unicode="&#x1e22;" horiz-adv-x="696" 
d="M348 788q-20 0 -34.5 14t-14.5 34q0 19 14.5 33t34.5 14t33.5 -13.5t13.5 -33.5t-13.5 -34t-33.5 -14zM531 700h69v-700h-69v322h-366v-322h-69v700h69v-315h366v315z" />
    <glyph glyph-name="uni1E23" unicode="&#x1e23;" horiz-adv-x="547" 
d="M112 788q-20 0 -34.5 14t-14.5 34q0 19 14.5 33t34.5 14t33.5 -13.5t13.5 -33.5t-13.5 -34t-33.5 -14zM294 510q78 0 127 -49t49 -140v-321h-67v305q0 73 -34 109t-88 36q-59 0 -98 -39t-39 -117v-294h-67v710h67v-270h6q50 70 144 70z" />
    <glyph glyph-name="uni1E26" unicode="&#x1e26;" horiz-adv-x="696" 
d="M234 772q-21 0 -36.5 15t-15.5 36q0 22 15.5 37.5t36.5 15.5t36.5 -15.5t15.5 -37.5q0 -21 -15.5 -36t-36.5 -15zM460 772q-21 0 -36 15t-15 36q0 22 15 37.5t36 15.5t36.5 -15.5t15.5 -37.5q0 -21 -15.5 -36t-36.5 -15zM531 700h69v-700h-69v322h-366v-322h-69v700h69
v-315h366v315z" />
    <glyph glyph-name="uni1E27" unicode="&#x1e27;" horiz-adv-x="547" 
d="M24 765q-19 0 -33 14t-14 33t14 33t33 14q20 0 33.5 -13.5t13.5 -33.5q0 -19 -14 -33t-33 -14zM199 765q-19 0 -32.5 14t-13.5 33t13.5 33t32.5 14t33 -13.5t14 -33.5q0 -19 -14 -33t-33 -14zM294 510q78 0 127 -49t49 -140v-321h-67v305q0 73 -34 109t-88 36
q-59 0 -98 -39t-39 -117v-294h-67v710h67v-270h6q50 70 144 70z" />
    <glyph glyph-name="uni1E28" unicode="&#x1e28;" horiz-adv-x="696" 
d="M531 700h69v-700h-69v322h-366v-322h-10l-32 -44q37 2 68 -20t31 -64q0 -38 -26 -60t-72 -22q-40 0 -68 20l16 34q25 -15 49 -15q25 0 40.5 13t15.5 33q0 47 -59 47q-18 0 -36 -9l-24 21l48 66h-10v700h69v-315h366v315z" />
    <glyph glyph-name="uni1E29" unicode="&#x1e29;" horiz-adv-x="547" 
d="M294 510q78 0 127 -49t49 -140v-321h-67v305q0 73 -34 109t-88 36q-59 0 -98 -39t-39 -117v-294h-8l-32 -44q37 2 68 -20t31 -64q0 -38 -26 -60t-72 -22q-40 0 -68 20l16 34q25 -15 49 -15q25 0 40.5 13t15.5 33q0 47 -59 47q-18 0 -36 -9l-24 21l48 66h-10v710h67v-270
h6q50 70 144 70z" />
    <glyph glyph-name="uni1E40" unicode="&#x1e40;" horiz-adv-x="866" 
d="M434 788q-20 0 -34.5 14t-14.5 34q0 19 14.5 33t34.5 14t33.5 -13.5t13.5 -33.5t-13.5 -34t-33.5 -14zM770 700v-700h-68v575h-6l-222 -495h-79l-224 495h-7v-575h-68v700h92l243 -548h6l242 548h91z" />
    <glyph glyph-name="uni1E41" unicode="&#x1e41;" horiz-adv-x="817" 
d="M409 588q-20 0 -34.5 14t-14.5 34q0 19 14.5 33t34.5 14q19 0 33 -13.5t14 -33.5t-13.5 -34t-33.5 -14zM77 0v500h60l7 -60h6q46 70 133 70q56 0 90 -27.5t48 -63.5h6q47 91 152 91q72 0 116.5 -43.5t44.5 -126.5v-340h-67v326q0 62 -31 93.5t-77 31.5q-54 0 -88.5 -39
t-34.5 -102v-310h-67v318q0 64 -31.5 98t-78.5 34q-48 0 -84.5 -35t-36.5 -102v-313h-67z" />
    <glyph glyph-name="uni1E44" unicode="&#x1e44;" horiz-adv-x="742" 
d="M372 788q-20 0 -34.5 14t-14.5 34q0 19 14.5 33t34.5 14t33.5 -13.5t13.5 -33.5t-13.5 -34t-33.5 -14zM577 700h69v-700h-79l-397 586h-6v-586h-68v700h80l395 -585h6v585z" />
    <glyph glyph-name="uni1E45" unicode="&#x1e45;" horiz-adv-x="547" 
d="M273 588q-20 0 -34.5 14t-14.5 34q0 19 14.5 33t34.5 14q19 0 33 -13.5t14 -33.5t-13.5 -34t-33.5 -14zM77 0v500h60l7 -60h6q50 70 144 70q78 0 127 -49t49 -140v-321h-67v305q0 73 -34 109t-88 36q-59 0 -98 -39t-39 -117v-294h-67z" />
    <glyph glyph-name="uni1E56" unicode="&#x1e56;" horiz-adv-x="625" 
d="M318 788q-20 0 -34.5 14t-14.5 34q0 19 14.5 33t34.5 14t33.5 -13.5t13.5 -33.5t-13.5 -34t-33.5 -14zM341 700q96 0 154 -56t58 -148q0 -96 -59.5 -151.5t-160.5 -55.5h-170v-289h-67v700h245zM328 352q73 0 114 38t41 105q0 68 -41 105t-106 37h-173v-285h165z" />
    <glyph glyph-name="uni1E57" unicode="&#x1e57;" horiz-adv-x="596" 
d="M296 588q-20 0 -34.5 14t-14.5 34q0 19 14.5 33t34.5 14t33.5 -13.5t13.5 -33.5t-13.5 -34t-33.5 -14zM311 510q101 0 164 -72t63 -189t-63.5 -188t-163.5 -71q-114 0 -167 87v-277h-67v700h56l6 -77h6q58 87 166 87zM305 50q74 0 120.5 55t46.5 144q0 90 -46.5 145.5
t-120.5 55.5q-73 0 -117 -55t-44 -146q0 -90 44 -144.5t117 -54.5z" />
    <glyph glyph-name="uni1E58" unicode="&#x1e58;" horiz-adv-x="619" 
d="M318 788q-20 0 -34.5 14t-14.5 34q0 19 14.5 33t34.5 14t33.5 -13.5t13.5 -33.5t-13.5 -34t-33.5 -14zM576 0h-79l-185 305h-148v-305h-68v700h233q98 0 155.5 -52.5t57.5 -141.5q0 -76 -42.5 -125.5t-117.5 -64.5zM164 638v-272h154q72 0 113.5 38t41.5 100
q0 64 -41.5 99t-113.5 35h-154z" />
    <glyph glyph-name="uni1E59" unicode="&#x1e59;" horiz-adv-x="337" 
d="M196 588q-20 0 -34.5 14t-14.5 34q0 19 14.5 33t34.5 14t33.5 -13.5t13.5 -33.5t-13.5 -34t-33.5 -14zM77 0v500h59l8 -68h6q43 78 139 78h26v-68q-14 2 -41 2q-57 0 -93.5 -44.5t-36.5 -122.5v-277h-67z" />
    <glyph glyph-name="uni1E60" unicode="&#x1e60;" horiz-adv-x="605" 
d="M311 788q-20 0 -34.5 14t-14.5 34q0 19 14.5 33t34.5 14q19 0 33 -13.5t14 -33.5t-13.5 -34t-33.5 -14zM528 178q0 -92 -62 -140t-158 -48q-104 0 -165.5 52.5t-69.5 150.5h69q20 -141 166 -141q66 0 107.5 31t41.5 93q0 35 -13 61t-39 43.5t-46.5 26.5t-52.5 19l-36 11
q-35 12 -58.5 22.5t-54.5 31.5t-47 54t-16 76q0 85 61.5 137t154.5 52q95 0 155 -54.5t65 -139.5h-69q-6 58 -44.5 95t-105.5 37q-65 0 -106 -35t-41 -90q0 -30 12.5 -53t39.5 -38.5t44 -22.5t51 -18l31 -9q26 -8 43 -14.5t47 -24t48.5 -37t33 -53.5t14.5 -75z" />
    <glyph glyph-name="uni1E61" unicode="&#x1e61;" horiz-adv-x="468" 
d="M226 588q-20 0 -34.5 14t-14.5 34q0 19 14.5 33t34.5 14t33.5 -13.5t13.5 -33.5t-13.5 -34t-33.5 -14zM241 -10q-88 0 -134.5 43.5t-48.5 113.5h65q9 -102 118 -102q46 0 75 20t29 60q0 23 -9.5 40.5t-28 29.5t-33.5 18.5t-38 13.5l-30 9q-22 7 -35.5 12.5t-34 17
t-32.5 24.5t-21 34.5t-9 47.5q0 63 46.5 100.5t114.5 37.5q78 0 120.5 -41.5t45.5 -96.5h-65q-4 37 -31 60t-70 23q-41 0 -68.5 -20.5t-27.5 -59.5q0 -20 7.5 -34.5t24.5 -24.5t30 -15.5t37 -13.5l27 -9q29 -9 50.5 -19t45.5 -27t36.5 -44t12.5 -61q0 -68 -48 -102.5
t-121 -34.5z" />
    <glyph glyph-name="uni1E7C" unicode="&#x1e7c;" horiz-adv-x="646" 
d="M486 861q-3 -45 -27.5 -76t-65.5 -31q-31 0 -54.5 16t-41.5 32t-37 16q-42 0 -48 -57h-51q5 47 28.5 77.5t65.5 30.5q32 0 55 -16.5t40.5 -32.5t36.5 -16q41 0 49 57h50zM542 700h75l-251 -700h-87l-250 700h75l216 -610h6z" />
    <glyph glyph-name="uni1E7D" unicode="&#x1e7d;" horiz-adv-x="510" 
d="M418 661q-3 -45 -27.5 -76t-65.5 -31q-31 0 -54.5 16t-41.5 32t-37 16q-42 0 -48 -57h-51q5 47 28.5 77.5t65.5 30.5q32 0 55 -16.5t40.5 -32.5t36.5 -16q41 0 49 57h50zM213 0l-190 500h70l159 -430h6l160 430h70l-190 -500h-85z" />
    <glyph glyph-name="Wgrave" unicode="&#x1e80;" horiz-adv-x="879" 
d="M403 900l65 -145h-56l-72 145h63zM783 700h67l-158 -700h-84l-166 559h-6l-165 -559h-84l-158 700h69l131 -605h6l164 553h82l161 -553h6z" />
    <glyph glyph-name="wgrave" unicode="&#x1e81;" horiz-adv-x="693" 
d="M310 700l65 -145h-56l-72 145h63zM146 0l-123 500h65l98 -421h6l115 383h79l115 -384h6l99 422h65l-125 -500h-81l-115 388h-6l-117 -388h-81z" />
    <glyph glyph-name="Wacute" unicode="&#x1e82;" horiz-adv-x="879" 
d="M478 900h62l-72 -145h-56zM783 700h67l-158 -700h-84l-166 559h-6l-165 -559h-84l-158 700h69l131 -605h6l164 553h82l161 -553h6z" />
    <glyph glyph-name="wacute" unicode="&#x1e83;" horiz-adv-x="693" 
d="M385 700h62l-72 -145h-56zM146 0l-123 500h65l98 -421h6l115 383h79l115 -384h6l99 422h65l-125 -500h-81l-115 388h-6l-117 -388h-81z" />
    <glyph glyph-name="Wdieresis" unicode="&#x1e84;" horiz-adv-x="879" 
d="M327 772q-21 0 -36.5 15t-15.5 36q0 22 15.5 37.5t36.5 15.5t36.5 -15.5t15.5 -37.5q0 -21 -15.5 -36t-36.5 -15zM553 772q-21 0 -36 15t-15 36q0 22 15 37.5t36 15.5t36.5 -15.5t15.5 -37.5q0 -21 -15.5 -36t-36.5 -15zM783 700h67l-158 -700h-84l-166 559h-6l-165 -559
h-84l-158 700h69l131 -605h6l164 553h82l161 -553h6z" />
    <glyph glyph-name="wdieresis" unicode="&#x1e85;" horiz-adv-x="693" 
d="M260 565q-19 0 -33 14t-14 33t14 33t33 14q20 0 33.5 -13.5t13.5 -33.5q0 -19 -14 -33t-33 -14zM435 565q-19 0 -32.5 14t-13.5 33t13.5 33t32.5 14t33 -13.5t14 -33.5q0 -19 -14 -33t-33 -14zM146 0l-123 500h65l98 -421h6l115 383h79l115 -384h6l99 422h65l-125 -500
h-81l-115 388h-6l-117 -388h-81z" />
    <glyph glyph-name="uni1E8C" unicode="&#x1e8c;" horiz-adv-x="593" 
d="M184 772q-21 0 -36.5 15t-15.5 36q0 22 15.5 37.5t36.5 15.5t36.5 -15.5t15.5 -37.5q0 -21 -15.5 -36t-36.5 -15zM410 772q-21 0 -36 15t-15 36q0 22 15 37.5t36 15.5t36.5 -15.5t15.5 -37.5q0 -21 -15.5 -36t-36.5 -15zM483 0l-182 300h-6l-183 -300h-83l221 361
l-211 339h83l173 -280h6l173 280h80l-211 -339l221 -361h-81z" />
    <glyph glyph-name="uni1E8D" unicode="&#x1e8d;" horiz-adv-x="476" 
d="M151 565q-19 0 -33 14t-14 33t14 33t33 14t33 -13.5t14 -33.5q0 -19 -14 -33t-33 -14zM326 565q-19 0 -32.5 14t-13.5 33t13.5 33t32.5 14q20 0 33.5 -13.5t13.5 -33.5q0 -19 -14 -33t-33 -14zM23 0l173 260l-156 240h76l120 -185h6l117 185h77l-155 -240l172 -260h-77
l-135 206h-6l-135 -206h-77z" />
    <glyph glyph-name="uni1E90" unicode="&#x1e90;" horiz-adv-x="612" 
d="M251 763h-65l97 137h64l98 -137h-65l-63 90h-4zM175 64h360v-64h-462v38l364 594v4h-341v64h440v-38l-361 -594v-4z" />
    <glyph glyph-name="uni1E97" unicode="&#x1e97;" horiz-adv-x="338" 
d="M77 701q-19 0 -33 14t-14 33t14 33t33 14t33 -13.5t14 -33.5q0 -19 -14 -33t-33 -14zM252 701q-19 0 -32.5 14t-13.5 33t13.5 33t32.5 14q20 0 33.5 -13.5t13.5 -33.5q0 -19 -14 -33t-33 -14zM241 -10q-59 0 -86 30.5t-27 80.5v344h-106v55h34q44 0 61 16t17 56v64h61
v-136h121v-55h-121v-334q0 -64 62 -64q25 0 49 8v-55q-38 -10 -65 -10z" />
    <glyph glyph-name="uni1E98" unicode="&#x1e98;" horiz-adv-x="693" 
d="M348 545q-39 0 -67 27.5t-28 65.5t28 65t67 27q38 0 65.5 -27.5t27.5 -64.5q0 -38 -27.5 -65.5t-65.5 -27.5zM348 588q20 0 33.5 14.5t13.5 35.5q0 20 -14 34t-33 14q-21 0 -35 -14t-14 -34q0 -21 14 -35.5t35 -14.5zM146 0l-123 500h65l98 -421h6l115 383h79l115 -384h6
l99 422h65l-125 -500h-81l-115 388h-6l-117 -388h-81z" />
    <glyph glyph-name="uni1E99" unicode="&#x1e99;" horiz-adv-x="510" 
d="M256 545q-39 0 -67 27.5t-28 65.5t28 65t67 27q38 0 65.5 -27.5t27.5 -64.5q0 -38 -27.5 -65.5t-65.5 -27.5zM256 588q20 0 33.5 14.5t13.5 35.5q0 20 -14 34t-33 14q-21 0 -35 -14t-14 -34q0 -21 14 -35.5t35 -14.5zM116 -210q-26 0 -66 10v54q29 -8 55 -8q75 0 105 78
l30 76h-25l-192 500h70l163 -429h6l155 429h71l-214 -586q-8 -22 -15.5 -36.5t-25.5 -38t-48 -36.5t-69 -13z" />
    <glyph glyph-name="uni1E9E" unicode="&#x1e9e;" horiz-adv-x="1198" 
d="M528 178q0 -92 -62 -140t-158 -48q-104 0 -165.5 52.5t-69.5 150.5h69q20 -141 166 -141q66 0 107.5 31t41.5 93q0 35 -13 61t-39 43.5t-46.5 26.5t-52.5 19l-36 11q-35 12 -58.5 22.5t-54.5 31.5t-47 54t-16 76q0 85 61.5 137t154.5 52q95 0 155 -54.5t65 -139.5h-69
q-6 58 -44.5 95t-105.5 37q-65 0 -106 -35t-41 -90q0 -30 12.5 -53t39.5 -38.5t44 -22.5t51 -18l31 -9q26 -8 43 -14.5t47 -24t48.5 -37t33 -53.5t14.5 -75zM1121 178q0 -92 -62 -140t-158 -48q-104 0 -165.5 52.5t-69.5 150.5h69q20 -141 166 -141q66 0 107.5 31t41.5 93
q0 35 -13 61t-39 43.5t-46.5 26.5t-52.5 19l-36 11q-35 12 -58.5 22.5t-54.5 31.5t-47 54t-16 76q0 85 61.5 137t154.5 52q95 0 155 -54.5t65 -139.5h-69q-6 58 -44.5 95t-105.5 37q-65 0 -106 -35t-41 -90q0 -30 12.5 -53t39.5 -38.5t44 -22.5t51 -18l31 -9q26 -8 43 -14.5
t47 -24t48.5 -37t33 -53.5t14.5 -75z" />
    <glyph glyph-name="uni1EA0" unicode="&#x1ea0;" horiz-adv-x="627" 
d="M598 0h-75l-68 203h-284l-68 -203h-74l241 700h87zM192 264h242l-118 353h-6zM315 -88q19 0 33 -14t14 -33q0 -20 -13.5 -34t-33.5 -14t-34.5 14t-14.5 34q0 19 14.5 33t34.5 14z" />
    <glyph glyph-name="uni1EA1" unicode="&#x1ea1;" horiz-adv-x="520" 
d="M474 53h13v-53h-33q-71 0 -82 66q-58 -76 -166 -76q-71 0 -115.5 35.5t-44.5 105.5q0 68 47.5 107t126.5 46l146 14v33q0 56 -29.5 89t-86.5 33q-98 0 -117 -105h-67q8 72 56.5 117t127.5 45q84 0 133.5 -47t49.5 -130v-237q0 -43 41 -43zM366 191v55l-128 -12
q-57 -5 -91 -31t-34 -71q0 -44 28 -65t72 -21q62 0 107.5 36t45.5 109zM256 -88q20 0 33.5 -14t13.5 -33q0 -20 -13.5 -34t-33.5 -14t-34.5 14t-14.5 34q0 19 14.5 33t34.5 14z" />
    <glyph glyph-name="uni1EB8" unicode="&#x1eb8;" horiz-adv-x="585" 
d="M164 63h368v-63h-436v700h426v-63h-358v-251h319v-62h-319v-261zM315 -183q-20 0 -34.5 14t-14.5 34q0 19 14.5 33t34.5 14q19 0 33 -14t14 -33q0 -20 -13.5 -34t-33.5 -14z" />
    <glyph glyph-name="uni1EB9" unicode="&#x1eb9;" horiz-adv-x="564" 
d="M505 263q0 -16 -2 -27h-379q3 -86 48.5 -137.5t119.5 -51.5q54 0 91.5 23.5t51.5 68.5h65q-16 -71 -72 -110t-136 -39q-104 0 -169 70t-65 185q0 120 65 192.5t166 72.5q94 0 155 -65t61 -182zM289 453q-68 0 -113 -47t-51 -118h314q-1 74 -42.5 119.5t-107.5 45.5z
M290 -88q20 0 33.5 -14t13.5 -33q0 -20 -13.5 -34t-33.5 -14t-34.5 14t-14.5 34q0 19 14.5 33t34.5 14z" />
    <glyph glyph-name="uni1EBC" unicode="&#x1ebc;" horiz-adv-x="585" 
d="M472 861q-3 -45 -27.5 -76t-65.5 -31q-31 0 -54.5 16t-41.5 32t-37 16q-42 0 -48 -57h-51q5 47 28.5 77.5t65.5 30.5q32 0 55 -16.5t40.5 -32.5t36.5 -16q41 0 49 57h50zM164 63h368v-63h-436v700h426v-63h-358v-251h319v-62h-319v-261z" />
    <glyph glyph-name="uni1EBD" unicode="&#x1ebd;" horiz-adv-x="564" 
d="M225 618q-42 0 -48 -57h-51q5 47 28.5 77.5t65.5 30.5q32 0 55 -16.5t40.5 -32.5t36.5 -16q41 0 49 57h50q-3 -45 -27.5 -76t-65.5 -31q-31 0 -54.5 16t-41.5 32t-37 16zM505 263q0 -16 -2 -27h-379q3 -86 48.5 -137.5t119.5 -51.5q54 0 91.5 23.5t51.5 68.5h65
q-16 -71 -72 -110t-136 -39q-104 0 -169 70t-65 185q0 120 65 192.5t166 72.5q94 0 155 -65t61 -182zM289 453q-68 0 -113 -47t-51 -118h314q-1 74 -42.5 119.5t-107.5 45.5z" />
    <glyph glyph-name="uni1ECA" unicode="&#x1eca;" horiz-adv-x="262" 
d="M165 700v-700h-69v700h69zM132 -183q-20 0 -34.5 14t-14.5 34q0 19 14.5 33t34.5 14t33.5 -14t13.5 -33q0 -20 -13.5 -34t-33.5 -14z" />
    <glyph glyph-name="uni1ECB" unicode="&#x1ecb;" horiz-adv-x="220" 
d="M111 588q-20 0 -34.5 14t-14.5 34q0 19 14.5 33t34.5 14q19 0 33 -13.5t14 -33.5t-13.5 -34t-33.5 -14zM77 0v500h67v-500h-67zM111 -183q-20 0 -34.5 14t-14.5 34q0 19 14.5 33t34.5 14q19 0 33 -14t14 -33q0 -20 -13.5 -34t-33.5 -14z" />
    <glyph glyph-name="uni1ECC" unicode="&#x1ecc;" horiz-adv-x="820" 
d="M410 -10q-145 0 -241 102.5t-96 257.5t96 257.5t241 102.5q144 0 240.5 -102.5t96.5 -257.5q0 -154 -96.5 -257t-240.5 -103zM410 55q115 0 191 84.5t76 210.5t-76.5 210.5t-190.5 84.5t-190.5 -84.5t-76.5 -210.5t76.5 -210.5t190.5 -84.5zM411 -183q-20 0 -34.5 14
t-14.5 34q0 19 14.5 33t34.5 14q19 0 33 -14t14 -33q0 -20 -13.5 -34t-33.5 -14z" />
    <glyph glyph-name="uni1ECD" unicode="&#x1ecd;" horiz-adv-x="603" 
d="M301 -10q-106 0 -174.5 74.5t-68.5 185.5q0 112 68.5 186t174.5 74q105 0 175 -74.5t70 -185.5q0 -112 -69.5 -186t-175.5 -74zM301 50q79 0 128.5 58t49.5 142t-50 142t-128 58q-79 0 -128 -58t-49 -142t49.5 -142t127.5 -58zM303 -183q-20 0 -34.5 14t-14.5 34
q0 19 14.5 33t34.5 14q19 0 33 -14t14 -33q0 -20 -13.5 -34t-33.5 -14z" />
    <glyph glyph-name="uni1EE4" unicode="&#x1ee4;" horiz-adv-x="718" 
d="M622 700v-442q0 -129 -71.5 -198.5t-190.5 -69.5q-118 0 -191 70t-73 198v442h69v-434q0 -104 54 -157.5t142 -53.5q86 0 138.5 53.5t52.5 157.5v434h70zM360 -183q-20 0 -34.5 14t-14.5 34q0 19 14.5 33t34.5 14t33.5 -14t13.5 -33q0 -20 -13.5 -34t-33.5 -14z" />
    <glyph glyph-name="uni1EE5" unicode="&#x1ee5;" horiz-adv-x="547" 
d="M470 500v-500h-60l-7 60h-6q-50 -70 -144 -70q-78 0 -127 49t-49 140v321h67v-305q0 -73 34 -109t88 -36q59 0 98 39t39 117v294h67zM274 -183q-20 0 -34.5 14t-14.5 34q0 19 14.5 33t34.5 14t33.5 -14t13.5 -33q0 -20 -13.5 -34t-33.5 -14z" />
    <glyph glyph-name="Ygrave" unicode="&#x1ef2;" horiz-adv-x="631" 
d="M279 900l65 -145h-56l-72 145h63zM517 700h85l-251 -358v-342h-70v342l-252 358h85l199 -282h6z" />
    <glyph glyph-name="ygrave" unicode="&#x1ef3;" horiz-adv-x="510" 
d="M218 700l65 -145h-56l-72 145h63zM116 -210q-26 0 -66 10v54q29 -8 55 -8q75 0 105 78l30 76h-25l-192 500h70l163 -429h6l155 429h71l-214 -586q-8 -22 -15.5 -36.5t-25.5 -38t-48 -36.5t-69 -13z" />
    <glyph glyph-name="uni1EF8" unicode="&#x1ef8;" horiz-adv-x="631" 
d="M479 861q-3 -45 -27.5 -76t-65.5 -31q-31 0 -54.5 16t-41.5 32t-37 16q-42 0 -48 -57h-51q5 47 28.5 77.5t65.5 30.5q32 0 55 -16.5t40.5 -32.5t36.5 -16q41 0 49 57h50zM517 700h85l-251 -358v-342h-70v342l-252 358h85l199 -282h6z" />
    <glyph glyph-name="uni1EF9" unicode="&#x1ef9;" horiz-adv-x="510" 
d="M418 661q-3 -45 -27.5 -76t-65.5 -31q-31 0 -54.5 16t-41.5 32t-37 16q-42 0 -48 -57h-51q5 47 28.5 77.5t65.5 30.5q32 0 55 -16.5t40.5 -32.5t36.5 -16q41 0 49 57h50zM116 -210q-26 0 -66 10v54q29 -8 55 -8q75 0 105 78l30 76h-25l-192 500h70l163 -429h6l155 429h71
l-214 -586q-8 -22 -15.5 -36.5t-25.5 -38t-48 -36.5t-69 -13z" />
    <glyph glyph-name="uni200B" unicode="&#x200b;" horiz-adv-x="0" 
 />
    <glyph glyph-name="endash" unicode="&#x2013;" horiz-adv-x="630" 
d="M44 339h542v-56h-542v56z" />
    <glyph glyph-name="emdash" unicode="&#x2014;" horiz-adv-x="810" 
d="M44 338h723v-54h-723v54z" />
    <glyph glyph-name="quoteleft" unicode="&#x2018;" horiz-adv-x="223" 
d="M109 501q-25 0 -38.5 18.5t-13.5 47.5q0 91 86 145l21 -27q-51 -40 -51 -86q19 2 33 -11.5t14 -34.5q0 -23 -14.5 -37.5t-36.5 -14.5z" />
    <glyph glyph-name="quoteright" unicode="&#x2019;" horiz-adv-x="223" 
d="M113 710q26 0 39.5 -18.5t13.5 -47.5q0 -48 -25.5 -85t-60.5 -59l-21 26q50 40 51 86q-19 -2 -33 11.5t-14 34.5q0 23 14 37.5t36 14.5z" />
    <glyph glyph-name="quotesinglbase" unicode="&#x201a;" horiz-adv-x="238" 
d="M121 92q26 0 39.5 -18.5t13.5 -47.5q0 -48 -25.5 -85t-60.5 -59l-21 26q50 40 51 86q-20 -2 -33.5 11.5t-13.5 35.5t14 36.5t36 14.5z" />
    <glyph glyph-name="quotedblleft" unicode="&#x201c;" horiz-adv-x="370" 
d="M109 501q-25 0 -38.5 18.5t-13.5 47.5q0 91 86 145l21 -27q-51 -40 -51 -86q19 2 33 -11.5t14 -34.5q0 -23 -14.5 -37.5t-36.5 -14.5zM256 501q-25 0 -39 19t-14 47q0 90 86 145l21 -27q-50 -40 -50 -86q19 2 33 -11.5t14 -34.5q0 -23 -14.5 -37.5t-36.5 -14.5z" />
    <glyph glyph-name="quotedblright" unicode="&#x201d;" horiz-adv-x="370" 
d="M113 710q26 0 39.5 -18.5t13.5 -47.5q0 -48 -25.5 -85t-60.5 -59l-21 26q50 40 51 86q-19 -2 -33 11.5t-14 34.5q0 23 14 37.5t36 14.5zM260 710q26 0 39.5 -18.5t13.5 -47.5q0 -48 -25.5 -85t-60.5 -59l-21 26q50 40 51 86q-19 -2 -33 11.5t-14 34.5q0 23 14 37.5
t36 14.5z" />
    <glyph glyph-name="quotedblbase" unicode="&#x201e;" horiz-adv-x="385" 
d="M121 92q26 0 39.5 -18.5t13.5 -47.5q0 -48 -25.5 -85t-60.5 -59l-21 26q50 40 51 86q-20 -2 -33.5 11.5t-13.5 35.5t14 36.5t36 14.5zM268 92q25 0 39 -18.5t14 -47.5q0 -48 -25.5 -85t-60.5 -59l-21 26q50 40 51 86q-20 -2 -34 12t-14 35q0 22 14.5 36.5t36.5 14.5z" />
    <glyph glyph-name="dagger" unicode="&#x2020;" horiz-adv-x="601" 
d="M505 504v-58h-172v-446h-65v446h-172v58h172v196h65v-196h172z" />
    <glyph glyph-name="daggerdbl" unicode="&#x2021;" horiz-adv-x="601" 
d="M505 446h-172v-192h172v-58h-172v-196h-65v196h-172v58h172v192h-172v58h172v196h65v-196h172v-58z" />
    <glyph glyph-name="bullet" unicode="&#x2022;" horiz-adv-x="189" 
d="M95 260q-21 0 -36 15t-15 35q0 22 15 37t36 15t35.5 -15t14.5 -37q0 -20 -14.5 -35t-35.5 -15z" />
    <glyph glyph-name="ellipsis" unicode="&#x2026;" horiz-adv-x="694" 
d="M117 -5q-21 0 -36 15t-15 35q0 22 15 37t36 15t35.5 -15t14.5 -37q0 -20 -14.5 -35t-35.5 -15zM348 -5q-22 0 -37 15t-15 35q0 22 15 37t37 15q20 0 35 -15t15 -37q0 -20 -15 -35t-35 -15zM578 -5q-21 0 -36 15t-15 35q0 22 15 37t36 15t35.5 -15t14.5 -37
q0 -20 -14.5 -35t-35.5 -15z" />
    <glyph glyph-name="perthousand" unicode="&#x2030;" horiz-adv-x="1008" 
d="M373 500q0 -61 -44.5 -105.5t-105.5 -44.5t-105.5 44t-44.5 106t44.5 106t105.5 44t105.5 -44.5t44.5 -105.5zM567 640h78l-436 -640h-78zM133 500q0 -40 25.5 -65.5t64.5 -25.5t64.5 25.5t25.5 65.5q0 39 -25.5 64.5t-64.5 25.5t-64.5 -25.5t-25.5 -64.5zM800 290
q61 0 105.5 -44.5t44.5 -105.5t-44.5 -105.5t-105.5 -44.5q-75 0 -120 61q-46 -61 -121 -61q-61 0 -105.5 44t-44.5 106t44.5 106t105.5 44q75 0 121 -61q45 61 120 61zM559 50q40 0 65.5 25.5t25.5 64.5q0 40 -25.5 65.5t-65.5 25.5q-39 0 -64.5 -25.5t-25.5 -65.5
q0 -39 26 -64.5t64 -25.5zM800 50q39 0 64.5 25.5t25.5 64.5q0 40 -25.5 65.5t-64.5 25.5t-64.5 -25.5t-25.5 -65.5q0 -39 25.5 -64.5t64.5 -25.5z" />
    <glyph glyph-name="guilsinglleft" unicode="&#x2039;" horiz-adv-x="293" 
d="M158 96l-129 202l129 202h77l-131 -202l131 -202h-77z" />
    <glyph glyph-name="guilsinglright" unicode="&#x203a;" horiz-adv-x="293" 
d="M134 96h-76l131 202l-131 202h76l130 -202z" />
    <glyph glyph-name="uni2042" unicode="&#x2042;" horiz-adv-x="830" 
d="M544 434l-106 64l2 -124h-49l1 124l-106 -64l-24 43l108 60l-108 60l24 43l107 -64l-2 124h49l-2 -124l106 64l25 -43l-109 -60l109 -60zM340 266l25 -43l-109 -60l109 -60l-25 -43l-106 64l2 -124h-49l1 124l-106 -64l-24 43l108 60l-108 60l24 43l107 -64l-2 124h49
l-2 -124zM773 223l-109 -60l109 -60l-25 -43l-106 64l2 -124h-49l1 124l-106 -64l-24 43l108 60l-108 60l24 43l107 -64l-2 124h49l-2 -124l106 64z" />
    <glyph glyph-name="fraction" unicode="&#x2044;" horiz-adv-x="296" 
d="M426 700l-495 -700h-61l494 700h62z" />
    <glyph glyph-name="uni2051" unicode="&#x2051;" horiz-adv-x="422" 
d="M365 617l-109 -60l109 -60l-25 -43l-106 64l2 -124h-49l1 124l-106 -64l-24 43l108 60l-108 60l24 43l107 -64l-2 124h49l-2 -124l106 64zM340 246l25 -43l-109 -60l109 -60l-25 -43l-106 64l2 -124h-49l1 124l-106 -64l-24 43l108 60l-108 60l24 43l107 -64l-2 124h49
l-2 -124z" />
    <glyph glyph-name="uni2070" unicode="&#x2070;" horiz-adv-x="368" 
d="M185 335q-66 0 -105 50t-39 148q0 96 39.5 146.5t104.5 50.5t103.5 -51t38.5 -148q0 -96 -38.5 -146t-103.5 -50zM184 379q41 0 66 38.5t25 114.5q0 75 -25.5 114t-65.5 39t-65 -38.5t-25 -114.5t25 -114.5t65 -38.5z" />
    <glyph glyph-name="uni2074" unicode="&#x2074;" horiz-adv-x="367" 
d="M343 468v-40h-72v-88h-48v88h-182v25l177 272h53v-257h72zM100 468h123v189h-4z" />
    <glyph glyph-name="uni2075" unicode="&#x2075;" horiz-adv-x="348" 
d="M182 587q57 0 91.5 -35.5t34.5 -90.5q0 -57 -38 -91.5t-99 -34.5q-58 0 -92.5 30.5t-37.5 83.5h48q4 -34 26 -53t56 -19q39 0 63 22.5t24 60.5t-23 63t-62 25q-56 0 -80 -44l-44 10l21 211h221v-43h-178l-13 -123q32 28 82 28z" />
    <glyph glyph-name="uni2076" unicode="&#x2076;" horiz-adv-x="351" 
d="M186 583q54 0 89 -34t35 -87q0 -56 -37.5 -91.5t-97.5 -35.5q-61 0 -97.5 35.5t-36.5 94.5q0 58 48 129l90 131h61l-110 -155q22 13 56 13zM175 377q39 0 61.5 24.5t22.5 60.5q0 35 -22.5 58.5t-60.5 23.5q-39 0 -61.5 -23.5t-22.5 -58.5q0 -36 23 -60.5t60 -24.5z" />
    <glyph glyph-name="uni2077" unicode="&#x2077;" horiz-adv-x="330" 
d="M41 725h265v-29q-69 -75 -106 -157.5t-46 -198.5h-52q9 114 41 192t88 147v3h-190v43z" />
    <glyph glyph-name="uni2078" unicode="&#x2078;" horiz-adv-x="355" 
d="M243 543q30 -10 50.5 -36t20.5 -63q0 -48 -37 -78.5t-99 -30.5t-99.5 30.5t-37.5 78.5q0 38 21 64t50 35v3q-57 22 -57 83q0 45 35 73t89 28q52 0 86.5 -27.5t34.5 -72.5q0 -60 -57 -84v-3zM179 691q-33 0 -53.5 -17t-20.5 -46q0 -30 21 -47t52 -17t51.5 17t20.5 47
q0 29 -20 46t-51 17zM178 375q36 0 60 19.5t24 51.5q0 33 -22.5 54.5t-61.5 21.5q-40 0 -62.5 -21.5t-22.5 -53.5t24 -52t61 -20z" />
    <glyph glyph-name="uni2079" unicode="&#x2079;" horiz-adv-x="351" 
d="M164 482q-53 0 -88 34t-35 87q0 56 37 91.5t97 35.5q61 0 98 -36t37 -94q0 -60 -49 -129l-89 -131h-62l111 155q-23 -13 -57 -13zM175 688q-39 0 -61.5 -24.5t-22.5 -60.5q0 -35 22.5 -58.5t60.5 -23.5q39 0 62 23.5t23 58.5q0 36 -23 60.5t-61 24.5z" />
    <glyph glyph-name="uni2080" unicode="&#x2080;" horiz-adv-x="368" 
d="M185 -105q-66 0 -105 50t-39 148q0 96 39.5 146.5t104.5 50.5t103.5 -51t38.5 -148q0 -96 -38.5 -146t-103.5 -50zM184 -61q41 0 66 38.5t25 114.5q0 75 -25.5 114t-65.5 39t-65 -38.5t-25 -114.5t25 -114.5t65 -38.5z" />
    <glyph glyph-name="uni2081" unicode="&#x2081;" horiz-adv-x="230" 
d="M118 -100v277h-77v40h36q23 0 35 13t12 34v21h46v-385h-52z" />
    <glyph glyph-name="uni2082" unicode="&#x2082;" horiz-adv-x="338" 
d="M161 32q-58 -38 -62 -89h197v-43h-255v20q0 88 84 144l60 38q19 12 29 20t20.5 24.5t10.5 35.5q0 28 -19.5 46t-50.5 18q-37 0 -58 -24t-23 -53h-52q2 48 37.5 84.5t97.5 36.5q54 0 87 -29t33 -77q0 -29 -15 -54t-26 -34t-30 -21z" />
    <glyph glyph-name="uni2083" unicode="&#x2083;" horiz-adv-x="352" 
d="M244 98q31 -9 49.5 -33.5t18.5 -58.5q0 -48 -38.5 -79.5t-100.5 -31.5q-58 0 -92.5 29t-39.5 81h50q12 -67 82 -67q37 0 62 19.5t25 49.5t-22 49.5t-59 19.5h-38v42h36q30 0 49.5 17.5t19.5 47.5q0 29 -20 47t-52 18q-30 0 -51 -16t-27 -45h-50q4 46 41.5 74.5t88.5 28.5
q52 0 87 -29.5t35 -76.5q0 -55 -54 -83v-3z" />
    <glyph glyph-name="uni2084" unicode="&#x2084;" horiz-adv-x="367" 
d="M343 28v-40h-72v-88h-48v88h-182v25l177 272h53v-257h72zM100 28h123v189h-4z" />
    <glyph glyph-name="uni2085" unicode="&#x2085;" horiz-adv-x="348" 
d="M182 147q57 0 91.5 -35.5t34.5 -90.5q0 -57 -38 -91.5t-99 -34.5q-58 0 -92.5 30.5t-37.5 83.5h48q4 -34 26 -53t56 -19q39 0 63 22.5t24 60.5t-23 63t-62 25q-56 0 -80 -44l-44 10l21 211h221v-43h-178l-13 -123q32 28 82 28z" />
    <glyph glyph-name="uni2086" unicode="&#x2086;" horiz-adv-x="351" 
d="M186 143q54 0 89 -34t35 -87q0 -56 -37.5 -91.5t-97.5 -35.5q-61 0 -97.5 35.5t-36.5 94.5q0 58 48 129l90 131h61l-110 -155q22 13 56 13zM175 -63q39 0 61.5 24.5t22.5 60.5q0 35 -22.5 58.5t-60.5 23.5q-39 0 -61.5 -23.5t-22.5 -58.5q0 -36 23 -60.5t60 -24.5z" />
    <glyph glyph-name="uni2087" unicode="&#x2087;" horiz-adv-x="330" 
d="M41 285h265v-29q-69 -75 -106 -157.5t-46 -198.5h-52q9 114 41 192t88 147v3h-190v43z" />
    <glyph glyph-name="uni2088" unicode="&#x2088;" horiz-adv-x="355" 
d="M243 103q30 -10 50.5 -36t20.5 -63q0 -48 -37 -78.5t-99 -30.5t-99.5 30.5t-37.5 78.5q0 38 21 64t50 35v3q-57 22 -57 83q0 45 35 73t89 28q52 0 86.5 -27.5t34.5 -72.5q0 -60 -57 -84v-3zM179 251q-33 0 -53.5 -17t-20.5 -46q0 -30 21 -47t52 -17t51.5 17t20.5 47
q0 29 -20 46t-51 17zM178 -65q36 0 60 19.5t24 51.5q0 33 -22.5 54.5t-61.5 21.5q-40 0 -62.5 -21.5t-22.5 -53.5t24 -52t61 -20z" />
    <glyph glyph-name="uni2089" unicode="&#x2089;" horiz-adv-x="351" 
d="M164 42q-53 0 -88 34t-35 87q0 56 37 91.5t97 35.5q61 0 98 -35.5t37 -94.5q0 -60 -49 -129l-89 -131h-62l111 155q-23 -13 -57 -13zM175 248q-39 0 -61.5 -24.5t-22.5 -60.5q0 -35 22.5 -58.5t60.5 -23.5q39 0 62 23.5t23 58.5q0 36 -23 60.5t-61 24.5z" />
    <glyph glyph-name="Euro" unicode="&#x20ac;" horiz-adv-x="637" 
d="M587 95l21 -52q-74 -53 -184 -53q-111 0 -184 58t-98 161h-84v55h75q-3 26 -3 54q0 31 5 66h-77v55h88q28 98 101 154.5t179 56.5q104 0 174 -47l-24 -51q-69 40 -147 40q-81 0 -135.5 -40.5t-78.5 -112.5h311l-12 -55h-312q-5 -33 -5 -64q0 -29 3 -56h278l-11 -55h-256
q47 -159 217 -159q95 0 159 45z" />
    <glyph glyph-name="uni2113" unicode="&#x2113;" horiz-adv-x="435" 
d="M185 157q0 -110 109 -110q40 0 73 14v-55q-29 -16 -86 -16q-69 0 -112 40t-43 117v100q-40 -11 -82 -18v55q48 10 82 22v191q0 67 31.5 110t95.5 43q61 0 92.5 -40t31.5 -98q0 -168 -192 -245v-110zM185 487v-158q136 65 136 181q0 36 -18 62t-51 26q-67 0 -67 -111z" />
    <glyph glyph-name="trademark" unicode="&#x2122;" horiz-adv-x="764" 
d="M35 653v47h255v-47h-101v-303h-53v303h-101zM650 700h65v-350h-51v256h-4l-99 -216h-52l-99 216h-3v-256h-51v350h64l115 -249h3z" />
    <glyph glyph-name="uni2153" unicode="&#x2153;" horiz-adv-x="892" 
d="M174 315v277h-78v40h37q22 0 34 13t12 34v21h46v-385h-51zM681 700l-494 -700h-61l494 700h61zM728 198q31 -9 49.5 -33.5t18.5 -58.5q0 -48 -39 -79.5t-100 -31.5q-58 0 -92.5 29t-39.5 81h50q11 -67 82 -67q37 0 61.5 19.5t24.5 49.5t-21.5 49.5t-58.5 19.5h-38v42h35
q31 0 50.5 17.5t19.5 47.5q0 29 -20 47t-52 18q-30 0 -51 -16t-28 -45h-49q4 46 41.5 74.5t88.5 28.5t86.5 -29.5t35.5 -76.5q0 -55 -54 -83v-3z" />
    <glyph glyph-name="uni2154" unicode="&#x2154;" horiz-adv-x="997" 
d="M216 447q-58 -39 -61 -89h196v-43h-255v20q0 87 85 144l59 38q19 12 29.5 20.5t21 24.5t10.5 35q0 28 -20 46t-51 18q-37 0 -57.5 -23.5t-23.5 -53.5h-52q2 48 38 84.5t98 36.5q54 0 87 -29t33 -77q0 -22 -7 -40.5t-21.5 -33t-21 -20t-21.5 -15.5zM787 700l-495 -700h-61
l494 700h62zM833 198q31 -9 49.5 -33.5t18.5 -58.5q0 -48 -38.5 -79.5t-100.5 -31.5q-58 0 -92.5 29t-39.5 81h50q12 -67 82 -67q37 0 62 19.5t25 49.5t-22 49.5t-59 19.5h-38v42h36q31 0 50.5 18t19.5 47t-20.5 47t-52.5 18q-29 0 -50.5 -16t-27.5 -45h-50q4 46 42 74.5
t88 28.5q52 0 87 -29.5t35 -76.5q0 -55 -54 -83v-3z" />
    <glyph glyph-name="arrowup" unicode="&#x2191;" horiz-adv-x="707" 
d="M649 446l-44 -45l-221 223v-632h-61v633l-221 -224l-44 45l292 286h7z" />
    <glyph glyph-name="arrowdown" unicode="&#x2193;" horiz-adv-x="707" 
d="M605 291l44 -45l-292 -286h-7l-292 286l44 45l221 -223v632h61v-633z" />
    <glyph glyph-name="arrowboth" unicode="&#x2194;" horiz-adv-x="969" 
d="M654 646l286 -293v-6l-286 -293l-45 44l223 222h-695l223 -222l-45 -44l-286 293v6l286 293l45 -44l-225 -222h699l-225 222z" />
    <glyph glyph-name="arrowupdn" unicode="&#x2195;" horiz-adv-x="707" 
d="M384 -6l221 223l44 -45l-292 -286h-7l-292 286l44 45l221 -224v695l-221 -224l-44 45l292 286h7l292 -286l-44 -45l-221 223v-693z" />
    <glyph glyph-name="uni2196" unicode="&#x2196;" horiz-adv-x="640" 
d="M611 103l-46 -45l-449 447v-321h-58v420l6 6h422v-58h-326z" />
    <glyph glyph-name="uni2197" unicode="&#x2197;" horiz-adv-x="640" 
d="M576 610l6 -6v-420h-58v321l-449 -447l-46 45l451 449h-326v58h422z" />
    <glyph glyph-name="uni2198" unicode="&#x2198;" horiz-adv-x="639" 
d="M523 518h58v-422l-5 -6h-421v58h321l-447 449l45 46l449 -450v325z" />
    <glyph glyph-name="uni2199" unicode="&#x2199;" horiz-adv-x="639" 
d="M610 597l-447 -449h321v-58h-421l-5 6v422h58v-325l449 450z" />
    <glyph glyph-name="partialdiff" unicode="&#x2202;" horiz-adv-x="612" 
d="M539 312q0 -163 -62 -242.5t-176 -79.5q-94 0 -161 63t-67 167t63 166.5t160 62.5q59 0 110.5 -29.5t70.5 -70.5h6q-9 151 -50.5 227t-133.5 76q-60 0 -97 -34t-49 -74h-62q9 65 66 115.5t141 50.5q130 0 185.5 -102.5t55.5 -295.5zM303 48q73 0 118.5 51.5t45.5 126.5
q0 74 -48.5 119.5t-121.5 45.5t-117.5 -47.5t-44.5 -123.5t47.5 -124t120.5 -48z" />
    <glyph glyph-name="emptyset" unicode="&#x2205;" horiz-adv-x="806" 
d="M651 536q79 -94 79 -216q0 -138 -95.5 -234t-231.5 -96q-118 0 -207 75l-73 -75l-39 40l72 75q-79 94 -79 215q0 138 95 234t231 96q118 0 209 -75l72 75l39 -40zM140 320q0 -97 59 -172l370 383q-73 60 -167 60q-107 0 -184.5 -79.5t-77.5 -191.5zM402 49
q109 0 186.5 79.5t77.5 191.5q0 97 -58 171l-370 -383q70 -59 164 -59z" />
    <glyph glyph-name="product" unicode="&#x220f;" horiz-adv-x="677" 
d="M581 700v-700h-70v638h-345v-638h-70v700h485z" />
    <glyph glyph-name="summation" unicode="&#x2211;" horiz-adv-x="574" 
d="M78 662v38h433v-59h-330v-4l231 -268v-38l-233 -268v-4h342v-59h-448v38l271 310v4z" />
    <glyph glyph-name="minus" unicode="&#x2212;" 
d="M63 309h414v-58h-414v58z" />
    <glyph glyph-name="radical" unicode="&#x221a;" horiz-adv-x="678" 
d="M635 700v-59h-116l-230 -641h-88l-178 500h75l144 -410h7l216 610h170z" />
    <glyph glyph-name="infinity" unicode="&#x221e;" horiz-adv-x="823" 
d="M597 512q65 0 116.5 -49.5t51.5 -126.5t-51.5 -126.5t-116.5 -49.5q-106 0 -183 123h-5q-77 -123 -183 -123q-65 0 -116.5 49.5t-51.5 126.5t51.5 126.5t116.5 49.5q106 0 183 -123h5q77 123 183 123zM231 217q45 0 81 29t71 90q-35 61 -71 90t-81 29q-44 0 -78 -32.5
t-34 -86.5t34 -86.5t78 -32.5zM592 217q44 0 78 32.5t34 86.5t-34 86.5t-78 32.5q-45 0 -81 -29t-71 -90q35 -61 71 -90t81 -29z" />
    <glyph glyph-name="integral" unicode="&#x222b;" horiz-adv-x="519" 
d="M396 710q56 0 95 -44l-29 -47q-26 31 -63 31q-29 0 -48.5 -18t-23.5 -52l-69 -664q-6 -63 -43.5 -94.5t-91.5 -31.5q-55 0 -94 44l29 47q26 -31 63 -31q28 0 48 18t24 52l69 664q6 64 43.5 95t90.5 31z" />
    <glyph glyph-name="approxequal" unicode="&#x2248;" 
d="M514 458q-6 -64 -40.5 -108t-95.5 -44q-39 0 -70.5 17t-48.5 37t-41.5 37t-50.5 17q-37 0 -58 -27t-26 -70h-57q7 65 42 109t95 44q38 0 69.5 -17t49 -37.5t42 -37.5t50.5 -17q38 0 59 27t26 70h55zM514 242q-6 -64 -40.5 -108.5t-95.5 -44.5q-32 0 -58 11t-43.5 27.5
t-33.5 32.5t-35 27t-41 11q-37 0 -58 -27t-26 -70h-57q7 65 42 108.5t95 43.5q38 0 69.5 -17t49 -37t42 -37t50.5 -17q38 0 59 27t26 70h55z" />
    <glyph glyph-name="notequal" unicode="&#x2260;" 
d="M482 360h-133l-102 -160h235v-57h-272l-64 -101l-42 25l48 76h-94v57h131l102 160h-233v57h269l66 104l42 -26l-50 -78h97v-57z" />
    <glyph glyph-name="lessequal" unicode="&#x2264;" 
d="M482 579v-66l-357 -166v-5l357 -167v-66l-424 198v73zM482 0h-424v58h424v-58z" />
    <glyph glyph-name="greaterequal" unicode="&#x2265;" 
d="M58 579l424 -199v-73l-424 -198v66l357 167v5l-357 166v66zM58 0v58h424v-58h-424z" />
    <glyph glyph-name="lozenge" unicode="&#x25ca;" horiz-adv-x="601" 
d="M301 570l271 -290l-271 -290l-272 290zM301 485l-187 -205l187 -205l187 205z" />
    <glyph glyph-name="smileface" unicode="&#x263a;" horiz-adv-x="865" 
d="M793 350q0 -150 -105 -255t-255 -105t-255 106t-105 254q0 149 105.5 254.5t254.5 105.5q151 0 255.5 -105.5t104.5 -254.5zM245 533v-45h44v-128h46v128h44v45h-134zM487 533v-45h45v-128h45v128h45v45h-135zM433 81q109 0 187 76t81 183l-46 8q0 -92 -65 -156.5
t-157 -64.5q-91 0 -156 64.5t-65 156.5l-46 -8q3 -107 81 -183t186 -76z" />
    <glyph glyph-name="uni2731" unicode="&#x2731;" 
d="M473 366l-150 -86l150 -86l-28 -48l-149 89l2 -175h-56l2 174l-149 -88l-28 48l151 86l-151 86l28 48l149 -88l-2 174h56l-2 -175l149 89z" />
    <glyph glyph-name="uni2780" unicode="&#x2780;" horiz-adv-x="857" 
d="M428 -10q-147 0 -251 104.5t-104 255.5t104 255.5t251 104.5t251.5 -104.5t104.5 -255.5t-104.5 -255.5t-251.5 -104.5zM428 39q126 0 216 92t90 219t-90 219t-216 92t-215.5 -92t-89.5 -219t89.5 -219t215.5 -92zM408 157v277h-77v40h36q23 0 35 13t12 34v21h46v-385
h-52z" />
    <glyph glyph-name="uni2781" unicode="&#x2781;" horiz-adv-x="857" 
d="M428 -10q-147 0 -251 104.5t-104 255.5t104 255.5t251 104.5t251.5 -104.5t104.5 -255.5t-104.5 -255.5t-251.5 -104.5zM428 39q126 0 216 92t90 219t-90 219t-216 92t-215.5 -92t-89.5 -219t89.5 -219t215.5 -92zM418 297q-58 -38 -62 -89h197v-43h-255v20q0 88 84 144
l60 38q19 12 29 20t20.5 24.5t10.5 35.5q0 28 -19.5 46t-50.5 18q-37 0 -58 -24t-23 -53h-52q2 48 37.5 84.5t97.5 36.5q54 0 87 -29t33 -77q0 -29 -15 -54t-26 -34t-30 -21z" />
    <glyph glyph-name="uni2782" unicode="&#x2782;" horiz-adv-x="857" 
d="M428 -10q-147 0 -251 104.5t-104 255.5t104 255.5t251 104.5t251.5 -104.5t104.5 -255.5t-104.5 -255.5t-251.5 -104.5zM428 39q126 0 216 92t90 219t-90 219t-216 92t-215.5 -92t-89.5 -219t89.5 -219t215.5 -92zM495 355q31 -9 49.5 -33.5t18.5 -58.5
q0 -48 -38.5 -79.5t-100.5 -31.5q-58 0 -92.5 29t-39.5 81h50q12 -67 82 -67q37 0 62 19.5t25 49.5t-22 49.5t-59 19.5h-38v42h36q30 0 49.5 17.5t19.5 47.5q0 29 -20 47t-52 18q-30 0 -51 -16t-27 -45h-50q4 46 41.5 74.5t88.5 28.5q52 0 87 -29.5t35 -76.5q0 -55 -54 -83
v-3z" />
    <glyph glyph-name="uni2783" unicode="&#x2783;" horiz-adv-x="857" 
d="M428 -10q-147 0 -251 104.5t-104 255.5t104 255.5t251 104.5t251.5 -104.5t104.5 -255.5t-104.5 -255.5t-251.5 -104.5zM428 39q126 0 216 92t90 219t-90 219t-216 92t-215.5 -92t-89.5 -219t89.5 -219t215.5 -92zM565 285v-40h-72v-88h-48v88h-182v25l177 272h53v-257
h72zM322 285h123v189h-4z" />
    <glyph glyph-name="uni2784" unicode="&#x2784;" horiz-adv-x="857" 
d="M428 -10q-147 0 -251 104.5t-104 255.5t104 255.5t251 104.5t251.5 -104.5t104.5 -255.5t-104.5 -255.5t-251.5 -104.5zM428 39q126 0 216 92t90 219t-90 219t-216 92t-215.5 -92t-89.5 -219t89.5 -219t215.5 -92zM434 396q57 0 91.5 -35.5t34.5 -90.5q0 -57 -38 -91.5
t-99 -34.5q-58 0 -92.5 30.5t-37.5 83.5h48q4 -34 26 -53t56 -19q39 0 63 22.5t24 60.5t-23 63t-62 25q-56 0 -80 -44l-44 10l21 211h221v-43h-178l-13 -123q32 28 82 28z" />
    <glyph glyph-name="uni2785" unicode="&#x2785;" horiz-adv-x="857" 
d="M428 -10q-147 0 -251 104.5t-104 255.5t104 255.5t251 104.5t251.5 -104.5t104.5 -255.5t-104.5 -255.5t-251.5 -104.5zM428 39q126 0 216 92t90 219t-90 219t-216 92t-215.5 -92t-89.5 -219t89.5 -219t215.5 -92zM436 400q54 0 89 -34t35 -87q0 -56 -37.5 -91.5
t-97.5 -35.5q-61 0 -97.5 35.5t-36.5 94.5q0 58 48 129l90 131h61l-110 -155q22 13 56 13zM425 194q39 0 61.5 24.5t22.5 60.5q0 35 -22.5 58.5t-60.5 23.5q-39 0 -61.5 -23.5t-22.5 -58.5q0 -36 23 -60.5t60 -24.5z" />
    <glyph glyph-name="uni2786" unicode="&#x2786;" horiz-adv-x="857" 
d="M428 -10q-147 0 -251 104.5t-104 255.5t104 255.5t251 104.5t251.5 -104.5t104.5 -255.5t-104.5 -255.5t-251.5 -104.5zM428 39q126 0 216 92t90 219t-90 219t-216 92t-215.5 -92t-89.5 -219t89.5 -219t215.5 -92zM299 534h265v-29q-69 -75 -106 -157.5t-46 -198.5h-52
q9 114 41 192t88 147v3h-190v43z" />
    <glyph glyph-name="uni2787" unicode="&#x2787;" horiz-adv-x="857" 
d="M428 -10q-147 0 -251 104.5t-104 255.5t104 255.5t251 104.5t251.5 -104.5t104.5 -255.5t-104.5 -255.5t-251.5 -104.5zM428 39q126 0 216 92t90 219t-90 219t-216 92t-215.5 -92t-89.5 -219t89.5 -219t215.5 -92zM494 360q30 -10 50.5 -36t20.5 -63q0 -48 -37 -78.5
t-99 -30.5t-99.5 30.5t-37.5 78.5q0 38 21 64t50 35v3q-57 22 -57 83q0 45 35 73t89 28q52 0 86.5 -27.5t34.5 -72.5q0 -60 -57 -84v-3zM430 508q-33 0 -53.5 -17t-20.5 -46q0 -30 21 -47t52 -17t51.5 17t20.5 47q0 29 -20 46t-51 17zM429 192q36 0 60 19.5t24 51.5
q0 33 -22.5 54.5t-61.5 21.5q-40 0 -62.5 -21.5t-22.5 -53.5t24 -52t61 -20z" />
    <glyph glyph-name="uni2788" unicode="&#x2788;" horiz-adv-x="857" 
d="M428 -10q-147 0 -251 104.5t-104 255.5t104 255.5t251 104.5t251.5 -104.5t104.5 -255.5t-104.5 -255.5t-251.5 -104.5zM428 39q126 0 216 92t90 219t-90 219t-216 92t-215.5 -92t-89.5 -219t89.5 -219t215.5 -92zM420 300q-53 0 -88 34t-35 87q0 56 37 91.5t97 35.5
q61 0 98 -36t37 -94q0 -60 -49 -129l-89 -131h-62l111 155q-23 -13 -57 -13zM431 506q-39 0 -61.5 -24.5t-22.5 -60.5q0 -35 22.5 -58.5t60.5 -23.5q39 0 62 23.5t23 58.5q0 36 -23 60.5t-61 24.5z" />
    <glyph glyph-name="uni2789" unicode="&#x2789;" horiz-adv-x="857" 
d="M428 -10q-147 0 -251 104.5t-104 255.5t104 255.5t251 104.5t251.5 -104.5t104.5 -255.5t-104.5 -255.5t-251.5 -104.5zM428 39q126 0 216 92t90 219t-90 219t-216 92t-215.5 -92t-89.5 -219t89.5 -219t215.5 -92zM518 172q-56 0 -90.5 45t-34.5 133q0 85 34.5 131
t89.5 46t88.5 -46t33.5 -133q0 -86 -33 -131t-88 -45zM285 177v246h-66v39h31q40 0 40 43v18h41v-346h-46zM517 214q33 0 54 34t21 102q0 67 -21 101t-54 34q-34 0 -55 -33.5t-21 -101.5q0 -69 21 -102.5t55 -33.5z" />
    <glyph glyph-name="uni278A" unicode="&#x278a;" horiz-adv-x="857" 
d="M428 -10q147 0 251.5 104.5t104.5 255.5t-104.5 255.5t-251.5 104.5t-251 -104.5t-104 -255.5t104 -255.5t251 -104.5zM408 157v277h-77v40h36q23 0 35 13t12 34v21h46v-385h-52z" />
    <glyph glyph-name="uni278B" unicode="&#x278b;" horiz-adv-x="857" 
d="M428 -10q147 0 251.5 104.5t104.5 255.5t-104.5 255.5t-251.5 104.5t-251 -104.5t-104 -255.5t104 -255.5t251 -104.5zM418 297q-58 -38 -62 -89h197v-43h-255v20q0 88 84 144l60 38q19 12 29 20t20.5 24.5t10.5 35.5q0 28 -19.5 46t-50.5 18q-37 0 -58 -24t-23 -53h-52
q2 48 37.5 84.5t97.5 36.5q54 0 87 -29t33 -77q0 -29 -15 -54t-26 -34t-30 -21z" />
    <glyph glyph-name="uni278C" unicode="&#x278c;" horiz-adv-x="857" 
d="M428 -10q147 0 251.5 104.5t104.5 255.5t-104.5 255.5t-251.5 104.5t-251 -104.5t-104 -255.5t104 -255.5t251 -104.5zM495 355q31 -9 49.5 -33.5t18.5 -58.5q0 -48 -38.5 -79.5t-100.5 -31.5q-58 0 -92.5 29t-39.5 81h50q12 -67 82 -67q37 0 62 19.5t25 49.5t-22 49.5
t-59 19.5h-38v42h36q30 0 49.5 17.5t19.5 47.5q0 29 -20 47t-52 18q-30 0 -51 -16t-27 -45h-50q4 46 41.5 74.5t88.5 28.5q52 0 87 -29.5t35 -76.5q0 -55 -54 -83v-3z" />
    <glyph glyph-name="uni278D" unicode="&#x278d;" horiz-adv-x="857" 
d="M428 -10q147 0 251.5 104.5t104.5 255.5t-104.5 255.5t-251.5 104.5t-251 -104.5t-104 -255.5t104 -255.5t251 -104.5zM565 285v-40h-72v-88h-48v88h-182v25l177 272h53v-257h72zM322 285h123v189h-4z" />
    <glyph glyph-name="uni278E" unicode="&#x278e;" horiz-adv-x="857" 
d="M428 -10q147 0 251.5 104.5t104.5 255.5t-104.5 255.5t-251.5 104.5t-251 -104.5t-104 -255.5t104 -255.5t251 -104.5zM434 396q57 0 91.5 -35.5t34.5 -90.5q0 -57 -38 -91.5t-99 -34.5q-58 0 -92.5 30.5t-37.5 83.5h48q4 -34 26 -53t56 -19q39 0 63 22.5t24 60.5t-23 63
t-62 25q-56 0 -80 -44l-44 10l21 211h221v-43h-178l-13 -123q32 28 82 28z" />
    <glyph glyph-name="uni278F" unicode="&#x278f;" horiz-adv-x="857" 
d="M428 -10q147 0 251.5 104.5t104.5 255.5t-104.5 255.5t-251.5 104.5t-251 -104.5t-104 -255.5t104 -255.5t251 -104.5zM436 400q54 0 89 -34t35 -87q0 -56 -37.5 -91.5t-97.5 -35.5q-61 0 -97.5 35.5t-36.5 94.5q0 58 48 129l90 131h61l-110 -155q22 13 56 13zM425 194
q39 0 61.5 24.5t22.5 60.5q0 35 -22.5 58.5t-60.5 23.5q-39 0 -61.5 -23.5t-22.5 -58.5q0 -36 23 -60.5t60 -24.5z" />
    <glyph glyph-name="uni2790" unicode="&#x2790;" horiz-adv-x="857" 
d="M428 -10q147 0 251.5 104.5t104.5 255.5t-104.5 255.5t-251.5 104.5t-251 -104.5t-104 -255.5t104 -255.5t251 -104.5zM299 534h265v-29q-69 -75 -106 -157.5t-46 -198.5h-52q9 114 41 192t88 147v3h-190v43z" />
    <glyph glyph-name="uni2791" unicode="&#x2791;" horiz-adv-x="857" 
d="M428 -10q147 0 251.5 104.5t104.5 255.5t-104.5 255.5t-251.5 104.5t-251 -104.5t-104 -255.5t104 -255.5t251 -104.5zM494 360q30 -10 50.5 -36t20.5 -63q0 -48 -37 -78.5t-99 -30.5t-99.5 30.5t-37.5 78.5q0 38 21 64t50 35v3q-57 22 -57 83q0 45 35 73t89 28
q52 0 86.5 -27.5t34.5 -72.5q0 -60 -57 -84v-3zM430 508q-33 0 -53.5 -17t-20.5 -46q0 -30 21 -47t52 -17t51.5 17t20.5 47q0 29 -20 46t-51 17zM429 192q36 0 60 19.5t24 51.5q0 33 -22.5 54.5t-61.5 21.5q-40 0 -62.5 -21.5t-22.5 -53.5t24 -52t61 -20z" />
    <glyph glyph-name="uni2792" unicode="&#x2792;" horiz-adv-x="857" 
d="M428 -10q147 0 251.5 104.5t104.5 255.5t-104.5 255.5t-251.5 104.5t-251 -104.5t-104 -255.5t104 -255.5t251 -104.5zM420 300q-53 0 -88 34t-35 87q0 56 37 91.5t97 35.5q61 0 98 -36t37 -94q0 -60 -49 -129l-89 -131h-62l111 155q-23 -13 -57 -13zM431 506
q-39 0 -61.5 -24.5t-22.5 -60.5q0 -35 22.5 -58.5t60.5 -23.5q39 0 62 23.5t23 58.5q0 36 -23 60.5t-61 24.5z" />
    <glyph glyph-name="uni2793" unicode="&#x2793;" horiz-adv-x="857" 
d="M428 -10q147 0 251.5 104.5t104.5 255.5t-104.5 255.5t-251.5 104.5t-251 -104.5t-104 -255.5t104 -255.5t251 -104.5zM518 172q-56 0 -90.5 45t-34.5 133q0 85 34.5 131t89.5 46t88.5 -46t33.5 -133q0 -86 -33 -131t-88 -45zM285 177v246h-66v39h31q40 0 40 43v18h41
v-346h-46zM517 214q33 0 54 34t21 102q0 67 -21 101t-54 34q-34 0 -55 -33.5t-21 -101.5q0 -69 21 -102.5t55 -33.5z" />
    <glyph glyph-name="Aacute.ss01" horiz-adv-x="627" 
d="M400 900l-65 -145h-42l61 145h46zM523 0l-68 203h-284l-68 -203h-74l241 700h87l241 -700h-75zM192 264h242l-118 353h-6z" />
    <glyph glyph-name="Abreve.ss01" horiz-adv-x="627" 
d="M314 777q-56 0 -87 38.5t-31 84.5h43q0 -38 20.5 -62t54.5 -24q33 0 53 23.5t20 62.5h43q0 -46 -30 -84.5t-86 -38.5zM523 0l-68 203h-284l-68 -203h-74l241 700h87l241 -700h-75zM192 264h242l-118 353h-6z" />
    <glyph glyph-name="uni01CD.ss01" horiz-adv-x="627" 
d="M338 768h-47l-99 132h50l71 -95h3l70 95h50zM523 0l-68 203h-284l-68 -203h-74l241 700h87l241 -700h-75zM192 264h242l-118 353h-6z" />
    <glyph glyph-name="Acircumflex.ss01" horiz-adv-x="627" 
d="M312 863l-69 -95h-51l98 132h47l100 -132h-51l-71 95h-3zM523 0l-68 203h-284l-68 -203h-74l241 700h87l241 -700h-75zM192 264h242l-118 353h-6z" />
    <glyph glyph-name="Agrave.ss01" horiz-adv-x="627" 
d="M335 755h-42l-65 145h46zM523 0l-68 203h-284l-68 -203h-74l241 700h87l241 -700h-75zM192 264h242l-118 353h-6z" />
    <glyph glyph-name="Amacron.ss01" horiz-adv-x="627" 
d="M456 832v-37h-283v37h283zM523 0l-68 203h-284l-68 -203h-74l241 700h87l241 -700h-75zM192 264h242l-118 353h-6z" />
    <glyph glyph-name="Aogonek.ss01" horiz-adv-x="627" 
d="M583 -129q21 0 43 6v-38q-15 -6 -44 -6q-44 0 -73 20.5t-29 63.5q0 52 66 83h-23l-68 203h-284l-68 -203h-74l241 700h87l241 -700h-1q-74 -29 -74 -82q0 -47 60 -47zM192 264h242l-118 353h-6z" />
    <glyph glyph-name="Aring.ss01" horiz-adv-x="627" 
d="M315 750q-37 0 -64.5 26.5t-27.5 63.5q0 38 27.5 64t64.5 26t63.5 -26t26.5 -64q0 -37 -26.5 -63.5t-63.5 -26.5zM315 895q-23 0 -38.5 -16t-15.5 -39q0 -24 15.5 -40t38.5 -16q22 0 37.5 16t15.5 40q0 23 -15.5 39t-37.5 16zM523 0l-68 203h-284l-68 -203h-74l241 700
h87l241 -700h-75zM192 264h242l-118 353h-6z" />
    <glyph glyph-name="Atilde.ss01" horiz-adv-x="627" 
d="M251 825q-43 0 -51 -60h-39q5 41 27 69t60 28q31 0 53 -16.5t39.5 -33t37.5 -16.5q44 0 52 59h37q-3 -40 -25.5 -68.5t-60.5 -28.5q-30 0 -52.5 17t-40.5 33.5t-37 16.5zM523 0l-68 203h-284l-68 -203h-74l241 700h87l241 -700h-75zM192 264h242l-118 353h-6z" />
    <glyph glyph-name="AEacute.ss01" horiz-adv-x="986" 
d="M786 900l-65 -145h-42l61 145h46zM581 63h353v-63h-422v203h-272l-130 -203h-81l447 700h448v-63h-343v-251h304v-62h-304v-261zM279 264h233v353h-6z" />
    <glyph glyph-name="uni01E2.ss01" horiz-adv-x="986" 
d="M842 832v-37h-283v37h283zM581 63h353v-63h-422v203h-272l-130 -203h-81l447 700h448v-63h-343v-251h304v-62h-304v-261zM279 264h233v353h-6z" />
    <glyph glyph-name="Cacute.ss01" horiz-adv-x="746" 
d="M436 900h46l-65 -145h-42zM689 207q-20 -97 -100 -157t-192 -60q-145 0 -234.5 99.5t-89.5 256.5q0 159 89 261.5t234 102.5q109 0 186 -59.5t96 -163.5h-73q-18 73 -72.5 115.5t-134.5 42.5q-115 0 -185 -86t-70 -213t70.5 -209t183.5 -82q81 0 139 41.5t80 110.5h73z
" />
    <glyph glyph-name="Ccaron.ss01" horiz-adv-x="746" 
d="M468 900h50l-98 -132h-47l-99 132h50l71 -95h3zM689 207q-20 -97 -100 -157t-192 -60q-145 0 -234.5 99.5t-89.5 256.5q0 159 89 261.5t234 102.5q109 0 186 -59.5t96 -163.5h-73q-18 73 -72.5 115.5t-134.5 42.5q-115 0 -185 -86t-70 -213t70.5 -209t183.5 -82
q81 0 139 41.5t80 110.5h73z" />
    <glyph glyph-name="Ccedilla.ss01" horiz-adv-x="746" 
d="M689 207q-20 -94 -95.5 -153.5t-182.5 -63.5l-27 -35q37 3 68 -19.5t31 -64.5q0 -37 -25 -59t-70 -22q-38 0 -64 18l14 29q24 -14 48 -14q27 0 43.5 14t16.5 37q0 52 -65 52q-18 0 -38 -9l-18 16l44 58q-133 10 -214.5 107.5t-81.5 247.5q0 159 89 261.5t234 102.5
q109 0 186 -59.5t96 -163.5h-73q-18 73 -72.5 115.5t-134.5 42.5q-115 0 -185 -86t-70 -213t70.5 -209t183.5 -82q81 0 139 41.5t80 110.5h73z" />
    <glyph glyph-name="Ccircumflex.ss01" horiz-adv-x="746" 
d="M325 768h-51l98 132h47l100 -132h-51l-71 95h-3zM689 207q-20 -97 -100 -157t-192 -60q-145 0 -234.5 99.5t-89.5 256.5q0 159 89 261.5t234 102.5q109 0 186 -59.5t96 -163.5h-73q-18 73 -72.5 115.5t-134.5 42.5q-115 0 -185 -86t-70 -213t70.5 -209t183.5 -82
q81 0 139 41.5t80 110.5h73z" />
    <glyph glyph-name="Eth.ss01" horiz-adv-x="699" 
d="M298 700q162 0 245.5 -94.5t83.5 -256.5q0 -158 -82 -253.5t-247 -95.5h-202v330h-118v38h118v332h202zM294 64q137 0 199.5 77.5t62.5 209.5q0 131 -62.5 208t-199.5 77h-129v-268h179v-38h-179v-266h129z" />
    <glyph glyph-name="Dcaron.ss01" horiz-adv-x="699" 
d="M420 900h50l-98 -132h-47l-99 132h50l71 -95h3zM298 700q162 0 245.5 -94.5t83.5 -256.5q0 -158 -82 -253.5t-247 -95.5h-202v700h202zM294 64q137 0 199.5 77.5t62.5 209.5q0 131 -62.5 208t-199.5 77h-129v-572h129z" />
    <glyph glyph-name="Dcroat.ss01" horiz-adv-x="699" 
d="M298 700q162 0 245.5 -94.5t83.5 -256.5q0 -158 -82 -253.5t-247 -95.5h-202v330h-118v38h118v332h202zM294 64q137 0 199.5 77.5t62.5 209.5q0 131 -62.5 208t-199.5 77h-129v-268h179v-38h-179v-266h129z" />
    <glyph glyph-name="Eacute.ss01" horiz-adv-x="585" 
d="M350 900h46l-65 -145h-42zM164 63h368v-63h-436v700h426v-63h-358v-251h319v-62h-319v-261z" />
    <glyph glyph-name="Ebreve.ss01" horiz-adv-x="585" 
d="M425 900q0 -46 -30 -84.5t-86 -38.5t-87 38.5t-31 84.5h43q0 -38 20.5 -62t54.5 -24q33 0 53 23.5t20 62.5h43zM164 63h368v-63h-436v700h426v-63h-358v-251h319v-62h-319v-261z" />
    <glyph glyph-name="Ecaron.ss01" horiz-adv-x="585" 
d="M382 900h50l-98 -132h-47l-99 132h50l71 -95h3zM164 63h368v-63h-436v700h426v-63h-358v-251h319v-62h-319v-261z" />
    <glyph glyph-name="uni0228.ss01" horiz-adv-x="585" 
d="M532 0h-196l-34 -45q37 3 68 -19.5t31 -64.5q0 -37 -25 -59t-70 -22q-38 0 -64 18l14 29q24 -14 48 -14q27 0 43.5 14t16.5 37q0 52 -65 52q-18 0 -38 -9l-18 16l51 67h-198v700h426v-63h-358v-251h319v-62h-319v-261h368v-63z" />
    <glyph glyph-name="Ecircumflex.ss01" horiz-adv-x="585" 
d="M238 768h-51l98 132h47l100 -132h-51l-71 95h-3zM164 63h368v-63h-436v700h426v-63h-358v-251h319v-62h-319v-261z" />
    <glyph glyph-name="Egrave.ss01" horiz-adv-x="585" 
d="M270 900l61 -145h-42l-65 145h46zM164 63h368v-63h-436v700h426v-63h-358v-251h319v-62h-319v-261z" />
    <glyph glyph-name="Emacron.ss01" horiz-adv-x="585" 
d="M169 832h283v-37h-283v37zM164 63h368v-63h-436v700h426v-63h-358v-251h319v-62h-319v-261z" />
    <glyph glyph-name="Eogonek.ss01" horiz-adv-x="585" 
d="M518 -129q20 0 43 6v-38q-15 -6 -44 -6q-44 0 -73 20.5t-29 63.5q0 52 66 83h-385v700h426v-63h-358v-251h319v-62h-319v-261h368v-63q-74 -29 -74 -82q0 -47 60 -47z" />
    <glyph glyph-name="uni1EBC.ss01" horiz-adv-x="585" 
d="M463 855q-3 -40 -25.5 -68.5t-60.5 -28.5q-30 0 -52.5 17t-40.5 33.5t-37 16.5q-43 0 -51 -60h-39q5 41 27 69t60 28q31 0 53 -16.5t39.5 -33t37.5 -16.5q44 0 52 59h37zM164 63h368v-63h-436v700h426v-63h-358v-251h319v-62h-319v-261z" />
    <glyph glyph-name="uni01F4.ss01" horiz-adv-x="780" 
d="M436 900h46l-65 -145h-42zM397 356h287v-356h-55l-9 87h-6q-88 -97 -226 -97q-144 0 -229.5 97.5t-85.5 252.5q0 160 92.5 265t241.5 105q109 0 182.5 -55.5t91.5 -145.5h-73q-19 62 -71 99t-130 37q-118 0 -191 -85.5t-73 -218.5q0 -126 67.5 -206.5t182.5 -80.5
q92 0 157.5 48.5t65.5 138.5v57h-219v58z" />
    <glyph glyph-name="Gbreve.ss01" horiz-adv-x="780" 
d="M512 900q0 -46 -30 -84.5t-86 -38.5t-87 38.5t-31 84.5h43q0 -38 20.5 -62t54.5 -24q33 0 53 23.5t20 62.5h43zM397 356h287v-356h-55l-9 87h-6q-88 -97 -226 -97q-144 0 -229.5 97.5t-85.5 252.5q0 160 92.5 265t241.5 105q109 0 182.5 -55.5t91.5 -145.5h-73
q-19 62 -71 99t-130 37q-118 0 -191 -85.5t-73 -218.5q0 -126 67.5 -206.5t182.5 -80.5q92 0 157.5 48.5t65.5 138.5v57h-219v58z" />
    <glyph glyph-name="Gcaron.ss01" horiz-adv-x="780" 
d="M468 900h50l-98 -132h-47l-99 132h50l71 -95h3zM397 356h287v-356h-55l-9 87h-6q-88 -97 -226 -97q-144 0 -229.5 97.5t-85.5 252.5q0 160 92.5 265t241.5 105q109 0 182.5 -55.5t91.5 -145.5h-73q-19 62 -71 99t-130 37q-118 0 -191 -85.5t-73 -218.5
q0 -126 67.5 -206.5t182.5 -80.5q92 0 157.5 48.5t65.5 138.5v57h-219v58z" />
    <glyph glyph-name="Gcircumflex.ss01" horiz-adv-x="780" 
d="M325 768h-51l98 132h47l100 -132h-51l-71 95h-3zM397 356h287v-356h-55l-9 87h-6q-88 -97 -226 -97q-144 0 -229.5 97.5t-85.5 252.5q0 160 92.5 265t241.5 105q109 0 182.5 -55.5t91.5 -145.5h-73q-19 62 -71 99t-130 37q-118 0 -191 -85.5t-73 -218.5
q0 -126 67.5 -206.5t182.5 -80.5q92 0 157.5 48.5t65.5 138.5v57h-219v58z" />
    <glyph glyph-name="uni0122.ss01" horiz-adv-x="780" 
d="M397 356h287v-356h-55l-9 87h-6q-88 -97 -226 -97q-144 0 -229.5 97.5t-85.5 252.5q0 160 92.5 265t241.5 105q109 0 182.5 -55.5t91.5 -145.5h-73q-19 62 -71 99t-130 37q-118 0 -191 -85.5t-73 -218.5q0 -126 67.5 -206.5t182.5 -80.5q92 0 157.5 48.5t65.5 138.5v57
h-219v58zM395 -64q26 0 40 -18.5t14 -47.5q0 -87 -90 -140l-19 24q57 43 68 81q-7 -2 -17 -2q-23 0 -36 15.5t-13 35.5q0 23 15 37.5t38 14.5z" />
    <glyph glyph-name="uni1E20.ss01" horiz-adv-x="780" 
d="M255 832h283v-37h-283v37zM397 356h287v-356h-55l-9 87h-6q-88 -97 -226 -97q-144 0 -229.5 97.5t-85.5 252.5q0 160 92.5 265t241.5 105q109 0 182.5 -55.5t91.5 -145.5h-73q-19 62 -71 99t-130 37q-118 0 -191 -85.5t-73 -218.5q0 -126 67.5 -206.5t182.5 -80.5
q92 0 157.5 48.5t65.5 138.5v57h-219v58z" />
    <glyph glyph-name="Hbar.ss01" horiz-adv-x="696" 
d="M531 700h69v-700h-69v322h-366v-322h-69v700h69v-139h366v139zM165 385h366v137h-366v-137z" />
    <glyph glyph-name="uni021E.ss01" horiz-adv-x="696" 
d="M419 900h50l-98 -132h-47l-99 132h50l71 -95h3zM531 700h69v-700h-69v322h-366v-322h-69v700h69v-315h366v315z" />
    <glyph glyph-name="uni1E28.ss01" horiz-adv-x="696" 
d="M531 700h69v-700h-69v322h-366v-322h-13l-34 -45q37 3 68 -19.5t31 -64.5q0 -37 -25 -59t-70 -22q-38 0 -64 18l14 29q24 -14 48 -14q27 0 43.5 14t16.5 37q0 52 -65 52q-18 0 -38 -9l-18 16l51 67h-14v700h69v-315h366v315z" />
    <glyph glyph-name="Hcircumflex.ss01" horiz-adv-x="696" 
d="M276 768h-51l98 132h47l100 -132h-51l-71 95h-3zM531 700h69v-700h-69v322h-366v-322h-69v700h69v-315h366v315z" />
    <glyph glyph-name="Iacute.ss01" horiz-adv-x="262" 
d="M171 900h46l-65 -145h-42zM165 700v-700h-69v700h69z" />
    <glyph glyph-name="Ibreve.ss01" horiz-adv-x="262" 
d="M246 900q0 -46 -30 -84.5t-86 -38.5t-87 38.5t-31 84.5h43q0 -38 20.5 -62t54.5 -24q33 0 53 23.5t20 62.5h43zM165 700v-700h-69v700h69z" />
    <glyph glyph-name="uni01CF.ss01" horiz-adv-x="262" 
d="M203 900h50l-98 -132h-47l-99 132h50l71 -95h3zM165 700v-700h-69v700h69z" />
    <glyph glyph-name="Icircumflex.ss01" horiz-adv-x="262" 
d="M59 768h-51l98 132h47l100 -132h-51l-71 95h-3zM165 700v-700h-69v700h69z" />
    <glyph glyph-name="Igrave.ss01" horiz-adv-x="262" 
d="M91 900l61 -145h-42l-65 145h46zM165 700v-700h-69v700h69z" />
    <glyph glyph-name="Imacron.ss01" horiz-adv-x="262" 
d="M-10 832h283v-37h-283v37zM165 700v-700h-69v700h69z" />
    <glyph glyph-name="Iogonek.ss01" horiz-adv-x="262" 
d="M151 -129q21 0 43 6v-38q-15 -6 -44 -6q-44 0 -73 20.5t-29 63.5q0 52 66 83h-18v700h69v-700q-74 -29 -74 -82q0 -47 60 -47z" />
    <glyph glyph-name="Itilde.ss01" horiz-adv-x="262" 
d="M284 855q-3 -40 -25.5 -68.5t-60.5 -28.5q-30 0 -52.5 17t-40.5 33.5t-37 16.5q-44 0 -51 -60h-39q5 41 27 69t60 28q31 0 53 -16.5t39.5 -33t37.5 -16.5q44 0 52 59h37zM165 700v-700h-69v700h69z" />
    <glyph glyph-name="Jcircumflex.ss01" horiz-adv-x="533" 
d="M331 768h-51l98 132h47l100 -132h-51l-71 95h-3zM116 195q2 -60 35.5 -100t90.5 -40t91.5 38.5t34.5 116.5v490h69v-495q0 -104 -54 -159.5t-141 -55.5q-92 0 -143 56t-55 149h72z" />
    <glyph glyph-name="uni0136.ss01" horiz-adv-x="608" 
d="M496 0l-275 327h-56v-327h-69v700h69v-309h56l251 309h83l-273 -338v-4l298 -358h-84zM330 -64q26 0 40 -18.5t14 -47.5q0 -87 -90 -140l-19 24q57 43 68 81q-7 -2 -17 -2q-23 0 -36 15.5t-13 35.5q0 23 15 37.5t38 14.5z" />
    <glyph glyph-name="Lacute.ss01" horiz-adv-x="573" 
d="M169 900h46l-65 -145h-42zM164 64h365v-64h-433v700h68v-636z" />
    <glyph glyph-name="Lcaron.ss01" horiz-adv-x="573" 
d="M327 710q25 0 39 -18.5t14 -47.5q0 -88 -88 -143l-18 24q54 42 66 84q-7 -2 -16 -2q-23 0 -35.5 15.5t-12.5 35.5q0 23 14.5 37.5t36.5 14.5zM164 64h365v-64h-433v700h68v-636z" />
    <glyph glyph-name="uni013B.ss01" horiz-adv-x="573" 
d="M164 64h365v-64h-433v700h68v-636zM310 -64q26 0 40 -18.5t14 -47.5q0 -87 -90 -140l-19 24q57 43 68 81q-7 -2 -17 -2q-23 0 -36 15.5t-13 35.5q0 23 15 37.5t38 14.5z" />
    <glyph glyph-name="Lslash.ss01" horiz-adv-x="573" 
d="M164 64h365v-64h-433v287l-120 -62v47l120 62v366h68v-331l179 93v-47l-179 -93v-258z" />
    <glyph glyph-name="Nacute.ss01" horiz-adv-x="742" 
d="M411 900h46l-65 -145h-42zM577 700h69v-700h-79l-397 586h-6v-586h-68v700h80l395 -585h6v585z" />
    <glyph glyph-name="Ncaron.ss01" horiz-adv-x="742" 
d="M443 900h50l-98 -132h-47l-99 132h50l71 -95h3zM577 700h69v-700h-79l-397 586h-6v-586h-68v700h80l395 -585h6v585z" />
    <glyph glyph-name="uni0145.ss01" horiz-adv-x="742" 
d="M577 700h69v-700h-79l-397 586h-6v-586h-68v700h80l395 -585h6v585zM370 -64q26 0 40 -18.5t14 -47.5q0 -87 -90 -140l-19 24q57 43 68 81q-7 -2 -17 -2q-23 0 -36 15.5t-13 35.5q0 23 15 37.5t38 14.5z" />
    <glyph glyph-name="uni01F8.ss01" horiz-adv-x="742" 
d="M331 900l61 -145h-42l-65 145h46zM577 700h69v-700h-79l-397 586h-6v-586h-68v700h80l395 -585h6v585z" />
    <glyph glyph-name="Ntilde.ss01" horiz-adv-x="742" 
d="M524 855q-3 -40 -25.5 -68.5t-60.5 -28.5q-30 0 -52.5 17t-40.5 33.5t-37 16.5q-44 0 -51 -60h-39q5 41 27 69t60 28q31 0 53 -16.5t39.5 -33t37.5 -16.5q44 0 52 59h37zM577 700h69v-700h-79l-397 586h-6v-586h-68v700h80l395 -585h6v585z" />
    <glyph glyph-name="Oacute.ss01" horiz-adv-x="820" 
d="M450 900h46l-65 -145h-42zM410 -10q-145 0 -241 102.5t-96 257.5t96 257.5t241 102.5q144 0 240.5 -102.5t96.5 -257.5q0 -154 -96.5 -257t-240.5 -103zM410 55q115 0 191 84.5t76 210.5t-76.5 210.5t-190.5 84.5t-190.5 -84.5t-76.5 -210.5t76.5 -210.5t190.5 -84.5z
" />
    <glyph glyph-name="Obreve.ss01" horiz-adv-x="820" 
d="M526 900q0 -46 -30 -84.5t-86 -38.5t-87 38.5t-31 84.5h43q0 -38 20.5 -62t54.5 -24q33 0 53 23.5t20 62.5h43zM410 -10q-145 0 -241 102.5t-96 257.5t96 257.5t241 102.5q144 0 240.5 -102.5t96.5 -257.5q0 -154 -96.5 -257t-240.5 -103zM410 55q115 0 191 84.5
t76 210.5t-76.5 210.5t-190.5 84.5t-190.5 -84.5t-76.5 -210.5t76.5 -210.5t190.5 -84.5z" />
    <glyph glyph-name="uni01D1.ss01" horiz-adv-x="820" 
d="M482 900h50l-98 -132h-47l-99 132h50l71 -95h3zM410 -10q-145 0 -241 102.5t-96 257.5t96 257.5t241 102.5q144 0 240.5 -102.5t96.5 -257.5q0 -154 -96.5 -257t-240.5 -103zM410 55q115 0 191 84.5t76 210.5t-76.5 210.5t-190.5 84.5t-190.5 -84.5t-76.5 -210.5
t76.5 -210.5t190.5 -84.5z" />
    <glyph glyph-name="Ocircumflex.ss01" horiz-adv-x="820" 
d="M339 768h-51l98 132h47l100 -132h-51l-71 95h-3zM410 -10q-145 0 -241 102.5t-96 257.5t96 257.5t241 102.5q144 0 240.5 -102.5t96.5 -257.5q0 -154 -96.5 -257t-240.5 -103zM410 55q115 0 191 84.5t76 210.5t-76.5 210.5t-190.5 84.5t-190.5 -84.5t-76.5 -210.5
t76.5 -210.5t190.5 -84.5z" />
    <glyph glyph-name="Ograve.ss01" horiz-adv-x="820" 
d="M370 900l61 -145h-42l-65 145h46zM410 -10q-145 0 -241 102.5t-96 257.5t96 257.5t241 102.5q144 0 240.5 -102.5t96.5 -257.5q0 -154 -96.5 -257t-240.5 -103zM410 55q115 0 191 84.5t76 210.5t-76.5 210.5t-190.5 84.5t-190.5 -84.5t-76.5 -210.5t76.5 -210.5
t190.5 -84.5z" />
    <glyph glyph-name="Ohungarumlaut.ss01" horiz-adv-x="820" 
d="M381 900h46l-61 -145h-42zM512 900h46l-62 -145h-41zM410 -10q-145 0 -241 102.5t-96 257.5t96 257.5t241 102.5q144 0 240.5 -102.5t96.5 -257.5q0 -154 -96.5 -257t-240.5 -103zM410 55q115 0 191 84.5t76 210.5t-76.5 210.5t-190.5 84.5t-190.5 -84.5t-76.5 -210.5
t76.5 -210.5t190.5 -84.5z" />
    <glyph glyph-name="Omacron.ss01" horiz-adv-x="820" 
d="M269 832h283v-37h-283v37zM410 -10q-145 0 -241 102.5t-96 257.5t96 257.5t241 102.5q144 0 240.5 -102.5t96.5 -257.5q0 -154 -96.5 -257t-240.5 -103zM410 55q115 0 191 84.5t76 210.5t-76.5 210.5t-190.5 84.5t-190.5 -84.5t-76.5 -210.5t76.5 -210.5t190.5 -84.5z
" />
    <glyph glyph-name="uni01EA.ss01" horiz-adv-x="820" 
d="M488 -1q-71 -29 -71 -81q0 -47 60 -47q20 0 43 6v-38q-15 -6 -44 -6q-44 0 -73 20.5t-29 63.5q0 46 47 73h-11q-145 0 -241 102.5t-96 257.5t96 257.5t241 102.5q144 0 240.5 -102.5t96.5 -257.5q0 -132 -72 -228t-187 -123zM143 350q0 -126 76.5 -210.5t190.5 -84.5
q115 0 191 84.5t76 210.5t-76.5 210.5t-190.5 84.5t-190.5 -84.5t-76.5 -210.5z" />
    <glyph glyph-name="Oslash.ss01" horiz-adv-x="820" 
d="M632 626q115 -105 115 -276q0 -154 -96.5 -257t-240.5 -103q-107 0 -191 59l-62 -87l-33 23l64 89q-115 104 -115 276q0 155 96 257.5t241 102.5q106 0 189 -58l61 85l35 -23zM143 350q0 -134 85 -219l332 466q-67 48 -150 48q-114 0 -190.5 -84.5t-76.5 -210.5zM410 55
q115 0 191 84.5t76 210.5q0 135 -85 220l-333 -466q66 -49 151 -49z" />
    <glyph glyph-name="Oslashacute.ss01" horiz-adv-x="820" 
d="M496 900l-65 -145h-42l61 145h46zM632 626q115 -105 115 -276q0 -154 -96.5 -257t-240.5 -103q-107 0 -191 59l-62 -87l-33 23l64 89q-115 104 -115 276q0 155 96 257.5t241 102.5q106 0 189 -58l61 85l35 -23zM143 350q0 -134 85 -219l332 466q-67 48 -150 48
q-114 0 -190.5 -84.5t-76.5 -210.5zM410 55q115 0 191 84.5t76 210.5q0 135 -85 220l-333 -466q66 -49 151 -49z" />
    <glyph glyph-name="Otilde.ss01" horiz-adv-x="820" 
d="M563 855q-3 -40 -25.5 -68.5t-60.5 -28.5q-30 0 -52.5 17t-40.5 33.5t-37 16.5q-43 0 -51 -60h-39q5 41 27 69t60 28q31 0 53 -16.5t39.5 -33t37.5 -16.5q44 0 52 59h37zM410 -10q-145 0 -241 102.5t-96 257.5t96 257.5t241 102.5q144 0 240.5 -102.5t96.5 -257.5
q0 -154 -96.5 -257t-240.5 -103zM410 55q115 0 191 84.5t76 210.5t-76.5 210.5t-190.5 84.5t-190.5 -84.5t-76.5 -210.5t76.5 -210.5t190.5 -84.5z" />
    <glyph glyph-name="Racute.ss01" horiz-adv-x="619" 
d="M404 900l-65 -145h-42l61 145h46zM576 0h-79l-185 305h-148v-305h-68v700h233q98 0 155.5 -52.5t57.5 -141.5q0 -76 -42.5 -125.5t-117.5 -64.5zM164 638v-272h154q72 0 113.5 38t41.5 100q0 64 -41.5 99t-113.5 35h-154z" />
    <glyph glyph-name="Rcaron.ss01" horiz-adv-x="619" 
d="M342 768h-47l-99 132h50l71 -95h3l70 95h50zM576 0h-79l-185 305h-148v-305h-68v700h233q98 0 155.5 -52.5t57.5 -141.5q0 -76 -42.5 -125.5t-117.5 -64.5zM164 638v-272h154q72 0 113.5 38t41.5 100q0 64 -41.5 99t-113.5 35h-154z" />
    <glyph glyph-name="uni0156.ss01" horiz-adv-x="619" 
d="M382 316l194 -316h-79l-185 305h-148v-305h-68v700h233q98 0 155.5 -52.5t57.5 -141.5q0 -76 -42.5 -125.5t-117.5 -64.5zM164 638v-272h154q72 0 113.5 38t41.5 100q0 64 -41.5 99t-113.5 35h-154zM329 -64q26 0 40 -18.5t14 -47.5q0 -87 -90 -140l-19 24q57 43 68 81
q-7 -2 -17 -2q-23 0 -36 15.5t-13 35.5q0 23 15 37.5t38 14.5z" />
    <glyph glyph-name="Sacute.ss01" horiz-adv-x="605" 
d="M351 900h46l-65 -145h-42zM528 178q0 -92 -62 -140t-158 -48q-104 0 -165.5 52.5t-69.5 150.5h69q20 -141 166 -141q66 0 107.5 31t41.5 93q0 35 -13 61t-39 43.5t-46.5 26.5t-52.5 19l-36 11q-35 12 -58.5 22.5t-54.5 31.5t-47 54t-16 76q0 85 61.5 137t154.5 52
q95 0 155 -54.5t65 -139.5h-69q-6 58 -44.5 95t-105.5 37q-65 0 -106 -35t-41 -90q0 -30 12.5 -53t39.5 -38.5t44 -22.5t51 -18l31 -9q26 -8 43 -14.5t47 -24t48.5 -37t33 -53.5t14.5 -75z" />
    <glyph glyph-name="Scaron.ss01" horiz-adv-x="605" 
d="M383 900h50l-98 -132h-47l-99 132h50l71 -95h3zM528 178q0 -92 -62 -140t-158 -48q-104 0 -165.5 52.5t-69.5 150.5h69q20 -141 166 -141q66 0 107.5 31t41.5 93q0 35 -13 61t-39 43.5t-46.5 26.5t-52.5 19l-36 11q-35 12 -58.5 22.5t-54.5 31.5t-47 54t-16 76
q0 85 61.5 137t154.5 52q95 0 155 -54.5t65 -139.5h-69q-6 58 -44.5 95t-105.5 37q-65 0 -106 -35t-41 -90q0 -30 12.5 -53t39.5 -38.5t44 -22.5t51 -18l31 -9q26 -8 43 -14.5t47 -24t48.5 -37t33 -53.5t14.5 -75z" />
    <glyph glyph-name="Scedilla.ss01" horiz-adv-x="605" 
d="M342 382q26 -8 43 -14.5t47 -24t48.5 -37t33 -53.5t14.5 -75q0 -88 -56.5 -135.5t-146.5 -52.5l-27 -35q37 3 68 -19.5t31 -64.5q0 -37 -25 -59t-70 -22q-38 0 -64 18l14 29q24 -14 48 -14q27 0 43.5 14t16.5 37q0 52 -65 52q-18 0 -38 -9l-18 16l44 58q-93 6 -148 58
t-62 144h69q20 -141 166 -141q66 0 107.5 31t41.5 93q0 35 -13 61t-39 43.5t-46.5 26.5t-52.5 19l-36 11q-35 12 -58.5 22.5t-54.5 31.5t-47 54t-16 76q0 85 61.5 137t154.5 52q95 0 155 -54.5t65 -139.5h-69q-6 58 -44.5 95t-105.5 37q-65 0 -106 -35t-41 -90
q0 -30 12.5 -53t39.5 -38.5t44 -22.5t51 -18z" />
    <glyph glyph-name="Scircumflex.ss01" horiz-adv-x="605" 
d="M239 768h-51l98 132h47l100 -132h-51l-71 95h-3zM528 178q0 -92 -62 -140t-158 -48q-104 0 -165.5 52.5t-69.5 150.5h69q20 -141 166 -141q66 0 107.5 31t41.5 93q0 35 -13 61t-39 43.5t-46.5 26.5t-52.5 19l-36 11q-35 12 -58.5 22.5t-54.5 31.5t-47 54t-16 76
q0 85 61.5 137t154.5 52q95 0 155 -54.5t65 -139.5h-69q-6 58 -44.5 95t-105.5 37q-65 0 -106 -35t-41 -90q0 -30 12.5 -53t39.5 -38.5t44 -22.5t51 -18l31 -9q26 -8 43 -14.5t47 -24t48.5 -37t33 -53.5t14.5 -75z" />
    <glyph glyph-name="uni0218.ss01" horiz-adv-x="605" 
d="M528 178q0 -92 -62 -140t-158 -48q-104 0 -165.5 52.5t-69.5 150.5h69q20 -141 166 -141q66 0 107.5 31t41.5 93q0 35 -13 61t-39 43.5t-46.5 26.5t-52.5 19l-36 11q-35 12 -58.5 22.5t-54.5 31.5t-47 54t-16 76q0 85 61.5 137t154.5 52q95 0 155 -54.5t65 -139.5h-69
q-6 58 -44.5 95t-105.5 37q-65 0 -106 -35t-41 -90q0 -30 12.5 -53t39.5 -38.5t44 -22.5t51 -18l31 -9q26 -8 43 -14.5t47 -24t48.5 -37t33 -53.5t14.5 -75zM309 -64q26 0 40 -18.5t14 -47.5q0 -87 -90 -140l-19 24q57 43 68 81q-7 -2 -17 -2q-23 0 -36 15.5t-13 35.5
q0 23 15 37.5t38 14.5z" />
    <glyph glyph-name="Tbar.ss01" horiz-adv-x="568" 
d="M524 636h-205v-266h148v-38h-148v-332h-69v332h-149v38h149v266h-206v64h480v-64z" />
    <glyph glyph-name="Tcaron.ss01" horiz-adv-x="568" 
d="M308 768h-47l-99 132h50l71 -95h3l70 95h50zM524 700v-64h-205v-636h-69v636h-206v64h480z" />
    <glyph glyph-name="uni0162.ss01" horiz-adv-x="568" 
d="M319 0h-13l-34 -45q37 3 68 -19.5t31 -64.5q0 -37 -25 -59t-70 -22q-38 0 -64 18l14 29q24 -14 48 -14q27 0 43.5 14t16.5 37q0 52 -65 52q-18 0 -38 -9l-18 16l51 67h-14v636h-206v64h480v-64h-205v-636z" />
    <glyph glyph-name="uni021A.ss01" horiz-adv-x="568" 
d="M44 700h480v-64h-205v-636h-69v636h-206v64zM283 -64q26 0 40 -18.5t14 -47.5q0 -87 -90 -140l-19 24q57 43 68 81q-7 -2 -17 -2q-23 0 -36 15.5t-13 35.5q0 23 15 37.5t38 14.5z" />
    <glyph glyph-name="Uacute.ss01" horiz-adv-x="718" 
d="M399 900h46l-65 -145h-42zM622 700v-442q0 -129 -71.5 -198.5t-190.5 -69.5q-118 0 -191 70t-73 198v442h69v-434q0 -104 54 -157.5t142 -53.5q86 0 138.5 53.5t52.5 157.5v434h70z" />
    <glyph glyph-name="Ubreve.ss01" horiz-adv-x="718" 
d="M475 900q0 -46 -30 -84.5t-86 -38.5t-87 38.5t-31 84.5h43q0 -38 20.5 -62t54.5 -24q33 0 53 23.5t20 62.5h43zM622 700v-442q0 -129 -71.5 -198.5t-190.5 -69.5q-118 0 -191 70t-73 198v442h69v-434q0 -104 54 -157.5t142 -53.5q86 0 138.5 53.5t52.5 157.5v434h70z" />
    <glyph glyph-name="uni01D3.ss01" horiz-adv-x="718" 
d="M431 900h50l-98 -132h-47l-99 132h50l71 -95h3zM622 700v-442q0 -129 -71.5 -198.5t-190.5 -69.5q-118 0 -191 70t-73 198v442h69v-434q0 -104 54 -157.5t142 -53.5q86 0 138.5 53.5t52.5 157.5v434h70z" />
    <glyph glyph-name="Ucircumflex.ss01" horiz-adv-x="718" 
d="M288 768h-51l98 132h47l100 -132h-51l-71 95h-3zM622 700v-442q0 -129 -71.5 -198.5t-190.5 -69.5q-118 0 -191 70t-73 198v442h69v-434q0 -104 54 -157.5t142 -53.5q86 0 138.5 53.5t52.5 157.5v434h70z" />
    <glyph glyph-name="Ugrave.ss01" horiz-adv-x="718" 
d="M319 900l61 -145h-42l-65 145h46zM622 700v-442q0 -129 -71.5 -198.5t-190.5 -69.5q-118 0 -191 70t-73 198v442h69v-434q0 -104 54 -157.5t142 -53.5q86 0 138.5 53.5t52.5 157.5v434h70z" />
    <glyph glyph-name="Uhungarumlaut.ss01" horiz-adv-x="718" 
d="M330 900h46l-61 -145h-42zM461 900h46l-62 -145h-41zM622 700v-442q0 -129 -71.5 -198.5t-190.5 -69.5q-118 0 -191 70t-73 198v442h69v-434q0 -104 54 -157.5t142 -53.5q86 0 138.5 53.5t52.5 157.5v434h70z" />
    <glyph glyph-name="Umacron.ss01" horiz-adv-x="718" 
d="M218 832h283v-37h-283v37zM622 700v-442q0 -129 -71.5 -198.5t-190.5 -69.5q-118 0 -191 70t-73 198v442h69v-434q0 -104 54 -157.5t142 -53.5q86 0 138.5 53.5t52.5 157.5v434h70z" />
    <glyph glyph-name="Uogonek.ss01" horiz-adv-x="718" 
d="M552 700h70v-442q0 -105 -49 -171.5t-135 -87.5q-71 -29 -71 -81q0 -47 60 -47q21 0 43 6v-38q-15 -6 -44 -6q-44 0 -73 20.5t-29 63.5q0 46 47 73h-11q-118 0 -191 70t-73 198v442h69v-434q0 -104 54 -157.5t142 -53.5q86 0 138.5 53.5t52.5 157.5v434z" />
    <glyph glyph-name="Uring.ss01" horiz-adv-x="718" 
d="M360 750q-37 0 -64.5 26.5t-27.5 63.5q0 38 27.5 64t64.5 26t63.5 -26t26.5 -64q0 -37 -26.5 -63.5t-63.5 -26.5zM360 784q22 0 37.5 16t15.5 40q0 23 -15.5 39t-37.5 16q-23 0 -38.5 -16t-15.5 -39q0 -24 15.5 -40t38.5 -16zM622 700v-442q0 -129 -71.5 -198.5
t-190.5 -69.5q-118 0 -191 70t-73 198v442h69v-434q0 -104 54 -157.5t142 -53.5q86 0 138.5 53.5t52.5 157.5v434h70z" />
    <glyph glyph-name="Utilde.ss01" horiz-adv-x="718" 
d="M512 855q-3 -40 -25.5 -68.5t-60.5 -28.5q-30 0 -52.5 17t-40.5 33.5t-37 16.5q-44 0 -51 -60h-39q5 41 27 69t60 28q31 0 53 -16.5t39.5 -33t37.5 -16.5q44 0 52 59h37zM622 700v-442q0 -129 -71.5 -198.5t-190.5 -69.5q-118 0 -191 70t-73 198v442h69v-434
q0 -104 54 -157.5t142 -53.5q86 0 138.5 53.5t52.5 157.5v434h70z" />
    <glyph glyph-name="uni1E7C.ss01" horiz-adv-x="646" 
d="M476 855q-3 -40 -25.5 -68.5t-60.5 -28.5q-30 0 -52.5 17t-40.5 33.5t-37 16.5q-44 0 -51 -60h-39q5 41 27 69t60 28q31 0 53 -16.5t39.5 -33t37.5 -16.5q44 0 52 59h37zM542 700h75l-251 -700h-87l-250 700h75l216 -610h6z" />
    <glyph glyph-name="Wacute.ss01" horiz-adv-x="879" 
d="M480 900h46l-65 -145h-42zM783 700h67l-158 -700h-84l-166 559h-6l-165 -559h-84l-158 700h69l131 -605h6l164 553h82l161 -553h6z" />
    <glyph glyph-name="Wcircumflex.ss01" horiz-adv-x="879" 
d="M368 768h-51l98 132h47l100 -132h-51l-71 95h-3zM783 700h67l-158 -700h-84l-166 559h-6l-165 -559h-84l-158 700h69l131 -605h6l164 553h82l161 -553h6z" />
    <glyph glyph-name="Wgrave.ss01" horiz-adv-x="879" 
d="M400 900l61 -145h-42l-65 145h46zM783 700h67l-158 -700h-84l-166 559h-6l-165 -559h-84l-158 700h69l131 -605h6l164 553h82l161 -553h6z" />
    <glyph glyph-name="Yacute.ss01" horiz-adv-x="631" 
d="M356 900h46l-65 -145h-42zM517 700h85l-251 -358v-342h-70v342l-252 358h85l199 -282h6z" />
    <glyph glyph-name="Ycircumflex.ss01" horiz-adv-x="631" 
d="M245 768h-51l98 132h47l100 -132h-51l-71 95h-3zM517 700h85l-251 -358v-342h-70v342l-252 358h85l199 -282h6z" />
    <glyph glyph-name="Ygrave.ss01" horiz-adv-x="631" 
d="M276 900l61 -145h-42l-65 145h46zM517 700h85l-251 -358v-342h-70v342l-252 358h85l199 -282h6z" />
    <glyph glyph-name="uni0232.ss01" horiz-adv-x="631" 
d="M175 832h283v-37h-283v37zM517 700h85l-251 -358v-342h-70v342l-252 358h85l199 -282h6z" />
    <glyph glyph-name="uni1EF8.ss01" horiz-adv-x="631" 
d="M469 855q-3 -40 -25.5 -68.5t-60.5 -28.5q-30 0 -52.5 17t-40.5 33.5t-37 16.5q-43 0 -51 -60h-39q5 41 27 69t60 28q31 0 53 -16.5t39.5 -33t37.5 -16.5q44 0 52 59h37zM517 700h85l-251 -358v-342h-70v342l-252 358h85l199 -282h6z" />
    <glyph glyph-name="Zacute.ss01" horiz-adv-x="612" 
d="M356 900h46l-65 -145h-42zM175 64h360v-64h-462v38l364 594v4h-341v64h440v-38l-361 -594v-4z" />
    <glyph glyph-name="Zcaron.ss01" horiz-adv-x="612" 
d="M388 900h50l-98 -132h-47l-99 132h50l71 -95h3zM175 64h360v-64h-462v38l364 594v4h-341v64h440v-38l-361 -594v-4z" />
    <glyph glyph-name="uni1E90.ss01" horiz-adv-x="612" 
d="M244 768h-51l98 132h47l100 -132h-51l-71 95h-3zM175 64h360v-64h-462v38l364 594v4h-341v64h440v-38l-361 -594v-4z" />
    <glyph glyph-name="i.loclTRK" horiz-adv-x="220" 
d="M111 588q-20 0 -34.5 14t-14.5 34q0 19 14.5 33t34.5 14q19 0 33 -13.5t14 -33.5t-13.5 -34t-33.5 -14zM77 0v500h67v-500h-67z" />
    <glyph glyph-name="a.fina" horiz-adv-x="520" 
d="M483 47q16 0 38 9v-51q-28 -10 -53 -10q-36 0 -62 18.5t-32 54.5q-55 -78 -168 -78q-71 0 -115.5 35.5t-44.5 105.5q0 68 47.5 107t126.5 46l146 14v33q0 56 -29.5 89t-86.5 33q-98 0 -117 -105h-67q8 72 56.5 117t127.5 45q84 0 133.5 -47t49.5 -130v-230q0 -56 50 -56z
M366 191v55l-128 -12q-57 -5 -91 -31t-34 -71q0 -44 28 -65t72 -21q62 0 107.5 36t45.5 109z" />
    <glyph glyph-name="aacute.fina" horiz-adv-x="520" 
d="M347 700l-72 -145h-56l66 145h62zM483 47q16 0 38 9v-51q-28 -10 -53 -10q-36 0 -62 18.5t-32 54.5q-55 -78 -168 -78q-71 0 -115.5 35.5t-44.5 105.5q0 68 47.5 107t126.5 46l146 14v33q0 56 -29.5 89t-86.5 33q-98 0 -117 -105h-67q8 72 56.5 117t127.5 45
q84 0 133.5 -47t49.5 -130v-230q0 -56 50 -56zM366 191v55l-128 -12q-57 -5 -91 -31t-34 -71q0 -44 28 -65t72 -21q62 0 107.5 36t45.5 109z" />
    <glyph glyph-name="abreve.fina" horiz-adv-x="520" 
d="M246 574q-57 0 -91 38.5t-34 87.5h57q0 -35 18.5 -56.5t49.5 -21.5t49 21.5t18 56.5h57q0 -49 -33.5 -87.5t-90.5 -38.5zM483 47q16 0 38 9v-51q-28 -10 -53 -10q-36 0 -62 18.5t-32 54.5q-55 -78 -168 -78q-71 0 -115.5 35.5t-44.5 105.5q0 68 47.5 107t126.5 46l146 14
v33q0 56 -29.5 89t-86.5 33q-98 0 -117 -105h-67q8 72 56.5 117t127.5 45q84 0 133.5 -47t49.5 -130v-230q0 -56 50 -56zM366 191v55l-128 -12q-57 -5 -91 -31t-34 -71q0 -44 28 -65t72 -21q62 0 107.5 36t45.5 109z" />
    <glyph glyph-name="uni01CE.fina" horiz-adv-x="520" 
d="M279 563h-63l-99 137h65l63 -91h5l62 91h65zM483 47q16 0 38 9v-51q-28 -10 -53 -10q-36 0 -62 18.5t-32 54.5q-55 -78 -168 -78q-71 0 -115.5 35.5t-44.5 105.5q0 68 47.5 107t126.5 46l146 14v33q0 56 -29.5 89t-86.5 33q-98 0 -117 -105h-67q8 72 56.5 117t127.5 45
q84 0 133.5 -47t49.5 -130v-230q0 -56 50 -56zM366 191v55l-128 -12q-57 -5 -91 -31t-34 -71q0 -44 28 -65t72 -21q62 0 107.5 36t45.5 109z" />
    <glyph glyph-name="acircumflex.fina" horiz-adv-x="520" 
d="M245 653l-62 -90h-65l97 137h64l98 -137h-65l-63 90h-4zM483 47q16 0 38 9v-51q-28 -10 -53 -10q-36 0 -62 18.5t-32 54.5q-55 -78 -168 -78q-71 0 -115.5 35.5t-44.5 105.5q0 68 47.5 107t126.5 46l146 14v33q0 56 -29.5 89t-86.5 33q-98 0 -117 -105h-67q8 72 56.5 117
t127.5 45q84 0 133.5 -47t49.5 -130v-230q0 -56 50 -56zM366 191v55l-128 -12q-57 -5 -91 -31t-34 -71q0 -44 28 -65t72 -21q62 0 107.5 36t45.5 109z" />
    <glyph glyph-name="adieresis.fina" horiz-adv-x="520" 
d="M160 565q-19 0 -33 14t-14 33t14 33t33 14q20 0 33.5 -13.5t13.5 -33.5q0 -19 -14 -33t-33 -14zM335 565q-19 0 -32.5 14t-13.5 33t13.5 33t32.5 14t33 -13.5t14 -33.5q0 -19 -14 -33t-33 -14zM483 47q16 0 38 9v-51q-28 -10 -53 -10q-36 0 -62 18.5t-32 54.5
q-55 -78 -168 -78q-71 0 -115.5 35.5t-44.5 105.5q0 68 47.5 107t126.5 46l146 14v33q0 56 -29.5 89t-86.5 33q-98 0 -117 -105h-67q8 72 56.5 117t127.5 45q84 0 133.5 -47t49.5 -130v-230q0 -56 50 -56zM366 191v55l-128 -12q-57 -5 -91 -31t-34 -71q0 -44 28 -65t72 -21
q62 0 107.5 36t45.5 109z" />
    <glyph glyph-name="uni0227.fina" horiz-adv-x="520" 
d="M248 588q-20 0 -34.5 14t-14.5 34q0 19 14.5 33t34.5 14t33.5 -13.5t13.5 -33.5t-13.5 -34t-33.5 -14zM483 47q16 0 38 9v-51q-28 -10 -53 -10q-36 0 -62 18.5t-32 54.5q-55 -78 -168 -78q-71 0 -115.5 35.5t-44.5 105.5q0 68 47.5 107t126.5 46l146 14v33q0 56 -29.5 89
t-86.5 33q-98 0 -117 -105h-67q8 72 56.5 117t127.5 45q84 0 133.5 -47t49.5 -130v-230q0 -56 50 -56zM366 191v55l-128 -12q-57 -5 -91 -31t-34 -71q0 -44 28 -65t72 -21q62 0 107.5 36t45.5 109z" />
    <glyph glyph-name="uni1EA1.fina" horiz-adv-x="520" 
d="M483 47q16 0 38 9v-51q-28 -10 -53 -10q-36 0 -62 18.5t-32 54.5q-55 -78 -168 -78q-71 0 -115.5 35.5t-44.5 105.5q0 68 47.5 107t126.5 46l146 14v33q0 56 -29.5 89t-86.5 33q-98 0 -117 -105h-67q8 72 56.5 117t127.5 45q84 0 133.5 -47t49.5 -130v-230q0 -56 50 -56z
M366 191v55l-128 -12q-57 -5 -91 -31t-34 -71q0 -44 28 -65t72 -21q62 0 107.5 36t45.5 109zM256 -88q20 0 33.5 -14t13.5 -33q0 -20 -13.5 -34t-33.5 -14t-34.5 14t-14.5 34q0 19 14.5 33t34.5 14z" />
    <glyph glyph-name="agrave.fina" horiz-adv-x="520" 
d="M275 555h-56l-72 145h63zM483 47q16 0 38 9v-51q-28 -10 -53 -10q-36 0 -62 18.5t-32 54.5q-55 -78 -168 -78q-71 0 -115.5 35.5t-44.5 105.5q0 68 47.5 107t126.5 46l146 14v33q0 56 -29.5 89t-86.5 33q-98 0 -117 -105h-67q8 72 56.5 117t127.5 45q84 0 133.5 -47
t49.5 -130v-230q0 -56 50 -56zM366 191v55l-128 -12q-57 -5 -91 -31t-34 -71q0 -44 28 -65t72 -21q62 0 107.5 36t45.5 109z" />
    <glyph glyph-name="amacron.fina" horiz-adv-x="520" 
d="M390 639v-51h-285v51h285zM483 47q16 0 38 9v-51q-28 -10 -53 -10q-36 0 -62 18.5t-32 54.5q-55 -78 -168 -78q-71 0 -115.5 35.5t-44.5 105.5q0 68 47.5 107t126.5 46l146 14v33q0 56 -29.5 89t-86.5 33q-98 0 -117 -105h-67q8 72 56.5 117t127.5 45q84 0 133.5 -47
t49.5 -130v-230q0 -56 50 -56zM366 191v55l-128 -12q-57 -5 -91 -31t-34 -71q0 -44 28 -65t72 -21q62 0 107.5 36t45.5 109z" />
    <glyph glyph-name="aring.fina" horiz-adv-x="520" 
d="M248 545q-39 0 -67 27.5t-28 65.5t28 65t67 27q38 0 65.5 -27.5t27.5 -64.5q0 -38 -27.5 -65.5t-65.5 -27.5zM248 686q-21 0 -35 -14t-14 -34q0 -21 14 -35.5t35 -14.5q20 0 33.5 14.5t13.5 35.5q0 20 -14 34t-33 14zM483 47q16 0 38 9v-51q-28 -10 -53 -10
q-36 0 -62 18.5t-32 54.5q-55 -78 -168 -78q-71 0 -115.5 35.5t-44.5 105.5q0 68 47.5 107t126.5 46l146 14v33q0 56 -29.5 89t-86.5 33q-98 0 -117 -105h-67q8 72 56.5 117t127.5 45q84 0 133.5 -47t49.5 -130v-230q0 -56 50 -56zM366 191v55l-128 -12q-57 -5 -91 -31
t-34 -71q0 -44 28 -65t72 -21q62 0 107.5 36t45.5 109z" />
    <glyph glyph-name="atilde.fina" horiz-adv-x="520" 
d="M184 618q-42 0 -48 -57h-51q5 47 28.5 77.5t65.5 30.5q32 0 55 -16.5t40.5 -32.5t36.5 -16q41 0 49 57h50q-3 -45 -27.5 -76t-65.5 -31q-31 0 -54.5 16t-41.5 32t-37 16zM483 47q16 0 38 9v-51q-28 -10 -53 -10q-36 0 -62 18.5t-32 54.5q-55 -78 -168 -78
q-71 0 -115.5 35.5t-44.5 105.5q0 68 47.5 107t126.5 46l146 14v33q0 56 -29.5 89t-86.5 33q-98 0 -117 -105h-67q8 72 56.5 117t127.5 45q84 0 133.5 -47t49.5 -130v-230q0 -56 50 -56zM366 191v55l-128 -12q-57 -5 -91 -31t-34 -71q0 -44 28 -65t72 -21q62 0 107.5 36
t45.5 109z" />
    <glyph glyph-name="aacute.ss01" horiz-adv-x="520" 
d="M333 700l-65 -145h-42l61 145h46zM474 53h13v-53h-33q-71 0 -82 66q-58 -76 -166 -76q-71 0 -115.5 35.5t-44.5 105.5q0 68 47.5 107t126.5 46l146 14v33q0 56 -29.5 89t-86.5 33q-98 0 -117 -105h-67q8 72 56.5 117t127.5 45q84 0 133.5 -47t49.5 -130v-237
q0 -43 41 -43zM366 191v55l-128 -12q-57 -5 -91 -31t-34 -71q0 -44 28 -65t72 -21q62 0 107.5 36t45.5 109z" />
    <glyph glyph-name="abreve.ss01" horiz-adv-x="520" 
d="M247 577q-56 0 -87 38.5t-31 84.5h43q0 -38 20.5 -62t54.5 -24q33 0 53 23.5t20 62.5h43q0 -46 -30 -84.5t-86 -38.5zM474 53h13v-53h-33q-71 0 -82 66q-58 -76 -166 -76q-71 0 -115.5 35.5t-44.5 105.5q0 68 47.5 107t126.5 46l146 14v33q0 56 -29.5 89t-86.5 33
q-98 0 -117 -105h-67q8 72 56.5 117t127.5 45q84 0 133.5 -47t49.5 -130v-237q0 -43 41 -43zM366 191v55l-128 -12q-57 -5 -91 -31t-34 -71q0 -44 28 -65t72 -21q62 0 107.5 36t45.5 109z" />
    <glyph glyph-name="uni01CE.ss01" horiz-adv-x="520" 
d="M271 568h-47l-99 132h50l71 -95h3l70 95h50zM474 53h13v-53h-33q-71 0 -82 66q-58 -76 -166 -76q-71 0 -115.5 35.5t-44.5 105.5q0 68 47.5 107t126.5 46l146 14v33q0 56 -29.5 89t-86.5 33q-98 0 -117 -105h-67q8 72 56.5 117t127.5 45q84 0 133.5 -47t49.5 -130v-237
q0 -43 41 -43zM366 191v55l-128 -12q-57 -5 -91 -31t-34 -71q0 -44 28 -65t72 -21q62 0 107.5 36t45.5 109z" />
    <glyph glyph-name="acircumflex.ss01" horiz-adv-x="520" 
d="M245 663l-69 -95h-51l98 132h47l100 -132h-51l-71 95h-3zM474 53h13v-53h-33q-71 0 -82 66q-58 -76 -166 -76q-71 0 -115.5 35.5t-44.5 105.5q0 68 47.5 107t126.5 46l146 14v33q0 56 -29.5 89t-86.5 33q-98 0 -117 -105h-67q8 72 56.5 117t127.5 45q84 0 133.5 -47
t49.5 -130v-237q0 -43 41 -43zM366 191v55l-128 -12q-57 -5 -91 -31t-34 -71q0 -44 28 -65t72 -21q62 0 107.5 36t45.5 109z" />
    <glyph glyph-name="agrave.ss01" horiz-adv-x="520" 
d="M268 555h-42l-65 145h46zM474 53h13v-53h-33q-71 0 -82 66q-58 -76 -166 -76q-71 0 -115.5 35.5t-44.5 105.5q0 68 47.5 107t126.5 46l146 14v33q0 56 -29.5 89t-86.5 33q-98 0 -117 -105h-67q8 72 56.5 117t127.5 45q84 0 133.5 -47t49.5 -130v-237q0 -43 41 -43z
M366 191v55l-128 -12q-57 -5 -91 -31t-34 -71q0 -44 28 -65t72 -21q62 0 107.5 36t45.5 109z" />
    <glyph glyph-name="amacron.ss01" horiz-adv-x="520" 
d="M389 632v-37h-283v37h283zM474 53h13v-53h-33q-71 0 -82 66q-58 -76 -166 -76q-71 0 -115.5 35.5t-44.5 105.5q0 68 47.5 107t126.5 46l146 14v33q0 56 -29.5 89t-86.5 33q-98 0 -117 -105h-67q8 72 56.5 117t127.5 45q84 0 133.5 -47t49.5 -130v-237q0 -43 41 -43z
M366 191v55l-128 -12q-57 -5 -91 -31t-34 -71q0 -44 28 -65t72 -21q62 0 107.5 36t45.5 109z" />
    <glyph glyph-name="aogonek.ss01" horiz-adv-x="520" 
d="M473 -129q21 0 43 6v-38q-15 -6 -44 -6q-44 0 -73 20.5t-29 63.5q0 53 68 84q-56 6 -66 65q-58 -76 -166 -76q-71 0 -115.5 35.5t-44.5 105.5q0 68 47.5 107t126.5 46l146 14v33q0 56 -29.5 89t-86.5 33q-98 0 -117 -105h-67q8 72 56.5 117t127.5 45q84 0 133.5 -47
t49.5 -130v-237q0 -43 41 -43h13v-53q-74 -29 -74 -82q0 -47 60 -47zM366 191v55l-128 -12q-57 -5 -91 -31t-34 -71q0 -44 28 -65t72 -21q62 0 107.5 36t45.5 109z" />
    <glyph glyph-name="aring.ss01" horiz-adv-x="520" 
d="M248 550q-37 0 -64.5 26.5t-27.5 63.5q0 38 27.5 64t64.5 26t63.5 -26t26.5 -64q0 -37 -26.5 -63.5t-63.5 -26.5zM248 695q-23 0 -38.5 -16t-15.5 -39q0 -24 15.5 -40t38.5 -16q22 0 37.5 16t15.5 40q0 23 -15.5 39t-37.5 16zM474 53h13v-53h-33q-71 0 -82 66
q-58 -76 -166 -76q-71 0 -115.5 35.5t-44.5 105.5q0 68 47.5 107t126.5 46l146 14v33q0 56 -29.5 89t-86.5 33q-98 0 -117 -105h-67q8 72 56.5 117t127.5 45q84 0 133.5 -47t49.5 -130v-237q0 -43 41 -43zM366 191v55l-128 -12q-57 -5 -91 -31t-34 -71q0 -44 28 -65t72 -21
q62 0 107.5 36t45.5 109z" />
    <glyph glyph-name="atilde.ss01" horiz-adv-x="520" 
d="M184 625q-44 0 -51 -60h-39q5 41 27 69t60 28q31 0 53 -16.5t39.5 -33t37.5 -16.5q44 0 52 59h37q-3 -40 -25.5 -68.5t-60.5 -28.5q-30 0 -52.5 17t-40.5 33.5t-37 16.5zM474 53h13v-53h-33q-71 0 -82 66q-58 -76 -166 -76q-71 0 -115.5 35.5t-44.5 105.5q0 68 47.5 107
t126.5 46l146 14v33q0 56 -29.5 89t-86.5 33q-98 0 -117 -105h-67q8 72 56.5 117t127.5 45q84 0 133.5 -47t49.5 -130v-237q0 -43 41 -43zM366 191v55l-128 -12q-57 -5 -91 -31t-34 -71q0 -44 28 -65t72 -21q62 0 107.5 36t45.5 109z" />
    <glyph glyph-name="aeacute.ss01" horiz-adv-x="702" 
d="M425 700l-65 -145h-42l61 145h46zM644 265q0 -18 -1 -30h-270q0 -190 107 -190q36 0 64.5 22t33.5 71h64q-8 -76 -53 -112t-109 -36q-100 0 -139 84q-36 -84 -149 -84q-67 0 -106.5 34.5t-39.5 100.5q0 85 59.5 124t157.5 39h42v56q0 51 -22.5 80.5t-66.5 29.5
q-45 0 -71 -24t-28 -69l-65 1q4 69 48 108.5t114 39.5q95 0 133 -79q42 79 134 79q73 0 118 -56.5t45 -188.5zM480 455q-46 0 -75 -41t-32 -126h208q-1 89 -29 128t-72 39zM199 45q43 0 74.5 27t31.5 88v75h-35q-75 0 -117.5 -23.5t-42.5 -82.5q0 -41 24.5 -62.5t64.5 -21.5
z" />
    <glyph glyph-name="uni01E3.ss01" horiz-adv-x="702" 
d="M481 632v-37h-283v37h283zM644 265q0 -18 -1 -30h-270q0 -190 107 -190q36 0 64.5 22t33.5 71h64q-8 -76 -53 -112t-109 -36q-100 0 -139 84q-36 -84 -149 -84q-67 0 -106.5 34.5t-39.5 100.5q0 85 59.5 124t157.5 39h42v56q0 51 -22.5 80.5t-66.5 29.5q-45 0 -71 -24
t-28 -69l-65 1q4 69 48 108.5t114 39.5q95 0 133 -79q42 79 134 79q73 0 118 -56.5t45 -188.5zM480 455q-46 0 -75 -41t-32 -126h208q-1 89 -29 128t-72 39zM199 45q43 0 74.5 27t31.5 88v75h-35q-75 0 -117.5 -23.5t-42.5 -82.5q0 -41 24.5 -62.5t64.5 -21.5z" />
    <glyph glyph-name="cacute.ss01" horiz-adv-x="565" 
d="M337 700h46l-65 -145h-42zM299 -10q-110 0 -175.5 73t-65.5 184q0 113 67.5 188t173.5 75q84 0 144 -46t73 -126h-67q-11 48 -51 80t-99 32q-77 0 -126 -58t-49 -145q0 -84 47.5 -140.5t127.5 -56.5q60 0 98 28.5t54 78.5h68q-16 -76 -75 -121.5t-145 -45.5z" />
    <glyph glyph-name="ccaron.ss01" horiz-adv-x="565" 
d="M369 700h50l-98 -132h-47l-99 132h50l71 -95h3zM299 -10q-110 0 -175.5 73t-65.5 184q0 113 67.5 188t173.5 75q84 0 144 -46t73 -126h-67q-11 48 -51 80t-99 32q-77 0 -126 -58t-49 -145q0 -84 47.5 -140.5t127.5 -56.5q60 0 98 28.5t54 78.5h68q-16 -76 -75 -121.5
t-145 -45.5z" />
    <glyph glyph-name="ccedilla.ss01" horiz-adv-x="565" 
d="M519 157q-15 -73 -70.5 -118t-136.5 -49l-27 -35q37 3 68 -19.5t31 -64.5q0 -37 -25 -59t-70 -22q-38 0 -64 18l14 29q25 -14 48 -14q27 0 43.5 14t16.5 37q0 52 -65 52q-18 0 -38 -9l-18 16l45 58q-98 10 -155.5 81.5t-57.5 174.5q0 113 67.5 188t173.5 75q84 0 144 -46
t73 -126h-67q-11 48 -51 80t-99 32q-77 0 -126 -58t-49 -145q0 -84 47.5 -140.5t127.5 -56.5q60 0 98 28.5t54 78.5h68z" />
    <glyph glyph-name="ccircumflex.ss01" horiz-adv-x="565" 
d="M226 568h-51l98 132h47l100 -132h-51l-71 95h-3zM299 -10q-110 0 -175.5 73t-65.5 184q0 113 67.5 188t173.5 75q84 0 144 -46t73 -126h-67q-11 48 -51 80t-99 32q-77 0 -126 -58t-49 -145q0 -84 47.5 -140.5t127.5 -56.5q60 0 98 28.5t54 78.5h68q-16 -76 -75 -121.5
t-145 -45.5z" />
    <glyph glyph-name="eth.ss01" horiz-adv-x="591" 
d="M390 588q128 -148 128 -330q0 -123 -61.5 -195.5t-170.5 -72.5q-94 0 -161 63t-67 167t63 166.5t160 62.5q51 0 92.5 -20.5t62.5 -49.5h6q-31 104 -108 190l-156 -53l-13 34l141 48q-53 51 -125 102h82q58 -40 100 -83l96 33l13 -34zM288 48q73 0 118.5 51.5t45.5 126.5
q0 73 -48.5 119t-120.5 46q-74 0 -118.5 -47.5t-44.5 -123.5t48 -124t120 -48z" />
    <glyph glyph-name="dcaron.ss01" horiz-adv-x="596" 
d="M452 423v287h67v-710h-55l-7 77h-6q-58 -87 -166 -87q-101 0 -164 72t-63 189t63.5 188t163.5 71q114 0 167 -87zM682 710q25 0 39 -18.5t14 -47.5q0 -88 -88 -143l-18 24q54 42 66 84q-7 -2 -16 -2q-23 0 -35.5 15.5t-12.5 35.5q0 23 14.5 37.5t36.5 14.5zM291 50
q73 0 117 55t44 146q0 90 -44 144.5t-117 54.5q-74 0 -120.5 -55t-46.5 -144q0 -90 46.5 -145.5t120.5 -55.5z" />
    <glyph glyph-name="dcroat.ss01" horiz-adv-x="596" 
d="M620 619v-37h-101v-582h-55l-7 77h-6q-58 -87 -166 -87q-101 0 -164 72t-63 189t63.5 188t163.5 71q114 0 167 -87v159h-113v37h113v91h67v-91h101zM291 50q73 0 117 55t44 146q0 90 -44 144.5t-117 54.5q-74 0 -120.5 -55t-46.5 -144q0 -90 46.5 -145.5t120.5 -55.5z
" />
    <glyph glyph-name="eacute.ss01" horiz-adv-x="564" 
d="M375 700l-65 -145h-42l61 145h46zM505 263q0 -16 -2 -27h-379q3 -86 48.5 -137.5t119.5 -51.5q54 0 91.5 23.5t51.5 68.5h65q-16 -71 -72 -110t-136 -39q-104 0 -169 70t-65 185q0 120 65 192.5t166 72.5q94 0 155 -65t61 -182zM289 453q-68 0 -113 -47t-51 -118h314
q-1 74 -42.5 119.5t-107.5 45.5z" />
    <glyph glyph-name="ebreve.ss01" horiz-adv-x="564" 
d="M288 577q-56 0 -87 38.5t-31 84.5h43q0 -38 20.5 -62t54.5 -24q33 0 53 23.5t20 62.5h43q0 -46 -30 -84.5t-86 -38.5zM505 263q0 -16 -2 -27h-379q3 -86 48.5 -137.5t119.5 -51.5q54 0 91.5 23.5t51.5 68.5h65q-16 -71 -72 -110t-136 -39q-104 0 -169 70t-65 185
q0 120 65 192.5t166 72.5q94 0 155 -65t61 -182zM289 453q-68 0 -113 -47t-51 -118h314q-1 74 -42.5 119.5t-107.5 45.5z" />
    <glyph glyph-name="ecaron.ss01" horiz-adv-x="564" 
d="M313 568h-47l-99 132h50l71 -95h3l70 95h50zM505 263q0 -16 -2 -27h-379q3 -86 48.5 -137.5t119.5 -51.5q54 0 91.5 23.5t51.5 68.5h65q-16 -71 -72 -110t-136 -39q-104 0 -169 70t-65 185q0 120 65 192.5t166 72.5q94 0 155 -65t61 -182zM289 453q-68 0 -113 -47
t-51 -118h314q-1 74 -42.5 119.5t-107.5 45.5z" />
    <glyph glyph-name="uni0229.ss01" horiz-adv-x="564" 
d="M505 263q0 -16 -2 -27h-379q3 -86 48.5 -137.5t119.5 -51.5q54 0 91.5 23.5t51.5 68.5h65q-15 -69 -68 -107.5t-129 -41.5l-27 -35q37 3 68 -19.5t31 -64.5q0 -37 -25 -59t-70 -22q-38 0 -64 18l14 29q24 -14 48 -14q27 0 43.5 14t16.5 37q0 52 -65 52q-18 0 -38 -9
l-18 16l45 59q-92 10 -148 78.5t-56 174.5q0 120 65 192.5t166 72.5q94 0 155 -65t61 -182zM289 453q-68 0 -113 -47t-51 -118h314q-1 74 -42.5 119.5t-107.5 45.5z" />
    <glyph glyph-name="ecircumflex.ss01" horiz-adv-x="564" 
d="M286 663l-69 -95h-51l98 132h47l100 -132h-51l-71 95h-3zM505 263q0 -16 -2 -27h-379q3 -86 48.5 -137.5t119.5 -51.5q54 0 91.5 23.5t51.5 68.5h65q-16 -71 -72 -110t-136 -39q-104 0 -169 70t-65 185q0 120 65 192.5t166 72.5q94 0 155 -65t61 -182zM289 453
q-68 0 -113 -47t-51 -118h314q-1 74 -42.5 119.5t-107.5 45.5z" />
    <glyph glyph-name="egrave.ss01" horiz-adv-x="564" 
d="M310 555h-42l-65 145h46zM505 263q0 -16 -2 -27h-379q3 -86 48.5 -137.5t119.5 -51.5q54 0 91.5 23.5t51.5 68.5h65q-16 -71 -72 -110t-136 -39q-104 0 -169 70t-65 185q0 120 65 192.5t166 72.5q94 0 155 -65t61 -182zM289 453q-68 0 -113 -47t-51 -118h314
q-1 74 -42.5 119.5t-107.5 45.5z" />
    <glyph glyph-name="emacron.ss01" horiz-adv-x="564" 
d="M431 632v-37h-283v37h283zM505 263q0 -16 -2 -27h-379q3 -86 48.5 -137.5t119.5 -51.5q54 0 91.5 23.5t51.5 68.5h65q-16 -71 -72 -110t-136 -39q-104 0 -169 70t-65 185q0 120 65 192.5t166 72.5q94 0 155 -65t61 -182zM289 453q-68 0 -113 -47t-51 -118h314
q-1 74 -42.5 119.5t-107.5 45.5z" />
    <glyph glyph-name="eogonek.ss01" horiz-adv-x="564" 
d="M505 263q0 -16 -2 -27h-379q3 -86 48.5 -137.5t119.5 -51.5q54 0 91.5 23.5t51.5 68.5h65q-12 -55 -49 -91t-92 -50q-69 -29 -69 -80q0 -47 60 -47q20 0 43 6v-38q-15 -6 -44 -6q-44 0 -73 20.5t-29 63.5q0 44 47 73h-2q-104 0 -169 70t-65 185q0 120 65 192.5t166 72.5
q94 0 155 -65t61 -182zM289 453q-68 0 -113 -47t-51 -118h314q-1 74 -42.5 119.5t-107.5 45.5z" />
    <glyph glyph-name="uni1EBD.ss01" horiz-adv-x="564" 
d="M226 625q-44 0 -51 -60h-39q5 41 27 69t60 28q31 0 53 -16.5t39.5 -33t37.5 -16.5q44 0 52 59h37q-3 -40 -25.5 -68.5t-60.5 -28.5q-30 0 -52.5 17t-40.5 33.5t-37 16.5zM505 263q0 -16 -2 -27h-379q3 -86 48.5 -137.5t119.5 -51.5q54 0 91.5 23.5t51.5 68.5h65
q-16 -71 -72 -110t-136 -39q-104 0 -169 70t-65 185q0 120 65 192.5t166 72.5q94 0 155 -65t61 -182zM289 453q-68 0 -113 -47t-51 -118h314q-1 74 -42.5 119.5t-107.5 45.5z" />
    <glyph glyph-name="aacute.fina.ss01" horiz-adv-x="520" 
d="M333 700l-65 -145h-42l61 145h46zM483 47q16 0 38 9v-51q-28 -10 -53 -10q-36 0 -62 18.5t-32 54.5q-55 -78 -168 -78q-71 0 -115.5 35.5t-44.5 105.5q0 68 47.5 107t126.5 46l146 14v33q0 56 -29.5 89t-86.5 33q-98 0 -117 -105h-67q8 72 56.5 117t127.5 45
q84 0 133.5 -47t49.5 -130v-230q0 -56 50 -56zM366 191v55l-128 -12q-57 -5 -91 -31t-34 -71q0 -44 28 -65t72 -21q62 0 107.5 36t45.5 109z" />
    <glyph glyph-name="abreve.fina.ss01" horiz-adv-x="520" 
d="M247 577q-56 0 -87 38.5t-31 84.5h43q0 -38 20.5 -62t54.5 -24q33 0 53 23.5t20 62.5h43q0 -46 -30 -84.5t-86 -38.5zM483 47q16 0 38 9v-51q-28 -10 -53 -10q-36 0 -62 18.5t-32 54.5q-55 -78 -168 -78q-71 0 -115.5 35.5t-44.5 105.5q0 68 47.5 107t126.5 46l146 14v33
q0 56 -29.5 89t-86.5 33q-98 0 -117 -105h-67q8 72 56.5 117t127.5 45q84 0 133.5 -47t49.5 -130v-230q0 -56 50 -56zM366 191v55l-128 -12q-57 -5 -91 -31t-34 -71q0 -44 28 -65t72 -21q62 0 107.5 36t45.5 109z" />
    <glyph glyph-name="uni01CE.fina.ss01" horiz-adv-x="520" 
d="M271 568h-47l-99 132h50l71 -95h3l70 95h50zM483 47q16 0 38 9v-51q-28 -10 -53 -10q-36 0 -62 18.5t-32 54.5q-55 -78 -168 -78q-71 0 -115.5 35.5t-44.5 105.5q0 68 47.5 107t126.5 46l146 14v33q0 56 -29.5 89t-86.5 33q-98 0 -117 -105h-67q8 72 56.5 117t127.5 45
q84 0 133.5 -47t49.5 -130v-230q0 -56 50 -56zM366 191v55l-128 -12q-57 -5 -91 -31t-34 -71q0 -44 28 -65t72 -21q62 0 107.5 36t45.5 109z" />
    <glyph glyph-name="acircumflex.fina.ss01" horiz-adv-x="520" 
d="M245 663l-69 -95h-51l98 132h47l100 -132h-51l-71 95h-3zM483 47q16 0 38 9v-51q-28 -10 -53 -10q-36 0 -62 18.5t-32 54.5q-55 -78 -168 -78q-71 0 -115.5 35.5t-44.5 105.5q0 68 47.5 107t126.5 46l146 14v33q0 56 -29.5 89t-86.5 33q-98 0 -117 -105h-67
q8 72 56.5 117t127.5 45q84 0 133.5 -47t49.5 -130v-230q0 -56 50 -56zM366 191v55l-128 -12q-57 -5 -91 -31t-34 -71q0 -44 28 -65t72 -21q62 0 107.5 36t45.5 109z" />
    <glyph glyph-name="agrave.fina.ss01" horiz-adv-x="520" 
d="M268 555h-42l-65 145h46zM483 47q16 0 38 9v-51q-28 -10 -53 -10q-36 0 -62 18.5t-32 54.5q-55 -78 -168 -78q-71 0 -115.5 35.5t-44.5 105.5q0 68 47.5 107t126.5 46l146 14v33q0 56 -29.5 89t-86.5 33q-98 0 -117 -105h-67q8 72 56.5 117t127.5 45q84 0 133.5 -47
t49.5 -130v-230q0 -56 50 -56zM366 191v55l-128 -12q-57 -5 -91 -31t-34 -71q0 -44 28 -65t72 -21q62 0 107.5 36t45.5 109z" />
    <glyph glyph-name="amacron.fina.ss01" horiz-adv-x="520" 
d="M389 632v-37h-283v37h283zM483 47q16 0 38 9v-51q-28 -10 -53 -10q-36 0 -62 18.5t-32 54.5q-55 -78 -168 -78q-71 0 -115.5 35.5t-44.5 105.5q0 68 47.5 107t126.5 46l146 14v33q0 56 -29.5 89t-86.5 33q-98 0 -117 -105h-67q8 72 56.5 117t127.5 45q84 0 133.5 -47
t49.5 -130v-230q0 -56 50 -56zM366 191v55l-128 -12q-57 -5 -91 -31t-34 -71q0 -44 28 -65t72 -21q62 0 107.5 36t45.5 109z" />
    <glyph glyph-name="aring.fina.ss01" horiz-adv-x="520" 
d="M248 550q-37 0 -64.5 26.5t-27.5 63.5q0 38 27.5 64t64.5 26t63.5 -26t26.5 -64q0 -37 -26.5 -63.5t-63.5 -26.5zM248 695q-23 0 -38.5 -16t-15.5 -39q0 -24 15.5 -40t38.5 -16q22 0 37.5 16t15.5 40q0 23 -15.5 39t-37.5 16zM483 47q16 0 38 9v-51q-28 -10 -53 -10
q-36 0 -62 18.5t-32 54.5q-55 -78 -168 -78q-71 0 -115.5 35.5t-44.5 105.5q0 68 47.5 107t126.5 46l146 14v33q0 56 -29.5 89t-86.5 33q-98 0 -117 -105h-67q8 72 56.5 117t127.5 45q84 0 133.5 -47t49.5 -130v-230q0 -56 50 -56zM366 191v55l-128 -12q-57 -5 -91 -31
t-34 -71q0 -44 28 -65t72 -21q62 0 107.5 36t45.5 109z" />
    <glyph glyph-name="atilde.fina.ss01" horiz-adv-x="520" 
d="M184 625q-44 0 -51 -60h-39q5 41 27 69t60 28q31 0 53 -16.5t39.5 -33t37.5 -16.5q44 0 52 59h37q-3 -40 -25.5 -68.5t-60.5 -28.5q-30 0 -52.5 17t-40.5 33.5t-37 16.5zM483 47q16 0 38 9v-51q-28 -10 -53 -10q-36 0 -62 18.5t-32 54.5q-55 -78 -168 -78
q-71 0 -115.5 35.5t-44.5 105.5q0 68 47.5 107t126.5 46l146 14v33q0 56 -29.5 89t-86.5 33q-98 0 -117 -105h-67q8 72 56.5 117t127.5 45q84 0 133.5 -47t49.5 -130v-230q0 -56 50 -56zM366 191v55l-128 -12q-57 -5 -91 -31t-34 -71q0 -44 28 -65t72 -21q62 0 107.5 36
t45.5 109z" />
    <glyph glyph-name="uni01F5.ss01" horiz-adv-x="526" 
d="M355 700l-65 -145h-42l61 145h46zM503 502q-35 -40 -85 -63q31 -43 31 -101q0 -77 -50.5 -123.5t-127.5 -46.5q-53 0 -93 21q-40 -18 -40 -53q0 -24 19.5 -37.5t56.5 -13.5h100q81 0 125 -35.5t44 -100.5q0 -76 -58 -117.5t-150 -41.5q-100 0 -154.5 47.5t-62.5 123.5
l87 74q-31 9 -49.5 33t-18.5 58q0 59 61 91q-49 47 -49 121q0 75 50.5 123.5t129.5 48.5q64 0 113 -35q44 22 80 69zM271 222q50 0 81.5 33t31.5 83q0 52 -31 85t-82 33q-52 0 -84.5 -33t-32.5 -85q0 -50 33 -83t84 -33zM418 -54q0 45 -33 64t-76 19h-91l-92 -78
q26 -106 149 -106q61 0 102 25.5t41 75.5z" />
    <glyph glyph-name="gbreve.ss01" horiz-adv-x="526" 
d="M269 577q-56 0 -87 38.5t-31 84.5h43q0 -38 20.5 -62t54.5 -24q33 0 53 23.5t20 62.5h43q0 -46 -30 -84.5t-86 -38.5zM503 502q-35 -40 -85 -63q31 -43 31 -101q0 -77 -50.5 -123.5t-127.5 -46.5q-53 0 -93 21q-40 -18 -40 -53q0 -24 19.5 -37.5t56.5 -13.5h100
q81 0 125 -35.5t44 -100.5q0 -76 -58 -117.5t-150 -41.5q-100 0 -154.5 47.5t-62.5 123.5l87 74q-31 9 -49.5 33t-18.5 58q0 59 61 91q-49 47 -49 121q0 75 50.5 123.5t129.5 48.5q64 0 113 -35q44 22 80 69zM271 222q50 0 81.5 33t31.5 83q0 52 -31 85t-82 33
q-52 0 -84.5 -33t-32.5 -85q0 -50 33 -83t84 -33zM418 -54q0 45 -33 64t-76 19h-91l-92 -78q26 -106 149 -106q61 0 102 25.5t41 75.5z" />
    <glyph glyph-name="gcaron.ss01" horiz-adv-x="526" 
d="M293 568h-47l-99 132h50l71 -95h3l70 95h50zM503 502q-35 -40 -85 -63q31 -43 31 -101q0 -77 -50.5 -123.5t-127.5 -46.5q-53 0 -93 21q-40 -18 -40 -53q0 -24 19.5 -37.5t56.5 -13.5h100q81 0 125 -35.5t44 -100.5q0 -76 -58 -117.5t-150 -41.5q-100 0 -154.5 47.5
t-62.5 123.5l87 74q-31 9 -49.5 33t-18.5 58q0 59 61 91q-49 47 -49 121q0 75 50.5 123.5t129.5 48.5q64 0 113 -35q44 22 80 69zM271 222q50 0 81.5 33t31.5 83q0 52 -31 85t-82 33q-52 0 -84.5 -33t-32.5 -85q0 -50 33 -83t84 -33zM418 -54q0 45 -33 64t-76 19h-91
l-92 -78q26 -106 149 -106q61 0 102 25.5t41 75.5z" />
    <glyph glyph-name="gcircumflex.ss01" horiz-adv-x="526" 
d="M267 663l-69 -95h-51l98 132h47l100 -132h-51l-71 95h-3zM503 502q-35 -40 -85 -63q31 -43 31 -101q0 -77 -50.5 -123.5t-127.5 -46.5q-53 0 -93 21q-40 -18 -40 -53q0 -24 19.5 -37.5t56.5 -13.5h100q81 0 125 -35.5t44 -100.5q0 -76 -58 -117.5t-150 -41.5
q-100 0 -154.5 47.5t-62.5 123.5l87 74q-31 9 -49.5 33t-18.5 58q0 59 61 91q-49 47 -49 121q0 75 50.5 123.5t129.5 48.5q64 0 113 -35q44 22 80 69zM271 222q50 0 81.5 33t31.5 83q0 52 -31 85t-82 33q-52 0 -84.5 -33t-32.5 -85q0 -50 33 -83t84 -33zM418 -54
q0 45 -33 64t-76 19h-91l-92 -78q26 -106 149 -106q61 0 102 25.5t41 75.5z" />
    </font>
</defs>
</svg>
