<?xml version="1.0" standalone="no"?>
<!DOCTYPE svg PUBLIC "-//W3C//DTD SVG 1.1//EN" "http://www.w3.org/Graphics/SVG/1.1/DTD/svg11.dtd" >
<svg xmlns="http://www.w3.org/2000/svg" xmlns:xlink="http://www.w3.org/1999/xlink" version="1.1">
<metadata>
Created by FontForge 20170731 at Wed Jan  2 22:30:06 2019
 By Aleksey,,,
(c) TIGHTYPE 2019
</metadata>
<defs>
<font id="Moderat-Regular" horiz-adv-x="554" >
  <font-face 
    font-family="Moderat"
    font-weight="400"
    font-stretch="normal"
    units-per-em="1000"
    panose-1="0 0 5 0 0 0 0 0 0 0"
    ascent="800"
    descent="-200"
    x-height="500"
    cap-height="700"
    bbox="-133 -291 1133 931"
    underline-thickness="50"
    underline-position="-150"
    unicode-range="U+0020-2793"
  />
<missing-glyph horiz-adv-x="852" 
d="M786 350q0 -150 -105 -255t-255 -105t-255 106t-105 254q0 149 105.5 254.5t254.5 105.5q151 0 255.5 -105.5t104.5 -254.5zM238 533v-45h44v-128h46v128h44v45h-134zM480 533v-45h45v-128h45v128h45v45h-135zM426 81q109 0 187 76t81 183l-46 8q0 -92 -65 -156.5
t-157 -64.5t-156.5 64.5t-64.5 156.5l-46 -8q3 -107 81 -183t186 -76z" />
    <glyph glyph-name="arrowleft" unicode="&#x3c;&#x2d;" horiz-adv-x="806" 
d="M766 389v-78h-604l212 -211l-55 -55l-293 301v8l293 301l55 -55l-212 -211h604z" />
    <glyph glyph-name="arrowright" unicode="&#x2d;&#x3e;" horiz-adv-x="806" 
d="M487 655l293 -301v-8l-293 -301l-55 55l212 211h-604v78h604l-212 211z" />
    <glyph glyph-name="f_f" unicode="ff" horiz-adv-x="666" 
d="M520 574v-74h118v-71h-118v-429h-87v429h-223v-429h-88v429h-102v71h102v82q0 61 36.5 94.5t99.5 33.5q35 0 66 -11l-15 -68q-16 6 -36 6q-63 0 -63 -63v-74h223v82q0 61 36.5 94.5t99.5 33.5q42 0 78 -15l-17 -65q-22 7 -47 7q-63 0 -63 -63z" />
    <glyph glyph-name="f_f_i" unicode="ffi" horiz-adv-x="901" 
d="M831 500v-500h-88v429h-219v-429h-88v429h-226v-429h-88v429h-102v71h102v82q0 61 36.5 94.5t99.5 33.5q35 0 66 -11l-15 -68q-16 6 -36 6q-63 0 -63 -63v-74h226v82q0 61 36.5 94.5t99.5 33.5q35 0 66 -11l-15 -68q-14 6 -36 6q-63 0 -63 -63v-74h307zM787 580
q-24 0 -41.5 17t-17.5 41t17.5 40.5t41.5 16.5t40.5 -16.5t16.5 -40.5t-16.5 -41t-40.5 -17z" />
    <glyph glyph-name="f_f_j" unicode="ffj" horiz-adv-x="897" 
d="M838 500v-587q0 -52 -29 -87.5t-100 -35.5q-33 0 -73 11v67q26 -7 49 -7q65 0 65 63v505h-230v-429h-87v429h-223v-429h-88v429h-102v71h102v82q0 61 36.5 94.5t99.5 33.5q35 0 66 -11l-15 -68q-16 6 -36 6q-63 0 -63 -63v-74h223v82q0 61 36.5 94.5t99.5 33.5
q36 0 65 -11l-14 -68q-16 6 -36 6q-64 0 -64 -63v-74h318zM794 580q-24 0 -41.5 17t-17.5 41t17.5 40.5t41.5 16.5t40.5 -16.5t16.5 -40.5t-16.5 -41t-40.5 -17z" />
    <glyph glyph-name="f_i" unicode="fi" horiz-adv-x="586" 
d="M517 500v-500h-88v429h-219v-429h-88v429h-102v71h102v82q0 61 36.5 94.5t99.5 33.5q35 0 66 -11l-15 -68q-16 6 -36 6q-63 0 -63 -63v-74h307zM473 580q-24 0 -41.5 17t-17.5 41t17.5 40.5t41.5 16.5q23 0 40 -16.5t17 -40.5t-17 -41t-40 -17z" />
    <glyph glyph-name="f_j" unicode="fj" horiz-adv-x="586" 
d="M210 429v-429h-88v429h-102v71h102v82q0 61 36.5 94.5t99.5 33.5q35 0 66 -11l-15 -68q-16 6 -36 6q-63 0 -63 -63v-74h229v-71h-229zM483 580q-24 0 -41 17t-17 41t17 40.5t41 16.5t41 -16.5t17 -40.5t-17 -41t-41 -17zM440 -76v576h87v-587q0 -52 -29 -87.5t-100 -35.5
q-33 0 -73 11v67q28 -7 50 -7q65 0 65 63z" />
    <glyph glyph-name=".notdef" horiz-adv-x="852" 
d="M786 350q0 -150 -105 -255t-255 -105t-255 106t-105 254q0 149 105.5 254.5t254.5 105.5q151 0 255.5 -105.5t104.5 -254.5zM238 533v-45h44v-128h46v128h44v45h-134zM480 533v-45h45v-128h45v128h45v45h-135zM426 81q109 0 187 76t81 183l-46 8q0 -92 -65 -156.5
t-157 -64.5t-156.5 64.5t-64.5 156.5l-46 -8q3 -107 81 -183t186 -76z" />
    <glyph glyph-name=".null" horiz-adv-x="0" 
 />
    <glyph glyph-name="nonmarkingreturn" horiz-adv-x="333" 
 />
    <glyph glyph-name="space" unicode=" " horiz-adv-x="270" 
 />
    <glyph glyph-name="exclam" unicode="!" horiz-adv-x="266" 
d="M87 700h92l-14 -506h-62zM134 -5q-25 0 -42.5 17.5t-17.5 41.5q0 25 17.5 42.5t42.5 17.5t42 -17.5t17 -42.5q0 -24 -17 -41.5t-42 -17.5z" />
    <glyph glyph-name="quotedbl" unicode="&#x22;" horiz-adv-x="355" 
d="M134 587l-16 -142h-42l-17 142q-7 51 -7 68q0 23 12 36.5t32 13.5q21 0 33 -13.5t12 -36.5q0 -17 -7 -68zM296 587l-16 -142h-43l-16 142q-7 51 -7 68q0 23 12 36.5t32 13.5t32.5 -13.5t12.5 -36.5q0 -17 -7 -68z" />
    <glyph glyph-name="numbersign" unicode="#" horiz-adv-x="696" 
d="M656 402h-111l-36 -165h93v-71h-109l-36 -166h-80l36 166h-199l-36 -166h-79l36 166h-95v71h111l36 165h-93v71h108l37 167h79l-37 -167h199l37 167h80l-37 -167h96v-71zM429 237l36 165h-199l-36 -165h199z" />
    <glyph glyph-name="dollar" unicode="$" horiz-adv-x="577" 
d="M508 161q0 -74 -50 -117.5t-129 -51.5v-82h-73v82q-86 9 -135.5 59t-54.5 134h91q11 -99 99 -116v229l-22 8q-72 26 -110.5 65t-38.5 105q0 70 47.5 115.5t123.5 55.5v83h73v-82q79 -9 126.5 -57.5t51.5 -122.5h-86q-10 87 -92 103v-213l20 -7q81 -29 120 -74t39 -116z
M176 481q0 -33 19.5 -55.5t60.5 -40.5v185q-36 -9 -58 -33t-22 -56zM329 68q38 7 62.5 30.5t24.5 60.5q0 74 -87 112v-203z" />
    <glyph glyph-name="percent" unicode="%" horiz-adv-x="788" 
d="M218 347q-62 0 -107 44.5t-45 106.5t45 107t107 45t106.5 -45t44.5 -107t-44.5 -106.5t-106.5 -44.5zM658 640l-435 -640h-98l435 640h98zM217 419q35 0 57.5 22t22.5 57t-22.5 57.5t-57.5 22.5q-34 0 -56 -22.5t-22 -57.5q0 -34 22 -56.5t56 -22.5zM571 -10
q-62 0 -107 45t-45 107t45 106.5t107 44.5t107 -44.5t45 -106.5t-45 -107t-107 -45zM570 62q35 0 57.5 22.5t22.5 57.5t-22.5 57t-57.5 22q-33 0 -55.5 -22.5t-22.5 -56.5t22.5 -57t55.5 -23z" />
    <glyph glyph-name="ampersand" unicode="&#x26;" horiz-adv-x="689" 
d="M658 0h-97l-96 102q-91 -112 -211 -112q-81 0 -134.5 45.5t-53.5 117.5q0 67 33 109.5t92 83.5l27 19q-27 28 -38.5 40.5t-31 38.5t-27.5 51.5t-8 53.5q0 66 52 113.5t133 47.5t133 -43.5t52 -112.5q0 -53 -31 -93t-90 -83l-33 -24l126 -136l85 119h91l-123 -176z
M278 408l1 -1l31 22q43 30 67 58.5t24 63.5q0 40 -29.5 64t-72.5 24q-46 0 -74.5 -26t-28.5 -66q0 -35 18 -64t64 -75zM258 64q84 0 155 94l-144 153l-28 -21q-44 -33 -66.5 -62t-22.5 -68q0 -41 30 -68.5t76 -27.5z" />
    <glyph glyph-name="quotesingle" unicode="'" horiz-adv-x="193" 
d="M134 587l-16 -142h-42l-17 142q-7 51 -7 68q0 23 12 36.5t32 13.5q21 0 33 -13.5t12 -36.5q0 -17 -7 -68z" />
    <glyph glyph-name="parenleft" unicode="(" horiz-adv-x="307" 
d="M280 -130l-54 -39q-71 85 -115.5 207.5t-44.5 271.5t44.5 272t115.5 208l54 -40q-138 -181 -138 -440q0 -257 138 -440z" />
    <glyph glyph-name="parenright" unicode=")" horiz-adv-x="307" 
d="M26 -130q139 183 139 440q0 259 -139 440l54 40q71 -84 116 -207.5t45 -272.5t-45 -271.5t-116 -207.5z" />
    <glyph glyph-name="asterisk" unicode="*" horiz-adv-x="421" 
d="M368 592l-105 -57l105 -57l-29 -51l-103 63l4 -120h-59l4 120l-103 -63l-30 51l106 57l-106 57l30 51l103 -63l-4 120h59l-4 -120l103 63z" />
    <glyph glyph-name="plus" unicode="+" 
d="M499 316v-72h-183v-184h-78v184h-184v72h184v184h78v-184h183z" />
    <glyph glyph-name="comma" unicode="," horiz-adv-x="249" 
d="M125 112q30 0 46.5 -22t16.5 -57q0 -101 -99 -163l-25 31q56 46 57 94q-22 -2 -39 13.5t-17 42.5t17 44t43 17z" />
    <glyph glyph-name="hyphen" unicode="-" horiz-adv-x="446" 
d="M40 349h367v-76h-367v76z" />
    <glyph glyph-name="period" unicode="." horiz-adv-x="241" 
d="M121 -5q-25 0 -42.5 17.5t-17.5 41.5q0 25 17.5 42.5t42.5 17.5t42 -17.5t17 -42.5q0 -24 -17 -41.5t-42 -17.5z" />
    <glyph glyph-name="slash" unicode="/" horiz-adv-x="496" 
d="M470 750l-358 -800h-86l359 800h85z" />
    <glyph glyph-name="zero" unicode="0" horiz-adv-x="604" 
d="M303 -10q-108 0 -172.5 83.5t-64.5 247.5q0 162 64.5 246t172.5 84t171.5 -84.5t63.5 -247.5t-64 -246t-171 -83zM303 67q64 0 103.5 63.5t39.5 189.5t-40 190t-104 64t-103.5 -63.5t-39.5 -190.5t39.5 -190t104.5 -63z" />
    <glyph glyph-name="one" unicode="1" horiz-adv-x="369" 
d="M192 0v456h-126v72h59q39 0 57.5 21.5t18.5 56.5v34h81v-640h-90z" />
    <glyph glyph-name="two" unicode="2" horiz-adv-x="551" 
d="M264 216q-88 -62 -96 -140h314v-76h-416v35q0 74 37.5 134.5t97.5 102.5l97 67q32 23 47.5 36t32.5 40t17 57q0 45 -30 73.5t-78 28.5q-59 0 -92.5 -38.5t-36.5 -86.5h-91q5 82 64 142t159 60q88 0 141.5 -48t53.5 -128q0 -106 -112 -183z" />
    <glyph glyph-name="three" unicode="3" horiz-adv-x="571" 
d="M395 330q50 -16 80 -56t30 -98q0 -81 -62 -133.5t-161 -52.5q-96 0 -152.5 49.5t-63.5 137.5h88q7 -49 38 -80.5t89 -31.5q59 0 96 32t37 82t-34.5 81.5t-93.5 31.5h-58v71h54q51 0 81.5 29.5t30.5 78.5q0 48 -31 77.5t-81 29.5q-46 0 -79 -26t-42 -74h-87
q5 78 66.5 125.5t144.5 47.5q84 0 141 -49t57 -128q0 -94 -88 -139v-5z" />
    <glyph glyph-name="four" unicode="4" horiz-adv-x="571" 
d="M532 215v-69h-111v-146h-84v146h-297v44l288 450h93v-425h111zM143 215h194v305h-7z" />
    <glyph glyph-name="five" unicode="5" horiz-adv-x="566" 
d="M299 410q90 0 146 -59t56 -150q0 -96 -63 -153.5t-161 -57.5q-93 0 -149.5 52t-61.5 139h85q5 -56 39 -87.5t88 -31.5q60 0 97 37t37 100q0 62 -35.5 102.5t-93.5 40.5q-85 0 -125 -70l-78 17l34 351h358v-75h-281l-22 -200q51 45 130 45z" />
    <glyph glyph-name="six" unicode="6" horiz-adv-x="539" 
d="M288 404q86 0 142 -57t56 -146q0 -93 -60.5 -152t-156.5 -59q-97 0 -157 60t-60 158q0 42 13 83.5t26.5 67.5t37.5 63l140 218h109l-172 -252q35 16 82 16zM270 64q59 0 94 40t35 99q0 57 -34.5 95t-93.5 38t-94 -38t-35 -95q0 -59 35 -99t93 -40z" />
    <glyph glyph-name="seven" unicode="7" horiz-adv-x="533" 
d="M66 640h427v-51q-111 -128 -170 -262t-72 -327h-91q13 189 64.5 318t140.5 242v4h-299v76z" />
    <glyph glyph-name="eight" unicode="8" horiz-adv-x="572" 
d="M392 339q47 -18 80.5 -61t33.5 -105q0 -81 -60 -132t-159 -51q-100 0 -160.5 51.5t-60.5 132.5q0 62 33.5 105t80.5 60v5q-91 39 -91 137q0 77 56 123.5t142 46.5q85 0 140.5 -46t55.5 -123q0 -52 -26 -86.5t-65 -51.5v-5zM287 585q-48 0 -79 -28.5t-31 -77.5
q0 -48 32 -76t78 -28q45 0 76.5 28t31.5 76q0 49 -30.5 77.5t-77.5 28.5zM287 59q54 0 90.5 32.5t36.5 85.5q0 54 -34.5 89t-94.5 35t-94 -35t-34 -86q0 -55 37.5 -88t92.5 -33z" />
    <glyph glyph-name="nine" unicode="9" horiz-adv-x="539" 
d="M270 650q97 0 156.5 -60t59.5 -158q0 -60 -20 -109t-56 -105l-140 -218h-109l172 252q-35 -16 -82 -16q-87 0 -143 57t-56 146q0 93 61 152t157 59zM268 304q59 0 94 38t35 95q0 59 -35 99t-93 40q-59 0 -94 -40t-35 -99q0 -57 34.5 -95t93.5 -38z" />
    <glyph glyph-name="colon" unicode=":" horiz-adv-x="241" 
d="M121 386q-25 0 -42.5 17.5t-17.5 41.5q0 25 17.5 42.5t42.5 17.5t42 -17.5t17 -42.5q0 -24 -17 -41.5t-42 -17.5zM121 -5q-25 0 -42.5 17.5t-17.5 41.5q0 25 17.5 42.5t42.5 17.5t42 -17.5t17 -42.5q0 -24 -17 -41.5t-42 -17.5z" />
    <glyph glyph-name="semicolon" unicode=";" horiz-adv-x="249" 
d="M128 386q-25 0 -43 17.5t-18 41.5q0 25 18 42.5t43 17.5q24 0 41.5 -17.5t17.5 -42.5q0 -24 -17.5 -41.5t-41.5 -17.5zM125 112q30 0 46.5 -22t16.5 -57q0 -101 -99 -163l-25 31q56 46 57 94q-22 -2 -39 13.5t-17 42.5t17 44t43 17z" />
    <glyph glyph-name="less" unicode="&#x3c;" horiz-adv-x="555" 
d="M470 557v-92l-296 -175v-5l296 -177v-92l-385 225v91z" />
    <glyph glyph-name="equal" unicode="=" 
d="M57 428h440v-75h-440v75zM57 207h440v-74h-440v74z" />
    <glyph glyph-name="greater" unicode="&#x3e;" 
d="M85 557l385 -225v-91l-385 -225v92l295 177v5l-295 175v92z" />
    <glyph glyph-name="question" unicode="?" horiz-adv-x="456" 
d="M157 243q0 60 17.5 101.5t67.5 80.5q47 37 63.5 60t16.5 58q0 41 -24.5 66t-71.5 25q-50 0 -75.5 -30.5t-29.5 -72.5h-81q2 70 47 124.5t139 54.5q84 0 131 -44t47 -120q0 -54 -23 -88.5t-76 -75.5q-37 -29 -52 -63t-15 -82v-43h-81v49zM200 -5q-25 0 -42.5 17.5
t-17.5 41.5q0 25 17.5 42.5t42.5 17.5t42 -17.5t17 -42.5q0 -24 -17 -41.5t-42 -17.5z" />
    <glyph glyph-name="at" unicode="@" horiz-adv-x="1007" 
d="M501 710q189 0 314.5 -120.5t125.5 -316.5q0 -267 -181 -267q-50 0 -86 22.5t-46 62.5q-18 -34 -57.5 -59.5t-97.5 -25.5q-84 0 -143.5 65t-59.5 170q0 108 58.5 176.5t144.5 68.5q98 0 137 -75h7l9 68h68v-323q0 -40 20 -60t54 -20q97 0 97 190q0 172 -102 272.5
t-265 100.5q-150 0 -253.5 -112t-103.5 -287q0 -169 110 -274t265 -105q116 0 204 57l33 -60q-101 -68 -242 -68q-120 0 -220.5 53t-162.5 157t-62 240q0 107 35.5 196.5t95 149t138.5 92t166 32.5zM485 82q56 0 94.5 45t38.5 119q0 73 -38.5 118t-94.5 45q-57 0 -95.5 -45
t-38.5 -118q0 -74 38.5 -119t95.5 -45z" />
    <glyph glyph-name="A" unicode="A" horiz-adv-x="652" 
d="M529 0l-64 191h-278l-64 -191h-97l244 700h112l244 -700h-97zM213 269h225l-109 324h-7z" />
    <glyph glyph-name="B" unicode="B" horiz-adv-x="610" 
d="M440 365q117 -44 117 -174q0 -90 -56.5 -140.5t-156.5 -50.5h-257v700h255q97 0 147 -46.5t50 -127.5q0 -110 -99 -156v-5zM176 625v-227h155q56 0 87 31.5t31 84.5q0 52 -31.5 81.5t-83.5 29.5h-158zM337 75q60 0 94 33t34 88q0 56 -35 91.5t-94 35.5h-160v-248h161z
" />
    <glyph glyph-name="C" unicode="C" horiz-adv-x="752" 
d="M700 213q-19 -101 -102 -162t-200 -61q-149 0 -240.5 100t-91.5 257q0 158 92 260.5t240 102.5q114 0 193.5 -61t97.5 -168h-96q-18 67 -69 106t-125 39q-108 0 -174.5 -80.5t-66.5 -198.5q0 -119 67 -196t173 -77q77 0 131 38t75 101h96z" />
    <glyph glyph-name="D" unicode="D" horiz-adv-x="704" 
d="M303 700q163 0 249 -94.5t86 -255.5q0 -159 -85.5 -254.5t-249.5 -95.5h-216v700h216zM298 82q128 0 187.5 73.5t59.5 196.5q0 122 -59.5 194t-187.5 72h-120v-536h120z" />
    <glyph glyph-name="E" unicode="E" horiz-adv-x="586" 
d="M176 81h363v-81h-452v700h442v-81h-353v-224h311v-79h-311v-235z" />
    <glyph glyph-name="F" unicode="F" horiz-adv-x="555" 
d="M516 616h-338v-231h295v-80h-295v-305h-91v700h429v-84z" />
    <glyph glyph-name="G" unicode="G" horiz-adv-x="785" 
d="M400 364h298v-364h-72l-11 81h-7q-82 -91 -221 -91q-146 0 -233.5 98t-87.5 252q0 159 95.5 264.5t247.5 105.5q116 0 191.5 -58t93.5 -151h-98q-18 57 -66.5 91t-120.5 34q-113 0 -182 -80t-69 -205q0 -118 64.5 -193.5t174.5 -75.5q89 0 150 44.5t61 126.5v48h-208v73z
" />
    <glyph glyph-name="H" unicode="H" horiz-adv-x="697" 
d="M520 700h90v-700h-90v313h-342v-313h-91v700h91v-305h342v305z" />
    <glyph glyph-name="I" unicode="I" horiz-adv-x="265" 
d="M178 700v-700h-91v700h91z" />
    <glyph glyph-name="J" unicode="J" horiz-adv-x="538" 
d="M134 201q3 -55 32.5 -91t81.5 -36t82 34.5t30 104.5v487h91v-492q0 -106 -55.5 -162t-147.5 -56q-97 0 -151 57.5t-57 153.5h94z" />
    <glyph glyph-name="K" unicode="K" horiz-adv-x="623" 
d="M491 0l-259 318h-54v-318h-91v700h91v-300h54l233 300h105l-261 -336v-5l287 -359h-105z" />
    <glyph glyph-name="L" unicode="L" horiz-adv-x="576" 
d="M176 82h360v-82h-449v700h89v-618z" />
    <glyph glyph-name="M" unicode="M" horiz-adv-x="878" 
d="M790 700v-700h-89v538h-6l-206 -458h-98l-207 458h-8v-538h-89v700h116l233 -525h7l232 525h115z" />
    <glyph glyph-name="N" unicode="N" horiz-adv-x="738" 
d="M562 700h89v-700h-98l-370 546h-7v-546h-89v700h99l369 -546h7v546z" />
    <glyph glyph-name="O" unicode="O" horiz-adv-x="823" 
d="M412 -10q-148 0 -247 102.5t-99 257.5q0 154 99 257t247 103q147 0 246 -103t99 -257q0 -153 -98.5 -256.5t-246.5 -103.5zM412 74q108 0 180.5 79.5t72.5 196.5t-72.5 196.5t-180.5 79.5t-181 -79.5t-73 -196.5t73 -196.5t181 -79.5z" />
    <glyph glyph-name="P" unicode="P" horiz-adv-x="630" 
d="M344 700q100 0 160 -58t60 -152q0 -98 -61.5 -155.5t-165.5 -57.5h-162v-277h-88v700h257zM329 358q68 0 105 35t37 96t-37 95.5t-98 34.5h-161v-261h154z" />
    <glyph glyph-name="Q" unicode="Q" horiz-adv-x="823" 
d="M508 3q29 -53 111 -53q32 0 76 8v-69q-47 -10 -92 -10q-136 0 -180 111h-11q-148 0 -247 102.5t-99 257.5q0 154 99 257t247 103q147 0 246 -103t99 -257q0 -126 -68.5 -221t-180.5 -126zM158 350q0 -117 73 -196.5t181 -79.5t180.5 79.5t72.5 196.5t-72.5 196.5
t-180.5 79.5t-181 -79.5t-73 -196.5z" />
    <glyph glyph-name="R" unicode="R" horiz-adv-x="623" 
d="M584 0h-100l-172 294h-136v-294h-89v700h247q101 0 159.5 -54t58.5 -144q0 -74 -40 -124t-111 -69zM176 621v-248h146q65 0 102.5 34.5t37.5 90.5q0 59 -37.5 91t-102.5 32h-146z" />
    <glyph glyph-name="S" unicode="S" horiz-adv-x="607" 
d="M537 183q0 -94 -64.5 -143.5t-162.5 -49.5q-110 0 -173.5 55.5t-70.5 154.5h89q8 -63 48 -97t107 -34q59 0 97 28t38 84q0 32 -12.5 55.5t-37 39.5t-44.5 24t-52 18l-35 10q-35 11 -60.5 23t-54.5 33.5t-45 55t-16 76.5q0 88 63 141t160 53q98 0 159.5 -55.5t66.5 -142.5
h-90q-6 53 -40.5 86t-95.5 33q-58 0 -95.5 -31t-37.5 -80q0 -19 5.5 -34.5t18 -27.5t22.5 -20t31 -16t30 -11.5t32 -10.5l31 -10q26 -8 43.5 -15t48 -24.5t49 -37.5t33.5 -54.5t15 -75.5z" />
    <glyph glyph-name="T" unicode="T" horiz-adv-x="575" 
d="M535 700v-82h-202v-618h-91v618h-202v82h495z" />
    <glyph glyph-name="U" unicode="U" horiz-adv-x="717" 
d="M630 700v-436q0 -132 -74 -203t-196 -71q-123 0 -198 71t-75 203v436h91v-430q0 -95 50.5 -145.5t131.5 -50.5t130 50.5t49 145.5v430h91z" />
    <glyph glyph-name="V" unicode="V" horiz-adv-x="659" 
d="M535 700h97l-247 -700h-112l-247 700h98l202 -581h7z" />
    <glyph glyph-name="W" unicode="W" horiz-adv-x="895" 
d="M781 700h87l-156 -700h-105l-156 535h-7l-156 -535h-105l-157 700h89l122 -572h7l153 522h101l152 -522h7z" />
    <glyph glyph-name="X" unicode="X" horiz-adv-x="619" 
d="M487 0l-173 284h-6l-173 -284h-109l223 361l-212 339h108l163 -264h6l164 264h104l-212 -339l223 -361h-106z" />
    <glyph glyph-name="Y" unicode="Y" horiz-adv-x="648" 
d="M512 700h110l-252 -369v-331h-91v331l-253 369h110l185 -270h6z" />
    <glyph glyph-name="Z" unicode="Z" horiz-adv-x="617" 
d="M199 82h348v-82h-481v51l352 562v5h-331v82h458v-51l-346 -562v-5z" />
    <glyph glyph-name="bracketleft" unicode="[" horiz-adv-x="294" 
d="M87 773h181v-65h-105v-812h105v-65h-181v942z" />
    <glyph glyph-name="backslash" unicode="\" horiz-adv-x="496" 
d="M26 750h85l359 -800h-86z" />
    <glyph glyph-name="bracketright" unicode="]" horiz-adv-x="294" 
d="M207 773v-942h-181v65h105v812h-105v65h181z" />
    <glyph glyph-name="asciicircum" unicode="^" 
d="M407 360l-126 252h-6l-127 -252h-92l169 340h105l169 -340h-92z" />
    <glyph glyph-name="underscore" unicode="_" horiz-adv-x="514" 
d="M40 0h435v-75h-435v75z" />
    <glyph glyph-name="grave" unicode="`" horiz-adv-x="322" 
d="M165 700l70 -145h-71l-77 145h78z" />
    <glyph glyph-name="a" unicode="a" horiz-adv-x="529" 
d="M488 68h13v-68h-40q-74 0 -89 64q-58 -74 -165 -74q-74 0 -119.5 36.5t-45.5 106.5q0 68 46.5 106.5t123.5 46.5l149 14v28q0 52 -27 81t-77 29q-90 0 -108 -95h-87q8 74 59.5 120.5t135.5 46.5q87 0 139.5 -48t52.5 -136v-217q0 -41 39 -41zM361 192v44l-121 -12
q-51 -5 -80.5 -27t-29.5 -61t25 -57.5t64 -18.5q57 0 99.5 32.5t42.5 99.5z" />
    <glyph glyph-name="b" unicode="b" horiz-adv-x="600" 
d="M317 510q101 0 165.5 -71t64.5 -188q0 -116 -64.5 -188.5t-165.5 -72.5q-103 0 -161 81h-6l-8 -71h-72v710h87v-276q54 76 160 76zM306 67q68 0 111 51t43 133q0 81 -43 131.5t-111 50.5q-67 0 -108 -50.5t-41 -131.5q0 -83 41 -133.5t108 -50.5z" />
    <glyph glyph-name="c" unicode="c" horiz-adv-x="570" 
d="M301 -10q-112 0 -180.5 73t-68.5 184q0 114 70 188.5t178 74.5q86 0 149.5 -47.5t76.5 -131.5h-88q-10 44 -47 73t-91 29q-70 0 -115 -53t-45 -133q0 -78 44 -129t117 -51q108 0 139 96h88q-14 -79 -75.5 -126t-151.5 -47z" />
    <glyph glyph-name="d" unicode="d" horiz-adv-x="600" 
d="M443 710h87v-710h-72l-8 71h-6q-58 -81 -161 -81q-101 0 -165.5 72.5t-64.5 188.5q0 117 64.5 188t165.5 71q106 0 160 -76v276zM294 67q67 0 108 50.5t41 133.5q0 81 -41 131.5t-108 50.5q-68 0 -111 -50.5t-43 -131.5q0 -82 43 -133t111 -51z" />
    <glyph glyph-name="e" unicode="e" horiz-adv-x="568" 
d="M514 260q0 -7 -2 -31h-373q4 -75 45.5 -121t110.5 -46q49 0 83.5 21.5t47.5 62.5h85q-16 -74 -74 -115t-142 -41q-107 0 -175 70t-68 185q0 119 68 192t171 73q96 0 159.5 -65t63.5 -185zM291 438q-61 0 -102.5 -41.5t-48.5 -103.5h289q-1 65 -39 105t-99 40z" />
    <glyph glyph-name="f" unicode="f" horiz-adv-x="356" 
d="M210 574v-74h117v-71h-117v-429h-88v429h-102v71h102v82q0 61 36.5 94.5t99.5 33.5q42 0 78 -15l-16 -65q-22 7 -47 7q-63 0 -63 -63z" />
    <glyph glyph-name="g" unicode="g" horiz-adv-x="536" 
d="M515 496q-34 -35 -84 -60q31 -43 31 -98q0 -77 -53 -123.5t-135 -46.5q-48 0 -90 17q-33 -17 -33 -45q0 -46 72 -46h98q83 0 128.5 -37t45.5 -104q0 -78 -59.5 -120.5t-157.5 -42.5q-104 0 -161 48t-65 123l84 71q-30 11 -47.5 35t-17.5 56q0 59 64 93q-52 47 -52 122
t52 123.5t136 48.5q66 0 114 -31q46 23 81 69zM274 235q47 0 75.5 29.5t28.5 73.5q0 47 -28 76t-76 29t-77.5 -29t-29.5 -76q0 -44 30 -73.5t77 -29.5zM411 -51q0 39 -30 56.5t-69 17.5h-88l-85 -71q24 -93 139 -93q56 0 94.5 23t38.5 67z" />
    <glyph glyph-name="h" unicode="h" horiz-adv-x="561" 
d="M309 510q82 0 132 -51t50 -145v-314h-87v295q0 69 -32.5 103.5t-84.5 34.5q-55 0 -92.5 -37.5t-37.5 -110.5v-285h-87v710h87v-270h7q51 70 145 70z" />
    <glyph glyph-name="i" unicode="i" horiz-adv-x="227" 
d="M114 580q-24 0 -41.5 17t-17.5 41t17.5 40.5t41.5 16.5q23 0 40 -16.5t17 -40.5t-17 -41t-40 -17zM70 0v500h87v-500h-87z" />
    <glyph glyph-name="j" unicode="j" horiz-adv-x="227" 
d="M114 580q-24 0 -41.5 17t-17.5 41t17.5 40.5t41.5 16.5q23 0 40 -16.5t17 -40.5t-17 -41t-40 -17zM29 -210q-36 0 -73 11v67q26 -7 49 -7q65 0 65 63v576h87v-587q0 -52 -28.5 -87.5t-99.5 -35.5z" />
    <glyph glyph-name="k" unicode="k" horiz-adv-x="511" 
d="M490 500l-205 -202l205 -298h-98l-167 239l-68 -67v-172h-87v710h87v-425h7l219 215h107z" />
    <glyph glyph-name="l" unicode="l" horiz-adv-x="227" 
d="M70 0v710h87v-710h-87z" />
    <glyph glyph-name="m" unicode="m" horiz-adv-x="829" 
d="M70 0v500h79l8 -60h7q48 70 135 70q99 0 136 -88h6q49 88 154 88q74 0 119 -45t45 -130v-335h-88v318q0 56 -29 85.5t-72 29.5q-50 0 -81 -35.5t-31 -92.5v-305h-88v311q0 59 -28.5 90.5t-72.5 31.5t-78 -32.5t-34 -93.5v-307h-87z" />
    <glyph glyph-name="n" unicode="n" horiz-adv-x="561" 
d="M70 0v500h79l8 -60h7q51 70 145 70q82 0 132 -51t50 -145v-314h-87v295q0 69 -32.5 103.5t-84.5 34.5q-55 0 -92.5 -37.5t-37.5 -110.5v-285h-87z" />
    <glyph glyph-name="o" unicode="o" horiz-adv-x="607" 
d="M303 -10q-108 0 -179.5 74.5t-71.5 185.5q0 113 71 186.5t180 73.5q108 0 180 -74t72 -186t-71.5 -186t-180.5 -74zM303 67q72 0 118.5 53.5t46.5 129.5q0 77 -46.5 130t-118.5 53q-73 0 -118 -53t-45 -130q0 -76 45.5 -129.5t117.5 -53.5z" />
    <glyph glyph-name="p" unicode="p" horiz-adv-x="600" 
d="M317 510q101 0 165.5 -72.5t64.5 -188.5q0 -117 -64.5 -188t-165.5 -71q-106 0 -160 76v-266h-87v700h72l8 -71h6q58 81 161 81zM306 67q68 0 111 50.5t43 131.5q0 82 -43 133t-111 51q-67 0 -108 -50.5t-41 -133.5q0 -81 41 -131.5t108 -50.5z" />
    <glyph glyph-name="q" unicode="q" horiz-adv-x="600" 
d="M458 500h72v-700h-87v266q-54 -76 -160 -76q-101 0 -165.5 71t-64.5 188q0 116 64.5 188.5t165.5 72.5q103 0 161 -81h6zM294 67q67 0 108 50.5t41 131.5q0 83 -41 133.5t-108 50.5q-68 0 -111 -51t-43 -133q0 -81 43 -131.5t111 -50.5z" />
    <glyph glyph-name="r" unicode="r" horiz-adv-x="356" 
d="M70 0v500h79l8 -69h7q22 38 54 58.5t89 20.5h29v-88q-15 2 -45 2q-64 0 -99 -44.5t-35 -117.5v-262h-87z" />
    <glyph glyph-name="s" unicode="s" horiz-adv-x="477" 
d="M248 -10q-93 0 -142.5 44t-53.5 118h85q9 -93 111 -93q40 0 66.5 17.5t26.5 52.5q0 37 -27.5 57t-75.5 34l-34 9q-28 8 -47 16t-42 23.5t-35 40.5t-12 58q0 65 49.5 104t119.5 39q84 0 130 -42t49 -101h-85q-3 33 -28 53.5t-65 20.5q-37 0 -61.5 -18t-24.5 -52
q0 -17 7 -29.5t22.5 -21.5t28 -14t36.5 -12l32 -10q66 -18 106.5 -52.5t40.5 -100.5q0 -70 -50 -105.5t-127 -35.5z" />
    <glyph glyph-name="t" unicode="t" horiz-adv-x="358" 
d="M254 -10q-71 0 -99.5 35.5t-28.5 87.5v316h-106v71h34q44 0 62 16.5t18 57.5v62h80v-136h125v-71h-125v-304q0 -63 63 -63q24 0 50 8v-69q-40 -11 -73 -11z" />
    <glyph glyph-name="u" unicode="u" horiz-adv-x="561" 
d="M491 500v-500h-79l-8 60h-7q-51 -70 -145 -70q-82 0 -132 51t-50 145v314h87v-295q0 -69 32.5 -103.5t84.5 -34.5q56 0 93 37.5t37 110.5v285h87z" />
    <glyph glyph-name="v" unicode="v" horiz-adv-x="531" 
d="M211 0l-190 500h91l150 -409h7l150 409h91l-190 -500h-109z" />
    <glyph glyph-name="w" unicode="w" horiz-adv-x="720" 
d="M147 0l-126 500h83l93 -399h7l108 363h97l107 -363h7l94 399h83l-128 -500h-102l-106 367h-7l-109 -367h-101z" />
    <glyph glyph-name="x" unicode="x" horiz-adv-x="499" 
d="M21 0l173 259l-159 241h100l112 -172h6l110 172h99l-156 -241l172 -259h-101l-124 191h-6l-126 -191h-100z" />
    <glyph glyph-name="y" unicode="y" horiz-adv-x="531" 
d="M127 -210q-31 0 -71 11v67q32 -7 54 -7q77 0 107 74l26 65h-30l-192 500h91l154 -409h7l146 409h91l-210 -578q-6 -18 -11.5 -29.5t-19.5 -33t-31 -35t-46.5 -24t-64.5 -10.5z" />
    <glyph glyph-name="z" unicode="z" horiz-adv-x="481" 
d="M52 0v44l252 381v5h-236v70h356v-44l-251 -381v-5h254v-70h-375z" />
    <glyph glyph-name="braceleft" unicode="{" horiz-adv-x="281" 
d="M175 413q0 -77 -66 -108v-6q66 -29 66 -108v-232q0 -63 57 -63h23v-65h-38q-117 0 -117 120v233q0 81 -74 88v60q74 7 74 88v233q0 120 117 120h38v-65h-23q-57 0 -57 -64v-231z" />
    <glyph glyph-name="bar" unicode="|" horiz-adv-x="256" 
d="M169 770v-910h-82v910h82z" />
    <glyph glyph-name="braceright" unicode="}" horiz-adv-x="281" 
d="M106 413v231q0 64 -56 64h-24v65h38q117 0 117 -120v-233q0 -81 74 -88v-60q-74 -7 -74 -88v-233q0 -120 -117 -120h-38v65h24q56 0 56 63v232q0 79 66 108v6q-66 31 -66 108z" />
    <glyph glyph-name="asciitilde" unicode="~" 
d="M531 357q-6 -70 -43 -117.5t-102 -47.5q-40 0 -72 16.5t-49.5 36t-41 36t-48.5 16.5q-68 0 -79 -93h-72q7 71 44 118t102 47q40 0 72 -16.5t49 -36t41 -36t49 -16.5q35 0 54.5 26t24.5 67h71z" />
    <glyph glyph-name="uni00A0" unicode="&#xa0;" horiz-adv-x="250" 
 />
    <glyph glyph-name="exclamdown" unicode="&#xa1;" horiz-adv-x="266" 
d="M133 505q25 0 43 -17.5t18 -41.5q0 -25 -18 -42.5t-43 -17.5q-24 0 -41.5 17.5t-17.5 42.5q0 24 17.5 41.5t41.5 17.5zM180 -200h-92l15 506h61z" />
    <glyph glyph-name="cent" unicode="&#xa2;" horiz-adv-x="533" 
d="M499 240q-14 -69 -64.5 -112.5t-125.5 -50.5v-76h-73v79q-87 15 -138 81t-51 159q0 95 52.5 162.5t136.5 83.5v75h73v-72q73 -8 124.5 -52.5t63.5 -117.5h-84q-8 35 -35.5 61.5t-68.5 33.5v-343q80 12 106 89h84zM130 320q0 -60 28 -104.5t78 -59.5v333q-48 -16 -77 -62
t-29 -107z" />
    <glyph glyph-name="sterling" unicode="&#xa3;" horiz-adv-x="608" 
d="M214 73h324v-73h-472v55q58 20 100 63t42 99q0 27 -10 54h-132v66h93q-18 26 -26.5 40t-17.5 40t-9 53q0 85 64 132.5t159 47.5q74 0 128 -31.5t79 -79.5l-62 -48q-50 81 -141 81q-61 0 -96.5 -29.5t-35.5 -79.5q0 -18 7 -36.5t13.5 -28.5t22.5 -32t21 -29h204v-66h-172
q6 -21 6 -45q0 -88 -89 -148v-5z" />
    <glyph glyph-name="currency" unicode="&#xa4;" horiz-adv-x="621" 
d="M528 250q0 -70 -39 -125l79 -78l-56 -54l-78 78q-55 -38 -124 -38t-124 38l-80 -78l-54 54l79 79q-38 57 -38 124q0 69 38 124l-79 79l54 54l80 -78q55 38 125 38q69 0 123 -38l78 78l56 -54l-79 -78q39 -55 39 -125zM311 113q56 0 95.5 41t39.5 96t-39.5 96t-95.5 41
q-57 0 -97.5 -41t-40.5 -96t40.5 -96t97.5 -41z" />
    <glyph glyph-name="yen" unicode="&#xa5;" horiz-adv-x="591" 
d="M564 640l-171 -242h134v-71h-184v-104h184v-71h-184v-152h-95v152h-184v71h184v104h-184v71h134l-172 242h104l162 -227h7l161 227h104z" />
    <glyph glyph-name="brokenbar" unicode="&#xa6;" horiz-adv-x="256" 
d="M87 770h82v-355h-82v355zM87 -140v355h82v-355h-82z" />
    <glyph glyph-name="section" unicode="&#xa7;" horiz-adv-x="605" 
d="M421 96q104 -39 104 -133q0 -81 -64.5 -127t-162.5 -46q-109 0 -170 56t-59 135h85q2 -48 40 -81.5t106 -33.5q61 0 99 25.5t38 70.5q0 22 -11 39.5t-24.5 27t-39 17.5t-41 11t-43.5 7q-99 15 -155.5 61.5t-56.5 122.5q0 58 34.5 96.5t83.5 55.5v4q-104 39 -104 134
q0 81 64.5 126.5t162.5 45.5q109 0 170 -56t59 -135h-85q-2 48 -40 81.5t-106 33.5q-61 0 -99 -25.5t-38 -70.5q0 -22 11 -39t24.5 -27t39 -17.5t41 -10.5t43.5 -7q100 -16 156 -62.5t56 -122.5q0 -57 -34.5 -95.5t-83.5 -55.5v-5zM312 135q59 0 99 31t40 82q0 52 -48 84.5
t-110 32.5q-59 0 -99 -31t-40 -82q0 -52 48 -84.5t110 -32.5z" />
    <glyph glyph-name="dieresis" unicode="&#xa8;" horiz-adv-x="466" 
d="M142 558q-22 0 -38.5 16t-16.5 39t16 39t39 16t39 -16t16 -39t-16.5 -39t-38.5 -16zM325 558q-22 0 -38 16t-16 39t15.5 39t38.5 16t38.5 -16t15.5 -39t-16 -39t-38 -16z" />
    <glyph glyph-name="copyright" unicode="&#xa9;" horiz-adv-x="852" 
d="M426 -10q-149 0 -254.5 105t-105.5 255t105.5 255t254.5 105q148 0 254 -105t106 -255t-106 -255t-254 -105zM425 48q124 0 212.5 89t88.5 213t-88.5 213t-212.5 89q-123 0 -211 -89t-88 -213t88 -213t211 -89zM576 286q-6 -55 -48.5 -86t-99.5 -31q-76 0 -120.5 49
t-44.5 131q0 80 45.5 130t116.5 50q58 0 97.5 -30t48.5 -90h-69q-16 59 -76 59q-41 0 -66 -33.5t-25 -86.5q0 -55 25 -86.5t69 -31.5q30 0 50.5 15.5t27.5 40.5h69z" />
    <glyph glyph-name="guillemotleft" unicode="&#xab;" horiz-adv-x="535" 
d="M157 500h99l-133 -202l133 -202h-99l-131 202zM384 500h99l-133 -202l133 -202h-99l-131 202z" />
    <glyph glyph-name="logicalnot" unicode="&#xac;" horiz-adv-x="555" 
d="M489 145h-76v194h-359v70h435v-264z" />
    <glyph glyph-name="uni00AD" unicode="&#xad;" horiz-adv-x="446" 
d="M40 349h367v-76h-367v76z" />
    <glyph glyph-name="registered" unicode="&#xae;" horiz-adv-x="852" 
d="M426 710q148 0 254 -105t106 -255t-106 -255t-254 -105q-149 0 -254.5 105t-105.5 255t105.5 255t254.5 105zM425 48q124 0 212.5 89t88.5 213t-88.5 213t-212.5 89q-123 0 -211 -89t-88 -213t88 -213t211 -89zM550 420q0 -70 -65 -96l83 -149h-69l-75 136h-52v-136h-63
v350h132q51 0 80 -28.5t29 -76.5zM372 470v-104h58q26 0 41 14.5t15 38.5t-14.5 37.5t-41.5 13.5h-58z" />
    <glyph glyph-name="macron" unicode="&#xaf;" horiz-adv-x="476" 
d="M87 645h301v-64h-301v64z" />
    <glyph glyph-name="degree" unicode="&#xb0;" horiz-adv-x="424" 
d="M212 393q-66 0 -113 46t-47 112t47 112.5t113 46.5q65 0 112 -46.5t47 -112.5t-47 -112t-112 -46zM212 460q40 0 65.5 26t25.5 65q0 40 -25.5 65.5t-65.5 25.5q-39 0 -65 -25.5t-26 -65.5q0 -39 26 -65t65 -26z" />
    <glyph glyph-name="plusminus" unicode="&#xb1;" 
d="M317 384h179v-69h-179v-175h-79v175h-179v69h179v174h79v-174zM59 0v73h437v-73h-437z" />
    <glyph glyph-name="uni00B2" unicode="&#xb2;" horiz-adv-x="340" 
d="M167 471q-53 -34 -57 -78h192v-52h-265v23q0 91 85 145l61 38q18 11 27.5 18.5t19 22.5t9.5 32q0 26 -17.5 42t-45.5 16q-33 0 -52.5 -21.5t-21.5 -48.5h-64q3 48 39.5 85.5t101.5 37.5q56 0 90 -29.5t34 -78.5q0 -30 -14.5 -54.5t-25.5 -33.5t-30 -21z" />
    <glyph glyph-name="uni00B3" unicode="&#xb3;" horiz-adv-x="357" 
d="M253 538q31 -10 49 -34t18 -57q0 -48 -40.5 -80t-104.5 -32q-62 0 -97.5 30.5t-40.5 84.5h62q10 -62 76 -62q35 0 57.5 17t22.5 45t-20.5 45.5t-54.5 17.5h-39v48h36q30 0 48.5 16t18.5 43t-19 43t-49 16q-28 0 -47.5 -14.5t-25.5 -40.5h-61q4 47 43.5 76.5t92.5 29.5
q54 0 91 -29.5t37 -77.5q0 -53 -53 -82v-3z" />
    <glyph glyph-name="acute" unicode="&#xb4;" horiz-adv-x="322" 
d="M157 700h78l-77 -145h-71z" />
    <glyph glyph-name="uni00B5" unicode="&#xb5;" horiz-adv-x="561" 
d="M404 500h87v-500h-79l-8 60h-7q-51 -70 -145 -70q-58 0 -98 31v-221h-84v700h87v-295q0 -69 32.5 -103.5t84.5 -34.5q56 0 93 37.5t37 110.5v285z" />
    <glyph glyph-name="paragraph" unicode="&#xb6;" horiz-adv-x="674" 
d="M52 512q0 83 59 135.5t148 52.5h375v-78h-91v-622h-83v622h-116v-622h-85v323q-87 0 -147 52.5t-60 136.5z" />
    <glyph glyph-name="periodcentered" unicode="&#xb7;" horiz-adv-x="198" 
d="M100 251q-25 0 -42.5 17.5t-17.5 41.5q0 25 17.5 43t42.5 18q24 0 41.5 -18t17.5 -43q0 -24 -17.5 -41.5t-41.5 -17.5z" />
    <glyph glyph-name="cedilla" unicode="&#xb8;" horiz-adv-x="348" 
d="M105 -149q30 -16 52 -16q24 0 37.5 11.5t13.5 29.5q0 42 -53 42q-14 0 -34 -8l-30 25l52 75h50v-10l-31 -44q38 3 68.5 -19.5t30.5 -63.5q0 -38 -27 -60.5t-74 -22.5q-44 0 -73 21z" />
    <glyph glyph-name="uni00B9" unicode="&#xb9;" horiz-adv-x="237" 
d="M118 340v266h-81v50h38q50 0 50 49v20h56v-385h-63z" />
    <glyph glyph-name="guillemotright" unicode="&#xbb;" horiz-adv-x="535" 
d="M151 96h-99l133 202l-133 202h99l131 -202zM378 96h-99l133 202l-133 202h99l131 -202z" />
    <glyph glyph-name="onequarter" unicode="&#xbc;" horiz-adv-x="844" 
d="M169 315v266h-82v50h38q50 0 50 49v20h57v-385h-63zM696 700l-498 -700h-75l498 700h75zM756 134v-48h-71v-86h-59v86h-185v31l180 268h64v-251h71zM513 134h113v169h-5z" />
    <glyph glyph-name="onehalf" unicode="&#xbd;" horiz-adv-x="881" 
d="M169 315v266h-82v50h38q50 0 50 49v20h57v-385h-63zM696 700l-498 -700h-74l498 700h74zM656 130q-52 -34 -56 -78h192v-52h-265v23q0 90 84 145l62 38q18 11 27.5 18.5t19 22.5t9.5 32q0 26 -18 42t-46 16q-33 0 -52 -21.5t-21 -48.5h-64q2 48 38.5 85.5t102.5 37.5
q56 0 90 -29.5t34 -78.5q0 -30 -15 -55t-25 -32.5t-30 -21.5z" />
    <glyph glyph-name="threequarters" unicode="&#xbe;" horiz-adv-x="918" 
d="M303 513q31 -10 49 -34t18 -57q0 -49 -40 -80.5t-104 -31.5q-61 0 -97.5 30.5t-41.5 84.5h62q10 -62 77 -62q35 0 57.5 17t22.5 45t-20.5 45.5t-55.5 17.5h-38v48h35q30 0 48.5 16t18.5 43t-19 43t-49 16q-27 0 -47 -14.5t-26 -40.5h-60q3 47 42.5 76.5t93.5 29.5
t91 -29.5t37 -77.5q0 -53 -54 -82v-3zM771 700l-498 -700h-75l498 700h75zM830 134v-48h-71v-86h-59v86h-185v31l180 268h64v-251h71zM587 134h113v169h-4z" />
    <glyph glyph-name="questiondown" unicode="&#xbf;" horiz-adv-x="456" 
d="M243 505q25 0 43 -17.5t18 -41.5q0 -25 -18 -42.5t-43 -17.5q-24 0 -41 17.5t-17 42.5q0 24 17 41.5t41 17.5zM286 257q0 -61 -17 -102t-67 -80q-47 -37 -64 -60t-17 -58q0 -41 25 -66t72 -25q50 0 75.5 30.5t29.5 72.5h81q-3 -70 -48 -124.5t-138 -54.5q-84 0 -131 44
t-47 120q0 54 23 88.5t75 75.5q37 29 52 62.5t15 82.5v43h81v-49z" />
    <glyph glyph-name="Agrave" unicode="&#xc0;" horiz-adv-x="652" 
d="M362 755h-70l-77 145h78zM529 0l-64 191h-278l-64 -191h-97l244 700h112l244 -700h-97zM213 269h225l-109 324h-7z" />
    <glyph glyph-name="Aacute" unicode="&#xc1;" horiz-adv-x="652" 
d="M439 900l-77 -145h-71l70 145h78zM529 0l-64 191h-278l-64 -191h-97l244 700h112l244 -700h-97zM213 269h225l-109 324h-7z" />
    <glyph glyph-name="Acircumflex" unicode="&#xc2;" horiz-adv-x="652" 
d="M323 845l-58 -86h-79l101 141h78l102 -141h-79l-59 86h-6zM529 0l-64 191h-278l-64 -191h-97l244 700h112l244 -700h-97zM213 269h225l-109 324h-7z" />
    <glyph glyph-name="Atilde" unicode="&#xc3;" horiz-adv-x="652" 
d="M263 812q-40 0 -46 -55h-63q5 52 30.5 85.5t70.5 33.5q26 0 47 -10t32 -22t25.5 -22t29.5 -10q41 0 47 55h62q-3 -49 -29 -83.5t-71 -34.5q-25 0 -46 10t-32.5 21.5t-26.5 21.5t-30 10zM529 0l-64 191h-278l-64 -191h-97l244 700h112l244 -700h-97zM213 269h225l-109 324
h-7z" />
    <glyph glyph-name="Adieresis" unicode="&#xc4;" horiz-adv-x="652" 
d="M212 766q-25 0 -43 17.5t-18 42.5t18 42.5t43 17.5t42.5 -17.5t17.5 -42.5t-17.5 -42.5t-42.5 -17.5zM441 766q-24 0 -41.5 17.5t-17.5 42.5t17.5 42.5t41.5 17.5q25 0 43 -17.5t18 -42.5t-18 -42.5t-43 -17.5zM529 0l-64 191h-278l-64 -191h-97l244 700h112l244 -700
h-97zM213 269h225l-109 324h-7z" />
    <glyph glyph-name="Aring" unicode="&#xc5;" horiz-adv-x="652" 
d="M327 741q-39 0 -67.5 28.5t-28.5 66.5q0 39 28.5 67t67.5 28t67.5 -28t28.5 -67q0 -38 -28.5 -66.5t-67.5 -28.5zM328 879q-18 0 -30.5 -12.5t-12.5 -30.5t12.5 -31t30.5 -13q17 0 29 13t12 31q0 17 -12.5 30t-28.5 13zM529 0l-64 191h-278l-64 -191h-97l244 700h112
l244 -700h-97zM213 269h225l-109 324h-7z" />
    <glyph glyph-name="AE" unicode="&#xc6;" horiz-adv-x="1009" 
d="M613 81h348v-81h-436v191h-268l-124 -191h-107l451 700h474v-81h-338v-224h297v-79h-297v-235zM308 269h217v324h-7z" />
    <glyph glyph-name="Ccedilla" unicode="&#xc7;" horiz-adv-x="752" 
d="M700 213q-19 -96 -95 -156t-185 -66l-24 -35q37 2 67.5 -20t30.5 -63q0 -38 -26.5 -60.5t-73.5 -22.5q-44 0 -73 21l18 40q28 -16 52 -16t37.5 11.5t13.5 29.5t-13.5 30t-39.5 12q-16 0 -34 -8l-30 25l39 56q-135 12 -216.5 110.5t-81.5 245.5q0 158 92 260.5t240 102.5
q114 0 193.5 -61t97.5 -168h-96q-18 67 -69 106t-125 39q-108 0 -174.5 -80.5t-66.5 -198.5q0 -119 67 -196t173 -77q77 0 131 38t75 101h96z" />
    <glyph glyph-name="Egrave" unicode="&#xc8;" horiz-adv-x="586" 
d="M275 900l69 -145h-70l-77 145h78zM176 81h363v-81h-452v700h442v-81h-353v-224h311v-79h-311v-235z" />
    <glyph glyph-name="Eacute" unicode="&#xc9;" horiz-adv-x="586" 
d="M343 900h78l-77 -145h-71zM176 81h363v-81h-452v700h442v-81h-353v-224h311v-79h-311v-235z" />
    <glyph glyph-name="Ecircumflex" unicode="&#xca;" horiz-adv-x="586" 
d="M247 759h-79l101 141h78l102 -141h-79l-59 86h-6zM176 81h363v-81h-452v700h442v-81h-353v-224h311v-79h-311v-235z" />
    <glyph glyph-name="Edieresis" unicode="&#xcb;" horiz-adv-x="586" 
d="M194 766q-25 0 -43 17.5t-18 42.5t18 42.5t43 17.5t42.5 -17.5t17.5 -42.5t-17.5 -42.5t-42.5 -17.5zM423 766q-24 0 -41.5 17.5t-17.5 42.5t17.5 42.5t41.5 17.5q25 0 43 -17.5t18 -42.5t-18 -42.5t-43 -17.5zM176 81h363v-81h-452v700h442v-81h-353v-224h311v-79h-311
v-235z" />
    <glyph glyph-name="Igrave" unicode="&#xcc;" horiz-adv-x="265" 
d="M99 900l69 -145h-70l-77 145h78zM178 700v-700h-91v700h91z" />
    <glyph glyph-name="Iacute" unicode="&#xcd;" horiz-adv-x="265" 
d="M167 900h78l-77 -145h-71zM178 700v-700h-91v700h91z" />
    <glyph glyph-name="Icircumflex" unicode="&#xce;" horiz-adv-x="265" 
d="M71 759h-79l101 141h78l102 -141h-79l-59 86h-6zM178 700v-700h-91v700h91z" />
    <glyph glyph-name="Idieresis" unicode="&#xcf;" horiz-adv-x="265" 
d="M19 766q-25 0 -43 17.5t-18 42.5t18 42.5t43 17.5t42.5 -17.5t17.5 -42.5t-17.5 -42.5t-42.5 -17.5zM248 766q-24 0 -41.5 17.5t-17.5 42.5t17.5 42.5t41.5 17.5q25 0 43 -17.5t18 -42.5t-18 -42.5t-43 -17.5zM178 700v-700h-91v700h91z" />
    <glyph glyph-name="Eth" unicode="&#xd0;" horiz-adv-x="704" 
d="M303 700q163 0 249 -94.5t86 -255.5q0 -159 -85.5 -254.5t-249.5 -95.5h-216v315h-116v69h116v316h216zM298 82q128 0 187.5 73.5t59.5 196.5q0 122 -59.5 194t-187.5 72h-120v-234h177v-69h-177v-233h120z" />
    <glyph glyph-name="Ntilde" unicode="&#xd1;" horiz-adv-x="738" 
d="M541 867q-3 -49 -29 -83.5t-71 -34.5q-25 0 -46 10t-32.5 21.5t-26.5 21.5t-30 10q-40 0 -46 -55h-63q5 52 30.5 85.5t70.5 33.5q26 0 47 -10t32 -22t25.5 -22t29.5 -10q41 0 47 55h62zM562 700h89v-700h-98l-370 546h-7v-546h-89v700h99l369 -546h7v546z" />
    <glyph glyph-name="Ograve" unicode="&#xd2;" horiz-adv-x="823" 
d="M378 900l69 -145h-70l-77 145h78zM412 -10q-148 0 -247 102.5t-99 257.5q0 154 99 257t247 103q147 0 246 -103t99 -257q0 -153 -98.5 -256.5t-246.5 -103.5zM412 74q108 0 180.5 79.5t72.5 196.5t-72.5 196.5t-180.5 79.5t-181 -79.5t-73 -196.5t73 -196.5t181 -79.5z
" />
    <glyph glyph-name="Oacute" unicode="&#xd3;" horiz-adv-x="823" 
d="M446 900h78l-77 -145h-71zM412 -10q-148 0 -247 102.5t-99 257.5q0 154 99 257t247 103q147 0 246 -103t99 -257q0 -153 -98.5 -256.5t-246.5 -103.5zM412 74q108 0 180.5 79.5t72.5 196.5t-72.5 196.5t-180.5 79.5t-181 -79.5t-73 -196.5t73 -196.5t181 -79.5z" />
    <glyph glyph-name="Ocircumflex" unicode="&#xd4;" horiz-adv-x="823" 
d="M350 759h-79l101 141h78l102 -141h-79l-59 86h-6zM412 -10q-148 0 -247 102.5t-99 257.5q0 154 99 257t247 103q147 0 246 -103t99 -257q0 -153 -98.5 -256.5t-246.5 -103.5zM412 74q108 0 180.5 79.5t72.5 196.5t-72.5 196.5t-180.5 79.5t-181 -79.5t-73 -196.5
t73 -196.5t181 -79.5z" />
    <glyph glyph-name="Otilde" unicode="&#xd5;" horiz-adv-x="823" 
d="M584 867q-3 -49 -29 -83.5t-71 -34.5q-25 0 -46 10t-32.5 21.5t-26.5 21.5t-30 10q-40 0 -46 -55h-63q5 52 30.5 85.5t70.5 33.5q26 0 47 -10t32 -22t25.5 -22t29.5 -10q41 0 47 55h62zM412 -10q-148 0 -247 102.5t-99 257.5q0 154 99 257t247 103q147 0 246 -103
t99 -257q0 -153 -98.5 -256.5t-246.5 -103.5zM412 74q108 0 180.5 79.5t72.5 196.5t-72.5 196.5t-180.5 79.5t-181 -79.5t-73 -196.5t73 -196.5t181 -79.5z" />
    <glyph glyph-name="Odieresis" unicode="&#xd6;" horiz-adv-x="823" 
d="M298 766q-25 0 -43 17.5t-18 42.5t18 42.5t43 17.5t42.5 -17.5t17.5 -42.5t-17.5 -42.5t-42.5 -17.5zM527 766q-24 0 -41.5 17.5t-17.5 42.5t17.5 42.5t41.5 17.5q25 0 43 -17.5t18 -42.5t-18 -42.5t-43 -17.5zM412 -10q-148 0 -247 102.5t-99 257.5q0 154 99 257
t247 103q147 0 246 -103t99 -257q0 -153 -98.5 -256.5t-246.5 -103.5zM412 74q108 0 180.5 79.5t72.5 196.5t-72.5 196.5t-180.5 79.5t-181 -79.5t-73 -196.5t73 -196.5t181 -79.5z" />
    <glyph glyph-name="multiply" unicode="&#xd7;" 
d="M494 440l-163 -160l163 -160l-53 -53l-163 160l-163 -160l-54 53l163 160l-163 160l52 54l165 -161l164 161z" />
    <glyph glyph-name="Oslash" unicode="&#xd8;" horiz-adv-x="823" 
d="M649 616q108 -105 108 -266q0 -153 -98.5 -256.5t-246.5 -103.5q-101 0 -182 50l-62 -86l-58 41l64 89q-108 103 -108 266q0 154 99 257t247 103q97 0 179 -49l62 86l60 -42zM155 350q0 -117 70 -195l317 438q-59 36 -130 36q-110 0 -183.5 -80t-73.5 -199zM412 71
q110 0 183.5 80t73.5 199q0 115 -71 196l-318 -438q59 -37 132 -37z" />
    <glyph glyph-name="Ugrave" unicode="&#xd9;" horiz-adv-x="717" 
d="M325 900l69 -145h-70l-77 145h78zM630 700v-436q0 -132 -74 -203t-196 -71q-123 0 -198 71t-75 203v436h91v-430q0 -95 50.5 -145.5t131.5 -50.5t130 50.5t49 145.5v430h91z" />
    <glyph glyph-name="Uacute" unicode="&#xda;" horiz-adv-x="717" 
d="M393 900h78l-77 -145h-71zM630 700v-436q0 -132 -74 -203t-196 -71q-123 0 -198 71t-75 203v436h91v-430q0 -95 50.5 -145.5t131.5 -50.5t130 50.5t49 145.5v430h91z" />
    <glyph glyph-name="Ucircumflex" unicode="&#xdb;" horiz-adv-x="717" 
d="M297 759h-79l101 141h78l102 -141h-79l-59 86h-6zM630 700v-436q0 -132 -74 -203t-196 -71q-123 0 -198 71t-75 203v436h91v-430q0 -95 50.5 -145.5t131.5 -50.5t130 50.5t49 145.5v430h91z" />
    <glyph glyph-name="Udieresis" unicode="&#xdc;" horiz-adv-x="717" 
d="M245 766q-25 0 -43 17.5t-18 42.5t18 42.5t43 17.5t42.5 -17.5t17.5 -42.5t-17.5 -42.5t-42.5 -17.5zM474 766q-24 0 -41.5 17.5t-17.5 42.5t17.5 42.5t41.5 17.5q25 0 43 -17.5t18 -42.5t-18 -42.5t-43 -17.5zM630 700v-436q0 -132 -74 -203t-196 -71q-123 0 -198 71
t-75 203v436h91v-430q0 -95 50.5 -145.5t131.5 -50.5t130 50.5t49 145.5v430h91z" />
    <glyph glyph-name="Yacute" unicode="&#xdd;" horiz-adv-x="648" 
d="M358 900h78l-77 -145h-71zM512 700h110l-252 -369v-331h-91v331l-253 369h110l185 -270h6z" />
    <glyph glyph-name="Thorn" unicode="&#xde;" horiz-adv-x="617" 
d="M331 561q100 0 160 -58t60 -152q0 -98 -61.5 -155.5t-165.5 -57.5h-149v-138h-88v700h88v-139h156zM316 219q68 0 105.5 35t37.5 96t-37.5 95.5t-98.5 34.5h-148v-261h141z" />
    <glyph glyph-name="germandbls" unicode="&#xdf;" horiz-adv-x="553" 
d="M370 370q130 -39 130 -183q0 -94 -50 -145.5t-139 -51.5q-45 0 -92 15v68q41 -12 79 -12q55 0 87.5 33.5t32.5 96.5q0 137 -155 137h-44v71h38q61 0 96.5 31.5t35.5 88.5q0 53 -30 85.5t-84 32.5q-52 0 -85.5 -32.5t-33.5 -97.5v-507h-86v504q0 97 54 151.5t150 54.5
q91 0 145 -48t54 -129q0 -111 -103 -158v-5z" />
    <glyph glyph-name="agrave" unicode="&#xe0;" horiz-adv-x="529" 
d="M288 555h-70l-77 145h78zM488 68h13v-68h-40q-74 0 -89 64q-58 -74 -165 -74q-74 0 -119.5 36.5t-45.5 106.5q0 68 46.5 106.5t123.5 46.5l149 14v28q0 52 -27 81t-77 29q-90 0 -108 -95h-87q8 74 59.5 120.5t135.5 46.5q87 0 139.5 -48t52.5 -136v-217q0 -41 39 -41z
M361 192v44l-121 -12q-51 -5 -80.5 -27t-29.5 -61t25 -57.5t64 -18.5q57 0 99.5 32.5t42.5 99.5z" />
    <glyph glyph-name="aacute" unicode="&#xe1;" horiz-adv-x="529" 
d="M365 700l-77 -145h-71l70 145h78zM488 68h13v-68h-40q-74 0 -89 64q-58 -74 -165 -74q-74 0 -119.5 36.5t-45.5 106.5q0 68 46.5 106.5t123.5 46.5l149 14v28q0 52 -27 81t-77 29q-90 0 -108 -95h-87q8 74 59.5 120.5t135.5 46.5q87 0 139.5 -48t52.5 -136v-217
q0 -41 39 -41zM361 192v44l-121 -12q-51 -5 -80.5 -27t-29.5 -61t25 -57.5t64 -18.5q57 0 99.5 32.5t42.5 99.5z" />
    <glyph glyph-name="acircumflex" unicode="&#xe2;" horiz-adv-x="529" 
d="M249 645l-58 -86h-79l101 141h78l102 -141h-79l-59 86h-6zM488 68h13v-68h-40q-74 0 -89 64q-58 -74 -165 -74q-74 0 -119.5 36.5t-45.5 106.5q0 68 46.5 106.5t123.5 46.5l149 14v28q0 52 -27 81t-77 29q-90 0 -108 -95h-87q8 74 59.5 120.5t135.5 46.5q87 0 139.5 -48
t52.5 -136v-217q0 -41 39 -41zM361 192v44l-121 -12q-51 -5 -80.5 -27t-29.5 -61t25 -57.5t64 -18.5q57 0 99.5 32.5t42.5 99.5z" />
    <glyph glyph-name="atilde" unicode="&#xe3;" horiz-adv-x="529" 
d="M189 612q-40 0 -46 -55h-63q5 52 30.5 85.5t70.5 33.5q26 0 47 -10t32 -22t25.5 -22t29.5 -10q41 0 47 55h62q-3 -49 -29 -83.5t-71 -34.5q-25 0 -46 10t-32.5 21.5t-26.5 21.5t-30 10zM488 68h13v-68h-40q-74 0 -89 64q-58 -74 -165 -74q-74 0 -119.5 36.5t-45.5 106.5
q0 68 46.5 106.5t123.5 46.5l149 14v28q0 52 -27 81t-77 29q-90 0 -108 -95h-87q8 74 59.5 120.5t135.5 46.5q87 0 139.5 -48t52.5 -136v-217q0 -41 39 -41zM361 192v44l-121 -12q-51 -5 -80.5 -27t-29.5 -61t25 -57.5t64 -18.5q57 0 99.5 32.5t42.5 99.5z" />
    <glyph glyph-name="adieresis" unicode="&#xe4;" horiz-adv-x="529" 
d="M162 558q-22 0 -38.5 16t-16.5 39t16 39t39 16t39 -16t16 -39t-16.5 -39t-38.5 -16zM345 558q-22 0 -38 16.5t-16 38.5q0 23 16 39t38 16q23 0 38.5 -16t15.5 -39t-16 -39t-38 -16zM488 68h13v-68h-40q-74 0 -89 64q-58 -74 -165 -74q-74 0 -119.5 36.5t-45.5 106.5
q0 68 46.5 106.5t123.5 46.5l149 14v28q0 52 -27 81t-77 29q-90 0 -108 -95h-87q8 74 59.5 120.5t135.5 46.5q87 0 139.5 -48t52.5 -136v-217q0 -41 39 -41zM361 192v44l-121 -12q-51 -5 -80.5 -27t-29.5 -61t25 -57.5t64 -18.5q57 0 99.5 32.5t42.5 99.5z" />
    <glyph glyph-name="aring" unicode="&#xe5;" horiz-adv-x="529" 
d="M253 541q-39 0 -67.5 28.5t-28.5 66.5q0 39 28.5 67t67.5 28t67.5 -28t28.5 -67q0 -38 -28.5 -66.5t-67.5 -28.5zM254 679q-18 0 -30.5 -12.5t-12.5 -30.5t12.5 -31t30.5 -13q17 0 29 13t12 31q0 17 -12.5 30t-28.5 13zM488 68h13v-68h-40q-74 0 -89 64q-58 -74 -165 -74
q-74 0 -119.5 36.5t-45.5 106.5q0 68 46.5 106.5t123.5 46.5l149 14v28q0 52 -27 81t-77 29q-90 0 -108 -95h-87q8 74 59.5 120.5t135.5 46.5q87 0 139.5 -48t52.5 -136v-217q0 -41 39 -41zM361 192v44l-121 -12q-51 -5 -80.5 -27t-29.5 -61t25 -57.5t64 -18.5
q57 0 99.5 32.5t42.5 99.5z" />
    <glyph glyph-name="ae" unicode="&#xe6;" horiz-adv-x="720" 
d="M666 261q0 -21 -1 -34h-272q3 -168 99 -168q34 0 60.5 20t31.5 66h81q-8 -79 -55.5 -117t-116.5 -38q-103 0 -144 80q-39 -80 -155 -80q-70 0 -111 35t-41 102q0 84 59.5 124.5t159.5 40.5h44v49q0 98 -82 98q-86 0 -91 -85l-84 2q4 73 50 113.5t122 40.5q95 0 137 -73
q44 73 136 73q76 0 124.5 -58t48.5 -191zM492 441q-43 0 -69.5 -36.5t-29.5 -112.5h191q0 79 -25.5 114t-66.5 35zM206 59q40 0 69.5 24.5t29.5 79.5v64h-39q-141 0 -141 -93q0 -37 22 -56t59 -19z" />
    <glyph glyph-name="ccedilla" unicode="&#xe7;" horiz-adv-x="570" 
d="M528 163q-14 -74 -69.5 -120.5t-137.5 -51.5l-24 -35q37 2 67.5 -20t30.5 -63q0 -38 -26.5 -60.5t-73.5 -22.5q-44 0 -73 21l18 40q28 -16 52 -16t37.5 11.5t13.5 29.5t-13.5 30t-39.5 12q-16 0 -34 -8l-30 25l40 57q-98 12 -156 82.5t-58 172.5q0 114 70 188.5t178 74.5
q86 0 149.5 -47.5t76.5 -131.5h-88q-10 44 -47 73t-91 29q-70 0 -115 -53t-45 -133q0 -78 44 -129t117 -51q108 0 139 96h88z" />
    <glyph glyph-name="egrave" unicode="&#xe8;" horiz-adv-x="568" 
d="M326 555h-70l-77 145h78zM514 260q0 -7 -2 -31h-373q4 -75 45.5 -121t110.5 -46q49 0 83.5 21.5t47.5 62.5h85q-16 -74 -74 -115t-142 -41q-107 0 -175 70t-68 185q0 119 68 192t171 73q96 0 159.5 -65t63.5 -185zM291 438q-61 0 -102.5 -41.5t-48.5 -103.5h289
q-1 65 -39 105t-99 40z" />
    <glyph glyph-name="eacute" unicode="&#xe9;" horiz-adv-x="568" 
d="M403 700l-77 -145h-71l70 145h78zM514 260q0 -7 -2 -31h-373q4 -75 45.5 -121t110.5 -46q49 0 83.5 21.5t47.5 62.5h85q-16 -74 -74 -115t-142 -41q-107 0 -175 70t-68 185q0 119 68 192t171 73q96 0 159.5 -65t63.5 -185zM291 438q-61 0 -102.5 -41.5t-48.5 -103.5h289
q-1 65 -39 105t-99 40z" />
    <glyph glyph-name="ecircumflex" unicode="&#xea;" horiz-adv-x="568" 
d="M287 645l-58 -86h-79l101 141h78l102 -141h-79l-59 86h-6zM514 260q0 -7 -2 -31h-373q4 -75 45.5 -121t110.5 -46q49 0 83.5 21.5t47.5 62.5h85q-16 -74 -74 -115t-142 -41q-107 0 -175 70t-68 185q0 119 68 192t171 73q96 0 159.5 -65t63.5 -185zM291 438
q-61 0 -102.5 -41.5t-48.5 -103.5h289q-1 65 -39 105t-99 40z" />
    <glyph glyph-name="edieresis" unicode="&#xeb;" horiz-adv-x="568" 
d="M200 558q-22 0 -38.5 16t-16.5 39t16 39t39 16t39 -16t16 -39t-16.5 -39t-38.5 -16zM383 558q-22 0 -38 16.5t-16 38.5q0 23 16 39t38 16q23 0 38.5 -16t15.5 -39t-16 -39t-38 -16zM514 260q0 -7 -2 -31h-373q4 -75 45.5 -121t110.5 -46q49 0 83.5 21.5t47.5 62.5h85
q-16 -74 -74 -115t-142 -41q-107 0 -175 70t-68 185q0 119 68 192t171 73q96 0 159.5 -65t63.5 -185zM291 438q-61 0 -102.5 -41.5t-48.5 -103.5h289q-1 65 -39 105t-99 40z" />
    <glyph glyph-name="igrave" unicode="&#xec;" horiz-adv-x="227" 
d="M80 700l69 -145h-70l-77 145h78zM70 0v500h87v-500h-87z" />
    <glyph glyph-name="iacute" unicode="&#xed;" horiz-adv-x="227" 
d="M148 700h78l-77 -145h-71zM70 0v500h87v-500h-87z" />
    <glyph glyph-name="icircumflex" unicode="&#xee;" horiz-adv-x="227" 
d="M52 559h-79l101 141h78l102 -141h-79l-59 86h-6zM70 0v500h87v-500h-87z" />
    <glyph glyph-name="idieresis" unicode="&#xef;" horiz-adv-x="227" 
d="M23 558q-23 0 -39 16t-16 39t16 39t39 16t39 -16t16 -39t-16 -39t-39 -16zM206 558q-22 0 -38 16.5t-16 38.5q0 23 16 39t38 16q23 0 38.5 -16t15.5 -39t-16 -39t-38 -16zM70 0v500h87v-500h-87z" />
    <glyph glyph-name="eth" unicode="&#xf0;" horiz-adv-x="596" 
d="M408 583q122 -145 122 -322q0 -126 -65 -198.5t-177 -72.5q-98 0 -167 65t-69 168t64 166.5t163 63.5q48 0 88 -19t61 -47h7q-28 92 -98 173l-158 -50l-16 50l134 43q-55 53 -117 97h102q52 -39 87 -74l101 32l17 -50zM290 64q68 0 111 47t43 116q0 67 -45 109.5
t-113 42.5q-69 0 -111 -44t-42 -113t45 -113.5t112 -44.5z" />
    <glyph glyph-name="ntilde" unicode="&#xf1;" horiz-adv-x="561" 
d="M452 667q-3 -49 -29 -83.5t-71 -34.5q-25 0 -46 10t-32.5 21.5t-26.5 21.5t-30 10q-40 0 -46 -55h-63q5 52 30.5 85.5t70.5 33.5q26 0 47 -10t32 -22t25.5 -22t29.5 -10q41 0 47 55h62zM70 0v500h79l8 -60h7q51 70 145 70q82 0 132 -51t50 -145v-314h-87v295
q0 69 -32.5 103.5t-84.5 34.5q-55 0 -92.5 -37.5t-37.5 -110.5v-285h-87z" />
    <glyph glyph-name="ograve" unicode="&#xf2;" horiz-adv-x="607" 
d="M270 700l69 -145h-70l-77 145h78zM303 -10q-108 0 -179.5 74.5t-71.5 185.5q0 113 71 186.5t180 73.5q108 0 180 -74t72 -186t-71.5 -186t-180.5 -74zM303 67q72 0 118.5 53.5t46.5 129.5q0 77 -46.5 130t-118.5 53q-73 0 -118 -53t-45 -130q0 -76 45.5 -129.5
t117.5 -53.5z" />
    <glyph glyph-name="oacute" unicode="&#xf3;" horiz-adv-x="607" 
d="M338 700h78l-77 -145h-71zM303 -10q-108 0 -179.5 74.5t-71.5 185.5q0 113 71 186.5t180 73.5q108 0 180 -74t72 -186t-71.5 -186t-180.5 -74zM303 67q72 0 118.5 53.5t46.5 129.5q0 77 -46.5 130t-118.5 53q-73 0 -118 -53t-45 -130q0 -76 45.5 -129.5t117.5 -53.5z" />
    <glyph glyph-name="ocircumflex" unicode="&#xf4;" horiz-adv-x="607" 
d="M242 559h-79l101 141h78l102 -141h-79l-59 86h-6zM303 -10q-108 0 -179.5 74.5t-71.5 185.5q0 113 71 186.5t180 73.5q108 0 180 -74t72 -186t-71.5 -186t-180.5 -74zM303 67q72 0 118.5 53.5t46.5 129.5q0 77 -46.5 130t-118.5 53q-73 0 -118 -53t-45 -130
q0 -76 45.5 -129.5t117.5 -53.5z" />
    <glyph glyph-name="otilde" unicode="&#xf5;" horiz-adv-x="607" 
d="M476 667q-3 -49 -29 -83.5t-71 -34.5q-25 0 -46 10t-32.5 21.5t-26.5 21.5t-30 10q-40 0 -46 -55h-63q5 52 30.5 85.5t70.5 33.5q26 0 47 -10t32 -22t25.5 -22t29.5 -10q41 0 47 55h62zM303 -10q-108 0 -179.5 74.5t-71.5 185.5q0 113 71 186.5t180 73.5q108 0 180 -74
t72 -186t-71.5 -186t-180.5 -74zM303 67q72 0 118.5 53.5t46.5 129.5q0 77 -46.5 130t-118.5 53q-73 0 -118 -53t-45 -130q0 -76 45.5 -129.5t117.5 -53.5z" />
    <glyph glyph-name="odieresis" unicode="&#xf6;" horiz-adv-x="607" 
d="M213 558q-23 0 -39 16t-16 39t16 39t39 16t39 -16t16 -39t-16 -39t-39 -16zM396 558q-22 0 -38 16.5t-16 38.5q0 23 16 39t38 16q23 0 38.5 -16t15.5 -39t-16 -39t-38 -16zM303 -10q-108 0 -179.5 74.5t-71.5 185.5q0 113 71 186.5t180 73.5q108 0 180 -74t72 -186
t-71.5 -186t-180.5 -74zM303 67q72 0 118.5 53.5t46.5 129.5q0 77 -46.5 130t-118.5 53q-73 0 -118 -53t-45 -130q0 -76 45.5 -129.5t117.5 -53.5z" />
    <glyph glyph-name="divide" unicode="&#xf7;" 
d="M278 397q-24 0 -42 17.5t-18 41.5q0 25 17.5 43t42.5 18q24 0 41.5 -18t17.5 -43q0 -23 -17.5 -41t-41.5 -18zM45 317h465v-74h-465v74zM278 39q-25 0 -42.5 17.5t-17.5 41.5q0 25 17.5 42.5t42.5 17.5q24 0 41.5 -17.5t17.5 -42.5q0 -24 -17.5 -41.5t-41.5 -17.5z" />
    <glyph glyph-name="oslash" unicode="&#xf8;" horiz-adv-x="607" 
d="M483 435q72 -74 72 -185q0 -112 -71.5 -186t-180.5 -74q-72 0 -129 34l-52 -69l-52 36l54 73q-72 74 -72 186q0 113 71 186.5t180 73.5q71 0 130 -35l52 69l53 -36zM136 250q0 -69 38 -121l213 284q-37 23 -84 23q-74 0 -120.5 -54t-46.5 -132zM303 64q74 0 121 54
t47 132q0 69 -37 120l-213 -284q36 -22 82 -22z" />
    <glyph glyph-name="ugrave" unicode="&#xf9;" horiz-adv-x="561" 
d="M247 700l69 -145h-70l-77 145h78zM491 500v-500h-79l-8 60h-7q-51 -70 -145 -70q-82 0 -132 51t-50 145v314h87v-295q0 -69 32.5 -103.5t84.5 -34.5q56 0 93 37.5t37 110.5v285h87z" />
    <glyph glyph-name="uacute" unicode="&#xfa;" horiz-adv-x="561" 
d="M315 700h78l-77 -145h-71zM491 500v-500h-79l-8 60h-7q-51 -70 -145 -70q-82 0 -132 51t-50 145v314h87v-295q0 -69 32.5 -103.5t84.5 -34.5q56 0 93 37.5t37 110.5v285h87z" />
    <glyph glyph-name="ucircumflex" unicode="&#xfb;" horiz-adv-x="561" 
d="M219 559h-79l101 141h78l102 -141h-79l-59 86h-6zM491 500v-500h-79l-8 60h-7q-51 -70 -145 -70q-82 0 -132 51t-50 145v314h87v-295q0 -69 32.5 -103.5t84.5 -34.5q56 0 93 37.5t37 110.5v285h87z" />
    <glyph glyph-name="udieresis" unicode="&#xfc;" horiz-adv-x="561" 
d="M190 558q-22 0 -38.5 16t-16.5 39t16 39t39 16t39 -16t16 -39t-16.5 -39t-38.5 -16zM373 558q-22 0 -38 16.5t-16 38.5q0 23 16 39t38 16q23 0 38.5 -16t15.5 -39t-16 -39t-38 -16zM491 500v-500h-79l-8 60h-7q-51 -70 -145 -70q-82 0 -132 51t-50 145v314h87v-295
q0 -69 32.5 -103.5t84.5 -34.5q56 0 93 37.5t37 110.5v285h87z" />
    <glyph glyph-name="yacute" unicode="&#xfd;" horiz-adv-x="531" 
d="M300 700h78l-77 -145h-71zM127 -210q-31 0 -71 11v67q32 -7 54 -7q77 0 107 74l26 65h-30l-192 500h91l154 -409h7l146 409h91l-210 -578q-6 -18 -11.5 -29.5t-19.5 -33t-31 -35t-46.5 -24t-64.5 -10.5z" />
    <glyph glyph-name="thorn" unicode="&#xfe;" horiz-adv-x="600" 
d="M317 510q101 0 165.5 -72.5t64.5 -188.5q0 -117 -64.5 -188t-165.5 -71q-104 0 -160 81v-271h-87v910h80v-281h6q58 81 161 81zM306 67q68 0 111 50.5t43 131.5q0 82 -43 133t-111 51q-67 0 -108 -50.5t-41 -133.5q0 -81 41 -131.5t108 -50.5z" />
    <glyph glyph-name="ydieresis" unicode="&#xff;" horiz-adv-x="531" 
d="M175 558q-23 0 -39 16t-16 39t16 39t39 16t39 -16t16 -39t-16 -39t-39 -16zM358 558q-22 0 -38 16.5t-16 38.5q0 23 16 39t38 16q23 0 38.5 -16t15.5 -39t-16 -39t-38 -16zM127 -210q-31 0 -71 11v67q32 -7 54 -7q77 0 107 74l26 65h-30l-192 500h91l154 -409h7l146 409
h91l-210 -578q-6 -18 -11.5 -29.5t-19.5 -33t-31 -35t-46.5 -24t-64.5 -10.5z" />
    <glyph glyph-name="Amacron" unicode="&#x100;" horiz-adv-x="652" 
d="M478 845v-64h-301v64h301zM529 0l-64 191h-278l-64 -191h-97l244 700h112l244 -700h-97zM213 269h225l-109 324h-7z" />
    <glyph glyph-name="amacron" unicode="&#x101;" horiz-adv-x="529" 
d="M404 645v-64h-301v64h301zM488 68h13v-68h-40q-74 0 -89 64q-58 -74 -165 -74q-74 0 -119.5 36.5t-45.5 106.5q0 68 46.5 106.5t123.5 46.5l149 14v28q0 52 -27 81t-77 29q-90 0 -108 -95h-87q8 74 59.5 120.5t135.5 46.5q87 0 139.5 -48t52.5 -136v-217q0 -41 39 -41z
M361 192v44l-121 -12q-51 -5 -80.5 -27t-29.5 -61t25 -57.5t64 -18.5q57 0 99.5 32.5t42.5 99.5z" />
    <glyph glyph-name="Abreve" unicode="&#x102;" horiz-adv-x="652" 
d="M326 771q-58 0 -95.5 39t-37.5 90h70q0 -31 17.5 -51t45.5 -20t44.5 20t16.5 51h70q0 -51 -36.5 -90t-94.5 -39zM529 0l-64 191h-278l-64 -191h-97l244 700h112l244 -700h-97zM213 269h225l-109 324h-7z" />
    <glyph glyph-name="abreve" unicode="&#x103;" horiz-adv-x="529" 
d="M252 571q-58 0 -95.5 39t-37.5 90h70q0 -31 17.5 -51t45.5 -20t44.5 20t16.5 51h70q0 -51 -36.5 -90t-94.5 -39zM488 68h13v-68h-40q-74 0 -89 64q-58 -74 -165 -74q-74 0 -119.5 36.5t-45.5 106.5q0 68 46.5 106.5t123.5 46.5l149 14v28q0 52 -27 81t-77 29
q-90 0 -108 -95h-87q8 74 59.5 120.5t135.5 46.5q87 0 139.5 -48t52.5 -136v-217q0 -41 39 -41zM361 192v44l-121 -12q-51 -5 -80.5 -27t-29.5 -61t25 -57.5t64 -18.5q57 0 99.5 32.5t42.5 99.5z" />
    <glyph glyph-name="Aogonek" unicode="&#x104;" horiz-adv-x="652" 
d="M613 -117q23 0 45 6v-55q-18 -7 -52 -7q-50 0 -81 22.5t-31 66.5q0 51 60 84h-25l-64 191h-278l-64 -191h-97l244 700h112l244 -700q-70 -24 -70 -74q0 -43 57 -43zM213 269h225l-109 324h-7z" />
    <glyph glyph-name="aogonek" unicode="&#x105;" horiz-adv-x="529" 
d="M488 -117q22 0 45 6v-55q-18 -7 -52 -7q-50 0 -81 22.5t-31 66.5q0 55 64 86q-49 9 -61 62q-58 -74 -165 -74q-74 0 -119.5 36.5t-45.5 106.5q0 68 46.5 106.5t123.5 46.5l149 14v28q0 52 -27 81t-77 29q-90 0 -108 -95h-87q8 74 59.5 120.5t135.5 46.5q87 0 139.5 -48
t52.5 -136v-217q0 -41 39 -41h13v-68q-70 -24 -70 -74q0 -43 57 -43zM361 192v44l-121 -12q-51 -5 -80.5 -27t-29.5 -61t25 -57.5t64 -18.5q57 0 99.5 32.5t42.5 99.5z" />
    <glyph glyph-name="Cacute" unicode="&#x106;" horiz-adv-x="752" 
d="M433 900h78l-77 -145h-71zM700 213q-19 -101 -102 -162t-200 -61q-149 0 -240.5 100t-91.5 257q0 158 92 260.5t240 102.5q114 0 193.5 -61t97.5 -168h-96q-18 67 -69 106t-125 39q-108 0 -174.5 -80.5t-66.5 -198.5q0 -119 67 -196t173 -77q77 0 131 38t75 101h96z" />
    <glyph glyph-name="cacute" unicode="&#x107;" horiz-adv-x="570" 
d="M333 700h78l-77 -145h-71zM301 -10q-112 0 -180.5 73t-68.5 184q0 114 70 188.5t178 74.5q86 0 149.5 -47.5t76.5 -131.5h-88q-10 44 -47 73t-91 29q-70 0 -115 -53t-45 -133q0 -78 44 -129t117 -51q108 0 139 96h88q-14 -79 -75.5 -126t-151.5 -47z" />
    <glyph glyph-name="Ccircumflex" unicode="&#x108;" horiz-adv-x="752" 
d="M337 759h-79l101 141h78l102 -141h-79l-59 86h-6zM700 213q-19 -101 -102 -162t-200 -61q-149 0 -240.5 100t-91.5 257q0 158 92 260.5t240 102.5q114 0 193.5 -61t97.5 -168h-96q-18 67 -69 106t-125 39q-108 0 -174.5 -80.5t-66.5 -198.5q0 -119 67 -196t173 -77
q77 0 131 38t75 101h96z" />
    <glyph glyph-name="ccircumflex" unicode="&#x109;" horiz-adv-x="570" 
d="M237 559h-79l101 141h78l102 -141h-79l-59 86h-6zM301 -10q-112 0 -180.5 73t-68.5 184q0 114 70 188.5t178 74.5q86 0 149.5 -47.5t76.5 -131.5h-88q-10 44 -47 73t-91 29q-70 0 -115 -53t-45 -133q0 -78 44 -129t117 -51q108 0 139 96h88q-14 -79 -75.5 -126
t-151.5 -47z" />
    <glyph glyph-name="Cdotaccent" unicode="&#x10a;" horiz-adv-x="752" 
d="M399 780q-24 0 -41.5 17t-17.5 41t17.5 40.5t41.5 16.5q23 0 40 -16.5t17 -40.5t-17 -41t-40 -17zM700 213q-19 -101 -102 -162t-200 -61q-149 0 -240.5 100t-91.5 257q0 158 92 260.5t240 102.5q114 0 193.5 -61t97.5 -168h-96q-18 67 -69 106t-125 39
q-108 0 -174.5 -80.5t-66.5 -198.5q0 -119 67 -196t173 -77q77 0 131 38t75 101h96z" />
    <glyph glyph-name="cdotaccent" unicode="&#x10b;" horiz-adv-x="570" 
d="M299 580q-24 0 -41.5 17t-17.5 41t17.5 40.5t41.5 16.5q23 0 40 -16.5t17 -40.5t-17 -41t-40 -17zM301 -10q-112 0 -180.5 73t-68.5 184q0 114 70 188.5t178 74.5q86 0 149.5 -47.5t76.5 -131.5h-88q-10 44 -47 73t-91 29q-70 0 -115 -53t-45 -133q0 -78 44 -129t117 -51
q108 0 139 96h88q-14 -79 -75.5 -126t-151.5 -47z" />
    <glyph glyph-name="Ccaron" unicode="&#x10c;" horiz-adv-x="752" 
d="M459 900h79l-101 -141h-78l-102 141h79l60 -86h5zM700 213q-19 -101 -102 -162t-200 -61q-149 0 -240.5 100t-91.5 257q0 158 92 260.5t240 102.5q114 0 193.5 -61t97.5 -168h-96q-18 67 -69 106t-125 39q-108 0 -174.5 -80.5t-66.5 -198.5q0 -119 67 -196t173 -77
q77 0 131 38t75 101h96z" />
    <glyph glyph-name="ccaron" unicode="&#x10d;" horiz-adv-x="570" 
d="M359 700h79l-101 -141h-78l-102 141h79l60 -86h5zM301 -10q-112 0 -180.5 73t-68.5 184q0 114 70 188.5t178 74.5q86 0 149.5 -47.5t76.5 -131.5h-88q-10 44 -47 73t-91 29q-70 0 -115 -53t-45 -133q0 -78 44 -129t117 -51q108 0 139 96h88q-14 -79 -75.5 -126
t-151.5 -47z" />
    <glyph glyph-name="Dcaron" unicode="&#x10e;" horiz-adv-x="704" 
d="M409 900h79l-101 -141h-78l-102 141h79l60 -86h5zM303 700q163 0 249 -94.5t86 -255.5q0 -159 -85.5 -254.5t-249.5 -95.5h-216v700h216zM298 82q128 0 187.5 73.5t59.5 196.5q0 122 -59.5 194t-187.5 72h-120v-536h120z" />
    <glyph glyph-name="dcaron" unicode="&#x10f;" horiz-adv-x="600" 
d="M443 434v276h87v-710h-72l-8 71h-6q-58 -81 -161 -81q-101 0 -165.5 72.5t-64.5 188.5q0 117 64.5 188t165.5 71q106 0 160 -76zM692 708q28 0 44 -21.5t16 -55.5q0 -98 -95 -158l-24 30q54 44 55 92q-21 -2 -37 13t-16 41q0 27 16 43t41 16zM294 67q67 0 108 50.5
t41 133.5q0 81 -41 131.5t-108 50.5q-68 0 -111 -50.5t-43 -131.5q0 -82 43 -133t111 -51z" />
    <glyph glyph-name="Dcroat" unicode="&#x110;" horiz-adv-x="704" 
d="M303 700q163 0 249 -94.5t86 -255.5q0 -159 -85.5 -254.5t-249.5 -95.5h-216v315h-116v69h116v316h216zM298 82q128 0 187.5 73.5t59.5 196.5q0 122 -59.5 194t-187.5 72h-120v-234h177v-69h-177v-233h120z" />
    <glyph glyph-name="dcroat" unicode="&#x111;" horiz-adv-x="600" 
d="M633 634v-66h-103v-568h-72l-8 71h-6q-58 -81 -161 -81q-101 0 -165.5 72.5t-64.5 188.5q0 117 64.5 188t165.5 71q106 0 160 -76v134h-118v66h118v76h87v-76h103zM294 67q67 0 108 50.5t41 133.5q0 81 -41 131.5t-108 50.5q-68 0 -111 -50.5t-43 -131.5q0 -82 43 -133
t111 -51z" />
    <glyph glyph-name="Emacron" unicode="&#x112;" horiz-adv-x="586" 
d="M159 845h301v-64h-301v64zM176 81h363v-81h-452v700h442v-81h-353v-224h311v-79h-311v-235z" />
    <glyph glyph-name="emacron" unicode="&#x113;" horiz-adv-x="568" 
d="M442 645v-64h-301v64h301zM514 260q0 -7 -2 -31h-373q4 -75 45.5 -121t110.5 -46q49 0 83.5 21.5t47.5 62.5h85q-16 -74 -74 -115t-142 -41q-107 0 -175 70t-68 185q0 119 68 192t171 73q96 0 159.5 -65t63.5 -185zM291 438q-61 0 -102.5 -41.5t-48.5 -103.5h289
q-1 65 -39 105t-99 40z" />
    <glyph glyph-name="Ebreve" unicode="&#x114;" horiz-adv-x="586" 
d="M439 900q0 -51 -36.5 -90t-94.5 -39t-95.5 39t-37.5 90h70q0 -31 17.5 -51t45.5 -20t44.5 20t16.5 51h70zM176 81h363v-81h-452v700h442v-81h-353v-224h311v-79h-311v-235z" />
    <glyph glyph-name="ebreve" unicode="&#x115;" horiz-adv-x="568" 
d="M290 571q-58 0 -95.5 39t-37.5 90h70q0 -31 17.5 -51t45.5 -20t44.5 20t16.5 51h70q0 -51 -36.5 -90t-94.5 -39zM514 260q0 -7 -2 -31h-373q4 -75 45.5 -121t110.5 -46q49 0 83.5 21.5t47.5 62.5h85q-16 -74 -74 -115t-142 -41q-107 0 -175 70t-68 185q0 119 68 192
t171 73q96 0 159.5 -65t63.5 -185zM291 438q-61 0 -102.5 -41.5t-48.5 -103.5h289q-1 65 -39 105t-99 40z" />
    <glyph glyph-name="Edotaccent" unicode="&#x116;" horiz-adv-x="586" 
d="M309 780q-24 0 -41.5 17t-17.5 41t17.5 40.5t41.5 16.5q23 0 40 -16.5t17 -40.5t-17 -41t-40 -17zM176 81h363v-81h-452v700h442v-81h-353v-224h311v-79h-311v-235z" />
    <glyph glyph-name="edotaccent" unicode="&#x117;" horiz-adv-x="568" 
d="M291 580q-24 0 -41.5 17t-17.5 41t17.5 40.5t41.5 16.5q23 0 40 -16.5t17 -40.5t-17 -41t-40 -17zM514 260q0 -7 -2 -31h-373q4 -75 45.5 -121t110.5 -46q49 0 83.5 21.5t47.5 62.5h85q-16 -74 -74 -115t-142 -41q-107 0 -175 70t-68 185q0 119 68 192t171 73
q96 0 159.5 -65t63.5 -185zM291 438q-61 0 -102.5 -41.5t-48.5 -103.5h289q-1 65 -39 105t-99 40z" />
    <glyph glyph-name="Eogonek" unicode="&#x118;" horiz-adv-x="586" 
d="M526 -117q22 0 45 6v-55q-18 -7 -52 -7q-50 0 -81 22.5t-31 66.5q0 51 60 84h-380v700h442v-81h-353v-224h311v-79h-311v-235h363v-81q-70 -24 -70 -74q0 -43 57 -43z" />
    <glyph glyph-name="eogonek" unicode="&#x119;" horiz-adv-x="568" 
d="M514 260q0 -7 -2 -31h-373q4 -75 45.5 -121t110.5 -46q49 0 83.5 21.5t47.5 62.5h85q-13 -57 -51 -95.5t-96 -52.5q-65 -24 -65 -72q0 -43 57 -43q22 0 45 6v-55q-18 -7 -52 -7q-50 0 -81 22.5t-31 66.5t44 74q-102 5 -165.5 74.5t-63.5 180.5q0 119 68 192t171 73
q96 0 159.5 -65t63.5 -185zM291 438q-61 0 -102.5 -41.5t-48.5 -103.5h289q-1 65 -39 105t-99 40z" />
    <glyph glyph-name="Ecaron" unicode="&#x11a;" horiz-adv-x="586" 
d="M369 900h79l-101 -141h-78l-102 141h79l60 -86h5zM176 81h363v-81h-452v700h442v-81h-353v-224h311v-79h-311v-235z" />
    <glyph glyph-name="ecaron" unicode="&#x11b;" horiz-adv-x="568" 
d="M330 559h-78l-102 141h79l60 -86h5l58 86h79zM514 260q0 -7 -2 -31h-373q4 -75 45.5 -121t110.5 -46q49 0 83.5 21.5t47.5 62.5h85q-16 -74 -74 -115t-142 -41q-107 0 -175 70t-68 185q0 119 68 192t171 73q96 0 159.5 -65t63.5 -185zM291 438q-61 0 -102.5 -41.5
t-48.5 -103.5h289q-1 65 -39 105t-99 40z" />
    <glyph glyph-name="Gcircumflex" unicode="&#x11c;" horiz-adv-x="785" 
d="M335 759h-79l101 141h78l102 -141h-79l-59 86h-6zM400 364h298v-364h-72l-11 81h-7q-82 -91 -221 -91q-146 0 -233.5 98t-87.5 252q0 159 95.5 264.5t247.5 105.5q116 0 191.5 -58t93.5 -151h-98q-18 57 -66.5 91t-120.5 34q-113 0 -182 -80t-69 -205q0 -118 64.5 -193.5
t174.5 -75.5q89 0 150 44.5t61 126.5v48h-208v73z" />
    <glyph glyph-name="gcircumflex" unicode="&#x11d;" horiz-adv-x="536" 
d="M269 645l-58 -86h-79l101 141h78l102 -141h-79l-59 86h-6zM515 496q-34 -35 -84 -60q31 -43 31 -98q0 -77 -53 -123.5t-135 -46.5q-48 0 -90 17q-33 -17 -33 -45q0 -46 72 -46h98q83 0 128.5 -37t45.5 -104q0 -78 -59.5 -120.5t-157.5 -42.5q-104 0 -161 48t-65 123
l84 71q-30 11 -47.5 35t-17.5 56q0 59 64 93q-52 47 -52 122t52 123.5t136 48.5q66 0 114 -31q46 23 81 69zM274 235q47 0 75.5 29.5t28.5 73.5q0 47 -28 76t-76 29t-77.5 -29t-29.5 -76q0 -44 30 -73.5t77 -29.5zM411 -51q0 39 -30 56.5t-69 17.5h-88l-85 -71
q24 -93 139 -93q56 0 94.5 23t38.5 67z" />
    <glyph glyph-name="Gbreve" unicode="&#x11e;" horiz-adv-x="785" 
d="M527 900q0 -51 -36.5 -90t-94.5 -39t-95.5 39t-37.5 90h70q0 -31 17.5 -51t45.5 -20t44.5 20t16.5 51h70zM400 364h298v-364h-72l-11 81h-7q-82 -91 -221 -91q-146 0 -233.5 98t-87.5 252q0 159 95.5 264.5t247.5 105.5q116 0 191.5 -58t93.5 -151h-98q-18 57 -66.5 91
t-120.5 34q-113 0 -182 -80t-69 -205q0 -118 64.5 -193.5t174.5 -75.5q89 0 150 44.5t61 126.5v48h-208v73z" />
    <glyph glyph-name="gbreve" unicode="&#x11f;" horiz-adv-x="536" 
d="M272 571q-58 0 -95.5 39t-37.5 90h70q0 -31 17.5 -51t45.5 -20t44.5 20t16.5 51h70q0 -51 -36.5 -90t-94.5 -39zM515 496q-34 -35 -84 -60q31 -43 31 -98q0 -77 -53 -123.5t-135 -46.5q-48 0 -90 17q-33 -17 -33 -45q0 -46 72 -46h98q83 0 128.5 -37t45.5 -104
q0 -78 -59.5 -120.5t-157.5 -42.5q-104 0 -161 48t-65 123l84 71q-30 11 -47.5 35t-17.5 56q0 59 64 93q-52 47 -52 122t52 123.5t136 48.5q66 0 114 -31q46 23 81 69zM274 235q47 0 75.5 29.5t28.5 73.5q0 47 -28 76t-76 29t-77.5 -29t-29.5 -76q0 -44 30 -73.5t77 -29.5z
M411 -51q0 39 -30 56.5t-69 17.5h-88l-85 -71q24 -93 139 -93q56 0 94.5 23t38.5 67z" />
    <glyph glyph-name="Gdotaccent" unicode="&#x120;" horiz-adv-x="785" 
d="M397 780q-24 0 -41.5 17t-17.5 41t17.5 40.5t41.5 16.5q23 0 40 -16.5t17 -40.5t-17 -41t-40 -17zM400 364h298v-364h-72l-11 81h-7q-82 -91 -221 -91q-146 0 -233.5 98t-87.5 252q0 159 95.5 264.5t247.5 105.5q116 0 191.5 -58t93.5 -151h-98q-18 57 -66.5 91
t-120.5 34q-113 0 -182 -80t-69 -205q0 -118 64.5 -193.5t174.5 -75.5q89 0 150 44.5t61 126.5v48h-208v73z" />
    <glyph glyph-name="gdotaccent" unicode="&#x121;" horiz-adv-x="536" 
d="M273 580q-24 0 -41.5 17t-17.5 41t17.5 40.5t41.5 16.5q23 0 40 -16.5t17 -40.5t-17 -41t-40 -17zM515 496q-34 -35 -84 -60q31 -43 31 -98q0 -77 -53 -123.5t-135 -46.5q-48 0 -90 17q-33 -17 -33 -45q0 -46 72 -46h98q83 0 128.5 -37t45.5 -104q0 -78 -59.5 -120.5
t-157.5 -42.5q-104 0 -161 48t-65 123l84 71q-30 11 -47.5 35t-17.5 56q0 59 64 93q-52 47 -52 122t52 123.5t136 48.5q66 0 114 -31q46 23 81 69zM274 235q47 0 75.5 29.5t28.5 73.5q0 47 -28 76t-76 29t-77.5 -29t-29.5 -76q0 -44 30 -73.5t77 -29.5zM411 -51
q0 39 -30 56.5t-69 17.5h-88l-85 -71q24 -93 139 -93q56 0 94.5 23t38.5 67z" />
    <glyph glyph-name="uni0122" unicode="&#x122;" horiz-adv-x="785" 
d="M400 364h298v-364h-72l-11 81h-7q-82 -91 -221 -91q-146 0 -233.5 98t-87.5 252q0 159 95.5 264.5t247.5 105.5q116 0 191.5 -58t93.5 -151h-98q-18 57 -66.5 91t-120.5 34q-113 0 -182 -80t-69 -205q0 -118 64.5 -193.5t174.5 -75.5q89 0 150 44.5t61 126.5v48h-208v73z
M394 -60q31 0 48 -21.5t17 -54.5q0 -53 -30 -92.5t-71 -62.5l-26 27q57 48 58 88q-25 -2 -41.5 14t-16.5 42q0 27 17.5 43.5t44.5 16.5z" />
    <glyph glyph-name="uni0123" unicode="&#x123;" horiz-adv-x="536" 
d="M274 560q-31 0 -48 21.5t-17 54.5q0 53 30 92.5t71 62.5l26 -27q-57 -48 -58 -88q25 2 41.5 -14t16.5 -42q0 -27 -17.5 -43.5t-44.5 -16.5zM515 496q-34 -35 -84 -60q31 -43 31 -98q0 -77 -53 -123.5t-135 -46.5q-48 0 -90 17q-33 -17 -33 -45q0 -46 72 -46h98
q83 0 128.5 -37t45.5 -104q0 -78 -59.5 -120.5t-157.5 -42.5q-104 0 -161 48t-65 123l84 71q-30 11 -47.5 35t-17.5 56q0 59 64 93q-52 47 -52 122t52 123.5t136 48.5q66 0 114 -31q46 23 81 69zM274 235q47 0 75.5 29.5t28.5 73.5q0 47 -28 76t-76 29t-77.5 -29t-29.5 -76
q0 -44 30 -73.5t77 -29.5zM411 -51q0 39 -30 56.5t-69 17.5h-88l-85 -71q24 -93 139 -93q56 0 94.5 23t38.5 67z" />
    <glyph glyph-name="Hcircumflex" unicode="&#x124;" horiz-adv-x="697" 
d="M285 759h-79l101 141h78l102 -141h-79l-59 86h-6zM520 700h90v-700h-90v313h-342v-313h-91v700h91v-305h342v305z" />
    <glyph glyph-name="hcircumflex" unicode="&#x125;" horiz-adv-x="561" 
d="M53 759h-79l101 141h78l102 -141h-79l-59 86h-6zM309 510q82 0 132 -51t50 -145v-314h-87v295q0 69 -32.5 103.5t-84.5 34.5q-55 0 -92.5 -37.5t-37.5 -110.5v-285h-87v710h87v-270h7q51 70 145 70z" />
    <glyph glyph-name="Hbar" unicode="&#x126;" horiz-adv-x="697" 
d="M520 700h90v-700h-90v313h-342v-313h-91v700h91v-119h342v119zM178 395h342v116h-342v-116z" />
    <glyph glyph-name="hbar" unicode="&#x127;" horiz-adv-x="561" 
d="M309 510q82 0 132 -51t50 -145v-314h-87v295q0 69 -32.5 103.5t-84.5 34.5q-55 0 -92.5 -37.5t-37.5 -110.5v-285h-87v567h-101v66h101v77h87v-77h120v-66h-120v-127h7q51 70 145 70z" />
    <glyph glyph-name="Itilde" unicode="&#x128;" horiz-adv-x="265" 
d="M305 867q-3 -49 -29 -83.5t-71 -34.5q-25 0 -46 10t-32.5 21.5t-26.5 21.5t-30 10q-40 0 -46 -55h-63q5 52 30.5 85.5t70.5 33.5q26 0 47 -10t32 -22t25.5 -22t29.5 -10q41 0 47 55h62zM178 700v-700h-91v700h91z" />
    <glyph glyph-name="itilde" unicode="&#x129;" horiz-adv-x="227" 
d="M285 667q-3 -49 -29 -83.5t-71 -34.5q-25 0 -46 10t-32.5 21.5t-26.5 21.5t-30 10q-40 0 -46 -55h-63q5 52 30.5 85.5t70.5 33.5q26 0 47 -10t32 -22t25.5 -22t29.5 -10q41 0 47 55h62zM70 0v500h87v-500h-87z" />
    <glyph glyph-name="Imacron" unicode="&#x12a;" horiz-adv-x="265" 
d="M-17 845h301v-64h-301v64zM178 700v-700h-91v700h91z" />
    <glyph glyph-name="imacron" unicode="&#x12b;" horiz-adv-x="227" 
d="M-36 645h301v-64h-301v64zM70 0v500h87v-500h-87z" />
    <glyph glyph-name="Ibreve" unicode="&#x12c;" horiz-adv-x="265" 
d="M263 900q0 -51 -36.5 -90t-94.5 -39t-95.5 39t-37.5 90h70q0 -31 17.5 -51t45.5 -20t44.5 20t16.5 51h70zM178 700v-700h-91v700h91z" />
    <glyph glyph-name="ibreve" unicode="&#x12d;" horiz-adv-x="227" 
d="M244 700q0 -51 -36.5 -90t-94.5 -39t-95.5 39t-37.5 90h70q0 -31 17.5 -51t45.5 -20t44.5 20t16.5 51h70zM70 0v500h87v-500h-87z" />
    <glyph glyph-name="Iogonek" unicode="&#x12e;" horiz-adv-x="265" 
d="M165 -117q23 0 45 6v-55q-18 -7 -52 -7q-50 0 -81 22.5t-31 66.5q0 51 60 84h-19v700h91v-700q-70 -24 -70 -74q0 -43 57 -43z" />
    <glyph glyph-name="iogonek" unicode="&#x12f;" horiz-adv-x="227" 
d="M114 580q-24 0 -41.5 17t-17.5 41t17.5 40.5t41.5 16.5q23 0 40 -16.5t17 -40.5t-17 -41t-40 -17zM144 -117q22 0 45 6v-55q-18 -7 -52 -7q-50 0 -81 22.5t-31 66.5q0 51 60 84h-15v500h87v-500q-70 -24 -70 -74q0 -43 57 -43z" />
    <glyph glyph-name="Idotaccent" unicode="&#x130;" horiz-adv-x="265" 
d="M133 780q-24 0 -41.5 17t-17.5 41t17.5 40.5t41.5 16.5q23 0 40 -16.5t17 -40.5t-17 -41t-40 -17zM178 700v-700h-91v700h91z" />
    <glyph glyph-name="dotlessi" unicode="&#x131;" horiz-adv-x="227" 
d="M70 0v500h87v-500h-87z" />
    <glyph glyph-name="IJ" unicode="&#x132;" horiz-adv-x="792" 
d="M178 700v-700h-91v700h91zM388 201q3 -55 32.5 -91t81.5 -36t82 34.5t30 104.5v487h91v-492q0 -106 -55.5 -162t-147.5 -56q-97 0 -151 57.5t-57 153.5h94z" />
    <glyph glyph-name="ij" unicode="&#x133;" horiz-adv-x="463" 
d="M114 580q-24 0 -41.5 17t-17.5 41t17.5 40.5t41.5 16.5q23 0 40 -16.5t17 -40.5t-17 -41t-40 -17zM336 580q-23 0 -40.5 17t-17.5 41t17 40.5t41 16.5t41 -16.5t17 -40.5t-17 -41t-41 -17zM70 0v500h87v-500h-87zM251 -210q-33 0 -73 11v67q28 -7 50 -7q64 0 64 63v576
h88v-587q0 -52 -29 -87.5t-100 -35.5z" />
    <glyph glyph-name="Jcircumflex" unicode="&#x134;" horiz-adv-x="538" 
d="M344 759h-79l101 141h78l102 -141h-79l-59 86h-6zM134 201q3 -55 32.5 -91t81.5 -36t82 34.5t30 104.5v487h91v-492q0 -106 -55.5 -162t-147.5 -56q-97 0 -151 57.5t-57 153.5h94z" />
    <glyph glyph-name="jcircumflex" unicode="&#x135;" horiz-adv-x="227" 
d="M52 559h-79l101 141h78l102 -141h-79l-59 86h-6zM29 -210q-36 0 -73 11v67q26 -7 49 -7q65 0 65 63v576h87v-587q0 -52 -28.5 -87.5t-99.5 -35.5z" />
    <glyph glyph-name="uni0136" unicode="&#x136;" horiz-adv-x="623" 
d="M491 0l-259 318h-54v-318h-91v700h91v-300h54l233 300h105l-261 -336v-5l287 -359h-105zM332 -60q31 0 48 -21.5t17 -54.5q0 -53 -30 -92.5t-71 -62.5l-26 27q57 48 58 88q-25 -2 -41.5 14t-16.5 42q0 27 17.5 43.5t44.5 16.5z" />
    <glyph glyph-name="uni0137" unicode="&#x137;" horiz-adv-x="511" 
d="M490 500l-205 -202l205 -298h-98l-167 239l-68 -67v-172h-87v710h87v-425h7l219 215h107zM272 -60q31 0 48 -21.5t17 -54.5q0 -53 -30 -92.5t-71 -62.5l-26 27q57 48 58 88q-25 -2 -41.5 14t-16.5 42q0 27 17.5 43.5t44.5 16.5z" />
    <glyph glyph-name="Lacute" unicode="&#x139;" horiz-adv-x="576" 
d="M163 900h78l-77 -145h-71zM176 82h360v-82h-449v700h89v-618z" />
    <glyph glyph-name="lacute" unicode="&#x13a;" horiz-adv-x="227" 
d="M148 900h78l-77 -145h-71zM70 0v710h87v-710h-87z" />
    <glyph glyph-name="uni013B" unicode="&#x13b;" horiz-adv-x="576" 
d="M176 82h360v-82h-449v700h89v-618zM307 -60q31 0 48 -21.5t17 -54.5q0 -53 -30 -92.5t-71 -62.5l-26 27q57 48 58 88q-25 -2 -41.5 14t-16.5 42q0 27 17.5 43.5t44.5 16.5z" />
    <glyph glyph-name="uni013C" unicode="&#x13c;" horiz-adv-x="227" 
d="M70 0v710h87v-710h-87zM112 -60q31 0 48 -21.5t17 -54.5q0 -53 -30 -92.5t-71 -62.5l-26 27q57 48 58 88q-25 -2 -41.5 14t-16.5 42q0 27 17.5 43.5t44.5 16.5z" />
    <glyph glyph-name="Lcaron" unicode="&#x13d;" horiz-adv-x="576" 
d="M338 708q28 0 44 -21.5t16 -55.5q0 -98 -95 -158l-24 30q54 44 55 92q-21 -2 -37 13t-16 41q0 27 16 43t41 16zM176 82h360v-82h-449v700h89v-618z" />
    <glyph glyph-name="lcaron" unicode="&#x13e;" horiz-adv-x="227" 
d="M70 0v710h87v-710h-87zM319 708q28 0 44 -21.5t16 -55.5q0 -98 -95 -158l-24 30q54 44 55 92q-21 -2 -37 13t-16 41q0 27 16 43t41 16z" />
    <glyph glyph-name="Ldot" unicode="&#x13f;" horiz-adv-x="576" 
d="M176 82h360v-82h-449v700h89v-618zM358 349q-24 0 -41.5 17t-17.5 41t17.5 40.5t41.5 16.5q23 0 40 -16.5t17 -40.5t-17 -41t-40 -17z" />
    <glyph glyph-name="ldot" unicode="&#x140;" horiz-adv-x="227" 
d="M114 780q-24 0 -41.5 17t-17.5 41t17.5 40.5t41.5 16.5q23 0 40 -16.5t17 -40.5t-17 -41t-40 -17zM70 0v710h87v-710h-87z" />
    <glyph glyph-name="Lslash" unicode="&#x141;" horiz-adv-x="576" 
d="M176 82h360v-82h-449v268l-116 -58v82l116 59v349h89v-304l179 90v-83l-179 -90v-231z" />
    <glyph glyph-name="lslash" unicode="&#x142;" horiz-adv-x="227" 
d="M251 470v-82l-94 -51v-337h-87v289l-92 -50v81l92 51v339h87v-292z" />
    <glyph glyph-name="Nacute" unicode="&#x143;" horiz-adv-x="738" 
d="M404 900h78l-77 -145h-71zM562 700h89v-700h-98l-370 546h-7v-546h-89v700h99l369 -546h7v546z" />
    <glyph glyph-name="nacute" unicode="&#x144;" horiz-adv-x="561" 
d="M314 700h78l-77 -145h-71zM70 0v500h79l8 -60h7q51 70 145 70q82 0 132 -51t50 -145v-314h-87v295q0 69 -32.5 103.5t-84.5 34.5q-55 0 -92.5 -37.5t-37.5 -110.5v-285h-87z" />
    <glyph glyph-name="uni0145" unicode="&#x145;" horiz-adv-x="738" 
d="M562 700h89v-700h-98l-370 546h-7v-546h-89v700h99l369 -546h7v546zM367 -60q31 0 48 -21.5t17 -54.5q0 -53 -30 -92.5t-71 -62.5l-26 27q57 48 58 88q-25 -2 -41.5 14t-16.5 42q0 27 17.5 43.5t44.5 16.5z" />
    <glyph glyph-name="uni0146" unicode="&#x146;" horiz-adv-x="561" 
d="M70 0v500h79l8 -60h7q51 70 145 70q82 0 132 -51t50 -145v-314h-87v295q0 69 -32.5 103.5t-84.5 34.5q-55 0 -92.5 -37.5t-37.5 -110.5v-285h-87zM278 -60q31 0 48 -21.5t17 -54.5q0 -53 -30 -92.5t-71 -62.5l-26 27q57 48 58 88q-25 -2 -41.5 14t-16.5 42
q0 27 17.5 43.5t44.5 16.5z" />
    <glyph glyph-name="Ncaron" unicode="&#x147;" horiz-adv-x="738" 
d="M430 900h79l-101 -141h-78l-102 141h79l60 -86h5zM562 700h89v-700h-98l-370 546h-7v-546h-89v700h99l369 -546h7v546z" />
    <glyph glyph-name="ncaron" unicode="&#x148;" horiz-adv-x="561" 
d="M341 700h79l-101 -141h-78l-102 141h79l60 -86h5zM70 0v500h79l8 -60h7q51 70 145 70q82 0 132 -51t50 -145v-314h-87v295q0 69 -32.5 103.5t-84.5 34.5q-55 0 -92.5 -37.5t-37.5 -110.5v-285h-87z" />
    <glyph glyph-name="Eng" unicode="&#x14a;" horiz-adv-x="738" 
d="M562 700h89v-779q0 -65 -35 -98t-94 -33q-35 0 -75 11v67q30 -7 51 -7q65 0 65 67v59l-380 559h-7v-546h-89v700h99l369 -546h7v546z" />
    <glyph glyph-name="eng" unicode="&#x14b;" horiz-adv-x="561" 
d="M309 510q82 0 132 -51t50 -145v-393q0 -65 -34.5 -98t-93.5 -33q-38 0 -75 11v67q30 -7 51 -7q65 0 65 67v367q0 69 -32.5 103.5t-84.5 34.5q-55 0 -92.5 -37.5t-37.5 -110.5v-285h-87v500h79l8 -60h7q51 70 145 70z" />
    <glyph glyph-name="Omacron" unicode="&#x14c;" horiz-adv-x="823" 
d="M262 845h301v-64h-301v64zM412 -10q-148 0 -247 102.5t-99 257.5q0 154 99 257t247 103q147 0 246 -103t99 -257q0 -153 -98.5 -256.5t-246.5 -103.5zM412 74q108 0 180.5 79.5t72.5 196.5t-72.5 196.5t-180.5 79.5t-181 -79.5t-73 -196.5t73 -196.5t181 -79.5z" />
    <glyph glyph-name="omacron" unicode="&#x14d;" horiz-adv-x="607" 
d="M154 645h301v-64h-301v64zM303 -10q-108 0 -179.5 74.5t-71.5 185.5q0 113 71 186.5t180 73.5q108 0 180 -74t72 -186t-71.5 -186t-180.5 -74zM303 67q72 0 118.5 53.5t46.5 129.5q0 77 -46.5 130t-118.5 53q-73 0 -118 -53t-45 -130q0 -76 45.5 -129.5t117.5 -53.5z" />
    <glyph glyph-name="Obreve" unicode="&#x14e;" horiz-adv-x="823" 
d="M542 900q0 -51 -36.5 -90t-94.5 -39t-95.5 39t-37.5 90h70q0 -31 17.5 -51t45.5 -20t44.5 20t16.5 51h70zM412 -10q-148 0 -247 102.5t-99 257.5q0 154 99 257t247 103q147 0 246 -103t99 -257q0 -153 -98.5 -256.5t-246.5 -103.5zM412 74q108 0 180.5 79.5t72.5 196.5
t-72.5 196.5t-180.5 79.5t-181 -79.5t-73 -196.5t73 -196.5t181 -79.5z" />
    <glyph glyph-name="obreve" unicode="&#x14f;" horiz-adv-x="607" 
d="M434 700q0 -51 -36.5 -90t-94.5 -39t-95.5 39t-37.5 90h70q0 -31 17.5 -51t45.5 -20t44.5 20t16.5 51h70zM303 -10q-108 0 -179.5 74.5t-71.5 185.5q0 113 71 186.5t180 73.5q108 0 180 -74t72 -186t-71.5 -186t-180.5 -74zM303 67q72 0 118.5 53.5t46.5 129.5
q0 77 -46.5 130t-118.5 53q-73 0 -118 -53t-45 -130q0 -76 45.5 -129.5t117.5 -53.5z" />
    <glyph glyph-name="Ohungarumlaut" unicode="&#x150;" horiz-adv-x="823" 
d="M358 900h77l-64 -145h-71zM512 900h77l-65 -145h-70zM412 -10q-148 0 -247 102.5t-99 257.5q0 154 99 257t247 103q147 0 246 -103t99 -257q0 -153 -98.5 -256.5t-246.5 -103.5zM412 74q108 0 180.5 79.5t72.5 196.5t-72.5 196.5t-180.5 79.5t-181 -79.5t-73 -196.5
t73 -196.5t181 -79.5z" />
    <glyph glyph-name="ohungarumlaut" unicode="&#x151;" horiz-adv-x="607" 
d="M250 700h77l-64 -145h-71zM404 700h77l-65 -145h-70zM303 -10q-108 0 -179.5 74.5t-71.5 185.5q0 113 71 186.5t180 73.5q108 0 180 -74t72 -186t-71.5 -186t-180.5 -74zM303 67q72 0 118.5 53.5t46.5 129.5q0 77 -46.5 130t-118.5 53q-73 0 -118 -53t-45 -130
q0 -76 45.5 -129.5t117.5 -53.5z" />
    <glyph glyph-name="OE" unicode="&#x152;" horiz-adv-x="1121" 
d="M726 81h348v-81h-437v115q-42 -59 -105 -92t-137 -33q-142 0 -235.5 102t-93.5 258t94 258t235 102q74 0 137 -33t105 -91v114h427v-81h-338v-224h296v-79h-296v-235zM397 74q103 0 170.5 77.5t67.5 198.5t-68 198.5t-170 77.5q-103 0 -171 -77.5t-68 -198.5t68 -198.5
t171 -77.5z" />
    <glyph glyph-name="oe" unicode="&#x153;" horiz-adv-x="780" 
d="M551 59q35 0 61.5 20t31.5 66h81q-8 -78 -56 -116.5t-116 -38.5q-108 0 -150 81q-55 -81 -150 -81q-88 0 -144.5 71t-56.5 189q0 120 56 190t145 70q97 0 152 -84q45 84 146 84q77 0 126 -58t49 -191q0 -8 -2 -34h-271q1 -31 3.5 -53.5t11.5 -52t30 -46t53 -16.5z
M551 441q-42 0 -68.5 -36.5t-29.5 -112.5h191q0 149 -93 149zM253 62q52 0 83 50.5t31 137.5q0 88 -31 138t-83 50q-53 0 -83 -49.5t-30 -138.5q0 -87 30.5 -137.5t82.5 -50.5z" />
    <glyph glyph-name="Racute" unicode="&#x154;" horiz-adv-x="623" 
d="M431 900l-77 -145h-71l70 145h78zM584 0h-100l-172 294h-136v-294h-89v700h247q101 0 159.5 -54t58.5 -144q0 -74 -40 -124t-111 -69zM176 621v-248h146q65 0 102.5 34.5t37.5 90.5q0 59 -37.5 91t-102.5 32h-146z" />
    <glyph glyph-name="racute" unicode="&#x155;" horiz-adv-x="356" 
d="M237 700h78l-77 -145h-71zM70 0v500h79l8 -69h7q22 38 54 58.5t89 20.5h29v-88q-15 2 -45 2q-64 0 -99 -44.5t-35 -117.5v-262h-87z" />
    <glyph glyph-name="uni0156" unicode="&#x156;" horiz-adv-x="623" 
d="M401 309l183 -309h-100l-172 294h-136v-294h-89v700h247q101 0 159.5 -54t58.5 -144q0 -74 -40 -124t-111 -69zM176 621v-248h146q65 0 102.5 34.5t37.5 90.5q0 59 -37.5 91t-102.5 32h-146zM328 -60q31 0 48 -21.5t17 -54.5q0 -53 -30 -92.5t-71 -62.5l-26 27
q57 48 58 88q-25 -2 -41.5 14t-16.5 42q0 27 17.5 43.5t44.5 16.5z" />
    <glyph glyph-name="uni0157" unicode="&#x157;" horiz-adv-x="356" 
d="M70 0v500h79l8 -69h7q22 38 54 58.5t89 20.5h29v-88q-15 2 -45 2q-64 0 -99 -44.5t-35 -117.5v-262h-87zM111 -60q31 0 48 -21.5t17 -54.5q0 -53 -30 -92.5t-71 -62.5l-26 27q57 48 58 88q-25 -2 -41.5 14t-16.5 42q0 27 17.5 43.5t44.5 16.5z" />
    <glyph glyph-name="Rcaron" unicode="&#x158;" horiz-adv-x="623" 
d="M357 759h-78l-102 141h79l60 -86h5l58 86h79zM584 0h-100l-172 294h-136v-294h-89v700h247q101 0 159.5 -54t58.5 -144q0 -74 -40 -124t-111 -69zM176 621v-248h146q65 0 102.5 34.5t37.5 90.5q0 59 -37.5 91t-102.5 32h-146z" />
    <glyph glyph-name="rcaron" unicode="&#x159;" horiz-adv-x="356" 
d="M264 700h79l-101 -141h-78l-102 141h79l60 -86h5zM70 0v500h79l8 -69h7q22 38 54 58.5t89 20.5h29v-88q-15 2 -45 2q-64 0 -99 -44.5t-35 -117.5v-262h-87z" />
    <glyph glyph-name="Sacute" unicode="&#x15a;" horiz-adv-x="607" 
d="M345 900h78l-77 -145h-71zM537 183q0 -94 -64.5 -143.5t-162.5 -49.5q-110 0 -173.5 55.5t-70.5 154.5h89q8 -63 48 -97t107 -34q59 0 97 28t38 84q0 32 -12.5 55.5t-37 39.5t-44.5 24t-52 18l-35 10q-35 11 -60.5 23t-54.5 33.5t-45 55t-16 76.5q0 88 63 141t160 53
q98 0 159.5 -55.5t66.5 -142.5h-90q-6 53 -40.5 86t-95.5 33q-58 0 -95.5 -31t-37.5 -80q0 -19 5.5 -34.5t18 -27.5t22.5 -20t31 -16t30 -11.5t32 -10.5l31 -10q26 -8 43.5 -15t48 -24.5t49 -37.5t33.5 -54.5t15 -75.5z" />
    <glyph glyph-name="sacute" unicode="&#x15b;" horiz-adv-x="477" 
d="M265 700h78l-77 -145h-71zM248 -10q-93 0 -142.5 44t-53.5 118h85q9 -93 111 -93q40 0 66.5 17.5t26.5 52.5q0 37 -27.5 57t-75.5 34l-34 9q-28 8 -47 16t-42 23.5t-35 40.5t-12 58q0 65 49.5 104t119.5 39q84 0 130 -42t49 -101h-85q-3 33 -28 53.5t-65 20.5
q-37 0 -61.5 -18t-24.5 -52q0 -17 7 -29.5t22.5 -21.5t28 -14t36.5 -12l32 -10q66 -18 106.5 -52.5t40.5 -100.5q0 -70 -50 -105.5t-127 -35.5z" />
    <glyph glyph-name="Scircumflex" unicode="&#x15c;" horiz-adv-x="607" 
d="M249 759h-79l101 141h78l102 -141h-79l-59 86h-6zM537 183q0 -94 -64.5 -143.5t-162.5 -49.5q-110 0 -173.5 55.5t-70.5 154.5h89q8 -63 48 -97t107 -34q59 0 97 28t38 84q0 32 -12.5 55.5t-37 39.5t-44.5 24t-52 18l-35 10q-35 11 -60.5 23t-54.5 33.5t-45 55t-16 76.5
q0 88 63 141t160 53q98 0 159.5 -55.5t66.5 -142.5h-90q-6 53 -40.5 86t-95.5 33q-58 0 -95.5 -31t-37.5 -80q0 -19 5.5 -34.5t18 -27.5t22.5 -20t31 -16t30 -11.5t32 -10.5l31 -10q26 -8 43.5 -15t48 -24.5t49 -37.5t33.5 -54.5t15 -75.5z" />
    <glyph glyph-name="scircumflex" unicode="&#x15d;" horiz-adv-x="477" 
d="M169 559h-79l101 141h78l102 -141h-79l-59 86h-6zM248 -10q-93 0 -142.5 44t-53.5 118h85q9 -93 111 -93q40 0 66.5 17.5t26.5 52.5q0 37 -27.5 57t-75.5 34l-34 9q-28 8 -47 16t-42 23.5t-35 40.5t-12 58q0 65 49.5 104t119.5 39q84 0 130 -42t49 -101h-85
q-3 33 -28 53.5t-65 20.5q-37 0 -61.5 -18t-24.5 -52q0 -17 7 -29.5t22.5 -21.5t28 -14t36.5 -12l32 -10q66 -18 106.5 -52.5t40.5 -100.5q0 -70 -50 -105.5t-127 -35.5z" />
    <glyph glyph-name="Scedilla" unicode="&#x15e;" horiz-adv-x="607" 
d="M348 390q26 -8 43.5 -15t48 -24.5t49 -37.5t33.5 -54.5t15 -75.5q0 -88 -57 -137t-147 -55l-24 -35q37 2 67.5 -20t30.5 -63q0 -38 -26.5 -60.5t-73.5 -22.5q-44 0 -73 21l18 40q28 -16 52 -16t37.5 11.5t13.5 29.5t-13.5 30t-39.5 12q-16 0 -34 -8l-30 25l39 56
q-95 8 -150 63t-61 146h89q8 -63 48 -97t107 -34q59 0 97 28t38 84q0 32 -12.5 55.5t-37 39.5t-44.5 24t-52 18l-35 10q-35 11 -60.5 23t-54.5 33.5t-45 55t-16 76.5q0 88 63 141t160 53q98 0 159.5 -55.5t66.5 -142.5h-90q-6 53 -40.5 86t-95.5 33q-58 0 -95.5 -31
t-37.5 -80q0 -19 5.5 -34.5t18 -27.5t22.5 -20t31 -16t30 -11.5t32 -10.5z" />
    <glyph glyph-name="scedilla" unicode="&#x15f;" horiz-adv-x="477" 
d="M425 131q0 -65 -43 -100t-113 -40l-24 -35q37 2 67.5 -20t30.5 -63q0 -38 -26.5 -60.5t-73.5 -22.5q-44 0 -73 21l18 40q28 -16 52 -16t37.5 11.5t13.5 29.5t-13.5 30t-39.5 12q-16 0 -34 -8l-30 25l39 57q-76 8 -116.5 51t-44.5 109h85q9 -93 111 -93q40 0 66.5 17.5
t26.5 52.5q0 37 -27.5 57t-75.5 34l-34 9q-28 8 -47 16t-42 23.5t-35 40.5t-12 58q0 65 49.5 104t119.5 39q84 0 130 -42t49 -101h-85q-3 33 -28 53.5t-65 20.5q-37 0 -61.5 -18t-24.5 -52q0 -17 7 -29.5t22.5 -21.5t28 -14t36.5 -12l32 -10q66 -18 106.5 -52.5t40.5 -100.5
z" />
    <glyph glyph-name="Scaron" unicode="&#x160;" horiz-adv-x="607" 
d="M372 900h79l-101 -141h-78l-102 141h79l60 -86h5zM537 183q0 -94 -64.5 -143.5t-162.5 -49.5q-110 0 -173.5 55.5t-70.5 154.5h89q8 -63 48 -97t107 -34q59 0 97 28t38 84q0 32 -12.5 55.5t-37 39.5t-44.5 24t-52 18l-35 10q-35 11 -60.5 23t-54.5 33.5t-45 55t-16 76.5
q0 88 63 141t160 53q98 0 159.5 -55.5t66.5 -142.5h-90q-6 53 -40.5 86t-95.5 33q-58 0 -95.5 -31t-37.5 -80q0 -19 5.5 -34.5t18 -27.5t22.5 -20t31 -16t30 -11.5t32 -10.5l31 -10q26 -8 43.5 -15t48 -24.5t49 -37.5t33.5 -54.5t15 -75.5z" />
    <glyph glyph-name="scaron" unicode="&#x161;" horiz-adv-x="477" 
d="M291 700h79l-101 -141h-78l-102 141h79l60 -86h5zM248 -10q-93 0 -142.5 44t-53.5 118h85q9 -93 111 -93q40 0 66.5 17.5t26.5 52.5q0 37 -27.5 57t-75.5 34l-34 9q-28 8 -47 16t-42 23.5t-35 40.5t-12 58q0 65 49.5 104t119.5 39q84 0 130 -42t49 -101h-85
q-3 33 -28 53.5t-65 20.5q-37 0 -61.5 -18t-24.5 -52q0 -17 7 -29.5t22.5 -21.5t28 -14t36.5 -12l32 -10q66 -18 106.5 -52.5t40.5 -100.5q0 -70 -50 -105.5t-127 -35.5z" />
    <glyph glyph-name="uni0162" unicode="&#x162;" horiz-adv-x="575" 
d="M333 0h-16l-31 -44q37 2 67.5 -20t30.5 -63q0 -38 -26.5 -60.5t-73.5 -22.5q-44 0 -73 21l18 40q28 -16 52 -16t37.5 11.5t13.5 29.5t-13.5 30t-39.5 12q-16 0 -34 -8l-30 25l45 65h-18v618h-202v82h495v-82h-202v-618z" />
    <glyph glyph-name="uni0163" unicode="&#x163;" horiz-adv-x="358" 
d="M339 429h-125v-304q0 -63 63 -63q24 0 50 8v-69q-40 -11 -73 -11h-5l-24 -34q37 2 67.5 -20t30.5 -63q0 -38 -26.5 -60.5t-73.5 -22.5q-44 0 -73 21l18 40q28 -16 52 -16t37.5 11.5t13.5 29.5t-13.5 30t-39.5 12q-16 0 -34 -8l-30 25l44 63q-72 24 -72 115v316h-106v71
h34q44 0 62 16.5t18 57.5v62h80v-136h125v-71z" />
    <glyph glyph-name="Tcaron" unicode="&#x164;" horiz-adv-x="575" 
d="M327 759h-78l-102 141h79l60 -86h5l58 86h79zM535 700v-82h-202v-618h-91v618h-202v82h495z" />
    <glyph glyph-name="tcaron" unicode="&#x165;" horiz-adv-x="358" 
d="M370 769q28 0 43 -20t15 -52q0 -50 -27 -87t-64 -60l-23 28q52 41 52 85q-20 -2 -35.5 12.5t-15.5 38.5q0 25 15.5 40t39.5 15zM254 -10q-71 0 -99.5 35.5t-28.5 87.5v316h-106v71h34q44 0 62 16.5t18 57.5v62h80v-136h125v-71h-125v-304q0 -63 63 -63q24 0 50 8v-69
q-40 -11 -73 -11z" />
    <glyph glyph-name="Tbar" unicode="&#x166;" horiz-adv-x="575" 
d="M535 618h-202v-238h147v-69h-147v-311h-91v311h-146v69h146v238h-202v82h495v-82z" />
    <glyph glyph-name="tbar" unicode="&#x167;" horiz-adv-x="358" 
d="M339 429h-125v-126h118v-66h-118v-112q0 -63 63 -63q24 0 50 8v-69q-40 -11 -73 -11q-71 0 -99.5 35.5t-28.5 87.5v124h-102v66h102v126h-106v71h34q44 0 62 16.5t18 57.5v62h80v-136h125v-71z" />
    <glyph glyph-name="Utilde" unicode="&#x168;" horiz-adv-x="717" 
d="M531 867q-3 -49 -29 -83.5t-71 -34.5q-25 0 -46 10t-32.5 21.5t-26.5 21.5t-30 10q-40 0 -46 -55h-63q5 52 30.5 85.5t70.5 33.5q26 0 47 -10t32 -22t25.5 -22t29.5 -10q41 0 47 55h62zM630 700v-436q0 -132 -74 -203t-196 -71q-123 0 -198 71t-75 203v436h91v-430
q0 -95 50.5 -145.5t131.5 -50.5t130 50.5t49 145.5v430h91z" />
    <glyph glyph-name="utilde" unicode="&#x169;" horiz-adv-x="561" 
d="M453 667q-3 -49 -29 -83.5t-71 -34.5q-25 0 -46 10t-32.5 21.5t-26.5 21.5t-30 10q-40 0 -46 -55h-63q5 52 30.5 85.5t70.5 33.5q26 0 47 -10t32 -22t25.5 -22t29.5 -10q41 0 47 55h62zM491 500v-500h-79l-8 60h-7q-51 -70 -145 -70q-82 0 -132 51t-50 145v314h87v-295
q0 -69 32.5 -103.5t84.5 -34.5q56 0 93 37.5t37 110.5v285h87z" />
    <glyph glyph-name="Umacron" unicode="&#x16a;" horiz-adv-x="717" 
d="M209 845h301v-64h-301v64zM630 700v-436q0 -132 -74 -203t-196 -71q-123 0 -198 71t-75 203v436h91v-430q0 -95 50.5 -145.5t131.5 -50.5t130 50.5t49 145.5v430h91z" />
    <glyph glyph-name="umacron" unicode="&#x16b;" horiz-adv-x="561" 
d="M131 645h301v-64h-301v64zM491 500v-500h-79l-8 60h-7q-51 -70 -145 -70q-82 0 -132 51t-50 145v314h87v-295q0 -69 32.5 -103.5t84.5 -34.5q56 0 93 37.5t37 110.5v285h87z" />
    <glyph glyph-name="Ubreve" unicode="&#x16c;" horiz-adv-x="717" 
d="M489 900q0 -51 -36.5 -90t-94.5 -39t-95.5 39t-37.5 90h70q0 -31 17.5 -51t45.5 -20t44.5 20t16.5 51h70zM630 700v-436q0 -132 -74 -203t-196 -71q-123 0 -198 71t-75 203v436h91v-430q0 -95 50.5 -145.5t131.5 -50.5t130 50.5t49 145.5v430h91z" />
    <glyph glyph-name="ubreve" unicode="&#x16d;" horiz-adv-x="561" 
d="M411 700q0 -51 -36.5 -90t-94.5 -39t-95.5 39t-37.5 90h70q0 -31 17.5 -51t45.5 -20t44.5 20t16.5 51h70zM491 500v-500h-79l-8 60h-7q-51 -70 -145 -70q-82 0 -132 51t-50 145v314h87v-295q0 -69 32.5 -103.5t84.5 -34.5q56 0 93 37.5t37 110.5v285h87z" />
    <glyph glyph-name="Uring" unicode="&#x16e;" horiz-adv-x="717" 
d="M359 741q-39 0 -67.5 28.5t-28.5 66.5q0 39 28.5 67t67.5 28t67.5 -28t28.5 -67q0 -38 -28.5 -66.5t-67.5 -28.5zM360 792q17 0 29 13t12 31q0 17 -12.5 30t-28.5 13q-18 0 -30.5 -12.5t-12.5 -30.5t12.5 -31t30.5 -13zM630 700v-436q0 -132 -74 -203t-196 -71
q-123 0 -198 71t-75 203v436h91v-430q0 -95 50.5 -145.5t131.5 -50.5t130 50.5t49 145.5v430h91z" />
    <glyph glyph-name="uring" unicode="&#x16f;" horiz-adv-x="561" 
d="M281 541q-39 0 -67.5 28.5t-28.5 66.5q0 39 28.5 67t67.5 28t67.5 -28t28.5 -67q0 -38 -28.5 -66.5t-67.5 -28.5zM282 592q17 0 29 13t12 31q0 17 -12.5 30t-28.5 13q-18 0 -30.5 -12.5t-12.5 -30.5t12.5 -31t30.5 -13zM491 500v-500h-79l-8 60h-7q-51 -70 -145 -70
q-82 0 -132 51t-50 145v314h87v-295q0 -69 32.5 -103.5t84.5 -34.5q56 0 93 37.5t37 110.5v285h87z" />
    <glyph glyph-name="Uhungarumlaut" unicode="&#x170;" horiz-adv-x="717" 
d="M305 900h77l-64 -145h-71zM459 900h77l-65 -145h-70zM630 700v-436q0 -132 -74 -203t-196 -71q-123 0 -198 71t-75 203v436h91v-430q0 -95 50.5 -145.5t131.5 -50.5t130 50.5t49 145.5v430h91z" />
    <glyph glyph-name="uhungarumlaut" unicode="&#x171;" horiz-adv-x="561" 
d="M227 700h77l-64 -145h-71zM381 700h77l-65 -145h-70zM491 500v-500h-79l-8 60h-7q-51 -70 -145 -70q-82 0 -132 51t-50 145v314h87v-295q0 -69 32.5 -103.5t84.5 -34.5q56 0 93 37.5t37 110.5v285h87z" />
    <glyph glyph-name="Uogonek" unicode="&#x172;" horiz-adv-x="717" 
d="M539 700h91v-436q0 -108 -51 -175.5t-139 -89.5q-67 -25 -67 -73q0 -43 57 -43q22 0 45 6v-55q-18 -7 -52 -7q-50 0 -81 22.5t-31 66.5q0 45 43 74q-120 2 -193.5 73t-73.5 201v436h91v-430q0 -95 50.5 -145.5t131.5 -50.5t130 50.5t49 145.5v430z" />
    <glyph glyph-name="uogonek" unicode="&#x173;" horiz-adv-x="561" 
d="M478 -117q22 0 45 6v-55q-18 -7 -52 -7q-50 0 -81 22.5t-31 66.5q0 51 60 84h-7l-8 60h-7q-51 -70 -145 -70q-82 0 -132 51t-50 145v314h87v-295q0 -69 32.5 -103.5t84.5 -34.5q56 0 93 37.5t37 110.5v285h87v-500q-70 -24 -70 -74q0 -43 57 -43z" />
    <glyph glyph-name="Wcircumflex" unicode="&#x174;" horiz-adv-x="895" 
d="M386 759h-79l101 141h78l102 -141h-79l-59 86h-6zM781 700h87l-156 -700h-105l-156 535h-7l-156 -535h-105l-157 700h89l122 -572h7l153 522h101l152 -522h7z" />
    <glyph glyph-name="wcircumflex" unicode="&#x175;" horiz-adv-x="720" 
d="M298 559h-79l101 141h78l102 -141h-79l-59 86h-6zM147 0l-126 500h83l93 -399h7l108 363h97l107 -363h7l94 399h83l-128 -500h-102l-106 367h-7l-109 -367h-101z" />
    <glyph glyph-name="Ycircumflex" unicode="&#x176;" horiz-adv-x="648" 
d="M262 759h-79l101 141h78l102 -141h-79l-59 86h-6zM512 700h110l-252 -369v-331h-91v331l-253 369h110l185 -270h6z" />
    <glyph glyph-name="ycircumflex" unicode="&#x177;" horiz-adv-x="531" 
d="M204 559h-79l101 141h78l102 -141h-79l-59 86h-6zM127 -210q-31 0 -71 11v67q32 -7 54 -7q77 0 107 74l26 65h-30l-192 500h91l154 -409h7l146 409h91l-210 -578q-6 -18 -11.5 -29.5t-19.5 -33t-31 -35t-46.5 -24t-64.5 -10.5z" />
    <glyph glyph-name="Ydieresis" unicode="&#x178;" horiz-adv-x="648" 
d="M210 766q-25 0 -43 17.5t-18 42.5t18 42.5t43 17.5t42.5 -17.5t17.5 -42.5t-17.5 -42.5t-42.5 -17.5zM439 766q-24 0 -41.5 17.5t-17.5 42.5t17.5 42.5t41.5 17.5q25 0 43 -17.5t18 -42.5t-18 -42.5t-43 -17.5zM512 700h110l-252 -369v-331h-91v331l-253 369h110
l185 -270h6z" />
    <glyph glyph-name="Zacute" unicode="&#x179;" horiz-adv-x="617" 
d="M350 900h78l-77 -145h-71zM199 82h348v-82h-481v51l352 562v5h-331v82h458v-51l-346 -562v-5z" />
    <glyph glyph-name="zacute" unicode="&#x17a;" horiz-adv-x="481" 
d="M280 700h78l-77 -145h-71zM52 0v44l252 381v5h-236v70h356v-44l-251 -381v-5h254v-70h-375z" />
    <glyph glyph-name="Zdotaccent" unicode="&#x17b;" horiz-adv-x="617" 
d="M316 780q-24 0 -41.5 17t-17.5 41t17.5 40.5t41.5 16.5q23 0 40 -16.5t17 -40.5t-17 -41t-40 -17zM199 82h348v-82h-481v51l352 562v5h-331v82h458v-51l-346 -562v-5z" />
    <glyph glyph-name="zdotaccent" unicode="&#x17c;" horiz-adv-x="481" 
d="M247 580q-24 0 -41.5 17t-17.5 41t17.5 40.5t41.5 16.5q23 0 40 -16.5t17 -40.5t-17 -41t-40 -17zM52 0v44l252 381v5h-236v70h356v-44l-251 -381v-5h254v-70h-375z" />
    <glyph glyph-name="Zcaron" unicode="&#x17d;" horiz-adv-x="617" 
d="M377 900h79l-101 -141h-78l-102 141h79l60 -86h5zM199 82h348v-82h-481v51l352 562v5h-331v82h458v-51l-346 -562v-5z" />
    <glyph glyph-name="zcaron" unicode="&#x17e;" horiz-adv-x="481" 
d="M307 700h79l-101 -141h-78l-102 141h79l60 -86h5zM52 0v44l252 381v5h-236v70h356v-44l-251 -381v-5h254v-70h-375z" />
    <glyph glyph-name="florin" unicode="&#x192;" horiz-adv-x="532" 
d="M412 579q-60 0 -70 -66l-23 -136h139v-66h-151l-33 -193q-23 -128 -147 -128q-60 0 -101 38l31 59q28 -26 63 -26q60 0 71 66l31 184h-131v66h142l25 145q23 128 147 128q58 0 101 -38l-31 -59q-29 26 -63 26z" />
    <glyph glyph-name="uni01CD" unicode="&#x1cd;" horiz-adv-x="652" 
d="M366 759h-78l-102 141h79l60 -86h5l58 86h79zM529 0l-64 191h-278l-64 -191h-97l244 700h112l244 -700h-97zM213 269h225l-109 324h-7z" />
    <glyph glyph-name="uni01CE" unicode="&#x1ce;" horiz-adv-x="529" 
d="M292 559h-78l-102 141h79l60 -86h5l58 86h79zM488 68h13v-68h-40q-74 0 -89 64q-58 -74 -165 -74q-74 0 -119.5 36.5t-45.5 106.5q0 68 46.5 106.5t123.5 46.5l149 14v28q0 52 -27 81t-77 29q-90 0 -108 -95h-87q8 74 59.5 120.5t135.5 46.5q87 0 139.5 -48t52.5 -136
v-217q0 -41 39 -41zM361 192v44l-121 -12q-51 -5 -80.5 -27t-29.5 -61t25 -57.5t64 -18.5q57 0 99.5 32.5t42.5 99.5z" />
    <glyph glyph-name="uni01CF" unicode="&#x1cf;" horiz-adv-x="265" 
d="M194 900h79l-101 -141h-78l-102 141h79l60 -86h5zM178 700v-700h-91v700h91z" />
    <glyph glyph-name="uni01D0" unicode="&#x1d0;" horiz-adv-x="227" 
d="M175 700h79l-101 -141h-78l-102 141h79l60 -86h5zM70 0v500h87v-500h-87z" />
    <glyph glyph-name="uni01D1" unicode="&#x1d1;" horiz-adv-x="823" 
d="M473 900h79l-101 -141h-78l-102 141h79l60 -86h5zM412 -10q-148 0 -247 102.5t-99 257.5q0 154 99 257t247 103q147 0 246 -103t99 -257q0 -153 -98.5 -256.5t-246.5 -103.5zM412 74q108 0 180.5 79.5t72.5 196.5t-72.5 196.5t-180.5 79.5t-181 -79.5t-73 -196.5
t73 -196.5t181 -79.5z" />
    <glyph glyph-name="uni01D2" unicode="&#x1d2;" horiz-adv-x="607" 
d="M365 700h79l-101 -141h-78l-102 141h79l60 -86h5zM303 -10q-108 0 -179.5 74.5t-71.5 185.5q0 113 71 186.5t180 73.5q108 0 180 -74t72 -186t-71.5 -186t-180.5 -74zM303 67q72 0 118.5 53.5t46.5 129.5q0 77 -46.5 130t-118.5 53q-73 0 -118 -53t-45 -130
q0 -76 45.5 -129.5t117.5 -53.5z" />
    <glyph glyph-name="uni01D3" unicode="&#x1d3;" horiz-adv-x="717" 
d="M420 900h79l-101 -141h-78l-102 141h79l60 -86h5zM630 700v-436q0 -132 -74 -203t-196 -71q-123 0 -198 71t-75 203v436h91v-430q0 -95 50.5 -145.5t131.5 -50.5t130 50.5t49 145.5v430h91z" />
    <glyph glyph-name="uni01D4" unicode="&#x1d4;" horiz-adv-x="561" 
d="M342 700h79l-101 -141h-78l-102 141h79l60 -86h5zM491 500v-500h-79l-8 60h-7q-51 -70 -145 -70q-82 0 -132 51t-50 145v314h87v-295q0 -69 32.5 -103.5t84.5 -34.5q56 0 93 37.5t37 110.5v285h87z" />
    <glyph glyph-name="uni01E2" unicode="&#x1e2;" horiz-adv-x="1009" 
d="M865 845v-64h-301v64h301zM613 81h348v-81h-436v191h-268l-124 -191h-107l451 700h474v-81h-338v-224h297v-79h-297v-235zM308 269h217v324h-7z" />
    <glyph glyph-name="uni01E3" unicode="&#x1e3;" horiz-adv-x="720" 
d="M499 645v-64h-301v64h301zM666 261q0 -21 -1 -34h-272q3 -168 99 -168q34 0 60.5 20t31.5 66h81q-8 -79 -55.5 -117t-116.5 -38q-103 0 -144 80q-39 -80 -155 -80q-70 0 -111 35t-41 102q0 84 59.5 124.5t159.5 40.5h44v49q0 98 -82 98q-86 0 -91 -85l-84 2
q4 73 50 113.5t122 40.5q95 0 137 -73q44 73 136 73q76 0 124.5 -58t48.5 -191zM492 441q-43 0 -69.5 -36.5t-29.5 -112.5h191q0 79 -25.5 114t-66.5 35zM206 59q40 0 69.5 24.5t29.5 79.5v64h-39q-141 0 -141 -93q0 -37 22 -56t59 -19z" />
    <glyph glyph-name="Gcaron" unicode="&#x1e6;" horiz-adv-x="785" 
d="M457 900h79l-101 -141h-78l-102 141h79l60 -86h5zM400 364h298v-364h-72l-11 81h-7q-82 -91 -221 -91q-146 0 -233.5 98t-87.5 252q0 159 95.5 264.5t247.5 105.5q116 0 191.5 -58t93.5 -151h-98q-18 57 -66.5 91t-120.5 34q-113 0 -182 -80t-69 -205q0 -118 64.5 -193.5
t174.5 -75.5q89 0 150 44.5t61 126.5v48h-208v73z" />
    <glyph glyph-name="gcaron" unicode="&#x1e7;" horiz-adv-x="536" 
d="M312 559h-78l-102 141h79l60 -86h5l58 86h79zM515 496q-34 -35 -84 -60q31 -43 31 -98q0 -77 -53 -123.5t-135 -46.5q-48 0 -90 17q-33 -17 -33 -45q0 -46 72 -46h98q83 0 128.5 -37t45.5 -104q0 -78 -59.5 -120.5t-157.5 -42.5q-104 0 -161 48t-65 123l84 71
q-30 11 -47.5 35t-17.5 56q0 59 64 93q-52 47 -52 122t52 123.5t136 48.5q66 0 114 -31q46 23 81 69zM274 235q47 0 75.5 29.5t28.5 73.5q0 47 -28 76t-76 29t-77.5 -29t-29.5 -76q0 -44 30 -73.5t77 -29.5zM411 -51q0 39 -30 56.5t-69 17.5h-88l-85 -71q24 -93 139 -93
q56 0 94.5 23t38.5 67z" />
    <glyph glyph-name="uni01EA" unicode="&#x1ea;" horiz-adv-x="823" 
d="M492 -1q-67 -24 -67 -73q0 -43 57 -43q22 0 45 6v-55q-18 -7 -52 -7q-50 0 -81 22.5t-31 66.5q0 45 43 74q-146 2 -243 104.5t-97 255.5q0 154 99 257t247 103q147 0 246 -103t99 -257q0 -130 -73.5 -227t-191.5 -124zM158 350q0 -117 73 -196.5t181 -79.5t180.5 79.5
t72.5 196.5t-72.5 196.5t-180.5 79.5t-181 -79.5t-73 -196.5z" />
    <glyph glyph-name="uni01EB" unicode="&#x1eb;" horiz-adv-x="607" 
d="M371 -1q-66 -26 -66 -73q0 -43 57 -43q22 0 45 6v-55q-18 -7 -52 -7q-50 0 -81 22.5t-31 66.5q0 46 44 74q-102 7 -168.5 80.5t-66.5 179.5q0 113 71 186.5t180 73.5q108 0 180 -74t72 -186q0 -93 -51 -161.5t-133 -89.5zM140 250q0 -76 45.5 -129.5t117.5 -53.5
t118.5 53.5t46.5 129.5q0 77 -46.5 130t-118.5 53q-73 0 -118 -53t-45 -130z" />
    <glyph glyph-name="uni01F4" unicode="&#x1f4;" horiz-adv-x="785" 
d="M431 900h78l-77 -145h-71zM400 364h298v-364h-72l-11 81h-7q-82 -91 -221 -91q-146 0 -233.5 98t-87.5 252q0 159 95.5 264.5t247.5 105.5q116 0 191.5 -58t93.5 -151h-98q-18 57 -66.5 91t-120.5 34q-113 0 -182 -80t-69 -205q0 -118 64.5 -193.5t174.5 -75.5
q89 0 150 44.5t61 126.5v48h-208v73z" />
    <glyph glyph-name="uni01F5" unicode="&#x1f5;" horiz-adv-x="536" 
d="M385 700l-77 -145h-71l70 145h78zM515 496q-34 -35 -84 -60q31 -43 31 -98q0 -77 -53 -123.5t-135 -46.5q-48 0 -90 17q-33 -17 -33 -45q0 -46 72 -46h98q83 0 128.5 -37t45.5 -104q0 -78 -59.5 -120.5t-157.5 -42.5q-104 0 -161 48t-65 123l84 71q-30 11 -47.5 35
t-17.5 56q0 59 64 93q-52 47 -52 122t52 123.5t136 48.5q66 0 114 -31q46 23 81 69zM274 235q47 0 75.5 29.5t28.5 73.5q0 47 -28 76t-76 29t-77.5 -29t-29.5 -76q0 -44 30 -73.5t77 -29.5zM411 -51q0 39 -30 56.5t-69 17.5h-88l-85 -71q24 -93 139 -93q56 0 94.5 23
t38.5 67z" />
    <glyph glyph-name="uni01F8" unicode="&#x1f8;" horiz-adv-x="738" 
d="M336 900l69 -145h-70l-77 145h78zM562 700h89v-700h-98l-370 546h-7v-546h-89v700h99l369 -546h7v546z" />
    <glyph glyph-name="uni01F9" unicode="&#x1f9;" horiz-adv-x="561" 
d="M246 700l69 -145h-70l-77 145h78zM70 0v500h79l8 -60h7q51 70 145 70q82 0 132 -51t50 -145v-314h-87v295q0 69 -32.5 103.5t-84.5 34.5q-55 0 -92.5 -37.5t-37.5 -110.5v-285h-87z" />
    <glyph glyph-name="AEacute" unicode="&#x1fc;" horiz-adv-x="1009" 
d="M826 900l-77 -145h-71l70 145h78zM613 81h348v-81h-436v191h-268l-124 -191h-107l451 700h474v-81h-338v-224h297v-79h-297v-235zM308 269h217v324h-7z" />
    <glyph glyph-name="aeacute" unicode="&#x1fd;" horiz-adv-x="720" 
d="M461 700l-77 -145h-71l70 145h78zM666 261q0 -21 -1 -34h-272q3 -168 99 -168q34 0 60.5 20t31.5 66h81q-8 -79 -55.5 -117t-116.5 -38q-103 0 -144 80q-39 -80 -155 -80q-70 0 -111 35t-41 102q0 84 59.5 124.5t159.5 40.5h44v49q0 98 -82 98q-86 0 -91 -85l-84 2
q4 73 50 113.5t122 40.5q95 0 137 -73q44 73 136 73q76 0 124.5 -58t48.5 -191zM492 441q-43 0 -69.5 -36.5t-29.5 -112.5h191q0 79 -25.5 114t-66.5 35zM206 59q40 0 69.5 24.5t29.5 79.5v64h-39q-141 0 -141 -93q0 -37 22 -56t59 -19z" />
    <glyph glyph-name="Oslashacute" unicode="&#x1fe;" horiz-adv-x="823" 
d="M524 900l-77 -145h-71l70 145h78zM649 616q108 -105 108 -266q0 -153 -98.5 -256.5t-246.5 -103.5q-101 0 -182 50l-62 -86l-58 41l64 89q-108 103 -108 266q0 154 99 257t247 103q97 0 179 -49l62 86l60 -42zM155 350q0 -117 70 -195l317 438q-59 36 -130 36
q-110 0 -183.5 -80t-73.5 -199zM412 71q110 0 183.5 80t73.5 199q0 115 -71 196l-318 -438q59 -37 132 -37z" />
    <glyph glyph-name="oslashacute" unicode="&#x1ff;" horiz-adv-x="607" 
d="M416 700l-77 -145h-71l70 145h78zM483 435q72 -74 72 -185q0 -112 -71.5 -186t-180.5 -74q-72 0 -129 34l-52 -69l-52 36l54 73q-72 74 -72 186q0 113 71 186.5t180 73.5q71 0 130 -35l52 69l53 -36zM136 250q0 -69 38 -121l213 284q-37 23 -84 23q-74 0 -120.5 -54
t-46.5 -132zM303 64q74 0 121 54t47 132q0 69 -37 120l-213 -284q36 -22 82 -22z" />
    <glyph glyph-name="uni0218" unicode="&#x218;" horiz-adv-x="607" 
d="M537 183q0 -94 -64.5 -143.5t-162.5 -49.5q-110 0 -173.5 55.5t-70.5 154.5h89q8 -63 48 -97t107 -34q59 0 97 28t38 84q0 32 -12.5 55.5t-37 39.5t-44.5 24t-52 18l-35 10q-35 11 -60.5 23t-54.5 33.5t-45 55t-16 76.5q0 88 63 141t160 53q98 0 159.5 -55.5t66.5 -142.5
h-90q-6 53 -40.5 86t-95.5 33q-58 0 -95.5 -31t-37.5 -80q0 -19 5.5 -34.5t18 -27.5t22.5 -20t31 -16t30 -11.5t32 -10.5l31 -10q26 -8 43.5 -15t48 -24.5t49 -37.5t33.5 -54.5t15 -75.5zM308 -60q31 0 48 -21.5t17 -54.5q0 -53 -30 -92.5t-71 -62.5l-26 27q57 48 58 88
q-25 -2 -41.5 14t-16.5 42q0 27 17.5 43.5t44.5 16.5z" />
    <glyph glyph-name="uni0219" unicode="&#x219;" horiz-adv-x="477" 
d="M248 -10q-93 0 -142.5 44t-53.5 118h85q9 -93 111 -93q40 0 66.5 17.5t26.5 52.5q0 37 -27.5 57t-75.5 34l-34 9q-28 8 -47 16t-42 23.5t-35 40.5t-12 58q0 65 49.5 104t119.5 39q84 0 130 -42t49 -101h-85q-3 33 -28 53.5t-65 20.5q-37 0 -61.5 -18t-24.5 -52
q0 -17 7 -29.5t22.5 -21.5t28 -14t36.5 -12l32 -10q66 -18 106.5 -52.5t40.5 -100.5q0 -70 -50 -105.5t-127 -35.5zM245 -60q31 0 48 -21.5t17 -54.5q0 -53 -30 -92.5t-71 -62.5l-26 27q57 48 58 88q-25 -2 -41.5 14t-16.5 42q0 27 17.5 43.5t44.5 16.5z" />
    <glyph glyph-name="uni021A" unicode="&#x21a;" horiz-adv-x="575" 
d="M40 700h495v-82h-202v-618h-91v618h-202v82zM285 -60q31 0 48 -21.5t17 -54.5q0 -53 -30 -92.5t-71 -62.5l-26 27q57 48 58 88q-25 -2 -41.5 14t-16.5 42q0 27 17.5 43.5t44.5 16.5z" />
    <glyph glyph-name="uni021B" unicode="&#x21b;" horiz-adv-x="358" 
d="M254 -10q-71 0 -99.5 35.5t-28.5 87.5v316h-106v71h34q44 0 62 16.5t18 57.5v62h80v-136h125v-71h-125v-304q0 -63 63 -63q24 0 50 8v-69q-40 -11 -73 -11zM224 -60q31 0 48 -21.5t17 -54.5q0 -53 -30 -92.5t-71 -62.5l-26 27q57 48 58 88q-25 -2 -41.5 14t-16.5 42
q0 27 17.5 43.5t44.5 16.5z" />
    <glyph glyph-name="uni021E" unicode="&#x21e;" horiz-adv-x="697" 
d="M408 900h79l-101 -141h-78l-102 141h79l60 -86h5zM520 700h90v-700h-90v313h-342v-313h-91v700h91v-305h342v305z" />
    <glyph glyph-name="uni0226" unicode="&#x226;" horiz-adv-x="652" 
d="M327 780q-24 0 -41.5 17t-17.5 41t17.5 40.5t41.5 16.5q23 0 40 -16.5t17 -40.5t-17 -41t-40 -17zM529 0l-64 191h-278l-64 -191h-97l244 700h112l244 -700h-97zM213 269h225l-109 324h-7z" />
    <glyph glyph-name="uni0227" unicode="&#x227;" horiz-adv-x="529" 
d="M253 580q-24 0 -41.5 17t-17.5 41t17.5 40.5t41.5 16.5q23 0 40 -16.5t17 -40.5t-17 -41t-40 -17zM488 68h13v-68h-40q-74 0 -89 64q-58 -74 -165 -74q-74 0 -119.5 36.5t-45.5 106.5q0 68 46.5 106.5t123.5 46.5l149 14v28q0 52 -27 81t-77 29q-90 0 -108 -95h-87
q8 74 59.5 120.5t135.5 46.5q87 0 139.5 -48t52.5 -136v-217q0 -41 39 -41zM361 192v44l-121 -12q-51 -5 -80.5 -27t-29.5 -61t25 -57.5t64 -18.5q57 0 99.5 32.5t42.5 99.5z" />
    <glyph glyph-name="uni0228" unicode="&#x228;" horiz-adv-x="586" 
d="M539 0h-196l-31 -44q37 2 67.5 -20t30.5 -63q0 -38 -26.5 -60.5t-73.5 -22.5q-44 0 -73 21l18 40q28 -16 52 -16t37.5 11.5t13.5 29.5t-13.5 30t-39.5 12q-16 0 -34 -8l-30 25l45 65h-199v700h442v-81h-353v-224h311v-79h-311v-235h363v-81z" />
    <glyph glyph-name="uni0229" unicode="&#x229;" horiz-adv-x="568" 
d="M514 260q0 -7 -2 -31h-373q4 -75 45.5 -121t110.5 -46q49 0 83.5 21.5t47.5 62.5h85q-16 -69 -68.5 -110t-129.5 -45l-24 -35q37 2 67.5 -20t30.5 -63q0 -38 -26.5 -60.5t-73.5 -22.5q-44 0 -73 21l18 40q28 -16 52 -16t37.5 11.5t13.5 29.5t-13.5 30t-39.5 12
q-16 0 -34 -8l-30 25l40 57q-93 13 -149.5 81t-56.5 172q0 119 68 192t171 73q96 0 159.5 -65t63.5 -185zM291 438q-61 0 -102.5 -41.5t-48.5 -103.5h289q-1 65 -39 105t-99 40z" />
    <glyph glyph-name="uni022E" unicode="&#x22e;" horiz-adv-x="823" 
d="M413 780q-24 0 -41.5 17t-17.5 41t17.5 40.5t41.5 16.5q23 0 40 -16.5t17 -40.5t-17 -41t-40 -17zM412 -10q-148 0 -247 102.5t-99 257.5q0 154 99 257t247 103q147 0 246 -103t99 -257q0 -153 -98.5 -256.5t-246.5 -103.5zM412 74q108 0 180.5 79.5t72.5 196.5
t-72.5 196.5t-180.5 79.5t-181 -79.5t-73 -196.5t73 -196.5t181 -79.5z" />
    <glyph glyph-name="uni022F" unicode="&#x22f;" horiz-adv-x="607" 
d="M304 580q-24 0 -41.5 17t-17.5 41t17.5 40.5t41.5 16.5q23 0 40 -16.5t17 -40.5t-17 -41t-40 -17zM303 -10q-108 0 -179.5 74.5t-71.5 185.5q0 113 71 186.5t180 73.5q108 0 180 -74t72 -186t-71.5 -186t-180.5 -74zM303 67q72 0 118.5 53.5t46.5 129.5q0 77 -46.5 130
t-118.5 53q-73 0 -118 -53t-45 -130q0 -76 45.5 -129.5t117.5 -53.5z" />
    <glyph glyph-name="uni0232" unicode="&#x232;" horiz-adv-x="648" 
d="M174 845h301v-64h-301v64zM512 700h110l-252 -369v-331h-91v331l-253 369h110l185 -270h6z" />
    <glyph glyph-name="uni0233" unicode="&#x233;" horiz-adv-x="531" 
d="M115 645h301v-64h-301v64zM127 -210q-31 0 -71 11v67q32 -7 54 -7q77 0 107 74l26 65h-30l-192 500h91l154 -409h7l146 409h91l-210 -578q-6 -18 -11.5 -29.5t-19.5 -33t-31 -35t-46.5 -24t-64.5 -10.5z" />
    <glyph glyph-name="uni0237" unicode="&#x237;" horiz-adv-x="227" 
d="M29 -210q-36 0 -73 11v67q26 -7 49 -7q65 0 65 63v576h87v-587q0 -52 -28.5 -87.5t-99.5 -35.5z" />
    <glyph glyph-name="circumflex" unicode="&#x2c6;" horiz-adv-x="456" 
d="M166 559h-79l101 141h78l102 -141h-79l-59 86h-5z" />
    <glyph glyph-name="caron" unicode="&#x2c7;" horiz-adv-x="456" 
d="M289 700h79l-101 -141h-78l-102 141h79l60 -86h5z" />
    <glyph glyph-name="breve" unicode="&#x2d8;" horiz-adv-x="438" 
d="M351 700q0 -51 -36.5 -90t-94.5 -39t-95.5 39t-37.5 90h70q0 -31 17.5 -51t45.5 -20t44.5 20t16.5 51h70z" />
    <glyph glyph-name="dotaccent" unicode="&#x2d9;" horiz-adv-x="291" 
d="M146 580q-24 0 -41.5 17t-17.5 41t17.5 40.5t41.5 16.5t40.5 -16.5t16.5 -40.5t-16.5 -41t-40.5 -17z" />
    <glyph glyph-name="ring" unicode="&#x2da;" horiz-adv-x="367" 
d="M184 541q-40 0 -68.5 28.5t-28.5 66.5q0 39 28.5 67t68.5 28q39 0 67 -28t28 -67q0 -38 -28 -66.5t-67 -28.5zM184 592q17 0 29.5 13t12.5 31q0 17 -12.5 30t-29.5 13q-18 0 -30 -12.5t-12 -30.5t12 -31t30 -13z" />
    <glyph glyph-name="ogonek" unicode="&#x2db;" horiz-adv-x="339" 
d="M193 20l26 -20q-69 -25 -69 -74q0 -43 57 -43q23 0 44 6v-55q-18 -7 -52 -7q-50 0 -81 22.5t-31 66.5q0 40 29 63t77 41z" />
    <glyph glyph-name="tilde" unicode="&#x2dc;" horiz-adv-x="519" 
d="M432 667q-3 -50 -29.5 -84t-71.5 -34q-25 0 -46 10t-32.5 21.5t-26 21.5t-29.5 10q-41 0 -47 -55h-63q5 52 30.5 85.5t71.5 33.5q26 0 47 -10t32 -22t25.5 -22t29.5 -10q41 0 47 55h62z" />
    <glyph glyph-name="hungarumlaut" unicode="&#x2dd;" horiz-adv-x="464" 
d="M145 700h78l-64 -145h-72zM299 700h77l-64 -145h-71z" />
    <glyph glyph-name="uni1E02" unicode="&#x1e02;" horiz-adv-x="610" 
d="M313 780q-24 0 -41.5 17t-17.5 41t17.5 40.5t41.5 16.5q23 0 40 -16.5t17 -40.5t-17 -41t-40 -17zM440 365q117 -44 117 -174q0 -90 -56.5 -140.5t-156.5 -50.5h-257v700h255q97 0 147 -46.5t50 -127.5q0 -110 -99 -156v-5zM176 625v-227h155q56 0 87 31.5t31 84.5
q0 52 -31.5 81.5t-83.5 29.5h-158zM337 75q60 0 94 33t34 88q0 56 -35 91.5t-94 35.5h-160v-248h161z" />
    <glyph glyph-name="uni1E03" unicode="&#x1e03;" horiz-adv-x="600" 
d="M113 780q-24 0 -41.5 17t-17.5 41t17.5 40.5t41.5 16.5q23 0 40 -16.5t17 -40.5t-17 -41t-40 -17zM317 510q101 0 165.5 -71t64.5 -188q0 -116 -64.5 -188.5t-165.5 -72.5q-103 0 -161 81h-6l-8 -71h-72v710h87v-276q54 76 160 76zM306 67q68 0 111 51t43 133
q0 81 -43 131.5t-111 50.5q-67 0 -108 -50.5t-41 -131.5q0 -83 41 -133.5t108 -50.5z" />
    <glyph glyph-name="uni1E0A" unicode="&#x1e0a;" horiz-adv-x="704" 
d="M349 780q-24 0 -41.5 17t-17.5 41t17.5 40.5t41.5 16.5q23 0 40 -16.5t17 -40.5t-17 -41t-40 -17zM303 700q163 0 249 -94.5t86 -255.5q0 -159 -85.5 -254.5t-249.5 -95.5h-216v700h216zM298 82q128 0 187.5 73.5t59.5 196.5q0 122 -59.5 194t-187.5 72h-120v-536h120z
" />
    <glyph glyph-name="uni1E0B" unicode="&#x1e0b;" horiz-adv-x="600" 
d="M488 780q-24 0 -41.5 17t-17.5 41t17.5 40.5t41.5 16.5q23 0 40 -16.5t17 -40.5t-17 -41t-40 -17zM443 434v276h87v-710h-72l-8 71h-6q-58 -81 -161 -81q-101 0 -165.5 72.5t-64.5 188.5q0 117 64.5 188t165.5 71q106 0 160 -76zM294 67q67 0 108 50.5t41 133.5
q0 81 -41 131.5t-108 50.5q-68 0 -111 -50.5t-43 -131.5q0 -82 43 -133t111 -51z" />
    <glyph glyph-name="uni1E10" unicode="&#x1e10;" horiz-adv-x="704" 
d="M303 700q163 0 249 -94.5t86 -255.5q0 -159 -85.5 -254.5t-249.5 -95.5h-216v700h216zM298 82q128 0 187.5 73.5t59.5 196.5q0 122 -59.5 194t-187.5 72h-120v-536h120zM346 -60q31 0 48 -21.5t17 -54.5q0 -53 -30 -92.5t-71 -62.5l-26 27q57 48 58 88q-25 -2 -41.5 14
t-16.5 42q0 27 17.5 43.5t44.5 16.5z" />
    <glyph glyph-name="uni1E11" unicode="&#x1e11;" horiz-adv-x="600" 
d="M443 710h87v-710h-72l-8 71h-6q-58 -81 -161 -81q-101 0 -165.5 72.5t-64.5 188.5q0 117 64.5 188t165.5 71q106 0 160 -76v276zM294 67q67 0 108 50.5t41 133.5q0 81 -41 131.5t-108 50.5q-68 0 -111 -50.5t-43 -131.5q0 -82 43 -133t111 -51zM296 -60q31 0 48 -21.5
t17 -54.5q0 -53 -30 -92.5t-71 -62.5l-26 27q57 48 58 88q-25 -2 -41.5 14t-16.5 42q0 27 17.5 43.5t44.5 16.5z" />
    <glyph glyph-name="uni1E1E" unicode="&#x1e1e;" horiz-adv-x="555" 
d="M302 780q-24 0 -41.5 17t-17.5 41t17.5 40.5t41.5 16.5q23 0 40 -16.5t17 -40.5t-17 -41t-40 -17zM516 616h-338v-231h295v-80h-295v-305h-91v700h429v-84z" />
    <glyph glyph-name="uni1E1F" unicode="&#x1e1f;" horiz-adv-x="356" 
d="M230 780q-24 0 -41.5 17t-17.5 41t17.5 40.5t41.5 16.5q23 0 40 -16.5t17 -40.5t-17 -41t-40 -17zM210 574v-74h117v-71h-117v-429h-88v429h-102v71h102v82q0 61 36.5 94.5t99.5 33.5q42 0 78 -15l-16 -65q-22 7 -47 7q-63 0 -63 -63z" />
    <glyph glyph-name="uni1E20" unicode="&#x1e20;" horiz-adv-x="785" 
d="M247 845h301v-64h-301v64zM400 364h298v-364h-72l-11 81h-7q-82 -91 -221 -91q-146 0 -233.5 98t-87.5 252q0 159 95.5 264.5t247.5 105.5q116 0 191.5 -58t93.5 -151h-98q-18 57 -66.5 91t-120.5 34q-113 0 -182 -80t-69 -205q0 -118 64.5 -193.5t174.5 -75.5
q89 0 150 44.5t61 126.5v48h-208v73z" />
    <glyph glyph-name="uni1E22" unicode="&#x1e22;" horiz-adv-x="697" 
d="M348 780q-24 0 -41.5 17t-17.5 41t17.5 40.5t41.5 16.5q23 0 40 -16.5t17 -40.5t-17 -41t-40 -17zM520 700h90v-700h-90v313h-342v-313h-91v700h91v-305h342v305z" />
    <glyph glyph-name="uni1E23" unicode="&#x1e23;" horiz-adv-x="561" 
d="M116 780q-24 0 -41.5 17t-17.5 41t17.5 40.5t41.5 16.5q23 0 40 -16.5t17 -40.5t-17 -41t-40 -17zM309 510q82 0 132 -51t50 -145v-314h-87v295q0 69 -32.5 103.5t-84.5 34.5q-55 0 -92.5 -37.5t-37.5 -110.5v-285h-87v710h87v-270h7q51 70 145 70z" />
    <glyph glyph-name="uni1E26" unicode="&#x1e26;" horiz-adv-x="697" 
d="M233 766q-25 0 -43 17.5t-18 42.5t18 42.5t43 17.5t42.5 -17.5t17.5 -42.5t-17.5 -42.5t-42.5 -17.5zM462 766q-24 0 -41.5 17.5t-17.5 42.5t17.5 42.5t41.5 17.5q25 0 43 -17.5t18 -42.5t-18 -42.5t-43 -17.5zM520 700h90v-700h-90v313h-342v-313h-91v700h91v-305h342
v305z" />
    <glyph glyph-name="uni1E27" unicode="&#x1e27;" horiz-adv-x="561" 
d="M24 758q-22 0 -38.5 16t-16.5 39t16 39t39 16t39 -16t16 -39t-16.5 -39t-38.5 -16zM207 758q-22 0 -38 16.5t-16 38.5q0 23 16 39t38 16q23 0 38.5 -16t15.5 -39t-16 -39t-38 -16zM309 510q82 0 132 -51t50 -145v-314h-87v295q0 69 -32.5 103.5t-84.5 34.5
q-55 0 -92.5 -37.5t-37.5 -110.5v-285h-87v710h87v-270h7q51 70 145 70z" />
    <glyph glyph-name="uni1E28" unicode="&#x1e28;" horiz-adv-x="697" 
d="M520 700h90v-700h-90v313h-342v-313h-17l-31 -44q37 2 67.5 -20t30.5 -63q0 -38 -26.5 -60.5t-73.5 -22.5q-44 0 -73 21l18 40q28 -16 52 -16t37.5 11.5t13.5 29.5t-13.5 30t-39.5 12q-16 0 -34 -8l-30 25l45 65h-17v700h91v-305h342v305z" />
    <glyph glyph-name="uni1E29" unicode="&#x1e29;" horiz-adv-x="561" 
d="M309 510q82 0 132 -51t50 -145v-314h-87v295q0 69 -32.5 103.5t-84.5 34.5q-55 0 -92.5 -37.5t-37.5 -110.5v-285h-13l-31 -44q37 2 67.5 -20t30.5 -63q0 -38 -26.5 -60.5t-73.5 -22.5q-44 0 -73 21l18 40q28 -16 52 -16t37.5 11.5t13.5 29.5t-13.5 30t-39.5 12
q-16 0 -34 -8l-30 25l45 65h-17v710h87v-270h7q51 70 145 70z" />
    <glyph glyph-name="uni1E40" unicode="&#x1e40;" horiz-adv-x="878" 
d="M440 780q-24 0 -41.5 17t-17.5 41t17.5 40.5t41.5 16.5q23 0 40 -16.5t17 -40.5t-17 -41t-40 -17zM790 700v-700h-89v538h-6l-206 -458h-98l-207 458h-8v-538h-89v700h116l233 -525h7l232 525h115z" />
    <glyph glyph-name="uni1E41" unicode="&#x1e41;" horiz-adv-x="829" 
d="M415 580q-24 0 -41.5 17t-17.5 41t17.5 40.5t41.5 16.5q23 0 40 -16.5t17 -40.5t-17 -41t-40 -17zM70 0v500h79l8 -60h7q48 70 135 70q99 0 136 -88h6q49 88 154 88q74 0 119 -45t45 -130v-335h-88v318q0 56 -29 85.5t-72 29.5q-50 0 -81 -35.5t-31 -92.5v-305h-88v311
q0 59 -28.5 90.5t-72.5 31.5t-78 -32.5t-34 -93.5v-307h-87z" />
    <glyph glyph-name="uni1E44" unicode="&#x1e44;" horiz-adv-x="738" 
d="M370 780q-24 0 -41.5 17t-17.5 41t17.5 40.5t41.5 16.5q23 0 40 -16.5t17 -40.5t-17 -41t-40 -17zM562 700h89v-700h-98l-370 546h-7v-546h-89v700h99l369 -546h7v546z" />
    <glyph glyph-name="uni1E45" unicode="&#x1e45;" horiz-adv-x="561" 
d="M281 580q-24 0 -41.5 17t-17.5 41t17.5 40.5t41.5 16.5q23 0 40 -16.5t17 -40.5t-17 -41t-40 -17zM70 0v500h79l8 -60h7q51 70 145 70q82 0 132 -51t50 -145v-314h-87v295q0 69 -32.5 103.5t-84.5 34.5q-55 0 -92.5 -37.5t-37.5 -110.5v-285h-87z" />
    <glyph glyph-name="uni1E56" unicode="&#x1e56;" horiz-adv-x="630" 
d="M319 780q-24 0 -41.5 17t-17.5 41t17.5 40.5t41.5 16.5q23 0 40 -16.5t17 -40.5t-17 -41t-40 -17zM344 700q100 0 160 -58t60 -152q0 -98 -61.5 -155.5t-165.5 -57.5h-162v-277h-88v700h257zM329 358q68 0 105 35t37 96t-37 95.5t-98 34.5h-161v-261h154z" />
    <glyph glyph-name="uni1E57" unicode="&#x1e57;" horiz-adv-x="600" 
d="M299 580q-24 0 -41.5 17t-17.5 41t17.5 40.5t41.5 16.5q23 0 40 -16.5t17 -40.5t-17 -41t-40 -17zM317 510q101 0 165.5 -72.5t64.5 -188.5q0 -117 -64.5 -188t-165.5 -71q-106 0 -160 76v-266h-87v700h72l8 -71h6q58 81 161 81zM306 67q68 0 111 50.5t43 131.5
q0 82 -43 133t-111 51q-67 0 -108 -50.5t-41 -133.5q0 -81 41 -131.5t108 -50.5z" />
    <glyph glyph-name="uni1E58" unicode="&#x1e58;" horiz-adv-x="623" 
d="M319 780q-24 0 -41.5 17t-17.5 41t17.5 40.5t41.5 16.5q23 0 40 -16.5t17 -40.5t-17 -41t-40 -17zM584 0h-100l-172 294h-136v-294h-89v700h247q101 0 159.5 -54t58.5 -144q0 -74 -40 -124t-111 -69zM176 621v-248h146q65 0 102.5 34.5t37.5 90.5q0 59 -37.5 91
t-102.5 32h-146z" />
    <glyph glyph-name="uni1E59" unicode="&#x1e59;" horiz-adv-x="356" 
d="M203 580q-24 0 -41.5 17t-17.5 41t17.5 40.5t41.5 16.5q23 0 40 -16.5t17 -40.5t-17 -41t-40 -17zM70 0v500h79l8 -69h7q22 38 54 58.5t89 20.5h29v-88q-15 2 -45 2q-64 0 -99 -44.5t-35 -117.5v-262h-87z" />
    <glyph glyph-name="uni1E60" unicode="&#x1e60;" horiz-adv-x="607" 
d="M311 780q-24 0 -41.5 17t-17.5 41t17.5 40.5t41.5 16.5q23 0 40 -16.5t17 -40.5t-17 -41t-40 -17zM537 183q0 -94 -64.5 -143.5t-162.5 -49.5q-110 0 -173.5 55.5t-70.5 154.5h89q8 -63 48 -97t107 -34q59 0 97 28t38 84q0 32 -12.5 55.5t-37 39.5t-44.5 24t-52 18
l-35 10q-35 11 -60.5 23t-54.5 33.5t-45 55t-16 76.5q0 88 63 141t160 53q98 0 159.5 -55.5t66.5 -142.5h-90q-6 53 -40.5 86t-95.5 33q-58 0 -95.5 -31t-37.5 -80q0 -19 5.5 -34.5t18 -27.5t22.5 -20t31 -16t30 -11.5t32 -10.5l31 -10q26 -8 43.5 -15t48 -24.5t49 -37.5
t33.5 -54.5t15 -75.5z" />
    <glyph glyph-name="uni1E61" unicode="&#x1e61;" horiz-adv-x="477" 
d="M231 580q-24 0 -41.5 17t-17.5 41t17.5 40.5t41.5 16.5q23 0 40 -16.5t17 -40.5t-17 -41t-40 -17zM248 -10q-93 0 -142.5 44t-53.5 118h85q9 -93 111 -93q40 0 66.5 17.5t26.5 52.5q0 37 -27.5 57t-75.5 34l-34 9q-28 8 -47 16t-42 23.5t-35 40.5t-12 58q0 65 49.5 104
t119.5 39q84 0 130 -42t49 -101h-85q-3 33 -28 53.5t-65 20.5q-37 0 -61.5 -18t-24.5 -52q0 -17 7 -29.5t22.5 -21.5t28 -14t36.5 -12l32 -10q66 -18 106.5 -52.5t40.5 -100.5q0 -70 -50 -105.5t-127 -35.5z" />
    <glyph glyph-name="uni1E7C" unicode="&#x1e7c;" horiz-adv-x="659" 
d="M501 867q-3 -49 -29 -83.5t-71 -34.5q-25 0 -46 10t-32.5 21.5t-26.5 21.5t-30 10q-40 0 -46 -55h-63q5 52 30.5 85.5t70.5 33.5q26 0 47 -10t32 -22t25.5 -22t29.5 -10q41 0 47 55h62zM535 700h97l-247 -700h-112l-247 700h98l202 -581h7z" />
    <glyph glyph-name="uni1E7D" unicode="&#x1e7d;" horiz-adv-x="531" 
d="M437 667q-3 -49 -29 -83.5t-71 -34.5q-25 0 -46 10t-32.5 21.5t-26.5 21.5t-30 10q-40 0 -46 -55h-63q5 52 30.5 85.5t70.5 33.5q26 0 47 -10t32 -22t25.5 -22t29.5 -10q41 0 47 55h62zM211 0l-190 500h91l150 -409h7l150 409h91l-190 -500h-109z" />
    <glyph glyph-name="Wgrave" unicode="&#x1e80;" horiz-adv-x="895" 
d="M414 900l69 -145h-70l-77 145h78zM781 700h87l-156 -700h-105l-156 535h-7l-156 -535h-105l-157 700h89l122 -572h7l153 522h101l152 -522h7z" />
    <glyph glyph-name="wgrave" unicode="&#x1e81;" horiz-adv-x="720" 
d="M326 700l69 -145h-70l-77 145h78zM147 0l-126 500h83l93 -399h7l108 363h97l107 -363h7l94 399h83l-128 -500h-102l-106 367h-7l-109 -367h-101z" />
    <glyph glyph-name="Wacute" unicode="&#x1e82;" horiz-adv-x="895" 
d="M482 900h78l-77 -145h-71zM781 700h87l-156 -700h-105l-156 535h-7l-156 -535h-105l-157 700h89l122 -572h7l153 522h101l152 -522h7z" />
    <glyph glyph-name="wacute" unicode="&#x1e83;" horiz-adv-x="720" 
d="M394 700h78l-77 -145h-71zM147 0l-126 500h83l93 -399h7l108 363h97l107 -363h7l94 399h83l-128 -500h-102l-106 367h-7l-109 -367h-101z" />
    <glyph glyph-name="Wdieresis" unicode="&#x1e84;" horiz-adv-x="895" 
d="M334 766q-25 0 -43 17.5t-18 42.5t18 42.5t43 17.5t42.5 -17.5t17.5 -42.5t-17.5 -42.5t-42.5 -17.5zM563 766q-24 0 -41.5 17.5t-17.5 42.5t17.5 42.5t41.5 17.5q25 0 43 -17.5t18 -42.5t-18 -42.5t-43 -17.5zM781 700h87l-156 -700h-105l-156 535h-7l-156 -535h-105
l-157 700h89l122 -572h7l153 522h101l152 -522h7z" />
    <glyph glyph-name="wdieresis" unicode="&#x1e85;" horiz-adv-x="720" 
d="M269 558q-23 0 -39 16t-16 39t16 39t39 16t39 -16t16 -39t-16 -39t-39 -16zM452 558q-22 0 -38 16.5t-16 38.5q0 23 16 39t38 16q23 0 38.5 -16t15.5 -39t-16 -39t-38 -16zM147 0l-126 500h83l93 -399h7l108 363h97l107 -363h7l94 399h83l-128 -500h-102l-106 367h-7
l-109 -367h-101z" />
    <glyph glyph-name="uni1E8C" unicode="&#x1e8c;" horiz-adv-x="619" 
d="M195 766q-25 0 -43 17.5t-18 42.5t18 42.5t43 17.5t42.5 -17.5t17.5 -42.5t-17.5 -42.5t-42.5 -17.5zM424 766q-24 0 -41.5 17.5t-17.5 42.5t17.5 42.5t41.5 17.5q25 0 43 -17.5t18 -42.5t-18 -42.5t-43 -17.5zM487 0l-173 284h-6l-173 -284h-109l223 361l-212 339h108
l163 -264h6l164 264h104l-212 -339l223 -361h-106z" />
    <glyph glyph-name="uni1E8D" unicode="&#x1e8d;" horiz-adv-x="499" 
d="M158 558q-22 0 -38.5 16t-16.5 39t16 39t39 16t39 -16t16 -39t-16.5 -39t-38.5 -16zM341 558q-22 0 -38 16.5t-16 38.5q0 23 16 39t38 16q23 0 38.5 -16t15.5 -39t-16 -39t-38 -16zM21 0l173 259l-159 241h100l112 -172h6l110 172h99l-156 -241l172 -259h-101l-124 191
h-6l-126 -191h-100z" />
    <glyph glyph-name="uni1E90" unicode="&#x1e90;" horiz-adv-x="617" 
d="M254 759h-79l101 141h78l102 -141h-79l-59 86h-6zM199 82h348v-82h-481v51l352 562v5h-331v82h458v-51l-346 -562v-5z" />
    <glyph glyph-name="uni1E97" unicode="&#x1e97;" horiz-adv-x="358" 
d="M83 694q-23 0 -39 16t-16 39t16 39t39 16t39 -16t16 -39t-16 -39t-39 -16zM266 694q-22 0 -38 16.5t-16 38.5q0 23 16 39t38 16q23 0 38.5 -16t15.5 -39t-16 -39t-38 -16zM254 -10q-71 0 -99.5 35.5t-28.5 87.5v316h-106v71h34q44 0 62 16.5t18 57.5v62h80v-136h125v-71
h-125v-304q0 -63 63 -63q24 0 50 8v-69q-40 -11 -73 -11z" />
    <glyph glyph-name="uni1E98" unicode="&#x1e98;" horiz-adv-x="720" 
d="M360 541q-39 0 -67.5 28.5t-28.5 66.5q0 39 28.5 67t67.5 28t67.5 -28t28.5 -67q0 -38 -28.5 -66.5t-67.5 -28.5zM361 592q17 0 29 13t12 31q0 17 -12.5 30t-28.5 13q-18 0 -30.5 -12.5t-12.5 -30.5t12.5 -31t30.5 -13zM147 0l-126 500h83l93 -399h7l108 363h97l107 -363
h7l94 399h83l-128 -500h-102l-106 367h-7l-109 -367h-101z" />
    <glyph glyph-name="uni1E99" unicode="&#x1e99;" horiz-adv-x="531" 
d="M265 541q-39 0 -67.5 28.5t-28.5 66.5q0 39 28.5 67t67.5 28t67.5 -28t28.5 -67q0 -38 -28.5 -66.5t-67.5 -28.5zM266 592q17 0 29 13t12 31q0 17 -12.5 30t-28.5 13q-18 0 -30.5 -12.5t-12.5 -30.5t12.5 -31t30.5 -13zM127 -210q-31 0 -71 11v67q32 -7 54 -7
q77 0 107 74l26 65h-30l-192 500h91l154 -409h7l146 409h91l-210 -578q-6 -18 -11.5 -29.5t-19.5 -33t-31 -35t-46.5 -24t-64.5 -10.5z" />
    <glyph glyph-name="uni1E9E" unicode="&#x1e9e;" horiz-adv-x="1202" 
d="M537 183q0 -94 -64.5 -143.5t-162.5 -49.5q-110 0 -173.5 55.5t-70.5 154.5h89q8 -63 48 -97t107 -34q59 0 97 28t38 84q0 32 -12.5 55.5t-37 39.5t-44.5 24t-52 18l-35 10q-35 11 -60.5 23t-54.5 33.5t-45 55t-16 76.5q0 88 63 141t160 53q98 0 159.5 -55.5t66.5 -142.5
h-90q-6 53 -40.5 86t-95.5 33q-58 0 -95.5 -31t-37.5 -80q0 -19 5.5 -34.5t18 -27.5t22.5 -20t31 -16t30 -11.5t32 -10.5l31 -10q26 -8 43.5 -15t48 -24.5t49 -37.5t33.5 -54.5t15 -75.5zM1133 183q0 -94 -64.5 -143.5t-162.5 -49.5q-110 0 -173.5 55.5t-70.5 154.5h89
q8 -63 48 -97t107 -34q59 0 97 28t38 84q0 32 -12.5 55.5t-37 39.5t-44.5 24t-52 18l-35 10q-35 11 -60.5 23t-54.5 33.5t-45 55t-16 76.5q0 88 63 141t160 53q98 0 159.5 -55.5t66.5 -142.5h-90q-6 53 -40.5 86t-95.5 33q-58 0 -95.5 -31t-37.5 -80q0 -19 5.5 -34.5
t18 -27.5t22.5 -20t31 -16t30 -11.5t32 -10.5l31 -10q26 -8 43.5 -15t48 -24.5t49 -37.5t33.5 -54.5t15 -75.5z" />
    <glyph glyph-name="uni1EA0" unicode="&#x1ea0;" horiz-adv-x="652" 
d="M626 0h-97l-64 191h-278l-64 -191h-97l244 700h112zM213 269h225l-109 324h-7zM328 -80q23 0 40 -16.5t17 -40.5t-17 -41t-40 -17q-24 0 -41.5 17t-17.5 41t17.5 40.5t41.5 16.5z" />
    <glyph glyph-name="uni1EA1" unicode="&#x1ea1;" horiz-adv-x="529" 
d="M488 68h13v-68h-40q-74 0 -89 64q-58 -74 -165 -74q-74 0 -119.5 36.5t-45.5 106.5q0 68 46.5 106.5t123.5 46.5l149 14v28q0 52 -27 81t-77 29q-90 0 -108 -95h-87q8 74 59.5 120.5t135.5 46.5q87 0 139.5 -48t52.5 -136v-217q0 -41 39 -41zM361 192v44l-121 -12
q-51 -5 -80.5 -27t-29.5 -61t25 -57.5t64 -18.5q57 0 99.5 32.5t42.5 99.5zM264 -80q23 0 40 -16.5t17 -40.5t-17 -41t-40 -17q-24 0 -41.5 17t-17.5 41t17.5 40.5t41.5 16.5z" />
    <glyph glyph-name="uni1EB8" unicode="&#x1eb8;" horiz-adv-x="586" 
d="M176 81h363v-81h-452v700h442v-81h-353v-224h311v-79h-311v-235zM315 -195q-24 0 -41.5 17t-17.5 41t17.5 40.5t41.5 16.5q23 0 40 -16.5t17 -40.5t-17 -41t-40 -17z" />
    <glyph glyph-name="uni1EB9" unicode="&#x1eb9;" horiz-adv-x="568" 
d="M514 260q0 -7 -2 -31h-373q4 -75 45.5 -121t110.5 -46q49 0 83.5 21.5t47.5 62.5h85q-16 -74 -74 -115t-142 -41q-107 0 -175 70t-68 185q0 119 68 192t171 73q96 0 159.5 -65t63.5 -185zM291 438q-61 0 -102.5 -41.5t-48.5 -103.5h289q-1 65 -39 105t-99 40zM292 -80
q23 0 40 -16.5t17 -40.5t-17 -41t-40 -17q-24 0 -41.5 17t-17.5 41t17.5 40.5t41.5 16.5z" />
    <glyph glyph-name="uni1EBC" unicode="&#x1ebc;" horiz-adv-x="586" 
d="M480 867q-3 -49 -29 -83.5t-71 -34.5q-25 0 -46 10t-32.5 21.5t-26.5 21.5t-30 10q-40 0 -46 -55h-63q5 52 30.5 85.5t70.5 33.5q26 0 47 -10t32 -22t25.5 -22t29.5 -10q41 0 47 55h62zM176 81h363v-81h-452v700h442v-81h-353v-224h311v-79h-311v-235z" />
    <glyph glyph-name="uni1EBD" unicode="&#x1ebd;" horiz-adv-x="568" 
d="M227 612q-40 0 -46 -55h-63q5 52 30.5 85.5t70.5 33.5q26 0 47 -10t32 -22t25.5 -22t29.5 -10q41 0 47 55h62q-3 -49 -29 -83.5t-71 -34.5q-25 0 -46 10t-32.5 21.5t-26.5 21.5t-30 10zM514 260q0 -7 -2 -31h-373q4 -75 45.5 -121t110.5 -46q49 0 83.5 21.5t47.5 62.5h85
q-16 -74 -74 -115t-142 -41q-107 0 -175 70t-68 185q0 119 68 192t171 73q96 0 159.5 -65t63.5 -185zM291 438q-61 0 -102.5 -41.5t-48.5 -103.5h289q-1 65 -39 105t-99 40z" />
    <glyph glyph-name="uni1ECA" unicode="&#x1eca;" horiz-adv-x="265" 
d="M178 700v-700h-91v700h91zM134 -195q-24 0 -41.5 17t-17.5 41t17.5 40.5t41.5 16.5q23 0 40 -16.5t17 -40.5t-17 -41t-40 -17z" />
    <glyph glyph-name="uni1ECB" unicode="&#x1ecb;" horiz-adv-x="227" 
d="M114 580q-24 0 -41.5 17t-17.5 41t17.5 40.5t41.5 16.5q23 0 40 -16.5t17 -40.5t-17 -41t-40 -17zM70 0v500h87v-500h-87zM115 -195q-24 0 -41.5 17t-17.5 41t17.5 40.5t41.5 16.5q23 0 40 -16.5t17 -40.5t-17 -41t-40 -17z" />
    <glyph glyph-name="uni1ECC" unicode="&#x1ecc;" horiz-adv-x="823" 
d="M412 -10q-148 0 -247 102.5t-99 257.5q0 154 99 257t247 103q147 0 246 -103t99 -257q0 -153 -98.5 -256.5t-246.5 -103.5zM412 74q108 0 180.5 79.5t72.5 196.5t-72.5 196.5t-180.5 79.5t-181 -79.5t-73 -196.5t73 -196.5t181 -79.5zM413 -195q-24 0 -41.5 17t-17.5 41
t17.5 40.5t41.5 16.5q23 0 40 -16.5t17 -40.5t-17 -41t-40 -17z" />
    <glyph glyph-name="uni1ECD" unicode="&#x1ecd;" horiz-adv-x="607" 
d="M303 -10q-108 0 -179.5 74.5t-71.5 185.5q0 113 71 186.5t180 73.5q108 0 180 -74t72 -186t-71.5 -186t-180.5 -74zM303 67q72 0 118.5 53.5t46.5 129.5q0 77 -46.5 130t-118.5 53q-73 0 -118 -53t-45 -130q0 -76 45.5 -129.5t117.5 -53.5zM305 -195q-24 0 -41.5 17
t-17.5 41t17.5 40.5t41.5 16.5q23 0 40 -16.5t17 -40.5t-17 -41t-40 -17z" />
    <glyph glyph-name="uni1EE4" unicode="&#x1ee4;" horiz-adv-x="717" 
d="M630 700v-436q0 -132 -74 -203t-196 -71q-123 0 -198 71t-75 203v436h91v-430q0 -95 50.5 -145.5t131.5 -50.5t130 50.5t49 145.5v430h91zM360 -195q-24 0 -41.5 17t-17.5 41t17.5 40.5t41.5 16.5q23 0 40 -16.5t17 -40.5t-17 -41t-40 -17z" />
    <glyph glyph-name="uni1EE5" unicode="&#x1ee5;" horiz-adv-x="561" 
d="M491 500v-500h-79l-8 60h-7q-51 -70 -145 -70q-82 0 -132 51t-50 145v314h87v-295q0 -69 32.5 -103.5t84.5 -34.5q56 0 93 37.5t37 110.5v285h87zM282 -195q-24 0 -41.5 17t-17.5 41t17.5 40.5t41.5 16.5q23 0 40 -16.5t17 -40.5t-17 -41t-40 -17z" />
    <glyph glyph-name="Ygrave" unicode="&#x1ef2;" horiz-adv-x="648" 
d="M290 900l69 -145h-70l-77 145h78zM512 700h110l-252 -369v-331h-91v331l-253 369h110l185 -270h6z" />
    <glyph glyph-name="ygrave" unicode="&#x1ef3;" horiz-adv-x="531" 
d="M232 700l69 -145h-70l-77 145h78zM127 -210q-31 0 -71 11v67q32 -7 54 -7q77 0 107 74l26 65h-30l-192 500h91l154 -409h7l146 409h91l-210 -578q-6 -18 -11.5 -29.5t-19.5 -33t-31 -35t-46.5 -24t-64.5 -10.5z" />
    <glyph glyph-name="uni1EF8" unicode="&#x1ef8;" horiz-adv-x="648" 
d="M496 867q-3 -49 -29 -83.5t-71 -34.5q-25 0 -46 10t-32.5 21.5t-26.5 21.5t-30 10q-40 0 -46 -55h-63q5 52 30.5 85.5t70.5 33.5q26 0 47 -10t32 -22t25.5 -22t29.5 -10q41 0 47 55h62zM512 700h110l-252 -369v-331h-91v331l-253 369h110l185 -270h6z" />
    <glyph glyph-name="uni1EF9" unicode="&#x1ef9;" horiz-adv-x="531" 
d="M437 667q-3 -49 -29 -83.5t-71 -34.5q-25 0 -46 10t-32.5 21.5t-26.5 21.5t-30 10q-40 0 -46 -55h-63q5 52 30.5 85.5t70.5 33.5q26 0 47 -10t32 -22t25.5 -22t29.5 -10q41 0 47 55h62zM127 -210q-31 0 -71 11v67q32 -7 54 -7q77 0 107 74l26 65h-30l-192 500h91
l154 -409h7l146 409h91l-210 -578q-6 -18 -11.5 -29.5t-19.5 -33t-31 -35t-46.5 -24t-64.5 -10.5z" />
    <glyph glyph-name="uni200B" unicode="&#x200b;" horiz-adv-x="0" 
 />
    <glyph glyph-name="endash" unicode="&#x2013;" horiz-adv-x="630" 
d="M40 347h550v-72h-550v72z" />
    <glyph glyph-name="emdash" unicode="&#x2014;" horiz-adv-x="813" 
d="M40 345h733v-68h-733v68z" />
    <glyph glyph-name="quoteleft" unicode="&#x2018;" horiz-adv-x="226" 
d="M112 475q-29 0 -45 22t-16 56q0 99 96 160l24 -31q-54 -44 -55 -92q21 2 37.5 -13.5t16.5 -41.5q0 -27 -16.5 -43.5t-41.5 -16.5z" />
    <glyph glyph-name="quoteright" unicode="&#x2019;" horiz-adv-x="226" 
d="M114 710q29 0 45 -22t16 -56q0 -100 -95 -160l-25 30q54 44 55 93q-21 -2 -37.5 13t-16.5 42t16.5 43.5t41.5 16.5z" />
    <glyph glyph-name="quotesinglbase" unicode="&#x201a;" horiz-adv-x="243" 
d="M123 110q29 0 45 -22t16 -56q0 -101 -96 -160l-24 30q54 44 55 92q-22 -2 -38 13.5t-16 42.5t16 43.5t42 16.5z" />
    <glyph glyph-name="quotedblleft" unicode="&#x201c;" horiz-adv-x="386" 
d="M112 475q-29 0 -45 22t-16 56q0 99 96 160l24 -31q-54 -44 -55 -92q21 2 37.5 -13.5t16.5 -41.5q0 -27 -16.5 -43.5t-41.5 -16.5zM271 475q-29 0 -45 22t-16 56q0 99 96 160l24 -31q-54 -44 -55 -92q22 2 38 -13.5t16 -41.5q0 -27 -16 -43.5t-42 -16.5z" />
    <glyph glyph-name="quotedblright" unicode="&#x201d;" horiz-adv-x="386" 
d="M114 710q29 0 45 -22t16 -56q0 -100 -95 -160l-25 30q54 44 55 93q-21 -2 -37.5 13t-16.5 42t16.5 43.5t41.5 16.5zM274 710q29 0 45 -22t16 -56q0 -101 -96 -160l-24 30q54 44 55 93q-21 -2 -37.5 13t-16.5 42t16 43.5t42 16.5z" />
    <glyph glyph-name="quotedblbase" unicode="&#x201e;" horiz-adv-x="402" 
d="M123 110q29 0 45 -22t16 -56q0 -101 -96 -160l-24 30q54 44 55 92q-22 -2 -38 13.5t-16 42.5t16 43.5t42 16.5zM282 110q29 0 45 -22t16 -56q0 -101 -96 -160l-24 30q54 44 55 92q-21 -2 -37.5 13.5t-16.5 42.5t16.5 43.5t41.5 16.5z" />
    <glyph glyph-name="dagger" unicode="&#x2020;" horiz-adv-x="595" 
d="M508 514v-75h-170v-439h-81v439h-170v75h170v186h81v-186h170z" />
    <glyph glyph-name="daggerdbl" unicode="&#x2021;" horiz-adv-x="595" 
d="M508 439h-170v-178h170v-75h-170v-186h-81v186h-170v75h170v178h-170v75h170v186h81v-186h170v-75z" />
    <glyph glyph-name="bullet" unicode="&#x2022;" horiz-adv-x="198" 
d="M100 251q-25 0 -42.5 17.5t-17.5 41.5q0 25 17.5 43t42.5 18q24 0 41.5 -18t17.5 -43q0 -24 -17.5 -41.5t-41.5 -17.5z" />
    <glyph glyph-name="ellipsis" unicode="&#x2026;" horiz-adv-x="708" 
d="M121 -5q-25 0 -42.5 17.5t-17.5 41.5q0 25 17.5 42.5t42.5 17.5t42 -17.5t17 -42.5q0 -24 -17 -41.5t-42 -17.5zM355 -5q-25 0 -43 17.5t-18 41.5q0 25 18 42.5t43 17.5q24 0 41 -17.5t17 -42.5q0 -24 -17 -41.5t-41 -17.5zM588 -5q-25 0 -42.5 17.5t-17.5 41.5
q0 25 17.5 42.5t42.5 17.5t42 -17.5t17 -42.5q0 -24 -17 -41.5t-42 -17.5z" />
    <glyph glyph-name="perthousand" unicode="&#x2030;" horiz-adv-x="1006" 
d="M369 498q0 -62 -44.5 -106.5t-106.5 -44.5t-107 44.5t-45 106.5t45 107t107 45t106.5 -45t44.5 -107zM560 640h98l-435 -640h-98zM139 498q0 -34 22 -56.5t56 -22.5q35 0 57.5 22t22.5 57t-22.5 57.5t-57.5 22.5q-34 0 -56 -22.5t-22 -57.5zM802 293q62 0 106.5 -44.5
t44.5 -106.5t-44.5 -107t-106.5 -45q-70 0 -116 54q-46 -54 -115 -54q-62 0 -107 45t-45 107t45 106.5t107 44.5q69 0 115 -54q46 54 116 54zM570 62q35 0 57.5 22.5t22.5 57.5t-22.5 57t-57.5 22q-33 0 -55.5 -22.5t-22.5 -56.5t22.5 -57t55.5 -23zM801 62q35 0 57.5 22.5
t22.5 57.5t-22.5 57t-57.5 22q-34 0 -56 -22.5t-22 -56.5q0 -35 22 -57.5t56 -22.5z" />
    <glyph glyph-name="guilsinglleft" unicode="&#x2039;" horiz-adv-x="308" 
d="M157 96l-131 202l131 202h99l-133 -202l133 -202h-99z" />
    <glyph glyph-name="guilsinglright" unicode="&#x203a;" horiz-adv-x="308" 
d="M151 96h-99l133 202l-133 202h99l131 -202z" />
    <glyph glyph-name="uni2042" unicode="&#x2042;" horiz-adv-x="827" 
d="M542 427l-103 63l4 -120h-59l4 120l-103 -63l-29 51l106 57l-106 57l29 51l103 -63l-4 120h59l-4 -121l103 64l30 -51l-106 -57l106 -57zM339 273l29 -51l-105 -56l105 -58l-29 -51l-103 63l4 -120h-59l4 120l-103 -63l-30 51l106 58l-106 56l30 51l103 -63l-4 120h59
l-4 -120zM775 222l-106 -57l106 -57l-29 -51l-103 64l3 -121h-58l3 120l-103 -63l-29 51l106 58l-106 56l29 51l103 -63l-3 120h58l-3 -120l103 63z" />
    <glyph glyph-name="fraction" unicode="&#x2044;" horiz-adv-x="305" 
d="M439 700l-498 -700h-74l498 700h74z" />
    <glyph glyph-name="uni2051" unicode="&#x2051;" horiz-adv-x="421" 
d="M368 612l-105 -57l105 -57l-29 -51l-103 63l4 -120h-59l4 120l-103 -63l-30 51l106 57l-106 57l30 51l103 -63l-4 120h59l-4 -120l103 63zM339 253l29 -51l-105 -56l105 -58l-29 -51l-103 63l4 -120h-59l4 120l-103 -63l-30 51l106 58l-106 56l30 51l103 -63l-4 120h59
l-4 -120z" />
    <glyph glyph-name="uni2070" unicode="&#x2070;" horiz-adv-x="371" 
d="M187 335q-69 0 -109.5 50.5t-40.5 147.5q0 95 40.5 146t108.5 51t108 -51t40 -148q0 -96 -39.5 -146t-107.5 -50zM186 388q38 0 61 36t23 108t-23 108t-61 36t-61 -35.5t-23 -108.5t23 -108.5t61 -35.5z" />
    <glyph glyph-name="uni2074" unicode="&#x2074;" horiz-adv-x="374" 
d="M352 474v-48h-71v-86h-59v86h-185v31l180 268h64v-251h71zM109 474h113v169h-4z" />
    <glyph glyph-name="uni2075" unicode="&#x2075;" horiz-adv-x="351" 
d="M187 589q57 0 92 -36t35 -90q0 -58 -39.5 -93t-102.5 -35q-60 0 -95.5 31.5t-39.5 85.5h60q3 -32 23.5 -49.5t52.5 -17.5q36 0 57.5 20.5t21.5 55.5t-21 58t-56 23q-52 0 -74 -40l-55 13l20 210h231v-52h-177l-12 -110q30 26 79 26z" />
    <glyph glyph-name="uni2076" unicode="&#x2076;" horiz-adv-x="352" 
d="M191 585q54 0 89 -34.5t35 -88.5q0 -57 -38.5 -92t-100.5 -35t-100.5 36t-38.5 96t50 131l89 127h75l-111 -151q22 11 51 11zM176 386q36 0 57 22t21 55q0 32 -21 53.5t-56 21.5q-36 0 -57 -21.5t-21 -53.5q0 -33 21 -55t56 -22z" />
    <glyph glyph-name="uni2077" unicode="&#x2077;" horiz-adv-x="332" 
d="M37 725h273v-36q-133 -147 -149 -349h-64q16 196 125 330v3h-185v52z" />
    <glyph glyph-name="uni2078" unicode="&#x2078;" horiz-adv-x="357" 
d="M250 543q29 -10 49.5 -36t20.5 -63q0 -48 -38 -78.5t-103 -30.5q-64 0 -103 30.5t-39 79.5q0 37 21 62.5t49 35.5v3q-56 24 -56 82q0 45 36 73.5t93 28.5q55 0 90.5 -27.5t35.5 -73.5q0 -59 -56 -83v-3zM180 684q-30 0 -49 -15.5t-19 -42.5t19 -43t48 -16t47.5 16
t18.5 43q0 26 -18.5 42t-46.5 16zM179 382q33 0 55 18.5t22 47.5q0 30 -20.5 50t-56.5 20q-37 0 -57.5 -20t-20.5 -49q0 -30 22 -48.5t56 -18.5z" />
    <glyph glyph-name="uni2079" unicode="&#x2079;" horiz-adv-x="352" 
d="M161 480q-54 0 -89 34.5t-35 88.5q0 57 38.5 92t100.5 35t100.5 -36t38.5 -96t-50 -131l-89 -127h-75l111 151q-22 -11 -51 -11zM176 679q-36 0 -57 -22t-21 -55t20.5 -54t56.5 -21t57 21.5t21 53.5q0 33 -21 55t-56 22z" />
    <glyph glyph-name="uni2080" unicode="&#x2080;" horiz-adv-x="371" 
d="M187 -105q-69 0 -109.5 50.5t-40.5 147.5q0 95 40.5 146t108.5 51t108 -51t40 -148q0 -96 -39.5 -146t-107.5 -50zM186 -52q38 0 61 36t23 108t-23 108t-61 36t-61 -35.5t-23 -108.5t23 -108.5t61 -35.5z" />
    <glyph glyph-name="uni2081" unicode="&#x2081;" horiz-adv-x="237" 
d="M118 -100v266h-81v50h38q50 0 50 49v20h56v-385h-63z" />
    <glyph glyph-name="uni2082" unicode="&#x2082;" horiz-adv-x="340" 
d="M167 30q-53 -34 -57 -78h192v-52h-265v23q0 91 85 145l61 38q18 11 27.5 18.5t19 22.5t9.5 32q0 26 -17.5 42t-45.5 16q-33 0 -52.5 -21.5t-21.5 -48.5h-64q3 48 39.5 85.5t101.5 37.5q56 0 90 -29.5t34 -78.5q0 -30 -14.5 -54.5t-25.5 -33.5t-30 -21z" />
    <glyph glyph-name="uni2083" unicode="&#x2083;" horiz-adv-x="357" 
d="M253 98q31 -10 49 -34t18 -57q0 -48 -40.5 -80t-104.5 -32q-62 0 -97.5 30.5t-40.5 84.5h62q10 -62 76 -62q35 0 57.5 17t22.5 45t-20.5 45.5t-54.5 17.5h-39v48h36q30 0 48.5 16t18.5 43t-19 43t-49 16q-28 0 -47.5 -14.5t-25.5 -40.5h-61q4 47 43.5 76.5t92.5 29.5
q54 0 91 -29.5t37 -77.5q0 -53 -53 -82v-3z" />
    <glyph glyph-name="uni2084" unicode="&#x2084;" horiz-adv-x="374" 
d="M352 34v-48h-71v-86h-59v86h-185v31l180 268h64v-251h71zM109 34h113v169h-4z" />
    <glyph glyph-name="uni2085" unicode="&#x2085;" horiz-adv-x="351" 
d="M187 149q57 0 92 -36t35 -90q0 -58 -39.5 -93t-102.5 -35q-60 0 -95.5 31.5t-39.5 85.5h60q3 -32 23.5 -49.5t52.5 -17.5q36 0 57.5 20.5t21.5 55.5t-21 58t-56 23q-52 0 -74 -40l-55 13l20 210h231v-52h-177l-12 -110q30 26 79 26z" />
    <glyph glyph-name="uni2086" unicode="&#x2086;" horiz-adv-x="352" 
d="M191 145q54 0 89 -34.5t35 -88.5q0 -57 -38.5 -92t-100.5 -35t-100.5 36t-38.5 96t50 131l89 127h75l-111 -151q22 11 51 11zM176 -54q36 0 57 22t21 55q0 32 -21 53.5t-56 21.5q-36 0 -57 -21.5t-21 -53.5q0 -33 21 -55t56 -22z" />
    <glyph glyph-name="uni2087" unicode="&#x2087;" horiz-adv-x="332" 
d="M37 285h273v-36q-133 -147 -149 -349h-64q16 196 125 330v3h-185v52z" />
    <glyph glyph-name="uni2088" unicode="&#x2088;" horiz-adv-x="357" 
d="M250 103q29 -10 49.5 -36t20.5 -63q0 -48 -38 -78.5t-103 -30.5q-64 0 -103 30.5t-39 79.5q0 37 21 62.5t49 35.5v3q-56 24 -56 82q0 45 36 73.5t93 28.5q55 0 90.5 -27.5t35.5 -73.5q0 -59 -56 -83v-3zM180 244q-30 0 -49 -15.5t-19 -42.5t19 -43t48 -16t47.5 16
t18.5 43q0 26 -18.5 42t-46.5 16zM179 -58q33 0 55 18.5t22 47.5q0 30 -20.5 50t-56.5 20q-37 0 -57.5 -20t-20.5 -49q0 -30 22 -48.5t56 -18.5z" />
    <glyph glyph-name="uni2089" unicode="&#x2089;" horiz-adv-x="352" 
d="M161 40q-54 0 -89 34.5t-35 88.5q0 57 38.5 92t100.5 35t100.5 -36t38.5 -96t-50 -131l-89 -127h-75l111 151q-22 -11 -51 -11zM176 239q-36 0 -57 -22t-21 -55t20.5 -54t56.5 -21t57 21.5t21 53.5q0 33 -21 55t-56 22z" />
    <glyph glyph-name="Euro" unicode="&#x20ac;" horiz-adv-x="640" 
d="M591 109l23 -68q-73 -51 -184 -51q-112 0 -187 56.5t-102 156.5h-84v67h72q-2 32 -2 48q0 30 3 57h-73v68h88q30 96 104.5 151.5t182.5 55.5q105 0 175 -46l-27 -66q-70 38 -145 38q-151 0 -202 -133h298l-15 -68h-299q-4 -24 -4 -55q0 -26 3 -50h264l-13 -67h-236
q47 -137 204 -137q94 0 156 43z" />
    <glyph glyph-name="uni2113" unicode="&#x2113;" horiz-adv-x="447" 
d="M198 168q0 -107 110 -107q40 0 75 14v-69q-32 -16 -92 -16q-76 0 -121.5 43.5t-45.5 126.5v76q-52 -12 -84 -16v69q47 10 84 21v180q0 72 35 116t101 44q64 0 99.5 -40.5t35.5 -101.5q0 -170 -197 -248v-92zM198 480v-141q126 60 126 165q0 34 -17 57t-47 23
q-62 0 -62 -104z" />
    <glyph glyph-name="trademark" unicode="&#x2122;" horiz-adv-x="780" 
d="M32 643v57h265v-57h-101v-293h-64v293h-100zM659 700h77v-350h-63v236h-3l-92 -196h-62l-92 196h-4v-236h-62v350h77l111 -238h4z" />
    <glyph glyph-name="uni2153" unicode="&#x2153;" horiz-adv-x="898" 
d="M169 315v266h-82v50h38q50 0 50 49v20h57v-385h-63zM695 700l-498 -700h-74l498 700h74zM743 198q31 -10 49 -34t18 -57q0 -49 -40 -80.5t-104 -31.5q-62 0 -97.5 30.5t-40.5 84.5h62q10 -62 76 -62q35 0 57.5 17t22.5 45t-20.5 45.5t-55.5 17.5h-38v48h36q29 0 47.5 16
t18.5 43t-18.5 43t-48.5 16q-28 0 -48 -14.5t-25 -40.5h-61q4 47 43.5 76.5t92.5 29.5q54 0 91 -29.5t37 -77.5q0 -54 -54 -82v-3z" />
    <glyph glyph-name="uni2154" unicode="&#x2154;" horiz-adv-x="997" 
d="M217 445q-51 -33 -57 -78h193v-52h-266v23q0 89 85 145l61 38q18 12 27.5 19t19.5 22t10 32q0 26 -18 42t-46 16q-33 0 -52 -21.5t-21 -48.5h-65q3 48 39.5 85.5t101.5 37.5q56 0 90.5 -29.5t34.5 -78.5q0 -30 -15 -54.5t-26 -33t-30 -21.5zM795 700l-498 -700h-74
l498 700h74zM843 198q31 -10 49 -34t18 -57q0 -49 -40 -80.5t-104 -31.5q-61 0 -97.5 30.5t-41.5 84.5h62q12 -62 77 -62q35 0 57.5 17t22.5 45t-20.5 45.5t-55.5 17.5h-38v48h35q30 0 48.5 16t18.5 43t-19 43t-49 16q-27 0 -47 -14.5t-25 -40.5h-61q3 47 42.5 76.5
t93.5 29.5t91 -29.5t37 -77.5q0 -53 -54 -82v-3z" />
    <glyph glyph-name="arrowup" unicode="&#x2191;" horiz-adv-x="714" 
d="M662 441l-55 -55l-211 212v-605h-78v605l-211 -212l-55 55l301 292h8z" />
    <glyph glyph-name="arrowdown" unicode="&#x2193;" horiz-adv-x="714" 
d="M607 307l55 -55l-300 -292h-9l-301 292l55 55l211 -211v604h78v-604z" />
    <glyph glyph-name="arrowboth" unicode="&#x2194;" horiz-adv-x="966" 
d="M648 655l292 -301v-8l-292 -301l-56 55l212 211h-642l212 -211l-56 -55l-292 301v8l292 301l56 -55l-212 -211h642l-212 211z" />
    <glyph glyph-name="arrowupdn" unicode="&#x2195;" horiz-adv-x="714" 
d="M396 20l211 211l55 -55l-301 -292h-8l-301 292l55 55l211 -211v641l-211 -211l-55 55l301 292h8l301 -292l-55 -55l-211 211v-641z" />
    <glyph glyph-name="uni2196" unicode="&#x2196;" horiz-adv-x="638" 
d="M612 109l-59 -58l-427 428v-306h-73v430l8 7h431v-73h-310z" />
    <glyph glyph-name="uni2197" unicode="&#x2197;" horiz-adv-x="638" 
d="M577 610l8 -7v-430h-73v306l-427 -428l-59 58l430 428h-310v73h431z" />
    <glyph glyph-name="uni2198" unicode="&#x2198;" horiz-adv-x="637" 
d="M512 529h73v-431l-7 -8h-430v73h306l-428 428l58 58l428 -429v309z" />
    <glyph glyph-name="uni2199" unicode="&#x2199;" horiz-adv-x="638" 
d="M611 591l-427 -428h306v-73h-430l-8 8v431h73v-309l428 429z" />
    <glyph glyph-name="partialdiff" unicode="&#x2202;" horiz-adv-x="617" 
d="M551 318q0 -168 -66 -248t-183 -80q-98 0 -167 65t-69 168t64 166.5t163 63.5q59 0 108.5 -27.5t70.5 -66.5h6q-9 136 -50 205.5t-127 69.5q-55 0 -90.5 -31.5t-46.5 -68.5h-79q9 69 68 122.5t147 53.5q251 0 251 -392zM303 64q69 0 112 47t43 116q0 67 -45.5 109.5
t-113.5 42.5q-69 0 -111 -44t-42 -113t45 -113.5t112 -44.5z" />
    <glyph glyph-name="emptyset" unicode="&#x2205;" horiz-adv-x="803" 
d="M657 529q74 -90 74 -209q0 -137 -96 -233.5t-233 -96.5q-116 0 -207 73l-72 -73l-47 50l71 71q-75 93 -75 209q0 137 96.5 233.5t233.5 96.5q116 0 206 -72l72 72l48 -50zM151 320q0 -85 50 -154l353 357q-68 52 -153 52q-103 0 -176.5 -75t-73.5 -180zM401 65
q103 0 177.5 75t74.5 180q0 86 -50 154l-354 -357q66 -52 152 -52z" />
    <glyph glyph-name="product" unicode="&#x220f;" horiz-adv-x="679" 
d="M592 700v-700h-92v620h-321v-620h-92v700h505z" />
    <glyph glyph-name="summation" unicode="&#x2211;" horiz-adv-x="570" 
d="M71 649v51h442v-73h-313v-5l215 -246v-52l-218 -246v-5h326v-73h-457v51l263 297v5z" />
    <glyph glyph-name="minus" unicode="&#x2212;" 
d="M67 317h421v-74h-421v74z" />
    <glyph glyph-name="radical" unicode="&#x221a;" horiz-adv-x="689" 
d="M649 700v-75h-119l-221 -625h-112l-176 500h97l132 -381h7l202 581h190z" />
    <glyph glyph-name="infinity" unicode="&#x221e;" horiz-adv-x="818" 
d="M595 513q67 0 118.5 -49.5t51.5 -127.5t-51.5 -127.5t-118.5 -49.5q-109 0 -183 115h-6q-74 -115 -183 -115q-67 0 -119 49.5t-52 127.5t52 127.5t119 49.5q108 0 183 -114h6q75 114 183 114zM232 230q81 0 139 106q-58 106 -139 106q-41 0 -71.5 -29.5t-30.5 -76.5
t30.5 -76.5t71.5 -29.5zM586 230q41 0 71.5 29.5t30.5 76.5t-30.5 76.5t-71.5 29.5q-80 0 -140 -106q60 -106 140 -106z" />
    <glyph glyph-name="integral" unicode="&#x222b;" horiz-adv-x="532" 
d="M405 710q59 0 101 -42l-31 -61q-29 29 -63 29q-28 0 -47 -17t-23 -51l-68 -645q-8 -66 -48 -99.5t-99 -33.5t-101 42l31 61q27 -29 63 -29q28 0 47 17t23 51l69 645q7 66 47.5 99.5t98.5 33.5z" />
    <glyph glyph-name="approxequal" unicode="&#x2248;" 
d="M531 466q-6 -70 -43 -118t-102 -48q-40 0 -72 16.5t-49.5 36t-41 36t-48.5 16.5q-68 0 -79 -93h-72q7 71 44 118.5t102 47.5q40 0 72 -16.5t49 -36t41 -36t49 -16.5q35 0 54.5 26t24.5 67h71zM531 247q-6 -70 -43 -118t-102 -48q-40 0 -72 16.5t-49.5 36t-41 36
t-48.5 16.5q-68 0 -79 -93h-72q7 71 44 118.5t102 47.5q40 0 72 -16.5t49 -36t41 -36t49 -16.5q35 0 54.5 26t24.5 67h71z" />
    <glyph glyph-name="notequal" unicode="&#x2260;" 
d="M497 353h-139l-92 -146h231v-74h-277l-65 -103l-51 31l45 72h-92v74h139l91 146h-230v75h277l66 105l51 -32l-46 -73h92v-75z" />
    <glyph glyph-name="lessequal" unicode="&#x2264;" horiz-adv-x="555" 
d="M496 583v-82l-353 -145v-6l353 -146v-82l-437 180v100zM496 0h-437v73h437v-73z" />
    <glyph glyph-name="greaterequal" unicode="&#x2265;" 
d="M59 583l437 -181v-100l-437 -180v82l352 146v6l-352 145v82zM59 0v73h437v-73h-437z" />
    <glyph glyph-name="lozenge" unicode="&#x25ca;" horiz-adv-x="607" 
d="M303 570l277 -290l-277 -290l-277 290zM303 461l-167 -181l167 -181l169 181z" />
    <glyph glyph-name="smileface" unicode="&#x263a;" horiz-adv-x="852" 
d="M786 350q0 -150 -105 -255t-255 -105t-255 106t-105 254q0 149 105.5 254.5t254.5 105.5q151 0 255.5 -105.5t104.5 -254.5zM238 533v-45h44v-128h46v128h44v45h-134zM480 533v-45h45v-128h45v128h45v45h-135zM426 81q109 0 187 76t81 183l-46 8q0 -92 -65 -156.5
t-157 -64.5t-156.5 64.5t-64.5 156.5l-46 -8q3 -107 81 -183t186 -76z" />
    <glyph glyph-name="uni2731" unicode="&#x2731;" 
d="M485 360l-144 -80l144 -80l-34 -60l-141 84l2 -164h-69l2 164l-141 -84l-34 60l144 80l-144 80l34 60l141 -84l-2 164h69l-2 -164l141 84z" />
    <glyph glyph-name="uni2780" unicode="&#x2780;" horiz-adv-x="852" 
d="M426 -10q-149 0 -254.5 105t-105.5 255t105.5 255t254.5 105q148 0 254 -105t106 -255t-106 -255t-254 -105zM425 48q124 0 212.5 89t88.5 213t-88.5 213t-212.5 89q-123 0 -211 -89t-88 -213t88 -213t211 -89zM401 157v266h-81v50h38q50 0 50 49v20h56v-385h-63z" />
    <glyph glyph-name="uni2781" unicode="&#x2781;" horiz-adv-x="852" 
d="M426 -10q-149 0 -254.5 105t-105.5 255t105.5 255t254.5 105q148 0 254 -105t106 -255t-106 -255t-254 -105zM425 48q124 0 212.5 89t88.5 213t-88.5 213t-212.5 89q-123 0 -211 -89t-88 -213t88 -213t211 -89zM421 295q-53 -34 -57 -78h192v-52h-265v23q0 91 85 145
l61 38q18 11 27.5 18.5t19 22.5t9.5 32q0 26 -17.5 42t-45.5 16q-33 0 -52.5 -21.5t-21.5 -48.5h-64q3 48 39.5 85.5t101.5 37.5q56 0 90 -29.5t34 -78.5q0 -30 -14.5 -54.5t-25.5 -33.5t-30 -21z" />
    <glyph glyph-name="uni2782" unicode="&#x2782;" horiz-adv-x="852" 
d="M426 -10q-149 0 -254.5 105t-105.5 255t105.5 255t254.5 105q148 0 254 -105t106 -255t-106 -255t-254 -105zM425 48q124 0 212.5 89t88.5 213t-88.5 213t-212.5 89q-123 0 -211 -89t-88 -213t88 -213t211 -89zM500 355q31 -10 49 -34t18 -57q0 -48 -40.5 -80t-104.5 -32
q-62 0 -97.5 30.5t-40.5 84.5h62q10 -62 76 -62q35 0 57.5 17t22.5 45t-20.5 45.5t-54.5 17.5h-39v48h36q30 0 48.5 16t18.5 43t-19 43t-49 16q-28 0 -47.5 -14.5t-25.5 -40.5h-61q4 47 43.5 76.5t92.5 29.5q54 0 91 -29.5t37 -77.5q0 -53 -53 -82v-3z" />
    <glyph glyph-name="uni2783" unicode="&#x2783;" horiz-adv-x="852" 
d="M426 -10q-149 0 -254.5 105t-105.5 255t105.5 255t254.5 105q148 0 254 -105t106 -255t-106 -255t-254 -105zM425 48q124 0 212.5 89t88.5 213t-88.5 213t-212.5 89q-123 0 -211 -89t-88 -213t88 -213t211 -89zM569 291v-48h-71v-86h-59v86h-185v31l180 268h64v-251h71z
M326 291h113v169h-4z" />
    <glyph glyph-name="uni2784" unicode="&#x2784;" horiz-adv-x="852" 
d="M426 -10q-149 0 -254.5 105t-105.5 255t105.5 255t254.5 105q148 0 254 -105t106 -255t-106 -255t-254 -105zM425 48q124 0 212.5 89t88.5 213t-88.5 213t-212.5 89q-123 0 -211 -89t-88 -213t88 -213t211 -89zM434 398q57 0 92 -36t35 -90q0 -58 -39.5 -93t-102.5 -35
q-60 0 -95.5 31.5t-39.5 85.5h60q3 -32 23.5 -49.5t52.5 -17.5q36 0 57.5 20.5t21.5 55.5t-21 58t-56 23q-52 0 -74 -40l-55 13l20 210h231v-52h-177l-12 -110q30 26 79 26z" />
    <glyph glyph-name="uni2785" unicode="&#x2785;" horiz-adv-x="852" 
d="M426 -10q-149 0 -254.5 105t-105.5 255t105.5 255t254.5 105q148 0 254 -105t106 -255t-106 -255t-254 -105zM425 48q124 0 212.5 89t88.5 213t-88.5 213t-212.5 89q-123 0 -211 -89t-88 -213t88 -213t211 -89zM438 402q54 0 89 -34.5t35 -88.5q0 -57 -38.5 -92
t-100.5 -35t-100.5 36t-38.5 96t50 131l89 127h75l-111 -151q22 11 51 11zM423 203q36 0 57 22t21 55q0 32 -21 53.5t-56 21.5q-36 0 -57 -21.5t-21 -53.5q0 -33 21 -55t56 -22z" />
    <glyph glyph-name="uni2786" unicode="&#x2786;" horiz-adv-x="852" 
d="M426 -10q-149 0 -254.5 105t-105.5 255t105.5 255t254.5 105q148 0 254 -105t106 -255t-106 -255t-254 -105zM425 48q124 0 212.5 89t88.5 213t-88.5 213t-212.5 89q-123 0 -211 -89t-88 -213t88 -213t211 -89zM291 534h273v-36q-133 -147 -149 -349h-64q16 196 125 330
v3h-185v52z" />
    <glyph glyph-name="uni2787" unicode="&#x2787;" horiz-adv-x="852" 
d="M426 -10q-149 0 -254.5 105t-105.5 255t105.5 255t254.5 105q148 0 254 -105t106 -255t-106 -255t-254 -105zM425 48q124 0 212.5 89t88.5 213t-88.5 213t-212.5 89q-123 0 -211 -89t-88 -213t88 -213t211 -89zM498 360q29 -10 49.5 -36t20.5 -63q0 -48 -38 -78.5
t-103 -30.5q-64 0 -103 30.5t-39 79.5q0 37 21 62.5t49 35.5v3q-56 24 -56 82q0 45 36 73.5t93 28.5q55 0 90.5 -27.5t35.5 -73.5q0 -59 -56 -83v-3zM428 501q-30 0 -49 -15.5t-19 -42.5t19 -43t48 -16t47.5 16t18.5 43q0 26 -18.5 42t-46.5 16zM427 199q33 0 55 18.5
t22 47.5q0 30 -20.5 50t-56.5 20q-37 0 -57.5 -20t-20.5 -49q0 -30 22 -48.5t56 -18.5z" />
    <glyph glyph-name="uni2788" unicode="&#x2788;" horiz-adv-x="852" 
d="M426 -10q-149 0 -254.5 105t-105.5 255t105.5 255t254.5 105q148 0 254 -105t106 -255t-106 -255t-254 -105zM425 48q124 0 212.5 89t88.5 213t-88.5 213t-212.5 89q-123 0 -211 -89t-88 -213t88 -213t211 -89zM414 298q-54 0 -89 34.5t-35 88.5q0 57 38.5 92t100.5 35
t100.5 -36t38.5 -96t-50 -131l-89 -127h-75l111 151q-22 -11 -51 -11zM429 497q-36 0 -57 -22t-21 -55t20.5 -54t56.5 -21t57 21.5t21 53.5q0 33 -21 55t-56 22z" />
    <glyph glyph-name="uni2789" unicode="&#x2789;" horiz-adv-x="852" 
d="M426 -10q-149 0 -254.5 105t-105.5 255t105.5 255t254.5 105q148 0 254 -105t106 -255t-106 -255t-254 -105zM425 48q124 0 212.5 89t88.5 213t-88.5 213t-212.5 89q-123 0 -211 -89t-88 -213t88 -213t211 -89zM518 172q-57 0 -92 45.5t-35 132.5q0 85 35 131t91 46
q55 0 89.5 -46.5t34.5 -132.5q0 -85 -34 -130.5t-89 -45.5zM280 176v236h-67v49h32q41 0 41 45v17h51v-347h-57zM517 223q29 0 47.5 31t18.5 95q0 127 -66 127q-30 0 -48.5 -30.5t-18.5 -95.5q0 -66 18.5 -96.5t48.5 -30.5z" />
    <glyph glyph-name="uni278A" unicode="&#x278a;" horiz-adv-x="852" 
d="M426 -10q148 0 254 105t106 255t-106 255t-254 105q-149 0 -254.5 -105t-105.5 -255t105.5 -255t254.5 -105zM401 157v266h-81v50h38q50 0 50 49v20h56v-385h-63z" />
    <glyph glyph-name="uni278B" unicode="&#x278b;" horiz-adv-x="852" 
d="M426 -10q148 0 254 105t106 255t-106 255t-254 105q-149 0 -254.5 -105t-105.5 -255t105.5 -255t254.5 -105zM421 295q-53 -34 -57 -78h192v-52h-265v23q0 91 85 145l61 38q18 11 27.5 18.5t19 22.5t9.5 32q0 26 -17.5 42t-45.5 16q-33 0 -52.5 -21.5t-21.5 -48.5h-64
q3 48 39.5 85.5t101.5 37.5q56 0 90 -29.5t34 -78.5q0 -30 -14.5 -54.5t-25.5 -33.5t-30 -21z" />
    <glyph glyph-name="uni278C" unicode="&#x278c;" horiz-adv-x="852" 
d="M426 -10q148 0 254 105t106 255t-106 255t-254 105q-149 0 -254.5 -105t-105.5 -255t105.5 -255t254.5 -105zM500 355q31 -10 49 -34t18 -57q0 -48 -40.5 -80t-104.5 -32q-62 0 -97.5 30.5t-40.5 84.5h62q10 -62 76 -62q35 0 57.5 17t22.5 45t-20.5 45.5t-54.5 17.5h-39
v48h36q30 0 48.5 16t18.5 43t-19 43t-49 16q-28 0 -47.5 -14.5t-25.5 -40.5h-61q4 47 43.5 76.5t92.5 29.5q54 0 91 -29.5t37 -77.5q0 -53 -53 -82v-3z" />
    <glyph glyph-name="uni278D" unicode="&#x278d;" horiz-adv-x="852" 
d="M426 -10q148 0 254 105t106 255t-106 255t-254 105q-149 0 -254.5 -105t-105.5 -255t105.5 -255t254.5 -105zM569 291v-48h-71v-86h-59v86h-185v31l180 268h64v-251h71zM326 291h113v169h-4z" />
    <glyph glyph-name="uni278E" unicode="&#x278e;" horiz-adv-x="852" 
d="M426 -10q148 0 254 105t106 255t-106 255t-254 105q-149 0 -254.5 -105t-105.5 -255t105.5 -255t254.5 -105zM434 398q57 0 92 -36t35 -90q0 -58 -39.5 -93t-102.5 -35q-60 0 -95.5 31.5t-39.5 85.5h60q3 -32 23.5 -49.5t52.5 -17.5q36 0 57.5 20.5t21.5 55.5t-21 58
t-56 23q-52 0 -74 -40l-55 13l20 210h231v-52h-177l-12 -110q30 26 79 26z" />
    <glyph glyph-name="uni278F" unicode="&#x278f;" horiz-adv-x="852" 
d="M426 -10q148 0 254 105t106 255t-106 255t-254 105q-149 0 -254.5 -105t-105.5 -255t105.5 -255t254.5 -105zM438 402q54 0 89 -34.5t35 -88.5q0 -57 -38.5 -92t-100.5 -35t-100.5 36t-38.5 96t50 131l89 127h75l-111 -151q22 11 51 11zM423 203q36 0 57 22t21 55
q0 32 -21 53.5t-56 21.5q-36 0 -57 -21.5t-21 -53.5q0 -33 21 -55t56 -22z" />
    <glyph glyph-name="uni2790" unicode="&#x2790;" horiz-adv-x="852" 
d="M426 -10q148 0 254 105t106 255t-106 255t-254 105q-149 0 -254.5 -105t-105.5 -255t105.5 -255t254.5 -105zM291 534h273v-36q-133 -147 -149 -349h-64q16 196 125 330v3h-185v52z" />
    <glyph glyph-name="uni2791" unicode="&#x2791;" horiz-adv-x="852" 
d="M426 -10q148 0 254 105t106 255t-106 255t-254 105q-149 0 -254.5 -105t-105.5 -255t105.5 -255t254.5 -105zM498 360q29 -10 49.5 -36t20.5 -63q0 -48 -38 -78.5t-103 -30.5q-64 0 -103 30.5t-39 79.5q0 37 21 62.5t49 35.5v3q-56 24 -56 82q0 45 36 73.5t93 28.5
q55 0 90.5 -27.5t35.5 -73.5q0 -59 -56 -83v-3zM428 501q-30 0 -49 -15.5t-19 -42.5t19 -43t48 -16t47.5 16t18.5 43q0 26 -18.5 42t-46.5 16zM427 199q33 0 55 18.5t22 47.5q0 30 -20.5 50t-56.5 20q-37 0 -57.5 -20t-20.5 -49q0 -30 22 -48.5t56 -18.5z" />
    <glyph glyph-name="uni2792" unicode="&#x2792;" horiz-adv-x="852" 
d="M426 -10q148 0 254 105t106 255t-106 255t-254 105q-149 0 -254.5 -105t-105.5 -255t105.5 -255t254.5 -105zM414 298q-54 0 -89 34.5t-35 88.5q0 57 38.5 92t100.5 35t100.5 -36t38.5 -96t-50 -131l-89 -127h-75l111 151q-22 -11 -51 -11zM429 497q-36 0 -57 -22
t-21 -55t20.5 -54t56.5 -21t57 21.5t21 53.5q0 33 -21 55t-56 22z" />
    <glyph glyph-name="uni2793" unicode="&#x2793;" horiz-adv-x="852" 
d="M426 -10q148 0 254 105t106 255t-106 255t-254 105q-149 0 -254.5 -105t-105.5 -255t105.5 -255t254.5 -105zM518 172q-57 0 -92 45.5t-35 132.5q0 85 35 131t91 46q55 0 89.5 -46.5t34.5 -132.5q0 -85 -34 -130.5t-89 -45.5zM280 176v236h-67v49h32q41 0 41 45v17h51
v-347h-57zM517 223q29 0 47.5 31t18.5 95q0 127 -66 127q-30 0 -48.5 -30.5t-18.5 -95.5q0 -66 18.5 -96.5t48.5 -30.5z" />
    <glyph glyph-name="Aacute.ss01" horiz-adv-x="652" 
d="M415 900l-66 -145h-45l62 145h49zM529 0l-64 191h-278l-64 -191h-97l244 700h112l244 -700h-97zM213 269h225l-109 324h-7z" />
    <glyph glyph-name="Abreve.ss01" horiz-adv-x="652" 
d="M326 777q-57 0 -88.5 38.5t-31.5 84.5h45q0 -38 20.5 -61t54.5 -23q33 0 53 23t20 61h45q0 -46 -30.5 -84.5t-87.5 -38.5zM529 0l-64 191h-278l-64 -191h-97l244 700h112l244 -700h-97zM213 269h225l-109 324h-7z" />
    <glyph glyph-name="uni01CD.ss01" horiz-adv-x="652" 
d="M352 768h-49l-103 132h53l73 -94h3l72 94h53zM529 0l-64 191h-278l-64 -191h-97l244 700h112l244 -700h-97zM213 269h225l-109 324h-7z" />
    <glyph glyph-name="Acircumflex.ss01" horiz-adv-x="652" 
d="M324 862l-71 -94h-54l102 132h50l103 -132h-54l-73 94h-3zM529 0l-64 191h-278l-64 -191h-97l244 700h112l244 -700h-97zM213 269h225l-109 324h-7z" />
    <glyph glyph-name="Agrave.ss01" horiz-adv-x="652" 
d="M349 755h-45l-66 145h49zM529 0l-64 191h-278l-64 -191h-97l244 700h112l244 -700h-97zM213 269h225l-109 324h-7z" />
    <glyph glyph-name="Amacron.ss01" horiz-adv-x="652" 
d="M476 833v-39h-297v39h297zM529 0l-64 191h-278l-64 -191h-97l244 700h112l244 -700h-97zM213 269h225l-109 324h-7z" />
    <glyph glyph-name="Aogonek.ss01" horiz-adv-x="652" 
d="M611 -128q23 0 45 6v-38q-19 -7 -46 -7q-45 0 -74.5 20.5t-29.5 63.5q0 53 66 83h-43l-64 191h-278l-64 -191h-97l244 700h112l244 -700q-75 -28 -75 -82q0 -46 60 -46zM213 269h225l-109 324h-7z" />
    <glyph glyph-name="Aring.ss01" horiz-adv-x="652" 
d="M328 750q-37 0 -64.5 26t-27.5 64t27.5 64t64.5 26t63.5 -26t26.5 -64t-26.5 -64t-63.5 -26zM328 894q-23 0 -38 -15.5t-15 -38.5t15 -38.5t38 -15.5q21 0 36.5 15.5t15.5 38.5t-15.5 38.5t-36.5 15.5zM529 0l-64 191h-278l-64 -191h-97l244 700h112l244 -700h-97z
M213 269h225l-109 324h-7z" />
    <glyph glyph-name="Atilde.ss01" horiz-adv-x="652" 
d="M263 823q-43 0 -51 -59h-41q5 42 27.5 70.5t61.5 28.5q31 0 53 -16.5t40 -32.5t38 -16q23 0 36 16.5t16 41.5h39q-3 -41 -26 -69.5t-61 -28.5q-24 0 -44 10t-31 22.5t-26 22.5t-31 10zM529 0l-64 191h-278l-64 -191h-97l244 700h112l244 -700h-97zM213 269h225l-109 324
h-7z" />
    <glyph glyph-name="AEacute.ss01" horiz-adv-x="1009" 
d="M803 900l-66 -145h-45l62 145h49zM613 81h348v-81h-436v191h-268l-124 -191h-107l451 700h474v-81h-338v-224h297v-79h-297v-235zM308 269h217v324h-7z" />
    <glyph glyph-name="uni01E2.ss01" horiz-adv-x="1009" 
d="M863 833v-39h-297v39h297zM613 81h348v-81h-436v191h-268l-124 -191h-107l451 700h474v-81h-338v-224h297v-79h-297v-235zM308 269h217v324h-7z" />
    <glyph glyph-name="Cacute.ss01" horiz-adv-x="752" 
d="M438 900h49l-66 -145h-45zM700 213q-19 -101 -102 -162t-200 -61q-149 0 -240.5 100t-91.5 257q0 158 92 260.5t240 102.5q114 0 193.5 -61t97.5 -168h-96q-18 67 -69 106t-125 39q-108 0 -174.5 -80.5t-66.5 -198.5q0 -119 67 -196t173 -77q77 0 131 38t75 101h96z" />
    <glyph glyph-name="Ccaron.ss01" horiz-adv-x="752" 
d="M472 900h53l-102 -132h-49l-103 132h53l73 -94h3zM700 213q-19 -101 -102 -162t-200 -61q-149 0 -240.5 100t-91.5 257q0 158 92 260.5t240 102.5q114 0 193.5 -61t97.5 -168h-96q-18 67 -69 106t-125 39q-108 0 -174.5 -80.5t-66.5 -198.5q0 -119 67 -196t173 -77
q77 0 131 38t75 101h96z" />
    <glyph glyph-name="Ccedilla.ss01" horiz-adv-x="752" 
d="M700 213q-19 -97 -97 -157.5t-189 -65.5l-27 -35q38 3 69 -19t31 -64q0 -38 -25.5 -60t-70.5 -22q-41 0 -66 19l15 30q24 -14 48 -14q27 0 43 13.5t16 36.5q0 50 -63 50q-18 0 -38 -9l-19 17l43 58q-138 10 -221 108.5t-83 247.5q0 158 92 260.5t240 102.5
q114 0 193.5 -61t97.5 -168h-96q-18 67 -69 106t-125 39q-108 0 -174.5 -80.5t-66.5 -198.5q0 -119 67 -196t173 -77q77 0 131 38t75 101h96z" />
    <glyph glyph-name="Ccircumflex.ss01" horiz-adv-x="752" 
d="M325 768h-54l102 132h50l103 -132h-54l-73 94h-3zM700 213q-19 -101 -102 -162t-200 -61q-149 0 -240.5 100t-91.5 257q0 158 92 260.5t240 102.5q114 0 193.5 -61t97.5 -168h-96q-18 67 -69 106t-125 39q-108 0 -174.5 -80.5t-66.5 -198.5q0 -119 67 -196t173 -77
q77 0 131 38t75 101h96z" />
    <glyph glyph-name="Eth.ss01" horiz-adv-x="704" 
d="M303 700q163 0 249 -94.5t86 -255.5q0 -159 -85.5 -254.5t-249.5 -95.5h-216v329h-116v40h116v331h216zM298 82q128 0 187.5 73.5t59.5 196.5q0 122 -59.5 194t-187.5 72h-120v-249h177v-40h-177v-247h120z" />
    <glyph glyph-name="Dcaron.ss01" horiz-adv-x="704" 
d="M422 900h53l-102 -132h-49l-103 132h53l73 -94h3zM303 700q163 0 249 -94.5t86 -255.5q0 -159 -85.5 -254.5t-249.5 -95.5h-216v700h216zM298 82q128 0 187.5 73.5t59.5 196.5q0 122 -59.5 194t-187.5 72h-120v-536h120z" />
    <glyph glyph-name="Dcroat.ss01" horiz-adv-x="704" 
d="M303 700q163 0 249 -94.5t86 -255.5q0 -159 -85.5 -254.5t-249.5 -95.5h-216v329h-116v40h116v331h216zM298 82q128 0 187.5 73.5t59.5 196.5q0 122 -59.5 194t-187.5 72h-120v-249h177v-40h-177v-247h120z" />
    <glyph glyph-name="Eacute.ss01" horiz-adv-x="586" 
d="M348 900h49l-66 -145h-45zM176 81h363v-81h-452v700h442v-81h-353v-224h311v-79h-311v-235z" />
    <glyph glyph-name="Ebreve.ss01" horiz-adv-x="586" 
d="M426 900q0 -46 -30.5 -84.5t-87.5 -38.5t-88.5 38.5t-31.5 84.5h45q0 -38 20.5 -61t54.5 -23q33 0 53 23t20 61h45zM176 81h363v-81h-452v700h442v-81h-353v-224h311v-79h-311v-235z" />
    <glyph glyph-name="Ecaron.ss01" horiz-adv-x="586" 
d="M383 900h53l-102 -132h-49l-103 132h53l73 -94h3zM176 81h363v-81h-452v700h442v-81h-353v-224h311v-79h-311v-235z" />
    <glyph glyph-name="uni0228.ss01" horiz-adv-x="586" 
d="M539 0h-203l-34 -45q38 3 69 -19t31 -64q0 -38 -25.5 -60t-70.5 -22q-41 0 -66 19l15 30q25 -14 48 -14q27 0 43 13.5t16 36.5q0 50 -63 50q-18 0 -38 -9l-19 17l50 67h-205v700h442v-81h-353v-224h311v-79h-311v-235h363v-81z" />
    <glyph glyph-name="Ecircumflex.ss01" horiz-adv-x="586" 
d="M235 768h-54l102 132h50l103 -132h-54l-73 94h-3zM176 81h363v-81h-452v700h442v-81h-353v-224h311v-79h-311v-235z" />
    <glyph glyph-name="Egrave.ss01" horiz-adv-x="586" 
d="M269 900l62 -145h-45l-66 145h49zM176 81h363v-81h-452v700h442v-81h-353v-224h311v-79h-311v-235z" />
    <glyph glyph-name="Emacron.ss01" horiz-adv-x="586" 
d="M161 833h297v-39h-297v39zM176 81h363v-81h-452v700h442v-81h-353v-224h311v-79h-311v-235z" />
    <glyph glyph-name="Eogonek.ss01" horiz-adv-x="586" 
d="M524 -128q22 0 45 6v-38q-19 -7 -46 -7q-45 0 -74.5 20.5t-29.5 63.5q0 53 66 83h-398v700h442v-81h-353v-224h311v-79h-311v-235h363v-81q-75 -28 -75 -82q0 -46 60 -46z" />
    <glyph glyph-name="uni1EBC.ss01" horiz-adv-x="586" 
d="M464 856q-3 -41 -26 -69.5t-61 -28.5q-24 0 -44 10t-31 22.5t-26 22.5t-31 10q-43 0 -51 -59h-41q5 42 27.5 70.5t61.5 28.5q31 0 53 -16.5t40 -32.5t38 -16q23 0 36 16.5t16 41.5h39zM176 81h363v-81h-452v700h442v-81h-353v-224h311v-79h-311v-235z" />
    <glyph glyph-name="uni01F4.ss01" horiz-adv-x="785" 
d="M436 900h49l-66 -145h-45zM400 364h298v-364h-72l-11 81h-7q-82 -91 -221 -91q-146 0 -233.5 98t-87.5 252q0 159 95.5 264.5t247.5 105.5q116 0 191.5 -58t93.5 -151h-98q-18 57 -66.5 91t-120.5 34q-113 0 -182 -80t-69 -205q0 -118 64.5 -193.5t174.5 -75.5
q89 0 150 44.5t61 126.5v48h-208v73z" />
    <glyph glyph-name="Gbreve.ss01" horiz-adv-x="785" 
d="M514 900q0 -46 -30.5 -84.5t-87.5 -38.5t-88.5 38.5t-31.5 84.5h45q0 -38 20.5 -61t54.5 -23q33 0 53 23t20 61h45zM400 364h298v-364h-72l-11 81h-7q-82 -91 -221 -91q-146 0 -233.5 98t-87.5 252q0 159 95.5 264.5t247.5 105.5q116 0 191.5 -58t93.5 -151h-98
q-18 57 -66.5 91t-120.5 34q-113 0 -182 -80t-69 -205q0 -118 64.5 -193.5t174.5 -75.5q89 0 150 44.5t61 126.5v48h-208v73z" />
    <glyph glyph-name="Gcaron.ss01" horiz-adv-x="785" 
d="M471 900h53l-102 -132h-49l-103 132h53l73 -94h3zM400 364h298v-364h-72l-11 81h-7q-82 -91 -221 -91q-146 0 -233.5 98t-87.5 252q0 159 95.5 264.5t247.5 105.5q116 0 191.5 -58t93.5 -151h-98q-18 57 -66.5 91t-120.5 34q-113 0 -182 -80t-69 -205q0 -118 64.5 -193.5
t174.5 -75.5q89 0 150 44.5t61 126.5v48h-208v73z" />
    <glyph glyph-name="Gcircumflex.ss01" horiz-adv-x="785" 
d="M323 768h-54l102 132h50l103 -132h-54l-73 94h-3zM400 364h298v-364h-72l-11 81h-7q-82 -91 -221 -91q-146 0 -233.5 98t-87.5 252q0 159 95.5 264.5t247.5 105.5q116 0 191.5 -58t93.5 -151h-98q-18 57 -66.5 91t-120.5 34q-113 0 -182 -80t-69 -205q0 -118 64.5 -193.5
t174.5 -75.5q89 0 150 44.5t61 126.5v48h-208v73z" />
    <glyph glyph-name="uni0122.ss01" horiz-adv-x="785" 
d="M400 364h298v-364h-72l-11 81h-7q-82 -91 -221 -91q-146 0 -233.5 98t-87.5 252q0 159 95.5 264.5t247.5 105.5q116 0 191.5 -58t93.5 -151h-98q-18 57 -66.5 91t-120.5 34q-113 0 -182 -80t-69 -205q0 -118 64.5 -193.5t174.5 -75.5q89 0 150 44.5t61 126.5v48h-208v73z
M394 -60q31 0 48 -22t17 -56q0 -94 -104 -153l-21 27q66 48 78 87q-9 -3 -22 -3q-27 0 -42 18t-15 41q0 28 17 44.5t44 16.5z" />
    <glyph glyph-name="uni1E20.ss01" horiz-adv-x="785" 
d="M249 833h297v-39h-297v39zM400 364h298v-364h-72l-11 81h-7q-82 -91 -221 -91q-146 0 -233.5 98t-87.5 252q0 159 95.5 264.5t247.5 105.5q116 0 191.5 -58t93.5 -151h-98q-18 57 -66.5 91t-120.5 34q-113 0 -182 -80t-69 -205q0 -118 64.5 -193.5t174.5 -75.5
q89 0 150 44.5t61 126.5v48h-208v73z" />
    <glyph glyph-name="Hbar.ss01" horiz-adv-x="697" 
d="M520 700h90v-700h-90v313h-342v-313h-91v700h91v-133h342v133zM178 395h342v130h-342v-130z" />
    <glyph glyph-name="uni021E.ss01" horiz-adv-x="697" 
d="M421 900h53l-102 -132h-49l-103 132h53l73 -94h3zM520 700h90v-700h-90v313h-342v-313h-91v700h91v-305h342v305z" />
    <glyph glyph-name="uni1E28.ss01" horiz-adv-x="697" 
d="M520 700h90v-700h-90v313h-342v-313h-23l-34 -45q38 3 69 -19t31 -64q0 -38 -25.5 -60t-70.5 -22q-41 0 -66 19l15 30q24 -14 48 -14q27 0 43 13.5t16 36.5q0 50 -63 50q-18 0 -38 -9l-19 17l50 67h-24v700h91v-305h342v305z" />
    <glyph glyph-name="Hcircumflex.ss01" horiz-adv-x="697" 
d="M274 768h-54l102 132h50l103 -132h-54l-73 94h-3zM520 700h90v-700h-90v313h-342v-313h-91v700h91v-305h342v305z" />
    <glyph glyph-name="Iacute.ss01" horiz-adv-x="265" 
d="M172 900h49l-66 -145h-45zM178 700v-700h-91v700h91z" />
    <glyph glyph-name="Ibreve.ss01" horiz-adv-x="265" 
d="M250 900q0 -46 -30.5 -84.5t-87.5 -38.5t-88.5 38.5t-31.5 84.5h45q0 -38 20.5 -61t54.5 -23q33 0 53 23t20 61h45zM178 700v-700h-91v700h91z" />
    <glyph glyph-name="uni01CF.ss01" horiz-adv-x="265" 
d="M207 900h53l-102 -132h-49l-103 132h53l73 -94h3zM178 700v-700h-91v700h91z" />
    <glyph glyph-name="Icircumflex.ss01" horiz-adv-x="265" 
d="M59 768h-54l102 132h50l103 -132h-54l-73 94h-3zM178 700v-700h-91v700h91z" />
    <glyph glyph-name="Igrave.ss01" horiz-adv-x="265" 
d="M94 900l62 -145h-45l-66 145h49zM178 700v-700h-91v700h91z" />
    <glyph glyph-name="Imacron.ss01" horiz-adv-x="265" 
d="M-15 833h297v-39h-297v39zM178 700v-700h-91v700h91z" />
    <glyph glyph-name="Iogonek.ss01" horiz-adv-x="265" 
d="M163 -128q23 0 45 6v-38q-19 -7 -46 -7q-45 0 -74.5 20.5t-29.5 63.5q0 53 66 83h-37v700h91v-700q-75 -28 -75 -82q0 -46 60 -46z" />
    <glyph glyph-name="Itilde.ss01" horiz-adv-x="265" 
d="M288 856q-3 -41 -26 -69.5t-61 -28.5q-24 0 -44 10t-31 22.5t-26 22.5t-31 10q-43 0 -51 -59h-41q5 42 27.5 70.5t61.5 28.5q31 0 53 -16.5t40 -32.5t38 -16q23 0 36 16.5t16 41.5h39zM178 700v-700h-91v700h91z" />
    <glyph glyph-name="Jcircumflex.ss01" horiz-adv-x="538" 
d="M332 768h-54l102 132h50l103 -132h-54l-73 94h-3zM134 201q3 -55 32.5 -91t81.5 -36t82 34.5t30 104.5v487h91v-492q0 -106 -55.5 -162t-147.5 -56q-97 0 -151 57.5t-57 153.5h94z" />
    <glyph glyph-name="uni0136.ss01" horiz-adv-x="623" 
d="M491 0l-259 318h-54v-318h-91v700h91v-300h54l233 300h105l-261 -336v-5l287 -359h-105zM332 -60q31 0 48 -22t17 -56q0 -94 -104 -153l-21 27q66 48 78 87q-9 -3 -22 -3q-27 0 -42 18t-15 41q0 28 17 44.5t44 16.5z" />
    <glyph glyph-name="Lacute.ss01" horiz-adv-x="576" 
d="M168 900h49l-66 -145h-45zM176 82h360v-82h-449v700h89v-618z" />
    <glyph glyph-name="Lcaron.ss01" horiz-adv-x="576" 
d="M338 710q29 0 45 -22t16 -56q0 -97 -98 -157l-20 25q61 48 74 92q-9 -2 -20 -2q-26 0 -40.5 18t-14.5 42q0 27 16.5 43.5t41.5 16.5zM176 82h360v-82h-449v700h89v-618z" />
    <glyph glyph-name="uni013B.ss01" horiz-adv-x="576" 
d="M176 82h360v-82h-449v700h89v-618zM307 -60q31 0 48 -22t17 -56q0 -94 -104 -153l-21 27q66 48 78 87q-9 -3 -22 -3q-27 0 -42 18t-15 41q0 28 17 44.5t44 16.5z" />
    <glyph glyph-name="Lslash.ss01" horiz-adv-x="576" 
d="M176 82h360v-82h-449v285l-116 -58v49l116 58v366h89v-321l179 90v-49l-179 -90v-248z" />
    <glyph glyph-name="Nacute.ss01" horiz-adv-x="738" 
d="M409 900h49l-66 -145h-45zM562 700h89v-700h-98l-370 546h-7v-546h-89v700h99l369 -546h7v546z" />
    <glyph glyph-name="Ncaron.ss01" horiz-adv-x="738" 
d="M443 900h53l-102 -132h-49l-103 132h53l73 -94h3zM562 700h89v-700h-98l-370 546h-7v-546h-89v700h99l369 -546h7v546z" />
    <glyph glyph-name="uni0145.ss01" horiz-adv-x="738" 
d="M562 700h89v-700h-98l-370 546h-7v-546h-89v700h99l369 -546h7v546zM367 -60q31 0 48 -22t17 -56q0 -94 -104 -153l-21 27q66 48 78 87q-9 -3 -22 -3q-27 0 -42 18t-15 41q0 28 17 44.5t44 16.5z" />
    <glyph glyph-name="uni01F8.ss01" horiz-adv-x="738" 
d="M330 900l62 -145h-45l-66 145h49zM562 700h89v-700h-98l-370 546h-7v-546h-89v700h99l369 -546h7v546z" />
    <glyph glyph-name="Ntilde.ss01" horiz-adv-x="738" 
d="M524 856q-3 -41 -26 -69.5t-61 -28.5q-24 0 -44 10t-31 22.5t-26 22.5t-31 10q-43 0 -51 -59h-41q5 42 27.5 70.5t61.5 28.5q31 0 53 -16.5t40 -32.5t38 -16q23 0 36 16.5t16 41.5h39zM562 700h89v-700h-98l-370 546h-7v-546h-89v700h99l369 -546h7v546z" />
    <glyph glyph-name="Oacute.ss01" horiz-adv-x="823" 
d="M451 900h49l-66 -145h-45zM412 -10q-148 0 -247 102.5t-99 257.5q0 154 99 257t247 103q147 0 246 -103t99 -257q0 -153 -98.5 -256.5t-246.5 -103.5zM412 74q108 0 180.5 79.5t72.5 196.5t-72.5 196.5t-180.5 79.5t-181 -79.5t-73 -196.5t73 -196.5t181 -79.5z" />
    <glyph glyph-name="Obreve.ss01" horiz-adv-x="823" 
d="M530 900q0 -46 -30.5 -84.5t-87.5 -38.5t-88.5 38.5t-31.5 84.5h45q0 -38 20.5 -61t54.5 -23q33 0 53 23t20 61h45zM412 -10q-148 0 -247 102.5t-99 257.5q0 154 99 257t247 103q147 0 246 -103t99 -257q0 -153 -98.5 -256.5t-246.5 -103.5zM412 74q108 0 180.5 79.5
t72.5 196.5t-72.5 196.5t-180.5 79.5t-181 -79.5t-73 -196.5t73 -196.5t181 -79.5z" />
    <glyph glyph-name="uni01D1.ss01" horiz-adv-x="823" 
d="M486 900h53l-102 -132h-49l-103 132h53l73 -94h3zM412 -10q-148 0 -247 102.5t-99 257.5q0 154 99 257t247 103q147 0 246 -103t99 -257q0 -153 -98.5 -256.5t-246.5 -103.5zM412 74q108 0 180.5 79.5t72.5 196.5t-72.5 196.5t-180.5 79.5t-181 -79.5t-73 -196.5
t73 -196.5t181 -79.5z" />
    <glyph glyph-name="Ocircumflex.ss01" horiz-adv-x="823" 
d="M339 768h-54l102 132h50l103 -132h-54l-73 94h-3zM412 -10q-148 0 -247 102.5t-99 257.5q0 154 99 257t247 103q147 0 246 -103t99 -257q0 -153 -98.5 -256.5t-246.5 -103.5zM412 74q108 0 180.5 79.5t72.5 196.5t-72.5 196.5t-180.5 79.5t-181 -79.5t-73 -196.5
t73 -196.5t181 -79.5z" />
    <glyph glyph-name="Ograve.ss01" horiz-adv-x="823" 
d="M373 900l62 -145h-45l-66 145h49zM412 -10q-148 0 -247 102.5t-99 257.5q0 154 99 257t247 103q147 0 246 -103t99 -257q0 -153 -98.5 -256.5t-246.5 -103.5zM412 74q108 0 180.5 79.5t72.5 196.5t-72.5 196.5t-180.5 79.5t-181 -79.5t-73 -196.5t73 -196.5t181 -79.5z
" />
    <glyph glyph-name="Ohungarumlaut.ss01" horiz-adv-x="823" 
d="M379 900h49l-62 -145h-44zM515 900h50l-63 -145h-44zM412 -10q-148 0 -247 102.5t-99 257.5q0 154 99 257t247 103q147 0 246 -103t99 -257q0 -153 -98.5 -256.5t-246.5 -103.5zM412 74q108 0 180.5 79.5t72.5 196.5t-72.5 196.5t-180.5 79.5t-181 -79.5t-73 -196.5
t73 -196.5t181 -79.5z" />
    <glyph glyph-name="Omacron.ss01" horiz-adv-x="823" 
d="M264 833h297v-39h-297v39zM412 -10q-148 0 -247 102.5t-99 257.5q0 154 99 257t247 103q147 0 246 -103t99 -257q0 -153 -98.5 -256.5t-246.5 -103.5zM412 74q108 0 180.5 79.5t72.5 196.5t-72.5 196.5t-180.5 79.5t-181 -79.5t-73 -196.5t73 -196.5t181 -79.5z" />
    <glyph glyph-name="uni01EA.ss01" horiz-adv-x="823" 
d="M492 -1q-72 -28 -72 -81q0 -46 60 -46q22 0 45 6v-38q-19 -7 -46 -7q-45 0 -74.5 20.5t-29.5 63.5q0 46 47 73h-10q-148 0 -247 102.5t-99 257.5q0 154 99 257t247 103q147 0 246 -103t99 -257q0 -130 -73.5 -227t-191.5 -124zM158 350q0 -117 73 -196.5t181 -79.5
t180.5 79.5t72.5 196.5t-72.5 196.5t-180.5 79.5t-181 -79.5t-73 -196.5z" />
    <glyph glyph-name="Oslash.ss01" horiz-adv-x="823" 
d="M638 626q119 -105 119 -276q0 -153 -98.5 -256.5t-246.5 -103.5q-108 0 -194 58l-62 -86l-34 24l63 87q-119 105 -119 277q0 154 99 257t247 103q106 0 191 -57l62 85l36 -25zM158 350q0 -124 80 -204l314 436q-61 44 -140 44q-108 0 -181 -79.5t-73 -196.5zM412 74
q108 0 180.5 79.5t72.5 196.5q0 123 -79 204l-316 -435q62 -45 142 -45z" />
    <glyph glyph-name="Oslashacute.ss01" horiz-adv-x="823" 
d="M500 900l-66 -145h-45l62 145h49zM638 626q119 -105 119 -276q0 -153 -98.5 -256.5t-246.5 -103.5q-108 0 -194 58l-62 -86l-34 24l63 87q-119 105 -119 277q0 154 99 257t247 103q106 0 191 -57l62 85l36 -25zM158 350q0 -124 80 -204l314 436q-61 44 -140 44
q-108 0 -181 -79.5t-73 -196.5zM412 74q108 0 180.5 79.5t72.5 196.5q0 123 -79 204l-316 -435q62 -45 142 -45z" />
    <glyph glyph-name="Otilde.ss01" horiz-adv-x="823" 
d="M567 856q-3 -41 -26 -69.5t-61 -28.5q-24 0 -44 10t-31 22.5t-26 22.5t-31 10q-43 0 -51 -59h-41q5 42 27.5 70.5t61.5 28.5q31 0 53 -16.5t40 -32.5t38 -16q23 0 36 16.5t16 41.5h39zM412 -10q-148 0 -247 102.5t-99 257.5q0 154 99 257t247 103q147 0 246 -103t99 -257
q0 -153 -98.5 -256.5t-246.5 -103.5zM412 74q108 0 180.5 79.5t72.5 196.5t-72.5 196.5t-180.5 79.5t-181 -79.5t-73 -196.5t73 -196.5t181 -79.5z" />
    <glyph glyph-name="Racute.ss01" horiz-adv-x="623" 
d="M407 900l-66 -145h-45l62 145h49zM584 0h-100l-172 294h-136v-294h-89v700h247q101 0 159.5 -54t58.5 -144q0 -74 -40 -124t-111 -69zM176 621v-248h146q65 0 102.5 34.5t37.5 90.5q0 59 -37.5 91t-102.5 32h-146z" />
    <glyph glyph-name="Rcaron.ss01" horiz-adv-x="623" 
d="M343 768h-49l-103 132h53l73 -94h3l72 94h53zM584 0h-100l-172 294h-136v-294h-89v700h247q101 0 159.5 -54t58.5 -144q0 -74 -40 -124t-111 -69zM176 621v-248h146q65 0 102.5 34.5t37.5 90.5q0 59 -37.5 91t-102.5 32h-146z" />
    <glyph glyph-name="uni0156.ss01" horiz-adv-x="623" 
d="M401 309l183 -309h-100l-172 294h-136v-294h-89v700h247q101 0 159.5 -54t58.5 -144q0 -74 -40 -124t-111 -69zM176 621v-248h146q65 0 102.5 34.5t37.5 90.5q0 59 -37.5 91t-102.5 32h-146zM328 -60q31 0 48 -22t17 -56q0 -94 -104 -153l-21 27q66 48 78 87
q-9 -3 -22 -3q-27 0 -42 18t-15 41q0 28 17 44.5t44 16.5z" />
    <glyph glyph-name="Sacute.ss01" horiz-adv-x="607" 
d="M350 900h49l-66 -145h-45zM537 183q0 -94 -64.5 -143.5t-162.5 -49.5q-110 0 -173.5 55.5t-70.5 154.5h89q8 -63 48 -97t107 -34q59 0 97 28t38 84q0 32 -12.5 55.5t-37 39.5t-44.5 24t-52 18l-35 10q-35 11 -60.5 23t-54.5 33.5t-45 55t-16 76.5q0 88 63 141t160 53
q98 0 159.5 -55.5t66.5 -142.5h-90q-6 53 -40.5 86t-95.5 33q-58 0 -95.5 -31t-37.5 -80q0 -19 5.5 -34.5t18 -27.5t22.5 -20t31 -16t30 -11.5t32 -10.5l31 -10q26 -8 43.5 -15t48 -24.5t49 -37.5t33.5 -54.5t15 -75.5z" />
    <glyph glyph-name="Scaron.ss01" horiz-adv-x="607" 
d="M385 900h53l-102 -132h-49l-103 132h53l73 -94h3zM537 183q0 -94 -64.5 -143.5t-162.5 -49.5q-110 0 -173.5 55.5t-70.5 154.5h89q8 -63 48 -97t107 -34q59 0 97 28t38 84q0 32 -12.5 55.5t-37 39.5t-44.5 24t-52 18l-35 10q-35 11 -60.5 23t-54.5 33.5t-45 55t-16 76.5
q0 88 63 141t160 53q98 0 159.5 -55.5t66.5 -142.5h-90q-6 53 -40.5 86t-95.5 33q-58 0 -95.5 -31t-37.5 -80q0 -19 5.5 -34.5t18 -27.5t22.5 -20t31 -16t30 -11.5t32 -10.5l31 -10q26 -8 43.5 -15t48 -24.5t49 -37.5t33.5 -54.5t15 -75.5z" />
    <glyph glyph-name="Scedilla.ss01" horiz-adv-x="607" 
d="M348 390q26 -8 43.5 -15t48 -24.5t49 -37.5t33.5 -54.5t15 -75.5q0 -90 -59.5 -139.5t-151.5 -53.5l-27 -35q38 3 69 -19t31 -64q0 -38 -25.5 -60t-70.5 -22q-41 0 -66 19l15 30q24 -14 48 -14q27 0 43 13.5t16 36.5q0 50 -63 50q-18 0 -38 -9l-19 17l43 58
q-98 7 -154 62t-62 147h89q8 -63 48 -97t107 -34q59 0 97 28t38 84q0 32 -12.5 55.5t-37 39.5t-44.5 24t-52 18l-35 10q-35 11 -60.5 23t-54.5 33.5t-45 55t-16 76.5q0 88 63 141t160 53q98 0 159.5 -55.5t66.5 -142.5h-90q-6 53 -40.5 86t-95.5 33q-58 0 -95.5 -31
t-37.5 -80q0 -19 5.5 -34.5t18 -27.5t22.5 -20t31 -16t30 -11.5t32 -10.5z" />
    <glyph glyph-name="Scircumflex.ss01" horiz-adv-x="607" 
d="M237 768h-54l102 132h50l103 -132h-54l-73 94h-3zM537 183q0 -94 -64.5 -143.5t-162.5 -49.5q-110 0 -173.5 55.5t-70.5 154.5h89q8 -63 48 -97t107 -34q59 0 97 28t38 84q0 32 -12.5 55.5t-37 39.5t-44.5 24t-52 18l-35 10q-35 11 -60.5 23t-54.5 33.5t-45 55t-16 76.5
q0 88 63 141t160 53q98 0 159.5 -55.5t66.5 -142.5h-90q-6 53 -40.5 86t-95.5 33q-58 0 -95.5 -31t-37.5 -80q0 -19 5.5 -34.5t18 -27.5t22.5 -20t31 -16t30 -11.5t32 -10.5l31 -10q26 -8 43.5 -15t48 -24.5t49 -37.5t33.5 -54.5t15 -75.5z" />
    <glyph glyph-name="uni0218.ss01" horiz-adv-x="607" 
d="M537 183q0 -94 -64.5 -143.5t-162.5 -49.5q-110 0 -173.5 55.5t-70.5 154.5h89q8 -63 48 -97t107 -34q59 0 97 28t38 84q0 32 -12.5 55.5t-37 39.5t-44.5 24t-52 18l-35 10q-35 11 -60.5 23t-54.5 33.5t-45 55t-16 76.5q0 88 63 141t160 53q98 0 159.5 -55.5t66.5 -142.5
h-90q-6 53 -40.5 86t-95.5 33q-58 0 -95.5 -31t-37.5 -80q0 -19 5.5 -34.5t18 -27.5t22.5 -20t31 -16t30 -11.5t32 -10.5l31 -10q26 -8 43.5 -15t48 -24.5t49 -37.5t33.5 -54.5t15 -75.5zM308 -60q31 0 48 -22t17 -56q0 -94 -104 -153l-21 27q66 48 78 87q-9 -3 -22 -3
q-27 0 -42 18t-15 41q0 28 17 44.5t44 16.5z" />
    <glyph glyph-name="Tbar.ss01" horiz-adv-x="575" 
d="M535 618h-202v-253h147v-40h-147v-325h-91v325h-146v40h146v253h-202v82h495v-82z" />
    <glyph glyph-name="Tcaron.ss01" horiz-adv-x="575" 
d="M313 768h-49l-103 132h53l73 -94h3l72 94h53zM535 700v-82h-202v-618h-91v618h-202v82h495z" />
    <glyph glyph-name="uni0162.ss01" horiz-adv-x="575" 
d="M333 0h-23l-34 -45q38 3 69 -19t31 -64q0 -38 -25.5 -60t-70.5 -22q-41 0 -66 19l15 30q25 -14 48 -14q27 0 43 13.5t16 36.5q0 50 -63 50q-18 0 -38 -9l-19 17l50 67h-24v618h-202v82h495v-82h-202v-618z" />
    <glyph glyph-name="uni021A.ss01" horiz-adv-x="575" 
d="M40 700h495v-82h-202v-618h-91v618h-202v82zM285 -60q31 0 48 -22t17 -56q0 -94 -104 -153l-21 27q66 48 78 87q-9 -3 -22 -3q-27 0 -42 18t-15 41q0 28 17 44.5t44 16.5z" />
    <glyph glyph-name="Uacute.ss01" horiz-adv-x="717" 
d="M398 900h49l-66 -145h-45zM630 700v-436q0 -132 -74 -203t-196 -71q-123 0 -198 71t-75 203v436h91v-430q0 -95 50.5 -145.5t131.5 -50.5t130 50.5t49 145.5v430h91z" />
    <glyph glyph-name="Ubreve.ss01" horiz-adv-x="717" 
d="M477 900q0 -46 -30.5 -84.5t-87.5 -38.5t-88.5 38.5t-31.5 84.5h45q0 -38 20.5 -61t54.5 -23q33 0 53 23t20 61h45zM630 700v-436q0 -132 -74 -203t-196 -71q-123 0 -198 71t-75 203v436h91v-430q0 -95 50.5 -145.5t131.5 -50.5t130 50.5t49 145.5v430h91z" />
    <glyph glyph-name="uni01D3.ss01" horiz-adv-x="717" 
d="M433 900h53l-102 -132h-49l-103 132h53l73 -94h3zM630 700v-436q0 -132 -74 -203t-196 -71q-123 0 -198 71t-75 203v436h91v-430q0 -95 50.5 -145.5t131.5 -50.5t130 50.5t49 145.5v430h91z" />
    <glyph glyph-name="Ucircumflex.ss01" horiz-adv-x="717" 
d="M286 768h-54l102 132h50l103 -132h-54l-73 94h-3zM630 700v-436q0 -132 -74 -203t-196 -71q-123 0 -198 71t-75 203v436h91v-430q0 -95 50.5 -145.5t131.5 -50.5t130 50.5t49 145.5v430h91z" />
    <glyph glyph-name="Ugrave.ss01" horiz-adv-x="717" 
d="M320 900l62 -145h-45l-66 145h49zM630 700v-436q0 -132 -74 -203t-196 -71q-123 0 -198 71t-75 203v436h91v-430q0 -95 50.5 -145.5t131.5 -50.5t130 50.5t49 145.5v430h91z" />
    <glyph glyph-name="Uhungarumlaut.ss01" horiz-adv-x="717" 
d="M326 900h49l-62 -145h-44zM462 900h50l-63 -145h-44zM630 700v-436q0 -132 -74 -203t-196 -71q-123 0 -198 71t-75 203v436h91v-430q0 -95 50.5 -145.5t131.5 -50.5t130 50.5t49 145.5v430h91z" />
    <glyph glyph-name="Umacron.ss01" horiz-adv-x="717" 
d="M211 833h297v-39h-297v39zM630 700v-436q0 -132 -74 -203t-196 -71q-123 0 -198 71t-75 203v436h91v-430q0 -95 50.5 -145.5t131.5 -50.5t130 50.5t49 145.5v430h91z" />
    <glyph glyph-name="Uogonek.ss01" horiz-adv-x="717" 
d="M539 700h91v-436q0 -107 -49.5 -174.5t-136.5 -89.5q-75 -28 -75 -82q0 -46 60 -46q23 0 45 6v-38q-19 -7 -46 -7q-45 0 -74.5 20.5t-29.5 63.5q0 46 47 73h-11q-123 0 -198 71t-75 203v436h91v-430q0 -95 50.5 -145.5t131.5 -50.5t130 50.5t49 145.5v430z" />
    <glyph glyph-name="Uring.ss01" horiz-adv-x="717" 
d="M360 750q-37 0 -64.5 26t-27.5 64t27.5 64t64.5 26t63.5 -26t26.5 -64t-26.5 -64t-63.5 -26zM360 786q21 0 36.5 15.5t15.5 38.5t-15.5 38.5t-36.5 15.5q-23 0 -38 -15.5t-15 -38.5t15 -38.5t38 -15.5zM630 700v-436q0 -132 -74 -203t-196 -71q-123 0 -198 71t-75 203
v436h91v-430q0 -95 50.5 -145.5t131.5 -50.5t130 50.5t49 145.5v430h91z" />
    <glyph glyph-name="Utilde.ss01" horiz-adv-x="717" 
d="M514 856q-3 -41 -26 -69.5t-61 -28.5q-24 0 -44 10t-31 22.5t-26 22.5t-31 10q-43 0 -51 -59h-41q5 42 27.5 70.5t61.5 28.5q31 0 53 -16.5t40 -32.5t38 -16q23 0 36 16.5t16 41.5h39zM630 700v-436q0 -132 -74 -203t-196 -71q-123 0 -198 71t-75 203v436h91v-430
q0 -95 50.5 -145.5t131.5 -50.5t130 50.5t49 145.5v430h91z" />
    <glyph glyph-name="uni1E7C.ss01" horiz-adv-x="659" 
d="M485 856q-3 -41 -26 -69.5t-61 -28.5q-24 0 -44 10t-31 22.5t-26 22.5t-31 10q-43 0 -51 -59h-41q5 42 27.5 70.5t61.5 28.5q31 0 53 -16.5t40 -32.5t38 -16q23 0 36 16.5t16 41.5h39zM535 700h97l-247 -700h-112l-247 700h98l202 -581h7z" />
    <glyph glyph-name="Wacute.ss01" horiz-adv-x="895" 
d="M487 900h49l-66 -145h-45zM781 700h87l-156 -700h-105l-156 535h-7l-156 -535h-105l-157 700h89l122 -572h7l153 522h101l152 -522h7z" />
    <glyph glyph-name="Wcircumflex.ss01" horiz-adv-x="895" 
d="M374 768h-54l102 132h50l103 -132h-54l-73 94h-3zM781 700h87l-156 -700h-105l-156 535h-7l-156 -535h-105l-157 700h89l122 -572h7l153 522h101l152 -522h7z" />
    <glyph glyph-name="Wgrave.ss01" horiz-adv-x="895" 
d="M409 900l62 -145h-45l-66 145h49zM781 700h87l-156 -700h-105l-156 535h-7l-156 -535h-105l-157 700h89l122 -572h7l153 522h101l152 -522h7z" />
    <glyph glyph-name="Yacute.ss01" horiz-adv-x="648" 
d="M364 900h49l-66 -145h-45zM512 700h110l-252 -369v-331h-91v331l-253 369h110l185 -270h6z" />
    <glyph glyph-name="Ycircumflex.ss01" horiz-adv-x="648" 
d="M251 768h-54l102 132h50l103 -132h-54l-73 94h-3zM512 700h110l-252 -369v-331h-91v331l-253 369h110l185 -270h6z" />
    <glyph glyph-name="Ygrave.ss01" horiz-adv-x="648" 
d="M285 900l62 -145h-45l-66 145h49zM512 700h110l-252 -369v-331h-91v331l-253 369h110l185 -270h6z" />
    <glyph glyph-name="uni0232.ss01" horiz-adv-x="648" 
d="M176 833h297v-39h-297v39zM512 700h110l-252 -369v-331h-91v331l-253 369h110l185 -270h6z" />
    <glyph glyph-name="uni1EF8.ss01" horiz-adv-x="648" 
d="M479 856q-3 -41 -26 -69.5t-61 -28.5q-24 0 -44 10t-31 22.5t-26 22.5t-31 10q-43 0 -51 -59h-41q5 42 27.5 70.5t61.5 28.5q31 0 53 -16.5t40 -32.5t38 -16q23 0 36 16.5t16 41.5h39zM512 700h110l-252 -369v-331h-91v331l-253 369h110l185 -270h6z" />
    <glyph glyph-name="Zacute.ss01" horiz-adv-x="617" 
d="M355 900h49l-66 -145h-45zM199 82h348v-82h-481v51l352 562v5h-331v82h458v-51l-346 -562v-5z" />
    <glyph glyph-name="Zcaron.ss01" horiz-adv-x="617" 
d="M390 900h53l-102 -132h-49l-103 132h53l73 -94h3zM199 82h348v-82h-481v51l352 562v5h-331v82h458v-51l-346 -562v-5z" />
    <glyph glyph-name="uni1E90.ss01" horiz-adv-x="617" 
d="M242 768h-54l102 132h50l103 -132h-54l-73 94h-3zM199 82h348v-82h-481v51l352 562v5h-331v82h458v-51l-346 -562v-5z" />
    <glyph glyph-name="i.loclTRK" horiz-adv-x="227" 
d="M114 580q-24 0 -41.5 17t-17.5 41t17.5 40.5t41.5 16.5q23 0 40 -16.5t17 -40.5t-17 -41t-40 -17zM70 0v500h87v-500h-87z" />
    <glyph glyph-name="a.fina" horiz-adv-x="529" 
d="M499 61q16 0 37 8v-63q-29 -11 -58 -11q-87 0 -104 71q-56 -76 -167 -76q-74 0 -119.5 36.5t-45.5 106.5q0 68 46.5 106.5t123.5 46.5l149 14v28q0 52 -27 81t-77 29q-90 0 -108 -95h-87q8 74 59.5 120.5t135.5 46.5q87 0 139.5 -48t52.5 -136v-210q0 -55 50 -55z
M361 192v44l-121 -12q-51 -5 -80.5 -27t-29.5 -61t25 -57.5t64 -18.5q57 0 99.5 32.5t42.5 99.5z" />
    <glyph glyph-name="aacute.fina" horiz-adv-x="529" 
d="M365 700l-77 -145h-71l70 145h78zM499 61q16 0 37 8v-63q-29 -11 -58 -11q-87 0 -104 71q-56 -76 -167 -76q-74 0 -119.5 36.5t-45.5 106.5q0 68 46.5 106.5t123.5 46.5l149 14v28q0 52 -27 81t-77 29q-90 0 -108 -95h-87q8 74 59.5 120.5t135.5 46.5q87 0 139.5 -48
t52.5 -136v-210q0 -55 50 -55zM361 192v44l-121 -12q-51 -5 -80.5 -27t-29.5 -61t25 -57.5t64 -18.5q57 0 99.5 32.5t42.5 99.5z" />
    <glyph glyph-name="abreve.fina" horiz-adv-x="529" 
d="M252 571q-58 0 -95.5 39t-37.5 90h70q0 -31 17.5 -51t45.5 -20t44.5 20t16.5 51h70q0 -51 -36.5 -90t-94.5 -39zM499 61q16 0 37 8v-63q-29 -11 -58 -11q-87 0 -104 71q-56 -76 -167 -76q-74 0 -119.5 36.5t-45.5 106.5q0 68 46.5 106.5t123.5 46.5l149 14v28
q0 52 -27 81t-77 29q-90 0 -108 -95h-87q8 74 59.5 120.5t135.5 46.5q87 0 139.5 -48t52.5 -136v-210q0 -55 50 -55zM361 192v44l-121 -12q-51 -5 -80.5 -27t-29.5 -61t25 -57.5t64 -18.5q57 0 99.5 32.5t42.5 99.5z" />
    <glyph glyph-name="uni01CE.fina" horiz-adv-x="529" 
d="M292 559h-78l-102 141h79l60 -86h5l58 86h79zM499 61q16 0 37 8v-63q-29 -11 -58 -11q-87 0 -104 71q-56 -76 -167 -76q-74 0 -119.5 36.5t-45.5 106.5q0 68 46.5 106.5t123.5 46.5l149 14v28q0 52 -27 81t-77 29q-90 0 -108 -95h-87q8 74 59.5 120.5t135.5 46.5
q87 0 139.5 -48t52.5 -136v-210q0 -55 50 -55zM361 192v44l-121 -12q-51 -5 -80.5 -27t-29.5 -61t25 -57.5t64 -18.5q57 0 99.5 32.5t42.5 99.5z" />
    <glyph glyph-name="acircumflex.fina" horiz-adv-x="529" 
d="M249 645l-58 -86h-79l101 141h78l102 -141h-79l-59 86h-6zM499 61q16 0 37 8v-63q-29 -11 -58 -11q-87 0 -104 71q-56 -76 -167 -76q-74 0 -119.5 36.5t-45.5 106.5q0 68 46.5 106.5t123.5 46.5l149 14v28q0 52 -27 81t-77 29q-90 0 -108 -95h-87q8 74 59.5 120.5
t135.5 46.5q87 0 139.5 -48t52.5 -136v-210q0 -55 50 -55zM361 192v44l-121 -12q-51 -5 -80.5 -27t-29.5 -61t25 -57.5t64 -18.5q57 0 99.5 32.5t42.5 99.5z" />
    <glyph glyph-name="adieresis.fina" horiz-adv-x="529" 
d="M162 558q-22 0 -38.5 16t-16.5 39t16 39t39 16t39 -16t16 -39t-16.5 -39t-38.5 -16zM345 558q-22 0 -38 16.5t-16 38.5q0 23 16 39t38 16q23 0 38.5 -16t15.5 -39t-16 -39t-38 -16zM499 61q16 0 37 8v-63q-29 -11 -58 -11q-87 0 -104 71q-56 -76 -167 -76
q-74 0 -119.5 36.5t-45.5 106.5q0 68 46.5 106.5t123.5 46.5l149 14v28q0 52 -27 81t-77 29q-90 0 -108 -95h-87q8 74 59.5 120.5t135.5 46.5q87 0 139.5 -48t52.5 -136v-210q0 -55 50 -55zM361 192v44l-121 -12q-51 -5 -80.5 -27t-29.5 -61t25 -57.5t64 -18.5
q57 0 99.5 32.5t42.5 99.5z" />
    <glyph glyph-name="uni0227.fina" horiz-adv-x="529" 
d="M253 580q-24 0 -41.5 17t-17.5 41t17.5 40.5t41.5 16.5q23 0 40 -16.5t17 -40.5t-17 -41t-40 -17zM499 61q16 0 37 8v-63q-29 -11 -58 -11q-87 0 -104 71q-56 -76 -167 -76q-74 0 -119.5 36.5t-45.5 106.5q0 68 46.5 106.5t123.5 46.5l149 14v28q0 52 -27 81t-77 29
q-90 0 -108 -95h-87q8 74 59.5 120.5t135.5 46.5q87 0 139.5 -48t52.5 -136v-210q0 -55 50 -55zM361 192v44l-121 -12q-51 -5 -80.5 -27t-29.5 -61t25 -57.5t64 -18.5q57 0 99.5 32.5t42.5 99.5z" />
    <glyph glyph-name="uni1EA1.fina" horiz-adv-x="529" 
d="M499 61q16 0 37 8v-63q-29 -11 -58 -11q-87 0 -104 71q-56 -76 -167 -76q-74 0 -119.5 36.5t-45.5 106.5q0 68 46.5 106.5t123.5 46.5l149 14v28q0 52 -27 81t-77 29q-90 0 -108 -95h-87q8 74 59.5 120.5t135.5 46.5q87 0 139.5 -48t52.5 -136v-210q0 -55 50 -55z
M361 192v44l-121 -12q-51 -5 -80.5 -27t-29.5 -61t25 -57.5t64 -18.5q57 0 99.5 32.5t42.5 99.5zM264 -80q23 0 40 -16.5t17 -40.5t-17 -41t-40 -17q-24 0 -41.5 17t-17.5 41t17.5 40.5t41.5 16.5z" />
    <glyph glyph-name="agrave.fina" horiz-adv-x="529" 
d="M288 555h-70l-77 145h78zM499 61q16 0 37 8v-63q-29 -11 -58 -11q-87 0 -104 71q-56 -76 -167 -76q-74 0 -119.5 36.5t-45.5 106.5q0 68 46.5 106.5t123.5 46.5l149 14v28q0 52 -27 81t-77 29q-90 0 -108 -95h-87q8 74 59.5 120.5t135.5 46.5q87 0 139.5 -48t52.5 -136
v-210q0 -55 50 -55zM361 192v44l-121 -12q-51 -5 -80.5 -27t-29.5 -61t25 -57.5t64 -18.5q57 0 99.5 32.5t42.5 99.5z" />
    <glyph glyph-name="amacron.fina" horiz-adv-x="529" 
d="M404 645v-64h-301v64h301zM499 61q16 0 37 8v-63q-29 -11 -58 -11q-87 0 -104 71q-56 -76 -167 -76q-74 0 -119.5 36.5t-45.5 106.5q0 68 46.5 106.5t123.5 46.5l149 14v28q0 52 -27 81t-77 29q-90 0 -108 -95h-87q8 74 59.5 120.5t135.5 46.5q87 0 139.5 -48t52.5 -136
v-210q0 -55 50 -55zM361 192v44l-121 -12q-51 -5 -80.5 -27t-29.5 -61t25 -57.5t64 -18.5q57 0 99.5 32.5t42.5 99.5z" />
    <glyph glyph-name="aring.fina" horiz-adv-x="529" 
d="M253 541q-39 0 -67.5 28.5t-28.5 66.5q0 39 28.5 67t67.5 28t67.5 -28t28.5 -67q0 -38 -28.5 -66.5t-67.5 -28.5zM254 679q-18 0 -30.5 -12.5t-12.5 -30.5t12.5 -31t30.5 -13q17 0 29 13t12 31q0 17 -12.5 30t-28.5 13zM499 61q16 0 37 8v-63q-29 -11 -58 -11
q-87 0 -104 71q-56 -76 -167 -76q-74 0 -119.5 36.5t-45.5 106.5q0 68 46.5 106.5t123.5 46.5l149 14v28q0 52 -27 81t-77 29q-90 0 -108 -95h-87q8 74 59.5 120.5t135.5 46.5q87 0 139.5 -48t52.5 -136v-210q0 -55 50 -55zM361 192v44l-121 -12q-51 -5 -80.5 -27t-29.5 -61
t25 -57.5t64 -18.5q57 0 99.5 32.5t42.5 99.5z" />
    <glyph glyph-name="atilde.fina" horiz-adv-x="529" 
d="M189 612q-40 0 -46 -55h-63q5 52 30.5 85.5t70.5 33.5q26 0 47 -10t32 -22t25.5 -22t29.5 -10q41 0 47 55h62q-3 -49 -29 -83.5t-71 -34.5q-25 0 -46 10t-32.5 21.5t-26.5 21.5t-30 10zM499 61q16 0 37 8v-63q-29 -11 -58 -11q-87 0 -104 71q-56 -76 -167 -76
q-74 0 -119.5 36.5t-45.5 106.5q0 68 46.5 106.5t123.5 46.5l149 14v28q0 52 -27 81t-77 29q-90 0 -108 -95h-87q8 74 59.5 120.5t135.5 46.5q87 0 139.5 -48t52.5 -136v-210q0 -55 50 -55zM361 192v44l-121 -12q-51 -5 -80.5 -27t-29.5 -61t25 -57.5t64 -18.5
q57 0 99.5 32.5t42.5 99.5z" />
    <glyph glyph-name="aacute.ss01" horiz-adv-x="529" 
d="M341 700l-66 -145h-45l62 145h49zM488 68h13v-68h-40q-74 0 -89 64q-58 -74 -165 -74q-74 0 -119.5 36.5t-45.5 106.5q0 68 46.5 106.5t123.5 46.5l149 14v28q0 52 -27 81t-77 29q-90 0 -108 -95h-87q8 74 59.5 120.5t135.5 46.5q87 0 139.5 -48t52.5 -136v-217
q0 -41 39 -41zM361 192v44l-121 -12q-51 -5 -80.5 -27t-29.5 -61t25 -57.5t64 -18.5q57 0 99.5 32.5t42.5 99.5z" />
    <glyph glyph-name="abreve.ss01" horiz-adv-x="529" 
d="M252 577q-57 0 -88.5 38.5t-31.5 84.5h45q0 -38 20.5 -61t54.5 -23q33 0 53 23t20 61h45q0 -46 -30.5 -84.5t-87.5 -38.5zM488 68h13v-68h-40q-74 0 -89 64q-58 -74 -165 -74q-74 0 -119.5 36.5t-45.5 106.5q0 68 46.5 106.5t123.5 46.5l149 14v28q0 52 -27 81t-77 29
q-90 0 -108 -95h-87q8 74 59.5 120.5t135.5 46.5q87 0 139.5 -48t52.5 -136v-217q0 -41 39 -41zM361 192v44l-121 -12q-51 -5 -80.5 -27t-29.5 -61t25 -57.5t64 -18.5q57 0 99.5 32.5t42.5 99.5z" />
    <glyph glyph-name="uni01CE.ss01" horiz-adv-x="529" 
d="M278 568h-49l-103 132h53l73 -94h3l72 94h53zM488 68h13v-68h-40q-74 0 -89 64q-58 -74 -165 -74q-74 0 -119.5 36.5t-45.5 106.5q0 68 46.5 106.5t123.5 46.5l149 14v28q0 52 -27 81t-77 29q-90 0 -108 -95h-87q8 74 59.5 120.5t135.5 46.5q87 0 139.5 -48t52.5 -136
v-217q0 -41 39 -41zM361 192v44l-121 -12q-51 -5 -80.5 -27t-29.5 -61t25 -57.5t64 -18.5q57 0 99.5 32.5t42.5 99.5z" />
    <glyph glyph-name="acircumflex.ss01" horiz-adv-x="529" 
d="M250 662l-71 -94h-54l102 132h50l103 -132h-54l-73 94h-3zM488 68h13v-68h-40q-74 0 -89 64q-58 -74 -165 -74q-74 0 -119.5 36.5t-45.5 106.5q0 68 46.5 106.5t123.5 46.5l149 14v28q0 52 -27 81t-77 29q-90 0 -108 -95h-87q8 74 59.5 120.5t135.5 46.5q87 0 139.5 -48
t52.5 -136v-217q0 -41 39 -41zM361 192v44l-121 -12q-51 -5 -80.5 -27t-29.5 -61t25 -57.5t64 -18.5q57 0 99.5 32.5t42.5 99.5z" />
    <glyph glyph-name="agrave.ss01" horiz-adv-x="529" 
d="M275 555h-45l-66 145h49zM488 68h13v-68h-40q-74 0 -89 64q-58 -74 -165 -74q-74 0 -119.5 36.5t-45.5 106.5q0 68 46.5 106.5t123.5 46.5l149 14v28q0 52 -27 81t-77 29q-90 0 -108 -95h-87q8 74 59.5 120.5t135.5 46.5q87 0 139.5 -48t52.5 -136v-217q0 -41 39 -41z
M361 192v44l-121 -12q-51 -5 -80.5 -27t-29.5 -61t25 -57.5t64 -18.5q57 0 99.5 32.5t42.5 99.5z" />
    <glyph glyph-name="amacron.ss01" horiz-adv-x="529" 
d="M402 633v-39h-297v39h297zM488 68h13v-68h-40q-74 0 -89 64q-58 -74 -165 -74q-74 0 -119.5 36.5t-45.5 106.5q0 68 46.5 106.5t123.5 46.5l149 14v28q0 52 -27 81t-77 29q-90 0 -108 -95h-87q8 74 59.5 120.5t135.5 46.5q87 0 139.5 -48t52.5 -136v-217q0 -41 39 -41z
M361 192v44l-121 -12q-51 -5 -80.5 -27t-29.5 -61t25 -57.5t64 -18.5q57 0 99.5 32.5t42.5 99.5z" />
    <glyph glyph-name="aogonek.ss01" horiz-adv-x="529" 
d="M487 -128q23 0 45 6v-38q-19 -7 -46 -7q-45 0 -74.5 20.5t-29.5 63.5q0 52 67 83q-63 5 -77 64q-58 -74 -165 -74q-74 0 -119.5 36.5t-45.5 106.5q0 68 46.5 106.5t123.5 46.5l149 14v28q0 52 -27 81t-77 29q-90 0 -108 -95h-87q8 74 59.5 120.5t135.5 46.5
q87 0 139.5 -48t52.5 -136v-217q0 -41 39 -41h13v-67l1 -1q-75 -28 -75 -82q0 -46 60 -46zM361 192v44l-121 -12q-51 -5 -80.5 -27t-29.5 -61t25 -57.5t64 -18.5q57 0 99.5 32.5t42.5 99.5z" />
    <glyph glyph-name="aring.ss01" horiz-adv-x="529" 
d="M254 550q-37 0 -64.5 26t-27.5 64t27.5 64t64.5 26t63.5 -26t26.5 -64t-26.5 -64t-63.5 -26zM254 694q-23 0 -38 -15.5t-15 -38.5t15 -38.5t38 -15.5q21 0 36.5 15.5t15.5 38.5t-15.5 38.5t-36.5 15.5zM488 68h13v-68h-40q-74 0 -89 64q-58 -74 -165 -74
q-74 0 -119.5 36.5t-45.5 106.5q0 68 46.5 106.5t123.5 46.5l149 14v28q0 52 -27 81t-77 29q-90 0 -108 -95h-87q8 74 59.5 120.5t135.5 46.5q87 0 139.5 -48t52.5 -136v-217q0 -41 39 -41zM361 192v44l-121 -12q-51 -5 -80.5 -27t-29.5 -61t25 -57.5t64 -18.5
q57 0 99.5 32.5t42.5 99.5z" />
    <glyph glyph-name="atilde.ss01" horiz-adv-x="529" 
d="M189 623q-43 0 -51 -59h-41q5 42 27.5 70.5t61.5 28.5q31 0 53 -16.5t40 -32.5t38 -16q23 0 36 16.5t16 41.5h39q-3 -41 -26 -69.5t-61 -28.5q-24 0 -44 10t-31 22.5t-26 22.5t-31 10zM488 68h13v-68h-40q-74 0 -89 64q-58 -74 -165 -74q-74 0 -119.5 36.5t-45.5 106.5
q0 68 46.5 106.5t123.5 46.5l149 14v28q0 52 -27 81t-77 29q-90 0 -108 -95h-87q8 74 59.5 120.5t135.5 46.5q87 0 139.5 -48t52.5 -136v-217q0 -41 39 -41zM361 192v44l-121 -12q-51 -5 -80.5 -27t-29.5 -61t25 -57.5t64 -18.5q57 0 99.5 32.5t42.5 99.5z" />
    <glyph glyph-name="aeacute.ss01" horiz-adv-x="720" 
d="M437 700l-66 -145h-45l62 145h49zM666 261q0 -21 -1 -34h-272q3 -168 99 -168q34 0 60.5 20t31.5 66h81q-8 -79 -55.5 -117t-116.5 -38q-103 0 -144 80q-39 -80 -155 -80q-70 0 -111 35t-41 102q0 84 59.5 124.5t159.5 40.5h44v49q0 98 -82 98q-86 0 -91 -85l-84 2
q4 73 50 113.5t122 40.5q95 0 137 -73q44 73 136 73q76 0 124.5 -58t48.5 -191zM492 441q-43 0 -69.5 -36.5t-29.5 -112.5h191q0 79 -25.5 114t-66.5 35zM206 59q40 0 69.5 24.5t29.5 79.5v64h-39q-141 0 -141 -93q0 -37 22 -56t59 -19z" />
    <glyph glyph-name="uni01E3.ss01" horiz-adv-x="720" 
d="M497 633v-39h-297v39h297zM666 261q0 -21 -1 -34h-272q3 -168 99 -168q34 0 60.5 20t31.5 66h81q-8 -79 -55.5 -117t-116.5 -38q-103 0 -144 80q-39 -80 -155 -80q-70 0 -111 35t-41 102q0 84 59.5 124.5t159.5 40.5h44v49q0 98 -82 98q-86 0 -91 -85l-84 2
q4 73 50 113.5t122 40.5q95 0 137 -73q44 73 136 73q76 0 124.5 -58t48.5 -191zM492 441q-43 0 -69.5 -36.5t-29.5 -112.5h191q0 79 -25.5 114t-66.5 35zM206 59q40 0 69.5 24.5t29.5 79.5v64h-39q-141 0 -141 -93q0 -37 22 -56t59 -19z" />
    <glyph glyph-name="cacute.ss01" horiz-adv-x="570" 
d="M338 700h49l-66 -145h-45zM301 -10q-112 0 -180.5 73t-68.5 184q0 114 70 188.5t178 74.5q86 0 149.5 -47.5t76.5 -131.5h-88q-10 44 -47 73t-91 29q-70 0 -115 -53t-45 -133q0 -78 44 -129t117 -51q108 0 139 96h88q-14 -79 -75.5 -126t-151.5 -47z" />
    <glyph glyph-name="ccaron.ss01" horiz-adv-x="570" 
d="M373 700h53l-102 -132h-49l-103 132h53l73 -94h3zM301 -10q-112 0 -180.5 73t-68.5 184q0 114 70 188.5t178 74.5q86 0 149.5 -47.5t76.5 -131.5h-88q-10 44 -47 73t-91 29q-70 0 -115 -53t-45 -133q0 -78 44 -129t117 -51q108 0 139 96h88q-14 -79 -75.5 -126
t-151.5 -47z" />
    <glyph glyph-name="ccedilla.ss01" horiz-adv-x="570" 
d="M528 163q-13 -76 -71 -122.5t-143 -50.5l-27 -35q38 3 69 -19t31 -64q0 -38 -25.5 -60t-70.5 -22q-41 0 -66 19l15 30q24 -14 48 -14q27 0 43 13.5t16 36.5q0 50 -63 50q-18 0 -38 -9l-19 17l43 59q-99 10 -158.5 81t-59.5 174q0 114 70 188.5t178 74.5q86 0 149.5 -47.5
t76.5 -131.5h-88q-10 44 -47 73t-91 29q-70 0 -115 -53t-45 -133q0 -78 44 -129t117 -51q108 0 139 96h88z" />
    <glyph glyph-name="ccircumflex.ss01" horiz-adv-x="570" 
d="M225 568h-54l102 132h50l103 -132h-54l-73 94h-3zM301 -10q-112 0 -180.5 73t-68.5 184q0 114 70 188.5t178 74.5q86 0 149.5 -47.5t76.5 -131.5h-88q-10 44 -47 73t-91 29q-70 0 -115 -53t-45 -133q0 -78 44 -129t117 -51q108 0 139 96h88q-14 -79 -75.5 -126
t-151.5 -47z" />
    <glyph glyph-name="eth.ss01" horiz-adv-x="596" 
d="M403 589q127 -149 127 -328q0 -126 -65 -198.5t-177 -72.5q-98 0 -167 65t-69 168t64 166.5t163 63.5q48 0 88 -19t61 -47h7q-28 94 -103 179l-156 -50l-13 36l140 45q-47 49 -123 103h102q54 -39 93 -80l95 31l13 -36zM290 64q68 0 111 47t43 116q0 67 -45 109.5
t-113 42.5q-69 0 -111 -44t-42 -113t45 -113.5t112 -44.5z" />
    <glyph glyph-name="dcaron.ss01" horiz-adv-x="600" 
d="M443 434v276h87v-710h-72l-8 71h-6q-58 -81 -161 -81q-101 0 -165.5 72.5t-64.5 188.5q0 117 64.5 188t165.5 71q106 0 160 -76zM692 710q29 0 45 -22t16 -56q0 -97 -98 -157l-20 25q61 48 74 92q-9 -2 -20 -2q-26 0 -40.5 18t-14.5 42q0 27 16.5 43.5t41.5 16.5zM294 67
q67 0 108 50.5t41 133.5q0 81 -41 131.5t-108 50.5q-68 0 -111 -50.5t-43 -131.5q0 -82 43 -133t111 -51z" />
    <glyph glyph-name="dcroat.ss01" horiz-adv-x="600" 
d="M633 621v-40h-103v-581h-72l-8 71h-6q-58 -81 -161 -81q-101 0 -165.5 72.5t-64.5 188.5q0 117 64.5 188t165.5 71q106 0 160 -76v147h-118v40h118v89h87v-89h103zM294 67q67 0 108 50.5t41 133.5q0 81 -41 131.5t-108 50.5q-68 0 -111 -50.5t-43 -131.5q0 -82 43 -133
t111 -51z" />
    <glyph glyph-name="eacute.ss01" horiz-adv-x="568" 
d="M379 700l-66 -145h-45l62 145h49zM514 260q0 -7 -2 -31h-373q4 -75 45.5 -121t110.5 -46q49 0 83.5 21.5t47.5 62.5h85q-16 -74 -74 -115t-142 -41q-107 0 -175 70t-68 185q0 119 68 192t171 73q96 0 159.5 -65t63.5 -185zM291 438q-61 0 -102.5 -41.5t-48.5 -103.5h289
q-1 65 -39 105t-99 40z" />
    <glyph glyph-name="ebreve.ss01" horiz-adv-x="568" 
d="M290 577q-57 0 -88.5 38.5t-31.5 84.5h45q0 -38 20.5 -61t54.5 -23q33 0 53 23t20 61h45q0 -46 -30.5 -84.5t-87.5 -38.5zM514 260q0 -7 -2 -31h-373q4 -75 45.5 -121t110.5 -46q49 0 83.5 21.5t47.5 62.5h85q-16 -74 -74 -115t-142 -41q-107 0 -175 70t-68 185
q0 119 68 192t171 73q96 0 159.5 -65t63.5 -185zM291 438q-61 0 -102.5 -41.5t-48.5 -103.5h289q-1 65 -39 105t-99 40z" />
    <glyph glyph-name="ecaron.ss01" horiz-adv-x="568" 
d="M316 568h-49l-103 132h53l73 -94h3l72 94h53zM514 260q0 -7 -2 -31h-373q4 -75 45.5 -121t110.5 -46q49 0 83.5 21.5t47.5 62.5h85q-16 -74 -74 -115t-142 -41q-107 0 -175 70t-68 185q0 119 68 192t171 73q96 0 159.5 -65t63.5 -185zM291 438q-61 0 -102.5 -41.5
t-48.5 -103.5h289q-1 65 -39 105t-99 40z" />
    <glyph glyph-name="uni0229.ss01" horiz-adv-x="568" 
d="M514 260q0 -7 -2 -31h-373q4 -75 45.5 -121t110.5 -46q49 0 83.5 21.5t47.5 62.5h85q-16 -71 -70.5 -112t-134.5 -44l-27 -35q38 3 69 -19t31 -64q0 -38 -25.5 -60t-70.5 -22q-41 0 -66 19l15 30q24 -14 48 -14q27 0 43 13.5t16 36.5q0 50 -63 50q-18 0 -38 -9l-19 17
l44 59q-95 11 -153 79.5t-58 173.5q0 119 68 192t171 73q96 0 159.5 -65t63.5 -185zM291 438q-61 0 -102.5 -41.5t-48.5 -103.5h289q-1 65 -39 105t-99 40z" />
    <glyph glyph-name="ecircumflex.ss01" horiz-adv-x="568" 
d="M288 662l-71 -94h-54l102 132h50l103 -132h-54l-73 94h-3zM514 260q0 -7 -2 -31h-373q4 -75 45.5 -121t110.5 -46q49 0 83.5 21.5t47.5 62.5h85q-16 -74 -74 -115t-142 -41q-107 0 -175 70t-68 185q0 119 68 192t171 73q96 0 159.5 -65t63.5 -185zM291 438
q-61 0 -102.5 -41.5t-48.5 -103.5h289q-1 65 -39 105t-99 40z" />
    <glyph glyph-name="egrave.ss01" horiz-adv-x="568" 
d="M313 555h-45l-66 145h49zM514 260q0 -7 -2 -31h-373q4 -75 45.5 -121t110.5 -46q49 0 83.5 21.5t47.5 62.5h85q-16 -74 -74 -115t-142 -41q-107 0 -175 70t-68 185q0 119 68 192t171 73q96 0 159.5 -65t63.5 -185zM291 438q-61 0 -102.5 -41.5t-48.5 -103.5h289
q-1 65 -39 105t-99 40z" />
    <glyph glyph-name="emacron.ss01" horiz-adv-x="568" 
d="M440 633v-39h-297v39h297zM514 260q0 -7 -2 -31h-373q4 -75 45.5 -121t110.5 -46q49 0 83.5 21.5t47.5 62.5h85q-16 -74 -74 -115t-142 -41q-107 0 -175 70t-68 185q0 119 68 192t171 73q96 0 159.5 -65t63.5 -185zM291 438q-61 0 -102.5 -41.5t-48.5 -103.5h289
q-1 65 -39 105t-99 40z" />
    <glyph glyph-name="eogonek.ss01" horiz-adv-x="568" 
d="M514 260q0 -7 -2 -31h-373q4 -75 45.5 -121t110.5 -46q49 0 83.5 21.5t47.5 62.5h85q-13 -57 -51 -95.5t-95 -52.5q-71 -27 -71 -80q0 -46 60 -46q22 0 45 6v-38q-19 -7 -46 -7q-45 0 -74.5 20.5t-29.5 63.5q0 44 47 73h-1q-107 0 -175 70t-68 185q0 119 68 192t171 73
q96 0 159.5 -65t63.5 -185zM291 438q-61 0 -102.5 -41.5t-48.5 -103.5h289q-1 65 -39 105t-99 40z" />
    <glyph glyph-name="uni1EBD.ss01" horiz-adv-x="568" 
d="M227 623q-43 0 -51 -59h-41q5 42 27.5 70.5t61.5 28.5q31 0 53 -16.5t40 -32.5t38 -16q23 0 36 16.5t16 41.5h39q-3 -41 -26 -69.5t-61 -28.5q-24 0 -44 10t-31 22.5t-26 22.5t-31 10zM514 260q0 -7 -2 -31h-373q4 -75 45.5 -121t110.5 -46q49 0 83.5 21.5t47.5 62.5h85
q-16 -74 -74 -115t-142 -41q-107 0 -175 70t-68 185q0 119 68 192t171 73q96 0 159.5 -65t63.5 -185zM291 438q-61 0 -102.5 -41.5t-48.5 -103.5h289q-1 65 -39 105t-99 40z" />
    <glyph glyph-name="aacute.fina.ss01" horiz-adv-x="529" 
d="M341 700l-66 -145h-45l62 145h49zM499 61q16 0 37 8v-63q-29 -11 -58 -11q-87 0 -104 71q-56 -76 -167 -76q-74 0 -119.5 36.5t-45.5 106.5q0 68 46.5 106.5t123.5 46.5l149 14v28q0 52 -27 81t-77 29q-90 0 -108 -95h-87q8 74 59.5 120.5t135.5 46.5q87 0 139.5 -48
t52.5 -136v-210q0 -55 50 -55zM361 192v44l-121 -12q-51 -5 -80.5 -27t-29.5 -61t25 -57.5t64 -18.5q57 0 99.5 32.5t42.5 99.5z" />
    <glyph glyph-name="abreve.fina.ss01" horiz-adv-x="529" 
d="M252 577q-57 0 -88.5 38.5t-31.5 84.5h45q0 -38 20.5 -61t54.5 -23q33 0 53 23t20 61h45q0 -46 -30.5 -84.5t-87.5 -38.5zM499 61q16 0 37 8v-63q-29 -11 -58 -11q-87 0 -104 71q-56 -76 -167 -76q-74 0 -119.5 36.5t-45.5 106.5q0 68 46.5 106.5t123.5 46.5l149 14v28
q0 52 -27 81t-77 29q-90 0 -108 -95h-87q8 74 59.5 120.5t135.5 46.5q87 0 139.5 -48t52.5 -136v-210q0 -55 50 -55zM361 192v44l-121 -12q-51 -5 -80.5 -27t-29.5 -61t25 -57.5t64 -18.5q57 0 99.5 32.5t42.5 99.5z" />
    <glyph glyph-name="uni01CE.fina.ss01" horiz-adv-x="529" 
d="M278 568h-49l-103 132h53l73 -94h3l72 94h53zM499 61q16 0 37 8v-63q-29 -11 -58 -11q-87 0 -104 71q-56 -76 -167 -76q-74 0 -119.5 36.5t-45.5 106.5q0 68 46.5 106.5t123.5 46.5l149 14v28q0 52 -27 81t-77 29q-90 0 -108 -95h-87q8 74 59.5 120.5t135.5 46.5
q87 0 139.5 -48t52.5 -136v-210q0 -55 50 -55zM361 192v44l-121 -12q-51 -5 -80.5 -27t-29.5 -61t25 -57.5t64 -18.5q57 0 99.5 32.5t42.5 99.5z" />
    <glyph glyph-name="acircumflex.fina.ss01" horiz-adv-x="529" 
d="M250 662l-71 -94h-54l102 132h50l103 -132h-54l-73 94h-3zM499 61q16 0 37 8v-63q-29 -11 -58 -11q-87 0 -104 71q-56 -76 -167 -76q-74 0 -119.5 36.5t-45.5 106.5q0 68 46.5 106.5t123.5 46.5l149 14v28q0 52 -27 81t-77 29q-90 0 -108 -95h-87q8 74 59.5 120.5
t135.5 46.5q87 0 139.5 -48t52.5 -136v-210q0 -55 50 -55zM361 192v44l-121 -12q-51 -5 -80.5 -27t-29.5 -61t25 -57.5t64 -18.5q57 0 99.5 32.5t42.5 99.5z" />
    <glyph glyph-name="agrave.fina.ss01" horiz-adv-x="529" 
d="M275 555h-45l-66 145h49zM499 61q16 0 37 8v-63q-29 -11 -58 -11q-87 0 -104 71q-56 -76 -167 -76q-74 0 -119.5 36.5t-45.5 106.5q0 68 46.5 106.5t123.5 46.5l149 14v28q0 52 -27 81t-77 29q-90 0 -108 -95h-87q8 74 59.5 120.5t135.5 46.5q87 0 139.5 -48t52.5 -136
v-210q0 -55 50 -55zM361 192v44l-121 -12q-51 -5 -80.5 -27t-29.5 -61t25 -57.5t64 -18.5q57 0 99.5 32.5t42.5 99.5z" />
    <glyph glyph-name="amacron.fina.ss01" horiz-adv-x="529" 
d="M402 633v-39h-297v39h297zM499 61q16 0 37 8v-63q-29 -11 -58 -11q-87 0 -104 71q-56 -76 -167 -76q-74 0 -119.5 36.5t-45.5 106.5q0 68 46.5 106.5t123.5 46.5l149 14v28q0 52 -27 81t-77 29q-90 0 -108 -95h-87q8 74 59.5 120.5t135.5 46.5q87 0 139.5 -48t52.5 -136
v-210q0 -55 50 -55zM361 192v44l-121 -12q-51 -5 -80.5 -27t-29.5 -61t25 -57.5t64 -18.5q57 0 99.5 32.5t42.5 99.5z" />
    <glyph glyph-name="aring.fina.ss01" horiz-adv-x="529" 
d="M254 550q-37 0 -64.5 26t-27.5 64t27.5 64t64.5 26t63.5 -26t26.5 -64t-26.5 -64t-63.5 -26zM254 694q-23 0 -38 -15.5t-15 -38.5t15 -38.5t38 -15.5q21 0 36.5 15.5t15.5 38.5t-15.5 38.5t-36.5 15.5zM499 61q16 0 37 8v-63q-29 -11 -58 -11q-87 0 -104 71
q-56 -76 -167 -76q-74 0 -119.5 36.5t-45.5 106.5q0 68 46.5 106.5t123.5 46.5l149 14v28q0 52 -27 81t-77 29q-90 0 -108 -95h-87q8 74 59.5 120.5t135.5 46.5q87 0 139.5 -48t52.5 -136v-210q0 -55 50 -55zM361 192v44l-121 -12q-51 -5 -80.5 -27t-29.5 -61t25 -57.5
t64 -18.5q57 0 99.5 32.5t42.5 99.5z" />
    <glyph glyph-name="atilde.fina.ss01" horiz-adv-x="529" 
d="M189 623q-43 0 -51 -59h-41q5 42 27.5 70.5t61.5 28.5q31 0 53 -16.5t40 -32.5t38 -16q23 0 36 16.5t16 41.5h39q-3 -41 -26 -69.5t-61 -28.5q-24 0 -44 10t-31 22.5t-26 22.5t-31 10zM499 61q16 0 37 8v-63q-29 -11 -58 -11q-87 0 -104 71q-56 -76 -167 -76
q-74 0 -119.5 36.5t-45.5 106.5q0 68 46.5 106.5t123.5 46.5l149 14v28q0 52 -27 81t-77 29q-90 0 -108 -95h-87q8 74 59.5 120.5t135.5 46.5q87 0 139.5 -48t52.5 -136v-210q0 -55 50 -55zM361 192v44l-121 -12q-51 -5 -80.5 -27t-29.5 -61t25 -57.5t64 -18.5
q57 0 99.5 32.5t42.5 99.5z" />
    <glyph glyph-name="uni01F5.ss01" horiz-adv-x="536" 
d="M361 700l-66 -145h-45l62 145h49zM515 496q-34 -35 -84 -60q31 -43 31 -98q0 -77 -53 -123.5t-135 -46.5q-48 0 -90 17q-33 -17 -33 -45q0 -46 72 -46h98q83 0 128.5 -37t45.5 -104q0 -78 -59.5 -120.5t-157.5 -42.5q-104 0 -161 48t-65 123l84 71q-30 11 -47.5 35
t-17.5 56q0 59 64 93q-52 47 -52 122t52 123.5t136 48.5q66 0 114 -31q46 23 81 69zM274 235q47 0 75.5 29.5t28.5 73.5q0 47 -28 76t-76 29t-77.5 -29t-29.5 -76q0 -44 30 -73.5t77 -29.5zM411 -51q0 39 -30 56.5t-69 17.5h-88l-85 -71q24 -93 139 -93q56 0 94.5 23
t38.5 67z" />
    <glyph glyph-name="gbreve.ss01" horiz-adv-x="536" 
d="M273 577q-57 0 -88.5 38.5t-31.5 84.5h45q0 -38 20.5 -61t54.5 -23q33 0 53 23t20 61h45q0 -46 -30.5 -84.5t-87.5 -38.5zM515 496q-34 -35 -84 -60q31 -43 31 -98q0 -77 -53 -123.5t-135 -46.5q-48 0 -90 17q-33 -17 -33 -45q0 -46 72 -46h98q83 0 128.5 -37t45.5 -104
q0 -78 -59.5 -120.5t-157.5 -42.5q-104 0 -161 48t-65 123l84 71q-30 11 -47.5 35t-17.5 56q0 59 64 93q-52 47 -52 122t52 123.5t136 48.5q66 0 114 -31q46 23 81 69zM274 235q47 0 75.5 29.5t28.5 73.5q0 47 -28 76t-76 29t-77.5 -29t-29.5 -76q0 -44 30 -73.5t77 -29.5z
M411 -51q0 39 -30 56.5t-69 17.5h-88l-85 -71q24 -93 139 -93q56 0 94.5 23t38.5 67z" />
    <glyph glyph-name="gcaron.ss01" horiz-adv-x="536" 
d="M298 568h-49l-103 132h53l73 -94h3l72 94h53zM515 496q-34 -35 -84 -60q31 -43 31 -98q0 -77 -53 -123.5t-135 -46.5q-48 0 -90 17q-33 -17 -33 -45q0 -46 72 -46h98q83 0 128.5 -37t45.5 -104q0 -78 -59.5 -120.5t-157.5 -42.5q-104 0 -161 48t-65 123l84 71
q-30 11 -47.5 35t-17.5 56q0 59 64 93q-52 47 -52 122t52 123.5t136 48.5q66 0 114 -31q46 23 81 69zM274 235q47 0 75.5 29.5t28.5 73.5q0 47 -28 76t-76 29t-77.5 -29t-29.5 -76q0 -44 30 -73.5t77 -29.5zM411 -51q0 39 -30 56.5t-69 17.5h-88l-85 -71q24 -93 139 -93
q56 0 94.5 23t38.5 67z" />
    <glyph glyph-name="gcircumflex.ss01" horiz-adv-x="536" 
d="M270 662l-71 -94h-54l102 132h50l103 -132h-54l-73 94h-3zM515 496q-34 -35 -84 -60q31 -43 31 -98q0 -77 -53 -123.5t-135 -46.5q-48 0 -90 17q-33 -17 -33 -45q0 -46 72 -46h98q83 0 128.5 -37t45.5 -104q0 -78 -59.5 -120.5t-157.5 -42.5q-104 0 -161 48t-65 123
l84 71q-30 11 -47.5 35t-17.5 56q0 59 64 93q-52 47 -52 122t52 123.5t136 48.5q66 0 114 -31q46 23 81 69zM274 235q47 0 75.5 29.5t28.5 73.5q0 47 -28 76t-76 29t-77.5 -29t-29.5 -76q0 -44 30 -73.5t77 -29.5zM411 -51q0 39 -30 56.5t-69 17.5h-88l-85 -71
q24 -93 139 -93q56 0 94.5 23t38.5 67z" />
    <glyph glyph-name="uni0123.ss01" horiz-adv-x="536" 
d="M274 560q-30 0 -47 21t-17 55q0 91 104 152l21 -28q-22 -15 -34 -25t-25.5 -26.5t-18.5 -33.5q9 3 21 3q27 0 42.5 -17.5t15.5 -40.5q0 -27 -17.5 -43.5t-44.5 -16.5zM515 496q-34 -35 -84 -60q31 -43 31 -98q0 -77 -53 -123.5t-135 -46.5q-48 0 -90 17q-33 -17 -33 -45
q0 -46 72 -46h98q83 0 128.5 -37t45.5 -104q0 -78 -59.5 -120.5t-157.5 -42.5q-104 0 -161 48t-65 123l84 71q-30 11 -47.5 35t-17.5 56q0 59 64 93q-52 47 -52 122t52 123.5t136 48.5q66 0 114 -31q46 23 81 69zM274 235q47 0 75.5 29.5t28.5 73.5q0 47 -28 76t-76 29
t-77.5 -29t-29.5 -76q0 -44 30 -73.5t77 -29.5zM411 -51q0 39 -30 56.5t-69 17.5h-88l-85 -71q24 -93 139 -93q56 0 94.5 23t38.5 67z" />
    <glyph glyph-name="hbar.ss01" horiz-adv-x="561" 
d="M309 510q82 0 132 -51t50 -145v-314h-87v295q0 69 -32.5 103.5t-84.5 34.5q-55 0 -92.5 -37.5t-37.5 -110.5v-285h-87v580h-101v40h101v90h87v-90h120v-40h-120v-140h7q51 70 145 70z" />
    <glyph glyph-name="uni1E29.ss01" horiz-adv-x="561" 
d="M309 510q82 0 132 -51t50 -145v-314h-87v295q0 69 -32.5 103.5t-84.5 34.5q-55 0 -92.5 -37.5t-37.5 -110.5v-285h-20l-34 -45q38 3 69 -19t31 -64q0 -38 -25.5 -60t-70.5 -22q-41 0 -66 19l15 30q24 -14 48 -14q27 0 43 13.5t16 36.5q0 50 -63 50q-18 0 -38 -9l-19 17
l50 67h-23v710h87v-270h7q51 70 145 70z" />
    </font>
</defs>
</svg>
